<?xml version="1.0" encoding="utf-8"?>
<!-- Generator: Adobe Illustrator 25.2.0, SVG Export Plug-In . SVG Version: 6.00 Build 0)  -->
<svg version="1.1" id="레이어_1" xmlns="http://www.w3.org/2000/svg" xmlns:xlink="http://www.w3.org/1999/xlink" x="0px"
	 y="0px" viewBox="0 0 158.71 556.37" style="enable-background:new 0 0 158.71 556.37;" xml:space="preserve">
<style type="text/css">
	.st0{fill:#F8F0EB;}
	.st1{fill:#F3A699;}
	.st2{fill:#FFFFFF;}
	.st3{fill:#7A4848;}
	.st4{fill:#35303A;}
	.st5{fill:#E57A65;}
	.st6{fill:#F1CFB3;}
	.st7{fill:#D6A576;}
	.st8{fill:#B58251;}
	.st9{fill:#DFCEC6;}
	.st10{fill:#DB6969;}
	.st11{fill:#6B8584;}
	.st12{fill:#6F5E61;}
	.st13{fill:#789BB4;}
	.st14{fill:#84514C;}
	.st15{fill:#522E2E;}
	.st16{fill:#DACAC1;}
</style>
<g>
	<g>
		<path class="st0" d="M113.07,93.15c0,0,5.89,3.2,10.79,14.58c4.9,11.38,8.49,16.98,11.09,26.55c2.59,9.57,6.76,22.92,7.04,26.34
			c0.28,3.41-4.2,7.98-9.61,8.78c-5.41,0.8-24.49-47.7-24.49-47.7L113.07,93.15z"/>
	</g>
	<g>
		<polygon class="st1" points="52.23,481.04 48.71,503.86 45.54,524.35 32.77,523.94 32.06,503.34 31.12,475.54 31.12,448.99 		"/>
	</g>
	<g>
		<path class="st2" d="M39.97,508.46c-2.61-0.12-5.19-0.38-7.75-0.76l0.56,16.25l12.78,0.41l2.51-16.25
			C45.49,508.45,42.84,508.59,39.97,508.46z"/>
	</g>
	<g>
		<polygon class="st1" points="120.04,479.49 112.36,500.99 105.42,520.42 105.26,520.85 104.4,520.66 93.54,518.24 96.57,496.45 
			100.2,470.42 104.81,444.28 		"/>
	</g>
	<g>
		<path class="st2" d="M100.92,504.56c-1.7-0.48-3.49-1.01-5.25-1.66l-2.13,15.35l10.86,2.42c0.35-0.08,0.68-0.16,1.02-0.24
			l5.02-14.04C107.23,506.04,104.04,505.43,100.92,504.56z"/>
	</g>
	<g>
		<path class="st3" d="M144.1,333.33c-4.48-30.43-11.36-60.56-22.18-89.39c0.11-0.01,0.21-0.03,0.31-0.05
			c0.76-0.1,0.48-1.27-0.27-1.17c-0.28,0.04-0.56,0.08-0.84,0.12c-0.11-0.01-0.21,0.01-0.31,0.04c-13.69,1.89-27.5,4.99-40.38,10.02
			c-5.34,2.08-6.49,8.03-7.55,13.18c-1.34,6.49-1.57,13.14-1.89,19.74c-0.14,2.94-0.26,5.88-0.39,8.82
			c1.2,3.99,2.55,7.95,3.96,11.91c2.15,6,8.55,37.79,11.83,47.26c3.75,10.84,6.66,22.58,10.05,33.54
			c3.48,11.27-0.26,18.41-0.29,29.29c-0.01,3.47,0.56,6.94,0.37,10.42c-0.37,6.62-3.62,12.9-4.65,19.47
			c-0.68,4.37-0.88,8.77-0.65,13.16c-0.28,4.04-0.8,7.72-2.04,11.83c-1.39,4.63-2.19,9.34-2.82,14.09
			c5.12,2.37,13.86,5.16,19.2,6.89c2.25,0.73,12.36,3.75,12.36,3.75s29.14-83.91,31.63-97.33
			C152.09,385.2,146.07,346.75,144.1,333.33z"/>
	</g>
	<g>
		<path class="st3" d="M73.36,392.28c3.7-17.27,5.19-36.93,6.31-54.54c1.07-16.91-0.12-32.6,2.28-49.38
			c2.05-14.26,4.19-28.59,3.9-42.96c-22.33,1.63-44.7,2.56-67.09,2.76c-0.02-1.37-0.04-2.74-0.06-4.12c-0.01-0.77-1.21-0.77-1.2,0
			c0.02,1.38,0.04,2.75,0.06,4.13c-0.32,0-0.63,0.01-0.95,0.01c-0.77,0.01-0.77,1.2,0,1.2c0.32,0,0.65-0.01,0.97-0.01
			c0.11,7.64,0.23,15.28,0.34,22.92c0.14,9.27,0.54,18.6-0.3,27.85c-0.79,8.7-1.51,16.82-0.16,25.52c1.44,9.32,3.3,18.29,2.88,27.78
			c-0.4,9.26-1.83,18.43-2.21,27.69c-0.38,9.32-0.08,18.66,0.9,27.93c0.94,8.96,3.44,17.85,3.9,26.83
			c0.45,8.89-3.02,17.19-4.61,25.81c-1.51,8.24-1.83,16.69-0.9,25.02c0.14,1.3,0.19,3.03,0.51,4.63c10.2,2.12,20.9,5.94,30.97,3.74
			c2.34-0.51,4.61-1.2,6.82-2c0.32-1.03,0.61-2.05,0.9-2.97C57.94,485.99,69.82,408.82,73.36,392.28z"/>
	</g>
	<g>
		<path class="st4" d="M37.1,269.02c-1.43,0.88-2.85,1.46-4.35,1.78c0.12-0.81,0.23-1.63,0.32-2.44c0.09-0.76-1.11-0.76-1.2,0
			c-0.1,0.88-0.22,1.76-0.36,2.64c-0.84,0.09-1.7,0.11-2.61,0.05c-0.77-0.05-0.77,1.14,0,1.2c0.82,0.06,1.62,0.05,2.4-0.02
			c-2.06,11.98-7.25,23.12-15.05,32.52c-3.78,4.55-7.07,8.86-8.86,14.59c-2.08,6.62-4.12,12.98-7.4,19.1
			c2.47,0.72,4.97,1.39,7.44,2.11c1.9-6.59,3.91-13.23,7.4-19.18c3.44-5.86,7.26-11.82,11.34-17.2
			c7.87-10.35,11.22-21.93,11.82-34.62C38.02,269.09,37.48,268.79,37.1,269.02z"/>
	</g>
	<g>
		<path class="st0" d="M5.95,159.09c-1,11.07-0.26,11.63,1.2,22.75c1.13,8.62-1.18,66.56,0.8,90.1c7.25,3.04,14.43,5.87,22.93,5.8
			c13.04-0.1,30.52,0.85,43.5,0.43c13.46-0.44,29.1-1.87,42.39-5.14c6.69-1.64,12.99-4.3,18.98-7.56
			c-0.33-7.46-1.33-14.77-2.32-22.27c-1.1-8.39-1.22-21.26-1.56-29.64c-0.37-9.09-2.73-18.07-2.45-27.18
			c0.32-10.37,0.9-6.79-0.56-17.14c-1.18-8.42-2.79-16.77-3.5-25.25c-1.27-15.09-2.51-30.58-7.24-44.99
			c-1.02-1.67-2.23-3.24-3.71-4.66c-3.22-3.11-7.3-5.06-11.4-6.73c-5.44-2.22-11.07-3.97-16.76-5.44
			c-11.01-2.83-22.26-4.58-33.46-6.42c-0.56-0.09-0.88,0.52-0.7,0.89C42.55,81.64,33,86.65,23.45,91.65
			c-5.81,3.05-10.87,6.31-13.9,11.6c-2.18,2.59-2.89,5.82-3.25,9.16c-0.59,5.43-2.95,14.83-2.47,20.26
			C4.82,143.88,6.97,147.81,5.95,159.09z"/>
	</g>
	<g>
		<path class="st1" d="M155.4,251.51c0.51-1.86,0.74-3.79,0.6-5.83c-0.27-4.04-2.64-9.92-7.3-10.45l-2.32,4.98
			c0,0-5.16,11.55-6.05,11.61c-0.89,0.07-9.09-0.07-9.85,0.84c-0.76,0.91-0.58,2.64,4.47,3.11c5.05,0.47,3.09,1.03,9.73,0.17
			c6.64-0.86,5.07-0.8,8.45-2.29C154.08,253.23,154.82,252.43,155.4,251.51z"/>
	</g>
	<g>
		<path class="st1" d="M79.48,66.96l-1.41,7.71l-1.52,8.37l-0.65,3.54c-0.82,4.49-0.81,15.56-3.72,17.06
			c-2.91,1.5-23.32-14.73-22.28-23.38c0.98-8.12,2.73-22.81,2.73-23.37L79.48,66.96z"/>
	</g>
	<g>
		<path class="st5" d="M69.53,72.18c-2.6-0.84-5.46-2.44-8.15-2.77c-0.2-0.02-0.43,0.06-0.55,0.24c-1.34,1.88-0.63,4.75,0.67,6.49
			c0.77,1.03,1.77,1.54,2.87,2.14c1.7,0.92,3.17,2.29,4.84,3.17c1.22,0.65,2.61,0.6,3.9,1.09c0.9,0.35,1.64,0.93,2.66,0.77
			c0.28-0.05,0.54-0.13,0.78-0.28l1.52-8.37C75.21,73.92,72.36,73.1,69.53,72.18z"/>
	</g>
	<g>
		<path class="st1" d="M92.35,38.27c-0.16-1.14-0.37-2.25-0.63-3.35c-0.86-3.76-2.31-7.35-4.56-10.59
			c-2.39-3.44-5.63-6.84-9.45-8.71c-4.27-2.08-10.14-1.9-14.72-1.21c-8.95,1.37-16.03,9.17-18.8,17.48
			c-1.58,4.74-2.39,10.51-0.98,15.38c1.11,3.84,3.75,6.2,6.91,8.06c0.65,1.8,1.31,3.59,1.99,5.38c1.03,2.69,2.19,3.36,3.99,5.65
			c2.93,3.76,7.57,6.2,12.21,7.75c4.8,1.59,10.43,1.98,15.51,1.32c3.02-0.38,5.02-2.23,6.08-5.03c2.83-7.42,3.01-16.23,3.01-24.1
			C92.9,43.62,92.76,40.91,92.35,38.27z"/>
	</g>
	<g>
		<path class="st4" d="M71.94,42.43c0-0.02-0.01-0.03-0.01-0.05c-0.01-0.02-0.02-0.04-0.03-0.06c-0.1-0.33-0.25-0.62-0.47-0.79
			c-0.28-0.21-0.66-0.25-1.19-0.01c-0.29,0.13-0.45,0.38-0.57,0.61c-0.61,1.19-0.72,4.57,1.04,4.71
			C72.56,47.01,72.26,43.58,71.94,42.43z"/>
	</g>
	<g>
		<path class="st4" d="M89.49,41.87c0-0.01-0.01-0.03-0.01-0.04c-0.01-0.02-0.02-0.04-0.02-0.06c-0.1-0.31-0.24-0.57-0.45-0.72
			c-0.26-0.19-0.62-0.22-1.1,0.01c-0.26,0.13-0.4,0.36-0.51,0.58c-0.54,1.11-0.58,4.23,1.05,4.33
			C90.14,46.07,89.8,42.92,89.49,41.87z"/>
	</g>
	<g>
		<path class="st5" d="M85.76,51.34c-0.91-1.7-1.83-3.39-2.74-5.09c-0.37-0.68-1.4-0.07-1.03,0.6c0.91,1.7,1.83,3.39,2.74,5.09
			c0.75,1.4,1.38,3.1-0.35,4.41c-0.58,0.44-1.34,0.74-1.98,1.08c-0.68,0.37-0.07,1.4,0.6,1.03c1.61-0.87,4.06-1.75,4.06-3.92
			C87.05,53.39,86.28,52.32,85.76,51.34z"/>
	</g>
	<g>
		<path class="st5" d="M86.07,61.37c-3.23,0.13-6.44,0.42-9.59-0.52c-0.5-0.15-1.84-0.21-1.24,0.76c2.51,4.05,8.58,3.91,11.62,0.55
			c0.47-0.52,0.03-0.81-0.55-0.79C86.23,61.36,86.15,61.37,86.07,61.37z"/>
	</g>
	<g>
		<path class="st6" d="M73.64,35.75c-2.18-0.44-5.27,0.05-6.36,0.28c-1.65,0.34-4.03,0.9-4.67,2.72c-0.14,0.41,0.27,0.71,0.61,0.73
			c3.04,0.2,6.02-0.77,9.11-0.56c1.05,0.07,3.79,0.75,3.63-1.23C75.87,36.57,74.9,36,73.64,35.75z"/>
	</g>
	<g>
		<path class="st6" d="M92.35,38.27c-1.03-0.11-2.05-0.18-3.09-0.11c-1.05,0.07-3.8,0.75-3.63-1.22c0.08-1.11,1.05-1.69,2.31-1.94
			c1.15-0.23,2.55-0.2,3.77-0.08C91.98,36.02,92.2,37.13,92.35,38.27z"/>
	</g>
	<g>
		<path class="st6" d="M97.14,26.63c-0.73-1.17-1.36-2.38-2.12-3.53c-0.79-1.2-1.92-2.12-3.2-2.76c-3.28-1.66-7.36-1.75-10.94-1.63
			c-1.47,0.05-2.84,0.22-4.29-0.06c-1.34-0.27-2.49-0.91-3.8-1.29c-1.6-0.46-3.29-0.59-4.95-0.42c-4.19,0.43-7.26,3.06-10.29,5.76
			c-3.72,3.32-7.22,6.91-10.45,10.71c-2.61,3.07-6.68,6.73-5.56,11.15c0.59,2.32,1.98,4.5,3.11,6.59c1.01,1.89,2.08,3.75,3.17,5.59
			c0.02,0.05,0.02,0.09,0.05,0.14l0.54,0.85c0.37,0.62,2.95,6.74,3.45,6.16c1.66-1.92,2.72-4.76,3.16-7.59
			c-3.16-3.28-5.54-7.06-5.35-11.9c0.14-3.48,2.48-6.04,5.53-5.34c0.44,0.09,0.91,0.17,1.15-0.08c0.76-0.78,1.3-1.69,2.19-2.41
			c0.8-0.79,1.53-1.66,2.17-2.59c1.12-1.62,1.93-3.38,2.51-5.23c0.97,1.21,2.36,1.91,4.02,2.33c1.28,0.32,2.68,0.5,4.01,0.59
			c1.76,0.12,3.37-0.44,5.1-0.44c3.08,0,5,2.7,8.1,3.15c2.32,0.34,4.7,0.27,6.43-1.47c0.07-0.07,0.12-0.15,0.14-0.23
			c0.21,0.56,0.74,0.85,1.2,1.21c1.59,1.26,3.38,1.11,4.62-0.51c0.75-0.97,1.4-2.13,1.58-3.36C98.63,28.52,97.87,27.81,97.14,26.63z
			"/>
	</g>
	<g>
		<path class="st7" d="M87.9,16.17c-1.1-1.42-2.42-2.29-3.23-3.98c-0.5-1.05-0.8-1.98-1.71-2.77c-1.35-1.16-3.07-1.56-4.74-1.27
			c-0.28-0.24-0.58-0.48-0.92-0.7c-1.66-1.08-3.75-2.32-5.54-3.15c-3.36-1.57-7.84-1.03-11.43-1.71c-3.87-0.74-7.68-2.07-11.67-1.34
			c-3.1,0.56-7.14,2.2-9.51,4.31c-1.17,1.04-1.66,2.43-2.37,3.78c-1.07,2.01-2.67,3.61-4.24,5.22c-2.63,2.71-5.25,5.58-6.59,9.18
			c-1.09,2.94-1.29,6.35,0.06,9.25c1,2.14,2.37,2.37,4.23,2.4c0.15,0.96,0.38,1.89,0.8,2.77c0.85,1.8,2.44,2.92,3.49,4.6
			c1.06,1.69,1.26,3.8,2.81,5.19c0.45,0.4,0.98,0.61,1.48,0.93c1.19,0.76,1.98,1.52,2.95,2.51c1.9,1.93,4.55,5.56,4.88,3.3
			c0.38-2.63-0.57-10.7,0.13-13.32c0.67-2.53,0.66-4.63,2.22-6.71c1.6-2.13,2.64-4.63,4.23-6.78c2.77-3.77,7.43-6.35,11.88-7.59
			c4.18-1.17,8.28-1.25,12.56-1.11c2.07,0.07,5.22,0.14,7.28,0.3c1.09,0.09,5.8,0.38,5.8,0.38S88.66,17.16,87.9,16.17z"/>
	</g>
	<g>
		<path class="st8" d="M40.99,19.15c-4.57,3.78-8.79,8.12-9.93,14.15c-0.14,0.75,1.01,1.08,1.15,0.32
			c1.11-5.83,5.21-9.97,9.63-13.62C42.43,19.5,41.58,18.66,40.99,19.15z"/>
	</g>
	<g>
		<path class="st8" d="M75.34,9.67C57.12,7.89,42.68,22.26,39.74,39.45c-0.13,0.75,1.03,1.08,1.15,0.32
			c2.85-16.7,16.71-30.63,34.44-28.9C76.1,10.95,76.1,9.75,75.34,9.67z"/>
	</g>
	<g>
		<path class="st9" d="M55.97,549.2c-0.4,2.79-1.29,6.55-7.74,7.1c-0.54,0.05-1.11,0.07-1.74,0.07c-1.53-0.01-3.23-0.01-4.98-0.08
			c-5.15-0.2-10.6-0.92-12.53-3.5c-1.07-1.42-1.02-6.24-0.59-11.41c0.32-3.94,0.87-8.09,1.31-11.09c0.38-2.57,0.67-4.29,0.67-4.29
			s0.8-2.43,2.83-4.33c0.34-0.32,0.69-0.62,1.09-0.89c0.59-0.42,1.26-0.77,2.01-1.01c2.85-0.92,5.47-0.59,7.5,0.25
			c0.47,0.18,0.89,0.4,1.28,0.62c1.37,0.8,2.28,1.78,2.56,2.57c0.72,2.01,2.44,8.18,3.01,10.33
			C51.23,535.71,56.41,546.18,55.97,549.2z"/>
	</g>
	<g>
		<path class="st2" d="M53.91,544.2c-0.45-1.19-1.49-2.37-2.75-2.54c-2.95-0.41-6.51,0.29-9.44,0.68c-2.42,0.32-9.06,0.49-8.42,4.55
			c0.68,4.31,8.42,3.62,10.45,7.07c0.39,0.66,1.43,0.06,1.03-0.6c-1.09-1.85-2.78-2.75-4.76-3.43c-0.94-0.33-2.63-0.61-3.38-1.18
			c-0.27-0.15-0.53-0.3-0.8-0.45c0.01-0.04,0.02-0.09,0.04-0.13c-0.14-0.06-0.27-0.15-0.38-0.28c-0.7-0.84-0.99-1.92-0.18-2.8
			c0.52-0.57,1.32-0.8,2.02-1.06c0.22-0.08,0.45-0.07,0.66,0c0.8-0.13,1.78-0.19,2.15-0.25c1.29-0.2,2.59-0.36,3.88-0.5
			c1.79-0.19,4.03-0.68,5.81-0.4c2.58,0.41,4.87,2.6,1.1,5.63c-0.57,0.46-1.4,0.68-2.05,0.97c-2.12,0.97-3.77,2.18-3.72,4.67
			c0.02,0.77,1.21,0.77,1.2,0c-0.02-1.1,1.79-2.92,2.71-3.46c0.51-0.3,1.13-0.46,1.66-0.73c0.85-0.44,1.76-0.96,2.34-1.74
			C54.06,546.89,54.48,545.72,53.91,544.2z"/>
	</g>
	<g>
		<path class="st9" d="M122.32,548.01c-0.05,0.01-0.09,0.04-0.14,0.05c-3.8,1.4-13.25,0.07-18.18-1.24
			c-4.98-1.33-6.55-8.01-12.02-10.53c-5.48-2.51-7.83-5.43-6.99-7.41c0.25-0.62,0.85-1.92,1.59-3.43c0.6-1.28,1.32-2.7,2.02-4.01
			c1.09-2.03,2.15-3.75,2.75-4.15c1.45-0.95,3.59-0.12,6.73-0.22c0.51-0.02,1.14-0.06,1.83-0.11c0.41-0.01,0.83-0.04,1.27-0.07
			c3.41-0.21,7.6-0.27,8.33,1.59c0.98,2.52,3.24,8.88,6.33,13.12c0.83,1.15,1.78,2.13,2.75,3.04c0.32,0.31,0.66,0.61,0.98,0.89
			c2.28,2.02,4.43,3.61,5.07,5.51c0.16,0.49,0.31,0.96,0.42,1.41C125.64,544.81,125.41,546.78,122.32,548.01z"/>
	</g>
	<g>
		<path class="st2" d="M123.56,544.34c-1.03-1.07-2.23-1.91-3.67-2.35c-1.53-0.46-3.22-0.16-4.73-0.63
			c-0.21-0.01-0.38-0.07-0.54-0.13c-0.05,0.01-0.1,0.02-0.15,0.03c-0.67,0.07-1.26-0.57-1.28-1.2c-0.02-0.53,0.3-0.95,0.74-1.15
			c0.41-0.34,0.82-0.67,1.26-0.97c0.59-0.42,1.2-0.81,1.82-1.16c0.83-0.47,1.7-0.88,2.57-1.24c-0.32-0.28-0.65-0.58-0.98-0.89
			c-0.98,0.43-1.93,0.92-2.85,1.48c-1.22,0.75-4,2.21-4.01,3.93c-0.01,1.43,1.69,2.12,2.84,2.4c3.09,0.75,5.73,0.23,8.18,2.76
			C123.27,545.78,124.09,544.9,123.56,544.34z"/>
	</g>
	<g>
		<path class="st10" d="M48.12,553.99c-0.05-0.55,0.04-1.4-0.42-1.82c-0.97-0.86-4.24-0.32-5.22,0.35c-0.81,0.56-0.73,1.96-0.9,2.95
			c-0.02,0.18-0.04,0.49-0.06,0.83c1.75,0.07,3.45,0.07,4.98,0.08c0.62,0,1.2-0.02,1.74-0.07
			C48.22,555.53,48.18,554.75,48.12,553.99z"/>
	</g>
	<g>
		<path class="st10" d="M125.05,542.46c-0.51,0.23-0.99,0.58-1.45,0.85c-0.45,0.24-1.15,0.49-1.39,0.99
			c-0.24,0.49,0.02,1.22,0.07,1.69c0.06,0.7,0.02,1.4-0.1,2.08c0.05-0.01,0.09-0.04,0.14-0.05
			C125.41,546.78,125.64,544.81,125.05,542.46z"/>
	</g>
	<g>
		<path class="st10" d="M31.77,538.73c-0.49-1.94-1.37-3.75-1.8-5.71c-0.13-0.61-0.11-1.77-0.26-2.73
			c-0.43,2.99-0.98,7.15-1.31,11.09c0.9,1.04,2.3,1.47,3.25-0.01C32.21,540.53,32,539.62,31.77,538.73z"/>
	</g>
	<g>
		<path class="st10" d="M88.6,521.45c-0.7,1.31-1.42,2.73-2.02,4.01c0.95,0.58,1.95,1.11,2.89,1.75c2.48,1.71,4.68,3.75,6.67,6
			c1.41,1.62,4.95,6.56,7.74,5.01C108.61,535.59,93.18,524.6,88.6,521.45z"/>
	</g>
	<g>
		<path class="st2" d="M36.62,535.44c0.14,0.75-1.01,1.08-1.15,0.32c-0.91-4.67-1.66-9.38-2.26-14.09c0.34-0.32,0.69-0.62,1.09-0.89
			C34.9,525.7,35.68,530.58,36.62,535.44z"/>
	</g>
	<g>
		<path class="st2" d="M46.22,534.37c-0.98-4.75-1.78-9.53-2.41-14.35c0.47,0.18,0.89,0.4,1.28,0.62c0.6,4.49,1.37,8.96,2.29,13.4
			C47.53,534.8,46.37,535.13,46.22,534.37z"/>
	</g>
	<g>
		<path class="st2" d="M108.3,532.62c-2.47-2.24-3.88-5.43-5.31-8.4c-1.15-2.37-2.16-4.79-3.08-7.25c0.41-0.01,0.83-0.04,1.27-0.07
			c0.84,2.26,1.79,4.49,2.82,6.69c1.36,2.84,2.76,6.02,5.12,8.17C109.69,532.27,108.88,533.14,108.3,532.62z"/>
	</g>
	<g>
		<g>
			<g>
				<path class="st11" d="M152.82,227.39c1.15,0.37,0.94,4.95,0,5.27c-0.45,0.15-14.56-0.05-28.92-0.07
					c-15.59-0.02-31.53,0.12-31.88-0.09c-0.96-0.56-1.56-4.64,0.21-5.11c0.91-0.24,16.54-0.14,31.67-0.12
					C138.31,227.28,152.26,227.21,152.82,227.39z"/>
			</g>
			<g>
				<g>
					<path class="st12" d="M88.88,242.35h11.29v-10.57H88.88c-1.25,0-2.27,1.02-2.27,2.27v6.03
						C86.61,241.33,87.63,242.35,88.88,242.35z"/>
				</g>
				<g>
					
						<rect x="97.04" y="233.41" transform="matrix(-1 -1.224647e-16 1.224647e-16 -1 251.3722 474.0592)" class="st6" width="57.29" height="7.23"/>
				</g>
				<g>
					<path class="st12" d="M97.02,242.35h57.36c0.43,0,0.78-0.35,0.78-0.78v-0.13c0-0.43-0.35-0.78-0.78-0.78H97.02
						c-0.43,0-0.78,0.35-0.78,0.78v0.13C96.24,242,96.59,242.35,97.02,242.35z"/>
				</g>
				<g>
					<path class="st12" d="M97.1,233.64h57.21c0.47,0,0.86-0.38,0.86-0.86v-0.15c0-0.47-0.38-0.86-0.86-0.86H97.1
						c-0.47,0-0.86,0.38-0.86,0.86v0.15C96.24,233.26,96.62,233.64,97.1,233.64z"/>
				</g>
			</g>
			<g>
				<g>
					<path class="st4" d="M97.12,252.49c0.16,0.19,3.67,0.23,8.94,0.23c1.15,0,2.38,0,3.68-0.01c0.5,0,1.02,0,1.54-0.01
						c0.7,0,1.42,0,2.15-0.01c4.8-0.02,10.21-0.03,15.58-0.02c14.36,0.04,28.47,0.43,28.92,0.13c0.94-0.63,1.15-9.8,0-10.53
						c-0.56-0.36-14.51-0.21-28.92-0.24c-5.36-0.02-10.78-0.03-15.58-0.04h-3.69c-1.3,0-2.54,0.01-3.68,0.01
						c-4.94,0.03-8.3,0.11-8.73,0.28C96.19,242.73,96.15,251.38,97.12,252.49z"/>
				</g>
				<g>
					<path class="st2" d="M106.05,242.01v10.71c1.15,0,2.38,0,3.68-0.01V242C108.43,242,107.2,242.01,106.05,242.01z"/>
				</g>
				<g>
					<path class="st2" d="M111.27,242v10.7c0.7,0,1.42,0,2.15-0.01V242H111.27z"/>
				</g>
			</g>
			<g>
				<path class="st2" d="M152.78,236.23H98.66c-0.33,0-0.6-0.27-0.6-0.6c0-0.33,0.27-0.6,0.6-0.6h54.12c0.33,0,0.6,0.27,0.6,0.6
					C153.38,235.96,153.11,236.23,152.78,236.23z"/>
			</g>
			<g>
				<path class="st2" d="M152.78,239.1H98.66c-0.33,0-0.6-0.27-0.6-0.6c0-0.33,0.27-0.6,0.6-0.6h54.12c0.33,0,0.6,0.27,0.6,0.6
					C153.38,238.83,153.11,239.1,152.78,239.1z"/>
			</g>
		</g>
		<g>
			<g>
				<path class="st6" d="M150.51,227.67h-11.29v-8.8h11.29c1.25,0,2.27,1.02,2.27,2.27v4.26
					C152.78,226.65,151.76,227.67,150.51,227.67z"/>
			</g>
			<g>
				<rect x="85.06" y="219.09" class="st2" width="57.29" height="6.87"/>
			</g>
			<g>
				<path class="st6" d="M142.37,227.67H85.01c-0.43,0-0.78-0.35-0.78-0.78v-0.13c0-0.43,0.35-0.78,0.78-0.78h57.36
					c0.43,0,0.78,0.35,0.78,0.78v0.13C143.15,227.32,142.8,227.67,142.37,227.67z"/>
			</g>
			<g>
				<path class="st6" d="M142.27,220.72H85.05c-0.47,0-0.86-0.38-0.86-0.86v-0.15c0-0.47,0.38-0.86,0.86-0.86h57.21
					c0.47,0,0.86,0.38,0.86,0.86v0.15C143.12,220.34,142.74,220.72,142.27,220.72z"/>
			</g>
		</g>
		<g>
			<g>
				<path class="st13" d="M149.31,210.25c1.15,0.61,0.94,8.22,0,8.74c-0.45,0.25-14.56-0.08-28.92-0.12
					c-15.59-0.04-31.53,0.19-31.88-0.15c-0.96-0.93-1.56-7.7,0.21-8.48c0.91-0.4,16.54-0.23,31.67-0.2
					C134.81,210.08,148.75,209.95,149.31,210.25z"/>
			</g>
			<g>
				<g>
					<path class="st0" d="M94.58,215.61v-2.25c0-1.18,0.96-2.13,2.13-2.13h44.96c1.18,0,2.13,0.96,2.13,2.13v2.25
						c0,1.18-0.96,2.13-2.13,2.13H96.72C95.54,217.75,94.58,216.79,94.58,215.61z M96.72,212.01c-0.74,0-1.35,0.61-1.35,1.35v2.25
						c0,0.74,0.61,1.35,1.35,1.35h44.96c0.74,0,1.35-0.61,1.35-1.35v-2.25c0-0.74-0.61-1.35-1.35-1.35H96.72z"/>
				</g>
			</g>
		</g>
		<g>
			<path class="st4" d="M145.62,203.07c1.15,0.48,0.94,6.56,0,6.97c-0.45,0.2-14.56-0.06-28.92-0.09
				c-15.59-0.03-31.53,0.15-31.88-0.12c-0.96-0.74-1.56-6.14,0.21-6.76c0.91-0.32,16.54-0.19,31.67-0.16
				C131.12,202.93,145.06,202.83,145.62,203.07z"/>
		</g>
		<g>
			<g>
				<g>
					<path class="st14" d="M81.65,203.02h11.29v-15.98H81.65c-1.25,0-2.27,1.02-2.27,2.27v11.45
						C79.38,202.01,80.4,203.02,81.65,203.02z"/>
				</g>
				<g>
					
						<rect x="89.81" y="188.9" transform="matrix(-1 -1.224647e-16 1.224647e-16 -1 236.9139 390.2235)" class="st2" width="57.29" height="12.42"/>
				</g>
				<g>
					<path class="st14" d="M89.79,203.02h57.36c0.43,0,0.78-0.35,0.78-0.78v-0.13c0-0.43-0.35-0.78-0.78-0.78H89.79
						c-0.43,0-0.78,0.35-0.78,0.78v0.13C89.01,202.67,89.36,203.02,89.79,203.02z"/>
				</g>
				<g>
					<path class="st14" d="M89.87,188.9h57.21c0.47,0,0.86-0.38,0.86-0.86v-0.15c0-0.47-0.38-0.86-0.86-0.86H89.87
						c-0.47,0-0.86,0.38-0.86,0.86v0.15C89.01,188.52,89.39,188.9,89.87,188.9z"/>
				</g>
			</g>
			<g>
				<path class="st6" d="M84.91,195.29c0,3.33,0.56,6.03,1.25,6.03c0.69,0,1.25-2.7,1.25-6.03c0-3.33-0.56-6.03-1.25-6.03
					C85.47,189.27,84.91,191.96,84.91,195.29z"/>
			</g>
			<g>
				<path class="st6" d="M146,191.45H91.09c-0.33,0-0.6-0.27-0.6-0.6s0.27-0.6,0.6-0.6H146c0.33,0,0.6,0.27,0.6,0.6
					S146.33,191.45,146,191.45z"/>
			</g>
			<g>
				<path class="st6" d="M146,194.42H91.09c-0.33,0-0.6-0.27-0.6-0.6c0-0.33,0.27-0.6,0.6-0.6H146c0.33,0,0.6,0.27,0.6,0.6
					C146.6,194.15,146.33,194.42,146,194.42z"/>
			</g>
			<g>
				<path class="st6" d="M146,197.39H91.09c-0.33,0-0.6-0.27-0.6-0.6c0-0.33,0.27-0.6,0.6-0.6H146c0.33,0,0.6,0.27,0.6,0.6
					C146.6,197.12,146.33,197.39,146,197.39z"/>
			</g>
			<g>
				<path class="st6" d="M146,200.36H91.09c-0.33,0-0.6-0.27-0.6-0.6c0-0.33,0.27-0.6,0.6-0.6H146c0.33,0,0.6,0.27,0.6,0.6
					C146.6,200.09,146.33,200.36,146,200.36z"/>
			</g>
		</g>
	</g>
	<g>
		<path class="st1" d="M19,169.4l28.34-4.99c0,0,7.18,24.17,7.98,26.55c0.8,2.39,37.03,52.51,37.03,52.51l-1.7,8.35l-12.37-2.39
			c0,0-38.12-34.26-45.9-46.57C24.59,190.55,19,169.4,19,169.4z"/>
	</g>
	<g>
		<path class="st1" d="M93.44,242.35c0,0,12.08,10.56,12.97,10.56c0.9-0.01,11.44-1.04,12.27-0.2c0.84,0.84,0.5,2.01-4.49,2.91
			c-4.99,0.9-8.98,2-15.67,1.7c-6.69-0.3-7.18,0.2-10.68-1c-3.49-1.2-9.58-6.89-9.58-6.89l1.5-5.49L93.44,242.35z"/>
	</g>
	<g>
		<path class="st1" d="M88.85,240.65c0,0,2.89-1,8.18,0c5.29,1,10.23,4.99,13.35,5.69s4.41,4.25-1.07,3.52
			c-5.49-0.73-13.2-1.32-13.2-1.32L88.85,240.65z"/>
	</g>
	<g>
		<path class="st10" d="M144.93,175.74v9.26c0,1.14-0.91,2.05-2.05,2.05H80.12c-1.14,0-2.05-0.91-2.05-2.05v-9.26
			c0-1.14,0.91-2.05,2.05-2.05h62.77C144.02,173.69,144.93,174.6,144.93,175.74z"/>
	</g>
	<g>
		<rect x="128.17" y="173.69" class="st2" width="3.69" height="13.35"/>
	</g>
	<g>
		<g>
			<path class="st4" d="M140.55,173.78h-11.29v-10.57h11.29c1.25,0,2.27,1.02,2.27,2.27v6.03
				C142.82,172.76,141.8,173.78,140.55,173.78z"/>
		</g>
		<g>
			<rect x="75.09" y="164.85" class="st2" width="57.29" height="7.23"/>
		</g>
		<g>
			<path class="st4" d="M132.4,173.78H75.04c-0.43,0-0.78-0.35-0.78-0.78v-0.13c0-0.43,0.35-0.78,0.78-0.78h57.36
				c0.43,0,0.78,0.35,0.78,0.78V173C133.19,173.43,132.84,173.78,132.4,173.78z"/>
		</g>
		<g>
			<path class="st4" d="M132.33,165.07H75.12c-0.47,0-0.86-0.38-0.86-0.86v-0.15c0-0.47,0.38-0.86,0.86-0.86h57.21
				c0.47,0,0.86,0.38,0.86,0.86v0.15C133.19,164.69,132.8,165.07,132.33,165.07z"/>
		</g>
	</g>
	<g>
		<path class="st6" d="M139.41,172.08L139.41,172.08c0.48,0,0.86-0.39,0.86-0.86v-5.28c0-0.48-0.39-0.86-0.86-0.86l0,0
			c-0.48,0-0.86,0.39-0.86,0.86v5.28C138.55,171.69,138.93,172.08,139.41,172.08z"/>
	</g>
	<g>
		<g>
			<path class="st12" d="M141.21,148.4c1.15,0.47,0.94,6.42,0,6.82c-0.45,0.19-14.56-0.06-28.92-0.09
				c-15.59-0.03-31.53,0.15-31.88-0.12c-0.96-0.72-1.56-6.01,0.21-6.62c0.91-0.31,16.54-0.18,31.67-0.16
				C126.7,148.26,140.65,148.17,141.21,148.4z"/>
		</g>
		<g>
			<path class="st2" d="M129.62,151.66c0,1.34-0.65,2.42-1.45,2.42s-1.45-1.08-1.45-2.42s0.65-2.42,1.45-2.42
				S129.62,150.32,129.62,151.66z"/>
		</g>
		<g>
			<ellipse class="st2" cx="123.87" cy="151.66" rx="1.45" ry="2.42"/>
		</g>
	</g>
	<g>
		<g>
			<path class="st11" d="M138.02,163.03c-0.16,0.19-3.67,0.23-8.94,0.23c-1.15,0-2.38,0-3.68-0.01c-0.5,0-1.02,0-1.54-0.01
				c-0.7,0-1.42,0-2.15-0.01c-4.8-0.02-10.21-0.03-15.58-0.02c-14.36,0.04-28.47,0.43-28.92,0.13c-0.94-0.63-1.15-7.41,0-8.13
				c0.56-0.36,14.51-0.21,28.92-0.24c5.36-0.02,10.78-0.03,15.58-0.04h3.69c1.3,0,2.54,0.01,3.68,0.01c4.94,0.03,8.3,0.11,8.73,0.28
				C138.94,155.67,138.99,161.92,138.02,163.03z"/>
		</g>
		<g>
			<path class="st2" d="M129.08,154.94v8.32c-1.15,0-2.38,0-3.68-0.01v-8.32C126.7,154.93,127.94,154.94,129.08,154.94z"/>
		</g>
		<g>
			<path class="st2" d="M123.87,154.93v8.31c-0.7,0-1.42,0-2.15-0.01v-8.3H123.87z"/>
		</g>
	</g>
	<g>
		<g>
			<g>
				
					<rect x="83.72" y="135.92" transform="matrix(-1 -1.224647e-16 1.224647e-16 -1 224.7329 282.657)" class="st6" width="57.29" height="10.82"/>
			</g>
			<g>
				<path class="st13" d="M83.7,148.44h57.36c0.43,0,0.78-0.35,0.78-0.78v-0.13c0-0.43-0.35-0.78-0.78-0.78H83.7
					c-0.43,0-0.78,0.35-0.78,0.78v0.13C82.92,148.09,83.27,148.44,83.7,148.44z"/>
			</g>
			<g>
				<path class="st13" d="M83.78,136.14h57.21c0.47,0,0.86-0.38,0.86-0.86v-0.15c0-0.47-0.38-0.86-0.86-0.86H83.78
					c-0.47,0-0.86,0.38-0.86,0.86v0.15C82.92,135.76,83.3,136.14,83.78,136.14z"/>
			</g>
			<g>
				<path class="st13" d="M103.72,134.28v14.17H75.55c-1.25,0-2.26-1.02-2.26-2.28v-9.62c0-1.26,1.02-2.28,2.26-2.28H103.72z"/>
			</g>
		</g>
		<g>
			<path class="st2" d="M139.99,138.51h-35.1c-0.33,0-0.6-0.27-0.6-0.6c0-0.33,0.27-0.6,0.6-0.6h35.1c0.33,0,0.6,0.27,0.6,0.6
				C140.59,138.24,140.33,138.51,139.99,138.51z"/>
		</g>
		<g>
			<path class="st2" d="M139.99,140.86h-35.1c-0.33,0-0.6-0.27-0.6-0.6c0-0.33,0.27-0.6,0.6-0.6h35.1c0.33,0,0.6,0.27,0.6,0.6
				C140.59,140.59,140.33,140.86,139.99,140.86z"/>
		</g>
		<g>
			<path class="st2" d="M139.99,143.15h-35.1c-0.33,0-0.6-0.27-0.6-0.6c0-0.33,0.27-0.6,0.6-0.6h35.1c0.33,0,0.6,0.27,0.6,0.6
				C140.59,142.88,140.33,143.15,139.99,143.15z"/>
		</g>
		<g>
			<path class="st2" d="M139.99,145.5h-35.1c-0.33,0-0.6-0.27-0.6-0.6c0-0.33,0.27-0.6,0.6-0.6h35.1c0.33,0,0.6,0.27,0.6,0.6
				C140.59,145.23,140.33,145.5,139.99,145.5z"/>
		</g>
		<g>
			<rect x="89.71" y="134.28" class="st2" width="3.28" height="14.17"/>
		</g>
		<g>
			<rect x="94.71" y="134.28" class="st2" width="2.02" height="14.17"/>
		</g>
	</g>
	<g>
		<path class="st15" d="M115.89,297.4c-8.79,5.61-17.77,10.89-26.93,15.87c1.85-1.98,3.76-3.84,5.35-5.61
			c5.18-5.76,10.35-11.52,15.53-17.27c0.51-0.57-0.33-1.42-0.85-0.85c-5.95,6.62-11.91,13.24-17.86,19.86
			c-4.39,4.89-10.25,9.99-10.64,17c-0.04,0.77,1.15,0.77,1.2,0c0.22-3.97,2.43-7.52,5.15-10.75c0.12,0.02,0.24,0.01,0.37-0.06
			c9.98-5.35,19.74-11.07,29.29-17.16C117.14,298.02,116.54,296.98,115.89,297.4z"/>
	</g>
	<g>
		<path class="st15" d="M37.6,412.02c-4.87,7.92-9.48,15.99-13.82,24.22c-0.36,0.68,0.67,1.29,1.03,0.6
			c4.34-8.22,8.95-16.3,13.82-24.22C39.04,411.96,38.01,411.36,37.6,412.02z"/>
	</g>
	<g>
		<path class="st16" d="M53.1,160.1c-2.27-5.47-2.79-11.64-4.22-17.36c-1.47-5.9-3.27-11.7-5.33-17.42
			c-0.26-0.72-1.42-0.41-1.15,0.32c2.26,6.25,4.19,12.61,5.73,19.08c0.74,3.12,1.34,6.26,1.98,9.4c0.29,1.44,0.74,2.83,1.05,4.26
			c0.5,2.24-0.82,2.23-2.73,3.11c-0.7,0.32-0.09,1.35,0.6,1.03l3.78-1.74C53.04,160.68,53.19,160.33,53.1,160.1z"/>
	</g>
	<g>
		<path class="st16" d="M114.55,97c-0.14-0.76-1.29-0.44-1.15,0.32c2.07,11.28,2.84,22.7,2.31,34.16c-0.04,0.77,1.16,0.77,1.2,0
			C117.43,119.91,116.64,108.38,114.55,97z"/>
	</g>
	<g>
		<path class="st16" d="M16.01,168.8H9.02c-0.77,0-0.77,1.2,0,1.2h6.99C16.78,170,16.78,168.8,16.01,168.8z"/>
	</g>
</g>
</svg>
