<?xml version="1.0" encoding="utf-8"?>
<!-- Generator: Adobe Illustrator 25.2.0, SVG Export Plug-In . SVG Version: 6.00 Build 0)  -->
<svg version="1.1" id="레이어_1" xmlns="http://www.w3.org/2000/svg" xmlns:xlink="http://www.w3.org/1999/xlink" x="0px"
	 y="0px" viewBox="0 0 158.71 532.76" style="enable-background:new 0 0 158.71 532.76;" xml:space="preserve">
<style type="text/css">
	.st0{fill:#F3A699;}
	.st1{fill:#35303A;}
	.st2{fill:#F8F0EB;}
	.st3{fill:#1A161C;}
	.st4{fill:#7A4848;}
	.st5{fill:#E57A65;}
	.st6{fill:#F7F0F0;}
	.st7{fill:#789BB4;}
	.st8{fill:#522E2E;}
	.st9{fill:#FFFFFF;}
	.st10{fill:#DB6969;}
	.st11{fill:#635E66;}
	.st12{fill:#507691;}
	.st13{fill:#6F5E61;}
</style>
<g>
	<g>
		<polygon class="st0" points="60.96,460.68 54.27,504 40.56,502.82 39.85,455.19 39.85,428.64 		"/>
	</g>
	<g>
		<polygon class="st0" points="129.24,458.04 127.56,501.85 113.81,502.25 107.63,455.02 104.58,428.64 		"/>
	</g>
	<g>
		<path class="st1" d="M57.01,520.84c-0.13-1.31-0.3-2.59-0.37-3.75c-0.26-4.16-1.41-12.99-1.71-12.99
			c-2.73-6.65-11.48-8.04-14.66-1.15c-0.23,0.48-2.28,7.65-3.09,10.67c-0.51,1.9-1.27,3.88-1.75,5.88c-0.31,1.29-0.5,2.61-0.43,3.92
			c0.32,5.71,4.77,8.47,9.94,9.2c4.01,0.57,10.65-0.42,11.9-5.14C57.37,525.49,57.23,523.13,57.01,520.84z"/>
	</g>
	<g>
		<path class="st1" d="M154.48,517.26c-0.57,2.96-3.42,3.65-6.26,3.89c-4.91,0.41-8.71,0.2-13.6,0c-5.3-0.22-23.09,0.02-24.08-2.45
			c-0.32-0.81-0.35-1.92-0.3-2.98c0.05-0.89,0.13-1.77,0.14-2.49c0.05-2.53,0.16-3.86,0.44-6.37c0.17-1.58-0.07-5.23,1.86-5.89
			c0.1-0.16,6.44,0.3,9.36-0.06c1.29-0.16,2.5-0.44,3.69-0.95c0.98-0.42,1.92-1.42,2.98-1.44c0.72,0,2.93,2.17,6.08,4.21
			c0.32,0.22,0.67,0.42,1.02,0.62c0.44,0.28,0.91,0.54,1.39,0.79c0.17,0.08,0.4,0.2,0.67,0.36c0.31,0.16,0.68,0.36,1.09,0.57
			c2.26,1.21,5.7,3.07,6.47,3.44c1.9,0.91,3.81,1.81,5.66,2.81C153.79,512.79,155.04,514.46,154.48,517.26z"/>
	</g>
	<g>
		<path class="st2" d="M151.09,511.34c-1.86-1.01-3.76-1.91-5.67-2.82c-0.36,0.62-1.52,4.98-1.81,5.9
			c-0.61,2.05-1.04,1.98-2.99,2.28c-5.65,0.89-11.23,0.66-16.96,0.52c-2.61-0.06-5.19-0.34-7.78-0.68c-1.58-0.22-3.79-0.8-5.64-0.82
			c-0.05,1.06-0.03,2.16,0.3,2.97c0.99,2.48,18.78,2.24,24.08,2.46c4.91,0.2,8.7,0.4,13.61,0c2.84-0.24,5.69-0.94,6.27-3.9
			C155.04,514.45,153.79,512.79,151.09,511.34z"/>
	</g>
	<g>
		<path class="st2" d="M135.81,503.36c-1.11,0.99-2.51,2.23-3.01,3.44c-0.3,0.71-1.44,0.35-1.15-0.37c0.57-1.41,2.05-2.63,3.14-3.69
			C135.11,502.95,135.46,503.15,135.81,503.36z"/>
	</g>
	<g>
		<path class="st2" d="M138.96,505.08c-1.03,1.07-1.93,2.24-2.72,3.52c-0.38,0.67-1.4,0.01-0.99-0.65c0.75-1.25,1.63-2.39,2.62-3.45
			C138.18,504.66,138.55,504.87,138.96,505.08z"/>
	</g>
	<g>
		<path class="st2" d="M57.01,520.84c-0.93-0.51-1.9-0.96-2.83-1.29c-6.07-2.22-12.81-2.48-18.75-0.05
			c-0.31,1.29-0.5,2.61-0.43,3.92c0.32,5.71,4.77,8.47,9.94,9.2c4.01,0.57,10.65-0.42,11.9-5.14
			C57.37,525.49,57.23,523.13,57.01,520.84z"/>
	</g>
	<g>
		<path class="st2" d="M50.26,511.95c-2.72-0.98-5.58-0.98-8.3,0c-0.72,0.26-0.41,1.42,0.32,1.15c2.54-0.91,5.12-0.91,7.66,0
			C50.67,513.36,50.98,512.2,50.26,511.95z"/>
	</g>
	<g>
		<path class="st2" d="M50.86,507.38c-2.72-0.98-5.58-0.98-8.3,0c-0.72,0.26-0.41,1.42,0.32,1.15c2.54-0.91,5.12-0.91,7.66,0
			C51.27,508.79,51.58,507.63,50.86,507.38z"/>
	</g>
	<g>
		<path class="st1" d="M25.94,160.78c0,0-11.58,6.22-13.97,11.41S1.19,235.26,1.19,241.25c0,5.99,29.14,14.37,35.32,13.17
			c6.19-1.2,25.75-67.46,20.36-68.06C51.48,185.76,25.94,160.78,25.94,160.78z"/>
	</g>
	<g>
		<path class="st3" d="M26.44,228.67c-0.05,0-0.11-0.01-0.16-0.02l-22.05-6.19c-0.32-0.09-0.5-0.42-0.41-0.74
			c0.09-0.32,0.42-0.5,0.74-0.42l22.05,6.19c0.32,0.09,0.5,0.42,0.41,0.74C26.94,228.5,26.7,228.67,26.44,228.67z"/>
	</g>
	<g>
		<path class="st0" d="M153.02,131.03c0,0-1.63,47.45-9.04,56.13c-7.41,8.68-18.64-2.4-18.64-2.4l7.57-49.08L153.02,131.03z"/>
	</g>
	<g>
		<path class="st0" d="M152.59,115.28c0,0,2.22-0.66,3.02,0.44c0.8,1.1,1.4,5.89,1.4,5.89s-4.34-0.38-4.34-0.46
			C152.67,121.05,152.59,115.28,152.59,115.28z"/>
	</g>
	<g>
		
			<rect x="0.43" y="152.24" transform="matrix(0.084 -0.9965 0.9965 0.084 -136.1761 158.7436)" class="st1" width="35.64" height="2.4"/>
	</g>
	<g>
		<path class="st4" d="M121.22,34.16c-0.11-0.23-0.44-0.35-0.68-0.28c-4.2,1.38-6.6,6.14-8.91,9.59c-3.18,4.74-5.59,9.35-7.49,14.72
			c-0.81,2.29-2.57,4.72-2.92,7.12c-0.16,1.08,0.1,2.22,1.03,2.89c1.81,1.29,4.69,0.81,6.7,1.69c2,0.87,2.52,2.22,4.89,2.27
			c0.38,0.01,0.58-0.28,0.58-0.58c0.22-0.01,0.42-0.14,0.46-0.43c0.93-6.7,4.49-12.53,6.28-18.99
			C122.72,46.59,123.87,39.54,121.22,34.16z"/>
	</g>
	<g>
		<path class="st0" d="M95.63,94.26c-4.69,2.96-19.57,2.19-28.5,1.25c-8.92-0.93-21.6-10.96-21.6-10.96s16.2-8.68,19.69-12.48
			c0.91-0.99,2.17-3.09,3.5-5.65c0.19-0.35,0.37-0.71,0.56-1.08c3.63-7.16,7.64-17.03,7.26-17.42l4.48,4.56l8.19,8.33l5.48,5.58
			c0,0-0.32,0.6-0.79,1.51c-0.73,1.41-1.82,3.56-2.54,5.14c-0.2,0.44-0.38,0.85-0.5,1.17c-0.11,0.26-0.18,0.48-0.22,0.63
			c-0.01,0.07-0.02,0.12-0.02,0.16c0,0.93,14.56,8.29,15.35,8.92C106.74,84.55,100.33,91.29,95.63,94.26z"/>
	</g>
	<g>
		<path class="st5" d="M90.26,63.06c-0.25-0.4-0.6-1.21-1.05-2.24c-1.67-3.92-4.55-10.9-7.2-9.58c-0.48,0.23-0.79,0.68-0.99,1.24
			c-0.64,1.74-0.25,4.61-0.28,5.75c-0.1,3.47-0.54,7.41,0.19,10.83c0.51,2.43,1.74,2.84,3.86,3.44c1.57,0.44,2.47,1.36,3.86,1.97
			c0.61,0.26,1.3,0.35,2,0.38c0.23-1,2.14-4.8,3.26-6.94v-0.01C92.6,66.41,91.28,64.72,90.26,63.06z"/>
	</g>
	<g>
		<path class="st0" d="M117.22,21.01c-1.54-2.51-3.84-4.14-6.49-5.07c-3.2-3.13-7.12-5.44-11.7-5.95
			c-6.25-0.71-11.24,2.54-15.64,6.63c-4.85,4.51-7.05,9.83-8.55,16.19c-1.34,5.74-3.75,13.97-0.17,19.36
			c0.07,0.11,0.17,0.17,0.26,0.22c0.38,4.07,3.08,7.35,5.8,10.39c2.77,3.08,6.37,8.81,10.93,9.3c3.9,0.42,8.33-2.54,11.24-4.85
			c5.13-4.11,9.08-10.61,11.58-16.5c0.81-1.93,1.68-3.96,2.47-6.06c0.28-0.73,0.54-1.48,0.8-2.24
			C120.16,35.37,121.34,27.74,117.22,21.01z"/>
	</g>
	<g>
		<path class="st6" d="M141.3,138.14c-2.79-6.38-2.87-13.4-4.85-20.01c-0.97-3.25-2.65-6.2-3.7-9.42c-0.98-3.01-0.98-6.24-2.19-9.18
			c-1.81-4.38-5.53-7.62-9.42-10.14c-1.83-1.2-3.72-2.3-5.65-3.33c-2.12-1.17-4.29-2.25-6.48-3.29c-2.13-1.02-4.29-2-6.42-2.97
			c-1.48-0.67-4.69,6.72-6.25,7.51c-1.66,0.85-4.75,0.73-6.6,0.98c-5.13,0.71-10.26,1.28-15.44,1.38
			c-4.75,0.1-10.71,0.62-14.15-3.15c-1.7-1.84-6.71-8.45-8.86-7.66c-0.55,0.2-1.09,0.51-1.65,0.78c-1.92,0.89-3.82,1.83-5.7,2.8
			c-0.2,0.11-0.42,0.22-0.62,0.34c-0.37,0.19-0.74,0.4-1.11,0.6c-1.93,1.01-3.82,2.08-5.69,3.21c-0.48,0.29-0.95,0.57-1.42,0.86
			c-1.03,0.62-2.05,1.26-3.05,1.92c-0.14,0.1-0.3,0.19-0.44,0.29c-0.79,0.51-1.59,1.02-2.37,1.54c-5.51,3.64-10.69,7.58-13.84,13.6
			c-2.55,4.85-3.71,10.31-4.18,15.73c-0.42,4.93-0.07,9.88-0.46,14.8c-0.42,5.46-2.83,10.25-3.7,15.57c-0.4,2.33,3.3,4.08,4.97,4.8
			c5.29,2.28,10.19-0.32,15.5-0.34c3.68-0.01,7.3,0.85,10.98,0.8c2.19-0.04,4.36-0.24,6.51-0.59c1.26,3.36,1.13,7.12,1.62,10.74
			c0.57,4.22,2.04,8.31,3.45,12.36c0.36,1.03,0.72,2.05,1.05,3.08c0.06,0.22,0.22,0.34,0.38,0.38c0.17,0.05,0.36,0.02,0.5-0.06
			c0.13,0.04,0.28,0.02,0.42-0.07c3.1-1.89,4.48-5.05,6.56-7.89c1.39-1.88,3.08-3.48,4.84-5.01c1.98-1.71,4.23-3.93,6.77-4.75
			c2.71-0.87,5.16,0.56,7.72,1.25c1.94,0.51,3.95,0.68,5.95,0.63c4.37-0.13,8.81-1.17,13.02-2.29c3.7-0.98,6.92-2.44,9.6-5.22
			c0.97-1.01,1.74-2.13,3.2-2.6c0.95-0.3,1.94-0.06,2.9-0.29c1.57-0.37,2.85-1.11,3.99-2.25c3.22-3.22,4.18-7.63,8.39-10.01
			c4.6-2.6,10.23-3.87,15.41-4.53C141.26,138.98,141.49,138.59,141.3,138.14z"/>
	</g>
	<g>
		<path class="st7" d="M119.74,130.09c0,0-2.1-0.06-2.39,0c-0.3,0.05-4.17-1.8-4.17-1.8s-1.82-14.97-2.36-20.36
			c-0.54-5.39,0.34-4.99-1.05-11.58c-1.08-5.09-0.9-11.1-0.75-13.59c2.19,1.04,4.36,2.12,6.48,3.29c0,1.31,0.01,2.84,0.07,4.31
			c0.16,3.59,1.78,11.38,2.2,17.21C118.15,112.96,119.74,130.09,119.74,130.09z"/>
	</g>
	<g>
		<path class="st1" d="M95.25,40.99c0-0.01,0.01-0.03,0.01-0.04c0-0.02,0-0.04,0.01-0.06c0.05-0.32,0.05-0.61-0.07-0.84
			c-0.14-0.29-0.44-0.48-0.98-0.5c-0.29-0.01-0.52,0.13-0.72,0.27c-0.99,0.73-2.48,3.47-1.08,4.32
			C93.87,45.02,95.03,42.07,95.25,40.99z"/>
	</g>
	<g>
		<path class="st1" d="M112.3,46.13c0-0.01,0.01-0.03,0.01-0.04c0-0.02,0-0.04,0.01-0.06c0.05-0.32,0.05-0.61-0.07-0.84
			c-0.14-0.29-0.44-0.48-0.98-0.5c-0.29-0.01-0.52,0.13-0.72,0.27c-0.99,0.73-2.48,3.47-1.08,4.32
			C110.92,50.16,112.08,47.21,112.3,46.13z"/>
	</g>
	<g>
		<path class="st5" d="M103.86,52.3c0.1-1.91,0.28-3.81,0.52-5.71c0.1-0.76-1.1-0.76-1.2,0c-0.22,1.77-0.4,3.54-0.5,5.33
			c-0.04,0.73,0.02,1.57-0.09,2.29c0.17,0.94-0.28,1.6-1.35,1.97c-0.9,0.18-1.74,0.05-2.52-0.39c-0.69-0.34-1.3,0.7-0.6,1.03
			c1.52,0.74,4.26,1.11,5.37-0.6C104.14,55.22,103.8,53.44,103.86,52.3z"/>
	</g>
	<g>
		<path class="st5" d="M91.41,57.23c-1.37-1.05-1.25-0.38-1.21,0.29c0.12,2.17,1.86,4.51,4.12,5.2c1.92,0.58,4.5,0.05,6.08-1.26
			C100.82,61.11,94.86,59.87,91.41,57.23z"/>
	</g>
	<g>
		<path class="st4" d="M101.56,37.22c-0.48-1.42-1.78-2.6-3.22-2.99c-2.08-0.57-5.02-0.7-6.93,0.48c-0.53,0.33-0.27,1.06,0.3,1.12
			c1.69,0.17,3.41,0.27,5.06,0.71c0.81,0.22,1.6,0.52,2.33,0.93c0.47,0.27,0.92,0.72,1.47,0.87
			C101.29,38.54,101.8,37.94,101.56,37.22z"/>
	</g>
	<g>
		<path class="st4" d="M117.76,42.44c-0.26,0.75-0.53,1.51-0.8,2.24c-0.84-0.62-1.69-1.23-2.62-1.74c-0.74-0.4-1.52-0.71-2.34-0.91
			c-0.54-0.12-1.17-0.1-1.68-0.36c-0.65-0.35-0.61-1.13,0.05-1.48c1.33-0.72,3.08-0.68,4.39,0
			C115.77,40.72,116.87,41.51,117.76,42.44z"/>
	</g>
	<g>
		<path class="st4" d="M125.75,45.39c-0.4-7.01,0.9-14.07-0.42-21.03c-0.66-3.45-2.18-6.64-4.33-9.41
			c-1.08-1.38-2.28-2.65-3.56-3.85c-0.66-0.62-1.34-1.22-2.03-1.8c-1.31-1.11-2.94-1.99-4.35-3c-1.55-1.11-3.25-2-5.01-2.7
			c-3.48-1.37-7.27-2.04-11.01-1.91C89.81,1.87,84.3,3.61,79.68,6.02c-2.64,1.37-4.94,3.3-7,5.43c-1.02,1.05-1.98,2.15-2.92,3.27
			c-1.34,1.61-2.71,3.25-3.72,5.09c-0.9,1.65-1.26,3.53-1.53,5.36c-0.55,3.72-0.73,7.91-3.62,10.68c-1.68,1.61-3.46,2.26-3.56,4.96
			c-0.03,0.73,0.27,1.3,0.29,2c0.02,0.68,0.21,1.4,0.1,2.08c-0.15,0.93-0.7,0.91-1.13,1.68c-0.52,0.93-0.97,1.57-1.02,2.68
			c-0.14,2.9,1.92,3.19,3.45,5.23c1.59,2.12,3.21,2.34,5.63,3.13c1.94,0.63,2.76,1.93,4.31,3.02c1.18,0.83,2.55,1.34,3.89,1.83
			c2.26,0.83,5.72,3.66,6.22-0.04c0.45-3.32,1.33-5.95,2.68-9.01c0.95-2.16,2.85-3.15,3.27-5.73c0.56-3.39-1.51-7.25,0.76-10.26
			c1.57-2.08,3.9-3.48,5.3-5.78c0.64-1.05,1.02-2.21,1.33-3.41c1.94-0.08,3.87-0.25,5.79-0.55c1.93-0.31,3.89-1.15,5.87-0.99
			c0.99,0.08,1.97,0.47,2.69,1.17c0.67,0.66,1.08,1.33,2.03,1.57c1.14,0.29,2.33,0.03,3.44-0.27c0.85,1.64,2.11,2.71,3.58,4.26
			c2.74,2.89,3.16,8.26,3.67,12.07c0.04,0.29,0.23,0.42,0.45,0.43c-0.82,4.09-1.64,8.19-2.49,12.27c-0.51,2.49-0.89,5.02-1.56,7.48
			c-0.34,1.25-0.76,2.48-1.31,3.65c-0.3,0.63-1.91,2.5-0.96,2.99c0.85,0.44,2.06,0.6,2.97,0.91c0.67,0.23,1.68,0.71,2.4,0.44
			c0.95-0.36,2.28-6.35,2.55-8.75c0.41-3.7,2.19-6.47,3.55-9.83C126.41,51.84,125.94,48.82,125.75,45.39z"/>
	</g>
	<g>
		<path class="st8" d="M111.77,19.11c-0.58-0.82-1.24-1.33-1.99-1.95c-0.94-0.51-1.77-1.15-2.51-1.94
			c-0.36-0.71-0.63-1.45-0.83-2.21c-1.28-3.6-3.34-6.15-6.95-7.62c-0.71-0.29-1.02,0.87-0.32,1.15c2.1,0.86,3.87,2.24,5.03,4.21
			c0.82,1.39,0.98,2.91,1.66,4.33c0.45,0.94,0.94,1.56,1.77,2.18c2.43,1.82,4.24,3.02,4.34,6.44c0.02,0.77,1.22,0.77,1.2,0
			C113.12,22.02,112.75,20.51,111.77,19.11z"/>
	</g>
	<g>
		<path class="st8" d="M104.31,19.45c-4.19,0.89-7.93,2.88-11.03,5.84c-0.56,0.53,0.29,1.38,0.85,0.85c2.96-2.83,6.5-4.68,10.5-5.53
			C105.38,20.45,105.07,19.29,104.31,19.45z"/>
	</g>
	<g>
		<path class="st8" d="M89.23,5.43c-6.2,1.55-14.87,5.33-17.73,11.55c-0.53,1.16-0.78,2.44-0.88,3.71c-0.1,1.3,0.12,2.61-0.52,3.86
			c-0.53,1.04-1.56,1.82-2.35,2.67c-2.29,2.47-4.05,5.14-4.34,8.56c-0.06,0.77,1.13,0.76,1.2,0c0.37-4.39,3.5-6.52,5.91-9.75
			c1.65-2.21,0.9-4.39,1.53-6.92c1.68-6.86,11.35-10.99,17.49-12.52C90.3,6.4,89.98,5.24,89.23,5.43z"/>
	</g>
	<g>
		<path class="st8" d="M68.83,29.86c-2.85,3.58-3.67,7.94-4.33,12.36c-0.11,0.75,1.04,1.08,1.15,0.32
			c0.63-4.17,1.33-8.44,4.03-11.83C70.16,30.11,69.31,29.26,68.83,29.86z"/>
	</g>
	<g>
		<path class="st8" d="M119.33,32.79c-0.29-0.71-1.44-0.4-1.15,0.32c0.93,2.3,1.89,4.62,2.37,7.06c0.73,3.74-0.1,6.77-1.87,10.07
			c-0.9,1.68-1.56,3.24-1.73,5.15c-0.26,3.05,0.51,6.03-1.3,8.77c-0.43,0.64,0.61,1.24,1.03,0.6c1.25-1.88,1.46-3.86,1.45-6.07
			c-0.01-2.27-0.08-4.38,0.87-6.51c0.62-1.39,1.5-2.65,2.09-4.05C123.26,42.99,121.3,37.64,119.33,32.79z"/>
	</g>
	<g>
		<path class="st7" d="M68.77,137.75l-6.12,2.67c0,0-1.17-6.05-2.08-11.06c-0.91-5.01-2.6-10.17-6.98-16.75
			c-4.39-6.59-4.79-7.78-6.75-13.97c-1.1-3.52-6.51-8.99-10.32-12.06c1.87-1.13,3.76-2.2,5.69-3.21c2.42,2.47,6.86,7.15,9.69,11.08
			c4.6,6.38,2.99,9.38,10.94,21.76C70.78,128.56,68.77,137.75,68.77,137.75z"/>
	</g>
	<g>
		<path class="st7" d="M132.66,184.38c0,0-5.45-35-10.52-55.93c-1.23-0.09-2.47-0.15-3.7-0.16c-8.3-0.05-20.15,0.09-28.26,1.59
			c-6.71,1.25-27.03,3-32.23,3.67c-2.1,14.13-0.64,28.48-2.08,42.68c-0.8,7.89-7.46,11.75-10.32,19.11
			c-3.43,8.84-9.02,20.46-11.42,36.92c-2.95,20.25-3.07,46.18-4.06,66.46c-0.79,16.09-2.42,49.89,0,84.62
			c0.33,4.73-0.52,49.86-0.72,54.62c-0.2,4.64-1.18,9.18-0.97,13.85c0.25,5.64,1.53,11.16,1.69,16.81c0.1,3.34-0.04,6.67-0.2,10.01
			c8.22,0.47,16.4,1.35,24.63,1.69c5.42,0.22,10.75,0.19,16-0.52c0.49-5.05,1.08-10.1,1.63-15.15c0.75-6.96,0.65-14.11,1.74-21
			c0.99-6.27,3.46-12.22,5.55-18.18c2.95-8.39,3.73-17.66,5.25-26.6c1.89-11.09,3.43-22.24,4.27-33.46
			c0.88-11.79,1.25-18.84,2.94-30.55c5.84-40.28,39.49-83.33,41.55-124.5C133.64,206.19,132.66,184.38,132.66,184.38z"/>
	</g>
	<g>
		<g>
			<path class="st1" d="M58.06,154.17c-1.31,9.11-3.66,18.64-6.55,27.96c-10,32.37-26.31,62.11-26.51,62.5
				c-0.23,0.39-0.63,0.61-1.05,0.61c-0.19,0-0.4-0.05-0.57-0.14c-0.59-0.32-0.79-1.05-0.48-1.63c0.22-0.4,17.36-31.65,27.18-64.79
				c2.45-8.31,4.45-16.74,5.62-24.84c6.59-46.03-20.3-60.06-26.46-62.65c0.78-0.53,1.58-1.03,2.37-1.54
				C40.17,93.75,64.44,109.56,58.06,154.17z"/>
		</g>
	</g>
	<g>
		<path class="st0" d="M49.09,154.45l7.78,31.92c0,0-10.98,13.77-15.17,13.97c-4.19,0.2-6.91-7.72-10.2-14.69
			c-3.69-7.81-9.14-29.7-9.14-29.7S28.73,154,34.61,154C40.5,154,49.09,154.45,49.09,154.45z"/>
	</g>
	<g>
		<g>
			<path class="st9" d="M83.06,125.47c0,0,0.45-3.52,1.35-3.59c0.9-0.07,15.46,1.42,21.61,2.92c6.15,1.5,16.6,5.67,16.6,5.67
				s10.81-6.12,15.38-8.59c4.57-2.47,9.65-3.96,10.03-3.89c0.37,0.07,3.59,2.69,3.59,2.69l-22.45,12.3c0,0-17.96,1.55-18.93,1.55
				C109.26,134.52,83.06,125.47,83.06,125.47z"/>
		</g>
		<g>
			<path class="st1" d="M112.92,184.67c3.56-9.15,15.05-50.24,15.05-51.04c0-0.9-47.15-10.18-47.45-9.13
				c-0.3,1.05-11.52,54.23-11.52,54.18l39.87,6.54C108.87,185.22,110.93,185,112.92,184.67z"/>
		</g>
		<g>
			<polygon class="st1" points="119.36,131.4 127.57,131.03 128.42,132.88 122.08,134.92 			"/>
		</g>
		<g>
			<path class="st1" d="M123.78,133.03l-3.84,14.52l-7.6,37.22c1.4-0.23,2.79-0.47,4.19-0.69c6.86-3.63,21.63-14.12,22.17-14.87
				c0.75-1.05,15.92-51.59,15.92-51.59S124.53,132.4,123.78,133.03z"/>
		</g>
		<g>
			<path class="st10" d="M131.41,134.02c0,0-2.59,12.62-2.59,12.92c0,0.3,16.64-8.78,16.64-8.78l4.42-13.75L131.41,134.02z"/>
		</g>
		<g>
			<polygon class="st2" points="140.12,130.46 139.4,134.18 147.2,129.86 148.55,125.99 			"/>
		</g>
		<g>
			<path class="st11" d="M116.25,183.17c-0.04,0-0.08,0-0.12-0.01c-0.32-0.07-0.53-0.38-0.46-0.71l10.38-49.69
				c0.07-0.32,0.38-0.54,0.71-0.46c0.32,0.07,0.53,0.38,0.46,0.71l-10.38,49.69C116.77,182.97,116.52,183.17,116.25,183.17z"/>
		</g>
		<g>
			<path class="st11" d="M109.76,184.22c-0.04,0-0.08,0-0.12-0.01c-0.32-0.07-0.53-0.38-0.47-0.71l10.28-50.75
				c0.07-0.32,0.38-0.54,0.71-0.47c0.32,0.07,0.53,0.38,0.47,0.71l-10.28,50.75C110.29,184.03,110.04,184.22,109.76,184.22z"/>
		</g>
		<g>
			<path class="st11" d="M97.68,131.63c-0.04,0-0.07,0-0.11-0.01l-12.57-2.25c-0.33-0.06-0.54-0.37-0.48-0.69
				c0.06-0.33,0.37-0.54,0.69-0.48l12.57,2.25c0.33,0.06,0.54,0.37,0.48,0.69C98.22,131.43,97.97,131.63,97.68,131.63z"/>
		</g>
		<g>
			<path class="st11" d="M101.68,135.52c-0.03,0-0.07,0-0.1-0.01l-17.36-3.04c-0.33-0.06-0.54-0.37-0.49-0.69
				c0.06-0.33,0.36-0.55,0.69-0.49l17.36,3.04c0.33,0.06,0.54,0.37,0.49,0.69C102.21,135.32,101.96,135.52,101.68,135.52z"/>
		</g>
		<g>
			<path class="st11" d="M133.48,151.78c-0.22,0-0.43-0.12-0.54-0.33c-0.15-0.29-0.03-0.65,0.27-0.8l5.87-2.94
				c0.3-0.15,0.66-0.03,0.8,0.27c0.15,0.29,0.03,0.65-0.27,0.8l-5.87,2.94C133.66,151.76,133.57,151.78,133.48,151.78z"/>
		</g>
		<g>
			<path class="st11" d="M126.62,158.85c-0.22,0-0.44-0.13-0.54-0.34c-0.14-0.3-0.02-0.66,0.28-0.8l14.74-7.07
				c0.3-0.14,0.66-0.02,0.8,0.28c0.14,0.3,0.02,0.66-0.28,0.8l-14.74,7.07C126.8,158.83,126.71,158.85,126.62,158.85z"/>
		</g>
	</g>
	<g>
		<path class="st0" d="M104.98,167.3c-0.81-1.27-3.9-4.63-3.9-4.63s-30.89,13.39-38.59,14.66c-4.91,0.81-12.68,2.01-16.25,6.26
			c-4.12-0.23-16.18-1.44-16.18-1.44S36,198.47,40.7,202.33c4.4,3.61,12.91,1.44,17.6-0.05c6.5-2.06,13.52-5.46,19.59-8.56
			c7.21-3.67,30.76-18.65,30.76-18.65S105.94,168.8,104.98,167.3z"/>
	</g>
	<g>
		<path class="st0" d="M139.88,157.08c-0.23-0.69-0.85-1.4-1.57-1.78c0.06-0.13,0.12-0.27,0.14-0.4c0.17-1.22-0.93-1.78-1.92-1.77
			c-0.81,0.01-1.64,0.51-2.37,0.8c-1.61,0.63-6.84,1.14-8.55,1.46c-2.72,0.52-5.46,0.58-8.18,0.26c1.16-0.45,2.32-0.89,3.48-1.35
			c1.03-0.41,2.67-0.8,3.29-1.88c1.36-2.37-1.05-3-2.79-2.61c-2.83,0.64-5.63,1.4-8.44,2.09c-1.88,0.47-4.44,0.62-6.06,1.79
			c-1.47,1.07-2.41,3.14-3.34,4.64c-1.49,2.42-2.81,4.92-4.03,7.48c-0.3,0.63,0.47,1.19,0.91,0.85c0.99,2.19,2.07,4.35,3.31,6.41
			c0.66,1.09,1.02,1.83,2.27,2.11c1.84,0.41,4.6-0.73,6.37-1.24c2.75-0.79,21.24-7.38,21.91-8.77c0.06-0.12,0.09-0.24,0.12-0.37
			c2.45-1.18,4.44-2.84,4.77-5.18C139.81,158.93,140.22,158.07,139.88,157.08z"/>
	</g>
	<g>
		<path class="st5" d="M137.04,155.44c-3.64,1.51-7.38,2.59-11.26,3.25c-0.76,0.13-0.44,1.28,0.32,1.15
			c3.88-0.66,7.62-1.74,11.26-3.25C138.06,156.3,137.75,155.14,137.04,155.44z"/>
	</g>
	<g>
		<path class="st5" d="M137.42,158.24c-4.12,1.99-8.52,3-12.96,3.97c-0.75,0.16-0.43,1.32,0.32,1.15c4.54-1,9.04-2.07,13.25-4.1
			C138.72,158.94,138.11,157.91,137.42,158.24z"/>
	</g>
	<g>
		<path class="st5" d="M133.01,163.11c-2.37,1.24-4.85,2.11-7.46,2.64c-0.75,0.15-0.44,1.31,0.32,1.15c2.72-0.55,5.3-1.47,7.75-2.76
			C134.3,163.78,133.7,162.75,133.01,163.11z"/>
	</g>
	<g>
		<path class="st7" d="M139.35,279.86c-0.99-44.92-4.75-83.5-6.81-96.24c-0.12-0.76-1.44-8.84-1.44-8.84s-45.34,86.42-46.75,118.65
			c-0.74,16.84,0.05,30.62,0.43,46.27c0.73-0.24,1.68,0.13,1.67,1.12c-0.08,6.8-0.84,13.56-1.51,20.32
			c-0.02,9.37-0.09,18.73-0.17,28.1c1.6,9.56,4.82,18.81,5.76,28.53c0.57,5.87-0.83,11.48-1.58,17.26
			c-0.96,7.37,1.1,12.77,3.49,19.53c2.81,7.91,1.3,16.61,3.84,24.18c2.71,0.4,5.49,0.49,8.21,0.59c7.26,0.26,14.57,0.38,21.75-0.91
			c3.82-0.69,7.51-1.75,11.08-3.09c0.12-2.21,0.14-4.44,0.23-6.65c0.97-23.68,0.55-41.37,0.79-65.07
			C138.6,379.53,140.38,326.41,139.35,279.86z"/>
	</g>
	<g>
		<path class="st3" d="M27.53,251.22c-0.01,0-0.01,0-0.02,0c-0.33-0.01-0.59-0.29-0.58-0.62c0.02-0.61,1.99-61.48,1.96-63.64
			c-0.12-1.28-7.47-7.98-14.51-13.71c-0.26-0.21-0.29-0.59-0.09-0.84c0.21-0.26,0.59-0.29,0.84-0.09
			c3.5,2.85,14.92,12.33,14.95,14.62c0.03,2.18-1.88,61.18-1.96,63.69C28.12,250.97,27.85,251.22,27.53,251.22z"/>
	</g>
	<g>
		<path class="st9" d="M67.46,134.92c0-1.26-1.02-2.28-2.28-2.28c-1.26,0-2.28,1.02-2.28,2.28c0,1.26,1.02,2.28,2.28,2.28
			C66.44,137.2,67.46,136.18,67.46,134.92z"/>
	</g>
	<g>
		<path class="st0" d="M155.29,116.7c-0.08-1.23-1.49-1.72-2.7-1.43c-1.7,0.41-3.53,1.46-4.9,2.48c-0.66,0.49-1.73,1.6-1.46,2.61
			c0.26,0.97,1.67,0.83,2.37,0.62c1.2-0.38,2.37-0.86,3.5-1.4c1.07-0.51,2.69-0.81,3.09-2.15
			C155.28,117.17,155.31,116.92,155.29,116.7z"/>
	</g>
	<g>
		<g>
			<path class="st0" d="M155.64,127.66c1.53-1.48,2.63-3.36,1.24-5.06c0.26-0.65,0.28-1.4-0.28-1.9c-1.18-1.05-2.62-0.38-3.73,0.16
				c-0.69,0.34-1.93,1.21-2.59,1.6c-1.23,0.73-2.53,1.51-3.07,2.89c-0.58,1.48,0.7,2.52,1.81,2.58c-0.23,0.58-0.23,1.22,0.23,1.81
				c0.21,0.27,0.46,0.44,0.72,0.55c-0.73,0.92-0.94,2.39,0.54,2.64c1.72,0.29,4.16-1.06,5.35-2.25
				C156.79,129.75,157.21,128.09,155.64,127.66z"/>
		</g>
		<g>
			<path class="st5" d="M155.55,122.25c-1.93,1.04-3.82,2.15-5.67,3.32c-0.65,0.41-0.05,1.45,0.6,1.03
				c1.85-1.17,3.74-2.27,5.67-3.32C156.83,122.92,156.22,121.89,155.55,122.25z"/>
		</g>
		<g>
			<path class="st5" d="M154.11,127.47c-0.99,0.59-2.01,1.13-3.06,1.62c-0.7,0.33-0.09,1.36,0.6,1.03c1.05-0.49,2.06-1.03,3.06-1.62
				C155.37,128.11,154.77,127.07,154.11,127.47z"/>
		</g>
	</g>
	<g>
		<path class="st1" d="M91.36,73.04c-0.2,0.44-0.38,0.85-0.5,1.17c-7.93-0.48-15.59-3.16-22.14-7.8c0.19-0.35,0.37-0.71,0.56-1.08
			C75.83,69.99,83.45,72.63,91.36,73.04z"/>
	</g>
	<g>
		<path class="st2" d="M68.66,474.66c-5.75,0.75-11.28,0.9-17.09,0.91c-5.68,0.01-12.44,0.97-17.9-0.8
			c-1.42-0.46-3.63-1.28-5.05-0.46c-1.52,0.88-1.09,3.49-0.98,4.97c0.19,2.39,2.39,3.33,4.58,3.74c5.12,0.98,10.82,0.56,16.01,0.47
			c5.91-0.11,11.82-0.48,17.7-1.11c1.43-0.15,4.5,0.11,5.68-0.86c0.96-0.8,0.91-2.39,1.03-3.57
			C72.92,475.36,71.1,474.35,68.66,474.66z"/>
	</g>
	<g>
		<path class="st2" d="M139.44,472.72c-0.66-1.12-1.48-0.75-2.66-0.47c-2.87,0.66-5.72,1.37-8.59,2.04
			c-6.1,1.43-12.41,1.57-18.64,1.32c-3.15-0.12-6.29-0.35-9.43-0.56c-1.54-0.11-8.14-1.61-7.45,1.4c0.06,0.28,0.23,0.52,0.34,0.78
			c0.45,1.12-0.13,2.36,0.38,3.49c0.41,0.92,1.29,1.53,2.19,1.89c1.95,0.79,4.19,0.6,6.25,0.6c11.42,0.01,22.87,0.1,33.74-3.91
			c1.57-0.58,2.47-0.72,3.19-2.09C139.11,476.56,139.96,473.59,139.44,472.72z"/>
	</g>
	<g>
		<path class="st2" d="M64.05,352.57c-8.28,0.17-16.57,0.11-24.85-0.19c-0.77-0.03-0.77,1.17,0,1.2c8.28,0.3,16.56,0.36,24.85,0.19
			C64.82,353.75,64.83,352.56,64.05,352.57z"/>
	</g>
	<g>
		<path class="st2" d="M62.87,353.92c-5.62,0.72-11.16,1.77-16.65,3.17c-0.75,0.19-0.43,1.34,0.32,1.15
			c5.38-1.37,10.82-2.41,16.33-3.12C63.63,355.02,63.64,353.82,62.87,353.92z"/>
	</g>
	<g>
		<path class="st2" d="M64.05,358.86c-8.59,0.22-17.17,0.03-25.74-0.56c-0.77-0.05-0.77,1.14,0,1.2c8.57,0.59,17.15,0.77,25.74,0.56
			C64.82,360.04,64.83,358.84,64.05,358.86z"/>
	</g>
	<g>
		<path class="st2" d="M51.48,362.21c-2.98-0.16-5.91,0.03-8.85,0.54c-0.76,0.13-0.44,1.29,0.32,1.15c2.83-0.5,5.66-0.65,8.53-0.5
			C52.25,363.45,52.25,362.25,51.48,362.21z"/>
	</g>
	<g>
		<path class="st2" d="M135.03,348.6c-5.3,0.68-10.61,1.36-15.91,2.04c-0.75,0.1-0.76,1.3,0,1.2c5.3-0.68,10.61-1.36,15.91-2.04
			C135.78,349.7,135.79,348.5,135.03,348.6z"/>
	</g>
	<g>
		<path class="st2" d="M135.96,350.38c-6.75,0.59-13.1,3-19.72,4.27c-0.76,0.15-0.44,1.3,0.32,1.15c6.51-1.25,12.76-3.65,19.4-4.22
			C136.72,351.51,136.73,350.31,135.96,350.38z"/>
	</g>
	<g>
		<path class="st2" d="M133.51,355.9h-12.87c-0.77,0-0.77,1.2,0,1.2h12.87C134.28,357.1,134.28,355.9,133.51,355.9z"/>
	</g>
	<g>
		<path class="st2" d="M134.72,357.21c-6.35,0.62-12.59,1.78-18.74,3.47c-0.74,0.2-0.43,1.36,0.32,1.15
			c6.04-1.67,12.18-2.82,18.42-3.43C135.48,358.33,135.48,357.14,134.72,357.21z"/>
	</g>
	<g>
		<path class="st12" d="M96.45,281.98c0.12-0.82-1.03-1.17-1.15-0.35c-1.24,8.36-2.48,16.76-2.64,25.24
			c-0.16,8.49,1.68,16.96,0.93,25.43c-0.76,8.56-3.51,16.81-4.81,25.28c-1.32,8.58-1.92,17.26-2.51,25.93
			c-0.06,0.83,1.14,0.83,1.2,0c0.62-8.97,1.23-17.96,2.66-26.83c1.26-7.79,3.66-15.35,4.54-23.2c0.9-8.06-0.76-16.04-0.82-24.09
			C93.76,300.18,95.11,291.05,96.45,281.98z"/>
	</g>
	<g>
		<path class="st13" d="M29.18,113.97c-1.3-1.72-4.08,3.11-4.72,3.95c-0.47,0.61-1.13,1.34-0.74,2.17c0.36,0.75,1.05,0.75,1.65,0.2
			c0.62-0.57,0.99-1.43,1.58-2.06c0.64-0.67,1.36-1.25,1.81-2.08C29.08,115.56,29.67,114.61,29.18,113.97z"/>
	</g>
	<g>
		<path class="st13" d="M72.52,109.15c-1.3-1.72-4.08,3.11-4.72,3.95c-0.47,0.61-1.13,1.34-0.74,2.17c0.36,0.75,1.05,0.74,1.65,0.2
			c0.62-0.57,0.99-1.43,1.58-2.06c0.64-0.67,1.36-1.25,1.81-2.08C72.41,110.74,73.01,109.79,72.52,109.15z"/>
	</g>
	<g>
		<path class="st13" d="M128.68,100.98c-1.3-1.72-4.08,3.11-4.72,3.95c-0.47,0.61-1.13,1.34-0.74,2.17c0.36,0.75,1.05,0.75,1.65,0.2
			c0.62-0.57,0.99-1.43,1.58-2.06c0.64-0.67,1.36-1.25,1.81-2.08C128.58,102.57,129.17,101.62,128.68,100.98z"/>
	</g>
	<g>
		<path class="st13" d="M41.86,142.72c2.03-0.74-1.79-4.8-2.4-5.67c-0.45-0.62-0.96-1.47-1.86-1.33c-0.82,0.13-1.02,0.79-0.67,1.52
			c0.37,0.76,1.08,1.37,1.51,2.11c0.46,0.8,0.8,1.67,1.47,2.34C40.37,142.15,41.1,143,41.86,142.72z"/>
	</g>
	<g>
		<path class="st13" d="M110.91,124.62c2.03-0.74-1.79-4.81-2.4-5.67c-0.45-0.62-0.96-1.47-1.86-1.33
			c-0.82,0.13-1.02,0.79-0.67,1.52c0.37,0.76,1.08,1.37,1.51,2.11c0.46,0.8,0.8,1.67,1.47,2.34
			C109.41,124.05,110.15,124.89,110.91,124.62z"/>
	</g>
	<g>
		<path class="st13" d="M96.15,98.76c2.03-0.74-1.79-4.8-2.4-5.67c-0.45-0.62-0.96-1.47-1.86-1.33c-0.82,0.13-1.02,0.79-0.67,1.52
			c0.37,0.76,1.08,1.37,1.51,2.11c0.46,0.8,0.8,1.67,1.47,2.34C94.66,98.19,95.39,99.04,96.15,98.76z"/>
	</g>
</g>
</svg>
