<?xml version="1.0" encoding="utf-8"?>
<!-- Generator: Adobe Illustrator 25.2.0, SVG Export Plug-In . SVG Version: 6.00 Build 0)  -->
<svg version="1.1" id="레이어_1" xmlns="http://www.w3.org/2000/svg" xmlns:xlink="http://www.w3.org/1999/xlink" x="0px"
	 y="0px" viewBox="0 0 617.49 315.06" style="enable-background:new 0 0 617.49 315.06;" xml:space="preserve">
<style type="text/css">
	.st0{fill:#96B2A2;}
	.st1{fill:#769B86;}
	.st2{fill:#7A4848;}
	.st3{fill:#D6A576;}
	.st4{fill:#F1CFB3;}
	.st5{fill:#D9AE8A;}
	.st6{fill:#F3A699;}
	.st7{fill:#FFFFFF;}
	.st8{fill:#DB6969;}
	.st9{fill:#6F5E61;}
	.st10{fill:#2B1D1D;}
	.st11{fill:#35303A;}
	.st12{fill:#E57A65;}
	.st13{fill:#522E2E;}
	.st14{fill:#84514C;}
	.st15{fill:#AE4847;}
	.st16{fill:#F7F0F0;}
	.st17{fill:#1A161C;}
</style>
<g>
	<path class="st0" d="M545.25,98.72c-0.11-0.49-0.22-0.97-0.35-1.45c-2.02-7.8-6.37-14.68-10.71-21.36
		c-1.33-2.06-2.68-4.13-4.14-6.12c-2.37-3.22-4.99-6.21-8.23-8.54c-3.48-2.49-7.53-4.13-11.11-6.47c-0.72-0.47-1.41-0.96-2.08-1.5
		c-2.41-1.92-4.41-4.31-6.84-6.19c-2.14-1.66-4.92-2.77-7.26-2.59c-0.42,0.05-0.81,0.12-1.2,0.24c-1.77,0.56-3.11,2.11-3.38,5.07
		c-0.19,2.18,0.38,4.33,1.1,6.39c0.08,0.25,0.18,0.5,0.28,0.75c0.17,0.47,0.35,0.93,0.53,1.39c0.08,0.24,0.18,0.48,0.29,0.71h0.01
		c0.44,1.14,0.96,2.25,1.5,3.34c0.72,1.46,1.51,2.9,2.36,4.29c4.92,8.23,11.71,15.42,18.68,22.11c5.89,5.65,12.01,11.09,18.32,16.27
		c2.65,2.18,6.25,4.41,9.29,3.17c0.23-0.1,0.46-0.2,0.67-0.34c0.12-0.07,0.24-0.16,0.36-0.24
		C545.88,105.82,545.93,101.87,545.25,98.72z"/>
	<path class="st0" d="M597.47,4.44c-0.31-1.52-0.98-2.63-1.9-3.38c-0.47-0.37-1.02-0.66-1.6-0.83c-0.41-0.13-0.85-0.2-1.29-0.23
		c-0.78-0.05-1.6,0.05-2.47,0.29c-11.22,3.1-18.27,13.15-24.45,22.3c-5.4,8.01-9.3,16.56-11.24,25.54
		c-0.54,2.49-0.92,5.03-1.15,7.59c-0.17,1.87-0.24,3.75-0.23,5.64c0.04,5.48-1.35,11.24,1.23,16.38c1.32,2.59,3.88,4.71,6.66,5.28
		c0.41,0.08,0.83,0.14,1.23,0.14c1.45,0.06,2.91-0.35,4.25-1.34c5.1-3.8,5.78-11.77,7.33-17.42c1.48-5.45,3.78-10.78,6.33-15.91
		c1.26-2.55,2.59-5.07,3.89-7.52c0.31-0.57,0.62-1.15,0.95-1.72c3.77-6.69,8.42-13.09,10.68-20.46
		C597.03,14.45,598.39,8.99,597.47,4.44z"/>
	<path class="st0" d="M617.22,43.53c-0.06-0.16-0.12-0.31-0.19-0.47c-0.61-1.32-1.82-2.24-3.19-2.74c-0.43-0.18-0.89-0.3-1.35-0.37
		c-0.14-0.04-0.3-0.06-0.44-0.07c-10.86-1.33-19.08,8.02-24.7,16.03c-7.47,10.65-12.79,23.23-15.16,36.19
		c-0.35,1.94-0.6,4.12,0.54,5.74c0.69,0.99,1.81,1.57,3.02,1.76c0.38,0.06,0.77,0.08,1.15,0.06c0.57-0.01,1.15-0.11,1.69-0.29
		c2.05-0.67,3.69-2.22,5.17-3.78c3.7-3.94,6.84-8.38,9.95-12.81c7.26-10.31,14.51-20.62,21.31-31.24
		C616.56,49.12,618.13,46.16,617.22,43.53z"/>
	<path class="st0" d="M616.16,97.5c-0.01-0.04-0.01-0.07-0.02-0.1c-0.1-0.44-0.24-0.81-0.44-1.11c-1.26-1.93-4.38-1.44-6.5-1.08
		c-4.3,0.73-8.36,2.6-11.88,5.14c-5.36,3.86-9.2,9.34-12.56,14.94c-1.34,2.24-5.56,7.66-5.24,11c-0.01,0.01,0,0.01,0,0.01
		c0.04,0.49,0.18,0.93,0.44,1.32c0.5,0.71,1.41,1.21,2.89,1.38c3.6,0.41,8.05-2.56,10.98-4.31c3.77-2.24,7.27-4.93,10.42-7.99
		c3.03-2.95,5.74-6.24,8.02-9.8C613.85,104.44,616.75,100.68,616.16,97.5z"/>
	<path class="st1" d="M616.14,97.4c-2.93,1.21-5.75,2.66-8.35,4.56c-5.41,3.95-10.2,8.85-15.06,13.45
		c-4.25,4.02-8.74,7.95-12.78,12.21c-0.55,0.57-1.09,1.16-1.63,1.76c-4.69,5.22-6.86,11.6-8.6,18.27c-0.19,0.74-1.35,0.43-1.15-0.32
		c1.63-6.3,3.63-12.48,7.84-17.57c0.98-1.19,2.01-2.34,3.09-3.46c0,0-0.01,0,0-0.01c3.9-4.11,8.29-7.87,12.37-11.72
		c5.07-4.79,10.03-9.93,15.75-13.95c2.53-1.78,5.26-3.17,8.07-4.33C615.9,96.59,616.04,96.96,616.14,97.4z"/>
	<path class="st1" d="M613.84,40.32c-3.89,3.5-7.58,7.23-11.03,11.2c-6.17,7.1-11.56,14.88-16.03,23.15
		c-4.17,7.71-8.23,16.23-9.89,24.99c-0.28,1.41-0.48,2.85-0.61,4.28c-0.44,4.74,0.12,9.52-0.61,14.24
		c-0.63,4.13-2.13,8.06-3.88,11.84c-3.84,8.35-9.1,16.3-9.86,25.69c-0.06,0.77-1.26,0.77-1.2,0c0.81-10.11,6.61-18.5,10.6-27.55
		c2.26-5.16,3.5-10.32,3.54-15.99c0.04-4.27,0.12-8.39,0.86-12.56c0.16-0.89,0.35-1.77,0.57-2.67c2.36-9.33,6.72-18.36,11.56-26.63
		c6.63-11.32,14.96-21.54,24.62-30.34C612.95,40.02,613.41,40.14,613.84,40.32z"/>
	<path class="st1" d="M569.32,45.07c2.47-6.48,5.47-12.78,8.77-18.88c4.81-8.92,10.27-17.48,15.88-25.95
		c-0.41-0.13-0.85-0.2-1.29-0.23c-9.47,14.33-18.64,29.1-24.69,45.22c-2.95,0.32-5.89,0.67-8.8,1.4c-1.6,0.41-3.16,0.91-4.67,1.51
		c-0.54,2.49-0.92,5.03-1.15,7.59c4.06-1.25,8.14-2.4,12.23-3.5c-3.08,10.05-4.41,20.33-4.56,30.8c-0.01,0.61-0.02,1.23-0.02,1.84
		c-0.04,12.33,1.02,24.66,0.23,36.99c-0.89,13.89-2.63,27.77-4.04,41.61c-0.07,0.77,1.13,0.77,1.2,0
		c1.21-11.99,2.53-23.97,3.6-35.98c1.05-11.91,0.56-23.73,0.29-35.67c-0.07-2.89-0.08-5.77-0.02-8.65
		c0.16-8.92,1.01-17.77,3.29-26.48c0.43-1.63,0.91-3.23,1.41-4.83c4.39-1.17,8.8-2.28,13.21-3.38c1.26-2.55,2.59-5.07,3.89-7.52
		c0.31-0.57,0.62-1.15,0.95-1.72c-2.98,2.36-6.19,4.32-10.17,5.05C573.01,44.64,571.16,44.87,569.32,45.07z"/>
	<path class="st1" d="M554.46,162.75c-2.22-10.06-2.99-20.18-2.69-30.45c0.12-3.88,0.16-7.87-1.31-11.53
		c-1.66-4.12-4.54-7.77-6.49-11.78c-0.22-0.44-0.42-0.87-0.62-1.32c-1.76-3.72-3.42-7.5-5.59-11c-2.34-3.77-5.15-7.22-7.98-10.62
		c-5.29-6.33-10.91-12.37-16.67-18.27c1.31,0.48,2.59,1.03,3.87,1.57c4.2,2.22,9.59,3.62,13.08,0.46c-2.37-3.22-4.99-6.21-8.23-8.54
		c-3.48-2.49-7.53-4.13-11.11-6.47c-2.73,0.77-5.53,1.28-8.38,1.63c-3.1-3.65-5.87-7.53-7.8-11.9c-0.42,0.05-0.81,0.12-1.2,0.24
		c1.86,4.31,4.51,8.2,7.53,11.82c-2.48,0.25-4.97,0.4-7.45,0.47c-0.54,0.01-1.27-0.02-2.08-0.07c0.17,0.47,0.35,0.93,0.53,1.39
		c0.11,0.24,0.2,0.47,0.3,0.71c0.44,1.14,0.96,2.25,1.5,3.34c0.72,1.46,1.51,2.9,2.36,4.29c4.59-0.51,9.23-0.8,13.79,0.13
		c0.28,0.05,0.54,0.13,0.81,0.2c4.17,4.25,8.36,8.48,12.32,12.93c6.57,7.39,12.97,14.88,17.28,23.88c0.71,1.47,1.39,2.93,2.08,4.41
		c1.35,2.8,2.75,5.59,4.42,8.25c2.86,4.59,3.98,8.83,3.88,14.24c-0.19,10.96,0.32,21.59,2.68,32.33
		C553.46,163.81,554.63,163.49,554.46,162.75z"/>
	<g>
		<g>
			<path class="st2" d="M529.61,284.96c-0.13,0-0.26-0.01-0.4-0.04c-0.97-0.22-1.57-1.18-1.36-2.15l23.05-101.82
				c0.22-0.97,1.18-1.58,2.15-1.36c0.97,0.22,1.57,1.18,1.36,2.15l-23.05,101.82C531.17,284.39,530.43,284.96,529.61,284.96z"/>
		</g>
		<g>
			<path class="st2" d="M558.64,265.12c-0.99,0-1.8-0.8-1.8-1.8v-88.8c0-0.99,0.8-1.8,1.8-1.8c0.99,0,1.8,0.8,1.8,1.8v88.8
				C560.44,264.32,559.64,265.12,558.64,265.12z"/>
		</g>
		<g>
			<path class="st2" d="M584.99,283.93c-0.84,0-1.59-0.59-1.76-1.44L562.87,181.5c-0.2-0.97,0.43-1.92,1.41-2.12
				c0.97-0.19,1.92,0.43,2.12,1.41l20.36,100.99c0.2,0.97-0.43,1.92-1.41,2.12C585.22,283.92,585.1,283.93,584.99,283.93z"/>
		</g>
		<path class="st3" d="M580.6,182.95h-42.11c-4.08,0-7.38-3.31-7.38-7.38V144.7c0-0.9,0.73-1.63,1.63-1.63h53.62
			c0.9,0,1.63,0.73,1.63,1.63v30.87C587.98,179.65,584.68,182.95,580.6,182.95z"/>
	</g>
	<path class="st0" d="M542.86,125.06c-1.15-1.68-2.57-3.1-4.16-4.37c-1.74-1.41-3.65-2.62-5.57-3.77c-0.71-0.42-1.4-0.83-2.12-1.22
		c-1.57-0.9-3.16-1.76-4.78-2.57c-4.97-2.56-10.09-4.8-15.36-6.67c-2.57-0.92-7.63-1.48-10.73-0.11c-0.48,0.2-0.92,0.47-1.29,0.77
		c-1.32,1.1-1.84,2.86-0.85,5.54c1.04,2.83,3.8,4.62,6.49,5.98c4.39,2.2,9.08,3.78,13.75,5.33c0.1,0.04,0.18,0.06,0.28,0.1
		c2.04,0.68,4.07,1.36,6.11,2.04c3.15,1.05,6.31,2.1,9.46,3.15c2.12,0.71,6.62,1.51,8.78,0.51c0.32-0.16,0.6-0.35,0.8-0.59
		C544.33,128.39,544.26,127.1,542.86,125.06z"/>
	<path class="st1" d="M549.27,143.08c-0.52-2.12-1.12-4.22-1.76-6.3c-0.93-3.03-2.17-5.51-3.86-7.62c-1.8-2.25-4.1-4.08-7.07-5.7
		c-2.8-1.53-5.64-3.01-8.51-4.44c0.02-0.04,0.05-0.08,0.07-0.12c0.83-1.17,1.77-2.28,2.86-3.21c-1.57-0.9-3.16-1.76-4.78-2.57
		c-0.01,0.1-0.04,0.18-0.06,0.28c-0.35,1.33-1.1,2.56-1.96,3.72c-7.9-3.83-15.97-7.36-24.07-10.78c-0.48,0.2-0.92,0.47-1.29,0.77
		c8.26,3.51,16.44,7.22,24.52,11.11c-0.37,0.46-0.74,0.9-1.09,1.32c-1.26,1.54-2.62,3.03-4.05,4.42c0.1,0.04,0.18,0.06,0.28,0.1
		c2.04,0.68,4.07,1.36,6.11,2.04c1.05-1.84,1.72-4.01,2.77-5.92c2.05,1.01,4.11,2.01,6.14,3.05c2.68,1.35,5.42,2.75,7.69,4.77
		c0.62,0.55,1.17,1.14,1.64,1.76c1.69,2.14,2.68,4.67,3.51,7.34c0.61,1.98,1.18,3.98,1.68,5.99H549.27z"/>
</g>
<g>
	<g>
		<path class="st3" d="M28.9,234.22c-0.6,12.46-2.4,65.92-2.51,69.6c-0.14,4.94,3.53,6.17,5.59,1.7c1.8-3.89,8.38-70.95,8.38-70.95
			S31.69,233.14,28.9,234.22z"/>
	</g>
	<g>
		<g>
			<path class="st3" d="M513.18,234.22c0.6,12.46,2.4,65.92,2.51,69.6c0.14,4.94-3.53,6.17-5.59,1.7
				c-1.8-3.89-8.38-70.95-8.38-70.95S510.4,233.14,513.18,234.22z"/>
		</g>
		<g>
			<path class="st4" d="M-4.85,183.18c0,6.59,19.11,71.25,27.49,73.64c8.38,2.39,491.04,7.75,498.8,0
				c7.75-7.75,26.88-69.45,26.88-73.64s-24.43-11.97-26.88-16.76c-2.45-4.79-13.52-67.66-15.17-71.25
				c-1.65-3.59-450.4-4.49-454.89,0c-4.49,4.49-16.17,53.29-22.75,63.47C22.04,168.81-4.85,176.59-4.85,183.18z"/>
		</g>
		<g>
			<path class="st5" d="M503.59,253.59c-0.06,0-0.12-0.01-0.18-0.03c-0.32-0.1-0.49-0.43-0.39-0.75
				c2.17-6.92,21.34-67.67,24.58-70.31c3.32-2.71,14.06-0.39,15.28-0.12c0.32,0.07,0.53,0.39,0.45,0.72
				c-0.07,0.32-0.39,0.52-0.72,0.45c-3.14-0.71-11.82-2.1-14.26-0.12c-2.24,1.83-15.69,42.71-24.19,69.74
				C504.08,253.43,503.84,253.59,503.59,253.59z"/>
		</g>
		<g>
			<path class="st5" d="M505.22,242.92H33.37c-0.33,0-0.6-0.27-0.6-0.6c0-0.33,0.27-0.6,0.6-0.6h471.84c0.33,0,0.6,0.27,0.6,0.6
				C505.81,242.65,505.55,242.92,505.22,242.92z"/>
		</g>
		<g>
			<path class="st5" d="M37.96,256.22c-0.3,0-0.55-0.22-0.59-0.51c-0.25-1.05-7.17-20.63-11.78-33.59
				c-0.11-0.31,0.05-0.65,0.36-0.76c0.31-0.12,0.65,0.05,0.76,0.36c4.41,12.39,11.81,33.28,11.84,33.87
				c0.02,0.33-0.24,0.61-0.57,0.63C37.98,256.22,37.97,256.22,37.96,256.22z"/>
		</g>
		<g>
			<path class="st5" d="M-2.9,184.38c-0.32,0-0.59-0.25-0.6-0.58c-0.01-0.33,0.25-0.61,0.58-0.62l17.34-0.61
				c0.31-0.01,0.61,0.25,0.62,0.58c0.01,0.33-0.25,0.61-0.58,0.62l-17.34,0.61C-2.89,184.38-2.9,184.38-2.9,184.38z"/>
		</g>
	</g>
	<g>
		<path class="st6" d="M197.91,82.06c-2.3-0.12-4.97-0.26-7.48-0.37c-2.87-0.14-5.57-0.25-7.3-0.28c-0.2-0.14-0.49-0.16-0.69-0.01
			c-0.42-0.01-0.84-0.01-1.26-0.02c-0.77-0.01-0.77,1.19,0,1.2l0.79,0.01c-1.07,3.96-2.59,7.72-4.63,11.29
			c-0.2,0.37,0.06,0.95,0.53,0.9c2.47-0.22,7.71-0.75,12.87-1.29c2.36-0.25,4.71-0.5,6.75-0.72c3.89-0.42,6.77-0.73,6.77-0.73v-9.62
			C204.25,82.41,201.51,82.26,197.91,82.06z"/>
	</g>
	<g>
		<path class="st7" d="M198.07,87.29c-0.05,1.41-0.35,3.71-0.59,5.47c-2.05,0.22-4.39,0.47-6.75,0.72c-0.5-0.92-1.05-2.11-0.99-2.83
			c0.1-1.27,0.35-7.01,0.55-8.06c0.05-0.25,0.08-0.57,0.14-0.91c2.51,0.11,5.18,0.25,7.48,0.37C198,83.18,198.14,85.46,198.07,87.29
			z"/>
	</g>
	<g>
		<path class="st8" d="M190.73,96.85c0.26-0.27,0.49-0.56,0.72-0.84c1.01-3.98,1.72-10.26,1.33-14.22
			c-11.77-2.66-25.48-4.51-37.48-4.42c-12.09,0.09-24.2,1.09-35.85,4.51c-9.86,2.9-18.33,9.09-25.89,15.94
			c-3.5,3.17-6.71,6.79-8.8,11.06c-2.31,4.7-2.3,10.2-4.82,14.78c-1.4,2.54-3.39,4.71-5.04,7.08c-1.76,2.52-3.33,5.18-4.7,7.94
			c-2.77,5.58-4.65,11.52-5.71,17.66c-0.13,0.75,1.02,1.08,1.15,0.32c0.1-0.6,0.25-1.19,0.37-1.78c0.02,0,0.03,0.01,0.04,0.01
			c11.66,0.52,22.18-2.85,32.77-7.38c1.66-0.71,3.34-1.42,5-2.16c0.45,0.46,0.91,0.91,1.37,1.36c4.05,3.97,8.17,7.91,12.8,11.22
			c8.66,6.2,19.83,9.92,30.18,5.8c0.38-0.15,0.64-0.68,0.26-1c-4.12-3.52,15.15-5.57,10.41-8.19c-5.15-2.85-34.45-5.45-37.13-11.3
			c-1-2.18-2.66-3.86-3.78-5.95c-0.11-0.21-0.2-0.42-0.27-0.63c1.78-1.77,3.37-3.72,4.91-5.8c6.41-8.62,15.49-13.3,23.71-19.87
			c2.01-1.61,3.73-3.5,5.69-5.15c2.47-2.08,5.43-2.5,8.51-2.99c5.64-0.89,11.16-0.57,16.53-2.53
			C181.42,98.71,187.43,100.26,190.73,96.85z"/>
	</g>
	<g>
		<g>
			<path class="st7" d="M97.51,187.77c-0.12-1.39-0.42-2.78-0.78-4.17c-0.11-0.43-0.23-0.86-0.35-1.29v-0.01
				c-0.12-0.43-0.23-0.85-0.35-1.28c-2.22-8.3-5.68-16.19-9.68-23.77c-0.32-0.62-0.65-1.23-0.99-1.86
				c-0.56-1.05-1.15-2.11-1.74-3.16c-4.9-8.69-9.75-17.48-14.93-26.03c-0.41-0.69-0.83-1.38-1.26-2.06
				c-0.54-0.89-1.08-1.76-1.63-2.63c-1.35-2.16-2.72-4.3-4.14-6.41c-0.86-1.29-1.75-2.87-3.14-3.69c-3.47-2.07-7.95,1.34-10.93,2.85
				c-7.44,3.76-15.29,9.33-23.88,9.56c-2.98,0.07-5.96-0.24-8.95-0.23c-1.02,0-2.08,0.06-2.97,0.57c-1.92,1.13-2.24,3.83-2.3,5.84
				c-0.08,2.73,0.48,5.42,0.9,8.11c0.51,3.4,0.73,6.8,0.69,10.24c-0.01,0.83-0.02,1.65-0.06,2.48c-0.01,0.47-0.02,0.92-0.06,1.38
				c-0.18,4.55-0.56,9.08-0.54,13.64c0.02,5.62,0.86,10.93,2.69,16.25c0.07,0.22,0.16,0.44,0.22,0.66c0.17,0.49,0.34,0.98,0.48,1.47
				c1.74,5.39,2.85,10.59,3.01,16.38c0.12,4.47,0.1,8.81-0.28,13.18c-0.02,0.4-0.06,0.8-0.11,1.2c-0.16,1.57-0.35,3.13-0.6,4.71
				c-0.78,4.9,6.04,7.44,9.86,7.59c2.97,0.13,5.92-0.54,8.81-1.22c17.12-4.01,30.99-9.8,45.87-19.03c2.9-1.81,5.81-3.6,8.71-5.4
				c3.11-1.94,6.14-4.74,7.62-8.27C97.49,191.48,97.66,189.62,97.51,187.77z"/>
		</g>
		<g>
			<g>
				<path class="st8" d="M68.7,126.19c-1.87-1.05-3.75-2.06-5.64-3.04c-0.24-0.13-0.53-0.29-0.84-0.47c-1.5-0.85-4-2.26-5.16-1.4
					c-0.78,0.57-0.85,2.3-0.91,3.56c-0.02,0.47-0.05,0.89-0.1,1.23c-0.22,1.64-0.38,3.27-0.54,4.91c-0.26,2.53-0.53,5.15-0.97,7.71
					c-0.46,2.57-1.07,4.45-2.55,5.27c-1.09,0.59-2.5,0.5-4.32-0.25c-1.38-0.59-4.25-2.29-7.29-4.1c-3.36-1.99-6.84-4.06-8.18-4.53
					c-0.59-0.2-1.08-0.14-1.53,0.16c-2.62,1.77-3.1,10.83-3.34,15.17c-0.06,1.21-0.11,2.16-0.18,2.67
					c-0.35,2.44-0.72,4.36-2.12,5.16c-0.41,0.24-0.89,0.36-1.44,0.36c-0.74,0-1.63-0.23-2.69-0.66c-1.68-0.69-5.83-3.2-9.91-5.75
					c0.04-0.46,0.05-0.91,0.06-1.38c4.23,2.65,8.62,5.32,10.32,6.01c1.45,0.61,2.45,0.73,3.08,0.37c0.92-0.53,1.23-2.25,1.52-4.29
					c0.06-0.47,0.11-1.39,0.18-2.56c0.36-6.78,0.98-14.17,3.87-16.11c0.77-0.51,1.64-0.61,2.59-0.29c1.45,0.5,4.98,2.6,8.39,4.62
					c2.87,1.71,5.84,3.47,7.14,4.01c1.47,0.62,2.55,0.72,3.29,0.31c1.13-0.61,1.6-2.49,1.94-4.43c0.44-2.51,0.71-5.1,0.96-7.62
					c0.17-1.65,0.34-3.29,0.55-4.95c0.05-0.31,0.06-0.71,0.08-1.14c0.07-1.58,0.17-3.54,1.4-4.45c1.78-1.33,4.6,0.26,6.45,1.32
					c0.3,0.17,0.57,0.32,0.8,0.44c1.28,0.66,2.56,1.34,3.83,2.05C67.87,124.82,68.29,125.5,68.7,126.19z"/>
			</g>
		</g>
		<g>
			<g>
				<path class="st8" d="M86.36,157.24c-3.14-1.69-6.49-3.07-9.76-4.42c-1.54-0.63-3.08-1.27-4.59-1.93
					c-0.67-0.3-1.38-0.61-2.07-0.62c-0.01,0-0.01,0-0.01,0c-1.42,0-3.35,6.35-4.75,10.98c-2.07,6.86-3.86,12.79-6.5,12.31
					c-1.19-0.23-3.9-1.66-7.04-3.34c-3.7-1.98-9.92-5.28-11-4.74c-0.48,0.37-1.68,3.71-2.74,6.66c-2.75,7.63-6.14,17-9.96,17
					c-0.24,0-0.48-0.04-0.72-0.11c-2.72-0.85-5.42-1.84-8.05-2.81c-1.75-0.65-3.52-1.32-5.33-2c-0.14-0.49-0.31-0.98-0.48-1.47
					c2.12,0.81,4.18,1.59,6.21,2.34c2.62,0.97,5.32,1.96,8,2.81c3.02,0.93,6.89-9.77,9.2-16.17c1.84-5.11,2.56-6.93,3.33-7.32
					c1.53-0.77,5.8,1.38,12.11,4.75c2.93,1.56,5.69,3.03,6.69,3.21c1.63,0.3,3.74-6.78,5.15-11.47c2.22-7.33,3.69-11.83,5.89-11.83
					h0.04c0.93,0.01,1.78,0.38,2.54,0.72c1.5,0.66,3.02,1.28,4.55,1.92c2.77,1.15,5.59,2.32,8.31,3.68
					C85.71,156.01,86.03,156.62,86.36,157.24z"/>
			</g>
		</g>
		<g>
			<g>
				<path class="st8" d="M96.73,183.6c-6.86-1.11-15.3-2.01-17.9-0.5c-1.17,0.68-3.17,5.41-4.95,9.59
					c-2.63,6.23-4.35,10.05-5.93,10.61c-1.88,0.67-7.83-0.79-14.3-2.48c-1.52-0.4-2.73-0.71-3.38-0.84
					c-3.44-0.69-5.5-1.11-7.59,1.72c-0.6,0.83-1.53,3.08-2.51,5.46c-2.14,5.16-3.77,8.89-5.35,9.83c-0.43,0.26-1.22,0.37-2.32,0.37
					c-3.33,0-9.4-1.05-16.05-2.38c0.05-0.4,0.08-0.8,0.11-1.2c6.14,1.23,16.14,3.09,17.65,2.19c1.35-0.81,3.38-5.71,4.85-9.27
					c1.07-2.56,1.98-4.78,2.66-5.71c2.55-3.46,5.3-2.9,8.79-2.19c0.68,0.13,1.9,0.46,3.45,0.85c4.17,1.09,11.91,3.11,13.6,2.51
					c1.19-0.43,3.52-5.94,5.22-9.95c2.44-5.77,4.02-9.33,5.44-10.15c2.86-1.68,11.21-0.87,18.17,0.23v0.01
					C96.5,182.74,96.62,183.17,96.73,183.6z"/>
			</g>
		</g>
	</g>
	<g>
		<path class="st9" d="M379.21,199.06c-3.17-5.57-6.56-11.02-10.12-16.37c1.17,0.06,2.34,0.15,3.51,0.29c0.76,0.09,0.76-1.11,0-1.2
			c-1.45-0.17-2.89-0.27-4.34-0.31c-15.41-22.93-28.11-38.87-46.66-59.14c-7.61-8.32-19.41-22.98-32.42-19.16
			c-7.31,2.15-14.54,8.42-20.66,12.78c-7.81,5.57-47.74,45.97-57.4,49.76c-1.09-1.43-2.17-2.87-3.22-4.33
			c-0.45-0.62-1.48-0.02-1.03,0.6c1.17,1.63,2.37,3.23,3.59,4.81c-0.28,0.47-0.59,0.93-0.87,1.41c-0.39,0.67,0.64,1.27,1.03,0.6
			c0.2-0.34,0.41-0.66,0.61-1c4.01,5.16,8.3,10.1,12.91,14.73c2.31,2.32,4.9,4.66,8.16,5.49c3.98,1.02,8.16-0.31,12.02-1.23
			c8.27-1.98,28.89-2.95,35.76-8.38c3.5-2.76,6.45-6.25,9.52-9.46c3.16-3.31,6.33-6.63,9.49-9.94
			c6.42,12.39,18.09,21.76,31.59,25.37c15.93,4.25,20.9-2.07,36.86-1.75c3.74,5.54,7.3,11.21,10.62,17.03
			C378.56,200.33,379.6,199.73,379.21,199.06z"/>
	</g>
	<g>
		<path class="st10" d="M366.92,185.9c-10.12-9.53-19.29-19.86-28.24-30.48c-9.05-10.74-18.74-20.77-28.53-30.82
			c-3.99-4.09-8.09-8.66-13.73-10.39c-5.73-1.76-10.08,0.6-14.7,3.8c-10.38,7.2-20.74,14.44-30.69,22.23
			c-11.54,9.03-22.48,18.84-32.02,29.99c-0.5,0.58,0.34,1.43,0.85,0.85c16.13-18.84,36.14-33.64,56.37-47.78
			c4.89-3.42,10.69-9.07,17.04-8.51c6.95,0.61,11.9,6.42,16.45,11.09c9.13,9.37,18.22,18.69,26.68,28.69
			c9.45,11.18,19.01,22.13,29.68,32.18C366.63,187.27,367.48,186.43,366.92,185.9z"/>
	</g>
	<g>
		<path class="st10" d="M336.05,178.52c-4.42-8.31-11.53-14.45-18.5-20.57c-3.61-3.17-7.22-6.38-10.41-9.98
			c-2.66-2.99-4.89-7.2-8.7-8.88c-3.91-1.72-7.45,0.96-10.66,2.99c-4.69,2.96-9.24,6.14-13.64,9.53
			c-8.56,6.6-16.49,13.96-23.74,21.98c-0.52,0.57,0.33,1.42,0.85,0.85c6.52-7.2,13.57-13.89,21.16-19.96
			c4.02-3.21,8.19-6.25,12.48-9.1c2.02-1.34,4.06-2.67,6.15-3.9c3.35-1.97,6.35-2.34,9.34,0.38c3,2.73,5.22,6.35,8.06,9.26
			c2.94,3.02,6.12,5.8,9.29,8.58c6.56,5.76,13.14,11.62,17.29,19.43C335.37,179.81,336.41,179.2,336.05,178.52z"/>
	</g>
	<g>
		<path class="st6" d="M439.91,193.36l42.7,6.6l-6.14,10.02c0,0-28.88,0.8-40.71,1.65c-8.59,0.62-28.74,1.5-28.74,1.5L439.91,193.36
			z"/>
	</g>
	<g>
		<path class="st9" d="M307.29,171.64c-14.94-0.84-29.89-1.82-44.83-2.45c-15.6-0.66-31.39-0.42-46.5,3.89
			c0.19-0.47,0.36-0.93,0.49-1.44c0.2-0.74-0.93-1.1-1.14-0.36c-0.18,0.67-0.42,1.31-0.71,1.9c-0.19,0.41-0.41,0.8-0.65,1.19
			c-2.54,4.11-7.28,6.77-10.29,10.53c-4.51,5.62-7.39,12.67-10.67,19.04c-1.68,3.26-3.35,6.53-5.03,9.78
			c-1.54,3.01-3.9,6.35-4.54,9.74c-1.07,5.59,4.44,7.68,8.9,8.79c13.99,3.5,28.32-1.26,42.2-3.02c15.7-1.99,31.36,0.96,47.08,0.78
			c10.9-0.12,61.21-5.11,76.06-4.6c15.73,0.56,31.95,1.39,47.6-0.77c0.12,0.04,0.25,0.02,0.4-0.05c0.04,0,0.07-0.01,0.11-0.01
			c0.2-0.04,0.32-0.14,0.4-0.28c0.79-0.44,1.58-0.91,2.36-1.41c0.53-0.32,1.05-0.67,1.57-1.02c4.59-3.1,9.02-6.99,13.26-11.14
			c0.35-0.34,0.68-0.67,1.02-1.01c3.25-3.22,6.38-6.57,9.4-9.82c0.35-0.37,0.69-0.74,1.03-1.1c1.75-1.88,3.45-3.71,5.11-5.45
			C440.21,193.05,322.25,172.47,307.29,171.64z"/>
	</g>
	<g>
		<path class="st10" d="M410.1,221.87c-0.51,0.35-1.04,0.69-1.57,1.02c-14.02-1.52-28.07-2.74-42.15-3.64
			c-15.14-0.96-30.91-2.67-45.98-0.42c-6.81,1.02-13.54,2.62-20.44,2.91c-7.62,0.32-15.09-0.26-22.68,0.91
			c-7.07,1.1-13.69,1.8-20.84,0.85c-6.92-0.92-13.77-2.55-20.79-2.57c-13.81-0.06-27.64,4.65-41.28,0.66
			c-0.74-0.22-0.42-1.37,0.32-1.15c15.76,4.6,32.06-2.18,48.08-0.24c6.93,0.85,13.78,2.56,20.79,2.71
			c7.18,0.14,14.13-1.95,21.28-2.29c7.6-0.36,15.12,0.29,22.7-0.83c6.67-0.99,13.26-2.5,20-2.92c15-0.96,30.38,0.57,45.35,1.63
			C385.33,219.37,397.73,220.49,410.1,221.87z"/>
	</g>
	<g>
		<path class="st10" d="M424.38,209.73c-0.34,0.34-0.67,0.67-1.02,1.01c-11.51-1.69-23.04-3.15-34.59-4.39
			c-15.82-1.71-31.7-2.95-47.55-4.26c-15.42-1.29-30.75-2.84-46.23-1.52c-7.94,0.67-15.87,1.68-23.84,1.77
			c-7.45,0.11-14.88-0.43-22.31-0.96c-15.34-1.08-30.93-2.14-45.85,2.39c-0.74,0.23-1.05-0.93-0.32-1.16
			c16.5-5.01,33.73-3.26,50.64-2.12c7.82,0.53,15.65,0.9,23.48,0.46c7.6-0.43,15.16-1.45,22.76-1.93c16.2-1.02,32.52,1.1,48.65,2.44
			C373.69,203.57,399.09,206.09,424.38,209.73z"/>
	</g>
	<g>
		<path class="st7" d="M217.68,169.56c0,0.45,5,12.72,4.6,20.06c-0.41,7.33,3.19,14.37,4.23,19.16c1.05,4.79-0.15,14.32-3.44,15.17
			c-3.29,0.85-22.6,0.85-22.6,0.85s7.79-34.28,8.76-35.18C210.19,188.72,217.68,169.56,217.68,169.56z"/>
	</g>
	<g>
		<path class="st10" d="M434.81,198.81c-0.34,0.36-0.68,0.73-1.03,1.1c-5.66-0.51-11.32-1.15-16.92-2.12
			c-4.47-0.78-8.89-1.76-13.22-3.05c-4.19-1.25-8.33-2.74-12.65-3.54c-8.23-1.52-16.75-0.44-25.06-0.55
			c-7.66-0.11-15.33-0.67-22.92-1.78c-8.36-1.21-16.45-3.44-24.68-5.28c-8.26-1.84-16.64-2.66-25.06-3.34
			c-16.78-1.33-33.55-2.65-50.32-3.98c-9.65-0.77-19.32-1.53-28.99-1.89c-7.41-0.28-14.81-0.31-22.22,0.07
			c-0.77,0.05-0.77-1.15,0-1.2c7.63-0.4,15.26-0.35,22.87-0.06c11.6,0.46,23.19,1.47,34.77,2.38c16.56,1.32,33.12,2.47,49.66,3.96
			c8.17,0.73,16.13,2.02,24.09,3.95c8.14,1.98,16.24,3.82,24.57,4.8c8.13,0.96,16.33,1.29,24.51,1.14
			c7.71-0.13,15.29-0.53,22.82,1.47c7.6,2.02,14.91,4.51,22.69,5.83C423.38,197.68,429.08,198.3,434.81,198.81z"/>
	</g>
	<g>
		<g>
			<path class="st6" d="M89.55,125.25c-0.27-1.07-1.17-3.2-2.39-5.98c-0.38-0.84-0.8-1.76-1.23-2.72
				c-5.46-11.87-15.39-31.13-19.36-34.67c-6.1-5.42-16.88-3.19-23.71,1.33c-0.16-0.03-0.34-0.03-0.52,0.09
				c-10.85,6.47-17.22,20.36-10.2,32.04c1.85,3.09,4.65,5.26,7.21,7.72c3.03,2.92,5.55,6.29,8.37,9.41
				c4.36,4.8,9.67,8.86,16.35,9.05c-0.32,0.46-0.15,1.24,0.55,1.15c7.18-0.84,10.88-3.23,17.25-6.83
				C86.26,133.35,90.48,128.92,89.55,125.25z"/>
		</g>
		<g>
			<path class="st6" d="M96.73,147.65l-7.52,17.96l-14.47,0.5l-25.63-35.44c0,0,7.4-9.13,9.04-8.62c1.65,0.52,7.69-3.44,9.66-1.96
				c1.98,1.48,14.84,9.11,14.84,9.11c0.13,0.53,0.75,2.54,1.86,4.89c0.83,1.8,1.92,3.79,3.28,5.51c0.16,0.22,0.34,0.43,0.52,0.63
				C91.74,144.21,96.73,147.65,96.73,147.65z"/>
		</g>
		<g>
			<path class="st6" d="M75.68,99.91c0.74,0,11.57,5.17,12.3,7.88c0.74,2.71-7.38,6.4-7.38,6.4L75.68,99.91z"/>
		</g>
		<g>
			<path class="st11" d="M76.1,85.58c-0.42-1.74-1.31-3.19-2.53-4.46c-1.16-1.21-2.39-0.08-2.9-2.78c-0.18-0.96,0.48-2.18,0.3-3.21
				c-0.67-3.75-6.02-4.07-9.04-4.01c-2.68,0.06-5.15,0.81-7.18,2.27c-5.2-1.01-9.99,1.02-13.91,4.4c-1.68,1.76-3.06,3.78-5.01,5.33
				c-2.78,2.22-6.32,3.55-8.71,6.26c-4.05,4.59-3.45,10.46-3.66,16.13c-0.36,9.96,1.71,19.86,10.95,25.38
				c0.98,0.58,1.92,1.12,2.85,1.64c1.32,0.4,2.65,0.8,3.88,1.4c5.43,2.64,16.84,9,16.84,9s2.62-13.08,3.15-14.86
				c-3-1.68-6.82-5.7-7.6-8.76c-0.78-3.07,1.25-7.88,4.86-7.66c-0.41-0.62-0.94-1.25-1.28-2.3c-0.74-2.32-1.8-5.11-1.39-7.65
				c0.26-1.6,0.99-2.2,2-3.32c1.18-1.31,1.65-2.83,2.61-4.32c1.51-2.34,3.94-3.93,6.69-4.35c1.38-0.21,2.8-0.12,4.16,0.22
				c0.88,0.22,2.53,1.25,3.25,0.24c0.42-0.59,0.97-0.99,1.37-1.54C76.44,87.77,76.34,86.57,76.1,85.58z"/>
		</g>
		<g>
			<path class="st11" d="M75.65,100.78c-0.01-0.01-0.01-0.03-0.02-0.04c-0.01-0.02-0.02-0.04-0.03-0.06
				c-0.13-0.3-0.3-0.54-0.52-0.67c-0.28-0.17-0.64-0.16-1.09,0.12c-0.25,0.15-0.37,0.39-0.46,0.62c-0.43,1.15-0.4,5.05,1.57,4.89
				C77.04,105.49,76.06,101.8,75.65,100.78z"/>
		</g>
		<g>
			<path class="st11" d="M73.57,94.45c-0.82-0.06-1.76,0.29-2.44,0.52c-2.35,0.78-4.43,2.32-5.68,4.48
				c-0.32,0.54-0.32,1.27,0.43,1.4c0.92,0.16,1.38-0.25,2.11-0.77c1.19-0.86,2.46-1.45,3.8-2c0.92-0.38,2.19-0.56,2.89-1.34
				c0.62-0.69,0.44-1.64-0.36-2.08C74.08,94.53,73.83,94.47,73.57,94.45z"/>
		</g>
		<g>
			<path class="st12" d="M87.16,119.27c-2.26,0.97-4.65,1.11-7.26,0.84c-0.75-0.07-1.08-1.3-0.19-1.45
				c2.21-0.37,4.28-1.06,6.23-2.11C86.36,117.52,86.78,118.43,87.16,119.27z"/>
		</g>
		<g>
			<path class="st12" d="M87.78,139.59c-4.84,1.08-10.28,2.16-12.09,1.51c-2.07-0.74-1.73-3.22,2.42-3.96
				c4.15-0.74,6.39-3.06,6.39-3.06C85.33,135.88,86.42,137.88,87.78,139.59z"/>
		</g>
	</g>
	<g>
		<path class="st8" d="M217.86,182.82c1.47-4.46,4.42-25.03,4.42-25.03s-6.92-0.33-10.24-1.15c-6.52-1.63-13.25-1.72-19.96-1.86
			c-7.38-0.15-23.33-6.37-30.5-7.91c-6.67-1.43-41.26-8.91-46.7-10.64c-6.47-2.06-15.21,3.51-21.89,3.63
			c-0.27,0-0.43,0.15-0.52,0.34c-2.65,0.31-5.1,1.69-7.42,3c-1.67,0.94-3.29,1.98-4.84,3.1c-3.43,2.47-4.55,3.72-8.98,3.86
			c-4.81,0.15-8.63,2.59-12.34,5.4c-0.55,0.42-1.1,0.86-1.5,1.42c-4.84,6.83-5.61,14.24-3.86,21.81c1.91,8.22,5.7,18.39,11.08,25.23
			c2.59,3.29,6.23,5.39,9.68,7.66c4.06,2.66,8.1,5.36,12.27,7.85c3.82,2.28,7.76,4.35,11.85,6c3.87,2.86,8.6,3.96,13.23,4.96
			c12.07,2.6,24.27,5.18,36.64,5.68c6.46,0.26,12.8-0.41,19.24-0.8c2.95-0.18,11.91-0.25,14.85,0.08c2.98,0.34,5.91,1.33,8.92,1.39
			c4.96,0.11,7.82-3.9,10.67-7.32c4-4.8,8.22-9.48,12-14.45c3.18-4.18,4.3-8.33,3.68-13.55c-0.67-5.63-1.34-11.4-0.23-17.03
			C217.51,183.95,217.67,183.39,217.86,182.82z"/>
	</g>
	<g>
		<path class="st6" d="M234.69,93.6c-1.01-2.91-5.21-4.7-7.71-5.94c-7.98-3.95-22.73-5.25-22.73-5.25s-3.86,3.76-3.86,5.58
			c0,0.12,0.04,0.22,0.1,0.3c0.07,2.09,1.1,4,3.05,5.17c1.99,1.19,7,3.4,8.29,4.58c1.04,0.94,3.54,3.3,4.09,0.93
			c0.28-1.21-0.94-2.2-1.65-2.97c-1.68-1.82-2.06-1.54-3.76-3.35c-0.01-0.09,7.87,1.14,10.5,2.54c1.45,0.77,2.58,1.6,3.84,2.64
			c0.68,0.56,3.12,2.89,4.05,2.4c0.9-0.47,0.36-2.18-0.01-2.81c-0.59-0.99-1.52-1.73-2.36-2.5c-1.23-1.13-2.54-2.15-3.91-3.08
			c2.08,0.76,4.19,1.97,5.9,2.99c1.04,0.62,2.88,3.02,4.2,2.76c1.1-0.21,1.14-0.96,0.81-1.76C234.52,95.73,235.2,95.06,234.69,93.6z
			"/>
	</g>
	<g>
		<g>
			<path class="st7" d="M148.49,89.33c0,0-1.12-3.07-0.45-3.74c0.67-0.67,33.18-10.86,33.18-10.86l1.92,1.06
				c0,0-5.76,6.36-6.74,6.89C175.43,83.19,148.49,89.33,148.49,89.33z"/>
		</g>
		<g>
			<path class="st7" d="M154.55,65.83c0,0-2.17,1.12-2.17,1.65c0,0.52,4.64,22.53,4.64,22.53l27.21-13.47l-6.07-2.88L154.55,65.83z"
				/>
		</g>
		<g>
			<path class="st4" d="M176.68,76.16c-0.06,0-0.13-0.01-0.19-0.03l-23.37-7.77c-0.31-0.1-0.48-0.44-0.38-0.76
				c0.1-0.31,0.44-0.48,0.76-0.38l23.37,7.77c0.31,0.1,0.48,0.44,0.38,0.76C177.16,76,176.93,76.16,176.68,76.16z"/>
		</g>
		<g>
			<g>
				<path class="st2" d="M184.23,76.38c-0.07,0-0.13-0.01-0.2-0.03L153.68,65.7c-0.31-0.11-0.48-0.45-0.37-0.76
					c0.11-0.31,0.45-0.48,0.76-0.37l30.36,10.65c0.31,0.11,0.48,0.45,0.37,0.76C184.71,76.23,184.48,76.38,184.23,76.38z"/>
			</g>
		</g>
		<g>
			<path class="st2" d="M146.26,88.93l13.02,52.62c0.15,0.6,0.79,0.92,1.36,0.68l34.53-14.42c0.44-0.19,0.69-0.66,0.59-1.13
				L185,75.92c-0.12-0.59-0.73-0.93-1.3-0.74l-36.78,12.56C146.42,87.91,146.14,88.42,146.26,88.93z"/>
		</g>
		<g>
			<path class="st13" d="M193.34,126.9c-0.28,0-0.52-0.19-0.58-0.47l-10.72-48.97c-0.07-0.32,0.13-0.64,0.46-0.71
				c0.33-0.07,0.64,0.13,0.71,0.46l10.72,48.97c0.07,0.32-0.13,0.64-0.46,0.71C193.43,126.9,193.38,126.9,193.34,126.9z"/>
		</g>
		<g>
			<polygon class="st7" points="161.66,134.52 162.56,138.13 173.71,133.64 173.05,130.19 			"/>
		</g>
		<g>
			<path class="st7" d="M173.71,83.19c-0.24,0-0.47-0.15-0.56-0.39c-0.11-0.31,0.05-0.65,0.36-0.77l6.86-2.49
				c0.31-0.11,0.65,0.05,0.77,0.36c0.11,0.31-0.05,0.65-0.36,0.77l-6.86,2.49C173.85,83.18,173.78,83.19,173.71,83.19z"/>
		</g>
		<g>
			<path class="st7" d="M167.65,87.88c-0.25,0-0.48-0.16-0.57-0.4c-0.11-0.31,0.06-0.65,0.37-0.76l13.52-4.69
				c0.31-0.11,0.65,0.06,0.76,0.37c0.11,0.31-0.06,0.65-0.37,0.76l-13.52,4.69C167.78,87.87,167.71,87.88,167.65,87.88z"/>
		</g>
		<g>
			<path class="st4" d="M155.97,83.19c-0.25,0-0.48-0.16-0.57-0.41c-0.1-0.31,0.07-0.65,0.38-0.76l20.86-6.93
				c0.31-0.1,0.65,0.07,0.76,0.38c0.1,0.31-0.07,0.65-0.38,0.76l-20.86,6.93C156.1,83.18,156.03,83.19,155.97,83.19z"/>
		</g>
		<g>
			<path class="st4" d="M177.14,76.26c-0.32,0-0.59-0.26-0.6-0.58c-0.01-0.33,0.25-0.61,0.58-0.62l2.97-0.08
				c0.33,0.02,0.61,0.25,0.61,0.58c0.01,0.33-0.25,0.61-0.58,0.62l-2.97,0.08C177.15,76.26,177.14,76.26,177.14,76.26z"/>
		</g>
	</g>
	<g>
		<path class="st6" d="M193.1,115.22c0.27-0.8,0.17-1.54-0.62-2.06c-0.97-0.63-2.46-0.1-3.39,0.34c-0.42,0.2-0.81,0.44-1.19,0.7
			c0.08-0.6-0.08-1.13-0.68-1.52c-2.3-1.51-6.26,3.16-7.3,4.34c-2.7,3.08-5.4,8.03-5.9,10.24c-1.06,4.65-0.11,9.8-0.12,14.56
			c0,0.33-0.6,4.53,0.45,4.94c2.21,0.87,9.02-3.65,10.79-4.79c2.37-1.53,2.46-3.82,2.77-6.36c0.36-3.05,1.55-4.76,3.25-7.23
			c0.83-1.2,3.92-6.12,0.91-6.16c0.91-1.25,1.71-2.53,2.29-3.85C195.23,116.37,194.54,115.39,193.1,115.22z"/>
	</g>
	<g>
		<path class="st6" d="M187.46,136.18c0,0,0,2.49-0.5,6.13c-0.16,1.16-1.33,4.31-2.85,8.05c-0.57,1.41-1.2,2.91-1.84,4.42
			c-0.89,2.1-1.8,4.22-2.63,6.15c-1.96,4.48-3.54,7.98-3.54,7.98l-14.5-7.78l4.04-6.37l4.06-6.42l2.55-4.05l2.11-3.32L187.46,136.18
			z"/>
	</g>
	<g>
		<path class="st7" d="M173.52,160.1c-3.04-1.17-5.84-2.59-9.23-3.26l-2.71,4.29l14.5,7.78c0,0,1.2-2.65,2.8-6.29
			C177.17,161.69,175.42,160.83,173.52,160.1z"/>
	</g>
	<g>
		<path class="st12" d="M186.08,114.68c-2.52,2.7-4.77,5.6-6.77,8.71c-0.42,0.65,0.62,1.25,1.03,0.6c1.94-3.02,4.14-5.84,6.58-8.47
			C187.45,114.96,186.6,114.12,186.08,114.68z"/>
	</g>
	<g>
		<path class="st12" d="M191.08,115.12c-2.9,3.31-5.71,6.7-8.41,10.17c-0.47,0.6,0.37,1.45,0.85,0.85c2.7-3.47,5.51-6.86,8.41-10.17
			C192.43,115.39,191.59,114.54,191.08,115.12z"/>
	</g>
	<g>
		<path class="st12" d="M190.37,122.94c-1.25,1.75-2.42,3.67-3.85,5.29c-0.51,0.57,0.33,1.42,0.85,0.85c1.5-1.7,2.72-3.69,4.04-5.53
			C191.85,122.91,190.82,122.31,190.37,122.94z"/>
	</g>
	<g>
		<path class="st12" d="M233.09,93.28c-3.45-3.28-7.77-5.03-12.3-6.25c-0.75-0.2-1.06,0.96-0.32,1.15c4.35,1.16,8.47,2.8,11.77,5.94
			C232.8,94.66,233.65,93.81,233.09,93.28z"/>
	</g>
	<g>
		<path class="st12" d="M222.2,90.86c-0.73-0.46-1.52-0.79-2.36-1c-0.75-0.19-1.07,0.97-0.32,1.15c0.74,0.19,1.42,0.48,2.07,0.88
			C222.25,92.31,222.85,91.27,222.2,90.86z"/>
	</g>
	<g>
		<path class="st14" d="M184.11,150.36c-0.57,1.41-1.2,2.91-1.84,4.42c-4.39-1.78-8.71-3.94-12.59-6.44l2.55-4.05
			C175.89,146.62,179.98,148.66,184.11,150.36z"/>
	</g>
	<g>
		<path class="st7" d="M179.56,148.69c0,2.43-1.88,4.4-4.19,4.4c-2.32,0-4.19-1.97-4.19-4.4s1.88-4.4,4.19-4.4
			C177.68,144.29,179.56,146.26,179.56,148.69z"/>
	</g>
	<g>
		<path class="st4" d="M10.37,171.95c-0.02,0-0.03,0-0.05,0c-0.33-0.02-0.58-0.31-0.55-0.64c0.01-0.2,1.49-20.07,0.9-25.94
			c-0.14-1.36-0.38-3.01-0.65-4.76c-0.95-6.3-2.02-13.45,0.43-16.07c2.04-2.19,5.28-1.95,9.03-1.67c2.13,0.16,4.34,0.32,6.61,0.08
			c0.34-0.04,0.62,0.2,0.66,0.53c0.03,0.33-0.2,0.62-0.53,0.66c-2.38,0.25-4.74,0.07-6.82-0.08c-3.44-0.25-6.42-0.47-8.07,1.29
			c-2.05,2.2-0.94,9.64-0.12,15.08c0.27,1.77,0.52,3.43,0.65,4.82c0.6,5.97-0.84,25.33-0.9,26.15
			C10.94,171.71,10.68,171.95,10.37,171.95z"/>
	</g>
	<g>
		<path class="st6" d="M502.1,192.87c2.76-2.76,6.04-8.11,1.81-11.11c-2.15-1.52-3.93-1.19-5.78,0.38c-2.62,2.22-5.3,4.37-8,6.5
			c-5.4,4.25-13.36,8.71-21.41,9.17c-0.23,0.01,4.59,3.4,4.59,3.58c-3.63,2.14-7.25,4.28-10.88,6.43c-0.35,0.21-0.43,0.85,0,1.03
			c2.33,1,4.75,1.34,7.19,1.97c2.54,0.66,4.86,1.92,7.37,2.64c3.95,1.14,7.56,0.16,10.61-2.58c3.68-3.31,5.98-8.09,9.02-11.94
			c1.62-2.04,3.31-4.01,5.2-5.8C501.91,193.05,502,192.96,502.1,192.87z"/>
	</g>
	<g>
		<path class="st15" d="M159.07,162.46c-7.94,2.76-15.1,7.44-20.63,13.8c-1.61,1.85-2.77,4.13-5.26,4.87
			c-2.08,0.62-4.18,0.92-6.22,1.71c-0.49,0.19-0.96,0.42-1.44,0.64c-0.01-0.22-0.14-0.42-0.43-0.47c-3.83-0.75-7.68-1.42-11.49-2.25
			c-4.44-0.96-7.91-2.78-11.38-5.71c-5.5-4.65-10.87-8.21-18.16-9.28c-0.75-0.11-1.08,1.04-0.32,1.15c4.06,0.6,7.94,1.91,11.44,4.1
			c3.13,1.96,5.67,4.66,8.63,6.85c5.8,4.29,13.48,4.89,20.4,6.19c-2.72,1.37-5.22,3.11-7.49,5.19c-0.57,0.52,0.28,1.37,0.85,0.85
			c3.45-3.14,7.46-5.52,11.94-6.86c1.72-0.51,3.69-0.59,5.32-1.37c1.35-0.64,2.12-1.87,3.02-3c5.58-7.06,13.05-12.29,21.54-15.24
			C160.11,163.36,159.8,162.21,159.07,162.46z"/>
	</g>
	<g>
		<path class="st15" d="M176.17,174.9c-2.4,5.28-4.96,10.49-7.75,15.58c-2.79,5.07-6.19,9.03-10.07,13.26
			c-3.53,3.83-5.9,8.44-9.78,12.01c-4.11,3.78-8.89,6.73-13.62,9.66c-0.65,0.41-0.05,1.44,0.6,1.03c4.4-2.73,8.82-5.48,12.76-8.87
			c4.44-3.83,6.99-8.75,10.89-12.99c3.74-4.06,7.04-7.74,9.76-12.6c3-5.36,5.71-10.89,8.25-16.48
			C177.52,174.81,176.49,174.2,176.17,174.9z"/>
	</g>
	<g>
		<path class="st15" d="M115.51,135.07c-3.36-1.79-5.93-4.53-9.57-5.85c-4.32-1.57-8.85-2.68-13.26-3.98
			c-0.74-0.22-1.06,0.94-0.32,1.15c4.08,1.21,8.19,2.33,12.24,3.64c4,1.3,6.67,4.14,10.3,6.07
			C115.58,136.47,116.19,135.43,115.51,135.07z"/>
	</g>
	<g>
		<path class="st15" d="M112.83,136.39c-5.76-0.75-11.46-0.47-17.13,0.8c-0.75,0.17-0.43,1.32,0.32,1.15
			c5.58-1.25,11.15-1.49,16.81-0.76C113.6,137.69,113.59,136.49,112.83,136.39z"/>
	</g>
	<g>
		<path class="st15" d="M208.35,210.02c-9.12,6.4-17.2,14.07-24.05,22.86c-0.47,0.6,0.37,1.45,0.85,0.85
			c6.79-8.71,14.76-16.32,23.8-22.67C209.59,210.62,208.99,209.58,208.35,210.02z"/>
	</g>
	<g>
		<path class="st12" d="M503.76,187.11c-0.71,0.65-1.4,1.33-2.05,2.04c-0.52,0.57,0.32,1.42,0.85,0.85
			c0.65-0.71,1.34-1.39,2.05-2.04C505.17,187.43,504.33,186.59,503.76,187.11z"/>
	</g>
	<g>
		<path class="st12" d="M502.78,184.13c-0.56,0.5-1.13,1-1.69,1.5c-0.58,0.51,0.27,1.36,0.85,0.85c0.56-0.5,1.13-1,1.69-1.5
			C504.2,184.47,503.35,183.62,502.78,184.13z"/>
	</g>
	<g>
		<path class="st12" d="M501.1,181.93c-0.49,0.31-0.92,0.68-1.29,1.13c-0.49,0.59,0.35,1.44,0.85,0.85
			c0.31-0.37,0.64-0.68,1.05-0.94C502.35,182.55,501.75,181.51,501.1,181.93z"/>
	</g>
	<g>
		<path class="st12" d="M473.39,204.98c-1.73-0.16-3.46-0.32-5.19-0.48c-0.77-0.07-0.76,1.13,0,1.2c1.73,0.16,3.46,0.32,5.19,0.48
			C474.16,206.25,474.15,205.05,473.39,204.98z"/>
	</g>
	<g>
		<g>
			<path class="st2" d="M487.16,146.56c-3.47,1.81-3.95-3.04-4.42-5.15c-1.1-4.99-3-9.82-3.64-14.91
				c-0.43-3.43,0.49-6.82,0.33-10.25c-0.15-3.26-1.43-5.24-2.46-8.17c-1.59-4.53-1.12-11.14-6.01-13.72
				c-0.81-0.43-9.88-2.91-9.96-2.72c-1.27,3.33-2.06,6.77-3.13,10.15c-0.55,1.76-1.69,3.41-1.01,5.32c0.26,0.74,0.73,1.41,1.31,1.94
				c0.79,0.75,1.7,0.78,2.28,1.81c0.49,0.86,0.51,2.02,0.53,2.99c0.05,2.07-0.44,4.1-0.52,6.15c-0.13,3.98-0.25,7.95-0.42,11.91
				c-0.07,1.8-0.01,4.65-2.18,5.28c-1.58,0.48-2.9-0.77-3.45-2.14c-1.19-2.98-0.65-6.89-0.77-10.02c-0.17-4.19-0.75-8.26-3.25-11.75
				c-0.1-0.13-0.11-0.25-0.1-0.37c-1.78-2.16-4.1-3.81-5.86-6.01c-1.33-1.66-2.37-3.56-3.1-5.56c-0.91-2.44-1.32-5.01-1.27-7.56
				c-0.89,0.06-1.76,0.12-2.65,0.19c-9.96,0.79-20.11,2.01-30.09,0.51c-0.07-0.01-0.13-0.05-0.19-0.07
				c-5.81,10.86-12.31,21.34-19.47,31.36c-1.07,3.29-2.81,8.2-6.87,8.47c-3.36,0.22-3.76-3.36-2.75-5.75
				c2.5-5.93,6.56-11.33,9.54-17.04c2.99-5.72,3.29-11.96,3.32-18.29c-2.61,0.04-25.47,0.06-30.44-0.13
				c-6.04-0.25-11.9,1.7-17.94,1.34c-3.52,2.66-8.71,5.89-10.15,1.44c-1.95-5.99,7.63-6.9,10.99-7.56c4.29-0.83,8.44-2.22,12.62-3.5
				c3.68-1.11,7.42-2.12,11.02-3.52c6.85-2.69,13.08-6.79,20.32-8.36c-0.69-0.11-0.68-1.22,0.06-1.17c2.2,0.13,4.3-0.49,6.36-1.26
				c1.87-0.68,3.72-1.46,5.62-1.89c0.01,0,0.04-0.01,0.05-0.01c2.81-0.63,5.42-0.43,8.11-0.17c0.8,0.08,1.62,0.17,2.43,0.24
				c0.17,0.02,0.35,0.04,0.51,0.05c1.9,0.14,3.53-0.81,5.22-1.59c0.3-0.14,0.6-0.28,0.9-0.4c2.31-0.93,4.65-1.89,7.1-2.36
				c1.77-0.34,3.57-0.54,5.39-0.63c3.93-0.23,7.9,0.04,11.76,0.51c5.35,0.67,10.57,2.18,14.85,5.58c3.9,3.1,6.79,7.24,9.59,11.32
				c2.81,3.11,6.27,5.5,9.88,7.59c10.73,6.25,10.43,18.86,10.9,29.84c0.25,5.72,3.2,10.71,3.71,16.37
				C490.02,137.82,490.4,144.89,487.16,146.56z"/>
		</g>
		<g>
			<path class="st2" d="M391.22,73.92c-0.86-2.6-2.95-4.14-5.22-5.39c-0.01-0.04,0-0.06,0-0.1c-0.51-2.29-1.92-7.94-5.22-7.75
				c-1.43,0.08-1.7,2.04-2.01,3.13c-0.42,1.44-0.85,3.07-0.78,4.6c-2.75,0.05-5.41,0.73-7.81,1.99c-1.34,0.68-2.61,1.56-3.76,2.61
				c-0.92-0.48-2.12-0.62-3.02-0.87c-1.16-0.32-4.37-1.84-5.53-0.98c-1.01,0.73-0.4,2.74,0.11,3.62c0.74,1.28,1.51,2.55,2.49,3.65
				c1.19,1.32,1.13,1.95,1.38,3.72c0.05,0.29,0.1,0.59,0.14,0.89c0.44,2.48,1.29,4.97,3.35,6.54c3.7,2.83,8.75,3.07,13.11,1.88
				c4.96-1.33,8.6-4.41,11.28-8.74C391.34,80.13,392.2,76.92,391.22,73.92z"/>
		</g>
		<g>
			<path class="st10" d="M383.79,76.82c-0.32,0.92-1.22,1.45-2.17,1.39c-0.77-0.05-0.77,1.15,0,1.2c1.5,0.1,2.84-0.86,3.32-2.27
				C385.19,76.41,384.04,76.09,383.79,76.82z"/>
		</g>
		<g>
			<path class="st10" d="M371.17,81.77c-0.51,0.83-1.5,1.16-2.41,0.9c-0.74-0.21-0.99,0.96-0.25,1.17c1.45,0.41,2.96-0.24,3.73-1.51
				C372.63,81.67,371.56,81.12,371.17,81.77z"/>
		</g>
		<g>
			<path class="st10" d="M381.13,85.1c-0.04,0.55-0.83,0.93-1.34,0.81c-0.09-0.32-0.23-0.63-0.37-0.93
				c0.53-0.41,0.93-1.13,0.97-1.75c0.03-0.42-0.26-0.65-0.6-0.74c-0.14-0.03-0.29-0.05-0.43-0.04c-0.74,0.05-2.13,0.49-2.65,1.04
				c-0.45,0.47-0.32,1.3,0.29,1.57c0.34,0.15,0.82,0.25,1.28,0.25c0.2,0.38,0.54,1.02,0.33,1.26c-0.26,0.31-1.11,0.25-1.44,0.13
				c-0.73-0.25-1.05,0.91-0.32,1.15c0.79,0.27,2.16,0.17,2.73-0.52c0.06-0.07,0.1-0.15,0.14-0.22c1.2,0.21,2.5-0.85,2.6-2.03
				C382.38,84.33,381.19,84.34,381.13,85.1z"/>
		</g>
		<g>
			<path class="st13" d="M443.09,79.87c-2.24,3.48-3.57,7.28-4.04,11.39c-0.09,0.76,1.11,0.76,1.2,0c0.45-3.89,1.76-7.5,3.88-10.79
				C444.54,79.83,443.5,79.22,443.09,79.87z"/>
		</g>
		<g>
			<path class="st13" d="M392.25,86.94c0.14-0.75-1.01-1.08-1.15-0.32c-0.31,1.64-0.4,3.29-0.26,4.95c0.06,0.76,1.26,0.77,1.2,0
				C391.9,90.01,391.96,88.48,392.25,86.94z"/>
		</g>
		<g>
			<path class="st7" d="M369.97,87.35c-3.43,1.27-6.77,2.74-10.02,4.42c-0.69,0.35-0.08,1.39,0.6,1.03c3.16-1.63,6.4-3.06,9.74-4.3
				C371,88.23,370.69,87.08,369.97,87.35z"/>
		</g>
		<g>
			<path class="st7" d="M370.76,89.64c-2.83,2.46-5.65,4.93-8.48,7.39c-0.58,0.51,0.27,1.35,0.85,0.85
				c2.83-2.46,5.65-4.93,8.48-7.39C372.19,89.97,371.34,89.13,370.76,89.64z"/>
		</g>
		<g>
			<path class="st7" d="M399.93,80.68c-4.24,0.73-8.49,1.46-12.73,2.19c-0.76,0.13-0.44,1.28,0.32,1.15
				c4.24-0.73,8.49-1.46,12.73-2.19C401.01,81.7,400.68,80.55,399.93,80.68z"/>
		</g>
		<g>
			<path class="st7" d="M396.65,75.35c-3.34,1.49-6.69,2.99-10.03,4.48c-0.7,0.31-0.09,1.35,0.6,1.03
				c3.34-1.49,6.69-2.99,10.03-4.48C397.95,76.07,397.34,75.04,396.65,75.35z"/>
		</g>
		<g>
			<path class="st13" d="M380.29,63.56c-0.34,1.44-0.45,2.89-0.3,4.36c0.07,0.76,1.27,0.77,1.2,0c-0.13-1.37-0.05-2.71,0.26-4.04
				C381.62,63.13,380.47,62.81,380.29,63.56z"/>
		</g>
	</g>
	<g>
		<g>
			<path class="st16" d="M494.26,308.7c-2.36-1.69-20.81-21.78-25.49-27.36c-2.53-3.01-5.05-6.02-7.58-9.03
				c-1.65-1.98-3.33-4.79-5.98-5.48c-2.92-0.78-6.51-0.13-9.51-0.08c-4.13,0.06-8.26,0.13-12.38,0.19
				c-7.02,0.12-14.01,0.22-21.02,0.34c-1.1,0.02-2.22,0.04-3.32,0.06c-0.74,0.01-1.5,0.02-2.26,0.04
				c-13.35,0.23-28.87,0.53-44.67,0.8h-0.01c-1.93,0.04-3.86,0.06-5.78,0.1c-18.46,0.31-37,0.57-52.65,0.66
				c-0.97,0-1.92,0.01-2.86,0.01c-0.71,0-1.41,0-2.12,0.01c-16.44,0.06-33.79,0.12-51.22,0.17c-1.59,0-3.2,0.01-4.79,0.01
				c-18.75,0.05-37.49,0.06-55.18,0.02c-1.64,0.01-3.28,0-4.9,0c-17.54-0.04-33.91-0.12-48.05-0.28c-2.12-0.04-4.19-0.06-6.2-0.08
				c-13.12-0.18-23.97-0.42-31.56-0.75c-7.15-0.32-9.71,4.02-14.35,9.56c-10.77,12.87-21.75,25.23-34.27,36.45
				c-0.37,0.34-0.1,1.05,0.42,1.02c8.33-0.6,22.75-0.99,41.46-1.26c2.06-0.04,4.18-0.06,6.35-0.08c20.84-0.25,46.26-0.36,74.1-0.41
				h5.07c21.76-0.04,44.88-0.02,68.35-0.01h4.79c20.64,0.01,41.49,0.02,61.88,0h4.93c23.13-0.01,45.59-0.06,66.36-0.19
				c1.74,0,3.46-0.01,5.17-0.02c19.46-0.12,37.32-0.31,52.72-0.6c1.92-0.04,3.81-0.07,5.65-0.11c25.13-0.53,42.81-1.33,48.75-2.57
				C494.67,309.68,494.64,308.97,494.26,308.7z"/>
		</g>
		<g>
			<path class="st7" d="M134.5,268.87c-10.55,12.38-21.09,24.75-31.64,37.13c-2.18,2.56-4.36,5.14-6.53,7.71
				c-2.17,0.02-4.29,0.05-6.35,0.08c3.68-4.33,7.34-8.67,11.03-12.99c9.09-10.67,18.19-21.34,27.28-32.02
				C130.3,268.81,132.38,268.83,134.5,268.87z"/>
		</g>
		<g>
			<path class="st7" d="M187.45,269.15c-3.2,14.93-7.2,29.67-11.95,44.16h-5.07c4.83-14.48,8.87-29.22,12.12-44.16
				C184.17,269.15,185.81,269.16,187.45,269.15z"/>
		</g>
		<g>
			<path class="st7" d="M248.64,313.3h-4.79c-0.41-14.73-0.81-29.45-1.22-44.17c1.59,0,3.2-0.01,4.79-0.01
				C247.82,283.84,248.23,298.57,248.64,313.3z"/>
		</g>
		<g>
			<path class="st7" d="M315.46,313.3h-4.93c-3.66-14.86-7.63-29.65-11.89-44.35c0.71-0.01,1.41-0.01,2.12-0.01
				c0.95,0,1.89-0.01,2.86-0.01C307.85,283.63,311.8,298.42,315.46,313.3z"/>
		</g>
		<g>
			<path class="st7" d="M386.99,313.08c-1.71,0.01-3.44,0.02-5.17,0.02c-7.29-15.76-15.35-31.15-25.55-44.84
				c1.93-0.04,3.86-0.06,5.78-0.1h0.01C371.93,282.03,379.81,297.41,386.99,313.08z"/>
		</g>
		<g>
			<path class="st7" d="M445.37,312.37c-1.84,0.04-3.74,0.07-5.65,0.11c-1.53-2.31-3.09-4.61-4.67-6.9
				c-8.89-12.85-20.17-24.75-28.32-38.22c0.77-0.01,1.52-0.02,2.26-0.04c1.1-0.02,2.22-0.04,3.32-0.06
				c8.01,12.51,18.51,23.79,26.88,35.9C441.28,306.21,443.34,309.27,445.37,312.37z"/>
		</g>
	</g>
	<g>
		<path class="st17" d="M69.43,86.03c-4.1-2.78-9.54-0.1-13.68,1.37c-4.01,1.43-6.73,4.79-7.46,8.96c-0.13,0.75,1.02,1.08,1.15,0.32
			c0.75-4.32,3.53-7.14,7.65-8.44c3.63-1.15,8.16-3.59,11.73-1.17C69.47,87.5,70.07,86.46,69.43,86.03z"/>
	</g>
	<g>
		<path class="st17" d="M57.53,83.56c-3.59,0.45-6.68,0.75-9.68,2.99c-2.44,1.81-4.12,4.25-5.1,7.11c-0.25,0.73,0.91,1.04,1.15,0.32
			c0.96-2.81,2.72-5.2,5.21-6.86c2.63-1.76,5.37-1.98,8.42-2.36C58.29,84.67,58.3,83.47,57.53,83.56z"/>
	</g>
	<g>
		<path class="st17" d="M69.05,78.56c-1.09-4.08-7.86-2.31-10.65-1.5c-0.74,0.21-0.42,1.37,0.32,1.15c1.9-0.55,8.39-2.26,9.18,0.67
			C68.1,79.62,69.25,79.31,69.05,78.56z"/>
	</g>
	<g>
		<path class="st7" d="M74.96,149.58c0,0,9.05-3.62,16.24-3.62c7.18,0,16.37-1.5,18.56-1.2c2.2,0.3,3.59-0.08,4.29-0.04
			c0.7,0.04-8.28-1.87-12.37-2.41c-4.09-0.54-12.57-1.44-12.57-1.44s-4.1,2.15-7.99,4.44C77.23,147.6,74.96,149.58,74.96,149.58z"/>
	</g>
	<path class="st13" d="M364.57,87.24c-0.88-1.05-1.39-2.28-1.58-3.63c-0.11-0.76-1.26-0.44-1.15,0.32c0.23,1.56,0.89,2.95,1.89,4.16
		C364.22,88.67,365.06,87.82,364.57,87.24z"/>
	<path class="st13" d="M364.91,73.93c-1.56-0.41-3.03-1-4.43-1.78c-0.67-0.38-1.28,0.66-0.6,1.03c1.49,0.84,3.06,1.47,4.72,1.91
		C365.33,75.28,365.65,74.13,364.91,73.93z"/>
</g>
</svg>
