<?xml version="1.0" encoding="utf-8"?>
<!-- Generator: Adobe Illustrator 25.2.0, SVG Export Plug-In . SVG Version: 6.00 Build 0)  -->
<svg version="1.1" id="레이어_1" xmlns="http://www.w3.org/2000/svg" xmlns:xlink="http://www.w3.org/1999/xlink" x="0px"
	 y="0px" viewBox="0 0 356.55 517.03" style="enable-background:new 0 0 356.55 517.03;" xml:space="preserve">
<style type="text/css">
	.st0{fill:#96B2A2;}
	.st1{fill:#769B86;}
	.st2{fill:#8E5750;}
	.st3{fill:#DFCEC6;}
	.st4{fill:#FFFFFF;}
	.st5{fill:#35303A;}
	.st6{fill:#F8F0EB;}
	.st7{fill:#6F5E61;}
	.st8{fill:#789BB4;}
	.st9{fill:#F1CFB3;}
	.st10{fill:#713831;}
	.st11{fill:#1A161C;}
	.st12{fill:#D6A576;}
	.st13{fill:#B58251;}
	.st14{fill:#507691;}
	.st15{fill:#D9AE8A;}
</style>
<g>
	<g>
		<g>
			<g>
				<path class="st0" d="M213.44,104.99c0.67-5.79-0.43-11.31-6.16-15.68c-20.38-15.55-35.41,15.93-38.72,31.35
					c-1.05,4.9-1.2,9.9-1.74,14.87c-0.39,3.66-1.13,7.24-2.02,10.8c-0.43,1.68-0.9,3.34-1.39,5.01c-2.86,9.62-5.78,18.97-6.38,29.05
					c-0.17,2.75-0.71,8.31-1.42,14.98c-1.99,18.63-5.3,46.04-5.3,46.04s-6.02-31.7-5.4-42.81c0.13-2.28,0.44-4.5,0.9-6.67
					c0.63-3.11,1.56-6.13,2.59-9.12c0.55-1.6,1.13-3.2,1.71-4.79c1.25-3.34,2.51-6.68,3.58-10.12c0.04-0.11,0.07-0.22,0.1-0.32
					c3.82-12.57,1.99-25.45,1.31-38.28c-0.42-7.89-0.42-15.77,1.6-23.55c0.05-0.17,0.1-0.35,0.14-0.51
					c2.5-9.48,6.53-18.66,7.44-28.5c0.67-7.26-0.69-15.82-7.34-20.02c-0.38-0.24-0.77-0.47-1.15-0.65c-0.37-0.2-0.75-0.38-1.13-0.53
					c-5.86-2.39-11.46,0.26-14.97,5.84c-4.93,7.86-8.69,16.63-11.02,25.61c-2.24,8.62-3.09,17.67-1.78,26.51
					c0.44,3.04,1.26,5.93,2.25,8.74c1.99,5.62,4.67,10.96,6.48,16.69c0.22,0.68,0.42,1.38,0.61,2.07
					c2.89,10.72,1.66,21.58-0.36,32.38c-0.17,0.92-0.35,1.83-0.54,2.75c-1.05,5.38-2.24,10.73-3.14,16.05
					c-0.48-4.06-1.22-8.06-2.62-11.95c-0.51-1.44-1.11-2.86-1.82-4.26c-1.2-2.38-2.57-4.67-4.07-6.89
					c-1.81-2.73-3.77-5.36-5.77-7.96c-3.95-5.14-7.88-10.43-12.74-14.75c-4.31-3.82-9.47-6.83-15.22-7.74
					c-1.83-0.3-4.55-0.55-6.92-0.11c-0.43,0.07-0.85,0.17-1.25,0.3c-1.7,0.54-3.07,1.53-3.57,3.29c-1.15,4.02,0.3,9.47,1.57,13.29
					c1.46,4.44,3.65,8.6,6.04,12.6c5.26,8.83,11.78,17.2,14.97,27.09c1.92,5.96,1.78,12.13,2.49,18.29
					c0.62,5.42,2.42,10.31,5.27,14.96c1.77,2.9,3.83,5.65,5.92,8.41c2.12,2.83,4.27,5.64,6.16,8.6c-0.02,0.47-0.04,0.93-0.06,1.4
					c-0.17,3.94-0.35,7.88-0.59,11.81c1.04,1.63,2.08,3.26,3.1,4.89c2.1,3.36,4.12,6.77,6.04,10.21c0.83,1.47,1.62,2.96,2.39,4.45
					c4.44,8.49,8.12,17.32,10.49,26.83c0.37,1.47,0.71,2.96,1.02,4.44c2.16,10.03,3.28,20.26,4.02,30.51
					c-2.49-1.13-5.04-2.11-7.68-2.95c-0.73-0.23-1.17,0.87-0.44,1.11c2.81,0.89,5.56,1.96,8.21,3.19c0.34,4.89,0.59,9.78,0.84,14.66
					c0.02,0.54,0.06,1.08,0.08,1.62c0.04,0.77,1.22,0.59,1.17-0.18c-0.02-0.56-0.06-1.13-0.08-1.69c-0.23-4.6-0.47-9.21-0.78-13.82
					c0.65,0.32,1.29,0.63,1.94,0.97c-0.07,1.89-0.14,3.8-0.24,5.7c-0.11,2.32-0.23,4.65-0.36,6.97c-0.16,2.92-0.34,5.84-0.53,8.77
					c-0.06,0.77,1.14,0.9,1.19,0.13c0.2-3.13,0.38-6.24,0.54-9.36c0.12-2.17,0.23-4.35,0.32-6.51c0.14-0.08,0.24-0.22,0.26-0.42
					c0.14-1.47,0.29-2.93,0.43-4.38c0.97,0.54,1.93,1.09,2.87,1.68c0.16,1.02,0.3,2.04,0.46,3.05c0.05,0.29,0.24,0.44,0.47,0.48
					c-0.43-5.39-1.26-10.78-1.95-16.14c-0.55-4.3-1.02-8.6-1.15-12.9c-0.19-6.69-0.31-13.6-0.11-20.54
					c0.04-1.22,0.08-2.45,0.16-3.68c0.45-9.92,1.66-19.81,4.31-29.07c2.05-7.17,6.5-13.77,9.47-20.66
					c3.41-7.89,6.31-15.99,8.74-24.21c2.78-9.35,5.05-19.2,10.39-27.51c2.54-3.95,4.74-6.31,5.9-10.91
					c1.42-5.58,2.28-11.26,3.54-16.86c4.59-20.21,9.23-40.61,17.63-59.65C212.9,106.19,213.16,105.59,213.44,104.99z M153.1,333.14
					c0.43,3.57,0.93,7.14,1.46,10.69c-0.84-0.5-1.68-0.98-2.51-1.44C152.35,339.29,152.7,336.2,153.1,333.14z"/>
			</g>
			<g>
				<path class="st0" d="M222.63,220.77c-0.1-0.19-0.19-0.38-0.3-0.56c-0.19-0.36-0.41-0.68-0.63-0.98
					c-3.71-4.98-11.35-4.38-15.96-0.66c-3.77,3.04-5.18,7.75-8.35,11.27c-3.08,3.44-7.4,5.45-10.48,8.89
					c-6.17,6.89-8.21,16.74-12.85,24.6c-3.04,5.15-6.73,9.74-10.66,14.21c-2.18,2.47-4.19,5.01-5.84,7.77
					c-0.85,1.39-1.6,2.85-2.24,4.38c-0.81,1.99-2,5.48-2.84,9.64c-0.73,3.63-1.2,7.77-0.92,11.83c-0.07,3.25-0.14,17.96-0.08,21.15
					c0.01,0.41,1.4-1.45,2.26,0.46c0.17,0.37,0.31,0.89,0.43,1.59c0.12,0.69,1.16,0.49,1.17-0.16c0.38-10.62,6.02-19.85,12.19-28.16
					c0.71-0.95,1.38-1.88,2.04-2.81c1.87-2.71,3.5-5.44,4.73-8.62c1.78-4.6,4.1-8.63,7.39-12.33c5.63-6.33,12.7-11.14,19.15-16.57
					c6.85-5.77,12.68-12.54,16.92-20.46C221.29,238.65,226.21,228.23,222.63,220.77z"/>
			</g>
			<g>
				<path class="st1" d="M130.08,225.13c0.87-4.68,3.34-8.48,5.21-12.76c0.48-1.09-3.06-20.52-3.11-20.18
					c-0.48-4.06-1.22-8.06-2.62-11.95c-1.01,2.5-2.17,4.87-3.21,6.95c-2.04,4.04-4.06,8.19-4.79,12.7
					c-0.77,4.77,0.14,9.53,0.61,14.29c0.56,5.76-0.22,10.78-3.28,15.76c-1.41,2.31-3.04,4.5-4.44,6.81c2.12,2.83,4.27,5.64,6.16,8.6
					c-0.02,0.47-0.04,0.93-0.06,1.4c-0.17,3.94-0.35,7.88-0.59,11.81c1.04,1.63,2.08,3.26,3.1,4.89c2.1,3.36,4.12,6.77,6.04,10.21
					c0.83,1.47,1.62,2.96,2.39,4.45c0.24-0.28,0.48-0.54,0.72-0.81c2.2-2.53,3.92-5.32,4.26-8.71c0.47-4.51-1.11-9.02-2.37-13.28
					C131.24,245.54,128.18,235.38,130.08,225.13z"/>
			</g>
			<g>
				<path class="st1" d="M232.67,213.9c-3.77,1.54-7.44,3.32-10.97,5.33c-4.84,2.74-9.44,5.9-13.71,9.51
					c-3.8,3.2-7.39,6.69-10.26,10.75c-3.04,4.3-5.07,9.2-7.78,13.69c-5.44,8.96-12.65,16.45-18.96,24.75
					c-2.84,3.74-5.32,7.77-6.63,12.31c-0.74,2.59-1.11,5.26-1.8,7.84c-0.25,0.98-0.6,1.9-0.97,2.8c-3.8-3.34-4.35-9.81-4.02-15.58
					c-0.85,1.39-1.6,2.85-2.24,4.38c-0.81,1.99-2,5.48-2.84,9.64c0.04-1.22,0.08-2.45,0.16-3.68c-1.02,2.51-2.25,4.91-3.77,7.03
					c-0.51,0.73-1.08,1.42-1.64,2.11c0-0.02,0-0.05-0.01-0.07c-1.05-8.21-2.07-16.44-3.74-24.56c-1.62-7.93-3.78-15.75-4.97-23.76
					c-1.14-7.7-0.63-15.55-1.99-23.22c-1.19-6.74-4.37-12.5-8.36-17.97c-3.95-5.42-8.45-10.51-11.57-16.5
					c-3.64-6.98-4.01-15-7.2-22.15c-3.52-7.89-9.09-14.7-14.2-21.6c-4.06-5.47-8.12-10.94-12.19-16.42
					c-0.43,0.07-0.85,0.17-1.25,0.3c3.44,4.63,6.89,9.28,10.32,13.91c4.57,6.17,9.45,12.21,13.36,18.82
					c2.06,3.46,3.75,7.1,4.86,10.98c1.14,3.95,1.78,8.05,3.15,11.94c2.12,6.02,5.93,11.16,9.77,16.18
					c4.01,5.24,8.26,10.54,10.56,16.8c2.81,7.7,2.22,16.02,2.93,24.04c0.68,7.57,2.47,14.96,4.16,22.34
					c1.93,8.47,3.33,16.99,4.45,25.61c0.29,2.18,0.57,4.37,0.86,6.55c-1.02,1.17-2.1,2.29-3.21,3.36
					c2.16,10.03,3.28,20.26,4.02,30.51c-2.49-1.13-5.04-2.11-7.68-2.95c-0.73-0.23-1.17,0.87-0.44,1.11
					c2.81,0.89,5.56,1.96,8.21,3.19c0.34,4.89,0.59,9.78,0.84,14.66c0.37-0.05,0.77-0.13,1.17-0.25c0.18-0.05,0.37-0.11,0.56-0.18
					c0.17-0.05,0.34-0.11,0.5-0.18c0.24-0.1,0.47-0.19,0.69-0.29c0.12-2.17,0.23-4.35,0.32-6.51c0.14-0.08,0.24-0.22,0.26-0.42
					c0.14-1.47,0.29-2.93,0.43-4.38c0.97,0.54,1.93,1.09,2.87,1.68c0.16,1.02,0.3,2.04,0.46,3.05c0.05,0.29,0.24,0.44,0.47,0.48
					c-0.43-5.39-1.26-10.78-1.95-16.14c0.17,0.37,0.31,0.89,0.43,1.59c0.12,0.69,1.16,0.49,1.17-0.16
					c0.38-10.62,6.02-19.85,12.19-28.16c0.71-0.95,1.38-1.88,2.04-2.81c-1.14,0.04-2.26-0.02-3.37-0.2
					c-1.45-0.24-2.66-0.73-3.69-1.41c0.59-1.34,1.09-2.73,1.45-4.24c1.2-5.09,2.17-9.78,4.93-14.32
					c5.17-8.47,12.59-15.44,18.31-23.54c5.9-8.36,9.4-18.13,16.73-25.45c5.44-5.44,11.69-10.06,18.39-13.84
					c3.44-1.95,7.01-3.66,10.65-5.16C233.68,214.76,233.37,213.6,232.67,213.9z"/>
			</g>
			<g>
				<path class="st1" d="M156.82,105.23c-0.97,1.11-1.92,2.26-2.87,3.4c-4.01,4.75-8.26,7.81-14.21,9.75
					c-0.35,0.11-0.72,0.23-1.09,0.35c-0.75-7.52,0.28-15.02,2.24-22.28c2.17-7.96,5.29-15.64,8.27-23.33
					c2.2-5.69,4.41-11.38,6.61-17.05c-0.37-0.2-0.75-0.38-1.13-0.53c-4.65,11.66-9.45,23.33-13.32,35.24
					c-2.18,6.72-3.84,13.66-4.12,20.74c-0.1,2.55,0.02,5.07,0.3,7.58c-2.77,0.87-5.71,1.84-8.38,3.15
					c1.99,5.62,4.67,10.96,6.48,16.69c1.6-1.51,3.27-2.95,5.02-4.21c1.47,5.98,2.99,11.96,3.31,18.12
					c0.4,7.63-2.23,14.13-4.16,21.35c-3.29,12.3-1.71,25.12,0.26,37.49c2.42,15.12,5.64,30.64,1.7,45.79
					c-0.19,0.74,0.96,1.07,1.16,0.32c6.81-26.21-7.44-52.21-3.02-78.51c1.1-6.59,4.12-12.68,4.99-19.31
					c0.85-6.55-0.2-13.14-1.65-19.52c-0.48-2.17-1.02-4.31-1.56-6.47c4-2.72,8.42-4.56,13.41-4.69c-0.42-7.89-0.42-15.77,1.6-23.55
					C156.72,105.57,156.77,105.39,156.82,105.23z"/>
			</g>
			<g>
				<path class="st1" d="M185.31,134.92c-2.42,2.99-4.78,6.07-7.28,8.99c-2.53,2.97-6.61,1.31-10.05,1.69
					c-1.1,0.12-2.17,0.36-3.19,0.73c-0.43,1.68-0.9,3.34-1.39,5.01c-2.86,9.62-5.78,18.97-6.38,29.05
					c-0.17,2.75-0.71,8.31-1.42,14.98c0.2-0.13,0.41-0.3,0.61-0.48c2.85-2.49,5.35-4.81,8.96-6.21c3.23-1.26,6.62-1.72,10.08-1.53
					c0.25,0.01,0.51-0.19,0.57-0.44c4.25-16.91,7.75-33.98,10.48-51.2C186.38,134.98,185.73,134.4,185.31,134.92z"/>
			</g>
		</g>
		<g>
			<g>
				<path class="st2" d="M151.54,450.45c-0.02,0-0.04,0-0.05,0c-0.99-0.03-1.77-0.85-1.74-1.85l1.9-66.06
					c0.03-0.99,0.89-1.82,1.85-1.74c0.99,0.03,1.77,0.85,1.74,1.85l-1.9,66.06C153.3,449.68,152.51,450.45,151.54,450.45z"/>
			</g>
			<g>
				<path class="st3" d="M192.25,330.82v84.3c0,1.64-1.34,2.98-2.98,2.98h-75.48c-1.64,0-2.97-1.34-2.97-2.98v-84.3
					c0-1.64,1.33-2.97,2.97-2.97h75.48C190.91,327.85,192.25,329.18,192.25,330.82z"/>
			</g>
			<g>
				<path class="st4" d="M192.25,347.77v0.99h-81.43v-0.89c2.89-2.31,10.41-8.33,10.53-8.69c0.14-0.44,9.88,7.78,9.88,7.78
					l10.55-6.74l8.65,6.9l10.68-7.34l9.78,7.78l11.71-8.38L192.25,347.77z"/>
			</g>
			<g>
				<rect x="110.82" y="376.61" class="st2" width="81.43" height="8.89"/>
			</g>
			<g>
				<path class="st2" d="M106.44,472.54c-0.09,0-0.19-0.01-0.29-0.02c-0.98-0.16-1.65-1.08-1.49-2.06l14.07-88.15
					c0.16-0.98,1.08-1.64,2.06-1.49c0.98,0.16,1.65,1.08,1.49,2.06l-14.07,88.15C108.08,471.91,107.31,472.54,106.44,472.54z"/>
			</g>
			<g>
				<path class="st2" d="M194.47,472.54c-0.91,0-1.69-0.69-1.79-1.62l-8.7-88.15c-0.1-0.99,0.62-1.87,1.61-1.96
					c0.97-0.1,1.87,0.62,1.96,1.61l8.7,88.15c0.1,0.99-0.62,1.87-1.61,1.96C194.59,472.54,194.53,472.54,194.47,472.54z"/>
			</g>
		</g>
	</g>
	<g>
		<g>
			<path class="st5" d="M312.93,485.41c-0.14,0-0.29-0.02-0.43-0.05l-85.26-20.96c-0.96-0.24-1.55-1.21-1.32-2.17
				c0.24-0.96,1.2-1.55,2.17-1.32l83.09,20.42l6.14-226.29c0.03-0.97,0.82-1.75,1.79-1.75c0.02,0,0.03,0,0.05,0
				c0.99,0.03,1.77,0.85,1.75,1.84l-6.2,228.51c-0.01,0.54-0.27,1.05-0.71,1.38C313.71,485.29,313.32,485.41,312.93,485.41z"/>
		</g>
		<g>
			<path class="st5" d="M93.15,503.51c-0.14,0-0.29-0.02-0.43-0.05L0,480.47c-0.96-0.24-1.55-1.21-1.31-2.18
				c0.24-0.96,1.21-1.55,2.18-1.31l90.53,22.45l4.21-230.19c0.02-0.99,0.84-1.73,1.83-1.76c0.99,0.02,1.78,0.84,1.76,1.83
				l-4.25,232.45c-0.01,0.55-0.27,1.06-0.7,1.39C93.93,503.39,93.54,503.51,93.15,503.51z"/>
		</g>
		<g>
			<polygon class="st6" points="320.39,248.52 320.39,255.78 100.99,273.26 13.18,251.7 13.18,243.73 199.14,231.98 			"/>
		</g>
		<g>
			<polygon class="st5" points="320.39,248.52 320.39,255.78 100.99,273.26 13.18,251.7 13.18,243.73 100.1,265.68 			"/>
		</g>
	</g>
	<g>
		<g>
			<path class="st7" d="M155.87,247.07l-73.07,4.31c-0.38,0.02-0.77-0.01-1.14-0.11l-31.21-7.54l6.57-1.35l33.24-6.84l39.64,0.85
				l24.56,8.38l1.62,0.49C157.06,245.56,156.89,246.99,155.87,247.07z"/>
		</g>
		<g>
			<path class="st7" d="M130.72,237.4l-70.48,5.82l-9.78,0.5l-0.9-3.33l-15.5-57.66c-0.38-1.4,0.66-2.78,2.1-2.81l76.33-1.84
				c1.02-0.04,1.93,0.63,2.2,1.62L130.72,237.4z"/>
		</g>
		<g>
			<path class="st5" d="M155.87,247.07l-73.07,4.31c-0.38,0.02-0.77-0.01-1.14-0.11l-31.21-7.54l-0.62-2.31l32.06,7.53l72.58-4.18
				l1.62,0.49C157.06,245.56,156.89,246.99,155.87,247.07z"/>
		</g>
		<g>
			<path class="st5" d="M51.51,242.72c-0.31,0-0.58-0.24-0.6-0.56c-0.02-0.33,0.23-0.61,0.56-0.64l77.78-5.01
				c0.31-0.04,0.61,0.23,0.64,0.56c0.02,0.33-0.23,0.62-0.56,0.64l-77.78,5.01C51.54,242.72,51.52,242.72,51.51,242.72z"/>
		</g>
		<g>
			<path class="st5" d="M53.6,237.3l-14.83-52.33c-0.15-0.51,0.23-1.02,0.76-1.04l71.95-2.34c0.38-0.01,0.72,0.24,0.82,0.6
				l13.58,50.26c0.14,0.5-0.22,1-0.74,1.03l-70.7,4.41C54.05,237.92,53.71,237.67,53.6,237.3z"/>
		</g>
	</g>
	<g>
		<g>
			<path class="st5" d="M277.88,35.02c-0.6-5.05-3.86-10.62-8.29-13.16c-2.61-2.2-6-3.56-9.5-4c-3.88-0.48-8.33-2.07-12.25-1.26
				c-1.49,0.31-2.85,0.93-4.07,1.78c-3.42,0.14-8.31,1.86-10.69,4.37c-2.96,3.13-4.83,7.86-4.99,12.37
				c-0.06,1.63-0.14,3.25-0.31,4.87c-0.16,1.57-0.63,3.17-0.61,4.75c0.04,2.67,2.59,4.27,2.91,6.85c0.62,5,2.36,9.15,3.69,13.93
				c0.21,0.77,1.37,0.44,1.15-0.33c-0.05-0.17-0.11-0.33-0.16-0.5c0.57,0.22,1.27,0.18,1.96-0.09c1.17-0.46,2.11-1.66,3.05-2.46
				c2.03-1.71,4.05-2.9,6.55-3.73c7.34-2.44,29.69-11.92,29.69-11.92S278.77,42.48,277.88,35.02z"/>
		</g>
		<g>
			<path class="st6" d="M305.52,77.02c0,0,1.27-3.97,2.1-3.97c0.82,0,25.77,6.44,28.47,7.41c1.35,0.48,2.66,1.72,2.66,1.72
				s0.3-2.4,1.27-3.98c0.97-1.57,10.1-13.53,11.08-13.46c0.97,0.07,4.34,1.22,4.34,1.22L337.7,93.56c0,0-19.76-7.18-22.6-8.01
				C312.26,84.73,305.52,77.02,305.52,77.02z"/>
		</g>
		<g>
			<path class="st8" d="M305.42,75.56l35.72,9.02l-11.38,42.86l-33.31-8.06c-0.88-0.21-1.43-1.07-1.25-1.95l8.17-40.58
				C303.57,75.91,304.5,75.32,305.42,75.56z"/>
		</g>
		<g>
			<path class="st8" d="M339.96,84.28l15.35-19.85c0.46-0.59,1.4-0.14,1.22,0.59l-11.35,46.35l-15.42,16.07l1.8-32.97L339.96,84.28z
				"/>
		</g>
		<g>
			<polygon class="st2" points="321.19,133.52 306.22,159.87 306.22,172.04 316.6,176.63 331.75,135.59 327.37,131.73 			"/>
		</g>
		<g>
			<path class="st6" d="M267.87,65.58c0.14-0.43,0.74-0.42,0.87,0.01c0.81,2.68,1.38,5.46,1.94,8.2c0.2,0.99,0.72,2.36,0.62,3.37
				c-0.16,1.62-1.84,3.39-2.73,4.79c-0.84,1.32-3.07-4.11-3.08-5.22C265.5,75.33,267.07,68,267.87,65.58z"/>
		</g>
		<g>
			<path class="st5" d="M266.24,12.13c-0.54-2.03-0.7-3.8-1-5.85c-0.41-2.87-1.82-5.67-4.92-6.23c-1.65-0.3-3.33,0.13-4.91,0.54
				c-2.04,0.53-4.45,0.8-6.38,1.64c-2.84,1.25-3.54,4.05-4.51,6.72c-1.03,2.84-3.67,5.67-1.44,8.66c0.69,0.94,1.7,1.53,2.82,1.78
				c1.42,0.32,2.69-0.29,4.01-0.49c0.75,0.58,1.53,0.69,2.58,0.71c1.6,0.04,3.23-0.19,4.85-0.08c0.63,0.05,1.2,0.16,1.84,0.15
				c2.82-0.06,6.35-1.77,7.24-4.65C266.8,13.86,266.53,13.22,266.24,12.13z"/>
		</g>
		<g>
			<path class="st2" d="M183.71,197.6l-13.72,30.82l-0.54,1.2l-2.12,4.78l-0.54,1.21l-0.38,0.86l-0.49,1.11l-0.56,1.26l-0.5,1.13
				l-2.45,2.16l-1.33,1.17l-4.9,4.3l-2.73-8.49l0.3-1.35l0.41-1.88l0.06-0.29c0.01-0.02,0.01-0.05,0.01-0.05l0.67-3.08l0.26-1.21
				l0.85-3.88l0.26-1.2l7.69-35.16L183.71,197.6z"/>
		</g>
		<g>
			<path class="st9" d="M228.54,76.77c0,0-17.29,1.97-22.52,2.65c-3.98,0.52-7.64,0.17-11.39,1.7c-3.93,1.61-6.57,4.57-8.97,7.97
				c-2.63,3.72-5.2,7.61-6.31,12.08c-2.3,9.21-1.57,20.77-4.59,29.86c-1.41,4.24-4.12,7.99-4.41,12.57
				c-0.34,5.46,1.46,10.28-0.23,15.72c-1.76,5.68-3.92,11.22-5.55,16.96c-1.63,5.75-2.99,11.56-4.13,17.42
				c-0.06,0.33,0.09,0.63,0.42,0.74c5.25,1.71,10.49,3.41,15.74,5.12c2.32,0.75,4.67,1.77,7.05,2.3c1.05,0.23,1.72,0.31,2.55-0.47
				c1.44-1.34,2.4-3.89,3.25-5.61c1.02-2.06,1.91-4.19,2.73-6.34c1.78-4.66,3.2-9.45,4.69-14.2c3.35-10.73,6.71-21.45,10.06-32.18
				c3.03-9.68,6.54-19.47,5.38-29.77C211.72,108.2,228.54,76.77,228.54,76.77z"/>
		</g>
		<g>
			<path class="st9" d="M283.62,134.5c-0.32-10.33-2.48-20.61-2.62-30.9c0-0.11,0.02-0.2,0.06-0.27
				c-2.85-6.33-9.14-10.8-15.07-14.14c-10.21-5.74-20.99-12.87-32.88-14.06c-0.49-0.05-0.66,0.43-0.52,0.8
				c-6.86,1.43-13.73,2.84-20.6,4.23c-3.47,0.7-6.94,1.4-10.41,2.08c-2.14,0.43-5.61,0.37-7.38,1.73c-1.42,1.09-0.88,2.98-0.69,4.52
				c0.42,3.52,0.87,7.03,1.33,10.54c0.3,2.28,0.62,4.56,0.94,6.84c-0.78,4.3-2.03,8.53-2.66,12.85c-0.79,5.47,0.95,8.87,2.6,13.71
				c2.48,7.32,4.53,14.91,6.8,22.27c2.35,7.63,6.43,14.55,8.7,22.23c2.36,8,3.15,16.18,3.31,24.5c8.4,0.36,22.61-0.09,29.37,1.49
				c3.55,0.83,7.02,1.58,10.69,1.57c1.34,0,3.46-0.06,5.88-0.12c4.95-3.43,9.39-7.63,12.66-12.69c4.95-7.65,6.67-17.48,8.69-26.24
				c1.19-5.16,2.13-10.4,2.4-15.7C284.47,144.65,283.78,139.59,283.62,134.5z"/>
		</g>
		<g>
			<path class="st2" d="M255.73,88.86c-0.05,0.1,0.01,2.68-0.08,6.27c-0.01,0.5-0.04,1.03-0.06,1.57c0,0.23-0.01,0.45-0.02,0.69
				c-0.06,1.1-0.12,2.25-0.22,3.42c-0.32,4.37-1.86,17.46-3.11,20.82c-3.04,8.18-4.24,18.18-4.24,18.18s-9.38-15.38-11.87-25.35
				c-0.53-2.1-1.51-4.37-2.75-6.68c-0.84-1.56-1.8-3.14-2.8-4.69c-1.35-2.11-2.81-4.17-4.23-6.1c-0.5-0.69-1.01-1.38-1.48-2.04
				c-2.72-3.69-4.98-6.66-5.52-8.13c-1.4-3.78,8.02-7.21,8.02-7.21l20.91,4.22C248.27,83.84,255.86,88.63,255.73,88.86z"/>
		</g>
		<g>
			<path class="st2" d="M258.4,69.05c0,0-0.86,2.45-2.07,5.75c-0.6,1.63-1.27,3.46-1.99,5.28c-0.01,0.05-0.04,0.08-0.05,0.13
				c-1.22,3.2-2.51,6.42-3.57,8.65c-0.45,0.98-0.86,1.76-1.2,2.26c-2.46,3.7-15.48,2.81-15.48,2.81s-8.13-10.69-6.68-14.31
				l8.45-20.49L258.4,69.05z"/>
		</g>
		<g>
			<path class="st10" d="M252.23,77.57c-3.39-4.26-11.55-10.23-15.07-12.3c0.1,0.06-0.16,2.49-0.16,2.78
				c0.01,0.97,0.08,1.93,0.21,2.89c0.26,1.94,0.6,4.08,1.65,5.77c1.01,1.63,2.13,3.16,2.95,4.91c1.33,2.81,3.6,4.37,6.26,5.88
				c0.72,0.41,1.64,0.91,2.63,1.37c1.05-2.23,2.35-5.45,3.57-8.65c0.01-0.05,0.04-0.08,0.05-0.13
				C253.4,78.93,252.58,78.01,252.23,77.57z"/>
		</g>
		<g>
			<path class="st2" d="M275.29,37.72c-0.69-3.21-3.6-4.02-5.81-6.44c-0.43-0.48-0.9-0.92-1.39-1.33c-2.22-1.83-5.26-1.31-7.99-2.24
				c-3.76-1.28-7.77-2.14-11.69-1.53c-6.85,1.05-13.54,4.79-14.2,14.08c-0.9,12.68,0.6,21.65,5.27,29.73
				c2.73,4.72,9.18,10.76,14.71,11.95c6.25,1.33,10.12-1.58,13.33-6.54c3.96-6.13,6.6-15.22,7.63-21.28
				c0.22-1.25,0.4-2.41,0.55-3.52c0.13-0.99,0.24-1.96,0.31-2.9C276.27,44.5,276.11,41.5,275.29,37.72z"/>
		</g>
		<g>
			<path class="st11" d="M254.3,51.16c0.55-0.58,1.2-0.81,1.75-0.27c0.21,0.2,0.27,0.46,0.3,0.71c0.16,1.22-0.79,4.19-2.37,3.77
				C252.5,54.98,253.18,52.35,254.3,51.16z"/>
		</g>
		<g>
			<path class="st11" d="M270.65,54.5c0.45-0.56,1.07-0.92,1.72-0.29c0.21,0.2,0.27,0.46,0.3,0.71c0.16,1.22-0.79,4.19-2.37,3.77
				c-1.68-0.45-0.54-2.69-0.04-3.62C270.38,54.88,270.5,54.68,270.65,54.5z"/>
		</g>
		<g>
			<path class="st10" d="M266.79,61.94c-0.24-1.7-0.55-3.38-0.91-5.05c-0.16-0.75-1.32-0.43-1.15,0.32c0.36,1.65,0.67,3.3,0.9,4.97
				c0.12,0.91,0.42,1.76-0.05,2.55c-0.58,0.96-1.83,1.2-2.88,1.29c-0.76,0.07-0.77,1.27,0,1.2c1.44-0.13,3.76-0.67,4.34-2.24
				C267.34,64.13,266.91,62.79,266.79,61.94z"/>
		</g>
		<g>
			<path class="st10" d="M265.02,70.47c-3.21,0.06-10.53-2.94-10.8-3.17c-0.41-0.34-0.45,2.02,2.34,4.21
				c2.43,1.91,7.26,1.22,8.52-0.26C265.42,70.85,265.86,70.46,265.02,70.47z"/>
		</g>
		<g>
			<path class="st5" d="M261.43,45.69c-0.48-1.24-2.27-1.73-3.46-1.95c-2.42-0.46-5.63-0.77-7.77,0.71
				c-0.47,0.32-0.33,1.12,0.3,1.12c1.59-0.02,3.19,0.14,4.73,0.53c0.8,0.2,1.62,0.45,2.37,0.8c0.69,0.32,1.34,0.71,2.13,0.76
				C260.82,47.71,261.87,46.83,261.43,45.69z"/>
		</g>
		<g>
			<path class="st5" d="M276.02,47.69c-0.07,0.93-0.18,1.9-0.31,2.9c-0.6-0.12-1.21-0.22-1.81-0.25c-0.75-0.05-1.52-0.01-2.23-0.34
				c-0.99-0.46-1.51-1.72-0.57-2.53c1.01-0.86,2.83-0.46,3.96-0.1C275.38,47.48,275.69,47.58,276.02,47.69z"/>
		</g>
		<g>
			<path class="st5" d="M266.17,27.04c-3.41-1.35-6.92-2.56-10.61-2.73c-2.33-0.11-4.36-0.03-6.69-0.49
				c-1.45-0.29-2.68-0.5-4.15-0.19c-6.36,1.35-10.65,7.45-11.66,13.46c-1.36,8.04-0.25,23.73-0.05,24.13
				c0.2,0.4,1.46,1.24,1.46,1.24s1.92-4.62,2.48-6.34c0.09-0.26,0.13-0.53,0.18-0.79c-0.65-3.43-0.93-7.24,0.87-10.22
				c1.2-1.98,4.01-2.75,5.49-0.93c0.05-0.04,0.1-0.06,0.16-0.1c1.15-0.91,0.95-2.21,1.57-3.37c0.54-1.01,1.92-1.81,2.91-2.32
				c1.14-0.58,3.19-0.66,4.14-1.61c0.65-0.65,0.73-1.71,1.15-2.51c0.96-1.84,2.52-3.14,4.4-3.9c0.14,0.05,0.31,0.05,0.48-0.04
				c2.82-1.52,6.86,2.98,9.23,3.93c0.74,0.3,0.95,0.25,1.85,0.28c1.93,0.05,3.36-0.19,4.47,1.67c0.65,1.08,1.84,3.48,2.02,4.72
				c0.08,0.58,0.5-0.98,0.53-1.3C277.09,32.57,271.96,29.34,266.17,27.04z"/>
		</g>
		<g>
			<path class="st9" d="M319.15,173.24c-2.6-6.83-8.67-12.7-12.46-18.92c-0.22-0.36-0.64-0.36-0.94-0.12
				c-1.33,1.06-0.83,3.57-1.95,4.8c-2.08-4.7-2.79-10-4.91-14.7c-2.92-6.48-7.16-12.22-8.73-19.27c-1.38-6.18-1.41-12.7-4.18-18.51
				c-2.43-5.1-6.62-9.1-11.68-11.54c-0.69-0.33-1.3,0.7-0.6,1.03c0.47,0.23,0.91,0.49,1.37,0.74c-0.39,0.21-0.45,0.93,0.1,1.13
				c0.52,0.19,1.04,0.37,1.56,0.56c-3.57,12.36-8.55,25.16-8.91,38.11c-0.18,6.5,0.31,13.04,0.57,19.53
				c0.21,5.22,0.02,10.7,1.4,15.79c1.19,4.38,3.52,6.88,7.35,9.12c1.64,0.96,2.18,1.97,3.16,3.49c0.35,0.54,0.54,0.94,1.09,1.32
				c1.77,1.22,4.31,0.81,6.22,1.93c3.96,2.32,6.64,6.32,11.68,6.15c4.92-0.16,9.56-2.38,12.98-5.6c2.27-2.14,4.35-7.72,6.18-10.27
				C319.58,176.44,319.86,175.1,319.15,173.24z"/>
		</g>
		<g>
			<path class="st2" d="M154.22,235.53c0,0,0,0.02-0.01,0.05c-0.02,0.05-0.05,0.13-0.08,0.24c-0.11,0.3-0.3,0.83-0.62,1.47
				c-0.79,1.59-2.35,3.94-5.1,5.54c-3.47,2.02-10.37,4.72-13.96,6.53c-1.92,0.97-4,1.89-3.47,4.36c-0.32,0.2-0.63,0.41-0.96,0.61
				c-0.95,0.65-2.51,1.39-2.96,2.56c-0.24,0.61-0.19,2.5,0.01,3.08c0.34,0.96,1.03,1.32,1.98,1.56c0.73,0.18,1.44,0.13,2.13-0.01
				c1.14,1.53,3.92,0.54,5.54,0.16c2.92-0.69,5.71-1.71,8.47-2.85c1.9,3.87,9.03-0.83,11.28-2.18c2.25-1.34,5.05-2.22,6.75-4.27
				c1.51-1.83,1.53-4.43,1.53-6.68c0-0.89,0.11-1.98,0.3-3.16c0.06-0.38,0.13-0.78,0.2-1.19c0.16-0.85,0.35-1.71,0.55-2.55
				c0.1-0.42,0.2-0.83,0.31-1.23c0.1-0.37,0.2-0.74,0.3-1.09C166.41,236.05,154.22,235.53,154.22,235.53z"/>
		</g>
		<g>
			<path class="st10" d="M139.01,249.09c-2.39,1.12-4.74,2.31-7.06,3.58c-0.68,0.37-0.07,1.4,0.6,1.03
				c2.32-1.27,4.67-2.46,7.06-3.58C140.31,249.8,139.7,248.77,139.01,249.09z"/>
		</g>
		<g>
			<path class="st10" d="M142.02,250.88c-4.15,2.82-8.76,4.95-13.2,7.27c-0.68,0.36-0.08,1.39,0.6,1.03
				c4.44-2.32,9.05-4.45,13.2-7.27C143.26,251.49,142.66,250.45,142.02,250.88z"/>
		</g>
		<g>
			<path class="st10" d="M143.71,255.05c-3.53,1.43-7.01,2.95-10.46,4.56c-0.7,0.33-0.09,1.36,0.6,1.03
				c3.35-1.57,6.74-3.05,10.18-4.44C144.73,255.92,144.42,254.76,143.71,255.05z"/>
		</g>
		<g>
			<path class="st10" d="M153.76,252.91c-2.15,1.15-4.47,1.97-6.5,3.34c-0.63,0.43-0.04,1.47,0.6,1.03c2.03-1.37,4.35-2.19,6.5-3.34
				C155.05,253.58,154.44,252.55,153.76,252.91z"/>
		</g>
		<g>
			<g>
				<polygon class="st2" points="280.11,448.38 297.65,493.52 306.35,499.11 309.05,487.87 300.05,442.38 				"/>
			</g>
			<g>
				<path class="st2" d="M309.05,487.87c0,0,6.49,10.19,10.08,14.98c1.48,1.98,1.76,2.07,3.31,4c1.12,1.38,2.61,2.68,3.27,4.39
					c0.9,2.35-1.07,3.2-2.96,3.87c-1.51,0.53-3.19,0.93-4.81,0.85c-2.99-0.15-7.18-6.14-13.47-9.58c-6.29-3.44-6.74-5.09-7.63-9.43
					c-0.9-4.34-2.26-12.27-2.26-12.27L309.05,487.87z"/>
			</g>
			<g>
				<path class="st3" d="M296.78,496.67c0,0,7.34,6.36,10.24,8.56c2.89,2.2,7.78,3.89,11.68,3.29c3.89-0.6,0.44-5.68,0.44-5.68
					s6.75,6.28,8.74,9.97c2,3.69,3.49,6.99,2.59,7.58s-10.48-1-15.27-3.89c-4.79-2.89-15.42-10.78-16.81-13.47
					C296.99,500.34,296.78,496.67,296.78,496.67z"/>
			</g>
		</g>
		<g>
			<g>
				<polygon class="st2" points="254.5,399.24 234.28,443.24 236.32,453.38 246.27,447.49 272.69,409.39 				"/>
			</g>
			<g>
				<path class="st2" d="M246.27,447.49c0,0-2.8,11.75-3.74,17.67c-0.39,2.44-0.26,2.71-0.56,5.16c-0.22,1.76-0.11,3.74-0.88,5.41
					c-1.06,2.28-3.04,1.46-4.84,0.57c-1.44-0.72-2.89-1.65-3.96-2.86c-1.98-2.25-0.59-9.43-2.49-16.34
					c-1.9-6.91-1.03-8.38,1.46-12.04c2.49-3.67,7.24-10.16,7.24-10.16L246.27,447.49z"/>
			</g>
			<g>
				<path class="st3" d="M231.41,444.81c0,0,0.54,9.7,0.97,13.31c0.44,3.61,2.62,8.3,5.76,10.68c3.14,2.38,4.38-3.63,4.38-3.63
					s0.19,9.21-1.08,13.21c-1.26,4-2.59,7.37-3.64,7.14c-1.06-0.23-6.57-8.22-7.83-13.67c-1.25-5.45-2.99-18.57-2.02-21.45
					C228.92,447.51,231.41,444.81,231.41,444.81z"/>
			</g>
		</g>
		<g>
			<path class="st12" d="M307.02,473.4c0,0-6.44,2.35-13.29,2.77c-0.41,0.02-0.8,0.05-1.21,0.06c-4.08,0.12-8.18-0.53-11.04-2.83
				c-7.99-6.38-21.48-5.58-21.72-6.38c-0.24-0.8-7.82-23.55-10.21-35.53c-2.39-11.97-9.11-13.96-10.94-35.12
				c-1.83-21.16-29.97-117.84-33.96-137.1c-3.99-19.26,7.39-57.25,7.39-57.25l0.17-9.14l0.13-7.36l0.07-3.89
				c0,0,16.91,0.3,33.28,0.69c16.37,0.4,33.41-4.29,33.41-4.29l1.38,4.16l2.21,6.68l11.5,34.65l-23.55,60.68
				c0,0,6.07,45.91,11.65,66.27C287.86,370.82,307.02,473.4,307.02,473.4z"/>
		</g>
		<g>
			<path class="st12" d="M293.64,221.93c0,0,34.43,101.16,38.27,113.36c5.79,18.36-20.2,43.31-29.78,53.19
				c-9.58,9.88-51.39,60.17-51.39,60.17s-9.33-9.98-13.28-25.55c-1.61-6.35-6.49-15.86-2.35-20.76c7.43-8.78,26.7-36.74,27.2-42.31
				c1.32-14.67-15.77-85.82-12.77-95.7C252.53,254.47,293.64,221.93,293.64,221.93z"/>
		</g>
		<g>
			<path class="st4" d="M282.67,188.87c-3.47,1.25-7.24,1.9-10.68,2.61c-7.71,1.57-15.58,2.47-23.43,2.99
				c-12.63,0.85-24.46,1.01-36.37-1.59l0.13-7.36c10.38,2.47,20.56,2.61,31.7,2.04c7.62-0.38,15.22-1.03,22.73-2.36
				c3.93-0.71,9.36-1.27,13.71-3.01L282.67,188.87z"/>
		</g>
		<g>
			
				<rect x="222.44" y="183.96" transform="matrix(0.9988 -0.0482 0.0482 0.9988 -8.9558 10.9655)" class="st12" width="1.2" height="14.69"/>
		</g>
		<g>
			
				<rect x="275.58" y="181.47" transform="matrix(0.9845 -0.1752 0.1752 0.9845 -28.7196 51.3023)" class="st12" width="1.2" height="13.67"/>
		</g>
		<g>
			<g>
				<path class="st2" d="M254.01,198.16c-4.16,0-7.73-2.64-8.31-6.38c-0.64-4.19,2.72-8.19,7.49-8.93c2.28-0.35,4.55,0.09,6.39,1.23
					c1.9,1.18,3.12,2.97,3.44,5.03l0,0c0.64,4.19-2.72,8.19-7.49,8.93C255.02,198.13,254.51,198.16,254.01,198.16z M254.73,185.13
					c-0.39,0-0.78,0.03-1.17,0.09c-3.47,0.53-5.93,3.31-5.49,6.2c0.44,2.88,3.63,4.79,7.1,4.26c3.47-0.53,5.93-3.31,5.49-6.2
					c-0.21-1.36-1.04-2.56-2.34-3.36C257.27,185.47,256.03,185.13,254.73,185.13z"/>
			</g>
		</g>
		<g>
			<path class="st4" d="M238.04,53.71c0.14-0.43,0.74-0.42,0.87,0.01c0.81,2.68,1.38,5.46,1.94,8.2c0.2,0.99,0.72,2.36,0.62,3.37
				c-0.16,1.62-1.84,3.39-2.73,4.79c-0.84,1.32-3.07-4.11-3.08-5.22C235.67,63.45,237.24,56.13,238.04,53.71z"/>
		</g>
		<g>
			<path class="st11" d="M261.07,16.71c-5.13-0.29-10.43-1.02-15.41,0.6c-0.73,0.24-0.42,1.39,0.32,1.15
				c4.86-1.58,10.09-0.84,15.09-0.55C261.84,17.95,261.83,16.75,261.07,16.71z"/>
		</g>
		<g>
			<path class="st11" d="M261.08,2.55c-0.16,4.44-1.56,8.49-4.14,12.11c-0.45,0.63,0.59,1.23,1.03,0.6c2.7-3.78,4.14-8.08,4.3-12.71
				C262.3,1.78,261.1,1.78,261.08,2.55z"/>
		</g>
		<g>
			<path class="st11" d="M258.2,2.25c0.09,3.28-0.51,6.43-1.85,9.42c-0.31,0.7,0.72,1.31,1.03,0.6c1.43-3.19,2.11-6.53,2.02-10.03
				C259.38,1.48,258.18,1.48,258.2,2.25z"/>
		</g>
		<g>
			<path class="st11" d="M241.78,37.78c-2.38-4.71-4.44-10.15-1.26-15.01c0.42-0.65-0.61-1.25-1.03-0.6
				c-3.42,5.23-1.31,11.13,1.26,16.22C241.1,39.08,242.13,38.47,241.78,37.78z"/>
		</g>
		<g>
			<path class="st11" d="M244.51,35.78c-1.37-2.19-2.37-4.52-3.04-7.02c-0.2-0.74-1.35-0.43-1.15,0.32
				c0.69,2.59,1.74,5.03,3.16,7.31C243.88,37.04,244.92,36.44,244.51,35.78z"/>
		</g>
		<g>
			<path class="st11" d="M270.42,30.29c-0.63-2.49-1.65-4.84-3.16-6.92c-1.08-1.49-2.35-3.31-4.39-2.94
				c-0.76,0.14-0.44,1.29,0.32,1.15c1.78-0.33,3.47,2.92,4.17,4.15c0.87,1.53,1.47,3.16,1.9,4.87
				C269.45,31.35,270.61,31.04,270.42,30.29z"/>
		</g>
		<g>
			<path class="st13" d="M292.54,393.22c-8.59-40.16-17.36-80.3-25.44-120.57c0.11-0.04,0.2-0.12,0.28-0.25
				c3.97-7.39,7.93-14.79,11.9-22.18c0.36-0.68-0.67-1.28-1.03-0.6c-3.82,7.13-7.65,14.25-11.47,21.38
				c-0.68-3.42-1.37-6.84-2.05-10.26c-0.15-0.76-1.3-0.44-1.15,0.32c8.72,44.27,18.38,88.36,27.82,132.48
				C291.55,394.29,292.7,393.97,292.54,393.22z"/>
		</g>
		<g>
			<path class="st13" d="M252.2,442.03c-1.31-3.92-2.61-7.84-3.92-11.77c-1.32-3.97-1.69-7.6-1.83-11.78
				c-0.25-7.26-2.88-13.99-5.6-20.63c-0.29-0.7-1.45-0.4-1.15,0.32c3.04,7.42,5.42,14.45,5.6,22.54c0.17,7.49,3.41,14.61,5.76,21.64
				C251.29,443.07,252.45,442.76,252.2,442.03z"/>
		</g>
		<g>
			<path class="st13" d="M293.72,476.16c-0.41,0.02-0.8,0.05-1.21,0.06c-3.53-21.3-7.66-42.51-12.38-63.58
				c-0.18-0.74,0.98-1.07,1.15-0.31C286.01,433.49,290.17,454.76,293.72,476.16z"/>
		</g>
		<g>
			<path class="st2" d="M331.75,135.59c0,0,1.67-3.06,2.36-4.39c1.35-2.61,3.72-4.78,5.72-6.83c1.68-1.71,2.21-3.19,2.76-5.52
				c0.42-1.79,1.95-10.08,0.06-10.55c-1.33-0.33-1.83,1.37-2.1,2.37c-0.24,0.89-0.26,1.84-0.35,2.75c-0.12,1.09-0.34,2-0.69,2.82
				c0.17-1.73,0.21-3.46,0.12-5.21c-0.07-1.48,0.18-4.11-1.16-5.17c-1.47-1.18-2.33-0.17-2.86,1.33c-0.32-0.81-0.8-1.33-1.53-1.31
				c-1.55,0.04-1.76,2.9-1.98,3.95c-0.15,0.74-0.27,1.49-0.37,2.24c-2.06,0.19-1.9,2.46-2.13,4.14c-0.24,1.81-0.74,5.48-0.74,5.48
				s-3.95,2.08-5.1,3.55c-2.07,2.66-2.61,5.85-2.66,9.14C321.1,134.7,331.13,135.96,331.75,135.59L331.75,135.59z"/>
		</g>
		<g>
			<path class="st10" d="M332.92,113.62c-0.04-0.77-1.24-0.77-1.2,0c0.1,1.91,0.08,3.82-0.04,5.73c-0.05,0.77,1.15,0.77,1.2,0
				C333,117.44,333.02,115.53,332.92,113.62z"/>
		</g>
		<g>
			<path class="st10" d="M336.64,108.58c-0.03-0.77-1.23-0.77-1.2,0c0.12,3.19,0.12,6.39,0.02,9.58c-0.02,0.77,1.17,0.77,1.2,0
				C336.76,114.96,336.76,111.77,336.64,108.58z"/>
		</g>
		<g>
			<path class="st10" d="M338.66,117.56c-0.1,0.96-0.47,1.81-1.04,2.58c-0.46,0.62,0.58,1.21,1.03,0.6
				c0.71-0.94,1.09-2.02,1.21-3.18C339.93,116.79,338.73,116.8,338.66,117.56z"/>
		</g>
		<g>
			<path class="st14" d="M336.73,104.78c-0.04,0-0.07,0-0.11-0.01c-0.33-0.06-0.54-0.37-0.48-0.7c0.93-5.1,3.37-18.43,3.43-18.96
				c0-0.33,0.27-0.57,0.6-0.57c0.33,0,0.6,0.3,0.6,0.63c0,0.07,0,0.28-3.45,19.12C337.27,104.58,337.02,104.78,336.73,104.78z"/>
		</g>
		<g>
			<polygon class="st4" points="297.96,116.98 298.83,113.37 313.75,117.41 312.85,120.99 			"/>
		</g>
		<g>
			<path class="st4" d="M334.11,87.42c-0.05,0-0.09-0.01-0.14-0.02l-9.68-2.35c-0.32-0.08-0.52-0.4-0.44-0.72
				c0.08-0.32,0.4-0.51,0.72-0.44l9.68,2.35c0.32,0.08,0.52,0.4,0.44,0.72C334.62,87.24,334.38,87.42,334.11,87.42z"/>
		</g>
		<g>
			<path class="st4" d="M333.46,90.23c-0.05,0-0.09-0.01-0.14-0.02l-9.68-2.34c-0.32-0.08-0.52-0.4-0.44-0.72
				c0.08-0.32,0.4-0.51,0.72-0.44l9.68,2.34c0.32,0.08,0.52,0.4,0.44,0.72C333.97,90.04,333.73,90.23,333.46,90.23z"/>
		</g>
		<g>
			<path class="st4" d="M255.56,97.4c-0.06,1.1-0.12,2.25-0.22,3.42c-0.73,1.59-1.47,3.17-2.2,4.75c-0.74,1.6-1.47,3.2-2.2,4.8
				c-0.63,1.39-1.16,3.4-2.28,4.5c-0.93,0.93-2.24,1.1-3.51,0.99c-4.53-0.41-8.57-4.68-11.78-8.08c-0.84-1.56-1.8-3.14-2.8-4.69
				c0.12,0.13,0.24,0.26,0.36,0.4c3.22,3.46,6.85,7.58,10.96,9.97c1.26,0.74,3.33,1.7,4.86,1.16c1.63-0.59,2.04-2.41,2.67-3.8
				c1.14-2.49,2.28-4.97,3.41-7.46C253.74,101.39,254.7,99.41,255.56,97.4z"/>
		</g>
		<g>
			<path class="st4" d="M246.88,128.48c-0.07,0-0.15-0.01-0.21-0.04c-0.79-0.29-3.71-7.54-3.73-7.61c-0.27-0.81,0.87-3.53,1.87-5.68
				c0.08-0.17,0.24-0.29,0.42-0.33c0.19-0.04,0.38,0.02,0.52,0.14c0.6,0.54,3.58,3.29,3.69,4.95c0.07,1.11-1.53,8.06-2.24,8.49
				C247.11,128.46,246.99,128.48,246.88,128.48z M245.55,116.42c-0.79,1.77-1.51,3.66-1.47,4.09c0.21,0.61,1.81,4.28,2.69,6.04
				c0.58-1.84,1.54-5.57,1.47-6.56C248.19,119.25,246.79,117.62,245.55,116.42z"/>
		</g>
		<g>
			<path class="st4" d="M240.46,115.51c-0.06,0-0.12-0.01-0.18-0.03c-0.31-0.1-0.49-0.44-0.39-0.75l0.75-2.34
				c0.1-0.31,0.43-0.49,0.75-0.39c0.31,0.1,0.49,0.44,0.39,0.75l-0.75,2.34C240.95,115.35,240.71,115.51,240.46,115.51z"/>
		</g>
		<g>
			<path class="st4" d="M250.49,113.37c-0.11,0-0.23-0.03-0.33-0.1l-1.64-1.1c-0.28-0.18-0.35-0.56-0.17-0.83
				c0.18-0.28,0.56-0.35,0.83-0.17l1.64,1.1c0.28,0.18,0.35,0.56,0.17,0.83C250.87,113.27,250.68,113.37,250.49,113.37z"/>
		</g>
		<g>
			<path class="st4" d="M255.65,95.13c-0.01,0.5-0.04,1.03-0.06,1.57c-0.84,0.67-1.7,1.33-2.59,1.96c-2.75,2-6.21,5.21-9.75,5.57
				c-3.04,0.31-6.3-1.59-8.91-2.95c-2.69-1.4-5.29-2.95-8-4.29c-0.5-0.69-1.01-1.38-1.48-2.04c2.36,1.05,4.62,2.29,6.9,3.56
				c2.95,1.63,6.24,3.8,9.59,4.41c3.94,0.71,8.06-3.13,11.05-5.29C253.51,96.83,254.6,95.99,255.65,95.13z"/>
		</g>
		<g>
			<path class="st4" d="M166.11,237.56c-0.11,0.41-0.22,0.81-0.31,1.23c-0.16,0.01-0.3,0.04-0.44,0.05
				c-3.47,0.38-6.99,0.24-10.07-0.9c1.64,2.57,3.93,4.45,7.11,4.18c0.63-0.06,1.29-0.2,1.99-0.44c0.3-0.1,0.57-0.22,0.86-0.34
				c-0.07,0.41-0.14,0.8-0.2,1.19c-1.25,0.53-2.54,0.86-3.98,0.77c-0.29-0.02-0.59-0.06-0.9-0.12c-3.17-0.62-5.05-2.81-6.43-5.42
				c-0.08-0.14-0.17-0.3-0.24-0.46c0.32-0.65,0.51-1.17,0.62-1.47c0,0.02,0.01,0.04,0.02,0.05c0.05,0.12,0.1,0.23,0.16,0.34
				c3.39,1.75,7.56,1.93,11.62,1.38C165.99,237.57,166.05,237.57,166.11,237.56z"/>
		</g>
		<g>
			<path class="st4" d="M167.33,234.4l-0.54,1.21c-4.18-0.04-8.25-1.1-11.9-3.15l0.26-1.21
				C158.87,233.39,163.06,234.48,167.33,234.4z"/>
		</g>
		<g>
			<path class="st4" d="M169.99,228.42l-0.54,1.2c-2.02,0.05-4.05-0.08-6.07-0.4c-2.29-0.35-5.02-0.83-7.38-1.86l0.26-1.2
				c2.47,1.16,5.46,1.63,7.89,1.95C166.11,228.39,168.05,228.48,169.99,228.42z"/>
		</g>
		<g>
			<path class="st4" d="M160.2,234.27c-1.44,0-2.61-1.47-2.61-3.27c0-1.81,1.17-3.28,2.61-3.28c1.44,0,2.61,1.47,2.61,3.28
				C162.81,232.8,161.64,234.27,160.2,234.27z M160.2,228.92c-0.76,0-1.41,0.95-1.41,2.08c0,1.13,0.65,2.08,1.41,2.08
				c0.76,0,1.41-0.95,1.41-2.08C161.61,229.87,160.97,228.92,160.2,228.92z"/>
		</g>
		<g>
			<path class="st15" d="M254.59,162.75c-1.47-3.21-2.88-6.32-3.61-9.8c-0.77-3.69-1.02-7.47-1.27-11.23c-0.05-0.76-1.25-0.77-1.2,0
				c0.37,5.64,0.75,11.43,2.82,16.75c1,2.58,2.44,4.97,3.32,7.6c1.23,3.65,0.8,7.4-0.96,10.8c-0.35,0.68,0.68,1.29,1.03,0.6
				C257.29,172.56,256.85,167.69,254.59,162.75z"/>
		</g>
		<g>
			<path class="st15" d="M199.92,127.86c-4.59-8.05-9.72-15.85-14.58-23.74c-0.4-0.66-1.44-0.05-1.03,0.6
				c4.52,7.35,9.07,14.68,13.56,22.05c2.31,3.8,3.42,7.25,3.56,11.72c0.14,4.27-0.05,8.55-0.44,12.8c-0.07,0.77,1.13,0.76,1.2,0
				C202.89,143.63,203.88,134.81,199.92,127.86z"/>
		</g>
		<g>
			<path class="st15" d="M247.08,138.97c-6.49-6.73-13.09-13.51-19.04-20.73c-2.17-2.63-3.07-6.56-5.8-8.63
				c-2.7-2.05-6.51-2.68-9.88-2.89c1.57-4.28,2.75-8.68,3.39-13.2c0.3-2.06,0.35-4.2,0.91-6.21c0.77-2.79,2.55-4.5,4.71-6.27
				c0.6-0.49-0.26-1.33-0.85-0.85c-3.55,2.92-5.02,5.62-5.57,10.19c-0.7,5.77-1.92,11.29-3.99,16.73c-0.15,0.38,0.22,0.74,0.58,0.76
				c4.42,0.2,9.82,1.06,12.04,5.36c1.6,3.12,3.36,5.6,5.68,8.23c5.52,6.25,11.19,12.36,16.97,18.35
				C246.77,140.37,247.62,139.53,247.08,138.97z"/>
		</g>
		<g>
			<path class="st15" d="M269.43,103.16c-3.55-6.97-8.22-13.19-13.93-18.53c-0.56-0.53-1.41,0.32-0.85,0.85
				c5.49,5.14,9.99,11.09,13.45,17.74c-6.1,3.21-6.98,10.51-9,16.49c-1.38,4.09-3.43,7.79-5.84,11.34
				c-1.99,2.92-3.89,5.74-4.37,9.32c-0.1,0.75,1.05,1.08,1.15,0.32c0.49-3.62,2.51-6.47,4.52-9.42c1.81-2.66,3.38-5.44,4.63-8.41
				c2.67-6.41,2.92-15.55,10.03-18.87C269.52,103.84,269.56,103.43,269.43,103.16z"/>
		</g>
		<g>
			<path class="st15" d="M286.81,127.15c-0.1,7.43-0.45,14.68-2.75,21.8c-0.92,2.85-1.65,5.62-1.84,8.63
				c-0.12,2-0.79,6.28-1.06,8.27c-0.39,2.94,0.04,3.11-0.06,6.06c-0.05,1.47-0.58,2.76-1.47,3.92c-0.47,0.61,0.57,1.21,1.03,0.6
				c0.8-1.04,1.35-2.21,1.54-3.51c0.15-1.02-0.02-2.12-0.11-3.17c-0.1-1.19,0.08-2.12,0.39-3.25c0.63-2.26,0.75-4.62,0.84-6.96
				c0.15-4.01,1-7.47,2.19-11.28c2.16-6.86,2.37-13.98,2.47-21.12C288.02,126.38,286.82,126.38,286.81,127.15z"/>
		</g>
		<g>
			<path class="st15" d="M302.32,160.92c-3.71,4.94-4.54,10.44-4.86,16.46c-0.04,0.77,1.16,0.77,1.2,0
				c0.31-5.85,1.09-11.06,4.7-15.85C303.82,160.91,302.78,160.31,302.32,160.92z"/>
		</g>
	</g>
</g>
</svg>
