<?xml version="1.0" encoding="utf-8"?>
<!-- Generator: Adobe Illustrator 25.2.0, SVG Export Plug-In . SVG Version: 6.00 Build 0)  -->
<svg version="1.1" id="레이어_1" xmlns="http://www.w3.org/2000/svg" xmlns:xlink="http://www.w3.org/1999/xlink" x="0px"
	 y="0px" viewBox="0 0 408 476.57" style="enable-background:new 0 0 408 476.57;" xml:space="preserve">
<style type="text/css">
	.st0{fill:#35303A;}
	.st1{fill:#6F5E61;}
	.st2{fill:#FFFFFF;}
	.st3{fill:#8E5750;}
	.st4{fill:#D6A576;}
	.st5{fill:#F8F0EB;}
	.st6{fill:#713831;}
	.st7{fill:#1A161C;}
	.st8{fill:#DFCEC6;}
	.st9{fill:#F1CFB3;}
	.st10{fill:#DB6969;}
	.st11{fill:#AE4847;}
	.st12{fill:#D9AE8A;}
	.st13{fill:#B58251;}
</style>
<g>
	<g>
		<g>
			<g>
				<path class="st0" d="M40.62,275.48c-0.99,0-1.8-0.8-1.8-1.8v-31.63c0-0.99,0.8-1.8,1.8-1.8s1.8,0.8,1.8,1.8v31.63
					C42.41,274.67,41.61,275.48,40.62,275.48z"/>
			</g>
			<g>
				<path class="st0" d="M21.06,431.35c-0.05,0-0.11,0-0.16-0.01c-0.99-0.09-1.72-0.96-1.63-1.95l10.98-122.14
					c0.09-0.99,0.96-1.71,1.95-1.63c0.99,0.09,1.72,0.96,1.63,1.95L22.85,429.71C22.77,430.65,21.98,431.35,21.06,431.35z"/>
			</g>
			<g>
				<path class="st0" d="M43.42,379.26c-0.04,0-0.07,0-0.11,0c-0.99-0.06-1.74-0.91-1.68-1.9l5.49-88.61
					c0.06-0.99,0.91-1.75,1.9-1.68c0.99,0.06,1.74,0.91,1.68,1.9l-5.49,88.61C45.15,378.53,44.36,379.26,43.42,379.26z"/>
			</g>
		</g>
		<g>
			<g>
				<path class="st0" d="M362.57,275.48c-0.99,0-1.8-0.8-1.8-1.8v-31.63c0-0.99,0.8-1.8,1.8-1.8s1.8,0.8,1.8,1.8v31.63
					C364.37,274.67,363.56,275.48,362.57,275.48z"/>
			</g>
			<g>
				<path class="st0" d="M382.13,431.35c-0.92,0-1.7-0.7-1.79-1.64l-10.98-122.14c-0.09-0.99,0.64-1.86,1.63-1.95
					c0.97-0.08,1.86,0.64,1.95,1.63l10.98,122.14c0.09,0.99-0.64,1.86-1.63,1.95C382.24,431.35,382.18,431.35,382.13,431.35z"/>
			</g>
			<g>
				<path class="st0" d="M359.77,379.26c-0.94,0-1.73-0.73-1.79-1.68l-5.49-88.61c-0.06-0.99,0.69-1.84,1.68-1.9
					c1.02-0.06,1.84,0.69,1.9,1.68l5.49,88.61c0.06,0.99-0.69,1.84-1.68,1.9C359.85,379.26,359.81,379.26,359.77,379.26z"/>
			</g>
		</g>
		<g>
			<path class="st1" d="M401.12,310.8H3.7c-1.99,0-3.1-2.26-1.9-3.84l8.74-11.52l0.91-1.2l11.52-15.17l0.91-1.2l7.6-10.02
				c0.45-0.6,1.16-0.95,1.92-0.95h338.02c0.75,0,1.46,0.35,1.9,0.95l7.62,10.02l0.91,1.2l11.52,15.17l0.91,1.2l8.74,11.52
				C404.22,308.54,403.09,310.8,401.12,310.8z"/>
		</g>
		<g>
			<path class="st1" d="M371.16,152.59v95.62c0,1.32-1.08,2.39-2.4,2.39H34.43c-1.32,0-2.4-1.08-2.4-2.39v-95.62
				c0-1.33,1.08-2.39,2.4-2.39h334.33C370.08,150.2,371.16,151.26,371.16,152.59z"/>
		</g>
		<g>
			<g>
				<rect x="32.04" y="173.69" class="st2" width="339.12" height="1.2"/>
			</g>
		</g>
		<g>
			<g>
				<rect x="32.04" y="198.84" class="st2" width="339.12" height="1.2"/>
			</g>
		</g>
		<g>
			<g>
				<rect x="32.04" y="223.98" class="st2" width="339.12" height="1.2"/>
			</g>
		</g>
		<g>
			<g>
				<polygon class="st2" points="381.85,279.07 22.97,279.07 23.88,277.87 380.94,277.87 				"/>
			</g>
		</g>
		<g>
			<g>
				<polygon class="st2" points="394.28,295.44 10.54,295.44 11.45,294.24 393.37,294.24 				"/>
			</g>
		</g>
	</g>
	<g>
		<g>
			<path class="st0" d="M184.29,45.1c-0.1-0.02-0.2-0.04-0.3-0.05c-0.42-7.03-0.75-15.06-5.08-20.41c-1.46-1.8-3.34-3.14-5.37-4.21
				c1.94,0.24,3.84,0.16,5.62-0.91c2.56-1.55,2.49-4.41,0.36-6.29c-0.47-0.42-1-0.77-1.56-1.1c0.77-2.25,0.68-4.73-2.15-5.5
				c-2.73-0.74-5.91,0.99-8.54-0.92c0.07-0.33,0.23-0.62,0.48-0.85c0.17-0.37,0.48-0.66,0.65-1.03c0.33-0.73,0.51-1.05,0.1-1.77
				c-1.5-2.59-7.41,0.09-9.21,0.92c-2.71,1.25-7.21,3.62-8.17,6.86c-0.81,1.13-1.28,2.45-1.15,4.1c0.13,1.74,0.46,3.97,1.76,5.26
				c-0.22,0.18-0.44,0.35-0.66,0.54c-5.79,2.42-10.18,6.94-12.45,12.49c-1.57,1.78-2.75,3.76-3.38,6.25
				c-1.02,4.05-0.6,8.33-0.17,12.42c0.08,0.76,1.28,0.77,1.2,0c-0.36-3.43-0.7-6.92-0.19-10.36c0.23-1.58,0.68-2.99,1.31-4.27
				c-0.43,2.09-0.6,4.27-0.45,6.5c0.02,0.33,0.26,0.51,0.52,0.56c2.26,4.18,11.33,3.7,15.11,3.25c4.93-0.58,9.8-2.89,14.76-2.87
				c5.09,0.01,10.46,1.43,15.52,2.36c0.06,1.07,0.14,2.11,0.23,3.11c0.07,0.76,1.27,0.77,1.2,0c-0.09-0.94-0.16-1.91-0.22-2.91
				C184.75,46.27,185.02,45.22,184.29,45.1z"/>
		</g>
		<g>
			<polygon class="st3" points="117.31,376.13 129.31,418.29 116.36,422.94 95.83,379.96 84.75,355.83 			"/>
		</g>
		<g>
			<polygon class="st3" points="210.81,379.56 204.54,422.94 190.82,421.9 189.64,374.28 189.38,347.73 			"/>
		</g>
		<g>
			<path class="st4" d="M140.86,282.3c0,0-0.01,0-0.04,0.01c-0.14,0.01-0.29,0.04-0.43,0.06c-0.1,0.01-0.2,0.02-0.3,0.05
				c-1.65,0.29-5.71,1.02-9.15,1.88c-0.11,0.02-0.22,0.06-0.34,0.08c-1.59,0.42-3.04,0.86-3.99,1.31c-2.93,1.38-5.95,2.57-9,3.69
				c-0.39,0.14-0.79,0.29-1.19,0.43c-1.65,0.59-3.3,1.16-4.97,1.71c0.65,4.55,0.63,9.11,0.83,13.78c0.1,2.14,0.47,4.17,1.04,6.12
				c0.12,0.43,0.25,0.85,0.39,1.27c2.28,6.89,6.6,12.93,8.08,20.18c0.07,0.4,0.14,0.78,0.22,1.17c0.08,0.56,0.16,1.13,0.2,1.7
				c0.28,3.11,0.11,11.35,1.8,13.96c2.66,4.11,4.38,7.99,5.07,12.88c0.16,1.11,0.29,2.23,0.4,3.34c0.05,0.5,0.1,1.02,0.13,1.52
				c0.35,4.23,0.44,8.51,0.68,12.73c0.18,3.11,0.36,6.23,0.54,9.34c0.07,1.27,0.26,2.66,0.4,4.05c-0.95,0.75-1.9,1.51-2.87,2.24
				c-0.32,0.24-0.63,0.48-0.96,0.72c-1.98,1.46-4.02,2.85-6.18,4.13c-2.75,1.63-6.29,2.97-9.41,3.95c-0.4,0.12-0.78,0.24-1.15,0.35
				c-3.64,1.08-6.48,1.65-6.48,1.65s-5.54-12.3-11.77-25.97c-0.17-0.37-0.35-0.74-0.5-1.11c-6.74-14.79-14.11-30.82-16-34.46
				c-0.36-0.68-0.75-1.48-1.2-2.41c-0.18-0.37-0.37-0.77-0.56-1.17c-3.42-7.28-8.63-19.54-11.38-26.07c-0.17-0.4-0.32-0.75-0.47-1.1
				c-0.12-0.29-0.23-0.55-0.34-0.8c-6.02-14.37-6.06-17.48-9.22-32.73c-0.53-2.56-0.84-4.93-0.92-7.16
				c-0.01-0.41-0.02-0.81-0.02-1.22c0-10.12,4.93-16.93,15.36-23.18c0.77-0.46,1.53-0.91,2.31-1.37h0.01c0.8-0.45,1.6-0.9,2.41-1.35
				c8.71-4.77,17.88-8.61,27.36-11.52c0.1-0.04,0.2-0.06,0.3-0.08c0.66-0.22,1.32-0.41,1.99-0.6c1.75-0.5,3.52-0.98,5.29-1.42
				c-1.11-1.64-2.08-3.44-2.81-5.45c-0.04-0.1-0.07-0.19-0.11-0.29c-0.2-0.59,0.49-0.9,0.91-0.63c0.1,0.06,0.19,0.17,0.24,0.31
				c0.73,2.08,1.74,4.02,2.98,5.81c0.3,0.07,0.49,0.38,0.47,0.67c1.19,1.6,2.6,3.04,4.19,4.29c0.4,0.31,0.8,0.61,1.22,0.9
				c0.05,0.04,0.1,0.06,0.14,0.1c3.47,2.3,7.62,3.27,10.6,6.3c0.08,0.07,0.16,0.14,0.23,0.23c0.66,0.71,1.27,1.47,1.84,2.28
				c1.05,1.5,1.98,3.11,2.84,4.77c0.18,0.36,0.37,0.72,0.55,1.08c0.56,1.11,1.1,2.23,1.64,3.3c2.16,4.29,4.14,8.66,5.96,13.1
				c0.11,0.28,0.29,0.63,0.48,1.03c0.17,0.32,0.35,0.67,0.53,1.03c0.68,1.39,1.38,2.97,1.19,3.88
				C139.66,276.78,140.86,282.3,140.86,282.3z"/>
		</g>
		<g>
			<path class="st4" d="M225.45,281.5c-0.13,2.83-0.28,5.52-0.43,8.13c-0.02,0.43-0.05,0.85-0.08,1.27
				c-0.47,7.69-1.04,14.68-1.7,22.02c-0.04,0.43-0.07,0.85-0.12,1.27c-0.42,4.81-0.89,9.8-1.38,15.23
				c-0.59,6.57-1.22,13.15-1.89,19.71c-0.04,0.43-0.08,0.85-0.13,1.27c-1.01,10.02-2.08,20.03-3.17,30.03h-0.01
				c-0.04,0.4-0.08,0.8-0.12,1.2c-0.02,0.13-0.04,0.26-0.05,0.4c-0.48,4.33-0.96,8.66-1.44,12.99c-0.3,2.67-0.41,5.54-1.03,8.21
				c-2.91,0.87-5.89,1.5-8.96,1.84c-0.4,0.05-0.8,0.1-1.21,0.13c-1.05,0.1-2.11,0.16-3.19,0.18c-4.81,0.12-6.06-0.12-10.86-0.45
				c-1.62-0.12-3.21-0.28-4.77-0.51c-0.43-0.07-0.86-0.14-1.29-0.23c-1.08-0.2-2.14-0.46-3.19-0.78c0.08-1.15,0.31-2.3,0.38-3.44
				c0.17-2.44-0.07-4.89-0.42-7.29c-0.63-4.26-1.92-8.36-2.48-12.5c-0.07-0.39-0.12-0.8-0.16-1.21c-0.26-2.53-0.2-5.09,0.48-7.71
				c1.04-4.01,1.34-7.87,1.57-12.05c0.22-3.93-2.61-7.82-3.54-11.69c0-0.02-0.01-0.04-0.01-0.06c-0.07-0.24-0.11-0.49-0.16-0.73
				c-0.04-0.19-0.06-0.37-0.08-0.56c-0.49-3.53,0.05-7.09,0.25-10.68c0.22-3.48,0.89-14.32,0.61-19.05
				c-0.01-0.13-0.01-0.28-0.04-0.41c-0.02-0.4-0.06-0.8-0.1-1.2c-0.36-3.36-1.22-6.67-2.17-9.91c-0.85-2.89-1.83-5.99-2.69-9.15
				c-0.11-0.42-0.22-0.83-0.32-1.25c-0.81-3.2-1.46-6.47-1.66-9.68c-0.32-5.05,0.44-9.97,3.38-14.26c0.34-0.49,0.69-0.98,1.1-1.45
				c0.08-0.11,0.17-0.22,0.26-0.32c-2.17-5.5-2.11-11.9,0.74-17.14c0.24-0.46,0.5-0.89,0.8-1.32c0.2-0.32,0.42-0.63,0.66-0.95
				c0.42-0.55,0.87-1.09,1.37-1.59c0.41-0.46,0.86-0.89,1.32-1.29h0.01c4.48-4.01,10.65-6.38,16.24-7.96
				c0.26-0.07,0.53-0.16,0.78-0.24c0.43-0.13,0.84-0.28,1.23-0.43c5.3-1.99,7.44-4.69,12.79-0.69c0.63,0.48,1.25,0.98,1.83,1.52
				c0.32,0.3,0.65,0.6,0.95,0.92c1.27,1.29,2.42,2.73,3.46,4.29c2.26,3.4,4.01,7.35,5.32,11.51c0.13,0.4,0.26,0.79,0.37,1.2
				C225.04,265.25,225.77,274.56,225.45,281.5z"/>
		</g>
		<g>
			<path class="st4" d="M216.82,243.93c-0.1-1.86-0.31-3.7-0.67-5.48c-0.08-0.4-0.18-0.79-0.28-1.19c-0.51-2.13-1.26-4.18-2.25-6.1
				c-4.92-9.51-16.08-13.05-25.89-15.02c-13.39-2.71-26.92-2.01-40.16,1.1c-13.96,3.29-28.66,8.48-42.84,3.47
				c-0.73-0.25-1.04,0.9-0.32,1.16c1.39,0.48,2.78,0.86,4.18,1.17c-1.39,1.07-2.63,2.22-3.75,3.44c-0.28,0.3-0.55,0.61-0.8,0.92
				c-1.69,2.01-3.03,4.19-4.06,6.49c-0.14,0.32-0.28,0.65-0.41,0.98c-0.02,0.04-0.04,0.08-0.06,0.13c-0.84,2.11-1.41,4.3-1.76,6.55
				h-0.01c-0.07,0.44-0.13,0.9-0.18,1.35c-0.3,2.56-0.3,5.19-0.04,7.82c0.04,0.46,0.1,0.91,0.16,1.37c0.42,3.13,1.19,6.24,2.29,9.24
				c0.13,0.37,0.26,0.75,0.42,1.13c2.02,5.2,4.98,10.05,8.6,14.06c3.16,3.52,7.07,6.51,11.62,7.95c3.87,1.22,6.69,0.72,10.02-0.11
				c0.12-0.02,0.23-0.06,0.34-0.08c1.04-0.26,2.13-0.56,3.33-0.84c1.82-0.42,3.78-0.78,5.82-1.04c0.1-0.02,0.2-0.04,0.3-0.05
				c0.14-0.02,0.29-0.05,0.43-0.06c2.65-0.34,5.39-0.51,8.06-0.53c0.47-0.01,0.92-0.01,1.37,0c1.71,0.02,3.36,0.11,4.95,0.29
				c4.97,0.56,9.83,1.74,14.7,2.78c1.1,0.23,2.2,0.46,3.31,0.67c3.75,0.73,7.57,1.22,11.34,1.22c0.43,0,0.86-0.01,1.29-0.02
				c5.62-0.19,11.06-1.59,15.87-5.15c2.96-2.18,5.41-4.9,7.42-7.93c0.48-0.69,0.92-1.41,1.33-2.16c2.08-3.6,3.58-7.56,4.61-11.56
				c0.22-0.85,0.42-1.72,0.6-2.62c0.08-0.4,0.17-0.8,0.24-1.21C216.65,252.18,217.03,248.02,216.82,243.93z"/>
		</g>
		<g>
			<path class="st5" d="M215.79,287.28c3.2,0.83,6.2,2.16,9.15,3.62c0.04-0.42,0.06-0.84,0.08-1.27c-2.71-1.33-5.46-2.55-8.39-3.36
				c-2.24-0.62-4.53-0.97-6.84-1.16c0.02-0.26,0.04-0.51,0.06-0.78c0.24-4.13,0.56-8.48,0.61-12.84c0.06-4.5-0.17-9-1.08-13.33
				c2.08-0.35,4.18-0.62,6.29-0.85c2.25-0.24,4.51-0.44,6.77-0.66c0.02,0,0.05,0,0.07-0.01c-0.11-0.41-0.24-0.8-0.37-1.2
				c-2.08,0.19-4.16,0.41-6.23,0.66c-1.57,0.17-3.13,0.37-4.68,0.59c-0.71,0.1-1.41,0.22-2.11,0.34c-0.61-2.53-1.46-4.99-2.65-7.33
				c-1.07-2.1-2.44-3.96-3.92-5.77c2.55-0.89,5.07-1.87,7.56-2.91c1.08-0.46,2.17-0.91,3.25-1.37c0.92-0.41,1.86-0.8,2.79-1.2
				c-0.08-0.4-0.18-0.79-0.28-1.19c-1.16,0.49-2.31,0.98-3.46,1.46c-3.6,1.48-7.17,2.9-10.8,4.07c-0.18-0.2-0.35-0.42-0.53-0.62
				c-1.19-1.39-2.26-2.81-3.29-4.27c-1.09-1.53-2.13-3.09-3.23-4.66c-1.69-2.41-3.77-4.07-6.19-5.7c-3.35-2.29-7.59-5.54-5.89-10.19
				c0.26-0.72-0.9-1.03-1.16-0.31c-1.58,4.35,1.54,8.06,4.9,10.47c2.71,1.94,5.35,3.57,7.32,6.35c1.04,1.48,2,2.99,3.03,4.48
				c0.72,1.07,1.48,2.11,2.34,3.11c0.49,0.6,0.97,1.17,1.44,1.76c-4.65,1.44-9.42,2.5-14.5,2.89c-2.1,0.17-4.19,0.29-6.29,0.44
				h-0.01c-1.47,0.08-2.92,0.2-4.39,0.36c-0.28-1.21-0.49-2.45-0.61-3.71c-0.73-7.45,0.85-14.92,2.44-22.15
				c0.17-0.75-0.99-1.08-1.16-0.32c-1.87,8.49-3.72,17.75-1.84,26.32c-1.19,0.14-2.37,0.31-3.56,0.53
				c-4.08,0.75-7.92,2.29-11.87,3.48c2.98-10.71,6.56-21.24,10.69-31.55c0.29-0.72-0.86-1.03-1.15-0.32
				c-4.23,10.55-7.87,21.31-10.88,32.27c-0.68,0.19-1.38,0.37-2.07,0.53c-6.78,1.5-13.39,0.28-19.69-2.08
				c11.42-7.51,21.66-16.8,30.34-27.34c0.49-0.59-0.35-1.44-0.84-0.85c-8.84,10.71-19.22,20.11-30.86,27.66
				c-3.23-1.29-6.37-2.86-9.41-4.48c-0.63-0.34-1.26-0.67-1.88-1.01c-3.21-1.76-6.47-3.56-9.78-5.17c0.31-0.07,0.61-0.14,0.92-0.22
				c0.69-0.17,1.39-0.35,2.07-0.54c9-2.5,16.7-8.11,25.65-10.77c0.73-0.23,0.42-1.38-0.32-1.16c-8.25,2.47-15.39,7.53-23.57,10.15
				c-1.68,0.54-3.36,0.99-5.05,1.41c-0.46,0.11-0.91,0.22-1.37,0.32c-3.19-1.46-6.43-2.73-9.8-3.6c-0.51-0.14-1.05-0.26-1.58-0.38
				c-0.14,0.32-0.28,0.65-0.41,0.98c-0.1,0.02-0.2,0.05-0.3,0.08c0.08,0.01,0.16,0.04,0.24,0.05c3.41,0.73,6.69,1.9,9.9,3.33
				c-3.94,0.91-7.88,1.8-11.66,3.22h-0.01c-1.71,0.66-3.39,1.42-5.03,2.35c-1.98,1.13-3.88,2.39-5.75,3.7
				c-4.97-0.99-10.02-1.38-15.05-1.13c-0.8,0.46-1.6,0.9-2.41,1.35c5.35-0.49,10.78-0.24,16.09,0.73c-1.08,0.77-2.16,1.53-3.25,2.3
				c-3.47,2.43-7.07,4.45-10.8,6.45c-5.5,2.95-9.32,7.08-10.56,13.1c-3.16,0.37-6.24,0.99-9.17,1.96c0,0.41,0.01,0.81,0.02,1.22
				c2.85-0.99,5.86-1.63,8.94-2c-0.01,0.11-0.04,0.2-0.05,0.31c-1.94,14.87,9.09,25.72,15.44,38.07c-1.65,0.48-3.32,0.95-4.96,1.45
				c-2.98,0.91-5.95,1.87-8.9,2.86c0.14,0.35,0.3,0.71,0.47,1.1c2.9-0.98,5.82-1.92,8.74-2.8c1.72-0.53,3.46-1.03,5.18-1.52
				c0.59,1.2,1.13,2.41,1.59,3.65c1.59,4.18,2.5,8.57,4.15,12.73c1.52,3.84,3.41,7.51,5.32,11.16c0.32,0.65,0.65,1.28,0.97,1.93
				c-1.72,0.04-3.46,0.02-5.2,0.04c-3.16,0.05-6.29,0.4-9.39,0.89c0.19,0.41,0.38,0.8,0.56,1.17c3.29-0.5,6.6-0.85,9.96-0.86
				c1.56,0,3.13,0.01,4.68-0.02c3.69,7.44,6.85,15.04,9.09,23.06c1.2,4.3,2.19,8.62,3.23,12.94c-0.97,0.19-1.93,0.38-2.9,0.56
				c-2.28,0.43-4.57,0.81-6.87,1.19c0.16,0.37,0.34,0.74,0.5,1.11c2.24-0.36,4.48-0.73,6.69-1.14c0.96-0.18,1.9-0.37,2.85-0.56
				c1.33,5.5,2.74,10.97,4.73,16.32c1.22,3.28,2.56,6.5,3.98,9.7c0.37-0.11,0.75-0.23,1.15-0.35c-1.04-2.35-2.04-4.71-2.98-7.1
				c-2.42-6.17-4.22-12.43-5.78-18.81c4.68-1.02,9.28-2.34,13.71-4.19c1.02-0.43,2.02-0.89,3.02-1.36c0.41,2.92,0.89,5.83,1.68,8.68
				c1.41,5.11,3.54,9.97,5.95,14.7c0.32-0.24,0.63-0.48,0.96-0.72c-2.08-4.12-3.95-8.33-5.3-12.75c-1.05-3.44-1.64-6.95-2.13-10.47
				c1.7-0.86,3.38-1.77,5.02-2.77c1.25-0.75,2.44-1.59,3.68-2.37c-0.04-0.5-0.08-1.02-0.13-1.52c-2.99,1.64-5.83,3.78-8.74,5.38
				c-0.48-3.58-0.89-7.17-1.62-10.72c-1.45-7.01-4.95-12.91-8.13-19.22c-0.8-1.57-1.47-3.16-2.07-4.77
				c4.23-1.62,8.73-2.95,13.1-2.56c-0.07-0.4-0.14-0.78-0.22-1.17c-4.11-0.3-8.36,0.74-12.27,2.2c-0.35,0.12-0.69,0.26-1.03,0.4
				c-1.94-5.51-3.04-11.23-4.36-17.02c-0.81-3.56-1.94-6.96-3.22-10.29c4.26,1.21,8.62,2.71,12.8,4.53
				c-0.14-0.42-0.28-0.84-0.39-1.27c-1.56-0.63-3.14-1.23-4.72-1.82c-2.68-0.99-5.44-2.12-8.25-2.87c-1.22-3.08-2.56-6.12-3.9-9.21
				c-3.23-7.41-6.24-15.81-4.22-23.95c2.86,0.63,5.6,1.57,8.21,3.22c3.94,2.49,7.97,5.24,11.53,8.23c1.72,1.45,3.2,3.07,4.44,4.79
				c0.4-0.14,0.79-0.29,1.19-0.43c-1.34-1.88-2.91-3.63-4.78-5.2c-3.65-3.07-7.75-5.87-11.77-8.42c-2.69-1.7-5.54-2.67-8.51-3.33
				c0.89-2.83,2.43-5.51,4.54-7.58c1.04-1.02,2.13-1.8,3.28-2.37c2.66-1.35,5.6-1.69,8.89-1.9c0.72-0.05,1.43-0.13,2.12-0.22
				c3.09,2.65,5.92,5.54,9.14,8.15c4.97,4.01,10.31,4.17,16.42,3.38c0.6-0.08,1.21-0.16,1.81-0.22c4.6-0.5,9.17-0.65,13.77-0.66
				c-0.61,2.63-1.32,5.23-2.26,7.74c-0.4,1.05-0.85,2.07-1.37,3.03c0.47-0.01,0.92-0.01,1.37,0c0.2-0.42,0.41-0.86,0.59-1.29
				c1.29-3.04,2.17-6.23,2.9-9.46c1.52,0,3.05,0.01,4.57,0.04c4.98,0.08,10.01,0.12,14.97-0.48c1.8-0.2,3.58-0.5,5.35-0.91
				c0.87-0.2,1.72-0.44,2.56-0.72c0.43,1.54,0.9,3.08,1.39,4.63c1.39,4.42,1.94,8.73,1.96,13.15c0.01,0.57,0,1.16-0.01,1.74
				c-4.55,1.34-8.92,3.17-12.84,5.95c-0.05,0.04-0.08,0.06-0.13,0.1c0.11,0.42,0.22,0.83,0.32,1.25c1.22-0.89,2.48-1.74,3.81-2.48
				c2.77-1.56,5.75-2.66,8.78-3.56c-0.06,1.37-0.16,2.75-0.3,4.15c-0.65,6.56-1.5,13.03-0.67,19.61c0.08,0.71,0.19,1.4,0.3,2.1
				c-1.13-0.19-2.26-0.37-3.41-0.5c-1.21-0.14-2.42-0.23-3.64-0.26c0.04,0.4,0.07,0.8,0.1,1.2c0.18,0,0.35,0,0.53,0.01
				c2.24,0.1,4.44,0.41,6.65,0.78c0.92,5.21,2.33,10.33,3.34,15.52c1.17,6.09,1.26,11.9,0.5,17.89c-1.6-0.18-3.2-0.56-4.83-1.17
				c-2.37-0.9-4.66-1.98-7.02-2.89c0.02,0.19,0.05,0.37,0.08,0.56c0.05,0.24,0.08,0.49,0.16,0.73c0,0.02,0.01,0.04,0.01,0.06
				c0.38,0.14,0.77,0.3,1.15,0.45c3.23,1.34,6.39,2.97,9.89,3.5c0.12,0.02,0.25,0.02,0.37,0.05c-0.11,0.73-0.22,1.47-0.36,2.23
				c-1.17,6.59-2.51,13.08-2.97,19.77c-0.12,1.77-0.22,3.56-0.3,5.33c-2.1,0.02-4.19,0.11-6.29,0.12c0.04,0.41,0.08,0.81,0.16,1.21
				c2.02-0.02,4.06-0.1,6.07-0.13c-0.36,8.02-0.38,16.08-0.37,24.14c0.43,0.08,0.86,0.16,1.29,0.23c0.02-8.13,0.1-16.26,0.34-24.38
				c0.98,0.01,1.96,0.02,2.93,0.08c4.99,0.3,9.87,1.47,14.88,1.7h0.07c0.12,7.8,0.34,15.59,0.59,23.39
				c0.41-0.04,0.81-0.08,1.21-0.13c-0.24-7.75-0.42-15.48-0.5-23.22c3.99,0.12,7.99-0.02,11.97-0.23c0.04-0.4,0.08-0.8,0.12-1.2
				c-0.6,0.04-1.2,0.06-1.78,0.08c-3.44,0.16-6.87,0.25-10.31,0.16c-0.1-10.21-0.02-20.43,0.36-30.64
				c4.98-0.17,9.91,0.32,14.92,0.37c0.05-0.42,0.1-0.84,0.13-1.27c-0.1,0.01-0.18,0-0.28,0c-4.06-0.13-8.12-0.59-12.19-0.57
				c-0.85,0-1.7,0.05-2.54,0.11c0.28-7.11,0.71-14.23,1.33-21.35c0.23-2.69,0.48-5.38,0.73-8.07c0.63-0.1,1.26-0.19,1.88-0.35
				c3.95-0.91,7.64-2.68,11.48-3.92c0.93-0.3,1.88-0.56,2.85-0.79c0.05-0.42,0.08-0.84,0.12-1.27c-5.51,1.37-10.66,4.01-16.21,5.04
				c0.98-10.55,2.02-21.1,2.69-31.68C211.76,286.44,213.79,286.77,215.79,287.28z M116.58,355.68c1.78,5.24,2.31,10.75,3.03,16.23
				c-0.06,0.02-0.11,0.06-0.17,0.08c-5.33,2.56-10.93,4.27-16.67,5.53c-0.44-1.82-0.87-3.64-1.29-5.48
				c-1.92-8.35-4.44-16.48-7.92-24.32c-0.9-2.02-1.88-4.01-2.9-5.99c1.64-0.07,3.27-0.2,4.87-0.51c3.62-0.67,7.02-2.06,10.41-3.44
				c0.6-0.24,1.2-0.48,1.8-0.72C110.36,343.42,114.35,349.14,116.58,355.68z M100.82,310.91c2.61,7.57,3.38,15.6,5.83,23.21
				c0.2,0.61,0.44,1.22,0.67,1.82c-3.15,1.27-6.27,2.65-9.56,3.54c-2.55,0.71-5.13,0.95-7.72,1.04c-2.67-5.18-5.46-10.32-7.36-15.85
				c-1.39-4.02-2.3-8.2-3.99-12.13c-0.26-0.6-0.55-1.2-0.84-1.78c2.26-0.65,4.53-1.26,6.8-1.84c5.07-1.31,9.84-2.41,15-1.09
				C100.08,308.86,100.46,309.89,100.82,310.91z M99.08,306.42c-0.8-0.17-1.6-0.32-2.42-0.41c-4.19-0.47-8.31,0.71-12.32,1.75
				c-2.35,0.6-4.68,1.23-7.02,1.89c-1.23-2.41-2.62-4.73-4.07-7.02c-4.23-6.69-9.04-13.27-10.8-21.14
				c-0.74-3.31-0.93-6.77-0.38-10.02c8.3-0.81,17.1,0.12,24.8,1.17c1.43,0.2,2.81,0.41,4.18,0.67
				C88.14,284.54,94.68,295.89,99.08,306.42z M105.3,259.68c-1.93,0.24-3.72,0.81-5.34,1.68c-3.23,1.69-5.78,4.49-7.44,7.94
				c-0.47,0.97-0.84,1.93-1.14,2.89c-1.74-0.34-3.51-0.6-5.33-0.84c-7.44-1.01-15.79-1.8-23.76-1.05c0.92-4,3.04-7.62,6.79-10.13
				c3.08-2.07,6.56-3.48,9.71-5.46c2.89-1.81,5.63-3.84,8.42-5.81c0.63,0.13,1.27,0.28,1.9,0.43c2.91,0.71,5.78,1.64,8.55,2.79
				c2.89,1.19,5.68,2.6,8.32,4.24c1.42,0.87,2.73,1.83,4,2.84C108.43,259.35,106.88,259.48,105.3,259.68z M107.72,256.03
				c-3.21-2.1-6.65-3.86-10.2-5.28c-2.08-0.84-4.21-1.54-6.37-2.14c-0.86-0.23-1.72-0.44-2.59-0.65c0.04-0.02,0.08-0.05,0.12-0.08
				c2.84-1.94,5.76-3.63,8.87-4.95c1.52-0.67,3.09-1.23,4.72-1.7c2.91-0.83,5.88-1.44,8.83-2.1c5.29,2.5,10.42,5.57,15.65,8.24
				c1.98,1.02,3.95,1.98,5.96,2.83c-1.03,0.66-2.07,1.32-3.13,1.94c-0.14,0.1-0.3,0.19-0.45,0.28c-3.57,2.1-7.27,4.02-11.21,5.32
				c-2.02,0.67-4.04,1.02-6.07,1.26C110.52,257.94,109.14,256.95,107.72,256.03z M152.8,269.79c-2.48-0.02-4.96-0.02-7.45,0.08
				c-2.31,0.11-4.72,0.47-7.14,0.78c-5.36,0.69-10.8,1.16-15.45-1.94c-2.86-1.92-5.13-4.6-7.63-6.92c-0.63-0.59-1.29-1.16-1.95-1.71
				c5.53-1.01,10.69-3.26,15.64-6.09c0.44-0.25,0.87-0.5,1.31-0.77c1.34-0.79,2.67-1.6,3.98-2.44c5.02,1.99,10.24,3.27,15.89,3.07
				c2.35-0.1,4.62-0.54,6.85-1.13c-0.68,2.53-1.35,5.07-1.98,7.63C154.12,263.45,153.52,266.64,152.8,269.79z M174.38,269.14
				c-1.89,0.32-3.84,0.54-5.87,0.65c-4.83,0.25-9.66,0.08-14.5,0.01c0.6-2.68,1.13-5.39,1.76-8.03c0.75-3.16,1.57-6.3,2.42-9.44
				c2.05-0.6,4.06-1.29,6.1-1.95c3.28-1.05,6.6-1.7,9.95-2.13c0.31,1.16,0.68,2.31,1.15,3.44c0.36,0.9,0.78,1.78,1.26,2.66
				c1.56,2.86,2.69,5.36,3.21,8.61c0.25,1.59,0.6,3.13,0.99,4.66C178.74,268.25,176.59,268.77,174.38,269.14z M181.01,262.63
				c-0.51-3.23-1.56-5.65-3.11-8.49c-0.67-1.22-1.25-2.48-1.71-3.77c-0.29-0.74-0.53-1.5-0.74-2.26c0.92-0.11,1.84-0.19,2.77-0.28
				c1.02-0.08,2.04-0.17,3.07-0.23c5.18-0.34,10.38-0.66,15.45-1.92c1.52-0.37,3.03-0.83,4.51-1.32c3.04,3.92,5.41,7.88,6.65,12.9
				c-5.66,1.13-10.86,3.05-16.11,5.77c-3.27,1.7-6.48,3.09-9.77,4.18C181.6,265.7,181.25,264.18,181.01,262.63z M203.09,364.01
				c-0.06,5.54-0.04,11.08,0.04,16.61c-0.99-0.05-1.99-0.1-2.97-0.18c-4.68-0.42-9.24-1.5-13.95-1.59h-0.91
				c0.25-7.09,1.13-14.01,2.47-20.98c0.4-2.07,0.78-4.16,1.1-6.23c3.23,0.19,6.45-0.44,9.63-0.99c1.69-0.3,3.38-0.48,5.05-0.57
				C203.32,354.72,203.15,359.37,203.09,364.01z M203.62,348.77c-2.56,0.25-5.09,0.68-7.65,1.11c-2.39,0.4-4.66,0.59-6.91,0.46
				c0.51-3.7,0.79-7.41,0.49-11.18c-0.51-6.21-2.2-12.24-3.52-18.31c-0.28-1.27-0.51-2.54-0.72-3.8c4.56,0.85,9.1,1.98,13.72,2.38
				c2.28,0.2,4.56,0.2,6.81-0.05C204.97,329.17,204.14,338.96,203.62,348.77z M205.96,318.14c-0.95,0.14-1.92,0.24-2.9,0.25
				c-6.08,0.13-11.99-1.46-17.95-2.56c-0.74-5.09-0.91-10.13-0.42-15.39c0.35-3.68,0.84-7.36,1.05-11.06
				c0.9-0.25,1.81-0.49,2.73-0.71c6.49-1.58,13.33-2.84,20.07-2.48C207.9,296.86,206.91,307.51,205.96,318.14z M208.97,277.83
				c-0.1,2.39-0.23,4.79-0.37,7.18c-5.1-0.25-10.26,0.37-15.26,1.34c-2.53,0.5-5.05,1.07-7.53,1.76c0.01-0.47,0.02-0.93,0.02-1.4
				c0.04-1.94-0.04-3.89-0.29-5.82c-0.54-4.24-1.98-8.26-3.16-12.35c5.1-1.81,9.72-4.56,14.69-6.83c3.56-1.62,7.27-2.63,11.08-3.34
				c1.02,5.01,1.1,10.14,0.97,15.26C209.09,275.04,209.03,276.44,208.97,277.83z"/>
		</g>
		<g>
			<g>
				<path class="st0" d="M186.59,45.26c-0.52-2.44-1.32-4.79-1.81-7.25c-0.34-1.69-0.64-3.41-1.45-4.96
					c-1.55-2.95-4.45-4.75-7.29-6.32c-0.86-0.7-1.78-1.3-2.59-1.8c-3.43-2.11-7.45-2.09-11.29-2.76c-3.75-0.66-6.38-1.23-10.08,0.21
					c-2.2,0.85-3.82,2.45-5.2,4.27c-3.91,1.52-7.78,3.49-10.07,7.15c-1.23,1.96-1.89,4.24-1.65,6.55c0.21,2.12,0.5,3.63-0.15,5.72
					c-0.4,1.3-0.84,2.52-1.01,3.88c-0.34,2.68,0.32,4.83,1.11,7.35c0.74,2.35,0.85,4.72,2.1,6.89c2.99,5.21,7.26,9.82,11.76,13.75
					c0.58,0.5,1.43-0.34,0.85-0.85c-2.71-2.36-5.2-4.93-7.45-7.71c4.14,3.29,9.46,5.06,14.75,4.31c4.4-0.62,8.74-1.88,13.02-3.02
					c3.96-1.06,8.45-2.01,11.8-4.52c2.88-2.16,4.09-5.36,4.59-8.83C187.11,53.43,187.42,49.14,186.59,45.26z"/>
			</g>
			<g>
				<path class="st3" d="M173.03,101.7c-0.9,4.35-13.32,8.38-13.32,8.38s-11.53-6.89-11.53-10.78V81.63c0-0.08,0-0.13,0-0.13
					l24.85-3.59c0,0,0.12,2.6,0.23,6.11c0.05,1.77,0.11,3.77,0.13,5.78C173.47,94.72,173.43,99.74,173.03,101.7z"/>
			</g>
			<g>
				<path class="st6" d="M161.19,93.2c0.47,0.04,0.93,0.05,1.38-0.01c1.54-0.21,3.1-0.67,4.46-1.44c1.81-1.02,3.48-2.46,4.45-4.32
					c0.59-1.11,0.96-2.31,1.48-3.45c-0.1-0.01-0.21-0.02-0.31-0.03c-4.33-0.51-8.65-0.89-13.02-0.71c-2.16,0.1-4.31,0.24-6.45-0.05
					c-1.71-0.23-3.34-1.38-5.01-1.57v10.94c0.23,0.16,0.47,0.29,0.73,0.38c1.51,0.57,3.23,0.16,4.78,0.02
					c1.48-0.13,2.97-0.21,4.45-0.17C159.1,92.84,160.15,93.1,161.19,93.2z"/>
			</g>
			<g>
				<path class="st3" d="M172.87,31.29c-2.43-1.66-5.48-0.83-8.37-1.52c-3.96-0.94-8.14-1.44-12.08-0.44
					c-6.89,1.74-13.36,6.2-13.14,15.75c0.3,13.04,0.38,27.72,5.92,35.51c3.24,4.56,8.48,9.46,14.24,10.14
					c14.54,1.71,21.57-17.78,22.43-29.15c0.49-6.44,1.05-16.9-0.9-23.05c-1.01-3.2-4.06-3.76-6.55-6.01
					C173.93,32.07,173.41,31.66,172.87,31.29z"/>
			</g>
			<g>
				<path class="st7" d="M151.88,59.03c0-0.01-0.01-0.03-0.01-0.04c-0.01-0.02-0.02-0.04-0.03-0.06c-0.11-0.3-0.26-0.56-0.48-0.7
					c-0.27-0.18-0.62-0.2-1.1,0.05c-0.26,0.14-0.39,0.37-0.49,0.59c-0.5,1.13-0.43,4.24,1.2,4.29
					C152.68,63.21,152.23,60.08,151.88,59.03z"/>
			</g>
			<g>
				<path class="st7" d="M170.24,59.03c0-0.01,0.01-0.03,0.01-0.04c0.01-0.02,0.02-0.04,0.03-0.06c0.11-0.3,0.26-0.56,0.48-0.7
					c0.27-0.18,0.62-0.2,1.1,0.05c0.26,0.14,0.39,0.37,0.49,0.59c0.5,1.13,0.43,4.24-1.2,4.29
					C169.43,63.21,169.89,60.08,170.24,59.03z"/>
			</g>
			<g>
				<path class="st6" d="M165.32,67.92c-0.38-1.62-0.78-3.23-1.17-4.84c-0.18-0.75-1.34-0.43-1.15,0.32
					c0.45,1.88,0.93,3.75,1.35,5.63c0.25,1.1,0.83,2.33,0.07,3.31c-0.56,0.72-2.39,1.02-3.27,1.29c-0.74,0.22-0.42,1.38,0.32,1.15
					c1.5-0.45,4.24-0.99,4.53-2.81C166.18,70.75,165.59,69.08,165.32,67.92z"/>
			</g>
			<g>
				<path class="st0" d="M172.88,52.23c-1.78-0.03-6.19,0.16-6.28,2.63c-0.18,0.54,0.39,1.03,0.93,1.19c1.5,0.43,3.14-0.2,4.67-0.16
					c1.78,0.04,3.54,0.13,5.32-0.08c2.16-0.25,0.81-2.08-0.38-2.72C175.87,52.42,174.3,52.26,172.88,52.23z"/>
			</g>
			<g>
				<path class="st0" d="M149.75,52.23c1.78-0.03,6.19,0.16,6.28,2.63c0.18,0.54-0.39,1.03-0.93,1.19c-1.5,0.43-3.14-0.2-4.67-0.16
					c-1.78,0.04-3.54,0.13-5.32-0.08c-2.16-0.25-0.81-2.08,0.38-2.72C146.76,52.42,148.33,52.26,149.75,52.23z"/>
			</g>
			<g>
				<path class="st6" d="M167.33,78.3c-0.55-1.07-3.03,0.4-6.24,0.27c-1.25-0.05-2.49-0.19-3.74-0.26c-0.45-0.02-3.1-0.39-2.38,0.59
					c1.35,1.84,3.82,2.26,5.97,2.29C164.28,81.23,167.88,79.37,167.33,78.3z"/>
			</g>
			<g>
				<path class="st3" d="M180.6,58.1c0,0,1.42-1.68,3.89,1.02c2.47,2.69-0.07,10.48-2.77,12.2c-2.69,1.72-5.01,0.97-4.79,0.67
					C177.15,71.69,180.6,58.1,180.6,58.1z"/>
			</g>
			<g>
				<path class="st3" d="M140.28,58.1c0,0-1.42-1.68-3.89,1.02c-2.47,2.69,0.07,10.48,2.77,12.2c2.69,1.72,5.01,0.97,4.79,0.67
					C143.72,71.69,140.28,58.1,140.28,58.1z"/>
			</g>
			<g>
				<path class="st0" d="M182.67,41.25c-1.03-7.46-7.69-11.35-14.57-12.57c-8.24-1.47-16.36-1.69-23.41,3.34
					c-8.04,5.73-6.25,14.29-6.32,22.94c-0.28,0.02-0.54,0.2-0.51,0.57c0.11,1.57,0.61,2.72,1.73,3.83c0.31,0.31,0.9,0.18,1-0.26
					c0.69-2.97,0.48-5.96,0.74-8.98c0.25-2.83,0.43-6.51,2.31-8.82c2.13-2.62,6.29-3.12,9.38-2.38c2.36,0.56,4.59,1.29,7.02,1.52
					c3.31,0.31,6.86-0.17,10.19-0.61c2.34-0.31,5.55-0.94,7.21,1.28c1.59,2.13,1.88,5.43,2.15,7.99c0.24,2.25,0.32,4.51,0.64,6.75
					c0.1,0.67,0.12,1.53,0.69,2c1.92,1.56,2.33-1.83,2.45-2.93C183.85,50.51,183.28,45.62,182.67,41.25z"/>
			</g>
		</g>
		<g>
			<path class="st2" d="M201.98,220.17c-0.65-2.29-1.52-4.56-2.47-6.78c-0.77-2.85-1.71-5.65-2.27-8.55
				c-1.36-7.09-1.12-14.5-1.34-21.68c-0.22-7.18-0.5-14.36-0.63-21.53c-0.13-7.26,1.11-14.73,0.13-21.93
				c-0.32-2.39-0.86-4.72-0.8-7.15c0.06-2.18,0.56-4.33,0.89-6.48c0.48-3.07,0.45-6.06-0.01-9.13c-0.59-4.03-1.37-7.89-1.19-11.98
				c0.09-1.99,0.19-4.4-1.26-5.99c-1.7-1.86-4.35-1.38-6.6-1.52c-4.1-0.25-12.33-3.66-11.74-3.2c-8.99,3.5-17.89,5.76-27,1.4
				c0.02-0.38-15.45,5.31-18.18,7.33c-4.16,3.08-2.63,8.85-1.7,13.18c0.77,3.56,1.6,7.09,1.32,10.76
				c-0.28,3.78-1.49,7.42-2.39,11.08c-1.59,6.46-2.04,13.09-1.25,19.7c0.74,6.23,2.38,12.31,3.26,18.52
				c0.5,3.48,0.76,7.02,0.43,10.53c-0.36,3.78-1.67,7.21-2.75,10.81c-0.74,2.45-1.29,4.94-1.12,7.51c0.21,3.16,1.52,6.21,1.42,9.4
				c-0.07,2.14-0.65,3.94-2.25,5.4c-0.59,0.54-1.45,0.94-1.92,1.62c-0.9,1.31-0.54,2.43,0.55,3.49c4.97,4.83,12.31,7.46,19.54,8.22
				c2.5,0.84,5.05,1.54,7.67,1.99c3.8,0.65,7.68,0.84,11.5,0.33c4.72-0.63,8.96-3.12,13.7-3.5c4.32-0.35,8.56-0.2,12.84-1
				c3.77-0.7,8.46-1.62,11.72-3.77C202.67,225.56,202.76,222.91,201.98,220.17z"/>
		</g>
		<g>
			<path class="st0" d="M142.18,96.03c-2.63,0.59-5.16,1.59-7.73,2.38c-3.32,1.01-6.65,1.95-9.96,2.98
				c-4.62,1.43-9.16,3.07-13.59,5.02c-3.77,1.66-5.62,4.19-5.96,8.32c-0.45,5.53,0.06,11.03-0.63,16.58
				c-1.45,11.77-4.85,23.27-5.39,35.15c-0.25,5.5,0.38,10.75,1.44,16.13c0.68,3.45,1.24,6.91,0.67,10.42
				c-0.52,3.18-1.7,6.2-2.49,9.31c-1.63,6.47-1.14,13.19-2.32,19.73c-1.26,6.96-12.18,18.48-11.44,18.2
				c10.49-3.99,26.82-4.79,38.33-8.25c4.44-1.34,7.59-3.24,9.43-7.64c2.18-5.21,4.04-10.84,4.82-16.45
				c1.66-11.91-1.45-23.87-0.22-35.79c0.67-6.57,3.55-12.56,4.43-19.06c0.75-5.58-0.34-11.17-1.28-16.65
				c-2.39-13.96,7.65-39.99,7.43-40.77C147.49,94.86,143.12,95.82,142.18,96.03z"/>
		</g>
		<g>
			<path class="st0" d="M225.41,245.04c-0.34-2.52-1.48-4.83-2.28-7.22c-1.09-3.26-1.5-6.65-1.67-10.06
				c-0.63-12.32-0.93-24.54-2.45-36.81c-1.56-12.54-4.52-24.86-2.51-37.52c0.92-5.78,1.51-11.24,0.87-17.09
				c-0.64-5.88-1.54-11.75-2.33-17.61c-0.98-7.28-3.05-19.32-11.52-20.6c-1.7-0.91-3.94-1.22-6.09-1.44
				c-3.31-0.35-6.65-0.27-9.95-0.75c-3.81-0.55-5.99-0.3-9.63-1.55c-1.16-0.4-3.47-0.74-3.15-0.13c5.66,10.91,7.73,22.29,7.11,34.51
				c-0.61,11.88-1.9,23.31-0.22,35.18c0.84,5.91,1.98,11.78,2.76,17.71c0.78,5.96,0.84,11.8,0.68,17.79
				c-0.15,5.76,0.81,10.76,2.86,16.14c1.54,4.04,3.09,8.32,6.16,11.48c3.72,3.83,9.2,4.71,13.51,7.65
				c5.04,3.43,8.09,8.97,10.94,14.2c0.69,1.95,1.38,3.91,2.07,5.86c0.15,0.44,0.65,0.57,1,0.26
				C224.45,252.48,225.93,248.89,225.41,245.04z"/>
		</g>
		<g>
			<path class="st5" d="M130.02,444.32c-8.45,2.8-26.94,11.69-30.63,12.08c-1.31,0.14-1.94-0.62-2.11-1.82
				c-0.3-2.16,0.92-5.74,2.41-7.86c1.02-1.47,3.78-4.01,6.79-6.61c0.3-0.25,0.6-0.5,0.9-0.77c1.15-0.98,2.32-1.96,3.41-2.87
				c0.31-0.26,0.61-0.53,0.91-0.78c1.52-1.27,2.83-2.36,3.65-3.09c0.16-0.13,0.29-0.25,0.41-0.36c0.17-0.16,0.31-0.31,0.43-0.48
				c1.92-2.47,0.2-6.42-0.73-8.83c-1.01-2.57-2.14-2.8-1.9-4.07c0.25-1.26,14.33-7.48,15.75-5.48c1.43,2,9.48,21.33,9.9,22.85
				c0.01,0.06,0.04,0.11,0.05,0.17C140.05,439.6,138.35,441.57,130.02,444.32z"/>
		</g>
		<g>
			<path class="st5" d="M207.74,467.21c-0.46,3.62-2.29,8.41-6.86,9.18c-6.11,1.05-9.2-2.65-11.46-11.26
				c-0.01-0.04-0.02-0.08-0.04-0.12c-2.28-8.67-1.98-24.09-1.68-26.94c0.3-2.84,0.41-21.24,1.68-22.15
				c1.27-0.9,17.48,0.75,17.48,1.95c0,1.2-1.94,22.6-1.94,23.51c0,0.89,2.39,19.76,2.84,22.75
				C207.87,464.89,207.88,465.98,207.74,467.21z"/>
		</g>
		<g>
			<path class="st8" d="M130.02,444.32c-8.45,2.8-26.94,11.68-30.63,12.08c-1.31,0.14-1.94-0.62-2.11-1.82
				c7.36-3.03,33.85-14.8,41.97-18.17C140.05,439.6,138.35,441.57,130.02,444.32z"/>
		</g>
		<g>
			<path class="st8" d="M207.74,467.21c-0.46,3.62-2.29,8.41-6.86,9.18c-6.11,1.05-9.2-2.65-11.46-11.26
				c2.13,3.22,6.02,7.48,11.32,6.92C203.63,471.75,205.96,469.74,207.74,467.21z"/>
		</g>
		<g>
			<path class="st8" d="M199.39,419.81c-0.31-0.26-0.71-0.21-0.94,0.12c-0.09,0.13-0.16,0.26-0.23,0.39
				c-2.61,1.91-11.96,9.31-9.21,11.56c1.39,1.14,3.09-1.15,3.86-1.92c1.2-1.19,2.61-2.32,3.59-3.69c0.12-0.16,0.2-0.34,0.3-0.51
				c-0.03,0.21-0.07,0.42-0.1,0.63l-1.61,8.95c-0.14,0.75,1.02,1.08,1.15,0.32c0.43-2.41,0.87-4.81,1.3-7.21
				c0.3,2.19,0.7,4.36,1.26,6.51c0.19,0.75,1.35,0.43,1.15-0.32c-0.73-2.82-1.22-5.67-1.49-8.56c0.66,2.13,1.74,4.08,3.4,4.03
				c0.21-0.01,0.42-0.11,0.52-0.3C204.12,426.47,202,422,199.39,419.81z M194.87,426.3c-0.66,0.74-3.39,4.23-4.27,4.22
				c-1.3-0.01,2.73-4.46,3.31-5.06c0.89-0.91,1.84-1.75,2.82-2.54C196.24,424.1,195.78,425.27,194.87,426.3z M201.67,427.55
				c-1.33,1.83-2.62-3.84-2.88-5.67c0.09-0.23,0.19-0.46,0.31-0.69C200.47,422.66,202.83,425.96,201.67,427.55z"/>
		</g>
		<g>
			<path class="st8" d="M200.58,441.01c-2.4-0.43-4.78-0.45-7.19-0.05c-0.76,0.12-0.44,1.28,0.32,1.15
				c2.19-0.36,4.37-0.34,6.55,0.05C201.01,442.3,201.34,441.14,200.58,441.01z"/>
		</g>
		<g>
			<path class="st8" d="M200.58,447.88c-2.4-0.43-4.78-0.45-7.19-0.05c-0.76,0.12-0.44,1.28,0.32,1.15
				c2.19-0.36,4.37-0.34,6.55,0.05C201.01,449.17,201.34,448.02,200.58,447.88z"/>
		</g>
		<g>
			<path class="st8" d="M201.27,454.75c-2.4-0.43-4.78-0.45-7.19-0.05c-0.76,0.12-0.44,1.28,0.32,1.15
				c2.19-0.36,4.37-0.34,6.55,0.05C201.71,456.04,202.03,454.89,201.27,454.75z"/>
		</g>
		<g>
			<path class="st8" d="M117.88,435.8c-0.67-1.22-1.52-2.29-2.53-3.2c0.16-0.13,0.29-0.25,0.41-0.36c0.17-0.16,0.31-0.31,0.43-0.48
				c1.09,0.97,2,2.13,2.72,3.44C119.28,435.87,118.25,436.47,117.88,435.8z"/>
		</g>
		<g>
			<path class="st8" d="M113.27,439.23c-0.74-1.01-1.58-1.93-2.48-2.75c0.31-0.26,0.61-0.53,0.91-0.78c0.95,0.9,1.82,1.87,2.61,2.92
				C114.77,439.24,113.73,439.84,113.27,439.23z"/>
		</g>
		<g>
			<path class="st8" d="M108.69,442.62c-0.67-0.9-1.4-1.74-2.2-2.5c0.3-0.25,0.6-0.5,0.9-0.77c0.85,0.81,1.62,1.7,2.33,2.66
				C110.18,442.63,109.14,443.23,108.69,442.62z"/>
		</g>
		<g>
			<path class="st7" d="M169.97,18.91c-5.11-2.96-10.63-2.55-16.03-0.83c-0.73,0.23-0.42,1.39,0.32,1.15
				c5.07-1.62,10.3-2.08,15.11,0.71C170.03,20.33,170.64,19.3,169.97,18.91z"/>
		</g>
		<g>
			<path class="st7" d="M167.25,6.43c-3.14,0.41-6.07,2.83-7.94,5.25c-0.47,0.6,0.38,1.46,0.85,0.85c1.65-2.13,4.3-4.54,7.1-4.9
				C168,7.53,168.01,6.33,167.25,6.43z"/>
		</g>
		<g>
			<path class="st7" d="M171.68,8.69c-3.19,0.47-6.27,1.31-9.27,2.51c-0.71,0.28-0.4,1.44,0.32,1.15c3-1.21,6.07-2.04,9.27-2.51
				C172.76,9.73,172.44,8.57,171.68,8.69z"/>
		</g>
		<g>
			<path class="st7" d="M150.63,22.36c-2.02,1.73-4.4,3.63-5.55,6.1c-0.98,2.11-0.91,4.56-0.85,6.83c0.02,0.77,1.22,0.77,1.2,0
				c-0.07-2.33-0.16-4.86,1.06-6.95c1.17-2,3.26-3.64,4.99-5.13C152.06,22.7,151.21,21.86,150.63,22.36z"/>
		</g>
		<g>
			<path class="st7" d="M147.83,29.84c-0.24,1.68-0.37,3.35-0.35,5.05c0.01,0.77,1.21,0.77,1.2,0c-0.02-1.58,0.07-3.16,0.3-4.73
				C149.1,29.41,147.94,29.08,147.83,29.84z"/>
		</g>
		<g>
			<path class="st7" d="M175.03,23.75c-0.46-0.6-1.5-0.01-1.03,0.6c3.06,4,4.23,8.84,3.22,13.79c-0.15,0.75,1,1.07,1.15,0.32
				C179.44,33.21,178.29,28,175.03,23.75z"/>
		</g>
		<g>
			<path class="st0" d="M120.36,189.01c-0.69,0.53-1.11,0.85-1.47,1.16c-1.34-4.64-6.92-9.17-9.59-12.4
				c-1.45-1.76-3.59-3.61-4.63-5.64c-1.15-2.24-0.83-3.14-0.16-5.51c1.22-4.3,2.97-8.48,4.33-12.74
				c4.81-15.05,9.06-27.32,6.04-42.99c-0.09-0.49-0.41-0.73-0.77-0.82c0.45-0.87-0.81-4.6-2.01-4.19
				c-15.34,5.24-22.19,25.23-25.32,39.48c-1.16,5.28-0.43,11.08-2.27,16.17c-1.82,5-5.2,9.37-6.48,14.58
				c-1.51,6.14,0.13,12.61-1.73,18.74c-1.43,4.72-4.86,8.33-4.8,13.49c0.06,4.94,2.32,9.98,5.44,13.74
				c3.67,4.42,12.26,5.17,17.66,4.31c7.81-1.24,12.67-5.45,18.86-10.3c7.23-5.65,5.31-17.58,8.66-25.74
				C122.5,189.44,121.17,188.39,120.36,189.01z"/>
		</g>
		<g>
			<path class="st3" d="M113.76,160.4c-0.2,0.72-18.26,18.81-20.06,22.18c-5.09,9.52,2.06,17.4,10.27,14.24
				c4.51-1.74,7.66-8.69,10.79-15.22c3.13-6.53,6.09-10.3,6.09-10.3L113.76,160.4z"/>
		</g>
		<g>
			<path class="st0" d="M278.48,144.15c-0.33-1.87-1.45-3.84-3.06-6.06c-3.54-4.9-6.57-8.6-11.08-12.69
				c-4.22-3.83-9.18-6.98-14.11-9.79c-2.45-1.4-4.96-2.75-7.6-3.77c-3.41-1.31-7.04-2.15-10.47-3.5c-2.95-1.16-5.87-2.38-8.86-3.42
				c-7.52-2.6-15.01-6.62-22.92-7.83c-0.75-0.12-1.04,2.02-0.28,2.13c0.58,0.09,1.16,0.2,1.74,0.3c3.85,5.78,3.72,12.75,3.92,19.44
				c0.21,7.07,1.14,14.13,2.26,21.11c0.45,2.77,1.13,5.28,2.8,7.58c1.95,2.69,2.9,5.99,5.1,8.47c1.93,2.17,2.96,4.82,3.77,7.58
				c0.76,1.11,1.5,2.24,2.36,3.22c3.22,3.67,6.99,8.34,12.21,5.73c1.43-0.72,3.03-1.13,4.57-1.54c3.2-0.83,6.54-1.44,9.34-3.32
				c1.99-1.35,6.3-1.57,8.37-2.79c2.6-1.54,3.01-3.6,5.84-4.59c4.36-1.53,9.13-3.17,12.92-6.01
				C278.69,151.88,278.93,146.71,278.48,144.15z"/>
		</g>
		<g>
			<g>
				<path class="st9" d="M117.65,133.71c0,0,3.6-2.62,4.53-2.62c0.93,0,12.66,2.74,20.37,6.49c7.71,3.74,15.22,9.68,15.22,9.68
					s14.42-9.16,19.36-11.63c4.94-2.47,17.44-5.91,17.81-5.69c0.37,0.22,3.66,2.74,3.66,2.74l-31.21,18.87c0,0-23.09-0.1-24.48-1
					C141.5,149.65,117.65,133.71,117.65,133.71z"/>
			</g>
			<g>
				<path class="st10" d="M117.01,132.99l37.85,14.89c0.06,0.02,0.13,0.04,0.19,0.04h6.85c0.08,0,0.15-0.02,0.22-0.05l37.62-17.23
					c0.37-0.17,0.78,0.12,0.75,0.52c-0.57,6.97-3.33,51.16-3.51,51.72c-0.19,0.58-31.9,15.94-33.83,16.83
					c-0.07,0.03-0.14,0.04-0.21,0.04h-6.87c-0.07,0-0.12-0.01-0.19-0.03c-1.89-0.74-34.52-13.58-35.27-15.13
					c-0.71-1.47-3.86-44.51-4.33-51.07C116.26,133.13,116.65,132.85,117.01,132.99z"/>
			</g>
			<g>
				<path class="st11" d="M163.16,199.04c-0.33,0-0.59-0.26-0.6-0.59l-0.91-49.54c-0.01-0.33,0.26-0.6,0.59-0.61
					c0.39,0,0.6,0.26,0.61,0.59l0.91,49.54c0.01,0.33-0.26,0.6-0.59,0.61C163.17,199.04,163.16,199.04,163.16,199.04z"/>
			</g>
			<g>
				<path class="st11" d="M155.97,199.04c-0.33,0-0.59-0.26-0.6-0.59l-0.9-49.54c-0.01-0.33,0.26-0.6,0.59-0.61
					c0.37,0,0.6,0.26,0.61,0.59l0.9,49.54c0.01,0.33-0.26,0.6-0.59,0.61C155.98,199.04,155.98,199.04,155.97,199.04z"/>
			</g>
			<g>
				<polygon class="st2" points="172.38,149.95 172.74,161.6 191.45,152.92 191.94,141.48 				"/>
			</g>
			<g>
				<path class="st2" d="M179.85,168.06c-0.23,0-0.44-0.13-0.54-0.35c-0.14-0.3,0-0.66,0.3-0.79l7.86-3.59
					c0.3-0.13,0.65-0.01,0.79,0.3c0.14,0.3,0,0.66-0.3,0.79L180.1,168C180.02,168.04,179.93,168.06,179.85,168.06z"/>
			</g>
			<g>
				<path class="st2" d="M171.62,176.29c-0.22,0-0.44-0.12-0.54-0.34c-0.14-0.3-0.02-0.65,0.28-0.8l22.68-11
					c0.3-0.14,0.65-0.02,0.8,0.28c0.14,0.3,0.02,0.65-0.28,0.8l-22.68,11C171.79,176.27,171.7,176.29,171.62,176.29z"/>
			</g>
			<g>
				<path class="st2" d="M126,184.95c-1.42,0-2.72-1.18-3.02-2.83c-0.16-0.87-0.02-1.74,0.39-2.45c0.43-0.75,1.1-1.24,1.88-1.39
					c0.79-0.14,1.59,0.08,2.25,0.63c0.63,0.52,1.07,1.29,1.23,2.16l0,0c0.33,1.82-0.68,3.55-2.27,3.84
					C126.3,184.94,126.15,184.95,126,184.95z M125.71,179.44c-0.08,0-0.17,0.01-0.25,0.02c-0.43,0.08-0.81,0.36-1.06,0.8
					c-0.27,0.47-0.36,1.05-0.25,1.64c0.22,1.18,1.15,1.99,2.09,1.82c0.93-0.17,1.52-1.27,1.31-2.44l0,0
					c-0.11-0.59-0.4-1.1-0.81-1.45C126.42,179.58,126.06,179.44,125.71,179.44z"/>
			</g>
			<g>
				<path class="st2" d="M140.41,190.02c-0.08,0-0.15-0.01-0.23-0.04l-10.4-4.23c-0.31-0.12-0.45-0.47-0.33-0.78
					c0.12-0.31,0.47-0.45,0.78-0.33l10.4,4.23c0.31,0.12,0.45,0.47,0.33,0.78C140.87,189.88,140.64,190.02,140.41,190.02z"/>
			</g>
		</g>
		<g>
			<path class="st3" d="M128.11,162c2.15-1.58-2.55-6.51-3.65-7.77c-1.85-2.11-5.15-5.57-7.92-2.8c-1.59,1.59-1.5,4.21-2.46,6.11
				c-0.42,0.82-1.06,1.47-1.36,2.36c-0.51,1.51-1.32,5.35-0.98,5.51c-0.36,1.59-0.31,3.3,0.38,4.78c0.98,2.12,3.54,1.06,5.43,1.57
				c1.09,0.29,3.83,1.77,4.84,0.57c0.32-0.39,0.31-0.91,0.14-1.46c0.43,0.18,0.9,0.28,1.39,0.22c1.19-0.16,1.68-1.56,1.87-2.6
				c0.03-0.17,0.03-0.35,0.04-0.52c0.47,0.08,0.88,0.01,1.21-0.31c1.1-1.08,0.08-3.36-0.47-4.45c-0.23-0.44-0.49-0.87-0.74-1.3
				C126.69,162.33,127.5,162.46,128.11,162z"/>
		</g>
		<g>
			<path class="st3" d="M206.43,163.59c-2.64-1.69-5.52-3.57-8.35-4.02c-1.56-0.25-2.07,0.59-3.28,1.71
				c-1.74,1.62-7.64,6.83-5.38,9.51c0.05,0.06,0.13,0.09,0.21,0.13c-0.32,0.38-0.62,0.77-0.87,1.17c-0.43,0.68-0.69,1.42-0.54,2.24
				c0.07,0.38,0.25,0.55,0.39,0.84c0.54,0.5,0.71,1.07,0.51,1.72c0.02,0.24,0.05,0.49,0.08,0.73c0.57,1.57,1.78,1.49,3.17,0.67
				c-0.04,0.85,0.26,1.53,1.35,1.41c0.92-0.1,1.69-0.69,2.37-1.28c0.61-0.52,1.2-1.06,1.79-1.61c2.87-1.6,6.36,0.26,9.72-0.49
				c2.21-0.49,5.06-1.66,5.84-4.02c1.16-3.5-2.22-5.84-4.83-7.36C207.91,164.53,207.18,164.07,206.43,163.59z"/>
		</g>
		<g>
			<path class="st3" d="M230.49,164.7c0,3.57-2.43,6.93-6.25,7.77l-6.19,1.37l-3.65,0.8l-4.74,1.05l-2.79-10.68l2.32-1.44l3.59-2.2
				l5.58-3.44c3.89-2.38,8.98-1.03,11.16,2.98C230.18,162.14,230.49,163.43,230.49,164.7z"/>
		</g>
		<g>
			<path class="st6" d="M196.96,162.89c-2.32,1.89-4.46,3.97-6.41,6.25c-0.5,0.58,0.34,1.43,0.85,0.85
				c1.95-2.27,4.09-4.36,6.41-6.25C198.41,163.25,197.55,162.41,196.96,162.89z"/>
		</g>
		<g>
			<path class="st6" d="M198.28,166.89c-3.02,2.03-5.7,4.46-7.99,7.29c-0.48,0.59,0.36,1.45,0.85,0.85c2.23-2.75,4.81-5.13,7.75-7.1
				C199.52,167.5,198.93,166.46,198.28,166.89z"/>
		</g>
		<g>
			<path class="st6" d="M198.07,171.88c-1.59,1.23-3.15,2.5-4.68,3.81c-0.59,0.5,0.26,1.35,0.85,0.85c1.53-1.31,3.09-2.58,4.68-3.81
				C199.52,172.26,198.67,171.42,198.07,171.88z"/>
		</g>
		<g>
			<path class="st6" d="M211.75,169.34c-0.36-1.64-1.26-3.09-2.57-4.14c-0.6-0.48-1.45,0.37-0.85,0.85
				c1.17,0.93,1.94,2.15,2.26,3.61C210.76,170.41,211.91,170.09,211.75,169.34z"/>
		</g>
		<g>
			<path class="st6" d="M126.6,160.36c-2.25-2.56-4.71-4.89-7.4-6.99c-0.6-0.47-1.45,0.37-0.85,0.85c2.68,2.1,5.15,4.43,7.4,6.99
				C126.27,161.79,127.11,160.94,126.6,160.36z"/>
		</g>
		<g>
			<path class="st6" d="M125.73,165.93c-1-1.36-2.07-2.67-3.25-3.89c-1.22-1.26-2.71-2.32-3.79-3.7c-0.48-0.61-1.32,0.25-0.85,0.85
				c0.98,1.25,2.31,2.21,3.43,3.33c1.25,1.25,2.38,2.59,3.43,4.01C125.14,167.15,126.18,166.55,125.73,165.93z"/>
		</g>
		<g>
			<path class="st6" d="M123.47,169.08c-1.71-1.95-3.54-3.78-5.49-5.48c-0.58-0.51-1.43,0.34-0.85,0.85
				c1.95,1.71,3.78,3.54,5.49,5.48C123.13,170.5,123.98,169.65,123.47,169.08z"/>
		</g>
		<g>
			<path class="st6" d="M118.03,171.26c-1.94-0.71-2.16-2.15-3.15-3.7c-0.86-1.34-1.78-2.08-1.82-3.84c-0.02-0.77-1.22-0.77-1.2,0
				c0.02,0.88,0.16,1.69,0.55,2.49c0.51,1.05,1.38,1.76,1.86,2.84c0.73,1.64,1.72,2.74,3.44,3.36
				C118.44,172.68,118.75,171.52,118.03,171.26z"/>
		</g>
		<g>
			<path class="st7" d="M130.57,112.93c3.35-4.98,7-9.75,10.9-14.32c0.5-0.58-0.35-1.43-0.85-0.85c-5,5.87-9.6,12.06-13.71,18.59
				c-1.2,1.9-3.76,4.57-2.78,6.96c0.99,2.39,4.46,4.45,6.58,5.76c0.66,0.41,1.26-0.63,0.6-1.03c-1.31-0.81-2.56-1.68-3.71-2.71
				c-0.47-0.42-0.93-0.86-1.37-1.32c-1.14-1.43-1.22-2.71-0.25-3.85C126.97,117.64,129.07,115.15,130.57,112.93z"/>
		</g>
		<g>
			<path class="st7" d="M196.21,115.38c-4.21-6.17-8.41-12.34-12.62-18.52c-0.43-0.63-1.47-0.03-1.03,0.6
				c3.21,4.71,6.42,9.42,9.63,14.13c1.48,2.18,3.54,4.44,4.65,6.82c1.61,3.46-1.72,5.32-3.9,7.41c-0.56,0.53,0.29,1.38,0.85,0.85
				c1.55-1.48,4.47-3.34,5.1-5.51C199.49,119.05,197.29,116.96,196.21,115.38z"/>
		</g>
		<g>
			<path class="st7" d="M220,108.91c-0.63,12.71-1.38,25.64-6.39,37.51c-0.3,0.7,0.73,1.31,1.03,0.6c5.1-12.08,5.9-25.17,6.55-38.11
				C221.24,108.14,220.04,108.14,220,108.91z"/>
		</g>
		<g>
			<path class="st7" d="M225.36,124.31c-2.43,7.31-5.26,14.47-8.49,21.46c-0.32,0.69,0.71,1.3,1.03,0.6
				c3.27-7.09,6.15-14.34,8.61-21.75C226.76,123.9,225.61,123.58,225.36,124.31z"/>
		</g>
		<g>
			<path class="st7" d="M252.15,127.46c-3.39,1.18-7.16,0.33-10.46,1.87c-1.84,0.86-3.46,2.28-4.95,3.79
				c0.33-1.34,1.42-2.82,2.07-3.76c1-1.43,2.19-2.69,3.51-3.83c0.58-0.51-0.27-1.35-0.85-0.85c-1.62,1.41-3.04,3-4.18,4.82
				c-0.89,1.41-2.05,3.18-1.78,4.91c-0.4,0.43-0.79,0.85-1.17,1.26c-1.02,1.09-2,2.22-2.84,3.46c-1.16,1.7-1.96,3.75-3.52,5.14
				c-2.19,1.94-5.23,2.32-6.68,5.07c-0.36,0.68,0.67,1.29,1.03,0.6c1.37-2.59,4.45-2.98,6.5-4.83c2.39-2.16,3.57-5.48,5.71-7.88
				c2.17-2.43,4.72-5.42,7.71-6.8c3.2-1.48,6.9-0.66,10.22-1.82C253.19,128.36,252.88,127.21,252.15,127.46z"/>
		</g>
		<g>
			<path class="st7" d="M105.67,165.26c-0.98-4.27-1.99-8.63-1.76-13.05c0.18-3.49,1.05-6.72,0.36-10.22
				c-1.33-6.72-5.95-12.34-6.43-19.29c-0.05-0.76-1.25-0.77-1.2,0c0.47,6.8,4.71,12.27,6.28,18.75c0.98,4.05-0.22,7.82-0.25,11.87
				c-0.03,4.15,0.91,8.24,1.84,12.26C104.69,166.33,105.84,166.01,105.67,165.26z"/>
		</g>
		<g>
			<path class="st7" d="M93.11,179.51c-4.84-0.18-9.45,0.65-13.93,2.5c-0.7,0.29-0.39,1.45,0.32,1.15
				c3.93-1.63,7.99-2.45,12.21-2.47l-11.2,6.73c-0.66,0.4-0.06,1.43,0.6,1.03c3.99-2.4,7.98-4.8,11.97-7.19
				c0.24-0.15,0.31-0.38,0.27-0.6C93.87,180.46,93.78,179.53,93.11,179.51z"/>
		</g>
		<g>
			<path class="st7" d="M111.29,195.31c-0.36-0.68-1.39-0.08-1.03,0.6c0.63,1.2,2.47,3.55,2.53,4.84c0.11,2.28-1.8,3.62-3.07,5.15
				c-1.51,1.82-1.63,3.62-2.04,5.86c-0.93,5.19-6.53,7.56-8.1,12.51c-0.23,0.74,0.92,1.05,1.15,0.32c1-3.16,3.65-5.1,5.68-7.57
				c1.54-1.87,2.25-3.68,2.58-6.06c0.33-2.31,1.1-3.74,2.67-5.4c0.79-0.84,1.74-1.69,2.24-2.75
				C115.04,200.41,112.34,197.34,111.29,195.31z"/>
		</g>
		<g>
			<path class="st7" d="M213.29,218.41c-6.69-3.15-13.6-6.52-17.79-12.89c-0.42-0.64-1.46-0.04-1.03,0.6
				c4.31,6.56,11.32,10.07,18.22,13.32C213.37,219.77,213.98,218.74,213.29,218.41z"/>
		</g>
		<g>
			<g>
				<path class="st0" d="M290.4,182.68c-1.82-3.72-5.54-5.98-8.53-8.7c-2.86-2.6-5.01-2.66-8.9-2.05c-4.13,0.65-10.9,1.5-14.12,4.49
					c-2.93,2.73-2.04,8.55-3.73,11.96c-1.03,2.06,2.07,3.88,3.1,1.81c1.07-2.15,1.6-4.01,2.19-6.36c1.35-5.37,4.58-6.52,9.41-7.64
					c4.25-0.99,7.2-1.32,10.6,1.46c2.49,2.04,5.43,3.87,6.88,6.83C288.31,186.57,291.41,184.75,290.4,182.68z"/>
			</g>
			<g>
				<path class="st0" d="M284.4,301.03c1.31-0.21,2.63-0.41,3.94-0.58c-0.02-2.22-0.49-4.34-1.88-6.45
					c-5.28-7.98-17.43-7.75-21.54-16.69c-0.97-2.1-4.06-0.27-3.1,1.81c3.43,7.44,11.34,8.87,17.59,13.08
					C283.31,294.82,284.34,297.7,284.4,301.03z"/>
			</g>
			<g>
				<path class="st0" d="M319.66,284.92c4.46,1.86,8.26,6.62,11.08,11.07c1.14-0.39,2.29-0.77,3.44-1.15
					c-2.04-3.1-4.43-5.94-6.93-8.71c-1.17-1.3-2.33-2.59-3.86-3.47c-2.4-1.38-7.85-1.83-7.42-5.74c0.25-2.29-3.34-2.28-3.59,0
					C311.85,281.72,315.94,283.37,319.66,284.92z"/>
			</g>
			<g>
				<path class="st0" d="M265.9,281.53c-6.22-2.98-12.96-2.93-19.47-4.85c-2.29-0.67-5.37-1.72-7.02-3.51
					c-2.21-2.4-1.87-6.14-1.81-9.09c0.08-4.42,0.46-8.84,0.96-13.23c2.14-18.66,5.62-37.23,8.53-55.78
					c0.03-0.17,0.01-0.33-0.02-0.48c0.62-1.25-1.34-2.33-2.13-1.08c-5.94,9.35-8.32,19.96-9.78,30.82
					c-0.97,7.18-1.59,14.42-2.97,21.54c-1.19,6.12-3.24,12.04-4.24,18.2c-1.15,7.07-0.48,14.59,7.65,16.2
					c5.9,1.17,11.43,2.97,17.27,4.35c4.56,1.08,8.78,1,13.05-1.02C266.68,283.23,266.68,281.91,265.9,281.53z"/>
			</g>
			<g>
				<path class="st9" d="M326.95,243.36c-0.6-3.26-1.44-6.47-2.57-9.58c-0.2-0.55-0.41-1.1-0.63-1.65
					c-0.24-0.59-0.49-1.17-0.75-1.75c-0.47-1.03-0.98-2.04-1.57-3.01c-1.07-1.75-2.53-3.05-3.72-4.67
					c-1.75-2.37-1.13-5.32-1.16-8.07c-0.02-2.26-8.17-32.09-11.46-32.55c-19.7-2.74-40.91,1.7-60.03,6.3
					c-3.42,0.83-2.18,20.12-0.38,26.82c0.87,3.3,1.96,6.56,2.56,9.93c0.69,3.98,0.73,8.02,0.85,12.06
					c0.29,9.51,2.61,18.78,5.28,27.86c1.35,4.6,1.81,9.62,4.05,13.93c2.78,5.3,7.08,5.8,12.45,7.02c7.1,1.62,50.73-6.75,54.68-7.32
					c5.65-0.81,6.66-0.58,6.85-5C331.76,265.05,328.5,251.9,326.95,243.36z"/>
			</g>
			<g>
				<path class="st4" d="M324.37,233.78c-4.2,0.79-8.24,2.18-12.48,3.19c-4.33,1.03-8.77,1.27-13.14,2.12
					c-4.77,0.93-9.42,2.39-14.23,3.2c-4.86,0.8-9.81,0.46-14.67,1.14c-0.45-1.14-0.89-2.28-1.31-3.41
					c4.99-0.75,10.03-0.41,15.03-1.19c5.48-0.86,10.78-2.66,16.26-3.58c5.14-0.87,10.17-1.45,15.22-2.86c2.67-0.74,5.27-1.47,7.92-2
					c0.26,0.57,0.52,1.16,0.75,1.75C323.96,232.68,324.17,233.23,324.37,233.78z"/>
			</g>
			<g>
				<path class="st12" d="M311.64,208.52c-7.22,0.39-14.1,2.57-21.19,3.81c-3.73,0.65-7.48,0.62-11.22,1.12
					c-3.44,0.46-6.73,1.53-10.04,2.51c-3.19,0.94-7.41,2.54-10.74,1.88c-2.38-0.47-2.41-1.7-2.76-3.73
					c-0.29-1.68-0.64-3.34-1.07-4.99c-1.72-6.67-4.55-12.97-8.27-18.75c-0.42-0.65-1.45-0.05-1.03,0.6
					c4.23,6.56,7.26,13.79,8.84,21.45c0.39,1.89-0.04,5.26,1.8,6.27c1.9,1.05,5.29,0.46,7.76-0.08c0.01,0.01,0.01,0.02,0.02,0.04
					c2.86,3.5,8.39,2.07,9.21-2.37c0.01-0.07,0-0.13,0-0.19c0.83-0.24,1.67-0.48,2.51-0.68c4.11-1.02,8.27-0.95,12.44-1.48
					c4.74-0.6,9.35-1.81,14.01-2.78c0.01,0.06,0.01,0.12,0.04,0.19c0.75,1.72,2.5,2.98,4.44,2.63c2.13-0.38,2.92-2.11,3.17-4.06
					c0.69-0.07,1.38-0.14,2.07-0.18C312.41,209.68,312.41,208.48,311.64,208.52z M265.08,218.31c2.23-0.5,4.41-1.18,6.59-1.84
					C270.78,219.43,267.32,220.36,265.08,218.31z M305.87,212.82c-1.29,0.06-2.26-0.83-2.79-1.92c1.75-0.35,3.5-0.66,5.27-0.88
					C308.14,211.43,307.52,212.74,305.87,212.82z"/>
			</g>
			<g>
				<path class="st12" d="M278.15,272.56c-0.6-3.22-0.51-6.51-1.3-9.7c-1.46-5.88-4.51-11.21-6.06-17.07
					c-0.2-0.74-1.35-0.43-1.15,0.32c0.37,1.39,0.82,2.75,1.31,4.09c-0.06,0.02-0.12,0.03-0.17,0.08c-5.3,3.73-11.68,4.3-17.97,3.84
					c-0.77-0.06-0.76,1.14,0,1.2c6.5,0.48,13.11-0.16,18.57-4c1.39,3.62,3.02,7.16,4.07,10.9c0.88,3.14,0.89,6.33,1.36,9.52
					c0.45,3,1.46,5.82,1.3,8.89c-0.04,0.77,1.16,0.77,1.2,0C279.44,277.82,278.66,275.29,278.15,272.56z"/>
			</g>
			<g>
				<path class="st4" d="M288,197.4c0,2.96-1.86,6.09-5.1,6.78c-2.91,0.62-5.95-0.64-7.28-3.36c-2.56-5.21,2.81-10.25,8.12-8.98
					C286.67,192.53,288,194.91,288,197.4z"/>
			</g>
		</g>
		<g>
			<path class="st4" d="M214.4,174.64c0.41-4.49-0.66-9.62-5.13-11.03c-0.02-0.01-0.06-0.02-0.08-0.04l3.59-2.2
				c3.94,2.57,5.42,7.62,5.27,12.47L214.4,174.64z"/>
		</g>
		<g>
			<path class="st2" d="M218.54,164.44c0,1.57-1.92,2.84-4.3,2.84c-2.37,0-4.3-1.27-4.3-2.84c0-1.57,1.92-2.84,4.3-2.84
				C216.62,161.6,218.54,162.87,218.54,164.44z"/>
		</g>
	</g>
	<g>
		<path class="st13" d="M175.4,261.37c-5.01,6.08-7.11,13.74-5.93,21.52c0.11,0.76,1.27,0.44,1.15-0.32
			c-1.11-7.32,0.92-14.65,5.63-20.36C176.73,261.62,175.89,260.77,175.4,261.37z"/>
	</g>
	<g>
		<path class="st8" d="M119.34,424.55c-0.58-2.25-2.09-3.98-3.91-5.35c-0.09-0.07-0.19-0.09-0.29-0.09
			c-0.17-0.18-0.43-0.27-0.71-0.12c-2.44,1.26-5,2.63-6.66,4.89c-0.69,0.94-1.95,2.96-0.85,4.02c1.93,1.85,5.05-2.47,6.81-5.41
			c-0.91,3.56-1.45,7.17-1.6,10.87c-0.03,0.77,1.17,0.77,1.2,0c0.13-3.2,0.58-6.33,1.29-9.42c0.82,2.64,2.23,5.37,4.13,4.41
			C120,427.71,119.61,425.6,119.34,424.55z M108.29,426.95c-0.88-0.24,0.67-2.68,0.89-2.93c0.56-0.63,1.23-1.2,1.9-1.7
			c0.67-0.5,1.39-0.93,2.13-1.34c-0.48,0.86-0.99,1.71-1.59,2.5C111.25,423.98,108.92,427.11,108.29,426.95z M117.35,426.49
			c-1.27-0.91-1.9-2.96-2.17-4.73c0.09-0.34,0.19-0.68,0.29-1.01c0.79,0.67,1.49,1.43,2,2.34c0.4,0.68,0.67,1.41,0.83,2.18
			C118.32,427.18,118,427.59,117.35,426.49z"/>
	</g>
</g>
</svg>
