<?xml version="1.0" encoding="utf-8"?>
<!-- Generator: Adobe Illustrator 25.2.0, SVG Export Plug-In . SVG Version: 6.00 Build 0)  -->
<svg version="1.1" id="레이어_1" xmlns="http://www.w3.org/2000/svg" xmlns:xlink="http://www.w3.org/1999/xlink" x="0px"
	 y="0px" viewBox="0 0 320.92 205.51" style="enable-background:new 0 0 320.92 205.51;" xml:space="preserve">
<style type="text/css">
	.st0{fill:#1F2F43;}
	.st1{fill:#FCE7DD;}
	.st2{fill:#ECC6B4;}
	.st3{fill:#4854A3;}
	.st4{fill:#465F78;}
	.st5{fill:#B2644C;}
	.st6{fill:#D4A48D;}
	.st7{fill:#C78E72;}
	.st8{fill:#F29856;}
	.st9{fill:#FFFFFF;}
	.st10{fill:#D75D44;}
	.st11{fill:#C17238;}
	.st12{fill:#314A64;}
</style>
<g>
	<g>
		<path class="st0" d="M1.98,128.77c-0.04,0.38-1.61,14.11-1.61,14.11l37.18,41.37c0,0,280.7,0.23,281.53,0.24
			c0.02,0,0.4-3.34,0.4-3.34s-38.32-39.43-39.07-40.29c-0.7-0.8-214.5-12.1-267.09-12.11C6.83,128.74,2.82,128.75,1.98,128.77z"/>
		<path class="st1" d="M320.83,172.47c0,0-1.34,8.68-1.36,8.68c-0.83,0-273.5-0.11-281.35-0.25c0,0,0,0-0.01-0.01
			c-0.76-0.81-31.14-34.25-35.68-39.62c0.65-5.4,1.16-10.3,1.16-10.3s17.25,0.49,43.12,1.23c77.38,2.21,231.88,6.71,232.42,7.33
			C279.77,140.25,320.83,172.47,320.83,172.47z"/>
		<path class="st2" d="M46.7,132.2c-2.01,11.41-5.75,32.57-8.6,48.69c-0.76-0.81-31.14-34.25-35.68-39.62
			c0.65-5.4,1.16-10.3,1.16-10.3S20.83,131.46,46.7,132.2z"/>
		<path class="st0" d="M320.91,172.43c-3.62-3.84-37.45-40.63-38.29-41.58c-0.79-0.9-271.33-0.04-279.04,0.11
			c4.59,5.43,37.03,41.21,37.05,41.21c7.84,0.14,279.45,0.28,280.27,0.29C320.92,172.46,320.93,172.45,320.91,172.43z"/>
	</g>
	<g>
		<path class="st3" d="M12.46,74.62c-0.09,0.87-6.4,53.84-6.4,53.84l30.6,33.19c0,0,272.51,0.95,274.4,0.97
			c0.04,0,0.42-3.03,0.42-3.03s-31.12-56.34-32.84-58.29C277,99.43,103.69,77.7,54.32,74.54C49.59,74.24,14,74.59,12.46,74.62z"/>
		<path class="st1" d="M317.81,113.77c0,0-0.47,3.41-1.15,8.37c-0.01,0.06-0.02,0.11-0.02,0.16c-0.41,2.99-0.9,6.52-1.4,10.21
			c-0.01,0.05-0.01,0.11-0.02,0.16c-0.4,2.95-0.82,5.98-1.22,8.91c-0.01,0.05-0.01,0.11-0.02,0.16c-0.51,3.73-1,7.27-1.41,10.21
			c-0.01,0.06-0.02,0.11-0.02,0.16c-0.62,4.49-1.04,7.52-1.05,7.52h-0.01c-2.63-0.01-251.52-0.67-273.45-0.99
			c-0.2,0-0.38-0.01-0.54-0.01c-0.06,0-17.82-18.38-28.34-30.81c1.48-12.35,5.87-49.54,5.87-49.54s0.01,0,0.03,0
			c0.36,0.02,4.31,0.3,10.99,0.77c0,0,0,0,0,0c49.41,3.48,248.24,17.58,249.69,19.22c1.42,1.61,39.68,14.69,41.98,15.47
			C317.77,113.75,317.81,113.77,317.81,113.77z"/>
		<path class="st2" d="M49.87,91.62c0,0-8,45.29-11.84,67.01c-0.2,0-0.38-0.01-0.54-0.01c-0.06,0-17.8-18.35-28.32-30.79
			c-0.01-0.01-0.02-0.02-0.02-0.03c1.48-12.35,5.86-49.54,5.86-49.54s0.01,0,0.03,0c0.03,0,0.08,0,0.15,0.01
			c0.84,0.06,4.68,0.33,10.84,0.76c0,0,0,0,0,0c9.47,7.01,18.68,13.67,19.78,14.05C45.89,93.1,49.87,91.62,49.87,91.62z"/>
		<path class="st3" d="M15.02,78.23c10.5,12.43,31.38,34.41,31.44,34.41c17.94,0.31,269.64,1.08,271.52,1.09
			c0.04,0,0.05-0.02,0.02-0.06c-8.29-8.78-32.36-33.1-34.27-35.27C281.92,76.35,32.67,77.88,15.02,78.23z"/>
	</g>
	<g>
		<path class="st0" d="M37.88,62.94c-0.04,0.38-0.65,11.52-0.65,11.52l28.16,31.52c0,0,217.03,0.41,217.85,0.42
			c0.02,0,0.53-4.63,0.53-4.63s-28.33-24.78-29.08-25.64c-0.58-0.66-172.88-13.55-172.88-13.55S39.94,62.89,37.88,62.94z"/>
		<path class="st1" d="M284.79,96.41c0,0-1.02,5.56-1.03,5.56c-0.83-0.01-209.82-0.3-217.68-0.43c0,0-0.04-0.04-0.11-0.12
			c-1.64-1.78-20.85-22.97-25.25-28.17c0.65-5.4,0.83-7.17,0.83-7.17s12.07,0.45,30.46,1.15c58.49,2.23,180.86,6.96,181.41,7.58
			C254.06,75.53,284.79,96.41,284.79,96.41z"/>
		<path class="st2" d="M72.01,67.22c-2.02,11.44-4.29,24.3-6.04,34.19c-1.6-1.74-20.83-22.27-25.84-28.1
			c-0.12-0.14-0.24-0.28-0.34-0.4c0.36-5.59,0.57-7.25,0.57-7.25s0.05,0,0.14,0.01C41.93,65.77,54.71,66.56,72.01,67.22z"/>
		<path class="st0" d="M39.72,64.85c4.59,5.43,28.53,31.07,28.55,31.07c7.84,0.14,215.77,0.47,216.59,0.47
			c0.02,0,0.02-0.01,0.01-0.02c-3.62-3.84-27.12-29.29-27.95-30.24C256.13,65.23,47.43,64.7,39.72,64.85z"/>
	</g>
	<g>
		<path class="st4" d="M79.34,20.94c-0.09,0.87-5.2,41.95-5.2,41.95l30.62,32.87c0,0,148.59,0.54,150.48,0.55
			c0.04,0,0.42-3.03,0.42-3.03s-31.96-44.31-33.67-46.26C220.55,45.4,109.7,20.54,109.7,20.54S83.03,20.87,79.34,20.94z"/>
		<path class="st1" d="M261.15,59.48c0,0-0.58,3.59-1.36,8.43c-0.01,0.05-0.02,0.11-0.03,0.16c-0.44,2.72-0.94,5.83-1.44,8.91
			c-0.01,0.06-0.02,0.11-0.03,0.16c-0.59,3.68-1.18,7.32-1.65,10.2c-0.01,0.06-0.02,0.11-0.03,0.16c-0.56,3.46-0.95,5.8-0.96,5.8
			c-1.89-0.01-132.11-0.27-150.08-0.58c0,0-0.02-0.02-0.05-0.05c-0.35-0.35-2.44-2.5-5.45-5.66c-0.05-0.06-0.1-0.11-0.16-0.17
			c-2.69-2.83-6.08-6.44-9.62-10.28c-0.05-0.05-0.1-0.11-0.15-0.16c-2.72-2.95-5.51-6.02-8.13-8.98c-0.05-0.05-0.1-0.11-0.14-0.16
			c-1.64-1.86-3.21-3.66-4.64-5.36c0.17-1.47,0.38-3.12,0.61-4.88c0.01-0.05,0.01-0.11,0.02-0.16c1.67-13.1,4.4-32.48,4.4-32.48
			s12.15,1.59,29.2,3.87c0.74,0.1,1.49,0.2,2.24,0.3c1.01,0.13,2.03,0.27,3.07,0.41c40.16,5.38,101.17,13.74,102.28,15
			c1.12,1.28,25.28,9.72,36.48,13.58c0.16,0.06,0.31,0.11,0.47,0.16C259.14,58.8,261.15,59.48,261.15,59.48z"/>
		<path class="st2" d="M117.07,27.34c0,0-0.1,0.58-0.29,1.64c-1.42,8.07-7.77,44.01-11.25,63.71c-1.07-1.06-18.09-18.71-28.29-30.76
			v0c1.43-11.94,4.79-35.83,5.02-37.43c0.01-0.06,0.01-0.08,0.01-0.08s12.15,1.59,29.2,3.87c0.8,0.27,1.33,0.46,1.55,0.53
			c0.02,0.01,0.29-0.09,0.69-0.23C114.87,28.16,117.07,27.34,117.07,27.34z"/>
		<path class="st4" d="M80.4,22.16c10.5,12.43,33.25,36.62,33.31,36.62c17.94,0.31,145.72,0.66,147.61,0.67
			c0.04,0,0.05-0.02,0.02-0.06c-8.29-8.78-32.36-33.1-34.27-35.27C225.26,22.07,98.05,21.81,80.4,22.16z"/>
		<g>
			<path class="st2" d="M259.79,67.91c-0.01,0.05-0.02,0.11-0.03,0.16c-16.68,0.02-33.35,0.02-50.03,0c-18.5-0.02-37-0.08-55.5-0.16
				c-18.58-0.08-37.16-0.2-55.75-0.34c-5.49-0.04-10.98-0.09-16.47-0.14c-0.05-0.05-0.1-0.11-0.14-0.16
				c7.87,0.07,15.74,0.13,23.6,0.19c18.58,0.14,37.16,0.24,55.75,0.32c18.5,0.08,37,0.12,55.5,0.14
				C231.08,67.94,245.44,67.93,259.79,67.91z"/>
			<path class="st2" d="M258.32,76.98c-0.01,0.06-0.02,0.11-0.03,0.16c-16.29,0.02-32.59,0.02-48.88,0c-18.5-0.02-37-0.08-55.5-0.16
				c-18.58-0.08-37.16-0.2-55.75-0.34c-2.62-0.02-5.24-0.04-7.87-0.06c-0.05-0.05-0.1-0.11-0.15-0.16c5,0.04,10.01,0.08,15.01,0.12
				c18.58,0.14,37.16,0.24,55.75,0.32c18.5,0.08,37,0.12,55.5,0.14C230.38,77,244.35,77,258.32,76.98z"/>
			<path class="st2" d="M256.99,85.3c-0.01,0.06-0.02,0.11-0.03,0.16c-15.74,0.02-31.47,0.02-47.21,0c-18.5-0.02-37-0.08-55.5-0.16
				c-17.94-0.08-35.89-0.19-53.83-0.33c-0.05-0.06-0.1-0.11-0.16-0.17c1.75,0.01,3.49,0.03,5.24,0.04
				c18.58,0.14,37.16,0.24,55.75,0.32c18.5,0.08,37,0.12,55.5,0.14C230.17,85.32,243.58,85.32,256.99,85.3z"/>
		</g>
	</g>
	<g>
		<path class="st5" d="M90.83,0.05c-0.09,0.87-2.93,25.92-2.93,25.92l30.13,32.82c0,0,148.59,0.54,150.48,0.55
			c0.04,0,0.42-3.03,0.42-3.03L236.58,1.2C236.58,1.2,108.48-0.3,90.83,0.05z"/>
		<path class="st1" d="M272.05,36.47c0,0-0.45,2.92-1.01,6.52c-0.01,0.05-0.02,0.11-0.03,0.16c-0.54,3.46-1.17,7.51-1.59,10.2
			c-0.01,0.06-0.02,0.11-0.02,0.16c-0.27,1.71-0.45,2.82-0.46,2.82c-1.89-0.01-132.11-0.27-150.08-0.58c0,0-0.04-0.04-0.12-0.11
			c-0.32-0.33-1.31-1.34-2.75-2.84c-0.05-0.05-0.1-0.11-0.16-0.16c-2.35-2.45-5.86-6.14-9.72-10.29c-0.05-0.05-0.1-0.11-0.15-0.16
			c-5.18-5.57-10.98-11.95-15.46-17.25c1.48-12.35,2.66-23.56,2.66-23.56s14.64,1.92,34.35,4.56
			c40.16,5.38,101.33,13.76,102.45,15.02C231.43,22.63,272.05,36.47,272.05,36.47z"/>
		<path class="st2" d="M127.52,5.94c-2.43,13.74-6.22,35.21-8.78,49.7c-1.55-1.55-18.1-18.74-28.14-30.61
			c-0.03-0.03-0.05-0.06-0.08-0.1c1.31-10.95,2.39-21,2.61-23.14c0.03-0.28,0.04-0.42,0.04-0.42S107.81,3.3,127.52,5.94z"/>
		<path class="st5" d="M93.17,1.36c10.5,12.43,31.38,34.41,31.44,34.41c17.94,0.31,145.72,0.66,147.61,0.67
			c0.04,0,0.05-0.02,0.02-0.06c-8.29-8.78-34.27-35.27-34.27-35.27S110.82,1.01,93.17,1.36z"/>
		<g>
			<path class="st2" d="M256.99,43.63c-18.5-0.02-37-0.07-55.5-0.14c-18.58-0.08-37.16-0.18-55.75-0.32
				c-9.52-0.07-19.05-0.15-28.57-0.23c-0.09,0-0.18,0-0.27,0c0,0.05-0.01,0.11-0.01,0.16c7.29,0.07,14.57,0.13,21.86,0.18
				c18.58,0.14,37.16,0.26,55.75,0.34c18.5,0.08,37,0.14,55.5,0.16c6.99,0.01,13.97,0.02,20.96,0.02c0.01-0.05,0.02-0.11,0.03-0.16
				C266.32,43.64,261.66,43.64,256.99,43.63z"/>
			<path class="st2" d="M269.92,50.39c-0.01,0.06-0.02,0.11-0.02,0.16c-6.45,0-12.89-0.01-19.34-0.02c-18.5-0.02-37-0.08-55.5-0.16
				c-18.58-0.08-37.16-0.2-55.75-0.34c-7.61-0.06-15.21-0.12-22.82-0.19c-0.05-0.05-0.1-0.11-0.16-0.16
				c9.99,0.09,19.98,0.17,29.97,0.24c18.58,0.14,37.16,0.24,55.75,0.32c18.5,0.08,37,0.12,55.5,0.14
				C261.67,50.38,265.8,50.39,269.92,50.39z"/>
		</g>
	</g>
	<path class="st2" d="M246.47,50.2c-1.23,8.37-3.47,23.35-5.99,40.3c-0.01,0.06-0.02,0.11-0.02,0.16c-0.14,0.91-0.27,1.83-0.41,2.75
		c-1.4,9.46-2.87,19.43-4.29,29.13c-2.4,16.44-4.48,30.64-5.43,37.07c-8.71-0.03-17.81-0.06-27.05-0.1
		c-5.87-0.02-11.79-0.04-17.71-0.07c-0.2,0-0.4,0-0.61,0c-0.51,0-1.02,0-1.54-0.01c-15.28-0.06-30.45-0.12-44.43-0.18
		c-1.04,0-2.07-0.01-3.09-0.01c-7.6-0.03-14.81-0.07-21.46-0.1c1.24-8.4,5.73-38.75,9.77-66.15c2.65-18,5.12-34.72,6.35-43.12
		c0.01-0.04,0.01-0.08,0.02-0.12C166.32,49.92,211.6,50.08,246.47,50.2z"/>
	<path class="st6" d="M219.79,144.2c-0.04,0.04-0.07,0.08-0.11,0.12c-1.18-1.1-2.35-2.2-3.53-3.3c-1.47,2.38-2.99,4.73-4.56,7.04
		c-2.65,3.9-5.44,7.71-8.3,11.46c-5.87-0.02-11.79-0.04-17.71-0.07c-0.2,0-0.4,0-0.61,0c-0.51,0-1.02,0-1.54-0.01
		c-3.02-2.85-6.03-5.7-9.04-8.56c-4.74-4.51-9.46-9.04-14.18-13.57c-0.01-0.03-0.02-0.05-0.03-0.08c-0.29-0.8-0.57-1.61-0.9-2.41
		c0.06-1.17,0.13-2.34,0.19-3.51c0.25-4.64,0.55-9.27,0.95-13.89c0.22-2.59,0.48-5.17,0.77-7.75c0.72-6.29,1.6-12.55,2.51-18.82
		c-0.22-0.22-0.44-0.43-0.66-0.64c-0.07-0.07,0.04-0.19,0.11-0.11c0.19,0.19,0.38,0.37,0.57,0.56c0.11-0.78,0.23-1.56,0.34-2.34
		c0.01-0.1,0.17-0.06,0.16,0.04c-0.12,0.81-0.23,1.62-0.35,2.43c0.45,0.44,0.91,0.89,1.36,1.33c2.7,2.63,5.4,5.27,8.11,7.89
		c2.88,2.8,5.77,5.59,8.67,8.38c3.07,2.95,6.14,5.9,9.21,8.84c2.55,2.44,5.11,4.88,7.67,7.31c5.65,5.36,11.31,10.71,17,16.03
		c0.07,0.07,0.14,0.13,0.21,0.2c0.57-0.94,1.14-1.88,1.7-2.83c0.05-0.09,0.19-0.01,0.14,0.08c-0.56,0.96-1.14,1.91-1.72,2.86
		C217.42,141.99,218.6,143.1,219.79,144.2z"/>
	<path class="st6" d="M246.47,50.2c-1.23,8.37-3.47,23.35-5.99,40.3c-0.01,0.06-0.02,0.11-0.02,0.16
		c-0.14,0.91-4.54,30.75-4.68,31.67c-11.01-7.56-38.07-28.72-38.07-28.72l-25.75-0.38c0,0,0.53,2.58,1.39,6.77
		c0.9,4.38,2.15,10.53,3.51,17.31c3.03,15.04,6.61,33.19,8.1,42.13c-0.51,0-1.02,0-1.54-0.01c-6.22-0.02-12.43-0.05-18.55-0.07
		c-8.9-0.04-17.6-0.07-25.88-0.11c-1.04,0-2.07-0.01-3.09-0.01c-7.6-0.03-14.81-0.07-21.46-0.1c0.79-5.31,2.87-19.41,5.32-35.99
		c0.27-1.82,0.54-3.67,0.82-5.54c1.19-8.03,2.43-16.45,3.63-24.61c2.65-18,5.12-34.72,6.35-43.12c0.01-0.04,0.01-0.08,0.02-0.12
		c21.53,0.09,46.52,0.19,70.62,0.28C217.1,50.1,232.61,50.16,246.47,50.2z"/>
	<path class="st7" d="M170.5,108.02c0.31-1.46,0.69-2.84,1.17-4.25c0.41-1.18,0.81-2.37,1.05-3.59c0.01-0.17,0.02-0.33,0.02-0.5
		c0.01-0.5,0.1-0.98,0.25-1.42c-0.64-3.13-1.27-4.59-1.27-4.59s13.24-0.06,26.21-0.03c1.97-15.21,5.95-33.59,7.23-43.5
		c-24.1-0.09-53.04-0.26-74.57-0.35c-0.01,0.04-0.01,0.08-0.02,0.12c-1.23,8.4-3.7,25.12-6.35,43.12
		c-1.2,8.16-2.45,16.59-3.63,24.61c9.63-0.04,25.48-0.12,39.85-0.2c2.9-0.02,5.73-0.03,8.45-0.05
		C169.24,114.22,169.85,111.12,170.5,108.02z"/>
	<path class="st1" d="M236.46,122.34L236.46,122.34c0,0.06-0.01,0.11-0.01,0.16c-0.24,3.53-0.64,6.94-1.12,10.2
		c-0.01,0.06-0.02,0.11-0.02,0.16c-0.46,3.13-1,6.12-1.55,8.9c-0.01,0.06-0.02,0.11-0.03,0.16c-0.75,3.81-1.52,7.25-2.14,10.2
		c-0.01,0.05-0.02,0.11-0.03,0.16c-0.62,2.99-1.08,5.47-1.21,7.32c-14.26-0.05-29.54-0.11-44.77-0.17c0.37-1.19,1.16-3.84,2.17-7.21
		c0.01-0.05,0.03-0.11,0.05-0.16c0.9-3.01,1.96-6.58,3.04-10.19c0.02-0.05,0.03-0.11,0.05-0.16c0.9-3.04,1.81-6.1,2.63-8.9
		c0.02-0.06,0.03-0.11,0.05-0.16c1.35-4.58,2.46-8.43,2.95-10.19c0.01-0.06,0.03-0.11,0.04-0.16c0.09,0,2.96,0.01,7.28,0.01h0.42
		C212.92,122.32,227.07,122.33,236.46,122.34z"/>
	<path class="st2" d="M164.88,159.38c-8.9-0.04-17.6-0.07-25.88-0.11c-1.04,0-2.07-0.01-3.09-0.01c-7.6-0.03-14.81-0.07-21.46-0.1
		c0.79-5.31,4.38-29.53,6.83-46.11l18.24,0.11L164.88,159.38z"/>
	<g>
		<path class="st2" d="M119.94,121.99c-0.01,0.06-0.02,0.11-0.02,0.16c-8.17-0.05-16.33-0.11-24.5-0.17
			c-7.67-0.06-15.34-0.12-23.01-0.19c-9.16-0.08-18.32-0.17-27.48-0.27c0.01-0.05,0.01-0.11,0.02-0.16
			c0.65,0.01,1.31,0.01,1.96,0.02c8.97,0.09,17.95,0.18,26.92,0.26c9.52,0.09,19.05,0.16,28.57,0.23
			C108.25,121.91,114.1,121.95,119.94,121.99z"/>
		<path class="st2" d="M316.66,122.13c-0.01,0.06-0.02,0.11-0.02,0.16c-8.61,0.04-17.23,0.08-25.84,0.11
			c-9.46,0.03-18.93,0.06-28.39,0.07c-8.65,0.01-17.31,0.02-25.96,0.03c-9.93,0-19.86,0-29.79-0.02c-3.39,0-6.78-0.01-10.17-0.02
			c0.01-0.06,0.03-0.11,0.04-0.16c0.09,0,2.96,0.01,7.28,0.01h0.42c3.14,0,6.28,0.01,9.42,0.01c7.6,0.01,15.21,0.01,22.81,0.01
			c10.98,0,21.96-0.01,32.94-0.04c7.1-0.02,14.21-0.04,21.31-0.06C299.36,122.21,308.01,122.17,316.66,122.13z"/>
		<path class="st2" d="M315.24,132.5c-0.01,0.05-0.01,0.11-0.02,0.16c-6.21,0.03-12.42,0.06-18.64,0.08
			c-11.39,0.04-22.78,0.07-34.17,0.09c-9.04,0.02-18.07,0.02-27.1,0.03c-9.55,0-19.1,0-28.64-0.02c-4.39-0.01-8.78-0.01-13.16-0.02
			c0.02-0.06,0.03-0.11,0.05-0.16c6.7,0.02,13.41,0.03,20.11,0.03c7.23,0.01,14.45,0.01,21.68,0.01c11.36,0,22.71-0.01,34.07-0.04
			c9.03-0.02,18.06-0.05,27.09-0.08C302.74,132.56,308.99,132.53,315.24,132.5z"/>
		<path class="st2" d="M118.41,132.34c-0.01,0.05-0.02,0.11-0.02,0.16c-7.66-0.05-15.32-0.1-22.97-0.16
			c-17.3-0.13-34.6-0.29-51.91-0.48c0.01-0.05,0.01-0.11,0.02-0.16c1.13,0.01,2.26,0.02,3.38,0.04c18.5,0.19,37,0.36,55.49,0.49
			C107.74,132.27,113.08,132.31,118.41,132.34z"/>
		<path class="st2" d="M117.07,141.4c-0.01,0.06-0.02,0.11-0.02,0.16c-7.32-0.05-14.64-0.1-21.96-0.15
			c-17.61-0.14-35.22-0.3-52.83-0.49c0.01-0.05,0.01-0.11,0.02-0.16c1.43,0.02,2.87,0.03,4.31,0.05c18.5,0.19,37,0.36,55.49,0.49
			C107.08,141.34,112.08,141.37,117.07,141.4z"/>
		<path class="st2" d="M313.99,141.57c-0.01,0.05-0.01,0.11-0.02,0.16c-4.12,0.02-8.23,0.04-12.35,0.06
			c-13.18,0.05-26.36,0.09-39.54,0.11c-9.45,0.02-18.91,0.03-28.36,0.03c-9.13,0-18.26,0-27.38-0.02
			c-5.17-0.01-10.35-0.02-15.52-0.03c0.02-0.05,0.03-0.11,0.05-0.16c7.49,0.02,14.97,0.03,22.46,0.04
			c6.81,0.01,13.62,0.01,20.42,0.01c11.78,0,23.55-0.01,35.32-0.04c10.82-0.02,21.64-0.06,32.45-0.1
			C305.68,141.61,309.84,141.59,313.99,141.57z"/>
		<path class="st2" d="M115.54,151.76c-0.01,0.05-0.02,0.11-0.02,0.16c-6.81-0.04-13.62-0.09-20.43-0.14
			c-18.09-0.14-36.17-0.31-54.25-0.5c0.01-0.05,0.01-0.11,0.02-0.16c1.91,0.02,3.82,0.04,5.73,0.06c18.5,0.19,37,0.36,55.49,0.49
			C106.57,151.7,111.06,151.73,115.54,151.76z"/>
		<path class="st2" d="M312.56,151.94c-0.01,0.06-0.02,0.11-0.02,0.16c-1.73,0.01-3.46,0.02-5.18,0.02
			c-15.09,0.06-30.18,0.11-45.27,0.14c-10.18,0.02-20.36,0.03-30.54,0.03c-8.4,0-16.81-0.01-25.21-0.02
			c-6.2-0.01-12.4-0.02-18.6-0.04c0.01-0.05,0.03-0.11,0.05-0.16c8.52,0.02,17.03,0.04,25.55,0.05c6.08,0.01,12.17,0.01,18.25,0.01
			c12.5,0,25-0.01,37.49-0.04c12.73-0.03,25.46-0.07,38.19-0.12C309.03,151.96,310.8,151.95,312.56,151.94z"/>
	</g>
	<g>
		<path class="st8" d="M204.54,81.56c-0.18,0.63-0.4,1.26-0.63,1.88c-0.47,1.26,0.33,1.15,0.01,1.1c-0.72-0.1-5.42,2.41-6.15,2.36
			c-0.36-0.02-0.72-0.04-1.09-0.05c-0.21-0.01-0.41-0.01-0.62-0.01c-0.07,0-0.4,0.05-0.47,0c-0.17-0.14-0.02-0.76-0.01-0.98
			c0.02-0.41,0.05-0.81,0.07-1.22c0-0.03-0.01-0.06-0.04-0.07c1.41-0.5,2.45-1.61,3.46-2.67c0.28-0.29,0.55-0.6,0.85-0.86
			c0.43-0.36,0.92-0.54,1.47-0.6c0.94-0.11,1.91-0.07,2.85,0c0,0.06,0.02,0.11,0.07,0.19c0.13,0.19,0.23,0.14,0.27,0.46
			C204.63,81.25,204.58,81.41,204.54,81.56z"/>
		<path class="st9" d="M197.36,87.58c-0.46-1.27-1.07-2.49-1.8-3.64c-0.02-0.03-0.06-0.05-0.1-0.04c-1.07,0.2-2.12,0.47-3.15,0.83
			c-0.01-0.01-0.02-0.01-0.03-0.02c-0.03-0.01-0.09,0-0.1,0.03c0,0.01-0.01,0.01-0.01,0.02c0,0,0,0.01,0,0.01
			c-0.14,0.05-0.28,0.1-0.42,0.15c-0.11,0.04-0.02,0.19,0.08,0.15c0.15-0.06,0.3-0.11,0.45-0.16c0.16,0.42,0.64,1.5,0.67,1.6
			c0.2,0.6,0.31,1.22,0.25,1.85c0,0.06,0.05,0.1,0.11,0.09c1.33-0.26,2.66-0.51,3.98-0.77C197.34,87.67,197.38,87.62,197.36,87.58z"
			/>
		<path class="st0" d="M194.22,85.77c-0.14-0.43-0.45-1.41-0.61-1.82c-2.15,0.28-4.15,0.98-6.32,0.95
			c-1.58-0.02-3.34,0.02-4.82-0.63c-0.92-0.41-1.49-1.1-1.88-1.91c-0.29,0.66-0.68,1.29-1.06,1.94c-0.15,1.08-0.15,2.18,0.04,3.26
			c0.33,1.93,0.59,2.02,2.07,3.32c0.75,0.65,1.65,1.18,2.61,1.43c1.14,0.3,2.25,0.09,3.34-0.28c2.35-0.81,4.65-1.82,6.88-2.92
			c0.21-0.1,0.46-0.2,0.71-0.32C194.48,87.24,194.72,87.37,194.22,85.77z"/>
		<path class="st10" d="M219.89,72.63c0,0-10.97-4.2-11-4.13c-2.21,5.54-4.59,12-6.81,17.54l-1.73,3.84c0,0,0,0.01-0.01,0.01l0,0.01
			c-0.03,0.06,0.03,0.11,0.08,0.1c0,0,0,0,0,0c2.7-0.06,5.41-0.13,8.11-0.23c0.04,0.05,0.13,0.05,0.16-0.03
			c2.21-5.54,9.21-15.01,9.21-15.01l1.78-1.65L219.89,72.63z"/>
		<path class="st1" d="M209.33,69.18c-1.89,4.84-7.97,20.37-7.97,20.37c0,0,0,0.01,0,0.01l0,0.01c-0.02,0.06,0.02,0.11,0.07,0.13
			c0,0,0,0,0,0c2.22,0.78,9.34,4.53,9.37,4.46c1.89-4.84,5.33-12.17,7.22-17.01c0.54-1.39,1.09-2.78,1.63-4.17
			C219.67,72.92,209.35,69.12,209.33,69.18z"/>
		<path class="st11" d="M210.3,87.15c-1.18,0.36-2.38,0.6-3.61,0.73c-0.11,0.01-0.11,0.19,0,0.18c1.24-0.13,2.46-0.37,3.66-0.74
			C210.46,87.29,210.41,87.12,210.3,87.15z"/>
		<path class="st10" d="M219.61,72.97c-0.01-0.01-0.03-0.02-0.05-0.01c-2.69,0.05-5.38,0.08-8.08,0.09
			c-0.04-0.03-0.12-0.03-0.15,0.04c-2.3,5.51-4.61,11.01-6.91,16.52l-1.98,4.72c0,0,0,0.01-0.01,0.01l0,0.01
			c-0.03,0.06,0.03,0.11,0.08,0.11c0,0,0,0,0,0c2.71-0.01,5.41-0.04,8.12-0.09c0.04,0.05,0.13,0.05,0.16-0.03
			c2.3-5.51,4.61-11.01,6.91-16.52c0.66-1.58,1.32-3.16,1.99-4.74C219.73,73.01,219.67,72.97,219.61,72.97z"/>
		<path class="st0" d="M146.23,136.26c-0.79,1.34-9.59,19.23-11.68,23.26c-1.14-0.01-1.08-0.01-2.2-0.01
			c1.32-3.33,6.87-17.68,8.97-23.65c0.43,0.02,0.86,0.03,1.25,0.06C144.19,136.05,144.62,136.12,146.23,136.26z"/>
		<path class="st0" d="M152.95,136.36c0.58,1.34,6.6,19.23,8.06,23.26c1.14-0.01,1.08-0.01,2.21-0.01
			c-0.8-3.33-4.12-17.68-5.28-23.65c-0.44,0.02-0.86,0.03-1.26,0.06C155.03,136.15,154.59,136.22,152.95,136.36z"/>
		<path class="st8" d="M210.88,85.94c0.05-0.04,0.1-0.08,0.15-0.12c0.17-0.16,0.46-0.56,0.14-0.74c-0.19-0.11-3.32,0.89-4.47,1.07
			c-1,0.15-2.38,0.22-2.86,0.04c0.7-0.38,1.4-0.76,2.09-1.14c0.37-0.2,1.12-0.59,0.82-1.09c-0.02-0.03-0.05-0.05-0.09-0.04
			c-1.08,0.21-2.19,0.42-3.21,0.89c-0.99,0.46-1.77,1.17-2.52,1.96c-0.84,0.88-1.42,2.54-2.41,3.25c-0.81,0.58-1.95,1.25-2.86,1.65
			c0.22,0.53,0.38,0.12,0.55,0.71c0.21,0.73,0.45,1.49,0.76,2.21c1.29-1.14,2.22-1.91,3.79-2.47c1.51-0.54,6.47-1.35,7.56-1.79
			c0.85-0.34,1.75-1.07,1.63-2.03c0.53-0.36,0.93-0.8,0.47-1.08c0.24-0.18,0.45-0.39,0.6-0.64
			C211.18,86.33,211.1,86.02,210.88,85.94z"/>
		<path class="st9" d="M201.26,93.09c-0.62-1.27-1.37-2.46-2.24-3.56c-0.03-0.03-0.06-0.05-0.1-0.03c-1.04,0.34-2.05,0.75-3.02,1.25
			c-0.01,0-0.02-0.01-0.04-0.01c-0.03-0.01-0.08,0.01-0.1,0.05c0,0.01-0.01,0.02-0.01,0.02c0,0.01,0,0.01,0,0.01
			c-0.13,0.07-0.27,0.14-0.4,0.21c-0.1,0.05,0,0.2,0.1,0.15c0.14-0.08,0.29-0.15,0.43-0.23c0.21,0.42,0.82,1.48,0.87,1.58
			c0.27,0.6,0.46,1.23,0.48,1.89c0,0.06,0.06,0.1,0.12,0.08c1.29-0.43,2.57-0.86,3.86-1.29C201.25,93.19,201.28,93.13,201.26,93.09z
			"/>
		<path class="st10" d="M174.07,138.47c-0.41-0.21-0.85-0.19-1.28,0.06c-0.18,0.01-0.37,0.02-0.55,0.03
			c0.59-2.06,1.12-4.14,1.28-6.24c0.17-2.26-0.05-4.78-1.34-6.61c-1.4-1.97-4.01-2.11-6.3-2.44c-2.75-0.39-5.52-0.73-8.3-1.02
			c-2.33-0.24-4.67-0.43-7.01-0.59c0.43-2.18,0.85-4.36,1.28-6.54c0.74-3.81,1.51-7.64,1.77-11.49c0.23-3.45,0.1-7.05-1.05-10.25
			c-0.88-2.46-2.63-4.97-5.42-5.46c-2.43-0.43-5.5,0.67-6.41,3.25c-0.04,0.12-5.91,21.48-7.19,32.85c-0.3,2.67-0.56,5.44,0.19,7.98
			c0.61,2.09,1.89,3.93,3.9,4.86c2.24,1.03,4.98,1.11,7.46,1.35c2.96,0.29,5.94,0.51,8.93,0.65c5.95,0.28,11.95,0.25,17.94-0.08
			c-0.12,0.4-0.23,0.79-0.35,1.18c-0.04,0.12,0.15,0.18,0.19,0.05c0.12-0.42,0.25-0.83,0.37-1.25c0.61-0.03,1.22-0.07,1.82-0.11
			C174.1,138.65,174.16,138.52,174.07,138.47z"/>
		<path class="st8" d="M174.77,144.77c-2.1-0.09-4.2-0.19-6.3-0.28c0.19-0.28,0.38-0.56,0.57-0.84c0.06-0.08-0.07-0.16-0.12-0.07
			c-0.21,0.3-0.41,0.6-0.62,0.91c-0.64-0.03-1.29-0.06-1.93-0.09c-0.1,0-0.11,0.14-0.01,0.15c0.61,0.03,1.23,0.05,1.84,0.08
			c-2.65,3.88-5.29,7.76-7.91,11.65c-0.03,0.04-0.01,0.1,0.04,0.11c0.64,0.1,1.27,0.21,1.91,0.31c0.42,0.07,0.99,0.27,1.43,0.12
			c0.47-0.17,0.87-0.75,1.2-1.1c0.47-0.49,0.94-0.98,1.4-1.47c1.85-1.95,3.67-3.92,5.48-5.91c1.03-1.13,2.05-2.28,3.07-3.42
			C174.85,144.85,174.83,144.77,174.77,144.77z"/>
		<path class="st8" d="M188.64,55.74c-0.38-0.69-1.04-1.16-1.81-1.33c0.05,0.07-0.01,0.19-0.11,0.15c-1.78-0.65-3.68,0.16-5.19,1.31
			c-4.53,3.42-6.82,8.92-8.07,14.11c0,0.01-0.01,0.03-0.02,0.04c0.31,0.19,1.6,0.47,1.76,0.51c0.56,0.14,1.13,0.29,1.69,0.43
			l3.48,0.88c1.02,0.26,2.04,0.58,3.09,0.76c1.19,0.2,2.43-0.08,2.93-1.36c0.26-0.67,0.48-1.35,0.68-2.05
			c0.11-0.37,0.21-0.75,0.3-1.12c0.07-0.26,0.13-0.52,0.19-0.78c0.19-0.8,0.35-1.6,0.51-2.39c0.11-0.52,0.2-1.05,0.29-1.57
			c0.06-0.33,0.11-0.66,0.15-0.98c0.07-0.49,0.14-0.97,0.19-1.46c0.09-0.74,0.16-1.47,0.22-2.21
			C188.98,57.69,189.11,56.6,188.64,55.74z"/>
		<path class="st8" d="M182.82,65.6c-1.84-1.52-3.89-2.78-6.09-3.76c0.09-0.15,0.19-0.3,0.28-0.45c0.07-0.11-0.09-0.21-0.16-0.1
			c-0.1,0.16-0.2,0.31-0.29,0.47c-0.01,0-0.02-0.01-0.03-0.01c-0.11-0.05-0.23,0.12-0.11,0.17c0.01,0.01,0.02,0.01,0.04,0.02
			c-3.5,5.64-7.01,11.28-10.51,16.92c-0.04,0.06-0.01,0.13,0.05,0.14l6.93,2.26c0.04,0.01,0.09-0.01,0.12-0.05
			c3.27-5.17,6.53-10.33,9.8-15.5C182.85,65.68,182.85,65.63,182.82,65.6z"/>
		<path class="st0" d="M191.31,122.35c-0.47,1.45-1.17,2.83-1.91,4.18c-0.81,1.49-1.68,2.95-2.6,4.39
			c-3.67,5.74-8.05,11.03-12.4,16.3c-0.55,0.66-2.52,3.11-3,3.63c-0.85-0.25-2.53-0.62-4.43-0.99c-0.06-0.01-0.12-0.02-0.19-0.04
			c-3.87-0.76-8.51-1.55-8.68-1.59c0.31-0.43,0.61-0.88,0.88-1.33c0.65-1.08,1.18-2.22,1.83-3.31c0.52-0.87,1.13-1.69,1.89-2.38
			c0.66-0.6,1.4-1.12,2.12-1.64c0.79-0.57,1.59-1.15,2.25-1.86c0.77-0.83,1.2-1.78,1.39-2.86c0.18-0.95,0.22-1.91,0.55-2.84
			c0.32-0.9,0.92-1.55,1.69-2.13c0.62-0.47,1.23-0.9,1.75-1.45c-1.75,0.14-3.5,0.28-5.25,0.42c-3.56,0.28-7.14,0.51-10.67,0.31
			c-2.96-0.17-6.38-0.45-8.68-2.31c-1.94-1.57-2.69-4.14-2.63-6.64c0.03-1.27,0.27-2.52,0.64-3.75c0.02-0.06,0.03-0.11,0.05-0.17
			c0.54-1.79,1.34-3.53,2.11-5.23c-0.25-0.01-0.5-0.02-0.74-0.04c-0.13-0.01-0.11-0.2,0.02-0.2c0.27,0.01,0.55,0.03,0.82,0.04
			c0.05-0.06,0.15-0.05,0.17,0.01c0.59,0.03,1.18,0.06,1.77,0.09c7.32,0.38,14.65,0.76,21.95,1.26c0.34,0.02,0.68,0.05,1.01,0.07
			c0.13,0.01,0.25,0.02,0.38,0.03c3.2,0.23,6.4,0.48,9.6,0.77c2.42,0.22,5.09,0.53,6.96,2.07
			C192.11,116.91,192.16,119.76,191.31,122.35z"/>
		<path class="st0" d="M172.2,159.1c-0.62-1.02-2.42-1.32-3.62-1.53c-1.65-0.28-2.58-0.37-2.73-0.46c-0.29-0.06-0.32-0.26-0.08-0.61
			c0.06-0.09,0.97-1.89,0.66-2.22c-0.73-0.79-2.6,0.28-3.39,0.75c-0.28-0.7-0.94-1.16-1.81-1.23c-0.06,0-0.11,0.04-0.13,0.08
			c-0.01,0.03-2.66,3.35-3.63,4.98c-0.2,0.34-0.25,0.61,0.16,0.77c0.78,0.31,2.22,0.15,3.08,0.15c0.29,0,0.31-0.02,0.56-0.18
			c0.12-0.07,0.35-0.73,1.01-0.52c0.16,0.05,0.24,0.27,0.29,0.39c0.07,0.19,0.04,0.31,0.25,0.42c0.25,0.13,7.25,0.47,8.29,0.39
			C171.84,160.24,172.22,159.13,172.2,159.1z"/>
		<path class="st0" d="M190.81,57.98c-0.05-0.31-0.19-0.57-0.38-0.82c-0.14-0.19-0.3-0.38-0.42-0.59c-0.16-0.29-0.22-0.61-0.33-0.92
			c-0.59-1.62-2.3-2.32-3.9-2.46c-1.11-0.1-2.24,0-3.35,0.03c-1.03,0.03-2.05,0.07-3.07,0.2c-1.8,0.24-3.59,0.8-4.97,2.04
			c-0.66,0.59-1.2,1.33-1.51,2.18c-0.37,1.04-0.35,2.17-0.19,3.25c0.31,2.18,1.2,4.59,0.21,6.7c1.53-0.2,5.95-0.58,6.47-0.77
			c0.78-0.28,1.52-0.72,2.07-1.35c0.45-0.51,0.64-1.07,0.78-1.67c0.26-0.18,0.55-0.26,0.9-0.18c0.32,0.08,0.61,0.24,0.96,0.21
			c0.31-0.02,0.58-0.18,0.81-0.37c0.61-0.51,1.03-1.26,1.52-1.88c0.32-0.4,0.66-0.78,1.04-1.13c0.13-0.1,0.26-0.19,0.4-0.27
			c0.72-0.39,1.56,0.01,2.24-0.51C190.6,59.3,190.9,58.62,190.81,57.98z"/>
		<path class="st8" d="M188.55,64.61c-0.09-0.43-0.15-0.86-0.21-1.29c-0.03-0.24-0.06-0.49-0.08-0.73c-0.01-0.1-0.19-0.1-0.18,0
			c0.01,0.12,0.03,0.24,0.04,0.37c-0.02,0.01-0.04,0.02-0.04,0.04c-0.69,1.43-1.28,2.89-1.77,4.38c-0.02,0.06,0.04,0.11,0.11,0.1
			c0.32-0.06,0.73-0.11,1.13-0.19c0.69-0.15,1.33-0.43,1.33-1.08C188.88,65.67,188.66,65.13,188.55,64.61z"/>
		
			<ellipse transform="matrix(0.1758 -0.9844 0.9844 0.1758 91.4082 237.0415)" class="st0" cx="187.27" cy="63.93" rx="0.98" ry="0.47"/>
		<path class="st8" d="M183.29,63.74c-0.38-0.47-0.99-0.73-1.59-0.39c-0.89,0.51-0.66,1.79-0.43,2.6c0.11,0.39,0.24,0.88,0.61,1.11
			c0.28,0.17,0.61,0.15,0.83-0.1c0.28-0.34,0.28-0.85,0.3-1.26c0.03-0.49,0.11-0.94,0.27-1.38
			C183.29,64.12,183.29,63.93,183.29,63.74z"/>
		<path class="st11" d="M182.94,65.93c-0.64-0.14-0.25-1.34-0.46-1.8c-0.07-0.15-0.27-0.37-0.41-0.17c-0.06,0.1,0.09,0.19,0.15,0.09
			c0.05-0.07,0.15,0.46,0.15,0.52c0.01,0.12,0.01,0.24,0.01,0.36c0,0.2-0.01,0.41,0.02,0.61c0.04,0.3,0.18,0.5,0.48,0.56
			C183,66.13,183.05,65.96,182.94,65.93z"/>
		<path class="st11" d="M209.69,88.33c-1.3,0.5-2.65,0.88-4.02,1.14c-0.11,0.02-0.06,0.19,0.05,0.17c1.37-0.26,2.71-0.64,4.02-1.14
			C209.84,88.46,209.8,88.29,209.69,88.33z"/>
		<path class="st11" d="M210.25,87.15c-1.3,0.5-2.65,0.88-4.02,1.14c-0.11,0.02-0.06,0.19,0.05,0.17c1.37-0.26,2.71-0.64,4.02-1.14
			C210.4,87.28,210.35,87.11,210.25,87.15z"/>
		<path class="st11" d="M210.4,86.01c-1.3,0.5-2.65,0.88-4.02,1.14c-0.11,0.02-0.06,0.19,0.05,0.17c1.37-0.26,2.71-0.64,4.02-1.14
			C210.55,86.14,210.51,85.97,210.4,86.01z"/>
		<path class="st11" d="M185.83,68.56c-0.07,0.02-0.09,0.13-0.02,0.16c0.29,0.14,0.58,0.26,0.89,0.35c0.09,0.03,0.23,0.08,0.35,0.11
			c0.11-0.37,0.21-0.75,0.3-1.12C186.89,68.3,186.33,68.41,185.83,68.56z"/>
		<path class="st0" d="M187.03,61.23c-0.27,0.18-0.6,0.67-0.24,0.91c0.22,0.14,0.64,0.12,0.89,0.14c0.27,0.02,0.55,0.06,0.82,0.06
			c0.07-0.49,0.14-0.97,0.19-1.46C188.11,60.87,187.47,60.94,187.03,61.23z"/>
		<path class="st9" d="M178.42,73.88c-0.39-0.35-0.81-0.67-1.21-1c-1.49-1.22-2.98-2.43-4.49-3.63c-0.2-0.16-0.43-0.43-0.71-0.31
			c-0.31,0.13-0.61,0.53-0.85,0.76c-0.73,0.71-1.41,1.48-2.03,2.28c-0.07,0.09,0.06,0.22,0.13,0.13c0.01-0.01,0.02-0.02,0.03-0.04
			c1.6,1.07,3.21,2.13,4.81,3.2c0.81,0.54,1.61,1.07,2.42,1.61c0.15,0.1,0.42,0.37,0.63,0.31c0.25-0.07,0.42-0.52,0.54-0.72
			c0.22-0.37,0.42-0.75,0.6-1.15c0.14-0.3,0.37-0.69,0.38-1.02C178.66,74.11,178.56,74,178.42,73.88z"/>
		<path class="st0" d="M199.45,95.37c-1.85,1.09-6.61,4.04-8.49,4.82c-1.68,0.7-5.84,2.57-8.91,1.13c-0.71-0.33-2.48-2.04-4.33-3.95
			c-0.04-0.04-0.08-0.08-0.12-0.12c-0.02,0.06-0.03,0.12-0.05,0.19c-1.15,4.24-2.45,8.46-3.89,12.64c-0.37,1.05-0.71,2.12-1.28,3.1
			c-0.51,0.88-1.21,1.62-2.04,2.22c-1.8,1.3-8.95,3.1-11.05,3.63c-5.48,1.38-11.71-1.55-14.06-3.1c-0.67-0.45-1.31-1.04-1.39-1.9
			c-0.1-1.07,0.56-2.16,1.02-3.13c1.09-2.34,2.18-4.68,3.28-7.02c2.18-4.65,4.38-9.3,6.68-13.91c3.79-7.59,7.77-15.8,15.76-19.68
			c0.21,0.09,6.76,4.8,7.44,5.52c0.91,0.97,1.08,1.25,1.5,2.1c0.06,0.12,0.12,0.25,0.19,0.4c0.06,0.12,0.12,0.25,0.19,0.39
			c1.82,3.1,4.92,14.07,6.71,13.99c2.01-0.1,8.32-2.58,8.32-2.58c0.28-0.17,0.64-0.46,0.99-0.4c0.26,0.05,0.41,0.3,0.55,0.5
			c0.59,0.8,1.17,1.61,1.76,2.41c0.29,0.4,0.74,1.28,1.03,1.68C199.45,94.55,199.93,95.09,199.45,95.37z"/>
		<path class="st12" d="M176.82,95.83c0.3,0.51,0.59,1.03,0.9,1.54c-0.04-0.04-0.08-0.08-0.12-0.12c-0.02,0.06-0.03,0.12-0.05,0.19
			c-0.6-1.02-1.19-2.05-1.78-3.08c-1.42-2.48-2.93-4.93-4.25-7.46c-1.09-2.1-1.91-4.43-1.49-6.82c0.38-2.19,1.92-4.26,4.32-4.19
			c1.87,0.05,3.7,0.84,5.16,2.03c0.06,0.12,0.12,0.25,0.19,0.4c-0.76-0.68-1.64-1.23-2.58-1.62c-1.23-0.5-2.78-0.89-4.08-0.46
			c-2.3,0.76-3.08,3.61-2.93,5.77c0.18,2.48,1.47,4.71,2.68,6.82C174.14,91.16,175.48,93.49,176.82,95.83z"/>
		<path class="st12" d="M173.42,112.34c-1.52,0.67-3.04,1.34-4.56,2.01c-3.66,1.61-7.44,3.28-11.49,3.51
			c-2.2,0.12-4.38-0.25-6.54-0.6c-1.65-0.27-3.3-0.53-4.95-0.79c0.02-0.06,0.03-0.11,0.05-0.17c1.86,0.3,3.73,0.6,5.59,0.89
			c2.1,0.33,4.21,0.63,6.34,0.45c2.08-0.18,4.11-0.73,6.06-1.44c1.95-0.71,3.85-1.56,5.75-2.4c1.13-0.5,2.25-0.99,3.38-1.49
			C173.17,112.32,173.3,112.33,173.42,112.34z"/>
		<path class="st12" d="M180.98,122.54c-0.14,1.7-0.88,3.34-1.68,4.82c-0.89,1.64-1.97,3.16-2.98,4.72
			c-1.07,1.66-2.01,3.37-2.67,5.24c-0.69,1.96-1.29,3.91-2.25,5.76c-1.25,2.39-2.8,4.62-4.41,6.79c-0.06-0.01-0.12-0.02-0.19-0.04
			c1.9-2.55,3.72-5.18,5.04-8.06c0.88-1.92,1.36-3.97,2.19-5.91c0.73-1.72,1.75-3.28,2.77-4.84c1.02-1.54,2.07-3.09,2.87-4.76
			c0.75-1.58,1.47-3.5,1.05-5.27c-0.23-0.98-0.87-1.71-1.82-2.05c-0.93-0.33-1.99-0.35-2.96-0.38c-2.21-0.07-4.42,0.15-6.61,0.38
			c-2.2,0.23-4.4,0.48-6.61,0.46c-0.97-0.01-2.04,0.01-2.99-0.23c-0.69-0.18-1.33-0.67-1.3-1.44c0-0.11,0.18-0.12,0.18,0
			c-0.05,1.54,2.32,1.44,3.35,1.47c1.21,0.04,2.43-0.01,3.64-0.09c2.49-0.18,4.97-0.54,7.46-0.69c1.13-0.07,2.26-0.09,3.39-0.03
			c0.9,0.04,1.85,0.09,2.69,0.44C180.62,119.47,181.1,121.03,180.98,122.54z"/>
		<path class="st11" d="M203.03,82.44c-0.21-0.17-0.45-0.01-0.66,0.09c-0.49,0.23-0.93,0.5-1.37,0.82c-0.95,0.7-1.84,1.26-3.06,1.27
			c-0.1,0-0.1,0.16,0,0.16c0.9-0.01,1.72-0.29,2.46-0.79c0.39-0.26,0.75-0.56,1.14-0.82c0.19-0.13,1.16-0.79,1.37-0.62
			C203,82.62,203.11,82.5,203.03,82.44z"/>
	</g>
	<polygon class="st0" points="126.21,18.73 118.39,10.96 115.63,11.38 123.46,19.14 	"/>
	<polygon class="st0" points="242.44,27.38 233.88,27.38 214.34,8 222.9,8 	"/>
	<polygon class="st12" points="70.51,80.42 62.69,72.66 59.93,73.07 67.75,80.84 	"/>
	<polygon class="st0" points="46.22,94.02 38.4,86.26 35.64,86.67 43.47,94.44 	"/>
	<path class="st10" d="M277.45,157.53c0.77-9.26,1.54-18.62,0.42-27.88c-0.31-2.55-0.77-5.08-1.4-7.56
		c-0.01-0.06-0.07-0.07-0.11-0.05c-0.01-0.01-0.03-0.02-0.05-0.02c-1.22,0.01-2.45,0.01-3.67,0.02c-0.01,0-0.02,0-0.03,0.01
		c-0.05-0.04-0.15,0-0.13,0.09c2.28,8.99,2.2,18.35,1.59,27.54c-0.17,2.62-0.39,5.24-0.61,7.86c0,0.04,0.02,0.07,0.05,0.07
		c0.01,0.01,0.02,0.01,0.04,0.01h3.83C277.43,157.62,277.45,157.58,277.45,157.53C277.45,157.53,277.45,157.53,277.45,157.53z"/>
	<path class="st10" d="M252.46,65.09c1.3-0.03,2.6-0.04,3.9,0.04c0.04,0,0.07,0.01,0.11,0.01c0.15-4.63,0.05-9.26-0.51-13.87
		c-0.31-2.55-0.77-5.08-1.4-7.56c-0.01-0.06-0.07-0.07-0.11-0.05c-0.01-0.01-0.03-0.02-0.05-0.02c-1.22,0.01-2.45,0.01-3.67,0.02
		c-0.01,0-0.02,0-0.03,0.01c-0.05-0.04-0.15,0-0.13,0.09C252.34,50.73,252.68,57.92,252.46,65.09z"/>
	<path class="st10" d="M94.76,98.51c-1.31-0.08-2.62-0.07-3.93-0.04c-0.07,1.74-0.16,3.47-0.28,5.2c-0.17,2.62-0.39,5.24-0.61,7.86
		c0,0.04,0.02,0.07,0.05,0.07c0.01,0.01,0.02,0.01,0.04,0.01h3.83c0.05,0,0.08-0.04,0.08-0.09c0,0,0,0,0,0
		c0.36-4.32,0.72-8.67,0.89-13.02C94.81,98.52,94.79,98.51,94.76,98.51z"/>
	<path class="st10" d="M87.84,188.64c0.34,1.4,0.86,2.75,1.46,4.05c1.26,2.72,2.87,5.29,4.45,7.85c0.79,1.29,1.6,2.56,2.42,3.83
		h4.98c-0.63-0.98-1.26-1.96-1.87-2.94c-1.6-2.56-3.21-5.14-4.57-7.84c-0.68-1.36-1.29-2.76-1.71-4.23c-0.4-1.36-0.6-2.76-0.74-4.16
		c-0.28-2.79-0.43-5.78-2.17-8.11c-0.03-0.04-0.07-0.04-0.1-0.03h-4.73c-0.06-0.01-0.14,0.05-0.09,0.11
		c1.63,2.18,1.85,4.96,2.1,7.58C87.38,186.06,87.53,187.37,87.84,188.64z"/>
	<path class="st0" d="M94.03,4.79c-0.26-1.01-0.56-2-0.91-2.98C92.9,3.95,91.83,14,90.51,24.94c0.03,0.03,0.05,0.06,0.08,0.1
		c0.05,0.03,0.1,0.05,0.15,0.07c0.87,0.39,1.68,0.02,2.25-0.69c1.29-1.63,1.75-3.88,1.99-5.89C95.54,13.96,95.18,9.25,94.03,4.79z"
		/>
	<path class="st0" d="M83.39,33.13c-0.23-2.9-0.61-5.79-1.14-8.65c-0.23,1.6-3.59,25.49-5.02,37.43c0.31,0.05,0.63,0.02,0.94-0.09
		c0.5-0.19,0.87-0.59,1.18-1.01c0.4-0.54,0.75-1.12,1.08-1.71c1.31-2.39,2.03-5.06,2.47-7.74c0.47-2.89,0.66-5.83,0.74-8.76
		C83.73,39.44,83.65,36.28,83.39,33.13z"/>
	<path class="st0" d="M40.49,65.68c-0.09-0.01-0.14-0.01-0.14-0.01s-0.2,1.66-0.57,7.25c0.11,0.12,0.22,0.26,0.34,0.4
		c0.32,0.05,0.65-0.04,0.94-0.34c0.57-0.59,0.64-1.62,0.7-2.37C41.9,68.89,41.49,67.14,40.49,65.68z"/>
	<path class="st0" d="M16.42,88.56c-0.16-3.45-0.55-6.9-1.23-10.29c-0.07,0-0.12-0.01-0.15-0.01c-0.02,0-0.03,0-0.03,0
		s-4.39,37.19-5.86,49.54c0.01,0.01,0.02,0.02,0.02,0.03c0.27-0.03,0.55-0.1,0.83-0.24c1.39-0.68,2.16-2.3,2.71-3.66
		c0.71-1.79,1.13-3.71,1.49-5.6c0.39-1.98,0.68-3.97,0.92-5.96C16.1,104.5,16.79,96.5,16.42,88.56z"/>
	<path class="st0" d="M3.86,129.83c-0.01-0.03-0.04-0.06-0.08-0.06c-0.29,0.01-0.41,0.25-0.51,0.5c-0.21,0.5-0.39,1.02-0.55,1.54
		c-0.31,1.02-0.54,2.07-0.67,3.13c-0.14,1.08-0.18,2.17-0.12,3.25c0.06,1.18,0.27,2.37-0.01,3.54c-0.02,0.1,0.13,0.14,0.16,0.04
		c0.06-0.26,0.1-0.53,0.13-0.8c0.27,0.71,1.21,0.93,1.89,0.55c1.04-0.6,1.18-1.94,1.24-3.02C5.52,135.54,4.86,132.6,3.86,129.83z"/>
</g>
</svg>
