<?xml version="1.0" encoding="utf-8"?>
<!-- Generator: Adobe Illustrator 25.2.0, SVG Export Plug-In . SVG Version: 6.00 Build 0)  -->
<svg version="1.1" id="레이어_1" xmlns="http://www.w3.org/2000/svg" xmlns:xlink="http://www.w3.org/1999/xlink" x="0px"
	 y="0px" viewBox="0 0 617.49 235.04" style="enable-background:new 0 0 617.49 235.04;" xml:space="preserve">
<style type="text/css">
	.st0{fill:#6F5E61;}
	.st1{fill:#FFFFFF;}
	.st2{fill:#F3A699;}
	.st3{fill:#DB6969;}
	.st4{fill:#F8F0EB;}
	.st5{fill:#7A4848;}
	.st6{fill:#E57A65;}
	.st7{fill:#35303A;}
	.st8{fill:#522E2E;}
	.st9{fill:#F1CFB3;}
	.st10{fill:#789BB4;}
	.st11{fill:#AE4847;}
	.st12{fill:#DACAC1;}
	.st13{fill:#507691;}
	.st14{fill:#D6A576;}
</style>
<g>
	<g>
		<g>
			<path class="st0" d="M617.47,179.11c-1.96-3.68-18.54-12.7-22.2-14.79c-5.91-3.39-11.87-6.76-18.04-9.66
				c-14.12-6.63-28.44-12.97-42.89-18.84c-14.81-6.03-30.07-11.21-45.94-13.56c-16.25-2.41-32.72-2.04-49.1-1.64
				c-34.52,0.84-68.68-1.62-103.04-4.73c-32.43-2.94-226.2,18.57-249.07,21.45c-20.31,2.56-77.54,1.65-77.81,3.2
				c-0.85,5.26,51.17,29.5,56.42,32.35c19.29,10.49,38.58,20.99,57.88,31.48c8.06,4.38,35.37,20.7,42.04,20.7
				c6.67,0,149.87-11.94,160.14-13.24c44.2-5.6,88.52-10.29,132.78-15.4c31.56-3.65,63.12-7.29,94.68-10.93
				C569.04,183.68,618.54,181.11,617.47,179.11z"/>
		</g>
		<g>
			<path class="st1" d="M247.45,202.69c-0.1-0.3-0.29-0.59-0.57-0.78c-0.51-0.35-1.14-0.47-1.74-0.64
				c-1.33-0.39-2.42-1.18-3.59-1.87c-1.08-0.63-2.02-1.26-3.3-1.17c-0.5,0.03-0.78,0.43-0.69,0.91c0.28,1.58,1.84,2.11,3.19,2.59
				c1.13,0.4,2.18,0.8,3.21,1.44c0.69,0.43,1.53,1.14,2.38,1.15C247.35,204.33,247.69,203.44,247.45,202.69z"/>
		</g>
		<g>
			<path class="st1" d="M126.54,190.31c-0.1-0.3-0.29-0.59-0.57-0.78c-0.51-0.35-1.14-0.47-1.74-0.64
				c-1.33-0.39-2.42-1.18-3.59-1.87c-1.08-0.63-2.02-1.26-3.3-1.17c-0.5,0.03-0.78,0.43-0.69,0.91c0.28,1.58,1.84,2.11,3.19,2.59
				c1.13,0.4,2.18,0.8,3.21,1.44c0.69,0.43,1.53,1.14,2.38,1.15C126.44,191.96,126.79,191.07,126.54,190.31z"/>
		</g>
		<g>
			<path class="st1" d="M38.61,146.67c-0.1-0.3-0.29-0.59-0.57-0.78c-0.51-0.35-1.14-0.47-1.74-0.64c-1.33-0.39-2.42-1.18-3.59-1.87
				c-1.08-0.63-2.02-1.26-3.3-1.17c-0.5,0.03-0.78,0.43-0.69,0.91c0.28,1.58,1.84,2.11,3.19,2.59c1.13,0.4,2.18,0.8,3.21,1.44
				c0.69,0.43,1.53,1.14,2.38,1.15C38.51,148.32,38.86,147.43,38.61,146.67z"/>
		</g>
		<g>
			<path class="st1" d="M360.71,191.65c-0.1-0.3-0.29-0.59-0.57-0.78c-0.51-0.35-1.14-0.47-1.74-0.64
				c-1.33-0.39-2.42-1.18-3.59-1.87c-1.08-0.63-2.02-1.26-3.3-1.17c-0.5,0.03-0.78,0.43-0.69,0.91c0.28,1.58,1.84,2.11,3.19,2.59
				c1.13,0.4,2.18,0.8,3.21,1.44c0.69,0.43,1.53,1.14,2.38,1.15C360.61,193.29,360.95,192.4,360.71,191.65z"/>
		</g>
		<g>
			<path class="st1" d="M487.4,175.21c-0.1-0.3-0.29-0.59-0.57-0.78c-0.51-0.35-1.14-0.47-1.74-0.64c-1.33-0.39-2.42-1.18-3.59-1.87
				c-1.08-0.63-2.02-1.26-3.3-1.17c-0.5,0.03-0.78,0.43-0.69,0.91c0.28,1.58,1.84,2.11,3.19,2.59c1.13,0.4,2.18,0.8,3.21,1.44
				c0.69,0.43,1.53,1.14,2.39,1.15C487.3,176.85,487.64,175.97,487.4,175.21z"/>
		</g>
		<g>
			<path class="st1" d="M523.02,143.42c-0.1-0.3-0.29-0.59-0.57-0.78c-0.51-0.35-1.14-0.47-1.74-0.64
				c-1.33-0.39-2.42-1.18-3.59-1.87c-1.08-0.63-2.02-1.26-3.3-1.17c-0.5,0.03-0.78,0.43-0.69,0.91c0.28,1.58,1.84,2.11,3.19,2.59
				c1.14,0.4,2.18,0.8,3.21,1.44c0.69,0.43,1.53,1.14,2.39,1.15C522.92,145.06,523.27,144.18,523.02,143.42z"/>
		</g>
		<g>
			<path class="st1" d="M303.5,194.08c-0.28-0.16-0.61-0.23-0.95-0.19c-0.61,0.09-1.16,0.43-1.71,0.71
				c-1.24,0.62-2.57,0.78-3.91,1.07c-1.22,0.27-2.34,0.45-3.22,1.38c-0.34,0.36-0.28,0.84,0.11,1.14c1.28,0.97,2.79,0.3,4.1-0.27
				c1.1-0.48,2.15-0.89,3.33-1.12c0.79-0.15,1.9-0.2,2.54-0.77C304.54,195.36,304.19,194.47,303.5,194.08z"/>
		</g>
		<g>
			<path class="st1" d="M85.49,163.39c-0.28-0.16-0.61-0.23-0.95-0.19c-0.61,0.09-1.16,0.43-1.71,0.71
				c-1.24,0.62-2.57,0.78-3.91,1.07c-1.22,0.27-2.34,0.45-3.22,1.38c-0.34,0.36-0.28,0.84,0.11,1.14c1.28,0.97,2.79,0.3,4.1-0.27
				c1.1-0.48,2.15-0.89,3.33-1.12c0.79-0.15,1.9-0.2,2.54-0.77C86.53,164.67,86.19,163.78,85.49,163.39z"/>
		</g>
		<g>
			<path class="st1" d="M337.7,163.39c-0.28-0.16-0.61-0.23-0.95-0.19c-0.62,0.09-1.16,0.43-1.71,0.71
				c-1.24,0.62-2.57,0.78-3.91,1.07c-1.22,0.27-2.34,0.45-3.22,1.38c-0.34,0.36-0.28,0.84,0.11,1.14c1.28,0.97,2.79,0.3,4.1-0.27
				c1.1-0.48,2.15-0.89,3.33-1.12c0.79-0.15,1.9-0.2,2.54-0.77C338.73,164.67,338.39,163.78,337.7,163.39z"/>
		</g>
		<g>
			<path class="st1" d="M425.11,178.79c-0.28-0.16-0.61-0.23-0.95-0.19c-0.61,0.09-1.16,0.43-1.71,0.71
				c-1.24,0.62-2.57,0.78-3.91,1.07c-1.22,0.27-2.34,0.45-3.22,1.38c-0.34,0.36-0.28,0.84,0.11,1.14c1.28,0.97,2.79,0.3,4.1-0.27
				c1.1-0.48,2.15-0.89,3.33-1.12c0.79-0.15,1.9-0.2,2.54-0.77C426.15,180.07,425.81,179.18,425.11,178.79z"/>
		</g>
		<g>
			<path class="st1" d="M561.72,164.04c-0.28-0.16-0.61-0.23-0.95-0.19c-0.61,0.09-1.16,0.43-1.71,0.71
				c-1.24,0.62-2.57,0.78-3.91,1.07c-1.22,0.27-2.34,0.45-3.22,1.38c-0.34,0.36-0.28,0.84,0.11,1.14c1.28,0.97,2.79,0.3,4.1-0.27
				c1.1-0.48,2.15-0.89,3.33-1.12c0.79-0.15,1.9-0.2,2.53-0.77C562.76,165.32,562.41,164.43,561.72,164.04z"/>
		</g>
		<g>
			<path class="st1" d="M183.65,209.02c-0.28-0.16-0.61-0.23-0.95-0.19c-0.62,0.09-1.16,0.43-1.71,0.71
				c-1.24,0.62-2.57,0.78-3.91,1.07c-1.22,0.27-2.34,0.45-3.22,1.38c-0.34,0.36-0.28,0.84,0.11,1.14c1.28,0.97,2.79,0.3,4.1-0.27
				c1.1-0.48,2.15-0.89,3.33-1.12c0.79-0.15,1.9-0.2,2.54-0.77C184.69,210.3,184.35,209.41,183.65,209.02z"/>
		</g>
		<g>
			<path class="st1" d="M246.01,173.99c-0.28-0.16-0.61-0.23-0.95-0.19c-0.62,0.09-1.16,0.43-1.71,0.71
				c-1.24,0.62-2.57,0.78-3.91,1.07c-1.22,0.27-2.34,0.45-3.22,1.38c-0.34,0.36-0.28,0.84,0.11,1.14c1.28,0.97,2.79,0.3,4.1-0.27
				c1.1-0.48,2.15-0.89,3.33-1.12c0.79-0.15,1.9-0.2,2.54-0.77C247.04,175.27,246.7,174.38,246.01,173.99z"/>
		</g>
	</g>
	<g>
		<g>
			<polygon class="st2" points="502.58,76.08 550.45,55.42 550.95,55.21 551.49,56.12 558.61,66.44 510.85,100.92 484.15,118.26 			
				"/>
		</g>
		<g>
			<path class="st2" d="M582.11,64.79c-3.19-0.49-6.68-0.59-9.97-0.42c-0.1,0-0.2,0.01-0.3,0.01c-5.98,0.32-10.77,0.46-12.43,1.55
				c-2.6,1.71-9.37,6.25-9.55,6.82c-0.22,0.59-8.2-13.55-8.2-13.55s5.93-2.41,9.49-4.68c1.91-1.22,3.28-2.23,4.31-3.03
				c1.77-1.41,2.5-2.23,3.15-2.6c2.3-1.32,4.27-2.74,12.09,1.95c7.8,4.68,15.43,7.11,17.5,8.95
				C590.3,61.64,591.26,66.18,582.11,64.79z"/>
		</g>
		<g>
			<polygon class="st2" points="482.48,77.01 486.37,25.02 486.41,24.47 487.47,24.42 499.92,22.9 508.32,81.2 511.3,112.9 			"/>
		</g>
		<g>
			<path class="st3" d="M179.29,117.81c-1.51-2.87-3.46-5.44-4.5-8.54c-0.87-2.57-1.16-5.3-1.98-7.89
				c-1.43-4.55-4.47-7.9-8.06-10.92c-1.83-1.54-4.49-4.16-7.03-3.7c-0.21-0.37-0.74-0.6-1.17-0.24c-4.92,4.1-10.11,7.93-14.6,12.53
				c-2.11,2.16-4.21,4.51-5.79,7.1c-1.55,2.54-8.19,11.07-10.28,12.55c-3.72,2.62-6.88,6.03-9.22,9.93
				c-1.31,2.18-8.58,9.16-10.68,10.29c-1.5,1.1-2.93,2.28-4.1,3.76c-3.58,4.52-4.44,10.39-3.38,15.97
				c1.26,6.66,5.26,12.21,12.27,12.31c3.89,0.06,7.88-0.71,11.77-1.14c13.27-1.49,17.01-11.94,26.42-17.44
				c1.73-1.01,5.72,6.58,7.44,5.59c3.01-3.45,6.52-7.51,9.91-9.67c3.87-2.47,7.41-5.44,10.87-8.45c3.4-2.95,3.96-5.72,4.67-10.42
				C182.45,125.42,181.15,121.33,179.29,117.81z"/>
		</g>
		<g>
			<path class="st4" d="M544.85,85.46c-0.79-3.16-4.93-12.7-6.2-15.7c-2.56-6.07-6.04-11.63-10.25-16.67
				c-0.21-0.25-0.6-0.25-0.87-0.11c-2.34,1.19-4.5,2.64-6.39,4.46c-1.96,1.89-3.17,4.49-5.14,6.31c-2.44,2.25-6.07,1.5-8.84,3.16
				c-3.04,1.81-5.12,3.76-8.78,4.49c-6.04,1.21-11.29,2.18-16.27,6.09c-1.91,1.5-3.47,3.22-4.98,5.1c-1.53,1.9-2.69,3.23-5.15,3.97
				c-1.19,0.35-2.45,0.43-3.64,0.78c-4.43,1.3-7.09,5.04-10.13,8.24c-5.37,5.65-11.73,5.63-19.03,5.18
				c-14.97-0.92-29.94-1.87-44.91-2.8c-0.92-0.06-0.92,1.38,0,1.44c6.23,0.39,12.45,0.78,18.68,1.17c-0.07,0.44,0.29,1,0.88,0.89
				c8-1.42,13.34,5.27,18.62,10.06c4.6,4.18,10,7.23,15.47,10.11c4.99,2.62,10.19,5.56,15.92,6.03c6.3,0.52,12.61-2.34,18.37-4.54
				c11.34-4.34,25.38-3.26,35.77-9.54c5.52-3.34,10.88-6.95,16.06-10.8c2.05-1.53,4.08-3.09,6.07-4.7c1.79-1.44,4.56-3.03,5.46-5.27
				C546.44,90.57,545.38,87.61,544.85,85.46z"/>
		</g>
		<g>
			<path class="st4" d="M515.08,70.73c-0.67-4.8-1.36-9.65-2.48-14.38c-0.43-1.81-0.97-4.21-1.82-6.42
				c-1.21-0.41-2.44-0.8-3.71-1.15c-4.33-1.18-8.91-1.74-13.37-2.13c-5.73-0.5-14.34-1.24-21.32,0.56
				c-1.44,2.76-1.38,7.48-1.27,9.94c0.24,5.16,1.52,10.22,1.68,15.39c0.16,5.2-1.86,10.23-1.46,15.41
				c0.37,4.83,4.01,9.11,3.84,13.96c-0.08,2.39-1.91,4.31-3.01,6.35c-6.85-3.14-14.83-1.32-22.17-2.03
				c-5.14-0.49-10.2-1.69-15.01-3.55c-3.85-1.49-7.58-3.51-11.73-4.06c-4.76-0.63-9.51,0.97-14.26,0.26
				c-4.57-0.68-8.55-3.48-12.99-4.77c-6.94-2.01-15.11-4.02-22.03-6.33c-7.51-2.51-14.13-1.09-22-2.17
				c-6.2-0.85-12.61-1.22-18.73,0.35c-5.83,1.5-10.8,4.86-15.43,8.6c-0.99-0.78-2-1.54-3.06-2.24c-0.77-0.51-1.49,0.73-0.72,1.24
				c10.65,7.06,17.2,18.26,24.48,28.46c3.77,5.29,7.55,10.57,11.32,15.86c3.06,4.29,7.55,16.25,8.33,21.69
				c-0.27-0.04-0.53-0.07-0.8-0.11c-0.9-0.14-1.29,1.25-0.38,1.39c0.43,0.07,0.86,0.11,1.3,0.18c0,0.17,0.02,0.35,0.01,0.52
				c-0.03,0.92,1.41,0.92,1.44,0c0-0.11,0-0.22,0-0.32c20.63,2.91,41.39,3.04,62.19,2c10.94-0.55,21.86-1.33,32.79-2.05
				c7.61-0.5,15.64-0.45,23.33-1.63c5.89-0.9,11.97-0.86,17.9-1.66c4.15-0.56,8.53-0.86,12.53-2.16c7.94-2.59,8.32-16.88,8.81-24.14
				c0.72-10.58,0.86-21.19,0.43-31.78C517.32,90.09,516.43,80.38,515.08,70.73z"/>
		</g>
		<g>
			<path class="st3" d="M365.4,156.94c-0.24-5.14-3.21-9.56-5.95-13.71c-4.21-6.37-7.08-11.37-8.17-19.01
				c-0.68-4.78-1.22-9.85-3.54-14.17c-2.75-5.13-8.12-7.56-12.06-11.63c-8.03-8.28-10.53-12.66-36.87-8.13
				c-10.7,1.84-54.72-15.31-77.56-14.22c-25.78,1.23-61,6.32-68.98,13.84c-5.09,4.8-6.35,9.65-6,16.51
				c0.36,7.11,0.96,14.34,3.01,21.18c3.78,12.6,13.36,21.59,25.64,25.9c7.13,2.51,14.74,3.39,22.27,3.41
				c4.17,0.01,68.42,9.04,77.08,8.66c15.62-0.69,75.24-1.02,90.54-2.61C365.23,160.96,365.5,158.95,365.4,156.94z"/>
		</g>
		<g>
			<path class="st5" d="M193.14,99.66c0.47-2.11,0.45-4.23,0.09-6.36c-0.78-4.64-2.69-9.41-6.37-12.61
				c-3.98-3.46-8.92-6.28-13.5-8.94c-2.55-1.48-5.18-2.86-7.92-4.01c-2.3-0.96-5.01-1.36-7.2-2.43c-2.51-1.22-2.32-2.12-3.49-3.82
				c-0.92-1.34-2.25-1.74-3.12-3.35c-0.69-1.28-0.69-2.22-1.98-3.11c-0.18-0.12-0.36-0.15-0.51-0.11c-0.29-0.48-1.18-0.56-1.36,0.14
				c-1.36,5.15-0.75,10.24,0.05,15.42c0.52,3.37,1.11,6.76,1.07,10.18c-0.04,3.16-1.15,6.04-1.53,9.13
				c-0.68,5.61,2.83,9.84,4.33,14.96c1.15,3.95-1.17,6.71-1.83,10.47c-0.45,2.56,0.05,12.08,0.24,14.63
				c0.2,2.73-2.02,9.4,1.24,11.21c0.97,0.53,1.07-0.06,1.9-0.12c1.71-0.69,3.44-0.86,5.17-0.51c0.43,0.06,0.86,0.09,1.29,0.08
				c0.75-0.01,1.63-0.11,2.36-0.28c3.9-0.9,3.65-4.36,3.65-4.36s-0.15,2.2,0.04,3.41c0.05,0.32,0.42,0.51,0.72,0.53
				c5.99,0.29,12.14-0.02,17.99-1.41c3.9-0.93,6.11-2.6,6.05-6.69c-0.03-1.56-0.33-10.21-0.08-11.78c0.2-1.29,0.75-2.5,0.89-3.8
				c0.3-2.73-0.67-5.38-0.49-8.1C191.02,105.09,192.52,102.47,193.14,99.66z"/>
		</g>
		<g>
			<path class="st5" d="M214.76,56.27c-0.14-1.6-1.92-14.14-2.73-15.62c-0.94-1.74-2.59-2.55-3.96-3.86
				c-1.3-1.24-2.18-2.89-3.4-4.21c-2.64-2.88-6.56-3.97-10.27-4.94c-3.19-0.83-6.39-1.63-9.6-2.39c-2.21-0.52-4.54-0.83-6.75-0.26
				c-2.33,0.59-4.33,1.95-6.68,2.56c-2.35,0.62-4.76,1.01-6.98,2.05c-3.37,1.58-5.93,4.53-8.32,7.46c-2.26,2.76-4.48,5.59-6.07,8.81
				c-1.88,3.79-2.84,8.05-3.01,12.31c-0.22,5.46,0.88,11.03,3.49,15.78c2.61,4.74,6.79,8.61,11.76,10.38
				c6.53,2.33,13.68,0.97,20.45-0.42c1.03-0.21,2.05-0.42,3.08-0.63c1.44-0.29,2.88-0.59,4.31-0.88c4.32-0.88,8.65-1.77,12.97-2.65
				c-0.67,0.17-0.69,1.3-0.13,1.73c0.56,0.43,1.34,0.34,2,0.13c0.66-0.21,1.33-0.52,2.02-0.45c0.58,0.06,1.13,0.38,1.72,0.39
				c1.65,0.03,2.79,1.57,3.02-0.13C213.16,70.75,215.7,66.99,214.76,56.27z"/>
		</g>
		<g>
			<path class="st2" d="M216.76,102.38c-5.27,9.06-11.65,10.15-14.8,8.84c-0.04-0.01-0.1-0.04-0.14-0.06
				c-0.14-0.06-0.3-0.13-0.47-0.22c-1.61-0.75-4.32-2.38-6.85-3.96c-1.09-0.69-2.15-1.36-3.07-1.95c-1.71-1.09-2.9-1.9-2.9-1.9
				l8.85-32.82c0,0,14.57,11.68,20.66,17.64C219.23,89.14,220.51,95.94,216.76,102.38z"/>
		</g>
		<g>
			<path class="st6" d="M205.24,105.63c1.05-2.11,2.54-9.57,2.61-11.03c0.3-5.6,0.02-13.28-5.58-16.23
				c-1.74,1.44-2.93,4.66-3.63,6.05c-2.23,4.47-3.86,9.18-5.4,13.9c-0.76,2.3-1.44,4.5-1.82,6.71c0.92,0.59,1.98,1.26,3.07,1.95
				c1.98,1.24,4.07,2.51,5.66,3.36C202.21,109.59,203.86,108.39,205.24,105.63z"/>
		</g>
		<g>
			<path class="st2" d="M204.07,92.57c-3.53,10.5-12.25,15.36-16.13,16.45c-5.63,1.58-12.9-0.72-17.74-7.6
				c-4.25-6.05-10.17-14.29-13.3-23.21c-0.11-0.3-0.22-0.6-0.32-0.9c-0.19-0.55-0.36-1.09-0.53-1.65c-0.03-0.09-0.06-0.16-0.07-0.24
				c-0.23-0.73-0.45-1.49-0.65-2.24c-0.09-0.29-1.33-4.27-1.42-4.54c-2.33-16.32,11.34-27.39,29.08-28.15
				c8.85-0.37,14.94,3.94,20.35,9.24C208.9,60.21,207.95,80.99,204.07,92.57z"/>
		</g>
		<g>
			<path class="st7" d="M184.91,80.27c-0.01-0.01-0.03-0.03-0.04-0.04c-0.02-0.02-0.04-0.03-0.06-0.05c-0.3-0.3-0.61-0.51-0.94-0.57
				c-0.42-0.07-0.85,0.11-1.27,0.66c-0.23,0.3-0.26,0.65-0.26,0.97c0.02,1.6,1.8,5.25,3.75,4.41
				C188.13,84.78,185.89,81.32,184.91,80.27z"/>
		</g>
		<g>
			<path class="st7" d="M164.43,81.42c-0.01-0.01-0.03-0.03-0.04-0.04c-0.02-0.02-0.04-0.03-0.06-0.05c-0.3-0.3-0.61-0.51-0.94-0.57
				c-0.42-0.07-0.85,0.11-1.27,0.66c-0.23,0.3-0.26,0.65-0.26,0.97c0.02,1.6,1.8,5.25,3.75,4.41
				C167.65,85.92,165.41,82.47,164.43,81.42z"/>
		</g>
		<g>
			<path class="st6" d="M177.65,94.21c-1.55,0.09-3.76,0.45-4.35-1.44c-0.28-0.9,0.08-2.44,0.11-3.39c0.08-2.42,0.16-4.84,0.24-7.27
				c0.03-0.92-1.41-0.92-1.44,0c-0.06,1.94-0.13,3.88-0.19,5.81c-0.06,1.67-0.52,3.99-0.13,5.61c0.57,2.36,3.86,2.22,5.76,2.11
				C178.57,95.59,178.57,94.16,177.65,94.21z"/>
		</g>
		<g>
			<path class="st6" d="M185.49,97.42c-0.17,0.05-0.34,0.12-0.49,0.19c-2.73,1.25-5.91,1.34-8.81,0.7
				c-0.36-0.08-0.75-0.18-1.11-0.08c-2.04,0.56,1.18,2.19,1.79,2.41c1.27,0.46,2.54,1.03,3.9,1.01c2.09-0.03,4.9-1.14,5.72-3.26
				c0.11-0.29,0.09-0.66-0.14-0.87C186.12,97.32,185.8,97.33,185.49,97.42z"/>
		</g>
		<g>
			<path class="st5" d="M190.18,75.86c-0.19-0.26-0.45-0.52-0.67-0.67c-1.77-1.24-3.89-1.93-6.04-2.1c-1.2-0.1-6.33-0.2-5.88,2.02
				c0.1,0.5,0.53,0.89,1,1.08c0.48,0.19,1,0.21,1.51,0.21c3.29,0,6.18-0.3,9.41,0.44C190.75,77.12,190.62,76.46,190.18,75.86z"/>
		</g>
		<g>
			<path class="st5" d="M167.04,76.91c-0.1,0.5-0.53,0.89-1.01,1.08c-0.47,0.2-0.99,0.22-1.51,0.22c-2.79,0-5.29-0.22-7.94,0.17
				c-0.19-0.55-0.36-1.09-0.53-1.65c-0.03-0.09-0.06-0.16-0.07-0.24c1.58-0.92,3.38-1.44,5.19-1.58
				C162.36,74.79,167.49,74.69,167.04,76.91z"/>
		</g>
		<g>
			<path class="st5" d="M208.77,62.33c-0.27-3.58-0.42-7.33-1.83-10.69c-3.17-7.55-13-12.84-20.38-13.54
				c-15.81-1.5-32.51,10.64-34.25,27.29c-0.5-0.06-1.07,0.48-0.75,1.07c1.2,2.2,3.25-0.19,4.05-1.52c1.45-2.41,2.31-4.62,4.61-6.49
				c1.96-1.6,3.35-2.1,5.99-1.76c0.85,0.11,1.65,0.41,2.53,0.47c2.64,0.17,5.4-1.3,7.96-0.11c1.76,0.81,2.41,2.98,4.29,3.75
				c1.73,0.71,3.66,0.7,5.46,0.31c2.07-0.45,3.56-1.64,5.39,0.13c1.72,1.66,2.76,3.88,4.06,5.86c1.8-3.28,6.95-3.86,9.24-0.59
				c2.21,3.16,2.03,7.72,0.94,11.73c0.99,0.47,3.9,2.51,3.9,2.51s0.03-1.71,0-2.17C209.57,73.16,209.18,67.75,208.77,62.33z"/>
		</g>
		<g>
			<path class="st4" d="M421.52,105.97h-0.36c-0.92,0-0.93,1.44,0,1.44h0.36C422.44,107.4,422.44,105.97,421.52,105.97z"/>
		</g>
		<g>
			<path class="st5" d="M219.21,133.73c-1.4-4.43-1.99-8.89-2.32-13.51c-0.3-4.24-0.67-8.55,0.65-12.66
				c1.04-3.23,2.75-6.2,2.69-9.68c-0.07-3.96-1.26-7.85-1.4-11.84c-0.15-4.23,0.11-8.46,0.33-12.68
				c0.75-14.22,0.09-32.62-15.47-38.8c-0.44-0.17-0.92,0.27-0.91,0.69c0.04,2.76,0.31,5.46,0.76,8.14c-0.12,0.08-0.22,0.2-0.27,0.38
				c-0.27,0.98-0.32,1.98-0.19,2.97c-0.37,0.07-0.71,0.39-0.6,0.87c2.1,8.82,4.83,17.58,4.38,26.73c-0.2,3.92-1.45,4.15-1.53,8.08
				c-0.09,4.37,1.35,12.35,1.39,16.71c0.07,8.24-4.61,15.33-4.7,23.57c-0.04,3.43,0.44,6.86,1.09,10.22
				c0.43,2.24,0.58,7.64,2.66,9.12c1.75,1.25,5.29,0.18,7.28,0.06c1.89-0.11,5.85,0.58,7.23-1.07
				C221.57,139.48,219.65,135.1,219.21,133.73z"/>
		</g>
		<g>
			<path class="st5" d="M184.69,29.3c1.61,0.09,2.34-0.38,2.78-1.18c2.48-0.97,4.14-4.75,4.13-7.11c-0.01-2.59-1.62-4.58-3.82-5.42
				c-0.02-0.01-0.04-0.04-0.06-0.05c-1.6-1.05-4.64-1.34-6.43-0.8c-2.32,0.69-3.34,3.03-3.94,5.18c-0.46,1.62-1.32,4.91,0.36,6.11
				c0.6,0.43,0.83,0.25,1.51,0.34c1.55,0.21,2.05,0.56,3.11,1.68C183.06,28.83,183.54,29.24,184.69,29.3z"/>
		</g>
		<g>
			<path class="st8" d="M187.58,26.11c-2.67-0.65-5.35-0.71-8.06-0.22c-0.91,0.17-0.52,1.55,0.38,1.39
				c2.45-0.45,4.87-0.37,7.29,0.22C188.09,27.72,188.48,26.33,187.58,26.11z"/>
		</g>
		<g>
			<path class="st8" d="M187.01,17.04c-0.32-0.86-1.71-0.49-1.39,0.38c0.85,2.26,1.34,5.33-1.29,6.6c-0.83,0.4-0.1,1.64,0.73,1.24
				C188.27,23.71,188.09,19.9,187.01,17.04z"/>
		</g>
		<g>
			<path class="st8" d="M182.57,19.11c-0.19,1.24-0.38,2.48-0.57,3.71c-0.14,0.9,1.24,1.29,1.39,0.38c0.19-1.24,0.38-2.48,0.57-3.71
				C184.1,18.58,182.71,18.19,182.57,19.11z"/>
		</g>
		<g>
			<path class="st8" d="M171.31,31.04c-3.88,2.45-7.96,5.14-9.74,9.56c-0.53,1.31-0.73,2.72-1.22,4.04
				c-0.61,1.64-1.6,2.63-2.56,4.01c-1.48,2.14-1.67,3.95-1.5,6.55c0.06,0.92,1.5,0.92,1.44,0c-0.2-3.16,0.8-4.82,2.53-7.31
				c1.07-1.54,1.52-3.12,2.06-4.89c1.57-5.19,5.31-7.94,9.71-10.72C172.82,31.79,172.1,30.54,171.31,31.04z"/>
		</g>
		<g>
			<path class="st8" d="M164.38,44.8c-1.14,2.14-1.99,4.38-2.53,6.74c-0.21,0.9,1.18,1.28,1.39,0.38c0.51-2.24,1.3-4.37,2.38-6.4
				C166.05,44.71,164.81,43.98,164.38,44.8z"/>
		</g>
		<g>
			<path class="st8" d="M199.5,33.96c-0.39-0.84-1.63-0.11-1.24,0.72c2.26,4.79,3.91,10,1.79,15.04c-1.45,3.45-0.89,7.27-2.36,10.64
				c-0.37,0.84,0.87,1.57,1.24,0.73c0.85-1.94,0.98-3.77,1.17-5.84c0.27-2.94,1.84-4.88,2.42-7.58
				C203.47,43.24,201.33,37.86,199.5,33.96z"/>
		</g>
		<g>
			<path class="st8" d="M209.61,89.77c-0.17-0.91-1.56-0.52-1.39,0.38c1.24,6.58,1.9,12.53-0.79,18.85
				c-2.05,4.82-2.62,8.94-2.42,14.2c0.03,0.92,1.47,0.93,1.44,0c-0.13-3.51-0.19-7.02,0.95-10.39c0.89-2.63,2.33-5.01,2.96-7.74
				C211.53,100.01,210.56,94.78,209.61,89.77z"/>
		</g>
		<g>
			<path class="st8" d="M167.73,113.03c-0.09-0.91-1.52-0.92-1.44,0c0.6,6.47,0.57,12.84-1.47,19.07c-0.29,0.88,1.1,1.26,1.39,0.38
				C168.28,126.14,168.34,119.62,167.73,113.03z"/>
		</g>
		<g>
			<path class="st8" d="M171.76,126.2c-0.1-0.91-1.53-0.92-1.44,0c0.29,2.76,0.26,5.51-0.11,8.26c-0.12,0.91,1.32,0.9,1.44,0
				C172.01,131.71,172.05,128.97,171.76,126.2z"/>
		</g>
		<g>
			<path class="st2" d="M124.2,141.64c0,0-8.8,2.94-14.19,7.53c-4.97,4.24-1.97,11.73,2.39,14.6c4.36,2.87,10.13,0.35,13.89-2.39
				c4.67-3.41,9.52-8.5,9.52-8.5L124.2,141.64z"/>
		</g>
		<g>
			<g>
				<path class="st1" d="M110.04,118.63c0,0,2.47-2.06,3.27-2.06c0.81,0,17.06,8.69,23.7,12.55c6.64,3.86,17.78,13.5,17.78,13.5
					s17.21-7.14,25.67-10.43c10.96-4.26,24.88-8.44,25.96-7.36c1.08,1.08,3.95,2.78,3.95,2.78s-70.74,37.44-70.74,36.9
					C139.62,163.96,110.04,118.63,110.04,118.63z"/>
			</g>
			<g>
				<path class="st9" d="M227.68,178.01l-50.63,18.37l-9.98-1.47l-30.72-19.35c-0.05-0.03-0.09-0.07-0.11-0.13l-27.99-57.26
					c-0.14-0.28,0.18-0.56,0.44-0.4l40.28,24.82l10.14,1.21l51.99-18.2c0.16-0.06,0.34,0.03,0.39,0.2l16.39,51.81
					C227.92,177.79,227.83,177.95,227.68,178.01z"/>
			</g>
			<g>
				<polygon class="st10" points="177.05,196.38 167.07,194.91 164.7,188.06 163.79,185.46 148.95,142.61 159.09,143.82 
					173.6,186.31 174.49,188.89 				"/>
			</g>
			<g>
				<polygon class="st1" points="174.49,188.89 164.7,188.06 163.79,185.46 173.6,186.31 				"/>
			</g>
			<g>
				<path class="st1" d="M193.5,138.74c-0.29,0-0.56-0.18-0.66-0.47c-0.12-0.36,0.07-0.76,0.44-0.88l14.95-5.07
					c0.37-0.12,0.76,0.07,0.88,0.44c0.12,0.36-0.07,0.76-0.44,0.88l-14.95,5.07C193.65,138.73,193.57,138.74,193.5,138.74z"/>
			</g>
			<g>
				<path class="st1" d="M195.16,142.69c-0.3,0-0.57-0.19-0.66-0.49c-0.12-0.37,0.09-0.76,0.46-0.87l14.83-4.67
					c0.37-0.11,0.76,0.09,0.87,0.45c0.12,0.37-0.09,0.76-0.45,0.87l-14.83,4.67C195.3,142.68,195.23,142.69,195.16,142.69z"/>
			</g>
		</g>
		<g>
			<g>
				<path class="st2" d="M116,145.77c-0.76-1.27,0.3-2.71,1.69-3.25c1.96-0.75,4.48-0.97,6.53-0.9c0.98,0.04,2.79,0.4,3.21,1.58
					c0.4,1.13-1.08,1.97-1.92,2.22c-1.44,0.45-2.92,0.76-4.41,1c-1.41,0.23-3.21,1.03-4.52-0.01
					C116.33,146.22,116.13,146,116,145.77z"/>
			</g>
			<g>
				<g>
					<path class="st2" d="M124.71,157.25c1.99,0.37,5.32,0.04,6.82-1.42c1.29-1.26,0.08-2.56-1.27-2.97
						c0.18-0.29,0.31-0.62,0.33-1.03c0.05-0.89-0.38-1.52-1.01-1.94c1.06-0.83,1.61-2.72,0.03-3.79c-1.47-0.99-3.28-0.87-5-0.76
						c-0.92,0.06-2.74,0.05-3.65,0.18c-1.46,0.22-3.33,0.54-3.79,2.38c-0.22,0.87,0.31,1.61,1.02,2.07
						c-0.21,2.63,2.16,3.73,4.67,4.15C121.61,155.61,123.15,156.96,124.71,157.25z"/>
				</g>
				<g>
					<path class="st6" d="M119.6,149.18c2.61-0.28,5.23-0.48,7.86-0.59c0.92-0.04,1.04,1.39,0.11,1.43
						c-2.63,0.11-5.25,0.31-7.86,0.59C118.79,150.72,118.68,149.28,119.6,149.18z"/>
				</g>
				<g>
					<path class="st6" d="M124.25,152.88c1.38-0.09,2.76-0.25,4.13-0.48c0.91-0.15,1.02,1.28,0.11,1.43
						c-1.37,0.23-2.74,0.39-4.13,0.48C123.44,154.37,123.32,152.94,124.25,152.88z"/>
				</g>
			</g>
			<g>
				<path class="st6" d="M118.76,145.35c1.67-0.33,3.35-0.59,5.04-0.79c0.92-0.11,1.03,1.32,0.11,1.43
					c-1.69,0.2-3.37,0.46-5.04,0.79C117.96,146.96,117.86,145.53,118.76,145.35z"/>
			</g>
		</g>
		<g>
			<g>
				<path class="st2" d="M236.09,152.94c-0.16-2.18-1.97-2.48-3.79-3.33c-0.06-0.07-0.14-0.13-0.24-0.18
					c-3.39-1.61-6.77-3.21-10.16-4.82c-2-0.95-4.15-2.34-6.36-2.77c-4.42-0.86-9.86,3.26-12.9,6.06c-1.1,1.01-6.9,6.17-4.32,7.96
					c0.23,0.16,0.46,0.24,0.69,0.26c-1.3,1.03-2.78,2.45-2.39,3.89c0.37,1.37,1.84,1.37,3.03,1.06c-0.17,2.06,1.87,3.02,3.88,2.55
					c1.21-0.28,2.43-0.88,3.61-1.52c0.14,1.39,1.21,1.81,2.84,1.81c1.52-0.01,3.13-0.87,4.49-1.45c1.81-0.77,3.94-1.05,5.68-1.96
					c4.8,2.08,10.18,4.7,15.1,2.83C237.73,162.38,236.3,155.88,236.09,152.94z"/>
			</g>
			<g>
				<path class="st6" d="M210.11,147.3c-3.29,2.06-6.4,4.37-9.32,6.92c-0.7,0.61,0.32,1.62,1.02,1.02c2.84-2.47,5.85-4.7,9.03-6.7
					C211.62,148.05,210.9,146.8,210.11,147.3z"/>
			</g>
			<g>
				<path class="st6" d="M212.63,151.91c-3.78,2.2-7.42,4.6-10.93,7.21c-0.73,0.54-0.02,1.79,0.72,1.24
					c3.51-2.61,7.15-5.01,10.93-7.21C214.15,152.68,213.43,151.44,212.63,151.91z"/>
			</g>
			<g>
				<path class="st6" d="M215.87,155.4c-2.49,1.36-4.89,2.87-7.2,4.52c-0.75,0.53-0.03,1.78,0.72,1.24c2.31-1.65,4.71-3.15,7.2-4.52
					C217.41,156.2,216.68,154.95,215.87,155.4z"/>
			</g>
		</g>
		<g>
			<polygon class="st2" points="232.86,150.38 265.3,148.94 271.77,160.49 268.54,168.81 231.91,163.9 			"/>
		</g>
		<g>
			<path class="st3" d="M320.24,151.18c-2.51-6.1-7.91-10.28-11.79-15.43c-3.77-5.01-7.08-9.19-12.98-11.81
				c-5.77-2.56-12.2-3.26-18.45-3.17c-6.44,0.09-13.66,1.18-17.97,6.5c-1.76,2.18-2.56,4.77-3.09,7.48
				c-0.92,4.68-1.65,8.43-4.6,12.32c-0.29,0.13-0.5,0.42-0.41,0.81c0.9,3.78,1.52,7.61,1.72,11.49c0.07,1.31,0.09,2.63,0.08,3.94
				c-0.01,1.26-0.53,3.24-0.18,4.44c0.74,2.54,5.17,2.97,8.18,3.16c0.71,2.73,2.22,4.93,5.61,5.23c3.33,0.29,7.02-0.54,10.34-0.84
				c3.6-0.32,6.95-0.31,10.53,0.13c2.61,0.32,4.78,0.32,7.21-0.7c2.3-0.97,3.92-1.65,6.46-1.62c1.86,0.02,3.68,0.33,5.55,0.15
				c4.17-0.39,10.89-2.74,13.34-6.35C322.55,162.82,322.01,155.49,320.24,151.18z"/>
		</g>
		<g>
			<path class="st2" d="M517.96,8.18c-3.02,1.42-6.05,3.36-8.75,5.4c-4.78,3.61-8.53,7.5-9.29,9.32c-1.19,2.87-3.19,9.34-3.03,9.93
				c0.16,0.6-10.47-8.35-10.47-8.35s-0.37-4.35-0.49-8.58c-0.09-3.26-0.03-6.45,0.49-7.5c1.18-2.38,2.01-4.67,11.12-5.14
				c9.09-0.47,19.95-2.99,22.7-2.63C522.99,0.99,526.33,4.23,517.96,8.18z"/>
		</g>
		<g>
			<path class="st0" d="M520.23,0.63c-2.74-0.36-13.6,2.15-22.7,2.63c-9.11,0.47-9.94,2.76-11.12,5.14
				c-0.52,1.05-0.57,4.24-0.49,7.5c3.05-2.13,6.51-3.63,10.23-4.35c3.09-0.6,7.01-1.02,9.91,0.43c1.13,0.56,2.1,1.15,3.15,1.59
				c2.7-2.04,5.73-3.98,8.75-5.4C526.33,4.23,522.99,0.99,520.23,0.63z"/>
		</g>
		<g>
			<path class="st0" d="M588.2,59.8c-2.07-1.84-9.7-4.27-17.5-8.95c-7.83-4.7-9.8-3.28-12.09-1.95c-0.65,0.37-1.38,1.19-3.15,2.6
				c2.47,0.5,4.83,1.39,7.2,2.34c3.32,1.35,7.14,2.96,8.43,6.61c0.5,1.42,0.73,2.76,1.05,3.92c3.29-0.17,6.78-0.07,9.97,0.42
				C591.26,66.18,590.3,61.64,588.2,59.8z"/>
		</g>
		<g>
			<path class="st11" d="M320.87,144.33c-1.54-2.86-3.63-5.37-5.39-8.1c-1.86-2.89-2.68-6.27-4.51-9.14
				c-3.13-4.89-9.4-8.11-14.08-11.27c-6.48-4.37-13.13-8.49-19.91-12.39c-0.8-0.46-1.53,0.78-0.73,1.24
				c5.81,3.34,11.53,6.83,17.12,10.53c4.99,3.29,11.08,6.57,15.12,11.03c2.16,2.39,2.85,5.48,4.29,8.27
				c1.23,2.37,2.88,4.49,4.4,6.68c4.09,5.91,6.07,12.29,4.93,19.49c-0.14,0.9,1.24,1.29,1.39,0.38
				C324.41,155.3,323.64,149.5,320.87,144.33z"/>
		</g>
		<g>
			<path class="st11" d="M279.67,139.08c-5.21-1.6-9.49-1.05-14.19,1.04c-0.08-0.11-0.18-0.2-0.33-0.26
				c-6.9-2.64-13.68-5.57-20.31-8.83c-5.93-2.92-14.92-6.05-16.15-13.43c-0.15-0.91-1.54-0.52-1.39,0.38
				c1.19,7.15,8.7,10.2,14.46,13.11c7.19,3.64,14.57,6.87,22.09,9.78c-3.37,1.69-6.59,3.48-10.25,4.36
				c-1.44,0.34-2.14,0.52-2.42,2.02c-0.17,0.9,1.22,1.29,1.39,0.38c0.15-0.82,4.03-1.59,4.82-1.94c2.15-0.98,4.24-2.11,6.35-3.16
				c5.33-2.66,9.68-3.89,15.55-2.08C280.17,140.74,280.55,139.35,279.67,139.08z"/>
		</g>
		<g>
			<path class="st12" d="M479.54,116.65c-1.52-2.9-4.02-6.6-7.16-8.09c0.96-2.99,1.46-6.03,1.26-9.19
				c-0.23-3.68-1.83-7.18-1.37-10.89c0.11-0.92-1.33-0.91-1.44,0c-0.39,3.17,0.7,5.99,1.16,9.09c0.52,3.52,0.15,6.94-0.89,10.31
				c-8.99-3.16-18.46-0.64-27.74-1.41c-10.2-0.85-19.81-5.04-30.14-4.96c-0.92,0.01-0.93,1.44,0,1.44
				c9.89-0.08,19.13,3.75,28.87,4.83c9.6,1.07,19.5-1.81,28.8,1.54c0.08,0.12,0.19,0.23,0.36,0.29c1.62,0.56,3.04,2.17,4.14,3.44
				c1.15,1.32,2.09,2.78,2.9,4.32C478.72,118.19,479.96,117.47,479.54,116.65z"/>
		</g>
		<g>
			<path class="st12" d="M515.43,67.56c-0.14-0.91-1.52-0.52-1.39,0.38c2.14,14.46,2.97,29.04,2.5,43.65
				c-0.03,0.92,1.41,0.92,1.44,0C518.45,96.85,517.59,82.14,515.43,67.56z"/>
		</g>
		<g>
			<path class="st1" d="M164.55,95.11c-2.85,0-5.9-1.84-7.7-4.96c-2.47-4.28-1.68-9.39,1.77-11.38c1.7-0.98,3.76-1.07,5.81-0.25
				c1.99,0.8,3.74,2.36,4.92,4.41c2.47,4.28,1.68,9.39-1.76,11.38C166.65,94.86,165.62,95.11,164.55,95.11z M161.67,79.37
				c-0.85,0-1.65,0.21-2.36,0.62c-2.78,1.61-3.35,5.86-1.26,9.48c2.09,3.62,6.06,5.26,8.84,3.65c2.78-1.61,3.34-5.86,1.25-9.48
				c-1.03-1.78-2.53-3.13-4.24-3.81C163.16,79.52,162.4,79.37,161.67,79.37z"/>
		</g>
		<g>
			<path class="st1" d="M184.4,93.19c-2.75,0-5.65-1.72-7.34-4.65c-1.13-1.95-1.57-4.15-1.24-6.19c0.34-2.1,1.44-3.78,3.1-4.74
				c1.66-0.96,3.67-1.07,5.65-0.32c1.93,0.74,3.62,2.22,4.75,4.17c1.13,1.95,1.57,4.15,1.24,6.19c-0.34,2.1-1.44,3.78-3.1,4.74
				C186.51,92.93,185.46,93.19,184.4,93.19z M181.99,78.19c-0.85,0-1.66,0.21-2.37,0.62c-1.29,0.75-2.15,2.08-2.42,3.75
				c-0.28,1.73,0.1,3.6,1.07,5.28c1.97,3.41,5.78,4.91,8.5,3.34c1.29-0.75,2.15-2.08,2.42-3.75c0.28-1.73-0.1-3.6-1.07-5.28l0,0
				c-0.97-1.67-2.4-2.94-4.04-3.56C183.37,78.32,182.67,78.19,181.99,78.19z"/>
		</g>
		<g>
			<path class="st1" d="M176.71,86.47h-6.93c-0.38,0-0.7-0.31-0.7-0.7c0-0.38,0.31-0.7,0.7-0.7h6.93c0.38,0,0.7,0.31,0.7,0.7
				C177.41,86.15,177.09,86.47,176.71,86.47z"/>
		</g>
		<g>
			<path class="st1" d="M189.16,83.38c-0.09,0-0.18-0.02-0.27-0.05c-0.35-0.15-0.52-0.56-0.37-0.91l7.28-17.39
				c0.15-0.35,0.55-0.52,0.91-0.37c0.35,0.15,0.52,0.56,0.37,0.91l-7.28,17.39C189.69,83.22,189.43,83.38,189.16,83.38z"/>
		</g>
	</g>
	<g>
		<g>
			<path class="st4" d="M197.46,210.41c0,0-1.86,0.42-1.56,0.66c0.3,0.24,28.49,20.53,29.09,20.71c0.6,0.18,57.58-19.15,58.53-19.99
				c0.96-0.84,0-5.99,0-5.99L197.46,210.41z"/>
		</g>
		<g>
			<path class="st1" d="M197.46,204.54c0,0-0.12,5.69,0,5.87c0.12,0.18,28.01,19.57,28.01,19.57l4.19-1.32c0,0,1.08-9.94,0.84-10.29
				C230.25,218.01,197.46,204.54,197.46,204.54z"/>
		</g>
		<g>
			<polygon class="st4" points="195.53,204.18 249.23,185.87 283.52,205.8 227.38,225.25 			"/>
		</g>
		<g>
			<path class="st4" d="M226.48,223.63l-1.02,6.34c0,0-0.42,0.84,0,0.84c0.42,0,6.04-1.92,6.22-2.15c0.18-0.24,1.61-4.07,0.56-5.33
				c-1.04-1.26-2.26-1.92-3.3-1.62S226.48,223.63,226.48,223.63z"/>
		</g>
		<g>
			<path class="st1" d="M223.91,215.38c-0.13,0-0.26-0.04-0.38-0.12l-8.72-5.77c-0.32-0.21-0.41-0.64-0.2-0.96
				c0.21-0.32,0.64-0.41,0.96-0.2l8.72,5.77c0.32,0.21,0.41,0.64,0.2,0.96C224.36,215.27,224.13,215.38,223.91,215.38z"/>
		</g>
		<g>
			<path class="st1" d="M237.38,217.98c-0.13,0-0.26-0.04-0.38-0.11l-23.96-15.47c-0.32-0.21-0.41-0.64-0.21-0.96
				c0.21-0.32,0.64-0.42,0.96-0.21l23.96,15.47c0.32,0.21,0.42,0.64,0.21,0.96C237.83,217.86,237.6,217.98,237.38,217.98z"/>
		</g>
		<g>
			<path class="st1" d="M277.42,206.25c-0.11,0-0.23-0.03-0.33-0.09l-10.32-5.69c-0.34-0.18-0.46-0.61-0.27-0.94
				c0.19-0.34,0.61-0.46,0.94-0.27l10.32,5.69c0.34,0.18,0.46,0.61,0.27,0.94C277.9,206.12,277.66,206.25,277.42,206.25z"/>
		</g>
		<g>
			<path class="st12" d="M228.07,225.71c-0.29,0-0.56-0.19-0.66-0.48c-0.12-0.36,0.08-0.76,0.44-0.88l54.61-17.9
				c0.37-0.12,0.76,0.08,0.88,0.45c0.12,0.36-0.08,0.76-0.44,0.88l-54.61,17.9C228.21,225.7,228.14,225.71,228.07,225.71z"/>
		</g>
	</g>
	<g>
		<g>
			<path class="st10" d="M342.63,204.54c0,0-0.06,4.67-0.42,5.33c-0.06,0.11-1.67,0.39-4.32,0.79c-0.45,0.06-0.92,0.13-1.44,0.2
				c-0.83,0.12-1.74,0.24-2.72,0.37c-0.46,0.06-0.93,0.13-1.44,0.2c-16.27,2.18-46.93,5.85-47.36,5.8
				c-0.6-0.06-29.69-19.25-29.96-19.42c-0.27-0.19,1.54-0.27,1.54-0.27L342.63,204.54z"/>
		</g>
		<g>
			<path class="st4" d="M337.97,206.16l-0.09,4.5c-0.45,0.06-0.92,0.13-1.44,0.2l0.09-4.7
				C336.55,205.24,337.99,205.24,337.97,206.16z"/>
		</g>
		<g>
			<path class="st4" d="M333.82,206.49l-0.09,4.74c-0.46,0.06-0.93,0.13-1.44,0.2l0.09-4.94
				C332.4,205.57,333.84,205.57,333.82,206.49z"/>
		</g>
		<g>
			<polygon class="st1" points="257.04,192.87 256.51,197.54 285.05,215.59 286.32,208.31 			"/>
		</g>
		<g>
			<polygon class="st10" points="255.82,192.57 310.19,187.18 342.63,204.54 286.97,212.38 			"/>
		</g>
		<g>
			<path class="st13" d="M286.85,212.24c-0.35,0-0.65-0.26-0.69-0.62c-0.04-0.38,0.23-0.73,0.62-0.77l54.76-5.99
				c0.37-0.04,0.73,0.23,0.77,0.62c0.04,0.38-0.23,0.73-0.62,0.77l-54.76,5.99C286.9,212.24,286.87,212.24,286.85,212.24z"/>
		</g>
		<g>
			<polygon class="st4" points="264.23,193.88 272.26,198.82 277.42,198.38 269.43,193.28 			"/>
		</g>
		<g>
			<path class="st1" d="M335.78,204.07c-0.11,0-0.22-0.03-0.32-0.08l-8.71-4.56c-0.34-0.18-0.47-0.6-0.29-0.94
				c0.18-0.34,0.6-0.47,0.94-0.29l8.71,4.56c0.34,0.18,0.47,0.6,0.29,0.94C336.27,203.94,336.03,204.07,335.78,204.07z"/>
		</g>
	</g>
	<g>
		<g>
			<path class="st14" d="M0.83,129.91c0,0-0.27,9.13,0,10.02c0.27,0.9,32.81,14.96,32.81,14.96s65.24-9.63,65.76-10.09
				c0.52-0.45-2.29-2.6-2.29-2.6L0.83,129.91z"/>
		</g>
		<g>
			<path class="st4" d="M97.95,135.77v7.94c0,0-63.12,8.66-63.84,8.8c-0.72,0.14-31.04-13.27-31.04-13.27l0.13-9.33L97.95,135.77z"
				/>
		</g>
		<g>
			<path class="st14" d="M0.83,129.88L65.51,123l33.05,11.87c0.41,0.15,0.35,0.75-0.09,0.81l-64.94,7.92L0.83,129.88z"/>
		</g>
		<g>
			<path class="st1" d="M31.76,146.34c-0.09,0-0.19-0.02-0.28-0.06L4.01,134.41c-0.35-0.15-0.51-0.56-0.36-0.91
				c0.15-0.35,0.56-0.52,0.91-0.36l27.47,11.88c0.35,0.15,0.51,0.56,0.36,0.91C32.29,146.18,32.03,146.34,31.76,146.34z"/>
		</g>
		<g>
			<path class="st1" d="M31.76,149.77c-0.09,0-0.19-0.02-0.28-0.06L4.01,137.84c-0.35-0.15-0.51-0.56-0.36-0.91
				c0.15-0.35,0.56-0.52,0.91-0.36l27.47,11.88c0.35,0.15,0.51,0.56,0.36,0.91C32.29,149.61,32.03,149.77,31.76,149.77z"/>
		</g>
		<g>
			<path class="st1" d="M34.35,146.6c-0.35,0-0.65-0.26-0.69-0.61c-0.05-0.38,0.22-0.73,0.61-0.77l62.5-7.64
				c0.38-0.06,0.73,0.22,0.77,0.61c0.05,0.38-0.22,0.73-0.61,0.77l-62.5,7.64C34.4,146.6,34.37,146.6,34.35,146.6z"/>
		</g>
		<g>
			<path class="st1" d="M34.35,150.16c-0.35,0-0.65-0.26-0.69-0.61c-0.05-0.38,0.22-0.73,0.61-0.77l62.5-7.64
				c0.38-0.07,0.73,0.22,0.77,0.61c0.05,0.38-0.22,0.73-0.61,0.77l-62.5,7.64C34.4,150.16,34.37,150.16,34.35,150.16z"/>
		</g>
		<g>
			<polygon class="st1" points="49.67,129.06 62.55,133.72 54.43,134.58 42.31,129.6 			"/>
		</g>
	</g>
</g>
</svg>
