<?xml version="1.0" encoding="utf-8"?>
<!-- Generator: Adobe Illustrator 25.2.0, SVG Export Plug-In . SVG Version: 6.00 Build 0)  -->
<svg version="1.1" id="레이어_1" xmlns="http://www.w3.org/2000/svg" xmlns:xlink="http://www.w3.org/1999/xlink" x="0px"
	 y="0px" viewBox="0 0 419.69 351.97" style="enable-background:new 0 0 419.69 351.97;" xml:space="preserve">
<style type="text/css">
	.st0{fill:#D6A576;}
	.st1{fill:#F8F0EB;}
	.st2{fill:#F1CFB3;}
	.st3{fill:#FFFFFF;}
	.st4{fill:#35303A;}
	.st5{fill:#789BB4;}
	.st6{fill:#507691;}
	.st7{fill:#F3A699;}
	.st8{fill:#DFCEC6;}
	.st9{fill:#E57A65;}
	.st10{fill:#7A4848;}
	.st11{fill:#6F5E61;}
	.st12{fill:#1A161C;}
	.st13{fill:#DB6969;}
	.st14{fill:#DACAC1;}
	.st15{fill:#522E2E;}
</style>
<g>
	<g>
		<g>
			<g>
				<path class="st0" d="M340.74,110.98c0.02-0.08,0.02-0.16-0.01-0.26c-0.01-0.04,1.34,0.29,1.33,0.25
					c-2.22-9.83-3.67-20.85-5.44-30.84c-0.94-5.29-2-10.55-3.18-15.78c-0.62-2.74-1.26-5.47-1.94-8.19c-0.36-1.45-1-6.73-1-6.73
					s2.1-6.24,1.39-10.17c-0.53-2.95-0.8-6-1.93-8.8c-0.81-2.02-3.7-6.53-6.41-5.16c-1.73,0.87-1.28,3.44-1.27,5.04
					c0.05,4.81,1.93,9.61,3.57,14.19c0.36,0.99,1.53,5.42,2.86,5.6c4.5,16.77,7.76,33.84,9.8,51.08
					c-5.86-24.54-13.01-48.75-21.38-72.55c0.26-0.7,0.3-1.54,0.24-2.32c-0.29-4.07-1.47-8.32-2.47-12.28
					c-0.85-3.38-1.92-6.79-3.76-9.77c-0.91-1.47-2.76-4.76-4.94-4.23c-2.28,0.56-1.93,4.35-1.92,6.01c0.06,6.88,2.2,13.51,5.8,19.32
					c2.03,3.27,6.22,4.51,6.22,4.51s2.04,6.88,2.27,7.51c1.05,2.83,2.21,5.62,3.14,8.5c1.86,5.74,3.65,11.5,5.37,17.28
					c3.44,11.57,6.59,23.22,9.45,34.94c1.03,4.22,2.02,8.45,2.97,12.69c0.14,1.5,0.3,2.99,0.41,4.5c0.06,0.76,1.26,0.77,1.2,0
					C341.02,113.87,340.87,112.43,340.74,110.98z"/>
			</g>
			<g>
				<path class="st0" d="M356.72,64.96c-0.35-1.84-1.94-2.82-3.74-2.23c-2.64,0.85-3.75,4.51-4.63,6.81
					c-0.73,1.91-5.18,15.82-0.73,16.15c-2.18,9.51-3.71,19.15-4.6,28.88c-0.07,0.77,1.13,0.76,1.2,0
					c0.53-5.78,1.29-11.55,2.28-17.27c0.52-2.98,1.1-5.95,1.74-8.9c1.09-5.02,4.75-9.11,6.53-13.89
					C355.77,71.82,357.28,67.91,356.72,64.96z"/>
			</g>
		</g>
		<g>
			<path class="st1" d="M350.62,103.48H333.3c-1.6,0-2.92,1.26-2.98,2.86l-8.15,206.68c-0.07,1.69,1.29,3.1,2.98,3.1h33.61
				c1.69,0,3.05-1.41,2.98-3.1l-8.15-206.68C353.54,104.75,352.22,103.48,350.62,103.48z"/>
		</g>
	</g>
	<g>
		<g>
			<path class="st2" d="M348.68,330.24c-0.4-0.73-0.95-1.46-1.65-2.2c-0.69-0.73-1.5-1.39-2.37-1.95c-0.38-0.26-0.77-0.5-1.17-0.72
				c-9.95-5.52-22.75-7.53-35.64-8.29c-1.8-0.11-3.6-0.19-5.4-0.25c-8.49-0.3-16.85-0.18-24.25-0.29
				c-8.15-0.12-16.56-0.25-25.16-0.36c-1.84-0.02-3.7-0.05-5.57-0.06c-15.99-0.2-32.57-0.36-49.35-0.43c-1.88,0-3.75-0.01-5.63-0.01
				c-16.44-0.06-33.01-0.02-49.37,0.16c-1.88,0.01-3.75,0.02-5.62,0.06c-16.96,0.19-33.61,0.54-49.57,1.08
				c-1.82,0.06-3.63,0.12-5.44,0.19c-5.53,0.2-10.98,0.43-16.32,0.68c-8.53,0.41-25.91,3.51-33.91,6.26
				c-14.58,5.02-17.52,10.21-13.87,16.58c1.64,2.84,5.93,4.73,10.9,6.04c1.84,0.49,3.8,0.89,5.72,1.22c5.46,0.95,10.87,1.38,14,1.65
				c11.91,1.09,23.84,1.32,35.78,1.48c1.25,0.01,2.49,0.02,3.75,0.05c6.98,0.08,13.96,0.17,20.93,0.42
				c9.91,0.35,19.95,0.46,30.04,0.41c0.66,0,1.33-0.01,2-0.01h0.01c0.24,0.01,0.48,0.01,0.72,0c0.53,0,1.04-0.01,1.57-0.01
				c17.02-0.11,34.15-0.55,51.07-0.74c1.21-0.02,2.41-0.04,3.6-0.04c4.8-0.06,9.58-0.07,14.33-0.06
				c12.24,0.05,24.48-0.01,36.71-0.26c1.41-0.02,2.83-0.05,4.24-0.08c14.23-0.32,28.45-0.91,42.64-1.87
				c2.51-0.17,5.02-0.26,7.48-0.34c1.98-0.06,3.94-0.1,5.88-0.13c9.72-0.22,19.18-0.55,28.61-3.95
				C344.62,342.23,352.07,336.48,348.68,330.24z"/>
		</g>
		<g>
			<path class="st3" d="M53.86,335.33c-1.98-0.55-4.47-0.41-6.51-0.59c-2.41-0.19-5.23-0.86-7.62-0.61
				c-2.73,0.3-8.96,7.41-10.44,12.6c1.84,0.49,3.8,0.89,5.72,1.22c0.04-0.13,0.07-0.25,0.11-0.36c0.73-2.19,1.29-4.66,2.9-6.42
				c2-2.18,4.98-2.24,7.72-1.94c2.53,0.28,7.71,1.95,9.68-0.57C56.63,337.08,55.46,335.78,53.86,335.33z"/>
		</g>
		<g>
			<path class="st3" d="M82.49,317.16c-0.05,1.33-0.22,2.65-0.78,3.86c-1.23,2.68-4.06,3.65-6.75,4.2c-2.49,0.5-7.94,0.49-9.04,3.5
				c-0.68,1.87,0.84,2.75,2.5,2.69c2.05-0.08,4.37-0.97,6.37-1.44c2.35-0.54,5.26-0.77,7.45-1.74c1.96-0.86,4.67-6.33,5.69-11.27
				C86.11,317.03,84.3,317.09,82.49,317.16z"/>
		</g>
		<g>
			<path class="st3" d="M108.84,335.33c-1.98-0.55-4.45-0.41-6.5-0.59c-2.41-0.19-5.24-0.86-7.62-0.61
				c-3.68,0.4-13.7,13.18-9.93,16.96c1.25,0.01,2.49,0.02,3.75,0.05c0.81-0.96,1.22-2.51,1.57-3.54c0.73-2.19,1.29-4.66,2.9-6.42
				c2-2.18,4.98-2.24,7.72-1.94c2.51,0.28,7.7,1.95,9.66-0.57C111.62,337.08,110.44,335.78,108.84,335.33z"/>
		</g>
		<g>
			<path class="st3" d="M137.51,315.89c0,1.75-0.07,3.53-0.8,5.13c-1.25,2.68-4.06,3.65-6.77,4.2c-2.48,0.5-7.94,0.49-9.03,3.5
				c-0.68,1.87,0.84,2.75,2.49,2.69c2.05-0.08,4.38-0.97,6.38-1.44c2.35-0.54,5.24-0.77,7.44-1.74c2.11-0.92,5.11-7.22,5.9-12.41
				C141.24,315.85,139.37,315.86,137.51,315.89z"/>
		</g>
		<g>
			<path class="st3" d="M163.83,336.53c-1.98-0.55-4.47-0.41-6.51-0.59c-2.39-0.19-5.23-0.86-7.62-0.61
				c-3.58,0.38-13.17,12.53-10.18,16.63c0.66,0,1.33-0.01,2-0.01h0.01c0.24,0.01,0.48,0.01,0.72,0c0.53,0,1.04-0.01,1.57-0.01
				c0.62-0.95,0.97-2.25,1.28-3.15c0.72-2.19,1.29-4.66,2.9-6.42c2-2.18,4.98-2.24,7.71-1.94c2.53,0.28,7.71,1.95,9.68-0.57
				C166.6,338.27,165.43,336.98,163.83,336.53z"/>
		</g>
		<g>
			<path class="st3" d="M192.49,315.68c0.01,1.82-0.04,3.68-0.8,5.34c-1.25,2.68-4.06,3.65-6.77,4.2c-2.49,0.5-7.94,0.49-9.03,3.5
				c-0.68,1.87,0.83,2.75,2.49,2.69c2.05-0.08,4.38-0.97,6.38-1.44c2.35-0.54,5.24-0.77,7.44-1.74c2.13-0.93,5.16-7.34,5.92-12.55
				C196.24,315.69,194.37,315.68,192.49,315.68z"/>
		</g>
		<g>
			<path class="st3" d="M218.81,335.33c-1.98-0.55-4.47-0.41-6.51-0.59c-2.39-0.19-5.23-0.86-7.62-0.61
				c-3.71,0.4-13.93,13.48-9.8,17.06c1.21-0.02,2.41-0.04,3.6-0.04c0.81-0.95,1.23-2.53,1.58-3.57c0.73-2.19,1.29-4.66,2.9-6.42
				c2-2.18,4.98-2.24,7.72-1.94c2.53,0.28,7.71,1.95,9.68-0.57C221.59,337.08,220.41,335.78,218.81,335.33z"/>
		</g>
		<g>
			<path class="st3" d="M247.47,316.12c-0.01,1.68-0.1,3.38-0.8,4.9c-1.23,2.68-4.06,3.65-6.75,4.2c-2.49,0.5-7.94,0.49-9.04,3.5
				c-0.67,1.87,0.84,2.75,2.5,2.69c2.05-0.08,4.37-0.97,6.38-1.44c2.35-0.54,5.24-0.77,7.44-1.74c2.06-0.91,4.98-6.95,5.84-12.06
				C251.19,316.16,249.34,316.13,247.47,316.12z"/>
		</g>
		<g>
			<path class="st3" d="M273.8,335.33c-1.98-0.55-4.47-0.41-6.51-0.59c-2.41-0.19-5.23-0.86-7.62-0.61
				c-3.59,0.38-13.28,12.66-10.13,16.7c1.41-0.02,2.83-0.05,4.24-0.08c0.62-0.95,0.98-2.25,1.28-3.16c0.73-2.19,1.29-4.66,2.9-6.42
				c2-2.18,4.98-2.24,7.72-1.94c2.53,0.28,7.71,1.95,9.68-0.57C276.57,337.08,275.39,335.78,273.8,335.33z"/>
		</g>
		<g>
			<path class="st3" d="M302.44,316.83c-0.04,1.45-0.19,2.89-0.79,4.19c-1.23,2.68-4.06,3.65-6.75,4.2c-2.49,0.5-7.94,0.49-9.04,3.5
				c-0.68,1.87,0.84,2.75,2.5,2.69c2.05-0.08,4.37-0.97,6.37-1.44c2.35-0.54,5.26-0.77,7.45-1.74c1.94-0.85,4.63-6.26,5.66-11.16
				C306.05,316.97,304.24,316.89,302.44,316.83z"/>
		</g>
		<g>
			<path class="st3" d="M328.77,335.33c-1.98-0.55-4.45-0.41-6.5-0.59c-2.41-0.19-5.24-0.86-7.62-0.61
				c-3.07,0.34-10.55,9.28-10.75,14.42c1.98-0.06,3.94-0.1,5.88-0.13c0.1-0.3,0.18-0.57,0.26-0.83c0.73-2.19,1.29-4.66,2.9-6.42
				c2-2.18,4.98-2.24,7.72-1.94c2.51,0.28,7.7,1.95,9.66-0.57C331.55,337.08,330.38,335.78,328.77,335.33z"/>
		</g>
		<g>
			<path class="st3" d="M347.02,328.04c-0.69-0.73-1.5-1.39-2.37-1.95c-1.74,0.43-3.29,1.19-3.81,2.63
				c-0.68,1.87,0.84,2.75,2.49,2.69c1.7-0.07,3.6-0.69,5.34-1.17C348.28,329.51,347.73,328.78,347.02,328.04z"/>
		</g>
	</g>
	<g>
		<g>
			<g>
				<g>
					<polygon class="st4" points="64.1,244.8 53.32,327.73 60.66,327.78 79.27,247.7 					"/>
				</g>
				<g>
					<polygon class="st4" points="279.07,244.8 289.85,327.73 282.52,327.78 263.9,247.7 					"/>
				</g>
				<g>
					<path class="st5" d="M301.2,141.32c-11.21-1.98-99.26-0.69-129.52-0.18c-30.26-0.51-118.31-1.8-129.52,0.18
						c-13.57,2.39-17.56,2.39-17.56,7.18c0,4.79,13.97,90.61,20.76,100.99c6.79,10.38,15.47,14.16,73.11,13.97
						c35.25-0.12,70.48,0.09,105.74-0.2c20.47-0.16,47.96-0.2,63.23-1.85c13.65-1.47,13.57-18.45,16.42-30.3
						c3.12-12.97,5.62-26.1,8-39.22c1.74-9.57,3.38-19.16,4.9-28.77c0.75-4.74,2.02-9.8,2.02-14.62
						C318.76,143.72,314.77,143.72,301.2,141.32z"/>
				</g>
				<g>
					<path class="st5" d="M25.76,157.38c0,0-4.8-24.95-3.81-30.74c0.78-4.48,8.13-5.44,11.65-5.89c6.51-0.84,10.15,0.14,12.38,6.39
						c1.76,4.91,4.37,11.27,4.38,16.58C50.37,144.71,25.76,157.38,25.76,157.38z"/>
				</g>
				<g>
					<path class="st5" d="M297.01,57.9c-4.11-4.86-24.71-4.46-50.95-4.61c-49.58-0.29-99.19-0.29-148.77,0
						c-26.23,0.15-46.84-0.26-50.95,4.61c-2.99,3.55-2.15,16.53-2,31.53c0.25,24.25,1,51.89,1,51.89s39.52,27.14,40.46,27.54
						c0.88,0.37,74.49-12.05,84.69-13.77c10.49,1.72,86.17,14.14,87.05,13.77c0.95-0.4,40.46-27.54,40.46-27.54s0.74-27.64,1-51.89
						C299.16,74.43,300,61.44,297.01,57.9z"/>
				</g>
			</g>
			<g>
				<path class="st6" d="M78.52,254.68c-0.27,0-0.51-0.18-0.58-0.45c-0.85-3.42-20.71-83.85-21.01-85.23
					c-0.07-0.32,0.14-0.64,0.46-0.71c0.32-0.07,0.64,0.13,0.71,0.46c0.29,1.36,20.79,84.36,21,85.19c0.08,0.32-0.12,0.65-0.44,0.72
					C78.61,254.67,78.56,254.68,78.52,254.68z"/>
			</g>
			<g>
				<path class="st6" d="M267.55,254.68c-0.04,0-0.09,0-0.13-0.02c-0.32-0.07-0.53-0.39-0.45-0.72
					c0.25-1.13,25.49-112.45,25.78-113.82c0.07-0.32,0.39-0.53,0.71-0.46c0.32,0.07,0.53,0.39,0.46,0.71
					c-0.3,1.38-25.53,112.71-25.79,113.83C268.07,254.49,267.83,254.68,267.55,254.68z"/>
			</g>
			<g>
				<path class="st6" d="M270.06,225.54H73.18c-0.33,0-0.6-0.27-0.6-0.6c0-0.33,0.27-0.6,0.6-0.6h196.89c0.33,0,0.6,0.27,0.6,0.6
					C270.66,225.27,270.39,225.54,270.06,225.54z"/>
			</g>
		</g>
		<g>
			<path class="st7" d="M305.21,83.16c0,0,3.57-0.62,13.55,11.66c9.98,12.27,63.56,84.72,63.56,84.72l-3.59,8.08l-6.44-1.2
				c0,0-19.72-18.35-36.22-29.04c-15.18-9.83-24.18-21.25-28.78-25.14c-4.6-3.89-6.71-8.53-8.8-11.75c-2.09-3.22,1.79-10.11,0-12.5
				C296.71,105.6,305.21,83.16,305.21,83.16z"/>
		</g>
		<g>
			<path class="st7" d="M249.73,34.04c0,0,3.57-0.62,13.55,11.66c9.98,12.27,63.57,84.72,63.57,84.72l-3.59,8.08l-6.44-1.2
				c0,0-19.72-18.35-36.22-29.04c-15.18-9.83-24.18-21.25-28.78-25.14c-4.6-3.89-6.71-8.53-8.8-11.75c-2.09-3.22,1.79-10.11,0-12.5
				C241.22,56.48,249.73,34.04,249.73,34.04z"/>
		</g>
		<g>
			<path class="st7" d="M382.33,179.54c0,0,11.08,6.59,17.21,9.88c6.14,3.29,15.72,4.49,16.46,5.99c0.75,1.5,1.2,4.19-1.35,4.79
				c-2.54,0.6-18.86-1.5-24.55,0c-5.69,1.5-11.23,3.59-13.77-0.9c-2.54-4.49-7.04-17.81-7.04-17.81L382.33,179.54z"/>
		</g>
		<g>
			<path class="st5" d="M317.63,157.38c0,0,4.8-24.95,3.81-30.74c-0.78-4.48-8.13-5.44-11.65-5.89c-6.51-0.84-10.15,0.14-12.38,6.39
				c-1.76,4.91-4.37,11.27-4.38,16.58C293.01,144.71,317.63,157.38,317.63,157.38z"/>
		</g>
		<g>
			<path class="st4" d="M257.11,41.78c-3.27-6.72-7.25-11.27-18.38-6.96c-10.16,3.94-16.7,19.02-21.01,28.02
				c-14.73,30.8-37,99.88-36.94,99.23c0.16,11.3,1.12,19.61,9.97,29.38c3.17,3.5,7.84,5.04,12.33,3.26c5.1-2.02,9.17-6.91,12.59-11
				c15.29-18.26,27.09-39.27,32.94-61.88c3.68-14.21,6.97-34.42,7.67-49.09C256.89,60.24,258.87,48.42,257.11,41.78z"/>
		</g>
		<g>
			<path class="st4" d="M305.88,120.51c4.16-12.39,5.1-25.72-0.67-37.35c-0.48-0.17-0.97-0.32-1.5-0.43
				c-5.34-1.1-10.49,1.11-15.1,3.61c-5.55,3.01-10.93,6.38-16.14,9.94c-20.82,14.22-38.92,31.99-55.95,50.48
				c-4.89,5.31-9.7,10.68-14.48,16.08c-4.76,5.37-9.7,10.63-13.94,16.42c-0.46,0.62,0.58,1.22,1.03,0.6
				c0.17-0.23,0.34-0.44,0.51-0.67l-0.68,12.01c-0.02,0.41,0.3,0.59,0.61,0.57c-0.17,4.13-0.35,8.27-0.52,12.4
				c-0.16,3.72-0.34,7.45-0.19,11.17c0.09,2.17-0.11,6.2,1.37,8.05c1.73,2.17-21.02,5.12-18.56,5.53
				c3.68,0.62,16.69,2.82,20.41,2.95c8.73,0.3,28.08-3.12,34.75-8.66c6.63-5.5,12.06-12.31,17.02-19.31
				c13.67-19.27,27.64-38.13,41.6-57.2c5.2-7.1,10.15-14.49,15.81-21.23C302.72,123.74,304.25,122.07,305.88,120.51z"/>
		</g>
		<g>
			<path class="st1" d="M190.99,207.12c-0.87-4.94-0.9-9.99-0.85-14.99c0.05-4.63,0.01-9.33,0.78-13.9
				c1.12-6.65,6.14-13.25,5.41-20.1c0.18-1.63,0.12-3.25-0.46-4.63c-1.05-2.51-4.31-3.42-6.24-5.1c-1.48-1.28-3.06-4.91-5.27-4.96
				c-1.33-0.03-2.8,1.08-4.06,1.4c-1.67,0.43-3.34,0.55-5.01,0.46c1.8-1.08,2.83-2.92,3.77-4.9c2.69-5.67,2.31-10.96-1.53-15.92
				c-1.48-1.92-3.2-3.63-4.77-5.47c-2.92-3.39-3.77-6.38-5.05-10.56c-0.89-2.92-2.81-5.1-4.67-7.44c-2.53-3.18-4.48-6.71-6.42-10.27
				c-3.41-6.25-7.72-11.81-14.38-15.08c-3.66-1.79-11.89-3.15-15.87-2.9c-0.17,0.01-0.33,0.02-0.49,0.03
				c-10.12-0.28-21.09,1.29-26.94,3.16c-6.41,2.04-9.52,1.51-16.28,2.11c-13.7,1.22-29.6,8.69-42.61,13.12
				c-0.41,0.14-0.61,0.68-0.26,1c3.52,3.29,3.3,8.28,4.72,12.56c0.73,2.21,2,3.93,3.33,5.81c1.59,2.27,2.73,4.64,3.69,7.24
				c3.97,10.68,7.71,21.41,12.07,31.96c3.91,9.47,8.81,17.73,16.08,25.01c1.78,1.78,3.62,3.5,5.46,5.21
				c1.37,1.27,2.84,3.13,4.65,3.81c2.08,0.78,4.71,0.48,6.88,0.58c0.54,0.03,1.09,0.05,1.63,0.08c-0.21,6.01,0.52,12.01,4.06,17.09
				c4.81,6.92,12.82,10.72,17.75,17.55c2.47,3.42,4.46,7.31,7.84,9.97c3.34,2.63,7.53,3.49,11.44,4.92
				c9,3.29,16.46,9.45,24.26,14.83c3.84,2.65,8.36,6.15,13,7.16c1.74,0.38,3.38,0.06,5.03-0.39c2.84-2.05,5.81-4.36,7.5-7.49
				c0.3-0.55,0.56-1.11,0.82-1.67c1.1-2.37,2.02-4.76,3.56-6.89c2.05-2.82,3.59-5.59,3.73-9.15
				C197.6,222.3,192.36,214.93,190.99,207.12z"/>
		</g>
		<g>
			<path class="st8" d="M98.3,184.44c0,0-0.45-4.15,7.75-9.54c8.2-5.39,25.8-17.73,25.8-17.73l4.78,1.41c0,0-16.87,13.6-22.54,17.96
				C96.58,190.02,98.3,184.44,98.3,184.44z"/>
		</g>
		<g>
			<path class="st9" d="M173.76,108.85c0,0,3.27,14.32,3.42,19.08c0.15,4.76-1.42,6.71-3.74,8.28c-2.32,1.57-5.45,2.72-5.35,2.29
				c0.11-0.42-0.4-22.96-0.4-22.96l4.25-6.7H173.76z"/>
		</g>
		<g>
			<path class="st7" d="M141.13,157.39c0,0-22.15-15.47-37.74-22c-0.24-0.11-0.48-0.2-0.72-0.3c-14.51-6.26-3.5-7.51-19.21-17.91
				c-0.99-0.66-1.95-1.34-2.87-2.05c-1.77-1.34-3.4-2.75-4.91-4.19c-3.63-3.48-6.51-7.16-8.72-10.5c0.04-3.35,0.17-6.69,1.2-9.9
				c0.04-0.12,0.07-0.23,0.11-0.35c0.1-0.26,0.19-0.53,0.31-0.78c1.13-2.62,3.19-4.55,5.2-6.55c5.03-1.84,9.69-3.4,9.69-3.4
				l8.66-0.41c0,0,9.43-2.32,19.33-2.99c0.65,0.4,3.21,2.24,3.89,2.53c0.55,0.24,1.11,0.46,1.7,0.66c0.68,0.24,1.4,0.46,2.13,0.66
				c3.92,1.1,7.7,3.02,11.26,4.99c0.43,0.24,0.86,0.48,1.29,0.74c0.93,3.2,1.88,6.97,2.72,10.78c1.29,5.88,2.34,11.88,2.67,16.14
				c0.01,0.14,0.02,0.29,0.04,0.42C137.95,124.36,141.13,157.39,141.13,157.39z"/>
		</g>
		<g>
			<path class="st4" d="M141.13,157.39c0,0-22.15-15.47-37.74-22c-0.24-0.11-0.48-0.2-0.72-0.3c-14.51-6.26-3.5-7.51-19.21-17.91
				c-0.99-0.66-1.95-1.34-2.87-2.05c-1.77-1.34-3.4-2.75-4.91-4.19c2.81-1.11,7.26-2.28,9.53-2.59c0.42-0.06,0.83-0.13,1.25-0.19
				c-4.59-5.02-6.38-5.4-11.52-9.87c-2.56-2.23-4.54-5.17-6.78-7.76c0.04-0.12,0.07-0.23,0.11-0.35c0.1-0.26,0.19-0.53,0.31-0.78
				c1.92,2.24,3.63,4.75,5.84,6.84c5.62,5.29,8.23,5.98,13.44,11.65c4.12-0.8,8.24-2.14,11.96-3.9c4.89-2.31,9.56-5.22,14.9-6.38
				c2.3-0.5,4.56-1.25,6.8-2.02c0.54-0.19,1.11-0.4,1.69-0.61c-0.63-2.06-2.8-3.72-3.8-5.6c-1.14-2.18,1.1-0.2,0.07-2.42
				c-1.32-2.83-2.69-5.6-4.14-8.36c0.55,0.24,1.11,0.46,1.7,0.66c1.53,2.98,3.01,6.01,4.38,9.08c1.26,2.78-0.83,1.11,1.17,3.46
				c0.77,0.91,1.4,1.75,1.71,2.78c2.22-0.84,4.6-1.75,7.04-2.45c1.29,5.88,5.25,15.93,5.76,20.45c0.01,0.14,0.02,0.29,0.04,0.42
				C137.95,124.36,141.13,157.39,141.13,157.39z"/>
		</g>
		<g>
			<path class="st10" d="M127.37,89.17c-0.03-0.11-0.03-0.21-0.06-0.31c0.73,1.73,1.58,3.44,2.11,5.19c0,0.01,0.01,0.01,0.01,0.01
				c1.81,3.33,5.98,0.71,6.8-1.92c0.31-0.98,0.4-2.02,0.38-3.07c-0.2-1.74-0.58-3.44-1.33-5.04c-0.8-1.71-2.02-3.1-3.13-4.6
				c-1.86-2.53-2.3-4.87-2.13-7.97c0.11-2.07,0.09-3.9-0.57-5.88c-0.82-2.44-2.02-4.63-2.42-7.21c-0.85-5.4,0.97-10.68,1.83-15.96
				c0.62-3.77,0.88-7.76-0.48-11.4c-1.34-3.6-4.16-6.17-6.99-8.65c-6.55-5.74-12.7-12.4-21.76-13.56c-9.06-1.16-17.71,2.8-24,9.15
				c-0.54,0.55,0.3,1.4,0.85,0.85c2.12-2.14,4.54-3.97,7.15-5.42c2.44,4.2,6.11,7.42,9.49,10.85c4.26,4.33,7.01,8.8,8.15,14.82
				c1.13,5.96,0.96,12.13,1.06,18.17c0.09,5.48-0.09,10.83-0.34,16.28c-0.07,1.45,0.07,3.03,1.37,3.94
				c0.31,0.22,0.68,0.36,1.05,0.45c1.32,0.31,2.09,0.12,3.33,0.95c1.29,0.87,1.8,0.8,3.34,0.96c3.5,0.37,4.66,5.55,5.5,8.37
				c0.41,1.38,0.7,2.91,1.78,3.93c0.37,0.35,0.75,0.56,1.2,0.78c1.67,0.85,2.33,0.88,3.23,2.59c0.92,1.76,2.4,3.4,4.31,1.48
				c1.17-1.17,1.25-2.97,1.05-4.5C128.02,91.36,127.64,90.27,127.37,89.17z"/>
		</g>
		<g>
			<path class="st10" d="M88.33,80.34c-0.2-0.02-0.4-0.04-0.61-0.06c-0.21-2.26,0.01-4.57-0.4-6.81c-0.52-2.81-2.13-5.29-2.83-8.06
				c-1.58-6.22-2.78-12.71-3.35-19.1c-0.55-6.18-0.35-12.47,1.41-18.46c0.88-3,2.17-5.8,3.73-8.5c1.2-2.09,10.38,0.39,10.27-2.07
				c-0.02-0.34,1.64-4.43,1.38-4.47c-0.12-0.21-10.41-0.78-10.71-0.7c-4.1,1.14-7.91,1.81-11.51,4.22
				c-3.05,2.05-5.62,4.79-7.39,8.01c-1.77,3.23-2.76,6.89-2.86,10.56c-0.05,1.71,0.14,3.39,0.42,5.07c0.52,3.14,0.54,5.46,0.04,8.55
				c-0.72,4.43,1.11,8.58,1.41,12.95c0.28,4.06-1.33,8.15-0.18,12.16c0.91,3.18,3.37,4.7,6.41,5.53c4.8,1.32,9.86,1.94,14.81,2.36
				C89.09,81.6,89.09,80.41,88.33,80.34z"/>
		</g>
		<g>
			<path class="st7" d="M104.43,62.35c0,0-0.05,4.06-0.16,8.73c0,0.29-0.01,0.57-0.02,0.86c-0.05,2.68-0.13,5.5-0.22,7.81
				c-0.01,0.31-0.02,0.62-0.04,0.91c-0.08,2.39-0.2,4.08-0.32,4.29c-0.44,0.75-5.62,5.32-9.81,5.32s-12.42-5.09-12.57-5.69
				c-0.14-0.6-1.48-27.54-1.48-27.54L104.43,62.35z"/>
		</g>
		<g>
			<path class="st9" d="M102.26,71.59c-2.92-0.38-5.21-0.9-7.95-2.01c-1.95-0.8-4.1-2.08-6.15-2.44c-0.3-0.06-0.52,0.04-0.68,0.28
				c-1.38,1.87,0.4,5.47,1.68,6.99c0.61,0.73,1.39,1.35,2.29,1.69c0.89,0.35,0.8,0.17,1.71,0.34c2.1,0.38,1.5,0.2,2.67,1.54
				c2.42,2.73,4.55,2.41,8.03,2.67c0.05,0,0.1,0.01,0.14,0.01c0.01-0.29,0.02-0.6,0.04-0.91c0.08-2.31,0.17-5.13,0.22-7.81
				C103.62,71.78,102.95,71.69,102.26,71.59z"/>
		</g>
		<g>
			<path class="st7" d="M118.45,40.81c-0.04-0.79-0.1-1.57-0.18-2.33c-0.01-0.07-0.01-0.14-0.02-0.22
				c-0.8-8.11-3.15-15.47-7.6-18.96c-2.32-1.82-5.04-2.54-7.84-2.49c-4.08-1.82-8.57-2.61-13.04-1.51
				c-6.11,1.51-9.66,6.29-12.36,11.66c-2.98,5.92-3.2,11.66-2.38,18.14c0.72,5.71,1.17,11.47,4.69,16.21
				c4.5,6.06,17.27,13.77,24.87,13.29c4.75-0.3,8.58-3.59,10.4-9.59C118.45,53.56,118.48,41.07,118.45,40.81z"/>
		</g>
		<g>
			<path class="st4" d="M98.31,46.42c0-0.01,0-0.03,0-0.04c0-0.02,0-0.04-0.01-0.06c-0.01-0.32-0.07-0.61-0.22-0.82
				c-0.19-0.26-0.52-0.39-1.05-0.31c-0.29,0.04-0.49,0.22-0.66,0.4c-0.85,0.9-1.8,3.87-0.28,4.45
				C97.69,50.63,98.29,47.52,98.31,46.42z"/>
		</g>
		<g>
			<path class="st4" d="M115.25,46.39c0-0.01,0-0.03,0-0.04c0-0.02,0-0.04-0.01-0.06c-0.01-0.32-0.07-0.61-0.22-0.82
				c-0.19-0.26-0.52-0.39-1.05-0.31c-0.29,0.04-0.49,0.22-0.66,0.4c-0.85,0.9-1.8,3.87-0.28,4.45
				C114.63,50.6,115.23,47.49,115.25,46.39z"/>
		</g>
		<g>
			<path class="st9" d="M110.03,54.73c-0.58-1.56-0.93-3.17-1.11-4.82c-0.09-0.76-1.28-0.77-1.2,0c0.2,1.76,0.54,3.48,1.15,5.14
				c0.24,0.65,0.84,1.51,0.93,2.16c0.32,2.23-1.46,2.43-3.02,2.84c-0.74,0.2-0.43,1.35,0.32,1.15c1.46-0.39,4.12-1.06,4.22-2.99
				C111.39,57.08,110.39,55.7,110.03,54.73z"/>
		</g>
		<g>
			<path class="st9" d="M109.51,63.29c-0.93,0.33-2.7,0.53-2.95,0.56c-2.63,0.33-5.09-0.25-7.55-1.24c-0.5-0.2-0.72,0.25-0.44,0.85
				c1.01,2.17,2.73,3.31,5.08,3.6c2.66,0.33,4.57-0.85,6.29-2.74C110.44,63.77,110.35,62.99,109.51,63.29z"/>
		</g>
		<g>
			<path class="st10" d="M103.47,39.19c-0.09-0.14-0.19-0.25-0.31-0.35c-0.36-0.29-0.83-0.4-1.28-0.48
				c-1.56-0.28-3.12-0.25-4.69-0.05c-1.06,0.14-2.14,0.31-3.15,0.68c-0.55,0.2-2.4,1.02-1.81,1.9c0.2,0.3,0.77,0.32,1.09,0.32
				c1.08-0.02,2.13-0.27,3.2-0.34c1.08-0.07,2.2,0,3.27,0.14c0.97,0.12,2.01,0.52,2.98,0.15C103.64,40.82,103.97,39.98,103.47,39.19
				z"/>
		</g>
		<g>
			<path class="st10" d="M118.45,40.81c-0.91-0.04-1.84,0.04-2.73,0.16c-0.97,0.12-2.01,0.51-2.98,0.14
				c-0.86-0.32-1.19-1.17-0.68-1.95c0.08-0.14,0.18-0.26,0.3-0.35c0.36-0.29,0.83-0.41,1.28-0.48c1.53-0.29,3.07-0.26,4.61-0.07
				c0.01,0.07,0.01,0.14,0.02,0.22C118.36,39.25,118.42,40.02,118.45,40.81z"/>
		</g>
		<g>
			<path class="st10" d="M119.62,39.13c-0.06-0.24-0.15-0.47-0.22-0.71c0-0.03,0.01-0.06,0.01-0.09
				c-1.07-8.5-3.65-17.82-11.62-22.37c-4.21-2.4-9.23-3.11-13.96-3.73c-3.97-0.52-7.33,0.05-10.49,2.57
				c-6.26,4.99-10.65,14.11-11.73,21.93c-1.14,8.29,1.44,16.6,6.73,23c-0.37,1.72-0.83,3.45-1.15,5.1
				c-0.15,0.75,3.37,6.65,3.37,6.65s-0.08-13.33-0.36-16.96c-2.26-2.52-4.03-5.71-2.95-8.84c0.86-2.5,4.61-4.48,6.97-3.02
				c0.43-0.24,0.84-0.51,1.19-0.83c1.63-1.46,1.79-3.32,2.11-5.36c1.27-8.13,10.41-11.74,17.61-12.45c0.08-0.01,0.14-0.03,0.2-0.06
				c1.46,1.83,3.13,3.43,5.12,4.69c1.1,0.7,2.32,1.13,3.45,1.77c1.13,0.64,2,1.6,2.55,2.77c0.46,0.99,0.52,2.1,0.86,3.12
				c0.36,1.07,0.87,2.06,1.15,3.16C118.65,40.19,119.81,39.88,119.62,39.13z"/>
		</g>
		<g>
			<path class="st1" d="M77.64,143.26c-0.43,0.28-0.87,0.56-1.3,0.84c-0.28-2.95-1.44-5.92-2.42-8.6c-1.28-3.5-2.73-6.95-4.33-10.32
				c-3.62-7.6-8.05-14.8-13.19-21.46c-2.33-3.02-8.88-13.44-13.17-13.47c-0.49,0-0.96,0.13-1.42,0.28
				c-5.4,1.76-9.84,5.79-12.44,10.8c-1.89,3.63-3.72,6.73-6.67,9.61c-3.06,2.99-6.08,5.98-8.9,9.2c-2.39,2.74-4.67,5.59-6.81,8.52
				c-1.44,1.97-3.02,3.91-4,6.16c-2.18,4.99-2.39,12.48,0.19,17.28c3.15,5.85,8.84,7.84,15.19,7.33c8.6-0.7,17.16-2.22,25.59-4
				c4.54-0.96,8.71-1.31,13.32-0.92c2.24,0.19,12.35,0.99,14.07-0.37c0.17,0.2-3.91-2.85-2.24-3.93c1.11-0.18,2.22-0.35,3.32-0.53
				c2.28-0.39,3.75-0.77,3.96-3.29c0.03-0.3,0.02-0.6,0.02-0.9c0.62-0.4,1.23-0.8,1.85-1.19C78.89,143.88,78.29,142.84,77.64,143.26
				z M71.55,148.62c1.16-0.75,2.31-1.5,3.47-2.24C74.47,148.23,73.23,148.38,71.55,148.62z"/>
		</g>
		<g>
			<path class="st1" d="M197.3,233.13c0,0-1.67,21.35-2.67,31.73c-1,10.38-4.59,10.78-4.59,10.78s1.2-0.4-12.37-8.18
				c-13.57-7.78-12.17-18.36-27.34-28.94c-15.17-10.58-15.77-12.37-15.77-12.37s27.34-1.8,29.94-1
				C167.08,225.94,197.3,233.13,197.3,233.13z"/>
		</g>
		<g>
			<g>
				<path class="st2" d="M106.04,111.36c0,0,1.67-2.61,4.07-2.77c17.6-1.2,32.12,3.52,32.12,3.52s6.97-6.39,11.58-10.5
					s9.78-7.01,10.33-6.94c0.55,0.07,3.56,1.84,3.56,1.84l-21.8,24.95L106.04,111.36z"/>
			</g>
			<g>
				<path class="st3" d="M169.55,144.37l-19.6,12.71l-2.32,1.51l-2.49,0.55l-4,0.89l-36.49-3.63l-0.95-46.15l11.08,0.96l3.81,0.32
					l16.85,1.46l4.56,0.4l0.07-0.01l6.61-2.17c0,0,1.55-1.16,5.27-4.16c1.4-1.13,2.93-2.36,4.48-3.6
					c6.31-5.07,13.02-10.42,13.12-10.42C169.78,93.02,169.55,144.37,169.55,144.37z"/>
			</g>
			<g>
				<path class="st8" d="M147.4,157.99c-0.33,0-0.59-0.26-0.6-0.59l-0.74-45.28c-0.01-0.33,0.26-0.6,0.59-0.61
					c0.29,0.04,0.6,0.26,0.61,0.59l0.74,45.28C148,157.71,147.74,157.98,147.4,157.99C147.41,157.99,147.4,157.99,147.4,157.99z"/>
			</g>
			<g>
				<path class="st8" d="M141.13,160.23c-0.33,0-0.59-0.26-0.6-0.59l-0.77-45.33c-0.01-0.33,0.26-0.6,0.59-0.61
					c0.32,0.04,0.6,0.26,0.61,0.59l0.77,45.33c0.01,0.33-0.26,0.6-0.59,0.61C141.14,160.23,141.14,160.23,141.13,160.23z"/>
			</g>
			<g>
				<path class="st11" d="M108.99,113.8c-0.72,1.24-1.44,2.47-2.16,3.71c-0.39,0.67,0.65,1.27,1.03,0.6
					c0.72-1.24,1.44-2.47,2.16-3.71C110.42,113.74,109.38,113.14,108.99,113.8z"/>
			</g>
			<g>
				<path class="st11" d="M111.13,132.59c-0.72,1.24-1.44,2.47-2.16,3.71c-0.39,0.67,0.65,1.27,1.03,0.6
					c0.72-1.24,1.44-2.47,2.16-3.71C112.56,132.53,111.52,131.92,111.13,132.59z"/>
			</g>
			<g>
				<path class="st11" d="M121.88,124.36c-0.72,1.24-1.44,2.47-2.16,3.71c-0.39,0.67,0.65,1.27,1.03,0.6
					c0.72-1.24,1.44-2.47,2.16-3.71C123.31,124.3,122.27,123.7,121.88,124.36z"/>
			</g>
			<g>
				<path class="st11" d="M130.72,134.81c-0.72,1.24-1.44,2.47-2.16,3.71c-0.39,0.67,0.65,1.27,1.03,0.6
					c0.72-1.24,1.44-2.47,2.16-3.71C132.15,134.75,131.11,134.14,130.72,134.81z"/>
			</g>
			<g>
				<path class="st11" d="M159.65,141.68c-0.72,1.24-1.44,2.47-2.16,3.71c-0.39,0.67,0.65,1.27,1.03,0.6
					c0.72-1.24,1.44-2.47,2.16-3.71C161.08,141.62,160.04,141.01,159.65,141.68z"/>
			</g>
			<g>
				<path class="st11" d="M153.23,129.92c-0.72,1.24-1.44,2.47-2.16,3.71c-0.39,0.67,0.65,1.27,1.03,0.6
					c0.72-1.24,1.44-2.47,2.16-3.71C154.65,129.85,153.62,129.25,153.23,129.92z"/>
			</g>
			<g>
				<path class="st11" d="M112.52,148.38c-0.72,1.24-1.44,2.47-2.16,3.71c-0.39,0.67,0.65,1.27,1.03,0.6
					c0.72-1.24,1.44-2.47,2.16-3.71C113.94,148.32,112.91,147.72,112.52,148.38z"/>
			</g>
			<g>
				<path class="st11" d="M132.41,116.86c-0.72,1.24-1.44,2.47-2.16,3.71c-0.39,0.67,0.65,1.27,1.03,0.6
					c0.72-1.24,1.44-2.47,2.16-3.71C133.83,116.8,132.8,116.19,132.41,116.86z"/>
			</g>
			<g>
				<path class="st11" d="M167.7,96.51c-0.72,1.24-1.44,2.47-2.16,3.71c-0.39,0.67,0.65,1.27,1.03,0.6
					c0.72-1.24,1.44-2.47,2.16-3.71C169.12,96.45,168.09,95.84,167.7,96.51z"/>
			</g>
			<g>
				<path class="st11" d="M153.23,110.78c-0.72,1.24-1.44,2.47-2.16,3.71c-0.39,0.67,0.65,1.27,1.03,0.6
					c0.72-1.24,1.44-2.47,2.16-3.71C154.65,110.72,153.62,110.11,153.23,110.78z"/>
			</g>
			<g>
				<path class="st11" d="M133.89,149.53c-0.72,1.24-1.44,2.47-2.16,3.71c-0.39,0.67,0.65,1.27,1.03,0.6
					c0.72-1.24,1.44-2.47,2.16-3.71C135.31,149.47,134.27,148.87,133.89,149.53z"/>
			</g>
			<g>
				<path class="st11" d="M166.39,125.77c-0.72,1.24-1.44,2.47-2.16,3.71c-0.39,0.67,0.65,1.27,1.03,0.6
					c0.72-1.24,1.44-2.47,2.16-3.71C167.81,125.71,166.78,125.1,166.39,125.77z"/>
			</g>
			<g>
				<path class="st11" d="M163.02,115.83c-0.72,1.24-1.44,2.47-2.16,3.71c-0.39,0.67,0.65,1.27,1.03,0.6
					c0.72-1.24,1.44-2.47,2.16-3.71C164.44,115.77,163.41,115.17,163.02,115.83z"/>
			</g>
		</g>
		<g>
			<path class="st7" d="M122.46,116.19c0.02-0.09,0.01-0.18,0.01-0.26c-0.07-1.16-0.62-2.06-1.08-3.09
				c-0.55-1.25-1.38-2.44-2.56-3.16c-0.32-0.2-0.67-0.37-1.03-0.54c0.12,0,0.25,0,0.37-0.01c0.75-0.03,2.26,0.08,2.8-0.68
				c1.58-2.2-3.79-3.04-4.69-3.23c-4.25-0.92-8.24-1.5-12.15,0.7c-4.83,2.71-16.2,11.98-16.57,13.09c-0.57,1.74,4.81,7.94,6.54,8.43
				c1.97,0.55,4.35-1.78,5.78-2.71c1.42-0.92,3.56-2.9,5.01-3.77c2.04-1.22,3.35-0.84,5.69-0.53c1.15,0.16,3.07,1.59,4,0.47
				c1.58-1.91-2.94-4.3-6.1-5.77c2.01,0.23,4,0.67,5.91,1.27c1.65,0.52,2.32,1.5,3.59,2.45c0.42,0.31,0.73,0.54,1.26,0.56
				c1.7,0.05,1.63-2.34,1.63-2.34c0-0.03,0.71-0.14,0.81-0.17c0.33-0.1,0.69-0.32,0.79-0.67
				C122.45,116.22,122.45,116.21,122.46,116.19z"/>
		</g>
		<g>
			<path class="st7" d="M88.96,117.48c0,0-11.2,1.86-22,2.55c-5.4,0.35-14.01,0.55-21.75,1.08c-1.87,8.2,0.54,16.94,4.91,24.42
				c6.84-2.5,13.85-5.32,18.04-7.02c11-4.46,27.32-11.98,27.32-11.98L88.96,117.48z"/>
		</g>
		<g>
			<path class="st1" d="M53.32,150.54c0,0,2.59,11.14,2.59,12.13c0,1-4.59-0.6-14.77,0c-10.18,0.6-13.57,1.47-21.75,0.34
				c-8.18-1.14-14.93-8.87-14.93-8.87s11.34-6.06,15.13-6.04C23.39,148.11,53.32,150.54,53.32,150.54z"/>
		</g>
		<g>
			<g>
				<path class="st7" d="M173.76,102.02c-0.08-1.23-1.49-1.72-2.7-1.43c-1.7,0.41-3.53,1.46-4.9,2.48c-0.66,0.49-1.73,1.6-1.46,2.61
					c0.26,0.97,1.67,0.83,2.37,0.62c1.2-0.38,2.37-0.86,3.5-1.4c1.07-0.51,2.69-0.81,3.09-2.15
					C173.75,102.48,173.77,102.24,173.76,102.02z"/>
			</g>
			<g>
				<g>
					<path class="st7" d="M173,111c1.53-1.48,2.63-3.36,1.24-5.06c0.26-0.65,0.28-1.4-0.28-1.9c-1.18-1.05-2.62-0.38-3.73,0.16
						c-0.69,0.34-1.93,1.21-2.59,1.6c-1.23,0.73-2.53,1.51-3.07,2.89c-0.58,1.48,0.7,2.52,1.81,2.58c-0.23,0.58-0.23,1.22,0.23,1.81
						c0.21,0.27,0.46,0.44,0.72,0.55c-0.73,0.92-0.94,2.39,0.54,2.64c1.72,0.29,4.16-1.06,5.35-2.25
						C174.15,113.09,174.57,111.43,173,111z"/>
				</g>
				<g>
					<path class="st9" d="M172.9,106.07c-1.93,1.04-3.82,2.15-5.67,3.32c-0.65,0.41-0.05,1.45,0.6,1.03
						c1.85-1.17,3.75-2.27,5.67-3.32C174.18,106.74,173.58,105.7,172.9,106.07z"/>
				</g>
				<g>
					<path class="st9" d="M171.46,110.8c-0.99,0.59-2.01,1.13-3.06,1.62c-0.7,0.33-0.09,1.36,0.6,1.03
						c1.05-0.49,2.06-1.03,3.06-1.62C172.73,111.44,172.13,110.41,171.46,110.8z"/>
				</g>
			</g>
			<g>
				<path class="st9" d="M171.67,103.04c-1.3,0.57-2.58,1.18-3.83,1.84c-0.68,0.36-0.08,1.39,0.6,1.03
					c1.25-0.66,2.53-1.28,3.83-1.84C172.98,103.77,172.37,102.74,171.67,103.04z"/>
			</g>
		</g>
		<g>
			<path class="st9" d="M117.25,107.65c-2.35-0.85-4.76-1.23-7.25-1.14c-0.77,0.03-0.77,1.22,0,1.2c2.39-0.08,4.68,0.29,6.93,1.1
				C117.66,109.07,117.97,107.91,117.25,107.65z"/>
		</g>
		<g>
			<path class="st9" d="M120.52,114.82c-1.19-1.67-2.38-3.03-4.34-3.79c-2.53-0.98-5.35-1.62-8.07-1.47c-0.77,0.04-0.77,1.24,0,1.2
				c4.29-0.23,8.85,1.1,11.38,4.67C119.93,116.04,120.97,115.45,120.52,114.82z"/>
		</g>
		<g>
			<path class="st12" d="M247.2,116.28c-13.55,13.09-27.09,26.18-40.64,39.27c-0.56,0.54,0.29,1.38,0.85,0.85
				c13.55-13.09,27.09-26.18,40.64-39.27C248.61,116.59,247.76,115.74,247.2,116.28z"/>
		</g>
		<g>
			<path class="st13" d="M402.28,190.02c0,0,1.4,10.28,0,10.98c-1.4,0.7-21.25,8.98-21.25,10.28s1.4,0.72,5.59-1
				c5.22-2.13,9.18-5.09,19.16-7.18c9.98-2.1,12.57-3.99,13.27-4.79c0.7-0.8,1.9-3.79-3.19-5.49
				C410.76,191.12,402.28,190.02,402.28,190.02z"/>
		</g>
		<g>
			<path class="st14" d="M44.38,119.01c-2.65,0.06-5.29,0.14-7.93,0.25c-0.06-0.13-0.18-0.25-0.37-0.3
				c-4.63-1.23-9.31-2.06-14.07-2.5c-0.77-0.07-0.76,1.13,0,1.2c3.72,0.34,7.38,0.95,11.01,1.78c-4.64,0.3-9.26,0.8-13.84,1.75
				c-0.75,0.16-0.44,1.31,0.32,1.15c8.2-1.7,16.55-1.95,24.89-2.15C45.15,120.19,45.15,119,44.38,119.01z"/>
		</g>
		<g>
			<path class="st14" d="M146.2,81.51c-0.16-0.75-1.31-0.43-1.15,0.32c1.32,6.21,1.62,12.45,0.92,18.76c-0.08,0.76,1.11,0.76,1.2,0
				C147.87,94.18,147.54,87.82,146.2,81.51z"/>
		</g>
		<g>
			<path class="st14" d="M54.07,152.75c-0.49-1.77-1.08-3.5-1.76-5.2c-0.28-0.71-1.44-0.4-1.15,0.32c0.68,1.7,1.27,3.43,1.76,5.2
				C53.12,153.81,54.28,153.49,54.07,152.75z"/>
		</g>
		<g>
			<path class="st8" d="M122.47,168.87c0,0-6.94,10.97-4.01,20.35c2.92,9.38,1.62,14.17-1.02,17.96c-2.64,3.79-3.95,15.97-2.3,15.57
				c1.65-0.4,5.64-5.59,8.84-7.98s0.6-16.76,0.8-27.14c0.2-10.38,1.8-23.19,1.8-23.19L122.47,168.87z"/>
		</g>
		<g>
			<path class="st8" d="M126.66,166.92c0,0,2.48,3.9,1.68,13.08c-0.8,9.18-1.28,17.33,0.16,16.95c1.44-0.38,3.75-2.78,4.69-5.97
				c0.94-3.19,0.43-14.9-1.48-19.96c-1.91-5.06-5.05-6.59-5.05-6.59V166.92z"/>
		</g>
		<g>
			<path class="st14" d="M191.21,153.89c-8.31-0.82-13.86,5.98-21.2,8.44c-8.32,2.78-17.04-1.45-25.5-1.24
				c-0.77,0.02-0.77,1.22,0,1.2c7.96-0.19,15.91,3.43,23.86,1.74c8.16-1.74,14.01-9.81,22.84-8.93
				C191.98,155.16,191.98,153.97,191.21,153.89z"/>
		</g>
		<g>
			<path class="st15" d="M105.17,21.04c-0.88-1.43-1.89-2.94-3.4-3.78c-1.67-0.93-3.39-0.47-5.19-0.76
				c-2.23-0.35-4.19-1.5-6.49-1.75c-2.4-0.26-4.7,0.07-6.99,0.8c-0.73,0.23-0.42,1.39,0.32,1.15c4.17-1.33,7.59-0.7,11.62,0.67
				c1.29,0.44,2.31,0.35,3.65,0.4c2.79,0.12,4.08,1.66,5.44,3.87C104.54,22.3,105.58,21.7,105.17,21.04z"/>
		</g>
		<g>
			<path class="st15" d="M126.43,64.91c-0.8-2.59-2.63-4.63-3.52-7.15c-0.97-2.76,0.12-5.72-0.39-8.59c-0.53-2.99-1.78-5.8-2.4-8.77
				c-0.16-0.75-1.31-0.43-1.15,0.32c0.56,2.65,1.62,5.16,2.2,7.8c0.63,2.85-0.33,5.6,0.21,8.37c0.42,2.17,1.9,3.87,2.86,5.8
				c1.51,3.01,1.98,6.23,1.63,9.56c-0.08,0.77,1.12,0.76,1.2,0C127.33,69.77,127.17,67.31,126.43,64.91z"/>
		</g>
		<g>
			<path class="st15" d="M129.85,84.95c-3.65-4.4-5.3-9.77-4.84-15.46c0.06-0.77-1.14-0.76-1.2,0c-0.49,6,1.35,11.67,5.19,16.3
				C129.5,86.39,130.34,85.53,129.85,84.95z"/>
		</g>
		<g>
			<path class="st15" d="M95.58,22.16c-2.76,1.21-5.53,2.59-7.72,4.71c-2.2,2.13-3.41,4.85-4.55,7.64
				c-0.29,0.71,0.87,1.02,1.15,0.32c1.16-2.84,2.43-5.55,4.79-7.6c2.03-1.77,4.49-2.95,6.94-4.02
				C96.89,22.88,96.28,21.85,95.58,22.16z"/>
		</g>
		<g>
			<path class="st15" d="M80.71,39.28c0.61-0.47-0.25-1.32-0.85-0.85c-2.08,1.63-4.54,3.46-5.82,5.84c-1.05,1.95-0.96,4.3-0.7,6.43
				c0.37,3.09,1.66,5.86,2.4,8.85c0.86,3.45,0.85,7.18,1.12,10.71c0.06,0.76,1.26,0.77,1.2,0c-0.4-5.25-0.82-9.95-2.42-14.98
				c-0.91-2.85-1.86-6.34-1-9.32C75.45,43.16,78.51,41,80.71,39.28z"/>
		</g>
	</g>
	<g>
		<path class="st13" d="M265.01,324.26c-1.01,0.59-2.64,10.03-4.2,10.14c-5.64,0.4-11.34,0.17-16.99,0.47
			c-1.91,0.1-4.49-0.31-6.2,0.75c-0.53,0.33-1.07,1.12-0.69,1.75c0.53,0.87,2.64,0.69,3.44,0.7c5.64,0.02,21.11,1.05,36.95,0.25
			c1.06-0.05,3.2-2.78-0.85-6.29C272.42,328.52,266.02,323.66,265.01,324.26z"/>
	</g>
</g>
</svg>
