<?xml version="1.0" encoding="utf-8"?>
<!-- Generator: Adobe Illustrator 25.2.0, SVG Export Plug-In . SVG Version: 6.00 Build 0)  -->
<svg version="1.1" id="레이어_1" xmlns="http://www.w3.org/2000/svg" xmlns:xlink="http://www.w3.org/1999/xlink" x="0px"
	 y="0px" viewBox="0 0 320.92 205.51" style="enable-background:new 0 0 320.92 205.51;" xml:space="preserve">
<style type="text/css">
	.st0{fill:#D4A48D;}
	.st1{fill:#915947;}
	.st2{fill:#FCE7DD;}
	.st3{fill:#465F78;}
	.st4{fill:#1F2F43;}
	.st5{fill:#ECC6B4;}
	.st6{fill:#D75D44;}
	.st7{fill:#F29856;}
	.st8{fill:#C17238;}
</style>
<g>
	<path class="st0" d="M205.61,134.65c-1.53,2.92-102.61-7.26-104.67-5.52c-4.61,12.15-21.89,58.05-21.84,58.05
		c15.23,0.24,113.06-0.21,114.68-0.2c0.03,0,0.07-0.02,0.08-0.06c1.01-3.48,15.87-51.51,15.37-51.6
		C207.76,135.06,205.72,134.64,205.61,134.65z"/>
	<path class="st1" d="M313.93,134.71c-1.28,2.91-106.41-7.26-108.31-5.53c-3.56,12.11-16.91,57.82-16.86,57.82
		c15.22,0.24,116.19-0.18,117.82-0.17c0.03,0,0.07-0.02,0.08-0.06c0.71-3.47,11.46-51.3,10.96-51.4
		C316.12,135.12,314.05,134.7,313.93,134.71z"/>
	<path class="st2" d="M307.32,183.78c-0.01,0.03-0.04,0.05-0.08,0.05c-1.57,0-92.33,0.4-112.47,0.21c-0.75-0.01-1.4-0.01-1.94-0.02
		c-0.02,0,1.66-5.8,4-13.8c4.22-14.49,10.57-36.22,12.87-44.02c1.91-1.73,103.63,8.42,104.91,5.51c0.12-0.01,2.18,0.4,3.68,0.67
		C318.78,132.47,308.03,180.31,307.32,183.78z"/>
	<path class="st3" d="M299.41,45.55c-0.86-1.59-2.37-2.64-4.12-3.03c-1.87-0.42-3.85-0.17-5.69,0.27c-1.91,0.45-3.78,1.1-5.6,1.83
		c-3.68,1.48-7.16,3.42-10.42,5.68c-3.31,2.29-6.4,4.9-9.29,7.7c-1.72,1.66-3.37,3.39-4.98,5.17c0.12-1.14,0.25-2.28,0.38-3.41
		c0.01-0.07-0.11-0.08-0.11-0.01c-0.14,1.19-0.27,2.38-0.4,3.57c-1.06,1.18-2.1,2.38-3.11,3.6c-0.63,0.75-1.25,1.52-1.86,2.28
		c-0.05,0.06,0.05,0.12,0.1,0.06c1.57-1.96,3.18-3.88,4.86-5.76c-0.51,4.72-0.95,9.44-1.31,14.18c-0.46,5.95-0.8,11.9-1.02,17.86
		c-0.13,3.39-0.22,6.77-0.27,10.16c0,0.04,0.06,0.09,0.1,0.05c3.27-3.56,6.53-7.13,9.77-10.71c3.21-3.54,6.39-7.1,9.54-10.7
		c3.18-3.64,6.32-7.31,9.39-11.04c3.06-3.71,6.06-7.47,8.97-11.3c2.54-3.35,5.43-6.97,5.95-11.29
		C300.47,48.97,300.26,47.11,299.41,45.55z"/>
	<path class="st4" d="M201.15,172.47c-0.66-1.06-1.82-2.09-3.11-2.27c0.02-0.04,0-0.1-0.05-0.1c-0.4-0.04-0.78,0.02-1.16,0.12
		c-2.33,8.01-4.01,13.8-4,13.8c0.55,0.01,1.2,0.02,1.94,0.02c0.62-0.23,1.22-0.52,1.81-0.84c1.3-0.72,2.52-1.62,3.48-2.76
		C201.9,178.26,202.72,175.02,201.15,172.47z"/>
	<path class="st1" d="M320.92,121.52c-0.92,5.99-11.03,50.73-11.07,50.73c-1.62,0-98.36,0.48-113.58,0.24
		c-0.04,0,9.06-33.79,14.09-50.97H320.92z"/>
	<path class="st1" d="M215.14,121.82c-1.78,5.97-18.26,50.58-18.3,50.58c-1.62,0-98.43,0.48-113.62,0.24
		c-0.04,0,13.87-33.69,21.36-50.82H215.14z"/>
	<path class="st3" d="M298.65,16.2c-0.03-0.04-0.06-0.09-0.09-0.13c-0.69-0.98-1.67-1.7-3.04-1.91c-1.07-0.16-2.16,0.03-3.19,0.3
		c-0.98,0.26-1.94,0.59-2.88,0.95c-1.07,0.41-2.12,0.87-3.14,1.38c-0.05,0.02-0.1,0.05-0.14,0.07c-0.66,0.33-1.3,0.68-1.94,1.04
		c-2.68,1.54-5.18,3.4-7.5,5.44c-0.04,0.04-0.08,0.07-0.13,0.11c-0.56,0.5-1.12,1.01-1.66,1.52c-2.92,2.78-5.57,5.83-8.07,8.98
		c-0.05,0.06-0.1,0.12-0.15,0.19c-2.57,3.24-4.99,6.6-7.4,9.97c-2.29,3.19-4.55,6.4-6.79,9.62c-1.13-2.21-1.61-4.77-0.49-7.09
		c1.26-2.63,4.46-4.92,7.38-3.4c0.09,0.04,0.16-0.09,0.08-0.13c-2.28-1.19-4.85-0.08-6.43,1.72c-0.82,0.94-1.43,2.08-1.69,3.3
		c-0.28,1.36-0.08,2.81,0.36,4.11c0.19,0.57,0.43,1.11,0.7,1.64c-0.59,0.84-1.17,1.69-1.76,2.53c-0.67,0.98-1.35,1.96-2.02,2.94
		c-5.37-3.99-11.26-7.29-17.47-9.79c-0.68-0.27-1.37-0.54-2.06-0.79c0.68-0.24,1.25-0.68,1.73-1.31c0.9-1.17,1.61-2.5,2.39-3.75
		c3.37-5.42,6.74-10.84,10.11-16.26c0.17-0.27,0.33-0.53,0.5-0.79c1.41-2.25,2.85-4.5,4.14-6.82c1.34-2.41,2.5-4.96,3-7.68
		c0.41-2.2,0.41-4.57-0.61-6.62c-0.44-0.88-1.07-1.67-1.92-2.18c-1.1-0.67-2.38-0.71-3.63-0.6c-5.11,0.45-10.09,2.07-14.64,4.4
		c-4.62,2.35-8.84,5.44-12.62,8.97c-3.15,2.93-5.99,6.18-8.61,9.6c-0.77,1.01-1.53,2.03-2.26,3.06c-3.34,4.69-6.33,9.61-9.25,14.57
		c-0.6,1.02-1.19,2.04-1.79,3.06c-0.22,0.12-0.45,0.23-0.68,0.32v-2.65c0-0.1-0.15-0.1-0.15,0v2.71c-0.27,0.1-0.55,0.18-0.73,0.42
		c-0.06,0.08,0.05,0.18,0.11,0.11c0.15-0.19,0.39-0.29,0.63-0.38v1.04c-1.45-0.27-2.89-0.75-4.02-1.68
		c-0.74-0.61-1.28-1.4-1.56-2.32c-0.03-0.09-0.17-0.05-0.15,0.04c0.77,2.57,3.16,3.65,5.72,4.11v1.06c0,0.1,0.15,0.1,0.15,0v-1.03
		c1.53,0.26,3.1,0.31,4.42,0.33c6.39,0.12,12.78,0.23,19.17,0.35c1.58,0.03,3.17,0.06,4.75,0.09c1.55,0.03,3.12,0.15,4.67,0.06
		c0.32-0.02,0.62-0.07,0.9-0.15c5.28,1.93,10.35,4.44,15.09,7.46c1.59,1.01,3.14,2.09,4.65,3.21c0.03,0.03,0.08,0,0.1-0.03
		c1.25-1.83,2.51-3.65,3.77-5.47c1.12,2.09,2.84,3.87,4.61,5.41c2.56,2.22,5.37,4.16,8.33,5.82c1.67,0.94,3.39,1.78,5.16,2.52
		c0.75,0.32,1.69,0.56,2.26,1.19c0.01,0,0.01,0.01,0.02,0.02c-0.31,0.57-0.62,1.14-0.92,1.72c-0.02,0.04-0.01,0.08,0.03,0.1
		c0.39,0.25,0.82,0.08,1.09-0.26c0.32-0.39,0.39-0.9,0.15-1.34c-0.05-0.08-0.1-0.16-0.16-0.23c0.19-0.35,0.38-0.69,0.57-1.04
		c1.78-3.26,3.62-6.48,5.53-9.67c2.47-4.14,5.03-8.21,7.69-12.23c1.32-1.99,2.66-3.96,4.02-5.91c0.1-0.14,0.2-0.28,0.3-0.43
		c0.03-0.05,0.07-0.1,0.1-0.14c1.18-1.68,2.39-3.33,3.53-5.03c1.27-1.87,2.5-3.84,3.44-5.92c0.02-0.05,0.05-0.1,0.07-0.15
		c0.77-1.72,1.33-3.51,1.56-5.39C300.13,20.95,299.91,18.11,298.65,16.2z M273.1,70.25c-0.19,0.36-0.58,0.66-0.97,0.47
		c0.29-0.53,0.57-1.07,0.86-1.6C273.23,69.45,273.3,69.85,273.1,70.25z"/>
	<path class="st4" d="M296.04,28.54c0.76-0.03,1.51-0.07,2.27-0.11c-0.02,0.05-0.05,0.1-0.07,0.15c-1.48,0.09-2.96,0.15-4.45,0.15
		c-1.4,0-2.88,0.04-4.23-0.36c-0.58-0.17-1.09-0.44-1.5-0.82c-2.62,3-5.18,6.06-7.66,9.18c0.22,0.3,0.5,0.57,0.86,0.79
		c0.76,0.47,1.65,0.75,2.5,1c0.89,0.26,1.81,0.46,2.73,0.61c1.57,0.25,3.17,0.37,4.78,0.41c-0.03,0.05-0.07,0.1-0.1,0.14
		c-2.24-0.05-4.47-0.26-6.63-0.8c-0.87-0.22-1.73-0.49-2.55-0.84c-0.64-0.27-1.26-0.62-1.69-1.18c-0.12,0.15-0.24,0.3-0.36,0.45
		c-4.43,5.62-8.63,11.42-12.57,17.39c-0.05,0.08-0.18,0.01-0.13-0.08c2.22-3.36,4.51-6.67,6.89-9.92c1.97-2.7,4-5.35,6.08-7.97
		c-0.47-0.69-0.61-1.57-0.81-2.36c-0.25-0.97-0.5-1.94-0.74-2.91l-2.05-8.03c0.04-0.04,0.08-0.08,0.13-0.11
		c0.78,3.04,1.55,6.08,2.33,9.12c0.24,0.96,0.48,1.91,0.73,2.87c0.13,0.48,0.29,0.9,0.53,1.27c2.3-2.89,4.66-5.74,7.09-8.52
		c0.18-0.21,0.37-0.42,0.55-0.63c-0.36-0.36-0.63-0.81-0.78-1.35c-0.2-0.73-0.24-1.5-0.31-2.25c-0.09-0.87-0.17-1.74-0.26-2.61
		c-0.15-1.46-0.29-2.92-0.44-4.38c0.05-0.02,0.1-0.05,0.14-0.07l0.54,5.42c0.08,0.84,0.17,1.68,0.25,2.51
		c0.08,0.76,0.18,1.56,0.61,2.22c0.1,0.15,0.21,0.29,0.33,0.41c3.39-3.87,6.9-7.64,10.52-11.29c0.03,0.04,0.06,0.08,0.09,0.13
		c-1.64,1.65-3.25,3.33-4.84,5.02c-1.92,2.05-3.81,4.13-5.66,6.25c0.8,0.73,1.99,0.96,3.05,1.05
		C292.8,28.63,294.43,28.59,296.04,28.54z"/>
	<path class="st4" d="M300.03,83.11c-0.49-1.56-1.65-2.6-3.26-2.9c-1.64-0.31-3.43-0.06-5.04,0.3c-7.32,1.65-13.17,7.34-17.97,12.79
		c-4.96,5.64-9.11,11.99-12.27,18.79c-0.61-3.09-1.23-6.19-1.84-9.28c-0.03-0.15-0.25-0.09-0.23,0.06c0.64,3.21,1.24,6.43,1.87,9.65
		c-0.06,0.14-0.13,0.28-0.2,0.42c-0.37,0.83-0.73,1.66-1.08,2.5c-0.06,0.14,0.17,0.2,0.23,0.06c0.36-0.87,0.73-1.74,1.12-2.59
		c0.52,2.67,1.07,5.34,1.67,8c0.63,2.76,1.45,5.46,2.7,8c1.29,2.6,2.88,5.04,4.15,7.65c0.66,1.36,1.24,2.79,1.63,4.26
		c-0.06,0.1-0.11,0.2-0.17,0.3c-0.07,0.13,0.13,0.25,0.2,0.12c0.02-0.03,0.04-0.06,0.05-0.09c0.4,1.65,0.55,3.36,0.31,5.07
		c-0.02,0.15,0.2,0.21,0.23,0.06c0.27-1.88,0.09-3.68-0.37-5.42c4.44-7.84,8.87-15.69,13.31-23.53c2.25-3.99,4.51-7.97,6.76-11.96
		c2.15-3.79,4.48-7.54,6.34-11.48c0.84-1.77,1.54-3.62,1.91-5.55C300.4,86.64,300.55,84.77,300.03,83.11z"/>
	<path class="st4" d="M301.43,120.06c-1.28,2.91-1.72,4.88-3.2,7.69c-1.76,3.34,1.18,6.6-0.86,9.78c-1.03,1.6-79.33,1.78-86.22,0.34
		c-4.51-0.94-9.07-1.63-13.63-2.26c-5.16-0.71-10.33-1.41-15.51-1.93c-10.34-1.04-20.73-0.93-31.07,0.18
		c-7.41,0.8-55.87,10.33-57.77,12.06c-3.56,12.11-9.08,26.79-9.04,26.79c15.22,0.24,208.32-0.53,209.94-0.53
		c0.03,0,0.07-0.02,0.08-0.06c0.71-3.47,2.14-12,4.13-20.99c2.91-13.15,6.54-27.33,6.87-28.58c0.53-2,0.46-1.73-0.05-1.82
		C303.61,120.47,301.55,120.05,301.43,120.06z"/>
	<path class="st2" d="M304.83,126.21c-0.55,2.05-1.14,4.08-1.68,6.13c-1.08,4.08-2.09,8.17-3.05,12.28
		c-1.44,6.18-2.77,12.38-4.07,18.6c-0.01,0.05-0.02,0.1-0.03,0.15c-0.42,2-0.84,4-1.25,6c-0.01,0.03-0.04,0.05-0.07,0.05
		c-1.23,0-10.55-0.18-20.26-0.24c-0.24,0-0.47,0-0.71,0c-2.58-0.01-4.8-0.02-6.31,0c-8,0.07-16,0.14-24.01,0.21
		c-8,0.07-16.01,0.14-24.01,0.21c0,0-18.76,0.33-32.44,0.54c-4.87,0.08-9.1,0.14-11.61,0.16c-0.26,0-0.49,0.01-0.71,0.01
		c-14.87,0.13-29.74,0.17-44.61,0.11c-6.35-0.02-12.69-0.06-19.04-0.12c-8.6-0.08-17.2-0.18-25.8-0.32c-0.05,0-0.08,0.04-0.07-0.01
		c0.65-2.4,1.05-4.51,1.29-6.47c0.01-0.05,0.01-0.1,0.02-0.15c0.25-2.14,0.31-4.12,0.3-6.13c0-0.05,0-0.1,0-0.15
		c0-0.54-0.01-1.09-0.02-1.64c0-0.05,0-0.1,0-0.15c-0.03-1.93-0.09-3.96-0.06-6.25c-0.31,0.1,3.12-1.49,2.8-1.38
		c-0.09,0.03-0.13-0.12-0.04-0.15c0.32-0.11,0.65-0.22,0.98-0.32c0-0.18,0-0.35,0-0.53c0-0.1,0.15-0.09,0.15,0c0,0.16,0,0.32,0,0.48
		c0.81-0.27,1.61-0.54,2.42-0.8c8.65-2.85,17.35-5.55,26.16-7.85c1.1-0.29,2.19-0.57,3.29-0.84c9.75-2.44,19.64-4.37,29.64-5.43
		c10.15-1.07,20.35-1.18,30.51-0.17c5.09,0.51,10.16,1.19,15.23,1.88c4.48,0.61,8.96,1.28,13.38,2.19
		c6.77,1.4,13.47,3.41,19.57,6.64c4.77,0.43,9.53,1.17,14.28,1.76c3.91,0.48,7.85,0.87,11.79,0.92c3.92,0.05,7.83-0.24,11.75-0.27
		c3.87-0.03,7.72,0.25,11.47,1.29c1.84,0.51,3.72,1.03,5.61,0.47c1.55-0.46-1.99-1.48-0.89-2.63c1.16-1.2,18.26-31.29,20.58-38.32
		c0.03-0.09,0.18-0.05,0.14,0.04v0c0.03,0.01,0.05,0.03,0.05,0.07c-0.18,2.37-0.25,4.75-0.21,7.13c0.04,2.38,0.32,4.74,0.36,7.11
		C305.71,122.32,305.35,124.27,304.83,126.21z"/>
	<path class="st5" d="M148.91,142.55c-1.8,0.3-3.61,0.43-5.42,0.43c0.03-0.01,0.05-0.02,0.08-0.03c1.24-0.52,2.53-0.92,3.85-1.19
		c0.09-0.02,0.08-0.17-0.01-0.15c-1.48,0.29-2.9,0.76-4.26,1.37c-4.56-0.05-9.12-0.92-13.56-1.98c-3.49-0.83-6.96-1.79-10.47-2.55
		c-8.81,2.31-17.51,5-26.16,7.85c-0.81,0.27-1.62,0.54-2.42,0.8c0-0.16,0-0.32,0-0.48c0-0.1-0.15-0.1-0.15,0c0,0.18,0,0.35,0,0.53
		c-0.33,0.11-0.65,0.22-0.98,0.32c-0.09,0.03-0.06,0.18,0.04,0.15c0.31-0.1-3.12,1.49-2.8,1.38c-0.03,2.29,0.02,4.32,0.06,6.25
		c0,0.05,0,0.1,0,0.15c0.01,0.55,0.02,1.1,0.02,1.64c0,0.05,0,0.1,0,0.15c0.01,2.02-0.05,3.99-0.3,6.13c0,0.05-0.01,0.1-0.02,0.15
		c-0.23,1.96-0.63,4.06-1.29,6.47c-0.01,0.05,0.03,0.01,0.07,0.01c8.6,0.13,17.2,0.24,25.8,0.32c0.32-0.33,0.63-0.68,0.94-1.03
		c0.95-1.07,1.86-2.17,2.92-3.12c1.08-0.97,2.27-1.82,3.54-2.53c2.6-1.44,5.66-1.97,8.1-3.7c2.23-1.59,3.6-4.04,5.07-6.28
		c2.87-4.4,6.75-8.32,11.59-10.49c0.4,0,0.81,0,1.21-0.01c1.53-0.03,3.06-0.17,4.57-0.43C149.02,142.69,149.01,142.54,148.91,142.55
		z"/>
	<path class="st3" d="M305.57,105.65c-0.92,3.73-11.04,43.64-13.3,49.74c-0.03,0.08-0.02,0.14-0.06,0.13
		c-0.94-0.22-51.53-10.56-53.21-10.81c-0.05-0.01-0.1-0.02-0.15-0.02c-2.73-0.4-5.46-0.81-8.19-1.2c-1.04-0.15-2.07-0.3-3.11-0.44
		c-0.05-0.01-0.1-0.01-0.15-0.02c-2.38-0.33-4.76-0.65-7.15-0.96c-0.14-0.02-0.27-0.03-0.41-0.05c-7.06-0.89-14.6-1.27-21.1,2.13
		c-5.76,3.02-9.87,8.28-13.7,13.4c-0.13,0.18-0.27,0.36-0.4,0.53c-0.02,0.03-0.04,0.06-0.06,0.08c0.03,0.06-0.67-1.09-0.96-1.6
		c-2.85-4.97-8.11-8.11-13.5-9.62c-6.6-1.86-13.64-1.74-20.44-1.87c-7.05-0.13-14.09-0.15-21.14,0.03c-7,0.18-14.01,0.55-20.98,1.2
		c-7.06,0.65-14.09,1.6-21.06,2.89c-0.07,0.01-0.12-0.05-0.08-0.11c2.51-4.75,25.25-42.2,25.85-43.27c0.29-0.51,0.57-1.01,0.86-1.52
		c0.22-0.39,0.42-0.81,0.71-1.15c0.62-0.72,1.5-0.55,2.35-0.45c1.2,0.14,32.09-4.7,44.68-4.3c22.77,0.71,46.94-5.42,69.69-4.22
		c20.41,1.07,71.23,10.49,74.96,11.39C305.56,105.56,305.58,105.61,305.57,105.65z"/>
	<path class="st3" d="M287.37,99.71c-0.02-0.05-0.05-0.09-0.07-0.13c-0.26-0.46-0.59-0.89-1.02-1.28c-0.53-0.5-1.15-0.82-1.81-0.97
		c-0.05-0.01-0.1-0.02-0.15-0.03c-0.45-0.09-0.91-0.11-1.37-0.05c0-0.01,0.01-0.03,0.01-0.04c0.02-0.06,0.03-0.11,0.04-0.17
		c0.18-0.72,0.35-1.44,0.5-2.16c0.43-2.03,0.82-4.25,0.04-6.25c-0.68-1.74-2.24-2.94-3.99-3.48c-4.09-1.27-8.4,1.14-11.51,3.62
		c-3.3,2.63-5.92,6.05-7.97,9.71c-2.36,4.2-4.02,8.74-5.6,13.28c-0.15,0.43-0.3,0.87-0.45,1.3h31.38c0.3-0.45,0.41-1.08,0.56-1.56
		l0.29-0.93c0.02-0.06,0.04-0.12,0.06-0.18c0.2-0.64,0.39-1.28,0.59-1.92c0.41-1.33,0.86-2.82,1.06-4.31
		c0.01-0.06,0.02-0.12,0.02-0.18C288.15,102.48,288.05,101,287.37,99.71z"/>
	<path class="st4" d="M283.01,97.03c-0.01,0.06-0.03,0.11-0.04,0.17c-0.81,0.2-1.59,0.51-2.34,0.9c-0.27,0.14-0.53,0.3-0.79,0.46
		c-0.04,0.03-0.09,0.05-0.13,0.08c-1.68,1.09-3,2.57-4.09,4.23c-0.03,0.04-0.06,0.08-0.08,0.13c-0.93,1.45-1.68,3.03-2.33,4.62
		c-0.08,0.2-0.17,0.41-0.25,0.62c-0.02,0.05-0.04,0.1-0.06,0.15c-0.6,1.55-1.16,3.11-1.72,4.68h-0.16c0.32-0.89,0.65-1.79,0.98-2.68
		c1.31-3.59,2.75-7.36,5.49-10.13c0.65-0.65,1.37-1.24,2.15-1.74c0.02-0.02,0.04-0.03,0.07-0.04h0
		C280.73,97.8,281.85,97.3,283.01,97.03z"/>
	<path class="st4" d="M278,63.63c-0.01,0.1-0.96,7.62-2.29,18.16c-1.89,14.88-4.56,35.8-6.5,50.37c-11.79-2.4-22.77-4.62-23.54-4.73
		c-0.05-0.01-0.1-0.02-0.15-0.02c-2.73-0.4-5.46-0.81-8.19-1.2c-1.04-0.15-2.07-0.3-3.11-0.44c-0.05-0.01-0.1-0.01-0.15-0.02
		c-2.38-0.33-4.76-0.65-7.15-0.96c-0.14-0.02-0.27-0.03-0.41-0.05c-7.06-0.89-14.44-0.93-21.1,2.13
		c-8.52,3.92-13.58,15.01-13.64,14.9c-0.2-0.33-1.26-2.1-1.47-2.48c-2.85-4.97-8.11-8.11-13.5-9.62c-6.6-1.86-13.64-1.74-20.44-1.87
		c-7.05-0.13-14.09-0.15-21.14,0.03c-3.66,0.09-7.32,0.24-10.97,0.45c1.93-12.9,4.45-30.25,6.43-43.81
		c1.2-8.22,2.2-15.04,2.74-18.64c0,0,0,0,0-0.01l0-0.01c0-0.03,20-31.81,29.31-45.63c0.05-0.08,0.14-0.17,0.2-0.25
		c0.01-0.02,0.02-0.03,0.03-0.04c0.01-0.01,0-0.01,0.02,0.01c0,0.01,0.01,0.02,0.01,0.03c0.03,0,0.06,0,0.09,0h0.09
		c0.03,0,0.06,0,0.09,0h0.02c0.02,0,0.05,0,0.07,0c2.96,0.05,105.1,1.85,105.11,1.83c0.01-0.01,0-0.01,0.02,0.01
		c0,0,0.52,2.26,1.3,5.71c0.01,0.05,0.02,0.11,0.04,0.16c0.39,1.71,0.85,3.71,1.34,5.88c0.01,0.05,0.02,0.11,0.04,0.16
		c0.41,1.81,0.85,3.73,1.29,5.69c0.01,0.05,0.03,0.11,0.04,0.16c0.44,1.95,0.89,3.93,1.34,5.88c0.01,0.05,0.02,0.11,0.04,0.16
		c0.42,1.83,0.83,3.62,1.21,5.33c0.01,0.05,0.02,0.11,0.04,0.16c0.49,2.14,0.94,4.13,1.34,5.88c0.01,0.05,0.02,0.11,0.04,0.16
		C277.4,61.01,278,63.62,278,63.63z"/>
	<path class="st3" d="M218.65,24.91c0.01-0.06-0.09-0.08-0.13-0.03c-1.64,1.91-3.26,3.82-4.87,5.75c-3.59,4.31-7.1,8.67-10.52,13.09
		c-4.92,6.36-9.66,12.81-14.21,19.37c-0.15,0.22-0.3,0.43-0.45,0.65c-0.04,0.06-0.09,0.12-0.13,0.18c0.21,0.01,0.41,0.01,0.62,0.02
		c8.13,0.05,16.25,0.08,24.38,0.09c0.01-0.07,0.02-0.13,0.03-0.2c1.24-8.01,2.45-16.01,3.51-24.02c0.4-3.02,0.78-6.05,1.13-9.07
		C218.23,28.8,218.45,26.85,218.65,24.91z"/>
	<path class="st3" d="M265.56,26.77c0.01-0.06-0.09-0.08-0.13-0.03c-1.63,1.9-3.25,3.81-4.85,5.73c-3.58,4.29-7.07,8.63-10.47,13.03
		c-4.68,6.04-9.2,12.18-13.54,18.4c-0.05,0.07-0.09,0.13-0.14,0.2c8.04-0.03,16.08,0.03,24.12-0.03c0.01-0.07,0.02-0.23,0.03-0.3
		c1.14-7.39,2.25-14.78,3.23-22.16c0.4-3.01,0.77-6.02,1.12-9.03C265.15,30.65,265.36,28.71,265.56,26.77z"/>
	<path class="st6" d="M213.12,82.45L213.12,82.45l-3.82-0.04l-1.14-0.01l-4.39-0.05c0,0,0,0-0.01,0c0,0,0,0-0.01,0c0,0,0,0-0.01,0
		c0,0-0.01,0-0.01,0.01c0,0-0.01,0-0.01,0.01l0,0c-0.01,0.01-0.01,0.02-0.01,0.03c-0.8,3.24-1.64,6.48-2.54,9.71
		c-0.26,0.93-0.51,1.85-0.78,2.77c-0.01,0.02,0,0.03,0.02,0.04c0,0,0.01,0,0.01,0h0c0,0,0,0,0.01,0l4.42,0.05l1.14,0.01l3.79,0.04
		c0,0,0.01,0,0.01,0h0.01c0,0,0,0,0,0c0.01,0,0.03-0.01,0.03-0.03c0.92-3.23,1.79-6.48,2.62-9.72c0.24-0.93,0.47-1.85,0.7-2.78
		C213.17,82.47,213.14,82.45,213.12,82.45z"/>
	<path class="st6" d="M252.96,82.56C252.96,82.56,252.96,82.56,252.96,82.56l-3.9-0.04l-1.14-0.01l-4.31-0.05h-0.01c0,0,0,0-0.01,0
		c0,0,0,0-0.01,0c0,0-0.01,0-0.01,0c0,0-0.01,0-0.01,0.01c0,0,0,0,0,0c-0.01,0.01-0.01,0.02-0.01,0.03
		c-0.8,3.24-1.64,6.48-2.54,9.71c-0.26,0.93-0.51,1.85-0.78,2.78c0,0.02,0,0.03,0.02,0.04c0,0,0.01,0,0.01,0c0,0,0,0,0,0s0,0,0.01,0
		l4.33,0.05l1.14,0.01l3.88,0.04c0,0,0.01,0,0.01,0c0,0,0,0,0.01,0h0c0.01,0,0.03-0.01,0.03-0.03c0.92-3.24,1.79-6.48,2.62-9.72
		c0.24-0.93,0.47-1.85,0.7-2.78C253.01,82.58,252.98,82.56,252.96,82.56z"/>
	<path class="st3" d="M264.83,128.55c0.57-1.24,1.04-2.54,1.41-3.86c0.04-0.44,0.1-0.88,0.19-1.3c0.01-0.2,0.02-0.41,0.02-0.61
		c0-0.05,0-0.11,0-0.16c0.02-0.7,0.01-1.4-0.03-2.09c-0.08-1.71-0.26-3.56-1.25-5.02c-0.12-0.17-0.25-0.33-0.38-0.49
		c-0.03-0.04-0.07-0.08-0.1-0.11c-0.96-0.99-2.33-1.51-3.71-1.59h-0.01c-0.05,0-0.1-0.01-0.16-0.01c-0.99-0.03-1.96,0.16-2.9,0.49
		c-0.05,0.02-0.1,0.03-0.15,0.05c-0.79,0.29-1.55,0.68-2.27,1.11c-1.65,1-3.11,2.26-4.4,3.69c-0.04,0.04-0.07,0.08-0.1,0.12
		c-1.08,1.22-2.04,2.56-2.87,3.95c-0.65,1.09-1.24,2.22-1.77,3.37c-0.02,0.05-0.04,0.1-0.07,0.15c-1.23,2.69-2.17,5.52-3.07,8.34
		h18.18C262.61,132.6,263.86,130.66,264.83,128.55z"/>
	<path class="st4" d="M281.09,107.12c-0.62,1.81-1.25,3.62-1.87,5.43h0c0.38,0,0.79-0.14,1.16-0.23c1.46-0.39,2.89-0.9,4.32-1.39
		c0.54-0.18,1.07-0.36,1.61-0.55c-0.02,0.06-0.04,0.12-0.06,0.18c-0.43,0.15-0.87,0.3-1.3,0.45c-1.19,0.4-2.39,0.8-3.59,1.18
		c-0.68,0.21-1.46,0.54-2.18,0.49l-0.13,0.38h-0.16c0.05-0.13,0.09-0.27,0.14-0.4c-0.2-0.03-0.4-0.1-0.58-0.21
		c-1.97-1.17-3.82-2.57-5.54-4.07c-0.02-0.02-0.04-0.04-0.07-0.06c-0.07-0.06,0.03-0.17,0.11-0.11c0.01,0,0.01,0.01,0.02,0.02
		c1.09,0.96,2.24,1.87,3.43,2.7c0.6,0.42,1.22,0.83,1.84,1.22c0.26,0.16,0.52,0.35,0.83,0.4c0.63-1.82,1.25-3.64,1.88-5.45
		c-0.29-0.08-0.55-0.25-0.8-0.44c-0.51-0.39-1.01-0.8-1.51-1.2c-1.03-0.82-2.06-1.64-3.09-2.45c-0.03-0.02-0.05-0.04-0.08-0.06
		c-0.08-0.06,0.03-0.17,0.11-0.11c0.02,0.02,0.04,0.03,0.05,0.04c1.1,0.87,2.2,1.74,3.29,2.61c0.5,0.4,0.99,0.82,1.51,1.19
		c0.19,0.13,0.38,0.22,0.58,0.27c0.58-1.69,1.17-3.38,1.75-5.07c-1.05-1.04-2.06-2.12-3.04-3.22c-0.02-0.02-0.03-0.04-0.05-0.05
		c-0.03-0.03-0.02-0.06-0.01-0.09c0.01-0.03,0.04-0.04,0.07-0.04h0c0.02,0,0.03,0.01,0.05,0.02c0.02,0.03,0.05,0.05,0.07,0.08
		c0.75,0.85,1.53,1.68,2.32,2.49c0.2,0.2,0.4,0.41,0.6,0.61c0.02,0.02,0.03,0.03,0.05,0.04c0.51-1.47,1.01-2.94,1.52-4.41
		c0.05,0.01,0.1,0.02,0.15,0.03c-0.44,1.27-0.87,2.54-1.31,3.81c-0.08,0.22-0.15,0.45-0.23,0.67c0.05,0.02,0.1,0.02,0.19-0.01
		c0.13-0.04,0.27-0.14,0.4-0.21c0.53-0.28,1.06-0.56,1.59-0.84c0.73-0.39,1.47-0.78,2.2-1.16c0.02,0.04,0.05,0.09,0.07,0.13
		c-1.46,0.77-2.92,1.54-4.38,2.31c-0.03,0.02-0.07,0.01-0.09-0.01c-0.01-0.01-0.03-0.02-0.04-0.04c-0.57,1.66-1.14,3.32-1.72,4.98
		c0.36,0.05,0.73-0.03,1.11-0.18c1.17-0.48,2.3-1.1,3.43-1.66c0.76-0.38,1.52-0.75,2.29-1.14c-0.01,0.06-0.02,0.12-0.02,0.18
		c-1.08,0.54-2.17,1.08-3.26,1.62c-0.6,0.3-1.21,0.59-1.82,0.89c-0.46,0.22-0.94,0.46-1.46,0.48
		C281.3,107.14,281.2,107.13,281.09,107.12z"/>
	<path class="st4" d="M202.92,115.42c-1.52,3.7-3.05,7.4-4.59,11.1c-2.72,6.52-5.48,13.02-8.27,19.5c-1.4,3.26-2.82,6.52-4.24,9.77
		c-0.26,0.59-0.51,1.17-0.77,1.75c-0.13,0.18-0.27,0.36-0.4,0.53c0.32-0.72,0.63-1.44,0.95-2.16c0.72-1.65,1.44-3.3,2.16-4.95
		c2.57-5.91,5.11-11.84,7.61-17.78c2.5-5.92,4.97-11.86,7.4-17.81C202.81,115.29,202.96,115.33,202.92,115.42z"/>
	<path class="st5" d="M176.62,167.57c-1.19-0.69-2.34-1.42-3.49-2.16c-2.26-1.46-4.52-2.95-6.92-4.16c-2.49-1.26-5.13-2.13-7.9-2.5
		c-2.87-0.38-5.79-0.28-8.67,0.06c-3.35,0.4-6.64,1.13-9.92,1.87c-0.09,0.02-0.07,0.17,0.03,0.15c5.29-1.2,10.7-2.39,16.16-2.14
		c2.65,0.12,5.26,0.62,7.74,1.58c2.35,0.91,4.54,2.18,6.67,3.51c1.18,0.74,2.34,1.51,3.52,2.25c0.6,0.38,1.2,0.75,1.8,1.12
		c0.28,0.17,0.57,0.34,0.85,0.51c0.26,0.15,0.83,0.34,0.87,0.65c-0.01-0.1-0.16-0.07-0.15,0.03c0.03,0.19,0.3,0.18,0.36,0.01
		C177.7,168,176.83,167.69,176.62,167.57z"/>
	<path class="st4" d="M208.16,82.39c-1.07,4.2-2.17,8.39-3.29,12.58l1.14,0.01c1.13-4.19,2.22-8.39,3.3-12.58L208.16,82.39z"/>
	<path class="st4" d="M247.93,82.51c-1.07,4.2-2.18,8.39-3.31,12.58l1.14,0.01c1.13-4.19,2.24-8.39,3.31-12.58L247.93,82.51z"/>
	<path class="st3" d="M174.93,63.76c-0.95,4.91-1.87,9.82-2.75,14.75c-1.59,8.81-3.07,17.65-4.45,26.52
		c-0.6,3.85-1.61,10.86-2.66,18.27c-0.07,0-0.13,0-0.2-0.01c0.42-2.99,0.76-5.44,0.95-6.75c1.29-8.87,2.69-17.71,4.18-26.52
		c1.49-8.8,3.08-17.57,4.77-26.32C174.79,63.6,174.95,63.66,174.93,63.76z"/>
	<path class="st3" d="M174.97,63.86c-0.06,0.02-0.11,0.04-0.17,0.05c-2.21-7.94-4.98-17.98-5.83-21.16c-2.04-7.6-4-15.21-5.88-22.84
		h0.08c0.03,0,0.06,0,0.09,0c0.95,3.84,1.91,7.67,2.9,11.5C167.81,37.79,171.94,52.91,174.97,63.86z"/>
	<path class="st3" d="M277.97,63.89c-0.01,0.05-0.01,0.1-0.02,0.16c-2.93,0.02-7.86,0.01-10.8,0.03c-6.38,0.05-12.77,0.08-19.15,0.1
		c-4.08,0.01-8.16,0.02-12.24,0.03c-2.08,0-4.16,0-6.23,0c-3.79,0-7.57,0-11.35-0.01c-6.43-0.01-12.85-0.04-19.28-0.07
		c-5.46-0.03-10.91-0.07-16.37-0.12c-2.57-0.02-5.14-0.05-7.7-0.08c0.01-0.05,0.01-0.11,0-0.16c4.55,0.05,9.11,0.08,13.66,0.12
		c3.34,0.03,6.68,0.05,10.03,0.07c6.56,0.04,13.13,0.06,19.69,0.07c4.19,0.01,8.38,0.01,12.57,0.01c1.57,0,3.14,0,4.72,0
		c4.21,0,8.42-0.02,12.63-0.03c6.35-0.02,12.71-0.05,19.07-0.1C270.11,63.9,275.04,63.92,277.97,63.89z"/>
	<g>
		<path class="st3" d="M269.81,27.63c-3.02-0.01-7.09-0.05-9.66-0.06c-6.57-0.01-13.15-0.02-19.72-0.05
			c-4.2-0.02-8.4-0.04-12.6-0.07c-2.14-0.02-4.28-0.03-6.42-0.05c-3.9-0.03-7.79-0.06-11.69-0.1c-6.62-0.06-13.23-0.14-19.85-0.23
			c-5.62-0.07-11.23-0.16-16.85-0.25c-2.64-0.04-5.29-0.09-7.93-0.14c0.01-0.05,0.01-0.11,0-0.16c4.69,0.08,9.37,0.16,14.06,0.23
			c3.44,0.05,6.88,0.1,10.32,0.15c6.75,0.09,13.51,0.17,20.27,0.23c4.31,0.04,8.63,0.08,12.94,0.11c1.62,0.01,3.24,0.02,4.86,0.03
			c4.33,0.03,8.67,0.05,13,0.07c6.54,0.03,13.09,0.05,19.63,0.05c2.56,0,6.59,0.05,9.6,0.06C269.78,27.53,269.8,27.58,269.81,27.63z
			"/>
		<path class="st3" d="M271.18,33.67c-3-0.01-6.96-0.05-9.49-0.06c-6.57,0-13.15-0.02-19.72-0.05c-4.2-0.02-8.4-0.04-12.6-0.07
			c-2.14-0.02-4.28-0.03-6.42-0.05c-3.9-0.03-7.79-0.06-11.69-0.1c-6.62-0.06-13.23-0.14-19.85-0.23
			c-5.62-0.07-11.23-0.15-16.85-0.25c-2.64-0.04-5.29-0.09-7.93-0.14c0.01-0.05,0.01-0.11,0-0.16c4.69,0.08,9.37,0.16,14.06,0.23
			c3.44,0.05,6.88,0.1,10.32,0.15c6.75,0.09,13.51,0.17,20.27,0.23c4.31,0.04,8.63,0.08,12.94,0.11c1.62,0.01,3.24,0.02,4.86,0.03
			c4.33,0.03,8.67,0.05,13,0.07c6.54,0.03,13.09,0.05,19.63,0.05c2.51,0,6.43,0.04,9.42,0.06
			C271.16,33.57,271.17,33.62,271.18,33.67z"/>
		<path class="st3" d="M272.51,39.52c-2.97-0.01-6.8-0.05-9.26-0.05c-6.57-0.01-13.15-0.02-19.72-0.05c-4.2-0.02-8.4-0.04-12.6-0.07
			c-2.14-0.02-4.28-0.03-6.42-0.05c-3.9-0.03-7.79-0.06-11.69-0.1c-6.62-0.06-13.23-0.14-19.85-0.23
			c-5.62-0.07-11.23-0.16-16.85-0.25c-2.64-0.04-5.29-0.09-7.93-0.14c0.01-0.05,0.01-0.11,0-0.16c4.69,0.08,9.37,0.16,14.06,0.23
			c3.44,0.05,6.88,0.1,10.32,0.15c6.75,0.09,13.51,0.17,20.27,0.23c4.31,0.04,8.63,0.08,12.94,0.11c1.62,0.01,3.24,0.02,4.86,0.03
			c4.33,0.03,8.67,0.05,13,0.07c6.54,0.03,13.09,0.05,19.63,0.05c2.44,0,6.24,0.04,9.19,0.05C272.49,39.41,272.5,39.46,272.51,39.52
			z"/>
		<path class="st3" d="M273.89,45.55c-2.94-0.01-6.67-0.05-9.08-0.05c-6.57,0-13.15-0.02-19.72-0.05c-4.2-0.02-8.4-0.04-12.6-0.07
			c-2.14-0.02-4.28-0.03-6.42-0.05c-3.9-0.03-7.79-0.06-11.69-0.1c-6.62-0.06-13.23-0.14-19.85-0.23
			c-5.62-0.07-11.23-0.15-16.85-0.25c-2.64-0.04-5.29-0.09-7.93-0.14c0.01-0.05,0.01-0.11,0-0.16c4.69,0.08,9.37,0.16,14.06,0.23
			c3.44,0.05,6.88,0.1,10.32,0.15c6.75,0.09,13.51,0.17,20.27,0.23c4.31,0.04,8.63,0.08,12.94,0.11c1.62,0.01,3.24,0.02,4.86,0.03
			c4.33,0.03,8.67,0.05,13,0.07c6.54,0.03,13.09,0.05,19.63,0.05c2.39,0,6.09,0.04,9.02,0.05C273.86,45.45,273.87,45.5,273.89,45.55
			z"/>
		<path class="st3" d="M275.14,51.05c-2.89-0.02-6.45-0.05-8.79-0.05c-6.57-0.01-13.15-0.03-19.72-0.05
			c-4.2-0.02-8.41-0.04-12.6-0.07c-2.14-0.02-4.28-0.03-6.42-0.05c-3.9-0.03-7.79-0.06-11.69-0.1c-6.62-0.06-13.23-0.14-19.85-0.23
			c-5.62-0.07-11.23-0.16-16.85-0.25c-2.64-0.04-5.29-0.09-7.93-0.14c0.01-0.05,0.01-0.11,0-0.16c4.69,0.08,9.37,0.16,14.06,0.23
			c3.44,0.05,6.88,0.1,10.32,0.15c6.76,0.09,13.52,0.17,20.27,0.23c4.31,0.04,8.63,0.08,12.94,0.11c1.62,0.01,3.24,0.02,4.86,0.03
			c4.33,0.03,8.67,0.05,13,0.07c6.54,0.03,13.09,0.05,19.63,0.05c2.31,0,5.84,0.04,8.72,0.05C275.11,50.94,275.13,51,275.14,51.05z"
			/>
		<path class="st3" d="M276.51,57.09c-2.86-0.02-6.32-0.05-8.61-0.05c-6.58,0-13.15-0.02-19.72-0.05c-4.2-0.02-8.41-0.04-12.6-0.07
			c-2.14-0.02-4.28-0.03-6.42-0.05c-3.9-0.03-7.79-0.06-11.69-0.1c-6.62-0.06-13.23-0.14-19.85-0.23
			c-5.62-0.07-11.23-0.15-16.85-0.25c-2.64-0.04-5.29-0.09-7.93-0.14c0.01-0.05,0.01-0.11,0-0.16c4.69,0.08,9.37,0.16,14.06,0.23
			c3.44,0.05,6.88,0.1,10.32,0.15c6.76,0.09,13.52,0.17,20.27,0.23c4.31,0.04,8.63,0.08,12.94,0.11c1.62,0.01,3.24,0.02,4.86,0.03
			c4.33,0.03,8.67,0.05,13,0.07c6.54,0.03,13.09,0.05,19.63,0.05c2.27,0,5.7,0.04,8.54,0.05C276.49,56.98,276.5,57.03,276.51,57.09z
			"/>
	</g>
	<path class="st4" d="M256.69,125.39c-0.85,2.54-1.68,5.09-2.49,7.64c0.54,0.04,1.09-0.14,1.6-0.27c2.27-0.59,4.53-1.19,6.79-1.8
		c0.42-0.11,0.84-0.23,1.26-0.34c0.03-0.01,0.05-0.01,0.08-0.02l-0.01,0.01c-0.01,0.02-0.03,0.03-0.03,0.05
		c-0.02,0.04-0.03,0.08-0.03,0.11c-0.02,0.01-0.04,0.01-0.06,0.02c-0.82,0.22-1.64,0.45-2.46,0.67c-1.15,0.31-2.31,0.62-3.47,0.92
		c-0.63,0.17-1.25,0.33-1.88,0.49c-0.51,0.13-1.03,0.3-1.55,0.31c-0.09,0-0.18,0-0.27-0.01c-0.15,0.47-0.29,0.93-0.44,1.4h-0.16
		c0.15-0.47,0.3-0.95,0.44-1.42c-0.76-0.14-1.32-0.71-1.88-1.25c-0.9-0.88-1.81-1.75-2.71-2.63c-1.04-1.01-2.09-2.02-3.13-3.04
		c0.02-0.05,0.04-0.1,0.07-0.15c1.2,1.17,2.4,2.33,3.6,3.5c0.86,0.83,1.71,1.67,2.58,2.5c0.4,0.38,0.82,0.76,1.36,0.9
		c0.05,0.01,0.1,0.02,0.15,0.03c0.14-0.45,0.28-0.9,0.42-1.34c0.67-2.12,1.37-4.23,2.07-6.33c-0.03-0.01-0.06-0.02-0.08-0.04
		c-0.83-0.39-1.37-1.25-1.91-1.95l-2.16-2.78l-1.39-1.8c0.03-0.04,0.07-0.08,0.1-0.12c0.45,0.58,0.9,1.16,1.35,1.74
		c0.61,0.79,1.22,1.58,1.84,2.37c0.56,0.73,1.1,1.61,1.85,2.16c0.15,0.11,0.3,0.19,0.46,0.25c1.02-3.02,2.07-6.02,3.16-9.01
		c-0.19-0.09-0.36-0.22-0.52-0.4c-0.54-0.6-0.99-1.28-1.47-1.92c0.05-0.02,0.1-0.03,0.15-0.05c0.04,0.05,0.07,0.1,0.11,0.15
		c0.27,0.36,0.54,0.72,0.82,1.07c0.26,0.34,0.5,0.75,0.87,0.97c0.03,0.02,0.06,0.03,0.09,0.05c0.33-0.91,0.67-1.82,1-2.73
		c0.05,0,0.1,0,0.16,0.01c-0.35,0.93-0.69,1.86-1.03,2.79c0.62,0.24,1.35,0.05,1.95-0.15c0.94-0.32,1.87-0.67,2.8-1.04
		c0.03,0.04,0.07,0.07,0.1,0.11c-0.61,0.24-1.22,0.47-1.83,0.7c-0.68,0.25-1.37,0.55-2.09,0.63c-0.35,0.04-0.68,0-0.98-0.12
		c-1.09,2.99-2.14,5.99-3.15,9c0.72,0.23,1.51,0.05,2.24-0.17c0.95-0.3,1.89-0.62,2.83-0.92l4.64-1.52c0,0.05,0,0.11,0,0.16
		c-1.34,0.44-2.69,0.88-4.03,1.32c-1.09,0.36-2.18,0.72-3.27,1.07C258.37,125.42,257.49,125.66,256.69,125.39z"/>
	<path class="st5" d="M296.03,163.21c-0.01,0.05-0.02,0.1-0.03,0.15l-41.7-8.64c-8.76-1.63-17.52-3.36-26.32-4.76
		c-7.96-1.27-16.5-2.57-24.35,0.02c-7.34,2.42-12.61,8.31-17.56,13.95c-0.06,0.07-0.17-0.03-0.11-0.11c0.61-0.7,1.23-1.4,1.85-2.09
		c2.48-2.77,5.06-5.48,8.03-7.73c3.04-2.31,6.44-3.99,10.17-4.84c7.94-1.81,16.3-0.31,24.2,1c8.88,1.48,17.76,3.04,26.57,4.86
		c8.94,1.84,16.79,3.54,25.67,5.38C288.26,161.6,290.52,162.05,296.03,163.21z"/>
	<path class="st5" d="M183.12,166.11c-4.65-5.88-9.62-12.03-16.82-14.83c-7.7-2.99-16.3-2.13-24.31-1.27
		c-8.87,0.95-17.7,2.22-26.53,3.4l-28.74,3.82c0-0.05,0-0.1,0-0.15c8.75-1.16,17.5-2.32,26.25-3.49c8.92-1.19,17.84-2.46,26.79-3.48
		c7.95-0.91,16.38-1.97,24.22,0.24c3.68,1.04,6.99,2.9,9.91,5.36c2.85,2.4,5.29,5.24,7.62,8.13c0.58,0.72,1.16,1.45,1.74,2.18
		C183.3,166.09,183.18,166.19,183.12,166.11z"/>
	<path class="st5" d="M232.58,160.52c-8.47-2.01-17.45-4.01-25.91-0.87c-2.43,0.9-4.8,1.96-7.18,2.96
		c-0.09,0.04-0.05,0.18,0.04,0.15c4.08-1.7,8.13-3.7,12.54-4.33c4.36-0.62,8.79-0.19,13.1,0.61c2.47,0.46,4.92,1.04,7.37,1.62
		C232.64,160.69,232.68,160.54,232.58,160.52z"/>
	<path class="st4" d="M187.63,163.09c-0.28-0.6-0.81-1.01-1.42-1.25c-1.43-0.55-3.05-0.15-4.36,0.53c-1.5,0.78-2.74,2.01-3.74,3.36
		c-1.07,1.44-1.9,3.02-2.78,4.57c2.51-0.03,6.74-0.09,11.61-0.16c0.55-1.43,0.88-2.94,0.97-4.48
		C187.96,164.82,188,163.87,187.63,163.09z"/>
	<path class="st5" d="M274.41,169.18c-0.24,0-0.47,0-0.71,0c-1.41-0.32-2.83-0.63-4.24-0.94c-9.11-1.97-18.26-3.74-27.45-5.29
		c-0.1-0.02-0.06-0.16,0.03-0.15c2.56,0.43,5.12,0.88,7.68,1.35C257.99,165.66,266.22,167.33,274.41,169.18z"/>
	<path class="st3" d="M149.1,139.11c3.19-0.1,6.39-0.04,9.58-0.16c2.68-0.1,5.37-0.23,8.06-0.17c0.09,0,0.18,0,0.27,0.01
		c0.81-1.95,1.63-3.9,2.44-5.85l2.04-4.88l0.07-0.18l4.41-10.55c0.03-0.08,0.07-0.16,0.1-0.23c0.02-0.06,0.05-0.12,0.07-0.17
		c1-2.37,2.07-4.73,2.94-7.15c0.46-1.27,0.81-2.61,0.87-3.96c0-0.05,0.01-0.11,0.01-0.16c0.02-0.82-0.07-1.63-0.32-2.44
		c-0.58-1.88-1.99-3.42-3.99-3.77c-0.14-0.03-0.29-0.05-0.43-0.06c-0.05-0.01-0.11-0.01-0.16-0.01c-1.97-0.14-3.95,0.69-5.64,1.6
		c-0.75,0.4-1.48,0.83-2.19,1.28c-0.04,0.03-0.09,0.05-0.13,0.08c-3.14,2-5.99,4.44-8.55,7.14c-0.05,0.05-0.1,0.1-0.14,0.15
		c-0.04,0.04-0.07,0.07-0.1,0.11c-2.86,3.07-5.35,6.46-7.55,10.02c-0.03,0.05-0.06,0.09-0.09,0.14c-0.22,0.35-0.43,0.71-0.65,1.07
		c-2.29,3.83-4.27,7.83-6.15,11.88c-0.02,0.05-0.05,0.1-0.07,0.15c-0.31,0.68-0.62,1.36-0.93,2.04c-0.69,1.53-1.38,3.07-2.07,4.61
		C143.54,139.37,146.31,139.19,149.1,139.11z"/>
	<path class="st3" d="M194.55,116.35c-0.71-1.06-1.83-1.69-3.1-1.72c-1.54-0.04-3.01,0.66-4.35,1.36
		c-5.02,2.63-9.26,6.52-12.75,10.96c-3.56,4.52-6.37,9.6-8.72,14.84c-0.01,0.01-0.01,0.03-0.02,0.04l15.67,7.43
		c0.09-0.17,3.86-7.77,3.95-7.94c0.42-0.79,0.84-1.58,1.26-2.37c0.85-1.6,1.69-3.21,2.52-4.82c1.66-3.21,3.31-6.42,4.89-9.67
		C195.13,121.97,196.25,118.89,194.55,116.35z"/>
	<path class="st4" d="M156.53,127.4c0.49,0.55,0.98,1.1,1.48,1.64c0.42,0.45,0.84,0.92,1.34,1.28c0.2,0.14,0.4,0.26,0.62,0.35
		c-1.3,2.77-2.59,5.54-3.84,8.34c0.05,0,0.11,0,0.16,0c0.43-0.97,0.87-1.93,1.31-2.89c0.82-1.8,1.66-3.59,2.51-5.38
		c0.29,0.1,0.59,0.15,0.91,0.13c0.71-0.04,1.42-0.3,2.11-0.49c1.53-0.42,3.07-0.85,4.6-1.27c1.25-0.35,2.51-0.69,3.76-1.04
		l0.07-0.18c-0.71,0.2-1.42,0.39-2.12,0.59c-1.49,0.41-2.97,0.82-4.45,1.23c-0.75,0.21-1.51,0.42-2.26,0.63
		c-0.75,0.21-1.57,0.52-2.35,0.33c-0.07-0.02-0.13-0.04-0.2-0.06c1.86-3.95,3.76-7.89,5.66-11.82c0.42,0.16,0.88,0.25,1.38,0.25
		c0.66-0.01,1.31-0.15,1.95-0.3c0.75-0.17,1.5-0.35,2.26-0.52c1.5-0.35,3.01-0.71,4.51-1.07c0.05-0.01,0.1-0.02,0.14-0.03
		c0.02-0.06,0.05-0.12,0.07-0.17c-2.4,0.59-4.81,1.16-7.22,1.7c-1.05,0.23-2.06,0.34-3.01,0.01c1.08-2.23,2.16-4.46,3.24-6.68
		c0.58-1.19,1.15-2.38,1.73-3.58c0.53,0.19,1.15-0.02,1.66-0.18c0.81-0.26,1.63-0.52,2.44-0.78c1.66-0.53,3.32-1.07,4.98-1.6
		c0-0.05,0.01-0.11,0.01-0.16c-1.25,0.4-2.49,0.81-3.74,1.21c-0.81,0.26-1.63,0.52-2.44,0.78c-0.74,0.24-1.53,0.6-2.31,0.65
		c-0.2,0.01-0.38-0.02-0.53-0.07c1.42-2.94,2.84-5.89,4.27-8.83c-0.05-0.01-0.11-0.01-0.16-0.01c-1.41,2.93-2.83,5.85-4.24,8.78
		c-0.48-0.27-0.71-0.88-0.99-1.4c-0.37-0.7-0.76-1.4-1.16-2.09c-0.47-0.81-0.95-1.61-1.44-2.41c-0.04,0.03-0.09,0.05-0.13,0.08
		c0.43,0.69,0.85,1.39,1.26,2.09c0.44,0.75,0.86,1.51,1.27,2.27c0.28,0.53,0.53,1.29,1.09,1.6c0.01,0,0.02,0.01,0.02,0.01
		c-1.65,3.42-3.31,6.85-4.96,10.27c-0.27-0.11-0.54-0.25-0.8-0.43c-1.02-0.73-1.74-1.81-2.47-2.81c-1.37-1.9-2.74-3.8-4.1-5.7
		c-0.04,0.04-0.07,0.07-0.1,0.11c1.2,1.67,2.4,3.33,3.59,5c1.03,1.44,2.14,3.27,3.81,3.98c-0.64,1.32-1.28,2.65-1.92,3.98
		c-1.26,2.61-2.51,5.23-3.75,7.85c-0.53-0.22-0.97-0.63-1.37-1.04c-0.47-0.48-0.93-0.99-1.38-1.49c-0.94-1.04-1.85-2.11-2.74-3.19
		c-1.34-1.64-2.6-3.33-3.81-5.07c-0.03,0.05-0.06,0.09-0.09,0.14c0.99,1.42,2.02,2.81,3.09,4.17
		C154.64,125.21,155.57,126.32,156.53,127.4z"/>
	<path class="st4" d="M147.99,137.28c0.63,0.61,1.27,1.21,1.92,1.81c0.07,0,0.14,0,0.21-0.01c-0.49-0.45-0.98-0.91-1.46-1.37
		c-1.65-1.57-3.25-3.19-4.81-4.86c-0.02,0.05-0.05,0.1-0.07,0.15C145.15,134.46,146.55,135.89,147.99,137.28z"/>
	<g>
		<path class="st7" d="M128.22,144.34c-0.11-0.26-0.45-0.33-0.69-0.39c-0.19-0.05-0.38-0.08-0.57-0.11c-0.31-0.42-0.85-0.64-1.4-0.7
			c-0.5-0.3-1.37-0.25-1.81-0.16c-0.15,0.03-0.29,0.07-0.44,0.11c-0.5-0.27-1.07-0.4-1.64-0.31c-0.98,0.15-1.88,0.88-2.51,1.62
			c-0.27,0.22-1.71,1.72-1.94,1.91c-1.16,0.94-1.75,1.41-3.24,2.09c0.41,0.2,0.81,0.46,1.22,0.66c0.61,0.29,1.24,0.53,1.85,0.82
			c0.01,0.01,0.02,0.01,0.03,0.02c0.28-0.09,1.5-0.78,1.75-0.86c0.5-0.16,1.51-0.11,2.04-0.11c1.39,0.02,1.92-0.15,2.92-0.5
			c0.72-0.25,1.82-0.68,1.63-1.5c-0.14-0.59-1.81,0.16-2.71,0.4c-0.09-0.21-0.09-0.32,0.04-0.46c0.12-0.13,0.28-0.22,0.43-0.31
			c0.26-0.16,0.51-0.32,0.75-0.51c0.14-0.11,0.38-0.27,0.58-0.46c0.64-0.44,1.33-0.79,2.14-0.78c0.4,0.01,0.92,0.26,1.31,0.09
			C128.16,144.82,128.32,144.58,128.22,144.34z"/>
		<path class="st8" d="M118.36,149.12c-0.1-0.15-0.38-0.25-0.53-0.34c-0.34-0.2-0.69-0.38-1.05-0.54c-0.47-0.21-1-0.48-1.52-0.54
			c-0.58-0.07-1.07,0.24-1.61,0.41c-1.41,0.44-2.84-0.2-4.27-0.17c-0.57,0.01-1.11,0.15-1.65,0.33c-0.06,0.02-0.12,0.04-0.18,0.06
			c-0.06,0.02-0.12,0.04-0.18,0.06c-0.81,0.28-1.61,0.57-2.42,0.86c-0.09,0.03-0.08,0.14-0.02,0.18c-0.19,0.19-0.38,0.36-0.59,0.52
			c-0.26,0.2-0.63,0.34-0.87,0.55c-0.28,0.26-0.04,0.62,0.14,0.87c0.3,0.44,0.74,0.78,1.15,1.11c0.53,0.43,1.07,0.83,1.64,1.21
			c1.03,0.69,2.12,1.3,3.25,1.8c0.51,0.22,0.96,0.33,1.49,0.1c0.62-0.27,1.2-0.7,1.78-1.05c0.01-0.01,0.02-0.01,0.04-0.02
			c0.57-0.34,1.13-0.68,1.7-1.02c0.45-0.27,0.98-0.56,1.22-1.06c0.19-0.41,0.08-0.86,0.17-1.29c0.01-0.05,0.02-0.1,0.04-0.14
			c0.14-0.44,0.59-0.62,0.96-0.83c0.3-0.17,0.61-0.34,0.91-0.51C118.15,149.56,118.56,149.42,118.36,149.12z"/>
		<path class="st7" d="M113.07,134.18c-0.37-0.5-0.77-1-1.08-1.54c-0.09-0.04-0.17-0.09-0.25-0.16c0.04,0.03,0.08,0.06,0.12,0.09
			c-0.07-0.04-0.13-0.1-0.19-0.15l0,0c0.01,0.01,0.01,0.02,0.02,0.03c-0.18-0.03-0.38,0.06-0.52,0.22c-0.3,0.34-0.36,0.83-0.32,1.26
			c0.07,0.64,0.34,1.27,0.54,1.88c0.11,0.34,0.22,0.69,0.34,1.03c0.04,0.11,0.06,0.29,0.17,0.36c0.31,0.2,0.79-0.41,0.98-0.57
			c0.32-0.28,0.75-0.57,0.84-1.01C113.8,135.07,113.36,134.58,113.07,134.18z"/>
		<path class="st7" d="M106.46,143.21c-0.1-0.24-0.39-0.4-0.58-0.55c-0.35-0.28-0.69-0.55-1.04-0.83c-0.75-0.6-1.5-1.2-2.25-1.8
			c-0.39-0.31-0.77-0.62-1.16-0.92c-0.17-0.14-0.35-0.28-0.52-0.42c-0.06-0.05-0.12-0.1-0.19-0.15c0.2-0.28,0.4-0.57,0.6-0.85
			c0.06-0.08-0.06-0.17-0.12-0.09c-0.2,0.28-0.4,0.56-0.6,0.85c-0.14-0.11-0.26-0.15-0.18-0.37c-0.04,0.09,0.1,0.15,0.14,0.06
			c0.09-0.24-0.29-0.33-0.38-0.12c-0.07,0.15,0.05,0.3,0.14,0.4c0.06,0.06,0.12,0.11,0.18,0.17c-2.46,3.48-4.76,7.06-6.91,10.74
			c-0.03,0.05-0.01,0.11,0.05,0.12c1.72,0.32,3.44,0.63,5.16,0.95c0.59,0.11,1.33,0.39,1.87-0.02c0.26-0.2,0.45-0.47,0.66-0.72
			c0.29-0.34,0.57-0.68,0.86-1.02c1.12-1.32,2.23-2.64,3.35-3.95c0.25-0.3,0.52-0.59,0.77-0.9
			C106.46,143.6,106.56,143.43,106.46,143.21z"/>
		<path class="st8" d="M119.73,168.9c-0.21-0.37-0.43-0.75-0.65-1.12c-0.44,0.33-0.88,0.65-1.32,0.97
			c-0.44,0.33-0.89,0.75-1.39,0.99c-0.9,0.44-1.56-0.59-2.18-1.07c-1.8-1.4-4.11-2.01-6.37-2.05c-2.14-0.04-4.25,0.4-6.3,0.99
			c-0.06,0.02-0.12,0.03-0.18,0.05c-0.14,0.04-0.28,0.08-0.42,0.12c-2.21,0.66-4.38,1.44-6.5,2.33c-2.04,0.86-4,1.88-5.99,2.85
			c-1.91,0.93-3.85,1.65-5.99,1.81c-2.39,0.17-4.8,0.13-7.2,0.17c-2.37,0.04-4.74,0.09-7.1,0.13c-4.86,0.09-9.72,0.18-14.58,0.27
			c-0.04,0-0.08-0.03-0.09-0.07c-0.86-3.78-1.69-7.78-0.14-11.5c1.17-2.81,3.35-5.08,5.64-7.03c2.46-2.09,5.11-3.97,7.87-5.64
			c4.56-2.75,9.46-4.91,14.56-6.41c1.09-0.4,2.2-0.71,3.34-0.88c0.09-0.02,0.19-0.05,0.28-0.07c0.03-0.01,0.06,0,0.08,0.02
			c1.03-0.14,2.09-0.16,3.16-0.04c1.87,0.21,3.7,0.7,5.52,1.14c1.94,0.46,8.27,2.39,9.37,2.61c1.25,0.24,2.53,0.39,3.77,0.66
			c0.36,0.08,0.71,0.17,1.04,0.28c0,0,0,0,0,0c0.06,0.02,0.12,0.04,0.19,0.06c1.38,0.49,2.59,1.29,3.56,2.46
			c1.23,1.47,2,3.24,2.6,5.04c0.71,2.16,1.2,4.41,2.12,6.5c0.77,1.73,1.75,3.38,2.71,5.02c0.02-0.02,0.05-0.03,0.07-0.05
			c0.1-0.07,0.23,0.07,0.13,0.14c-0.03,0.02-0.07,0.05-0.1,0.07c0.22,0.38,0.44,0.76,0.66,1.14
			C119.95,168.91,119.79,169,119.73,168.9z"/>
		<path class="st7" d="M32.15,190.12c-6.51-1.02-13.06-1.76-19.63-2.22c-0.49-0.03-0.98-0.07-1.47-0.1
			c-0.36-0.02-0.41,0.25-0.62,0.54c-0.44,0.62-0.87,1.23-1.31,1.85c-0.07,0-0.13-0.01-0.2-0.01c-0.12,0-0.11,0.18,0.01,0.19
			c0.02,0,0.04,0,0.06,0c-0.07,0.1-0.14,0.2-0.21,0.29c-0.07,0.1,0.07,0.22,0.14,0.12c0.1-0.14,0.19-0.27,0.29-0.41
			c1.46,0.1,2.91,0.65,4.32,1.02c1.5,0.39,3.01,0.76,4.52,1.1c3.02,0.69,6.07,1.3,9.11,1.89c0.93,0.18,1.85,0.35,2.78,0.52
			c-0.4,0.92-0.81,1.83-1.21,2.75c-0.05,0.11,0.12,0.2,0.17,0.08c0.41-0.93,0.82-1.87,1.23-2.8c0.61,0.11,1.21,0.23,1.82,0.34
			c-0.02,0.06,0.01,0.14,0.09,0.13c0.12-0.02,0.24-0.03,0.35-0.05c0.1-0.01,0.12-0.17,0.01-0.19c-0.73-0.14-1.46-0.27-2.2-0.41
			c0.67-1.51,1.33-3.01,2.01-4.52C32.23,190.21,32.21,190.13,32.15,190.12z"/>
		<path class="st7" d="M136.26,150.53c0.08-0.21,0.13-0.43,0.11-0.68c-0.03-0.45-0.23-0.89-0.69-0.87c0-0.2-0.04-0.4-0.15-0.54
			c-0.13-0.17-0.26-0.22-0.39-0.24c-0.41-0.08-0.74,0.06-1.03,0.38c0.04-0.1,0.07-0.19,0.1-0.29c0.15-0.44,0.18-1.15-0.4-1.3
			c-0.71-0.18-1.33,0.75-1.68,1.18c-0.11,0.14-1.44,1.77-1.74,2.03c0.27-1,0.7-1.92,1.27-2.8c0.22-0.35,0.64-1.02,0.4-1.47
			c-0.16-0.31-0.53-0.18-0.75-0.02c-0.46,0.34-0.83,0.9-1.16,1.39c-0.41,0.6-0.84,1.23-1.14,1.9c-0.58,1.31-0.29,2.81-0.43,4.2
			c-0.16,1.52-0.63,2.99-1.34,4.3c0,0,0,0-0.01,0c-0.08-0.01-0.1,0.08-0.07,0.14c-0.08,0.15-0.17,0.3-0.26,0.44
			c-0.06,0.1,0.08,0.2,0.14,0.1c0.1-0.16,0.19-0.31,0.28-0.47c1.18,0.18,2.3,0.57,3.35,1.18c0.04,0.02,0.09,0.01,0.12-0.03
			c0.71-1.27,0.65-1.95,1.51-3.1c0.45-0.3,3.2-2.28,3.79-2.87c0.43-0.43,1-1.04,1.01-1.67
			C137.13,150.78,136.78,150.56,136.26,150.53z"/>
		<path class="st4" d="M72.59,166.78c-0.62,2.11-1.38,4.18-2.1,6.26c-0.7,2.03-1.42,4.06-2.16,6.09c-1.5,4.12-3.06,8.21-4.68,12.28
			c-1.32,3.31-2.71,6.69-5,9.46c-1.92,2.32-5.2,4.93-8.42,3.78c-0.43-0.15-6.56-1.74-9.15-2.56c-2.74-0.86-5.45-1.84-8.16-2.79
			c-5.5-1.94-11.07-3.82-16.88-4.53c-0.06-0.01-0.09-0.08-0.07-0.14c0.81-1.78,1.62-3.57,2.43-5.35c0.58-1.28,1.12-2.6,1.86-3.81
			c0.04-0.06,0.07-0.12,0.11-0.18c0.06-0.09,0.12-0.18,0.18-0.27c0.68-1.02,1.59-2.76,2.71-3.27c1.19-0.55,2.49,0.24,3.77,0.38
			c3,0.33,5.8,1.56,8.86,1.47c3.2-0.1,6.34-0.99,9.54-0.32c1.02,0.22,2.01,0.55,2.97,0.95c0-0.01,0-0.01,0-0.02
			c0.34-2.16,0.71-4.32,1.08-6.48c0.35-2.01,0.7-4.02,1.22-5.99c0.77-2.87,1.99-5.56,3.73-7.93c3.33,0.29,6.65-0.11,9.97-0.31
			c1.5-0.09,3.19-0.29,4.66,0.02c1.24,0.26,2.4,0.68,3.63,0.89C72.96,165.18,72.82,166,72.59,166.78z"/>
		<path class="st4" d="M101.37,187.87c-0.28,2.3-1.84,4.27-3.77,5.45c-2.22,1.36-4.87,1.83-7.42,2.1
			c-6.22,0.68-12.49,0.04-18.7-0.44c-1.89-0.14-3.78-0.29-5.67-0.43c-1.07-0.08-2.14-0.16-3.21-0.24c-0.03,0-0.06,0-0.09-0.01
			c-0.04,0-0.07,0-0.11-0.01c-3.28-0.25-6.56-0.5-9.83-0.75c-0.08-0.01-0.11-0.08-0.08-0.14c1.65-3.22,3.3-6.44,4.95-9.66
			c2.93-5.72,5.86-11.43,8.79-17.15c0.36-0.71,0.71-1.41,1.08-2.11c0.23-0.42,0.5-0.89,0.93-1.13c0.45-0.26,0.94-0.16,1.42-0.02
			c0.75,0.22,1.5,0.44,2.26,0.63c2.8,0.73,5.65,1.24,8.52,1.55c0.01-0.02,0.02-0.03,0.02-0.05c0.05-0.1,0.19-0.02,0.17,0.07
			c0.21,0.02,0.42,0.05,0.62,0.06c0.1,0.01,0.12,0.12,0.04,0.18c-0.35,0.24-0.7,0.49-1.05,0.73c-0.08,0.31-0.13,0.63-0.14,0.96
			c-0.1,2.86,1.58,5.13,3.82,6.55c2.51,1.59,5.67,2.78,8.26,4.22c2.24,1.24,4.66,2.37,6.62,4.05
			C100.45,183.69,101.64,185.64,101.37,187.87z"/>
		<path class="st6" d="M80.33,166.21c0.06-0.17,0.13-0.34,0.21-0.5c0.15,0.02,0.3,0.03,0.45,0.05
			C80.77,165.91,80.55,166.06,80.33,166.21z"/>
		<path class="st7" d="M112.63,139.78c-0.28-3.27-0.5-6.56-0.86-9.82c-0.13-1.18-0.35-2.42-1.03-3.42c-0.68-1-1.75-1.52-2.93-1.68
			c-1.54-0.21-3.2,0.05-4.7,0.44c-1.14,0.29-2.24,0.72-3.29,1.25c-0.02-0.03-0.06-0.05-0.11-0.03c-0.32,0.14-0.61,0.33-0.86,0.56
			c-0.11,0.07-0.23,0.13-0.34,0.2c-0.06,0.04-0.04,0.12,0,0.15c-1.21,1.45-1.38,3.91-1.32,5.62c0.1,3.01,1.07,5.89,1.98,8.74
			c0.45,1.4,0.88,2.81,1.2,4.25c-0.43,0.05-0.86,0.09-1.29,0.14c-0.11,0.01-0.11,0.18,0,0.17l1.33-0.14
			c0.04,0.19,0.08,0.39,0.12,0.58c0.02,0.11,0.18,0.07,0.16-0.04c-0.03-0.19-0.07-0.37-0.11-0.56l3.64-0.4
			c1.6-0.17,3.21-0.33,4.79-0.66c1.22-0.25,2.72-0.5,3.34-1.72C112.93,142.29,112.74,140.96,112.63,139.78z"/>
		<path class="st8" d="M131.46,161.67c-0.28-0.41-0.54-0.81-0.49-1.34c0.05-0.49,0.3-0.93,0.43-1.4c0.06-0.23,0.2-0.74,0.04-0.95
			c-0.07-0.1-0.29-0.13-0.39-0.17c-0.25-0.09-0.51-0.18-0.77-0.26c-1.11-0.36-2.24-0.65-3.39-0.89c-0.07-0.01-0.11,0.04-0.12,0.09
			c-0.03-0.01-0.06,0.01-0.08,0.05c-0.17,0.36-0.35,0.72-0.53,1.08c-0.18,0.36-0.35,0.87-0.73,1.07c-0.37,0.2-0.82,0.09-1.22,0.08
			c-0.29,0-0.58,0.04-0.86,0.14c-1.24,0.43-2.11,1.63-3.07,2.47c-1.51,1.34-2.56,1.75-4.48,2.31c-0.11-0.74-0.36-1.46-1-1.89
			c-0.51-0.35-1.17-0.44-1.77-0.53c-0.81-0.12-1.63-0.18-2.45-0.18c-3.16,0-6.29,0.81-9.28,1.76c-1.39,0.44-2.76,1.01-3.8,2.07
			c-0.04,0.04-0.04,0.12,0.02,0.15c1.74,1.03,3.49,2.07,5.12,3.28c1.61,1.19,3.09,2.54,4.67,3.78c1.53,1.2,3.13,2.3,4.8,3.29
			c1.57,0.93,3.22,2.01,5.12,1.87c1.73-0.12,3.54-0.75,5.08-1.52c1.58-0.79,2.86-1.93,3.97-3.29c1.19-1.45,2.29-3,3.35-4.55
			c1.05-1.55,1.35-2.46,2.07-4.2C132.07,163.1,131.99,162.44,131.46,161.67z"/>
		<path class="st4" d="M16.65,187.54c-0.97-0.02-1.93-0.13-2.88-0.34c-1.02-0.22-1.95-0.6-2.92-0.97c-0.6-0.23-1.22-0.27-1.71,0.21
			c-0.3,0.29-3.05,4.26-4.48,5.65c-1.52,1.47-3.46,2.88-3.89,5.09c-0.06,0.3-0.15,0.69,0.09,0.93c0.27,0.27,0.78,0.21,1.12,0.17
			c1.09-0.14,2.03-0.8,2.86-1.46c1.02-0.82,2.01-1.69,3.01-2.53c0.95-0.8,1.96-1.59,3.14-2.02c0.76-0.27,1.58-0.39,2.38-0.34
			c0.57,0.04,0.81,0.12,1.12-0.4c0.75-1.27,1.49-2.55,2.23-3.83C16.75,187.64,16.73,187.55,16.65,187.54z"/>
		<path class="st3" d="M77.24,179.24c-1.95,0.61-3.78,1.54-5.46,2.7c-1.47,1.01-2.83,2.19-4.07,3.48c-1.4,1.45-2.44,3.05-3.34,4.85
			c-0.65,1.32-1.25,2.67-1.78,4.05c-0.07,0-0.13-0.01-0.2-0.02c0.65-1.7,1.4-3.36,2.24-4.97c0.92-1.75,2.08-3.22,3.48-4.6
			c2.57-2.52,5.61-4.59,9.06-5.67C77.3,179.02,77.35,179.2,77.24,179.24z"/>
		<path class="st3" d="M57.01,165.87c-1.05,1.87-1.93,3.82-2.63,5.85c-0.66,1.92-1.13,3.89-1.61,5.85
			c-0.43,1.77-0.86,3.54-1.43,5.26c-0.5,1.52-1.08,3.1-2.06,4.39c-1.94,2.55-5.32,2.88-8.26,2.33c-1.82-0.34-3.57-0.95-5.35-1.43
			c-1.83-0.49-3.69-0.9-5.55-1.24c-3.27-0.6-6.57-1.02-9.88-1.4c0.04-0.06,0.07-0.12,0.11-0.18c3.52,0.41,7.04,0.86,10.53,1.53
			c1.83,0.35,3.66,0.77,5.45,1.27c1.71,0.48,3.41,1.06,5.17,1.34c1.64,0.26,3.35,0.24,4.92-0.34c1.62-0.6,2.76-1.81,3.53-3.33
			c1.61-3.16,2.24-6.78,3.1-10.19c0.86-3.43,2.05-6.72,3.78-9.8C56.9,165.67,57.07,165.76,57.01,165.87z"/>
		<path class="st8" d="M88.1,169.11c-0.29,1.28-0.66,2.74-1.52,3.76c-0.74,0.87-1.88,1.32-2.97,0.85c-0.6-0.26-1.09-0.7-1.58-1.11
			c-0.6-0.51-1.23-0.99-1.88-1.43c-2.43-1.67-5.16-2.86-7.99-3.66c-2.35-0.67-4.75-1.05-7.17-1.23c-0.11-0.01-0.22-0.02-0.34-0.02
			c-4.01-0.27-8.08,0.02-12.06,0.5c0,0,0,0.01,0,0.01c-0.07,0-0.13,0-0.2,0c0.01-0.04,0.02-0.08,0.03-0.11
			c0-0.01,0.01-0.02,0.01-0.03c0.09-0.26,0.18-0.51,0.29-0.76c1.16-2.59,3.42-4.42,5.73-5.94c1.3-0.85,2.62-1.68,3.98-2.43
			c1.34-0.74,2.75-1.28,4.23-1.67c3.01-0.8,6.2-1.51,9.32-0.99c2.87,0.48,5.5,1.89,7.78,3.66c0.7,0.54,1.38,1.12,1.99,1.75
			c0.06,0.06,0.11,0.12,0.17,0.17c1.18,1.25,2.09,2.71,2.38,4.47C88.55,166.28,88.42,167.72,88.1,169.11z"/>
		<path class="st1" d="M114.7,127.59c-0.43-0.59-1.09-0.94-1.66-1.38c-0.68-0.52-0.99-1.25-1.51-1.9c-0.59-0.76-1.8-0.96-2.22-0.9
			c-2,0.26-3.98-0.21-5.98-0.02c-1.37,0.13-2.83,0.58-3.74,1.67c-0.49,0.59-0.67,1.4-1.2,1.94c-0.35,0.36-0.83,0.43-1.27,0.59
			c-0.33,0.12-0.64,0.27-0.94,0.44c-1.24,0.72-2.21,1.86-2.73,3.19c-0.26,0.66-0.47,1.46-0.39,2.17c0.07,0.64,0.49,1.09,0.93,1.51
			c0.27,0.26,0.55,0.52,0.74,0.85c0.23,0.4,0.18,0.86,0.37,1.27c0.27,0.6,0.86,0.97,1.37,1.35c0.36,0.26,0.69,0.54,0.97,0.88
			c0.33,0.38,0.7,1.18,0.98,1.59c0.17,0.24,0.37,0.28,0.65,0.35c0.54,0.14,2.37,0.29,2.85,0.41c0.39,0.1,0.83,0.28,1.24,0.25
			c0.3-0.03,0.51-0.21,0.71-0.41c0.35-0.34,0.72-0.64,1.15-0.89c0.49-0.29,1.02-0.52,1.56-0.75c0.24-0.28,0.44-0.59,0.57-0.97
			c0.26-0.78,0.43-1.47,1.11-1.99c0.36-0.27,0.78-0.43,1.14-0.68c0.48-0.33,0.59-0.79,0.65-1.34c0.07-0.72,0.2-1.57,2.45-2.37
			c0.77-0.28,1.52-0.83,2.07-1.46C115.36,130.06,115.43,128.58,114.7,127.59z"/>
		<path class="st8" d="M126.54,143.65c-1.04-0.24-2.09-0.01-2.93,0.64c-0.1,0.07,0.03,0.22,0.12,0.14c0.79-0.61,1.78-0.83,2.75-0.6
			C126.59,143.85,126.66,143.68,126.54,143.65z"/>
		<path class="st8" d="M123,143.21c-0.36,0.09-0.7,0.22-1.03,0.39c-0.11,0.05-0.01,0.22,0.09,0.16c0.31-0.16,0.64-0.28,0.98-0.37
			C123.17,143.36,123.12,143.18,123,143.21z"/>
		<path class="st8" d="M133.89,148.58c-0.15,0.22-0.3,0.44-0.43,0.66c-0.06,0.1,0.1,0.2,0.16,0.09c0.14-0.23,0.28-0.45,0.43-0.66
			C134.12,148.58,133.96,148.48,133.89,148.58z"/>
		<path class="st8" d="M135.39,149.08c-0.22,0.32-0.47,0.61-0.74,0.89c-0.08,0.09,0.05,0.22,0.13,0.13c0.28-0.29,0.54-0.6,0.77-0.93
			C135.62,149.08,135.46,148.98,135.39,149.08z"/>
		<path class="st8" d="M135.97,150.5c-0.19,0.22-0.39,0.44-0.6,0.66c-0.08,0.09,0.05,0.22,0.13,0.13c0.2-0.21,0.4-0.43,0.6-0.66
			C136.18,150.54,136.05,150.41,135.97,150.5z"/>
		<path class="st4" d="M105.82,135.14c-1.56,0.01-3,0.65-4.49,1.03c-1.58,0.4-3.23,0.59-4.81,0.06c-0.12-0.04-0.16,0.14-0.05,0.18
			c1.44,0.48,2.95,0.38,4.41,0.05c1.64-0.37,3.23-1.12,4.93-1.14C105.95,135.33,105.95,135.14,105.82,135.14z"/>
		<path class="st4" d="M105,137.52c-1.33,1.11-3.09,1.56-4.79,1.23c-0.12-0.02-0.17,0.16-0.05,0.18c1.77,0.34,3.59-0.13,4.97-1.28
			C105.22,137.58,105.09,137.44,105,137.52z"/>
		<path class="st4" d="M118.13,165.41c-0.09-0.09-0.22,0.05-0.13,0.13c2.06,2.06,3.35,4.79,3.63,7.69c0.01,0.12,0.2,0.12,0.19,0
			C121.53,170.28,120.22,167.51,118.13,165.41z"/>
		<path class="st4" d="M108.03,148.61c-2.27-0.37-4.58,0.5-6.25,2.05c-3.22,2.98-3.51,7.84-2.38,11.83c0.5,1.8,1.26,3.49,2.13,5.12
			c-0.06,0.02-0.12,0.03-0.18,0.05c-0.04-0.07-0.07-0.13-0.11-0.2c-2.06-3.93-3.5-8.55-2.07-12.94c1.2-3.7,4.75-6.69,8.78-6.11
			c0,0,0,0,0,0c0.04,0,0.08,0.01,0.12,0.02c0.03,0.01,0.05,0.02,0.06,0.05C108.16,148.54,108.11,148.63,108.03,148.61z"/>
		<path class="st4" d="M98.66,158.78c-2.92,0.51-5.86,0.85-8.8,1.18c-1.3,0.15-2.61,0.29-3.92,0.44c-3.78,0.45-7.54,0.99-11.22,1.95
			c-2.38,0.62-4.73,1.42-6.96,2.47c-0.93,0.44-1.87,0.92-2.77,1.45c-0.11-0.01-0.22-0.02-0.34-0.02c1.19-0.73,2.45-1.35,3.69-1.9
			c5.54-2.46,11.46-3.41,17.43-4.12c4.29-0.51,8.61-0.9,12.83-1.63C98.73,158.58,98.78,158.76,98.66,158.78z"/>
		<path class="st8" d="M103.59,145.71c-1.45-0.8-3.54-1.28-5.16-1.69c-0.68-0.18-1.26-0.52-1.95-0.19
			c-0.34,0.16-0.58,0.52-0.83,0.78c-0.35,0.36-0.71,0.71-1.08,1.04c0,0-0.01-0.01-0.01-0.01c-0.06-0.1-0.24-0.01-0.17,0.09
			c0.02,0.03,0.04,0.06,0.06,0.09c0.01,0.02,0.02,0.04,0.04,0.05c0.82,1.2,2.16,1.6,3.61,1.85c0.9,0.15,1.8,0.26,2.71,0.35
			c0.45,0.04,0.9,0.08,1.35,0.11c0.39,0.03,0.97,0.17,1.34,0.09c0.16-0.03,0.2-0.09,0.28-0.22c0.2-0.36,0.36-0.78,0.5-1.17
			C104.52,146.26,104.13,146.01,103.59,145.71z"/>
	</g>
	<path class="st5" d="M285.05,179.14c-10.56,0.08-21.12,0.13-31.69,0.16c-10.56,0.03-21.12,0.03-31.69,0.01
		c-5.93-0.01-11.86-0.03-17.78-0.06c-0.1,0-0.09,0.15,0.01,0.15c10.56,0.05,21.12,0.08,31.69,0.07c10.56,0,21.12-0.03,31.69-0.08
		c5.93-0.03,11.86-0.07,17.78-0.11C285.15,179.29,285.14,179.14,285.05,179.14z"/>
</g>
</svg>
