<?xml version="1.0" encoding="utf-8"?>
<!-- Generator: Adobe Illustrator 25.2.0, SVG Export Plug-In . SVG Version: 6.00 Build 0)  -->
<svg version="1.1" id="레이어_1" xmlns="http://www.w3.org/2000/svg" xmlns:xlink="http://www.w3.org/1999/xlink" x="0px"
	 y="0px" viewBox="0 0 107.14 122.45" style="enable-background:new 0 0 107.14 122.45;" xml:space="preserve">
<style type="text/css">
	.st0{fill:#E5B027;}
	.st1{fill:#FFFFFF;}
</style>
<g>
	<path class="st0" d="M97.58,22.96V0H17.22C7.72,0,0,7.72,0,17.22v5.74v82.27c0,9.49,7.72,17.22,17.22,17.22h89.92V22.96H97.58z
		 M11.48,17.22c0-3.17,2.57-5.74,5.74-5.74H86.1v11.48H17.22C14.05,22.96,11.48,20.38,11.48,17.22z"/>
	<g>
		<path class="st1" d="M28.37,50.82v4.57h-15.1V37.2h15.1v4.57h-7.06v2.25h4.91v4.57h-4.91v2.24H28.37z"/>
		<path class="st1" d="M28.99,41.04h7.37l1.6,3.66l1.56-3.66h7.37l-6.22,14.35h-5.45L28.99,41.04z"/>
		<path class="st1" d="M61.76,49.92v2.52c-1.61,2.11-3.93,3.17-6.96,3.17c-2.5,0-4.5-0.69-6.02-2.08c-1.52-1.39-2.28-3.21-2.28-5.48
			c0-2.15,0.7-3.91,2.09-5.27s3.2-2.04,5.43-2.04c1.14,0,2.19,0.19,3.16,0.57c0.97,0.38,1.81,0.94,2.52,1.68
			c0.71,0.74,1.23,1.6,1.56,2.57c0.33,0.98,0.5,2.17,0.5,3.58h-7.52c0.27,0.73,0.72,1.3,1.36,1.72c0.64,0.41,1.36,0.62,2.18,0.62
			C59.43,51.48,60.76,50.96,61.76,49.92z M53.8,46.63h3.47c-0.03-0.72-0.21-1.27-0.53-1.67s-0.74-0.6-1.26-0.6
			c-0.45,0-0.85,0.19-1.18,0.58C53.96,45.31,53.8,45.88,53.8,46.63z"/>
		<path class="st1" d="M71.4,44.18c0.94-2.18,2.3-3.27,4.08-3.27c0.99,0,1.81,0.33,2.46,0.98c0.64,0.65,0.97,1.48,0.97,2.48
			c0,1.05-0.32,1.9-0.95,2.54c-0.63,0.65-1.46,0.97-2.47,0.97c-1.16,0-2.15-0.44-2.98-1.31c-0.73,0.62-1.1,1.77-1.1,3.46v5.35h-7.37
			V41.04h7.37V44.18z"/>
		<path class="st1" d="M89.39,59.42h-8.01l2.96-6.98l-5.05-11.4h7.33l1.73,3.83L90,41.04h7.15L89.39,59.42z"/>
		<path class="st1" d="M13.23,63.65h11.38c2.33,0,4.09,0.46,5.27,1.36c1.19,0.91,1.78,2.15,1.78,3.71c0,1.71-0.79,3.01-2.37,3.91
			c0.94,0.49,1.65,1.07,2.13,1.72c0.48,0.66,0.73,1.47,0.73,2.45c0,1.53-0.55,2.75-1.64,3.66c-1.09,0.91-2.62,1.37-4.6,1.37H13.23
			V63.65z M21.29,67.31v3.54h0.2c0.87,0,1.49-0.13,1.86-0.4c0.37-0.27,0.55-0.73,0.55-1.38c0-1.18-0.71-1.76-2.12-1.76H21.29z
			 M21.29,73.9v3.93h0.25c0.92,0,1.58-0.14,1.97-0.42c0.39-0.28,0.59-0.77,0.59-1.46c0-1.37-0.75-2.05-2.25-2.05H21.29z"/>
		<path class="st1" d="M41.6,82.05c-2.27,0-4.15-0.69-5.62-2.06c-1.47-1.37-2.21-3.16-2.21-5.36s0.73-3.99,2.18-5.38
			c1.45-1.38,3.34-2.07,5.65-2.07c2.33,0,4.22,0.69,5.68,2.07c1.46,1.38,2.19,3.17,2.19,5.38c0,2.19-0.73,3.98-2.19,5.35
			C45.82,81.36,43.93,82.05,41.6,82.05z M41.6,72.85c-0.48,0-0.86,0.15-1.16,0.46c-0.3,0.31-0.45,0.7-0.45,1.19s0.15,0.88,0.45,1.18
			c0.3,0.3,0.69,0.45,1.16,0.45c0.48,0,0.88-0.15,1.18-0.45c0.3-0.3,0.45-0.7,0.45-1.18c0-0.49-0.15-0.89-0.45-1.19
			C42.48,73,42.09,72.85,41.6,72.85z"/>
		<path class="st1" d="M59.16,82.05c-2.27,0-4.15-0.69-5.62-2.06c-1.47-1.37-2.21-3.16-2.21-5.36s0.73-3.99,2.18-5.38
			c1.45-1.38,3.34-2.07,5.65-2.07c2.33,0,4.22,0.69,5.68,2.07c1.46,1.38,2.19,3.17,2.19,5.38c0,2.19-0.73,3.98-2.19,5.35
			C63.38,81.36,61.49,82.05,59.16,82.05z M59.16,72.85c-0.48,0-0.86,0.15-1.16,0.46c-0.3,0.31-0.45,0.7-0.45,1.19
			s0.15,0.88,0.45,1.18c0.3,0.3,0.69,0.45,1.16,0.45c0.48,0,0.88-0.15,1.18-0.45c0.3-0.3,0.45-0.7,0.45-1.18
			c0-0.49-0.15-0.89-0.45-1.19C60.04,73,59.65,72.85,59.16,72.85z"/>
		<path class="st1" d="M76.65,63.65v8.59c1.81-0.68,2.74-2.26,2.79-4.76h7.3c-0.14,1.47-0.43,2.66-0.88,3.56
			c-0.45,0.91-1.17,1.71-2.15,2.42c0.57,0.45,1.06,0.94,1.45,1.5c0.4,0.55,0.72,1.18,0.97,1.88c0.25,0.7,0.41,1.41,0.49,2.12
			c0.08,0.71,0.11,1.67,0.11,2.87h-7.3c0-2.21-0.22-3.84-0.67-4.9c-0.45-1.06-1.15-1.78-2.12-2.16v7.06h-7.37V63.65H76.65z"/>
		<path class="st1" d="M13.29,90.09h8.95c3.23,0,5.72,0.89,7.47,2.68s2.63,3.94,2.63,6.45c0,1.61-0.4,3.12-1.2,4.55
			s-1.97,2.54-3.51,3.33c-1.54,0.79-3.41,1.19-5.59,1.19h-8.76V90.09z M21.34,97.05v4.27h0.2c0.97,0,1.67-0.17,2.1-0.51
			c0.43-0.34,0.65-0.89,0.65-1.66c0-1.4-0.81-2.1-2.44-2.1H21.34z"/>
		<path class="st1" d="M34.59,99.83v-4.31c2.08-1.14,4.44-1.7,7.08-1.7c2.51,0,4.36,0.54,5.55,1.61s1.79,2.71,1.79,4.92v7.94h-7.37
			v-1.07c-1.09,0.79-2.29,1.19-3.59,1.19c-1.1,0-2.01-0.36-2.74-1.07c-0.73-0.71-1.1-1.61-1.1-2.69c0-1.23,0.45-2.23,1.36-3.01
			c0.91-0.77,2.09-1.16,3.55-1.16c0.86,0,1.7,0.11,2.52,0.33c0-0.67-0.26-1.19-0.77-1.56s-1.23-0.56-2.14-0.56
			C37.39,98.69,36.01,99.07,34.59,99.83z M41.65,105.11v-2c-0.45-0.15-0.85-0.23-1.2-0.23c-0.45,0-0.8,0.12-1.07,0.35
			c-0.27,0.23-0.41,0.53-0.41,0.91c0,0.39,0.15,0.72,0.44,0.98s0.66,0.39,1.1,0.39C40.96,105.51,41.34,105.37,41.65,105.11z"/>
		<path class="st1" d="M59.59,112.31h-8.01l2.96-6.98l-5.05-11.4h7.33l1.73,3.83l1.66-3.83h7.15L59.59,112.31z"/>
	</g>
</g>
</svg>
