<?xml version="1.0" encoding="utf-8"?>
<!-- Generator: Adobe Illustrator 25.2.0, SVG Export Plug-In . SVG Version: 6.00 Build 0)  -->
<svg version="1.1" id="레이어_1" xmlns="http://www.w3.org/2000/svg" xmlns:xlink="http://www.w3.org/1999/xlink" x="0px"
	 y="0px" viewBox="0 0 404.18 472.44" style="enable-background:new 0 0 404.18 472.44;" xml:space="preserve">
<style type="text/css">
	.st0{fill:#D6A576;}
	.st1{fill:#F1CFB3;}
	.st2{fill:#FFFFFF;}
	.st3{fill:#96B2A2;}
	.st4{fill:#769B86;}
	.st5{fill:#35303A;}
	.st6{fill:#6F5E61;}
	.st7{fill:#7A4848;}
	.st8{fill:#E57A65;}
	.st9{fill:#F3A699;}
	.st10{fill:#DB6969;}
	.st11{fill:#F8F0EB;}
	.st12{fill:#DFCEC6;}
	.st13{fill:#1A161C;}
	.st14{fill:#AE4847;}
	.st15{fill:#789BB4;}
	.st16{fill:#84514C;}
	.st17{opacity:0.44;}
</style>
<g>
	<g>
		<path class="st0" d="M99.72,265.12h57.09v41.16c0,19.42,4.2,35.16-28.55,35.17c-31.89,0-28.55-15.74-28.55-35.17V265.12z"/>
	</g>
	<g>
		<g>
			<path class="st1" d="M404.18,382.22c0,0-5.72,17.49-12,33.94c-0.17,0.43-0.34,0.87-0.5,1.31c-0.8,2.08-1.62,4.14-2.42,6.13
				c-7.29,18.08-8.47,48.84-8.47,48.84s-26.08-0.8-55.55-2.2c-0.44-0.02-0.87-0.05-1.32-0.07c-33.19-1.59-70.23-3.94-79.06-6.73
				c-2.45-0.78-7.02-1.62-13-2.47c-0.5-0.07-1.01-0.14-1.52-0.22c-16.73-2.29-43.42-4.72-67.13-6.65c-1.82-0.16-3.62-0.3-5.39-0.43
				c-24.73-1.99-44.94-3.35-44.94-3.35s6.13-22.5,11.64-31.04c1.87-2.91,12.2-12.94,17.63-24.6c0.23-0.47,0.44-0.95,0.63-1.42
				c0.84-1.95,1.53-3.95,2-5.96c3.41-14.6,14.56-25.77,14.56-25.77s6.2,0.5,15.48,1.25c0.48,0.04,0.97,0.07,1.46,0.11
				c18.67,1.47,48.38,3.76,66.1,4.84c26.08,1.59,24.15,4.83,50.64,5.72c1.22,0.04,2.51,0.07,3.87,0.11
				c1.14,0.02,2.33,0.06,3.59,0.11c18,0.65,47.75,3.19,70.79,5.34c0.43,0.04,0.85,0.08,1.28,0.12
				C390.59,380.81,404.18,382.22,404.18,382.22z"/>
		</g>
		<g>
			<path class="st2" d="M348.65,423.8c6.37-12.24,12.84-24.42,19.45-36.52c1.48-2.72,2.97-5.44,4.47-8.15
				c-0.43-0.04-0.85-0.08-1.28-0.12c-8.23,14.92-16.27,29.94-24.13,45.06c-12.74,2.19-25.47,4.36-38.22,6.47
				c-28.92,4.79-57.86,9.36-86.84,13.75c-10.77-18.68-21.11-37.59-31.62-56.4c18.48-2.49,36.98-4.87,55.48-7.22
				c18.18-2.31,36.37-4.62,54.54-6.99c-1.26-0.05-2.45-0.08-3.59-0.11c-1.35-0.04-2.65-0.07-3.87-0.11
				c-34.39,4.45-68.82,8.68-103.18,13.32c-0.32-0.59-0.66-1.17-0.98-1.75c-4.14-7.4-8.33-14.79-12.57-22.13
				c-0.49-0.04-0.98-0.07-1.46-0.11c4.65,8.01,9.21,16.08,13.73,24.16c-3.19,0.43-6.37,0.85-9.54,1.29
				c-12,1.65-24.16,3.11-36.24,5.03c-0.19,0.48-0.41,0.96-0.63,1.42c9.3-1.48,18.64-2.71,27.91-4.01c6.37-0.9,12.74-1.77,19.11-2.63
				c7.71,13.79,15.34,27.63,23.09,41.4c2.83,5.02,5.68,10.03,8.55,15.03c-10.67,1.62-21.34,3.21-32.02,4.77
				c-10.32,1.51-20.64,2.98-30.97,4.44c1.77,0.13,3.57,0.28,5.39,0.43c2.84-0.4,5.69-0.8,8.53-1.21
				c16.58-2.37,33.15-4.83,49.71-7.33c2.92,5.08,5.88,10.14,8.9,15.18c0.51,0.07,1.02,0.14,1.52,0.22
				c-3.09-5.17-6.13-10.37-9.15-15.59c23.29-3.52,46.57-7.16,69.82-10.94c17.99-2.93,35.96-5.95,53.93-9.04
				c-2.2,4.25-4.41,8.5-6.57,12.78c-5.41,10.62-10.74,21.28-15.97,32c0.44,0.02,0.87,0.05,1.32,0.07
				c7.38-15.12,14.96-30.15,22.72-45.1c14.59-2.5,29.16-5.07,43.72-7.68c0.17-0.43,0.34-0.87,0.5-1.31
				C377.68,418.75,363.18,421.29,348.65,423.8z"/>
		</g>
	</g>
	<g>
		<g>
			<path class="st3" d="M172.79,47.16c-0.12-0.41-0.28-0.81-0.48-1.2c-0.25-0.51-0.57-1.01-0.97-1.46c-3.3-3.81-7.92,0.1-10.31,2.79
				c-3.29,3.69-5.33,7.88-7.46,12.17c-0.6,1.2-1.21,2.41-1.86,3.62c-1.68,3.13-4.02,5.69-6.18,8.48c-0.5,0.66-1.01,1.33-1.46,2
				c-1.62,2.3-3.02,4.73-4.21,7.26c-1.32,2.81-2.41,5.77-3.14,8.79c-1.15,4.72-4.54,9.63-4.83,14.39c-0.13,2.22,1.16,4.54,3.01,5.48
				c0.36,0.18,0.75,0.31,1.15,0.37c0.96,0.17,1.98-0.04,3.01-0.74c2.12-1.47,3.71-4.2,5.26-6.25c2.17-2.9,4.23-5.89,6.15-8.96
				c2.87-4.6,5.05-9.65,7.74-14.35c0.65-1.13,1.31-2.22,2.02-3.28c0.01-0.04,0.04-0.06,0.06-0.1c1.7-2.54,3.71-4.84,5.34-7.44
				c1.9-3.03,3.48-6.3,4.97-9.57C172.11,55.83,173.94,51.02,172.79,47.16z"/>
		</g>
		<g>
			<path class="st3" d="M183.56,74.26c-0.11-0.25-0.24-0.48-0.38-0.68c-0.24-0.35-0.54-0.62-0.87-0.81
				c-2.47-1.48-6.99,0.85-8.91,2.18c-4.68,3.21-8.99,7.48-12.43,11.97c-3.9,5.09-5.42,11.35-9.11,16.5c-2.18,3.04-5.2,5.39-7.3,8.49
				c-1.35,1.98-4.85,10.93-3.76,14.62c0.14,0.49,0.36,0.89,0.68,1.15c0.05,0.06,0.11,0.11,0.17,0.14
				c4.07,2.73,13.99-9.47,16.17-11.99c4.06-4.68,7.64-9.76,11.1-14.9c3.29-4.89,7.27-9.14,10.76-13.88
				C181.93,83.97,185.25,78.29,183.56,74.26z"/>
		</g>
		<g>
			<path class="st3" d="M190.38,121.28c-0.08-0.19-0.2-0.38-0.34-0.55c-0.13-0.16-0.26-0.3-0.42-0.42c-1.53-1.28-4.12-0.9-5.88-0.48
				c-5.36,1.29-10.37,3.51-14.81,6.8c-5.42,4.04-10.27,8.8-14.63,13.95c-0.51,0.6-1.02,1.2-1.51,1.81
				c-1.44,1.77-2.83,3.58-4.17,5.42c-0.89,1.2-1.75,2.42-2.6,3.64c-1.7,2.48-4.32,5.9-3.48,9.11c0.26,0.98,0.85,1.59,1.59,1.92
				c0.37,0.16,0.78,0.25,1.2,0.28c1.15,0.1,2.42-0.2,3.41-0.63c4.18-1.78,7.75-4.72,11.17-7.65c2.14-1.83,4.3-3.54,6.51-5.19
				c2.34-1.72,4.73-3.35,7.24-4.93c1.15-0.73,2.28-1.48,3.38-2.3c3.31-2.43,6.32-5.27,8.74-8.57c2.07-2.81,4.42-6.38,4.9-9.95
				C190.8,122.78,190.72,121.96,190.38,121.28z"/>
		</g>
		<g>
			<path class="st3" d="M102.48,144.44c-0.07-0.22-0.13-0.42-0.2-0.62c-1.33-3.89-3.31-7.56-5.83-10.78
				c-1.35-1.74-2.93-3.25-4.51-4.75c-1.62-1.54-3.23-3.08-4.65-4.81c-0.87-1.08-1.66-2.23-2.39-3.41c-1.33-2.17-2.48-4.47-3.63-6.71
				c-3.35-6.54-6.42-13.27-10.61-19.33c-1.82-2.62-3.83-5.11-6.13-7.33c-1.74-1.66-3.87-3.8-6.37-4.15
				c-1.98-0.28-3.48,0.41-4.62,1.59c-0.28,0.29-0.51,0.6-0.75,0.93c-1.8,2.65-2.31,6.75-2.11,9.44c0.55,6.92,4.31,13.78,8.27,19.33
				c2.07,2.9,4.61,4.95,7.22,7.29c0.84,0.75,1.64,1.56,2.43,2.41c2.54,2.73,4.8,5.89,6.97,9.03c1.32,1.9,2.59,3.8,3.87,5.59
				c2.97,4.14,5.93,8.3,9.24,12.18c2.97,3.46,7.15,8.27,12.36,6.29c0.34-0.13,0.65-0.29,0.91-0.47c0.32-0.22,0.6-0.47,0.84-0.74
				C105.09,152.7,103.4,147.34,102.48,144.44z"/>
		</g>
		<g>
			<path class="st3" d="M84.47,69.38c-0.19-0.29-0.38-0.57-0.57-0.85c-2.5-3.77-22.6-33.41-29.59-26.62
				c-0.28,0.26-0.53,0.56-0.74,0.93c-0.1,0.16-0.19,0.31-0.28,0.48c-1.14,2.24-0.68,5.48-0.17,7.84c0.72,3.23,2.43,6.13,4.42,8.75
				c4.02,5.33,9.41,9.59,12.91,15.32c3.13,5.13,4.87,10.87,7.74,16.12c2.35,4.28,5.57,9.75,9.63,12.63
				c2.36,1.69,4.18,1.11,5.47-0.41c0.29-0.34,0.54-0.71,0.78-1.13c0.49-0.85,0.87-1.84,1.16-2.85
				C98.34,88.63,90.31,78.07,84.47,69.38z"/>
		</g>
		<g>
			<path class="st3" d="M115.72,66.31c-0.22-4.57-1.37-8.92-2.29-13.33c-0.3-1.33-0.56-2.67-0.78-4.02
				c-0.61-3.84-0.73-7.62-0.72-11.39c0.01-3.64,0.16-7.27,0.08-10.97c-0.11-5.89-1.41-11.74-3.81-17.12
				c-1.08-2.38-2.87-6.31-5.11-6.74c-0.38-0.08-0.78-0.06-1.2,0.11c-0.74,0.29-1.53,1.03-2.35,2.36c-0.75,1.25-1.15,2.67-1.46,4.1
				c-2.17,10.12,0.53,19.4,2.51,29.27c0.97,4.78,1.81,9.7,2.77,14.61c0.57,3.01,1.2,6.01,1.93,8.97c1.25,5.14,2.78,10.14,4.86,14.9
				c0.29,0.66,0.65,1.35,1.31,1.63c0.13,0.06,0.26,0.1,0.4,0.11c0.4,0.05,0.8-0.07,1.15-0.28c0.17-0.1,0.32-0.22,0.46-0.35
				c0.53-0.51,0.81-1.21,1.04-1.9C115.6,73.01,115.89,69.66,115.72,66.31z"/>
		</g>
		<g>
			<path class="st4" d="M190.38,121.28c-0.08-0.19-0.2-0.38-0.34-0.55c-0.13-0.16-0.26-0.3-0.42-0.42
				c-6.93,9.5-17.32,15.47-26.85,22.38c-0.18-0.05-0.35-0.08-0.51-0.14c-2.04-0.66-3.88-1.58-6.02-1.84
				c-0.63-0.07-1.28-0.12-1.94-0.12c-0.51,0.6-1.02,1.2-1.51,1.81c-1.44,1.77-2.83,3.58-4.17,5.42c2.32,0.13,4.65,0.32,6.96,0.53
				c-2.61,2.28-5.04,4.74-7.2,7.51c-1.63,2.1-3.03,4.32-4.25,6.63c-4.12,7.89-6.02,16.86-7.05,25.69
				c-0.79,6.84-1.11,13.72-1.74,20.58c-0.66,7.27-1.94,14.42-3.29,21.58c-1.37,7.28-2.6,14.55-3.14,21.94
				c-0.59,7.84-0.6,15.72-0.61,23.6c0,0.77,1.2,0.77,1.2,0c0.02-13.88,0.47-27.53,2.96-41.22c1.2-6.54,2.55-13.04,3.4-19.63
				c0.84-6.45,1.19-12.96,1.71-19.43c0.9-11.18,2.43-22.85,7.76-32.83c0.75-1.43,1.59-2.8,2.5-4.14c2.63-3.84,5.87-7.14,9.4-10.13
				c3.07,0.28,6.13,0.56,9.2,0.8c2.34-1.72,4.73-3.35,7.24-4.93c1.15-0.73,2.28-1.48,3.38-2.3c-4.06,0.26-8.68,1.5-12.73,0.95
				c2.12-1.52,4.26-2.99,6.38-4.47C177.91,133.53,185.15,128.3,190.38,121.28z"/>
		</g>
		<g>
			<path class="st4" d="M182.3,72.76c-13.08,15.67-25.61,31.79-37.56,48.34c-1.31,1.81-2.63,3.62-3.95,5.42
				c-5.11,7.03-10.05,14.21-12.91,22.49c-1.87,5.46-3.52,11.02-5.02,16.62c0.3-2.69,0.6-5.39,0.9-8.07
				c1.31-11.76,2.37-23.75,6.44-34.94c1.6-4.42,3.64-8.65,5.86-12.78c3.07-5.74,6.47-11.3,9.53-17.02
				c2.84-5.29,4.99-10.87,7.38-16.33c1.82,0.9,3.57,1.92,5.24,3.05c0.65-1.13,1.31-2.22,2.02-3.28c-0.47-0.78-1.04-1.53-1.6-2.35
				c-1.09-1.58-1.71-3.16-2.17-4.78c1.15-2.18,2.41-4.31,3.84-6.36c3.84-5.45,8.02-10.66,12.49-15.63c-0.12-0.41-0.28-0.81-0.48-1.2
				c-3.48,3.84-6.79,7.84-9.93,11.97c-2.28,3.02-4.49,6.09-6.41,9.34c-0.29-1.23-0.55-2.51-0.91-3.84c-0.37-1.35-0.9-2.68-1.5-3.98
				c-0.6,1.2-1.21,2.41-1.86,3.62c-1.68,3.13-4.02,5.69-6.18,8.48c-0.5,0.66-1.01,1.33-1.46,2c0.9,0.13,1.77,0.24,2.45,0.44
				c1.82,0.53,3.57,1.19,5.27,1.95c-1.72,4.22-3.28,8.49-5.33,12.59c-3.57,7.14-7.82,13.9-11.57,20.94
				c-1.63,3.04-3.15,6.13-4.49,9.32c-4.41,10.54-5.96,21.84-7.23,33.11c-0.47,4.2-0.92,8.42-1.39,12.62
				c-2.29-28.75-5.04-57.44-8.78-86.03c-0.93-7.21-1.96-14.42-3.04-21.61c1.16-1.29,2.31-2.6,3.46-3.9
				c-0.3-1.33-0.56-2.67-0.78-4.02c-0.61-3.84-0.73-7.62-0.72-11.39c-0.71,1.32-1.19,2.81-1.52,3.89c-0.6,1.93-1.03,3.9-1.84,5.75
				c-0.01,0.02-0.02,0.05-0.04,0.08c-2.35-14.8-4.93-29.6-5.44-44.56c-0.38-0.08-0.78-0.06-1.2,0.11
				c0.42,12.37,2.26,24.66,4.22,36.88c0.49,3.08,0.98,6.16,1.45,9.23c-0.97,1.35-2.2,2.42-3.52,3.59c-0.23,0.2-0.46,0.41-0.67,0.62
				c0.57,3.01,1.2,6.01,1.93,8.97c1.21-1.38,2.43-2.73,3.64-4.1c1.03,6.9,2.01,13.81,2.92,20.73c0.48,3.66,0.95,7.33,1.39,11
				c3.28,26.95,5.75,53.99,7.83,81.06c-0.12,1.1-0.24,2.2-0.36,3.3c-0.71,2.95-1.38,5.9-2.01,8.86c-1.27,5.86-2.38,11.74-3.35,17.65
				c-0.47-7.15-0.57-14.33-1.21-21.47c-1.14-12.97-3.82-25.83-6.54-38.53c-2.67-12.55-6.69-24.51-12.43-36
				c-0.37-0.73-0.74-1.46-1.13-2.19c-5.41-10.49-11.81-20.43-18.39-30.21C68.77,62,61.63,51.88,54.31,41.91
				c-0.28,0.26-0.53,0.56-0.74,0.93c13.73,18.44,27.25,37.42,38.1,57.62c0.55,1.03,1.1,2.07,1.62,3.11
				c5.45,10.66,9.63,21.77,12.32,33.46c3.01,13.09,5.75,26.49,7.14,39.85c0.5,4.86,0.72,9.75,0.95,14.63
				c-1.26-7.57-2.79-15.09-5.02-22.37c-1.51-4.89-3.51-9.44-5.89-13.75c-3.2-5.78-7.08-11.16-11.36-16.45
				c-2.34-2.86-4.59-5.75-6.78-8.65c0.42-0.12,0.84-0.24,1.26-0.36c2-0.56,4.07-0.99,6.04-1.66c-1.62-1.54-3.23-3.08-4.65-4.81
				c-0.87-1.08-1.66-2.23-2.39-3.41c-0.85,0.06-1.7,0.19-2.54,0.42c-1.32,0.35-2.47,1.03-3.63,1.68c-2.75-3.98-5.39-8.05-7.89-12.29
				c-5.26-8.92-10.48-17.96-17.3-25.73c-0.28,0.29-0.51,0.6-0.75,0.93c5.84,6.72,10.51,14.36,15.04,22.03
				c3.14,5.33,6.33,10.56,9.76,15.65c-0.47,0.23-0.95,0.44-1.46,0.6c-2.22,0.71-4.6,0.48-6.89,0.26c-0.2-0.02-0.42-0.05-0.63-0.08
				c2.54,2.73,4.8,5.89,6.97,9.03c2.6-0.43,5.15-1.13,7.69-1.86c0.91,1.2,1.84,2.39,2.8,3.58c5.74,7.07,11.52,14,15.89,21.87
				c1.54,2.78,2.91,5.66,4.04,8.72c4.42,12.02,6.31,25.04,8.14,37.66c0.16,1.08,0.3,2.16,0.44,3.25
				c-0.78,5.23-1.45,10.49-2.01,15.76c-0.08,0.77,1.11,0.77,1.2,0c0.4-3.74,0.87-7.46,1.39-11.18c0.08,0.59,0.16,1.19,0.25,1.78
				c1.47,12.13,2.42,24.33,2.86,36.56c0.04,0.77,1.23,0.77,1.2,0c-0.35-9.6-1.02-19.2-2-28.75c0.36,0.01,0.75-0.29,0.63-0.74
				c-0.72-2.71-1.25-5.42-1.65-8.17c-0.17-1.33-0.31-2.67-0.49-4c-0.05-0.37-0.1-0.74-0.14-1.11c-0.01-0.05-0.01-0.1-0.01-0.14
				c1.03-6.9,2.28-13.77,3.71-20.61c-0.35,3.16-0.69,6.32-1.04,9.48c-0.08,0.77,1.11,0.75,1.2,0c0.65-5.82,1.28-11.63,1.93-17.45
				c0.29,3.84,0.57,7.69,0.85,11.52c1.32,18.5,2.51,37,3.7,55.5c0.05,0.77,1.25,0.77,1.2,0c-1.53-23.91-3.08-47.84-4.91-71.74
				c1.54-6.2,3.25-12.37,5.13-18.48c1.68-5.45,3.57-10.72,6.59-15.58c2.29-3.69,4.81-7.23,7.34-10.75c0.67-0.91,1.32-1.83,1.98-2.74
				c6.69-9.36,13.58-18.58,20.64-27.67c6.21-8.01,12.57-15.9,19.09-23.69C182.94,73.23,182.64,72.95,182.3,72.76z"/>
		</g>
	</g>
	<g>
		<path class="st5" d="M246.81,355.86c-0.1,0-0.2-0.01-0.3-0.02c-0.98-0.16-1.64-1.09-1.47-2.07l20.7-123.69
			c0.16-0.98,1.08-1.63,2.07-1.47c0.98,0.16,1.64,1.09,1.47,2.07l-20.7,123.69C248.43,355.24,247.67,355.86,246.81,355.86z"/>
	</g>
	<g>
		<path class="st5" d="M377.83,354.47c-0.84,0-1.59-0.59-1.76-1.45l-22.78-115.35c-0.19-0.97,0.44-1.92,1.41-2.11
			c0.97-0.19,1.92,0.44,2.11,1.41l22.78,115.35c0.19,0.97-0.44,1.92-1.41,2.11C378.06,354.46,377.94,354.47,377.83,354.47z"/>
	</g>
	<g>
		<path class="st6" d="M245.22,176.16c0,0-6.48-19.37-1.4-25.36c5.08-5.99,84.71-0.6,88.9,3.59s4.49,10.74,17.06,23.18
			c12.57,12.44,17.08,16,19.46,26.21c2.37,10.22-0.3,30.54,0,31.43c0.3,0.9-47.19,37.14-61.62,37.73c-14.42,0.59-29.55-0.29-32.91,0
			C271.36,273.24,245.22,176.16,245.22,176.16z"/>
	</g>
	<g>
		<g>
			<path class="st7" d="M341.02,365.15c0,0-1.13,1-1.05,5.16c0.07,3.06,0.76,7.36,1.56,10.3c0.66,2.42,1.26,5.08,2.76,7.14
				c2.22,3.04,7.63,5.6,10.76,2.38c0.91-0.94,0.71-4.12,0.71-4.12L341.02,365.15z"/>
		</g>
		<g>
			<path class="st8" d="M362.59,320.37l-11.06,40.31l-0.19,0.69l0,0.01l-0.34,1.27c0,0-0.07,0.05-0.2,0.14
				c-0.01,0.01-0.01,0.01-0.01,0.01c-1.4,0.95-9.17,5.97-9.5-0.25l0-0.04c-0.01-0.01-0.01-0.03-0.01-0.04
				c-0.02-0.15-0.01-0.29-0.01-0.44c0-0.28,0-0.62,0-0.98c0-0.19,0.01-0.39,0.01-0.6c0-0.02-0.01-0.04,0-0.06l0-0.04
				c0-0.16,0.01-0.31,0.01-0.48c0-0.01,0-0.01,0-0.02c0-0.5,0-1.03,0.01-1.62c0.09-12.49,0.32-43.83,0.32-43.83l0.6-26.55
				L362.59,320.37z"/>
		</g>
		<g>
			<path class="st8" d="M355.74,387.3c-0.52,3.79-6.37,3.51-8.82,0.98c-1.53-1.56-2.54-3.02-3.28-4.59c-0.2-0.4-0.37-0.81-0.52-1.24
				c-0.13-0.38-0.26-0.78-0.39-1.19c-0.13-0.42-0.24-0.84-0.34-1.29c-0.41-1.65-0.73-3.54-1.14-5.83
				c-1.15-6.43-0.83-8.08-0.51-10.05c0.32-1.97,0.53-3.22,0.53-3.22s4.34-3.19,5.1-3.83c1.01-0.86,4.82,3.54,4.82,3.54
				s0.04,0.18,0.11,0.52c0.04,0.17,0.08,0.38,0.14,0.64l0,0.01c0.08,0.36,0.18,0.78,0.29,1.29l0,0.01
				c0.76,3.53,2.15,10.23,3.1,15.77c0.08,0.48,0.16,0.94,0.23,1.38c0.07,0.39,0.12,0.79,0.17,1.15c0.08,0.48,0.14,0.93,0.2,1.37
				C355.71,384.85,355.85,386.5,355.74,387.3z"/>
		</g>
		<g>
			<path class="st7" d="M355.41,382.74c-1.65-0.28-3.29-0.44-4.97-0.41c-1.92,0.04-4.9,0.22-6.81,1.37c-0.2-0.4-0.37-0.81-0.52-1.24
				c3.25-1.99,8.17-1.71,12.1-1.09C355.3,381.85,355.35,382.3,355.41,382.74z"/>
		</g>
		<g>
			<path class="st7" d="M351.6,362.55l0,0.01c-0.26,0.1-0.53,0.17-0.8,0.23c-0.01,0.01-0.01,0.01-0.01,0.01
				c-1.36,0.31-2.88,0.3-4.35,0.05c-1.57-0.28-3.55-0.99-5.13-1.77c-0.01,0-0.02,0-0.03-0.02c0-0.19,0.01-0.39,0.01-0.6
				c0-0.02-0.01-0.04,0-0.06l0-0.04c0-0.16,0.01-0.31,0.01-0.48c0-0.01,0-0.01,0-0.02c0-0.5,0-1.03,0.01-1.62
				c0.2,0.16,0.39,0.31,0.6,0.47c2.63,1.9,6.26,3.02,9.32,2.08c0.1-0.02,0.21-0.06,0.32-0.1l-0.19,0.7
				C351.41,361.7,351.5,362.09,351.6,362.55z"/>
		</g>
		<g>
			<path class="st7" d="M355.05,380.22c-4.16-0.89-8.37-0.84-12.32,1.04c-0.13-0.42-0.24-0.84-0.34-1.29
				c3.97-1.84,8.23-1.97,12.42-1.13C354.89,379.31,354.98,379.77,355.05,380.22z"/>
		</g>
	</g>
	<g>
		<g>
			<path class="st7" d="M333.57,380c0,0-0.99,1.15-0.33,5.26c0.48,3.02,1.76,7.19,2.96,9.99c0.99,2.3,1.94,4.86,3.71,6.69
				c2.62,2.71,8.32,4.51,10.98,0.89c0.77-1.05,0.14-4.18,0.14-4.18L333.57,380z"/>
		</g>
		<g>
			<path class="st9" d="M348.81,332.69l-5.44,41.44l-0.1,0.71v0.01l-0.17,1.31c0,0-0.06,0.06-0.18,0.17
				c-0.01,0.01-0.01,0.01-0.01,0.01c-1.26,1.14-8.26,7.17-9.45,1.05v-0.04c-0.01-0.01-0.01-0.02-0.01-0.04
				c-0.04-0.14-0.05-0.29-0.07-0.43c-0.04-0.28-0.08-0.61-0.13-0.97c-0.02-0.19-0.05-0.38-0.07-0.6c0-0.02-0.01-0.04-0.01-0.06
				v-0.04c-0.02-0.16-0.04-0.31-0.06-0.48c0-0.01,0-0.01,0-0.02c-0.07-0.49-0.14-1.02-0.22-1.6c-1.62-12.38-5.69-43.46-5.69-43.46
				l-3.04-26.38L348.81,332.69z"/>
		</g>
		<g>
			<path class="st9" d="M351.19,399.93c0,3.82-5.83,4.35-8.61,2.18c-1.73-1.34-2.93-2.64-3.88-4.1c-0.25-0.37-0.47-0.75-0.68-1.16
				c-0.18-0.35-0.37-0.74-0.55-1.13c-0.18-0.39-0.35-0.8-0.51-1.23c-0.63-1.58-1.21-3.4-1.93-5.62c-2.02-6.21-1.93-7.89-1.88-9.88
				c0.05-2,0.08-3.26,0.08-3.26s3.86-3.75,4.53-4.49c0.88-0.99,5.25,2.85,5.25,2.85s0.07,0.17,0.18,0.5
				c0.07,0.16,0.13,0.37,0.22,0.62v0.01c0.13,0.34,0.29,0.75,0.46,1.23v0.01c1.24,3.39,3.53,9.84,5.23,15.2
				c0.14,0.46,0.29,0.91,0.42,1.34c0.12,0.38,0.22,0.76,0.33,1.12c0.14,0.46,0.26,0.91,0.38,1.33
				C350.82,397.5,351.19,399.12,351.19,399.93z"/>
		</g>
		<g>
			<path class="st7" d="M350.24,395.45c-1.67-0.05-3.32,0.01-4.98,0.28c-1.89,0.3-4.82,0.89-6.56,2.29
				c-0.25-0.37-0.47-0.75-0.68-1.16c2.94-2.42,7.86-2.81,11.84-2.73C350,394.59,350.12,395.03,350.24,395.45z"/>
		</g>
		<g>
			<path class="st7" d="M343.69,375.98v0.01c-0.24,0.13-0.5,0.24-0.77,0.34c-0.01,0.01-0.01,0.01-0.01,0.01
				c-1.31,0.49-2.81,0.69-4.3,0.65c-1.59-0.06-3.65-0.49-5.33-1.05c-0.01,0-0.02,0-0.04-0.01c-0.02-0.19-0.05-0.38-0.07-0.6
				c0-0.02-0.01-0.04-0.01-0.06v-0.04c-0.02-0.16-0.04-0.31-0.06-0.48c0-0.01,0-0.01,0-0.02c-0.07-0.49-0.14-1.02-0.22-1.6
				c0.22,0.13,0.43,0.25,0.66,0.38c2.86,1.52,6.61,2.13,9.52,0.78c0.1-0.04,0.2-0.08,0.3-0.14l-0.1,0.72
				C343.4,375.17,343.54,375.54,343.69,375.98z"/>
		</g>
		<g>
			<path class="st7" d="M349.53,393.01c-4.24-0.32-8.41,0.32-12.06,2.72c-0.18-0.39-0.35-0.8-0.51-1.23
				c3.68-2.36,7.88-3.07,12.15-2.82C349.25,392.13,349.4,392.58,349.53,393.01z"/>
		</g>
	</g>
	<g>
		<path class="st5" d="M322.55,162.86c0,0,10.87,25.3,12.87,26.86c5.89,4.59,7.96,6.12,23.52,16.17
			c14.31,9.24,33.66,19.45,31.56,34.42c-1.25,8.94-5.99,30.86-12.27,49.99c-4.56,13.89-7.23,25.21-9.58,32.43
			c-5.59,17.16-12.37,29.94-12.37,29.94s-9.58-37.92-9.98-41.11c-0.4-3.19-13.55-63.86-21.15-69.45
			c-7.59-5.59-67.13-47.3-68.66-50.89c-1.53-3.59-5.85-19.62-5.85-19.62L322.55,162.86z"/>
	</g>
	<g>
		<path class="st5" d="M252.64,199c0,0,0.39,11.97,17.29,34.73c16.9,22.75,38.95,37.92,38.95,37.92s2.52,5.39,4.12,15.37
			c1.6,9.98,7.27,50.49,8.11,53.29c0.84,2.79,1.27,16.84,1.27,16.84s16.74,4.46,24.32,2.2c7.58-2.27,9.58-6.66,9.58-6.66
			s-3.99-97.9-9.18-111.42c-5.19-13.52-46.7-37.07-49.1-37.47C295.61,203.39,252.64,199,252.64,199z"/>
	</g>
	<g>
		<g>
			<path class="st5" d="M300.77,59.31c-0.37-0.47-0.85-0.82-1.27-1.24c-1.28-1.28-1.6-2.52-2.29-4.05
				c-0.62-1.36-1.43-2.09-2.84-2.66c-2.35-0.95-4.37-0.68-6.36-2.71c-1.4-1.42-2.19-3.51-3.86-4.67c-0.29-0.2-0.59-0.35-0.89-0.46
				c0.88-3.98,1.37-8.61,0.82-11.51c-0.8-4.21-1.16-8.97-3.72-12.47c-2.16-2.95-4.74-5.38-8.07-6.79
				c-2.86-1.21-7.09-4.11-10.42-3.98c-0.4-0.1-0.79-0.21-1.2-0.28c-5.51-0.98-11.24,1.4-16.38,3.42c-2.78,1.09-5.29,2.75-7.6,4.63
				c-2.39,1.95-4.1,4.71-5.73,7.4c-2.71,4.5-2.34,10.51-1.44,15.24c0.52,2.76,0.27,5.54,1.13,8.25c0.71,2.24,5.21,8.55,6.73,10.34
				c3.37,4,5.35,0.25,10.48,0.82c0.62,0.07,0.73-0.7,0.34-1.04c1.05,0.21,2.09,0.37,3.14,0.42c2.57,0.13,5.17-0.18,7.75-0.12
				c2.45,0.06,4.91,0.22,7.35,0.01c4.63-0.4,7.79-0.84,10.24-2.36c0.46,3.68,1.86,7.35,3.25,10.7c0.1,0.24,0.3,0.35,0.51,0.38
				c0.13,1.83,0.07,4.92,0.86,6.28c1.5,2.58,4.96-0.39,7.29-0.91c1.87-0.42,3.88-0.42,5.68-1.14c1.95-0.78,10.12,7.65,11.42,6.07
				C307.62,74.49,303.08,62.27,300.77,59.31z"/>
		</g>
		<g>
			<path class="st10" d="M320.07,109.34c-0.73-6.45-1.83-12.75-2.24-19.28c-0.23-3.69-0.43-7.39-0.81-11.07
				c-0.22-2.11-0.36-4.75-2.24-6.13c-2.55-1.88-7.5-1.6-10.46-1.95c-4.29-0.52-8.58-1-12.88-1.44c-8.72-0.89-17.46-1.61-26.21-2.19
				c-0.13-0.2-0.35-0.33-0.64-0.29c-0.36,0.06-0.72,0.11-1.07,0.17c-0.08-0.01-0.17-0.01-0.25-0.02c-0.16-0.01-0.28,0.04-0.37,0.12
				c-4.76,0.76-9.53,1.53-14.29,2.29c-4.65,0.75-10.09,0.9-14.48,2.66c-7.19,2.88-6.84,12.5-6.22,18.84
				c0.58,5.9,1.95,11.68,2.64,17.56c0.62,5.26-2.32,1.52-1.76,6.79c0.51,4.83,2.75,16.89,4.15,21.54
				c4.59,15.21,10.74,23.72,17.7,34.66c1.92,0.19,3.86,0.25,5.79,0.26c9.71,0.05,23-0.49,32.71-0.6c2.75-0.03,5.45-0.36,8.12-0.88
				c3.91-1.18,8.95-3.74,12.07-3.97c1.9-0.14,13.82-1.2,14.74-2.83c0.51-0.9,0.03-3.75,0.06-4.82c0.06-2.13-2.27-4.26-2.18-6.38
				c0.33-7.98-3.88-15.93-2.81-23.85C320.01,122.19,320.79,115.73,320.07,109.34z"/>
		</g>
		<g>
			<path class="st10" d="M246.21,145.71c0,0-16.46-3.29-20.36-4.19c-3.89-0.9-10.78-1.8-13.23-4.19
				c-2.44-2.39-21.79-11.68-21.49-12.57c0.3-0.9,7.18-7.48,9.28-15.87c0.55-2.2,1.6-4.31,2.95-6.37c0.97-1.5,2.1-2.97,3.29-4.44
				c3.42-4.23,7.45-8.47,10.23-13.28c5.09-8.81,17.26-12.59,17.26-12.59s2.67,8.92,5.82,19.17c0.54,1.72,1.08,3.5,1.63,5.27
				c3.53,11.36,7.2,22.79,8.18,24.51C251.81,124.75,246.21,145.71,246.21,145.71z"/>
		</g>
		<g>
			<path class="st11" d="M258.96,87.46c-0.32-1.71-0.43-4.92-2.14-2.81c-1.28,1.58-1.93,3.56-2.69,5.44
				c-1.44,3.5-3.9,5.99-7.63,6.93c-1.09,0.28-2.23,0.38-3.35,0.35c-2.35-0.06-4.71-0.73-6.79-1.83c-1.26-0.67-2.93-2.63-4.5-2.38
				c-0.65,0.11-0.86,0.43-0.84,0.84c0.05,0.71,0.83,1.66,1.21,2.14c2.4,2.9,5.96,5.84,9.8,6.36c0.9,0.12,1.82,0.17,2.75,0.14
				c2.65-0.08,5.34-0.83,7.39-2.49c1.76-1.44,4.02-2.41,5.3-4.29C258.63,94.17,259.51,90.5,258.96,87.46z"/>
		</g>
		<g>
			<g>
				<g>
					<path class="st11" d="M241.64,61.65c-1.82,0.11-3.21,2-3.06,4.15c0.15,2.09,0.38,4.53,0.74,6.1c0.34,1.46,1.03,3.29,2.59,3.09
						c1.54-0.2,2.08-2.41,2.38-3.88c0.34-1.71,0.56-3.65,0.66-5.57C245.07,63.33,243.51,61.53,241.64,61.65L241.64,61.65z"/>
				</g>
			</g>
			<g>
				<path class="st11" d="M243.82,59.66c0,1.26-0.91,2.28-2.03,2.28c-1.12,0-2.03-1.02-2.03-2.28c0-1.26,0.91-2.28,2.03-2.28
					C242.91,57.37,243.82,58.39,243.82,59.66z"/>
			</g>
		</g>
		<g>
			<path class="st9" d="M275.41,83.78c-4.79,2-14.18,0.71-14.87-0.99c-0.08-0.2-0.23-0.5-0.42-0.87c-1.43-2.83-5.47-9.9-5.47-9.9
				l1.69-1.86l19.08-20.99c0,0,7.18,21.35,7.78,25.45C283.79,78.7,280.2,81.8,275.41,83.78z"/>
		</g>
		<g>
			<path class="st9" d="M292.31,77.55c0.06,0.61-1.74,4.35-4.07,8.53c-0.37,0.66-0.75,1.33-1.14,2.01
				c-2.33,4.04-4.96,8.09-6.73,9.93c-6.74,6.93-4.8,14.5-20.3-4.3c-3.13-3.78-4.96-6.86-5.83-9.23c-0.31-0.83-0.5-1.57-0.59-2.23
				c-0.04-0.29-0.06-0.56-0.06-0.81c0-2.49,6.78-6.98,6.78-6.98l20.16-5.39C280.54,69.07,291.81,72.67,292.31,77.55z"/>
		</g>
		<g>
			<path class="st8" d="M272.73,55.26c-1.63,1.65-2.72,4.3-4.17,6.14c-1.63,2.06-3.44,3.99-5.57,5.52c-1.8,1.29-3.71,2.14-5.77,2.9
				c-0.31,0.11-0.61,0.22-0.89,0.34l-1.69,1.86c0,0,4.05,7.08,5.47,9.9c0.87-0.04,1.76-0.25,2.57-0.62
				c2.06-0.93,4.01-2.24,5.96-3.36c1.38-0.78,3.17-1.5,4.17-2.78c0.99-1.28,0.86-2.87,1.47-4.32c0.69-1.66,1.65-2.86,1.98-4.68
				C276.53,64.65,276.62,51.33,272.73,55.26z"/>
		</g>
		<g>
			<path class="st9" d="M277.11,44.2c-0.57-6.43-1.72-16.84-4.66-22.6c-1.52-2.98-4.62-3.04-7.45-4.86
				c-0.55-0.36-1.14-0.67-1.72-0.95c-2.67-1.25-5.56,0.08-8.51-0.12c-4.06-0.29-8.26-0.1-11.99,1.53
				c-6.51,2.85-12.17,8.31-10.38,17.7c0.73,3.88,1.57,7.87,2.59,11.75c0.18,0.72,0.37,1.42,0.57,2.13
				c2.25,8.12,5.29,15.5,9.62,19.84c3.94,3.96,8.43,6.9,12.87,6.89C272.68,75.46,278.13,55.55,277.11,44.2z"/>
		</g>
		<g>
			<g>
				<g>
					<path class="st2" d="M275.53,53.81c-1.82,0.11-3.21,2-3.06,4.15c0.15,2.09,0.38,4.53,0.74,6.1c0.34,1.46,1.03,3.29,2.59,3.09
						c1.54-0.2,2.08-2.41,2.38-3.88c0.34-1.71,0.56-3.65,0.66-5.57C278.96,55.49,277.4,53.7,275.53,53.81L275.53,53.81z"/>
				</g>
			</g>
			<g>
				<path class="st2" d="M277.71,51.82c0,1.26-0.91,2.28-2.03,2.28c-1.12,0-2.03-1.02-2.03-2.28c0-1.26,0.91-2.28,2.03-2.28
					C276.8,49.54,277.71,50.56,277.71,51.82z"/>
			</g>
		</g>
		<g>
			<path class="st5" d="M257.87,46.48c0-0.01-0.01-0.03-0.01-0.04c0-0.02,0-0.04-0.01-0.06c-0.05-0.32-0.05-0.61,0.07-0.84
				c0.14-0.29,0.44-0.48,0.98-0.5c0.29-0.01,0.52,0.13,0.72,0.27c0.99,0.73,2.48,3.47,1.08,4.32
				C259.25,50.5,258.08,47.56,257.87,46.48z"/>
		</g>
		<g>
			<path class="st5" d="M240.62,51.23c0-0.01-0.01-0.03-0.01-0.04c0-0.02,0-0.04-0.01-0.06c-0.05-0.32-0.05-0.61,0.07-0.84
				c0.14-0.29,0.44-0.48,0.98-0.5c0.29-0.01,0.52,0.13,0.72,0.27c0.99,0.73,2.48,3.47,1.08,4.32
				C242,55.26,240.84,52.31,240.62,51.23z"/>
		</g>
		<g>
			<path class="st8" d="M256.56,60.93c-1.49,0.93-3.64,1.11-4.33-0.94c-0.25-0.76-0.32-1.59-0.43-2.38
				c-0.3-2.06-0.58-4.13-0.88-6.19c-0.11-0.76-1.26-0.44-1.15,0.32c0.29,2.06,0.58,4.13,0.88,6.19c0.17,1.17,0.26,2.47,0.91,3.49
				c1.32,2.07,3.78,1.69,5.61,0.54C257.81,61.56,257.21,60.52,256.56,60.93z"/>
		</g>
		<g>
			<path class="st8" d="M261.88,62.55c-2.67,1.81-4.58,2.24-7.74,2.87c-1.01,0.2-2.19,0.31-1.02,0.84c2.39,1.08,4.19,1.22,6.78,0.24
				c1.68-0.64,2.86-1.89,3.8-3.98c0.32-0.72,0.09-1.39-0.45-1.08C263.16,61.49,262.1,62.4,261.88,62.55z"/>
		</g>
		<g>
			<path class="st5" d="M263.92,40.58c-0.09-0.07-0.18-0.13-0.26-0.17c-2.85-1.57-8.48-0.47-9.62,2.9
				c-0.16,0.47,0.29,0.82,0.72,0.75c1.46-0.23,3.19-0.99,4.68-1.35c1.66-0.41,3.42-0.67,4.62-1.05
				C264.71,41.44,264.3,40.88,263.92,40.58z"/>
		</g>
		<g>
			<path class="st5" d="M243.45,46.95c-1.4,0.47-3.28,0.6-4.78,0.97c-1.07,0.28-2.14,0.61-3.11,0.86c-0.2-0.71-0.4-1.41-0.57-2.13
				c2.36-1.94,6.59-2.77,8.75-0.71C244.1,46.28,243.86,46.81,243.45,46.95z"/>
		</g>
		<g>
			<path class="st5" d="M279.22,42.09c0.03-0.21-0.07-0.42-0.25-0.56c-0.05-0.11-0.1-0.22-0.15-0.33c-0.53-3.74-2.21-7.3-2.84-11.06
				c-0.7-4.16-1.77-8.36-3.69-12.14c-1.24-2.43-2.99-4.44-5.77-4.91c-4.33-0.73-9.35,0-13.66,0.58c-6.45,0.87-15.92,1.99-20.34,7.42
				c-2.54,3.13-2.17,6.75-1.86,10.53c0.38,4.6,0.9,9.64,2.41,13.99c0.39,1.13,1.13-0.16,1.29-0.62c0.41-1.13,0.47-2.46,0.6-3.65
				c0.27-2.36,0.5-4.82,1.8-6.88c0.71-1.13,1.67-2.08,2.68-2.96c0.8,1.18,1.59,2.27,3.05,3.09c2.62,1.48,5.73,1.1,8.43,2.44
				c2.21,1.1,4.02,1.93,6.57,1.61c0.63-0.08,1.26-0.21,1.88-0.37c1.07,0.85,2.15,1.69,3.29,2.43c0.55,0.36,1.11,0.69,1.68,1
				c0.95,1,1.92,1.98,3.03,2.81c2.42,1.81,5.3,5.03,8.32,5.44c1.15,0.16,6.1,1.79,6.7,0.44C282.94,49.16,280.02,43.94,279.22,42.09z
				"/>
		</g>
	</g>
	<g>
		<g>
			<path class="st12" d="M7.62,302.88c0,0,16.53,136.51,16.84,139.73c0.45,4.64,6.08,7.86,6.06-2.69
				C30.51,432.32,21.99,292,21.99,292L7.62,302.88z"/>
		</g>
		<g>
			<path class="st12" d="M262.25,314.05c0,0,3.94,136.79,4.19,140.01c0.36,4.65,5.93,7.97,6.11-2.58
				c0.13-7.59,5.06-148.2,5.06-148.2L262.25,314.05z"/>
		</g>
		<g>
			<path class="st12" d="M307.19,223.59c0,0,1.32,150.79,1.57,154.01c0.36,4.65,5.93,7.97,6.11-2.58
				c0.13-7.59,7.68-162.19,7.68-162.19L307.19,223.59z"/>
		</g>
		<g>
			<path class="st12" d="M79.94,223.41c0,0,6.66,150.67,6.55,153.9c-0.15,4.66-5.56,8.23-6.22-2.3
				c-0.48-7.58-16.16-161.65-16.16-161.65L79.94,223.41z"/>
		</g>
		<g>
			<polygon class="st11" points="1.82,262.76 7.62,302.88 277.23,316.65 322.55,213.37 322.55,174.45 			"/>
		</g>
		<g>
			<path class="st11" d="M1.82,262.76l65.7-95.08c0.89-1.37,2.44-2.18,4.07-2.12l250.96,8.89l-46.17,100.33L1.82,262.76z"/>
		</g>
		<g>
			<path class="st12" d="M277.61,278.63c-0.01,0-0.02,0-0.03,0L3.55,263.37c-0.33-0.02-0.58-0.3-0.56-0.63
				c0.02-0.33,0.31-0.58,0.63-0.56l273.6,15.24l43.34-100.07c0.13-0.31,0.49-0.45,0.79-0.31c0.3,0.13,0.44,0.48,0.31,0.79
				l-43.5,100.45C278.06,278.49,277.84,278.63,277.61,278.63z"/>
		</g>
		<g>
			<path class="st12" d="M276.38,315.55c-0.01,0-0.01,0-0.02,0c-0.33-0.01-0.59-0.29-0.58-0.62l1.23-36.92
				c0.01-0.32,0.28-0.58,0.6-0.58c0.01,0,0.01,0,0.02,0c0.33,0.01,0.59,0.29,0.58,0.62l-1.23,36.92
				C276.97,315.29,276.7,315.55,276.38,315.55z"/>
		</g>
	</g>
	<g>
		<path class="st10" d="M351.92,141.82c0,0-12.21,2.99-19.15,3.89c-6.93,0.9-13.71-2.39-19.16-2.39c-5.44,0-5.32,2.1-6.43,0
			c-1.1-2.1-2.55-14.07-2.73-22.15c-0.08-3.92,2.06-15.52,4.31-26.45c2.08-10.21,4.25-19.84,4.74-22.03
			c0.07-0.31,0.11-0.47,0.11-0.47s0.2,0.05,0.56,0.17c0.84,0.26,2.51,0.93,4.53,2.35c2.92,2.05,6.53,5.69,9.23,12.01
			c5.01,11.7,13.9,28.04,16.81,36.77c0.22,0.66,0.41,1.28,0.55,1.84c0.35,1.32,0.74,2.63,1.19,3.93
			C348.75,135.94,351.92,141.82,351.92,141.82z"/>
	</g>
	<g>
		<path class="st9" d="M261.27,180.44l-4.16,8.68c0,0-2.81-0.5-7.17-1.31c-1.48-0.28-3.15-0.57-4.93-0.91
			c-14.12-2.63-36.2-6.97-41.68-9.16c-8.24-3.29-18.58-10.23-17.09-16.67c1.5-6.43,12.88-31.52,12.88-31.52l23.48,11.29
			c0,0-10.02,15.11-10.18,15.57c0,0.36,24.12,12.08,38.46,19.02c1.57,0.75,3.01,1.45,4.3,2.07
			C258.89,179.29,261.27,180.44,261.27,180.44z"/>
	</g>
	<g>
		<path class="st11" d="M313.22,92.1c-2-3.21-2.59-6.67-1.17-10.25c1.2-3.05,3.74-5.54,6.66-7.12c-2.01-1.41-3.69-2.08-4.53-2.35
			c-0.23,0.08-0.45,0.18-0.67,0.3c-1.25,0.6-2.38,1.38-3.3,2.35c-3.62,3.82-5.48,11.27-3.62,16.43c0.35,0.96,1.13,2.14,2.18,3.26
			c1.04,1.13,2.36,2.18,3.77,2.84c1.58,0.75,4.25,2.53,3.53-0.1C315.54,95.5,314.31,93.81,313.22,92.1z"/>
	</g>
	<g>
		<path class="st11" d="M209.41,102.02c-0.98-1.23-1.75-2.72-2.77-3.94c-1.2,1.47-2.32,2.95-3.29,4.44c1.39,1.35,2.38,3.05,2.9,5.14
			c0.83,3.35,0.08,7.05-1.56,10.13c-0.68,1.26-2.66,2.91-2.42,4.48c0.11,0.66,0.42,0.86,0.83,0.85c0.71-0.05,1.68-0.81,2.16-1.2
			c2.91-2.37,5.88-5.92,6.43-9.75C212.19,108.74,211.64,104.79,209.41,102.02z"/>
	</g>
	<g>
		<path class="st11" d="M299.83,119.32c-1.55-0.81-4.13-2.71-3.53-0.06c0.45,1.98,1.62,3.72,2.62,5.48
			c1.88,3.29,2.31,6.76,0.76,10.28c-1.39,3.16-4.24,5.65-7.42,7.07c-1.3,0.58-3.89,0.69-4.65,2.07c-0.31,0.58-0.19,0.94,0.14,1.18
			c0.59,0.4,1.82,0.38,2.44,0.36c3.75-0.1,8.27-1.1,11.04-3.78c2.49-2.42,4.46-5.89,4.4-9.44c-0.05-2.27,0.59-4.64-0.1-6.82
			C304.9,123.7,302.58,120.75,299.83,119.32z"/>
	</g>
	<g>
		<path class="st11" d="M345.3,125.35c-0.14-0.56-0.34-1.19-0.55-1.84c-1.07,1.69-2.6,3.04-4.63,3.96
			c-3.16,1.4-6.92,1.34-10.25,0.28c-1.35-0.44-3.34-2.08-4.84-1.57c-0.62,0.22-0.78,0.57-0.68,0.96c0.17,0.68,1.1,1.51,1.56,1.9
			c2.86,2.44,6.89,4.73,10.74,4.59c3.47-0.13,7.24-1.39,9.59-4.07c0.08-0.1,0.17-0.19,0.25-0.28
			C346.04,127.99,345.65,126.67,345.3,125.35z"/>
	</g>
	<g>
		<path class="st11" d="M265.91,156.65c-2.01-0.31-4.05,0.12-6.06,0.41c-3.74,0.51-7.14-0.36-9.83-3.11
			c-2.41-2.47-3.65-6.04-3.81-9.51c-0.06-1.44,0.8-3.87-0.2-5.09c-0.42-0.51-0.8-0.54-1.14-0.31c-0.59,0.4-1.03,1.54-1.25,2.12
			c-1.31,3.53-2.06,8.09-0.57,11.66c1.32,3.21,3.8,6.33,7.13,7.59c2.12,0.8,4.1,2.28,6.37,2.43c2.05,0.16,5.65-0.91,8.01-2.93
			C265.88,158.78,268.59,157.07,265.91,156.65z"/>
	</g>
	<g>
		<g>
			<path class="st9" d="M291.57,190.78c-1.02-1.2-4.25-1.9-5.68-2.35c-0.91-0.29-1.83-0.54-2.75-0.78c0.48,0,0.96,0,1.44-0.01
				c1.59-0.03,7.13,0.02,7.09-1.62c-0.03-1.65-3.46-1.8-4.75-2.02c-1.75-0.3-9.04-1.6-10.53-2.02c0.98-0.06,1.95-0.14,2.93-0.28
				c1.15-0.16,2.88-0.16,3.76-1.04c1.49-1.48-0.01-2.07-1.63-2.12c-2.89-0.08-5.5-0.59-8.37-1.27c-2.05-0.48-4.11-1.11-6.24-1.1
				c-4.09,0.02-7.42,2.41-10.52,4.81c-0.39,0.3-0.18,0.76,0.19,0.92c-1.08,1.82-1.89,3.7-2.47,5.77c-0.1,0.34,0.12,0.61,0.42,0.74
				c4.02,1.67,8.05,3.34,12.07,5.01c3.59,1.49,7.2,3.17,11.07,3.78c1.34,0.21,4.27,0.97,5.15-0.5c0.23-0.38,0.26-0.79,0.18-1.18
				c1.62,0.13,3.22,0.19,4.78,0.12c1.33-0.05,2.76-1.2,2.59-2.2C291.8,193.06,292.86,192.29,291.57,190.78z"/>
		</g>
		<g>
			<path class="st8" d="M282.06,186.97c-1.68-0.14-3.32-0.44-4.94-0.89c-0.74-0.21-1.06,0.95-0.32,1.15
				c1.72,0.48,3.47,0.79,5.26,0.93C282.83,188.24,282.83,187.04,282.06,186.97z"/>
		</g>
		<g>
			<path class="st8" d="M289.27,192.04c-4.3-0.6-8.72-0.97-12.95-1.97c-0.75-0.18-1.07,0.98-0.32,1.15
				c4.23,0.99,8.65,1.37,12.95,1.97C289.71,193.3,290.03,192.15,289.27,192.04z"/>
		</g>
		<g>
			<path class="st8" d="M281.86,194.53c-2.11-0.33-4.29-0.56-6.23-1.52c-0.69-0.34-1.3,0.69-0.6,1.03c2.05,1.01,4.28,1.29,6.52,1.64
				C282.29,195.8,282.62,194.65,281.86,194.53z"/>
		</g>
	</g>
	<g>
		<path class="st9" d="M287.05,122.21c0,0,48.99,16.77,54.76,21.4c6.23,5.01,6.98,18.04-1.15,19.04
			c-8.14,0.99-12.18-1.32-30.28-12.15c-18.52-11.09-30.01-18.27-30.01-18.27L287.05,122.21z"/>
	</g>
	<g>
		<g>
			<g>
				<path class="st2" d="M248.39,133.66l17.57,0.28c1.43-1.75,2.51-21.42,2.51-21.42c0.06-0.33-0.13-0.65-0.4-0.65l-21.52-0.11
					c-0.26,0-0.46,0.31-0.4,0.65C246.15,112.41,247.3,132.24,248.39,133.66z"/>
			</g>
			<g>
				<g>
					<path class="st2" d="M266.79,129.99c-0.3,0-0.6-0.04-0.88-0.1c-0.99-0.23-2.25-1.09-2.6-3.82c-0.19-1.47-0.08-3.31,0.3-4.91
						c1.11-4.7,3.03-6.97,5.38-6.41c2.9,0.69,5.51,3.71,4.38,8.72l0,0c-0.55,2.45-1.92,4.51-3.76,5.65
						C268.68,129.7,267.7,130,266.79,129.99z M268.35,116.84c-0.87,0-1.96,1.96-2.64,4.82c-0.32,1.34-0.42,2.92-0.26,4.13
						c0.15,1.14,0.5,1.88,0.95,1.98c0.58,0.14,1.33-0.05,2.05-0.5c1.35-0.84,2.36-2.41,2.79-4.29c0.86-3.83-0.95-5.7-2.77-6.13
						C268.44,116.85,268.4,116.84,268.35,116.84z"/>
				</g>
			</g>
		</g>
		<g>
			<path class="st2" d="M268.47,112.32c-0.01,1.92-5.02,3.45-11.18,3.41c-6.17-0.03-11.16-1.61-11.15-3.53
				c0.01-1.92,5.02-3.45,11.18-3.41C263.49,108.82,268.48,110.4,268.47,112.32z"/>
		</g>
		<g>
			<path class="st2" d="M266.08,133.51c-0.01,1.42-4.13,2.94-8.87,2.92c-4.74-0.02-8.88-1.63-8.87-3.05
				c0.01-1.42,4.13-2.53,8.88-2.51C261.95,130.9,266.08,132.09,266.08,133.51z"/>
		</g>
		<g>
			<path class="st7" d="M266.85,112.55c-0.01,1.47-4.29,2.64-9.55,2.62c-5.27-0.03-9.53-1.24-9.53-2.72
				c0.01-1.47,4.29-2.64,9.55-2.62C262.59,109.86,266.86,111.08,266.85,112.55z"/>
		</g>
	</g>
	<g>
		<path class="st9" d="M290.58,124.5c-1.38-1.7-2.49-3.51-3.23-5.58c-0.13-0.36-0.24-0.74-0.34-1.11c-0.65-1.28-1.35-2.52-2.33-3.51
			c-2.68-2.7-8.59-1.66-11.97-1.16c-0.1,0.01-0.19,0-0.28-0.02c-0.92,0.36-1.67,0.73-1.79,1.28c-0.26,1.21,0.15,1.38,1.42,2.21
			c-1.56,0.89-0.6,0.94-2.37,1.5c-1.22,0.39-1.53,0.54-2.16,1.77c-0.74,1.45-0.58,3.67,0.47,4.71c1.33,1.31,0.76,1.98,1.66,3.63
			c0.39,0.72,0.7,1.39,1.24,2.02c2.41,2.78,7.69,4.46,11.16,2.98c3.56-1.52,6.07-4.87,7.27-8.47c0.14,0.19,0.28,0.37,0.43,0.56
			C290.24,125.87,291.04,125.06,290.58,124.5z"/>
	</g>
	<g>
		<path class="st2" d="M288.24,86.08c-0.37,0.66-0.75,1.33-1.14,2.01c-0.29,0.17-0.59,0.34-0.89,0.49
			c-4.47,2.42-9.04,4.22-14.15,4.66c-4.74,0.41-8.5-1.37-12.19-4.17c-1.93-1.45-3.86-2.96-5.63-4.59c-0.31-0.83-0.5-1.57-0.59-2.23
			c1.94,1.95,4.12,3.68,6.3,5.38c4.72,3.65,9.04,5.13,15.03,3.95C279.76,90.66,284.12,88.6,288.24,86.08z"/>
	</g>
	<g>
		<path class="st13" d="M257.36,35.48c-4.31-2.38-8.42-5.06-12.36-8.02c-0.62-0.46-1.21,0.58-0.6,1.03
			c3.93,2.97,8.05,5.64,12.36,8.02C257.43,36.89,258.03,35.86,257.36,35.48z"/>
	</g>
	<g>
		<path class="st13" d="M249.84,12.91c-3.15,0.81-4.48,2.8-5.57,5.71c-1.4,3.75-4.92,5.13-4.71,9.53c0.04,0.77,1.23,0.77,1.2,0
			c-0.17-3.54,2.39-4.72,3.92-7.36c1.67-2.89,1.52-5.7,5.48-6.72C250.91,13.87,250.59,12.72,249.84,12.91z"/>
	</g>
	<g>
		<path class="st13" d="M276.04,45.33c-3.47-7.26-12.83-12.22-19.98-15c-0.72-0.28-1.03,0.88-0.32,1.15
			c6.89,2.67,15.93,7.48,19.26,14.44C275.34,46.63,276.37,46.02,276.04,45.33z"/>
	</g>
	<g>
		<path class="st13" d="M281.67,42.83c-0.05,1.5-0.16,2.9-0.59,4.34c-0.22,0.72-0.45,1.21-1.12,1.62c-0.41,0.25-0.78,0.38-1.14,0.71
			c-0.58,0.51,0.27,1.36,0.85,0.85c0.53-0.47,1.25-0.58,1.74-1.11c0.36-0.39,0.56-0.89,0.73-1.39c0.55-1.65,0.68-3.29,0.73-5.02
			C282.89,42.06,281.69,42.06,281.67,42.83z"/>
	</g>
	<g>
		<path class="st13" d="M297.75,61.74c-1.06-2.68-2.13-6.01-4.39-7.94c-0.98-0.83-2.15-1.11-3.31-1.58c-2.1-0.86-3.9-2.08-5.55-3.65
			c-0.56-0.53-1.41,0.31-0.85,0.85c1.88,1.78,3.97,3.18,6.4,4.1c1.93,0.74,2.99,1.45,4.12,3.29c1.01,1.65,1.72,3.46,2.43,5.26
			C296.87,62.77,298.03,62.46,297.75,61.74z"/>
	</g>
	<g>
		<path class="st13" d="M296.9,68.33c-0.99-3.59-2.35-7.02-4.1-10.3c-0.36-0.68-1.4-0.08-1.03,0.6c1.7,3.2,3.02,6.53,3.97,10.02
			C295.95,69.39,297.11,69.08,296.9,68.33z"/>
	</g>
	<g>
		<path class="st13" d="M357.36,271.26c-0.2-9.79,0.93-21.46-3.94-30.37c-2.28-4.17-5.83-7.45-9.21-10.71
			c-4.4-4.24-8.8-8.48-13.2-12.72c-0.56-0.53-1.4,0.31-0.85,0.85c4.12,3.97,8.25,7.95,12.37,11.92c3.58,3.45,7.44,6.85,9.85,11.26
			c2.69,4.94,3.23,10.66,3.44,16.19c0.21,5.31,0.28,10.62,0.38,15.93c0.42,23,0.17,46.09-3.27,68.89c-0.11,0.75,1.04,1.08,1.15,0.32
			C357.67,319.13,357.84,295.16,357.36,271.26z"/>
	</g>
	<g>
		<path class="st14" d="M233.22,136.74c-1.73-3.7-3.34-7.38-4.07-11.42c-0.66-3.67-0.82-7.46-2.37-10.91
			c-1.44-3.2-3.72-6.01-5.46-9.05c-2.16-3.78-3.98-7.72-5.51-11.79c-0.27-0.71-1.43-0.41-1.15,0.32c1.38,3.67,2.98,7.25,4.86,10.7
			c1.91,3.49,4.54,6.69,6.16,10.32c1.65,3.71,1.7,7.8,2.51,11.73c0.78,3.76,2.38,7.25,4,10.71
			C232.52,138.04,233.55,137.43,233.22,136.74z"/>
	</g>
	<g>
		<path class="st14" d="M323.09,129.25c-0.97-2.83-0.57-6.08-0.55-9.03c0.01-2.74,0.03-5.48,0.04-8.23
			c0.03-5.88,0.06-11.75,0.09-17.63c0-0.77-1.19-0.77-1.2,0c-0.03,6.27-0.06,12.54-0.09,18.81c-0.02,3.13-0.03,6.27-0.05,9.4
			c-0.01,2.38-0.17,4.72,0.61,6.99C322.18,130.3,323.34,129.99,323.09,129.25z"/>
	</g>
	<g>
		<g>
			<path class="st15" d="M151.09,221.18c0,1.8,45.1,16.17,47.7,16.96c2.59,0.8,52.9,18.47,53.63,17.76
				c1.96-1.91,37.67-40.84,37.82-41.97c0.15-1.13-97.45-35.46-99.34-35.26C189.01,178.87,151.09,219.38,151.09,221.18z"/>
		</g>
		<g>
			<path class="st2" d="M154.31,220.17c0,0,13.47,1.13,24.7,6.22c11.79,5.34,17.81,10.03,17.81,10.03s20.66,0.9,29.94,5.09
				c9.28,4.19,21.4,11.38,22.75,11.23c1.35-0.15,37.52-38.63,37.93-40.96c0.04-0.21-15.45-9.18-24.22-12.77
				c-8.77-3.59-23.61-3.81-23.61-3.81s-16.59-11.3-26.92-13.4c-10.33-2.1-17.55-3.53-19.03-2.36
				C192.17,180.59,154.31,220.17,154.31,220.17z"/>
		</g>
		<g>
			<path class="st1" d="M197.51,235.62c-0.16,0-0.31-0.06-0.43-0.18c-0.23-0.24-0.22-0.62,0.02-0.85l41.11-39.33
				c0.24-0.23,0.62-0.22,0.85,0.02c0.23,0.24,0.22,0.62-0.02,0.85l-41.11,39.33C197.81,235.56,197.66,235.62,197.51,235.62z"/>
		</g>
		<g>
			<path class="st1" d="M248.21,248.69c-0.12,0-0.24-0.04-0.34-0.11c-0.09-0.06-9.39-6.51-22.44-12.03
				c-6.98-2.95-19.87-2.54-20-2.53c-0.32-0.01-0.61-0.25-0.62-0.58c-0.01-0.33,0.25-0.61,0.58-0.62c0.54-0.02,13.29-0.43,20.51,2.62
				c13.18,5.57,22.57,12.09,22.66,12.15c0.27,0.19,0.34,0.56,0.15,0.83C248.58,248.6,248.39,248.69,248.21,248.69z"/>
		</g>
		<g>
			<path class="st1" d="M253.55,243.58c-0.11,0-0.23-0.03-0.33-0.1c-0.13-0.09-13.3-8.77-22.6-12.1
				c-9.26-3.31-19.05-2.97-19.15-2.97c-0.31,0-0.61-0.24-0.62-0.58c-0.01-0.33,0.24-0.61,0.58-0.62c0.1,0,10.12-0.36,19.61,3.04
				c9.44,3.38,22.73,12.14,22.86,12.23c0.27,0.18,0.35,0.55,0.17,0.83C253.94,243.49,253.75,243.58,253.55,243.58z"/>
		</g>
		<g>
			<path class="st1" d="M257.97,238.57c-0.11,0-0.23-0.03-0.33-0.1c-0.13-0.09-13.3-8.77-22.6-12.1
				c-9.26-3.31-19.05-2.97-19.15-2.97c-0.31-0.01-0.61-0.24-0.62-0.58c-0.01-0.33,0.24-0.61,0.58-0.62c0.1,0,10.12-0.36,19.61,3.04
				c9.44,3.38,22.73,12.14,22.86,12.23c0.27,0.18,0.35,0.55,0.17,0.83C258.35,238.47,258.16,238.57,257.97,238.57z"/>
		</g>
		<g>
			<path class="st1" d="M276.81,219.79c-0.11,0-0.23-0.03-0.33-0.1c-0.13-0.09-13.3-8.77-22.6-12.1
				c-9.27-3.32-19.06-2.97-19.16-2.96c-0.33-0.02-0.61-0.24-0.62-0.58c-0.01-0.33,0.24-0.61,0.58-0.62c0.1,0,10.12-0.36,19.61,3.03
				c9.44,3.38,22.73,12.14,22.86,12.23c0.27,0.18,0.35,0.55,0.17,0.83C277.2,219.7,277.01,219.79,276.81,219.79z"/>
		</g>
		<g>
			<path class="st1" d="M281.23,214.78c-0.11,0-0.23-0.03-0.33-0.1c-0.13-0.09-13.3-8.77-22.6-12.1
				c-9.27-3.32-19.06-2.97-19.16-2.96c-0.33,0.02-0.61-0.24-0.62-0.58c-0.01-0.33,0.24-0.61,0.58-0.62c0.1,0,10.12-0.36,19.61,3.03
				c9.44,3.38,22.73,12.14,22.86,12.23c0.27,0.18,0.35,0.55,0.17,0.83C281.61,214.68,281.42,214.78,281.23,214.78z"/>
		</g>
		<g>
			<path class="st1" d="M197.51,231.43c-0.12,0-0.23-0.03-0.34-0.1c-0.1-0.07-9.74-6.59-19.23-10.14
				c-9.47-3.54-18.57-3.77-18.66-3.77c-0.33-0.01-0.59-0.28-0.59-0.61c0.01-0.33,0.32-0.61,0.61-0.59c0.09,0,9.39,0.24,19.06,3.85
				c9.64,3.6,19.39,10.21,19.49,10.27c0.27,0.19,0.34,0.56,0.16,0.83C197.89,231.34,197.7,231.43,197.51,231.43z"/>
		</g>
		<g>
			<path class="st1" d="M202.97,226.8c-0.12,0-0.23-0.03-0.34-0.1c-0.1-0.07-9.73-6.59-19.23-10.14
				c-9.47-3.53-18.57-3.77-18.66-3.77c-0.33-0.01-0.59-0.28-0.59-0.61c0.01-0.33,0.3-0.6,0.61-0.59c0.09,0,9.39,0.24,19.06,3.85
				c9.64,3.6,19.39,10.21,19.49,10.27c0.27,0.19,0.34,0.56,0.16,0.83C203.35,226.71,203.16,226.8,202.97,226.8z"/>
		</g>
		<g>
			<path class="st1" d="M208.43,222.17c-0.12,0-0.23-0.03-0.34-0.1c-0.1-0.07-9.73-6.59-19.23-10.14
				c-9.47-3.54-18.57-3.77-18.66-3.77c-0.33-0.01-0.59-0.28-0.59-0.61c0.01-0.33,0.28-0.59,0.61-0.59c0.09,0,9.39,0.24,19.06,3.85
				c9.64,3.59,19.39,10.2,19.49,10.27c0.27,0.19,0.34,0.56,0.16,0.83C208.81,222.08,208.62,222.17,208.43,222.17z"/>
		</g>
		<g>
			<path class="st1" d="M233.72,196.73c-0.12,0-0.23-0.03-0.34-0.1c-0.1-0.07-9.74-6.6-19.23-10.14
				c-9.47-3.54-18.57-3.77-18.66-3.77c-0.33-0.01-0.59-0.28-0.59-0.61c0.01-0.33,0.3-0.61,0.61-0.59c0.09,0,9.39,0.24,19.06,3.85
				c9.64,3.59,19.39,10.21,19.49,10.27c0.27,0.19,0.34,0.56,0.16,0.83C234.1,196.63,233.91,196.73,233.72,196.73z"/>
		</g>
		<g>
			<path class="st1" d="M212.11,217.89c-0.15,0-0.31-0.06-0.42-0.18c-0.08-0.08-8.09-7.98-19.05-10.04
				c-0.33-0.06-0.54-0.37-0.48-0.7c0.06-0.33,0.39-0.54,0.7-0.48c11.33,2.13,19.34,10.03,19.67,10.37c0.23,0.23,0.23,0.61,0,0.85
				C212.41,217.83,212.26,217.89,212.11,217.89z"/>
		</g>
		<g>
			<path class="st1" d="M216.52,213.26c-0.15,0-0.31-0.06-0.42-0.18c-0.08-0.08-8.09-7.98-19.05-10.04
				c-0.33-0.06-0.54-0.37-0.48-0.7c0.06-0.33,0.39-0.53,0.7-0.48c11.33,2.13,19.34,10.03,19.67,10.37c0.23,0.23,0.23,0.61,0,0.85
				C216.82,213.2,216.67,213.26,216.52,213.26z"/>
		</g>
	</g>
	<g>
		<g>
			<ellipse class="st2" cx="94.92" cy="235.79" rx="44.31" ry="21.04"/>
		</g>
		<g>
			<path class="st1" d="M94.53,250.85c-19.4,0-37.06-7.8-37.06-16.37c0-8.19,16.28-14.6,37.06-14.6c20.78,0,37.06,6.41,37.06,14.6
				C131.59,243.04,113.93,250.85,94.53,250.85z M94.53,221.08c-19.44,0-35.87,6.14-35.87,13.4c0,7.02,15.67,15.17,35.87,15.17
				c20.2,0,35.87-8.16,35.87-15.17C130.4,227.21,113.97,221.08,94.53,221.08z"/>
		</g>
		<g>
			<path class="st0" d="M124.35,229.76c-1.21-4.83-6.71-4.7-10.7-3.99c-3.7,0.14-8.93,0.73-8.74,4.7c0.08,1.74,1.48,3.07,2.98,3.77
				c2.25,1.05,4.12,0.48,6.37-0.11C117.07,233.41,125.77,235.45,124.35,229.76z"/>
		</g>
		<g>
			<path class="st0" d="M93.12,220.65c-5.9-2.18-10.77-1.74-15.75,1.18c-1.3,0.38-2.48,1.06-3,2.41c-0.56,1.45-0.05,2.85,1.22,3.73
				c2.15,1.48,5.63,0.97,8.07,0.99c3.24,0.02,6.96,0.35,10.06-0.78c1.67-0.61,3.31-2,3.23-3.95
				C96.88,222.12,94.82,221.28,93.12,220.65z"/>
		</g>
		<g>
			<path class="st0" d="M89.67,237.13c-0.05-0.02-0.09-0.05-0.14-0.07c-0.85-0.2-1.76-0.32-2.69-0.36c0.36-0.65,0.41-1.43,0.03-2.4
				c-0.79-1.98-3.8-2.99-5.61-3.6c-3.82-1.29-18.67-4.37-18.58,3.26c0.03,2.13,2.02,3.39,3.82,3.96c3.03,0.95,6.5,1.38,9.67,1.57
				c0.3,0.02,0.7,0.03,1.16,0.03c-0.62,0.53-1.19,1.12-1.65,1.81c-3.27,4.86,5.2,6.26,8.17,6.5c3.75,0.3,11.78,0.85,13.53-3.68
				C99.34,239.11,93.54,237.41,89.67,237.13z"/>
		</g>
		<g>
			<path class="st16" d="M110.83,227.15c-0.49-0.44-1.45-0.21-1.86,0.22c-0.41,0.43-0.75,1.17-0.15,1.56
				c0.54,0.35,1.34,0.17,1.79-0.25C111.01,228.31,111.31,227.59,110.83,227.15z"/>
		</g>
		<g>
			<path class="st16" d="M120.04,230.72c-0.58-0.63-1.66-0.14-2.27,0.15c-0.42,0.2-0.36,0.66-0.09,0.92
				c0.29,0.58,1.2,0.53,1.73,0.36C120,231.96,120.58,231.3,120.04,230.72z"/>
		</g>
		<g>
			<path class="st16" d="M80.11,223.33c0.03-0.54-0.8-0.97-1.29-1.07c-0.69-0.15-1.79,0.15-1.41,1.1c0.35,0.86,1.58,0.97,2.35,0.79
				C80.19,224.05,80.26,223.64,80.11,223.33z"/>
		</g>
		<g>
			<path class="st16" d="M85.47,220.25c-0.02-0.01-0.05-0.03-0.08-0.04c-0.52-0.26-1.65-0.46-2.08,0.05
				c-0.44,0.53,0.03,1.27,0.6,1.41c0.49,0.13,1.44,0.25,1.86-0.12C86.29,221.11,85.95,220.52,85.47,220.25z"/>
		</g>
		<g>
			<path class="st16" d="M93.83,225.68c-0.74-0.57-1.79-0.46-2.58-0.1c-0.18,0.08-0.27,0.21-0.3,0.34
				c-0.02,0.02-0.04,0.03-0.05,0.05c-0.21,0.3-0.22,0.72-0.01,1.02c0.49,0.68,1.79,0.6,2.49,0.38
				C94.15,227.14,94.56,226.24,93.83,225.68z"/>
		</g>
		<g>
			<path class="st16" d="M81.85,234.85c-0.57-0.41-1.82-0.52-2.37,0.01c-0.27,0.27-0.34,0.66-0.17,1c0.03,0.06,0.07,0.09,0.1,0.14
				c0.02,0.1,0.07,0.21,0.18,0.3c0.59,0.48,1.62,0.94,2.38,0.51C82.74,236.37,82.46,235.28,81.85,234.85z"/>
		</g>
		<g>
			<path class="st16" d="M74.97,235.53c-0.51-0.26-1.56-0.29-2.08-0.02c-0.49,0.25-0.63,0.84-0.4,1.26c0,0.23,0.13,0.46,0.42,0.54
				c0.65,0.18,2.06,0.56,2.54-0.12C75.84,236.65,75.53,235.82,74.97,235.53z"/>
		</g>
		<g>
			<path class="st16" d="M69.42,229.45c-0.36-0.45-1.05-0.43-1.57-0.41c-0.62,0.02-1.24,0.1-1.57,0.67c-0.39,0.66,0.6,1.11,1.09,1.2
				c0.41,0.08,0.83,0.16,1.25,0.09C69.33,230.89,69.96,230.13,69.42,229.45z"/>
		</g>
		<g>
			<path class="st16" d="M82.67,240.58c-0.12-0.6-0.83-0.68-1.33-0.69c-0.73-0.01-2.08,0.43-1.89,1.41c0.17,0.89,1.36,0.8,2.04,0.77
				C82.22,242.03,82.82,241.32,82.67,240.58z"/>
		</g>
		<g>
			<path class="st16" d="M92.43,244.17c-0.52-0.87-2.26-0.84-2.99-0.31c-0.43,0.31-0.63,0.89-0.35,1.37
				c0.31,0.53,0.87,0.51,1.41,0.53c0.54,0.16,1.14,0.16,1.59-0.21C92.48,245.22,92.71,244.64,92.43,244.17z"/>
		</g>
		<g>
			<path class="st16" d="M95.07,241.29c-0.5-0.63-1.65-0.41-2.34-0.41c-0.37,0-0.56,0.28-0.57,0.57c-0.19,0.23-0.26,0.53-0.09,0.89
				c0.34,0.71,1.59,0.67,2.22,0.55C95.01,242.76,95.59,241.95,95.07,241.29z"/>
		</g>
	</g>
	<g>
		<g>
			<path class="st6" d="M154.77,189c0.13,0.83-0.28,1.7-1.15,2.06l-34.94,14.48c-0.73,0.3-1.57,0.12-2.11-0.47l-10.15-10.86
				c-0.59-0.63-0.65-1.51-0.29-2.18c0.19-0.38,0.51-0.69,0.96-0.87l33.33-13.51c0.65-0.26,1.39-0.14,1.93,0.31l11.78,9.9
				C154.5,188.17,154.7,188.58,154.77,189z"/>
		</g>
		<g>
			<path class="st5" d="M154.77,189c0.13,0.83-0.28,1.7-1.15,2.06l-34.94,14.48c-0.73,0.3-1.57,0.12-2.11-0.47l-10.15-10.86
				c-0.59-0.63-0.65-1.51-0.29-2.18c2.13,2.22,11.65,11.96,11.65,11.96L154.77,189z"/>
		</g>
		<g>
			<polygon class="st5" points="108.13,191.85 118.19,202.36 150.56,189.27 138.7,179.5 			"/>
		</g>
		<g>
			<path class="st5" d="M146.1,181.91c0.7,0.7,0.9,1.64,0.44,2.1c-0.46,0.46-1.4,0.26-2.1-0.44c-0.7-0.7-0.9-1.64-0.44-2.1
				S145.4,181.21,146.1,181.91z"/>
		</g>
	</g>
	<g>
		<path class="st5" d="M255.19,177.5c-1.71,3.45-3.46,6.89-5.24,10.31c-1.48-0.28-3.15-0.57-4.93-0.91c2-3.81,3.95-7.63,5.88-11.47
			C252.46,176.19,253.9,176.88,255.19,177.5z"/>
	</g>
	<g>
		<path class="st2" d="M251.48,178.07c2.43,0.83,3.78,3.31,3.02,5.54c-0.76,2.23-3.34,3.37-5.77,2.55
			c-2.43-0.83-3.78-3.31-3.02-5.54C246.47,178.38,249.05,177.24,251.48,178.07z"/>
	</g>
	<g class="st17">
		<path class="st2" d="M266.36,86.98c-4.03-1.25-5.61,5.05-6.24,7.6c-0.38,1.52-0.44,3.01-1.51,4.22c-0.68,0.76-1.48,1.28-1.88,2.25
			c-0.85,2.05-0.09,4.91,0.07,7.04c0.06,0.79,0.99,0.69,1.22,0.06c0.25-0.7,0.15-1.52,0.41-2.26c0.25-0.69,0.63-1.31,1.09-1.89
			c0.92-1.16,2.09-2.11,3.03-3.26c0.63-0.77,0.64-1.52,1.05-2.32c0.74-1.45,1.77-2.09,2.89-3.09
			C268.55,93.48,270.01,88.1,266.36,86.98z"/>
	</g>
</g>
</svg>
