<?xml version="1.0" encoding="utf-8"?>
<!-- Generator: Adobe Illustrator 25.2.0, SVG Export Plug-In . SVG Version: 6.00 Build 0)  -->
<svg version="1.1" id="레이어_1" xmlns="http://www.w3.org/2000/svg" xmlns:xlink="http://www.w3.org/1999/xlink" x="0px"
	 y="0px" viewBox="0 0 320.92 205.51" style="enable-background:new 0 0 320.92 205.51;" xml:space="preserve">
<style type="text/css">
	.st0{fill:#C17238;}
	.st1{fill:#F29856;}
	.st2{fill:#1F2F43;}
	.st3{fill:#FCE7DD;}
	.st4{fill:#D75D44;}
	.st5{fill:#465F78;}
	.st6{fill:#4854A3;}
	.st7{fill:#FFFFFF;}
	.st8{fill:#915947;}
	.st9{fill:#ECC6B4;}
	.st10{fill:#F4CE56;}
	.st11{fill:#8FA1D2;}
</style>
<g>
	<g>
		<path class="st0" d="M177.88,5.88c-0.38,0.02-0.75,0.08-1.11,0.17c-0.03-0.05-0.12-0.04-0.13,0.04c-0.23,0.07-0.46,0.16-0.68,0.26
			c-0.08,0.04-0.01,0.16,0.07,0.12c0.2-0.09,0.4-0.17,0.6-0.23c-0.01,0.08-0.02,0.16-0.04,0.25c0,0.02,0,0.03,0,0.04
			c-0.46,2.35-0.97,4.68-1.54,7c-0.09,0-0.19,0.01-0.28,0.01c-0.09,0-0.09,0.14,0,0.14c0.64-0.03,1.27-0.02,1.91,0.05
			c0.03,0,0.06-0.02,0.07-0.05l1.21-7.71C177.95,5.93,177.93,5.88,177.88,5.88z"/>
		<path class="st0" d="M186.16,7.18c-0.36-0.11-0.73-0.18-1.11-0.21c-0.01-0.06-0.1-0.08-0.13-0.01c-0.24-0.01-0.49-0.01-0.73,0.01
			c-0.09,0.01-0.06,0.14,0.03,0.13c0.22-0.02,0.43-0.02,0.64-0.02c-0.04,0.07-0.07,0.15-0.12,0.22c-0.01,0.01-0.01,0.03-0.01,0.04
			c-1.22,2.06-2.49,4.08-3.8,6.08c-0.09-0.03-0.18-0.06-0.27-0.08c-0.08-0.03-0.13,0.1-0.05,0.13c0.61,0.18,1.2,0.41,1.78,0.69
			c0.02,0.01,0.07,0,0.08-0.03l3.72-6.86C186.21,7.24,186.2,7.19,186.16,7.18z"/>
		<path class="st0" d="M190.94,13.46c-0.31,0.12-0.63,0.24-0.94,0.36c-0.01-0.29-0.01-0.57,0-0.86c0-0.08-0.13-0.09-0.14-0.01
			c-0.01,0.31-0.01,0.61,0,0.92c-1.17,0.45-2.34,0.89-3.51,1.34c-0.37,0.14-0.73,0.28-1.1,0.42c-0.33,0.13-0.76,0.22-1.05,0.42
			c-0.17,0.12-0.2,0.28-0.21,0.47c-0.02,0.41-0.01,0.82-0.01,1.23c0,0.04,0.04,0.08,0.09,0.06c1.66-0.52,3.33-1.04,4.99-1.57
			c0.27-0.08,0.63-0.14,0.86-0.3c0.23-0.16,0.19-0.4,0.17-0.64c-0.04-0.45-0.07-0.9-0.08-1.35c0.33-0.13,0.67-0.26,1-0.38
			C191.09,13.54,191.02,13.43,190.94,13.46z"/>
		<path class="st1" d="M190.23,97.49c-1-1.29-2.12-2.49-3.4-3.5c-0.15-0.12-0.3-0.24-0.46-0.35c-0.35-0.25-0.7-0.49-1.07-0.72
			c-0.41-0.25-0.85-0.49-1.14-0.88c-0.34-0.44-0.39-1.02-0.45-1.55c-0.04-0.41,0.06-7.81,0.18-12.9c-1.85,0.66-3.71,1.28-5.59,1.83
			c-2.54,0.74-5.2,1.39-7.86,1.6c1.98,5.82,5.92,15.81,6.42,16.73c0.24,0.44,0.51,0.87,0.8,1.28c1.1,1.55,2.46,2.9,3.89,4.15
			c1.53,1.34,3.13,2.58,4.71,3.85c1.79,1.45,3.57,2.92,5.33,4.41c2.65,2.23,5.26,4.5,7.84,6.8c0.78-1.07,0.66-0.94,1.44-2.01
			C198.67,113.48,192.75,100.74,190.23,97.49z"/>
		<path class="st0" d="M190.23,97.49c-1-1.29-2.12-2.49-3.4-3.5c-1.38-0.29-2.8-0.36-4.21-0.18c-1.55,0.21-3.21,0.72-4.4,1.77
			c-0.67,0.59-1.11,1.34-1.36,2.16c0.24,0.44,0.51,0.87,0.8,1.28c1.1,1.55,2.46,2.9,3.89,4.15c1.53,1.34,3.13,2.58,4.71,3.85
			c1.79,1.45,3.57,2.92,5.33,4.41c2.65,2.23,5.26,4.5,7.84,6.8c0.78-1.07,0.66-0.94,1.44-2.01
			C198.67,113.48,192.75,100.74,190.23,97.49z"/>
		
			<rect x="91.4" y="29.87" transform="matrix(0.9303 -0.3667 0.3667 0.9303 0.2133 62.2344)" class="st2" width="144.99" height="1.37"/>
		<path class="st1" d="M172.99,15.83c0.22-0.75,0.43-1.6,1.04-2.1c0.48-0.4,1.1-0.57,1.73-0.48c-0.05,0.04-0.04,0.15,0.04,0.15
			c1.51,0.02,2.69,1.17,3.49,2.45c2.4,3.84,2.54,8.59,1.99,12.81c0,0.01,0,0.02,0,0.03c-0.29,0.05-1.33-0.1-1.46-0.12
			c-0.46-0.05-0.92-0.11-1.38-0.16l-2.84-0.34c-0.83-0.1-1.69-0.15-2.51-0.32c-0.94-0.19-1.79-0.75-1.79-1.84
			c0-1.74,0.27-3.51,0.56-5.2C172.14,19.05,172.52,17.42,172.99,15.83z"/>
		<path class="st1" d="M174.97,21.99c0.29,5.11,0.57,10.22,0.86,15.33c0,0.04,0.03,0.07,0.07,0.08l5.99,1.17
			c0.05,0.01,0.1-0.03,0.09-0.09c-0.27-5.56-0.53-11.11-0.8-16.67c0.01,0,0.02,0,0.03,0c0.1,0.01,0.09-0.16-0.01-0.17
			c-0.01,0-0.02,0-0.03,0c-0.01-0.15-0.01-0.31-0.02-0.46c-0.01-0.11-0.17-0.1-0.16,0.01c0.01,0.15,0.01,0.3,0.02,0.45
			c-2.01-0.18-4.02-0.09-5.99,0.26C174.98,21.91,174.96,21.95,174.97,21.99z"/>
		<path class="st1" d="M189,37.7c-0.29-1.25-0.98-2.31-2.05-2.92c-0.39-0.22-0.8-0.39-1.22-0.53c-0.92-0.3-1.89-0.44-2.8-0.61
			c-3.1-0.59-6.21-0.96-9.32-1.1c-1.03-0.05-2.17-0.1-3.26,0.02c-1.61,0.18-3.11,0.73-3.99,2.25c-0.1,0.17-0.18,0.35-0.25,0.53
			c-0.05-0.2-0.11-0.4-0.16-0.6c-0.03-0.09-0.15-0.05-0.13,0.05c0.08,0.26,0.14,0.53,0.21,0.79c-0.08,0.26-0.13,0.54-0.15,0.83
			c-0.01,0.09,0.13,0.13,0.14,0.03c0.01-0.19,0.05-0.38,0.09-0.57c0.7,3.09,0.71,6.25,0.76,9.36c0.05,3.5,0.29,7,0.85,10.49
			c0.27,1.65,0.55,3.34,1,4.95c0.17,0.62,0.43,1.24,0.9,1.67c0.45,0.42,1.03,0.6,1.58,0.73c1.52,0.34,3.06,0.53,4.59,0.64
			c0.8,0.06,1.6,0.08,2.4,0.08c0.56,0,1.33,0.12,1.78-0.29c0.04-0.04,0.08-0.08,0.12-0.13c0.14-0.17,0.23-0.39,0.33-0.59
			c0.19-0.4,0.38-0.81,0.57-1.21c0.36-0.76,0.71-1.53,1.07-2.29c0.71-1.53,1.43-3.06,2.14-4.58c1.3-2.79,2.7-5.56,3.72-8.52
			c0.48-1.4,0.87-2.84,1.1-4.34c0.02-0.11,0.03-0.22,0.05-0.33C189.21,40.29,189.29,38.97,189,37.7z"/>
		<path class="st1" d="M157.5,98.5c0.01,0.01,0.02,0.02,0.02,0.04c3.48-2.66,3.38,9.82,4.25,8.6c2.65-3.74,1.87-6.48,2.65-8.4
			c1.32-2.88,2.07-3.42,3.01-4.79c6.31-9.18,10.54-27.17,11.14-31c0.1-0.62-5.03,0.41-4.95-0.21c0.05-0.38,0.07-0.81-0.08-1.18
			c-0.35-0.89-1.53-0.65-2.27-0.54c-2.14,0.32-4.1,1.29-5.87,2.51c-1.05,0.72-2.03,1.53-2.99,2.38c-0.47,0.41-0.93,0.84-1.38,1.27
			l-0.02,0.02c0.03-0.14,0.05-0.28,0.08-0.42c0.02-0.09-0.13-0.11-0.15-0.02c-0.04,0.22-0.08,0.43-0.13,0.65
			c-0.16,0.18-0.36,0.38-0.47,0.37c-0.13-0.01-0.3-0.32-0.34-0.42c-0.07-0.17-0.08-0.35-0.05-0.54c0.02-0.09-0.13-0.11-0.15-0.02
			c-0.08,0.46,0.12,0.9,0.53,1.14c0.03,0.02,0.07,0.02,0.09,0c0.12-0.11,1.13,0.03,1.25-0.08c-0.79,3.95-3.05,15.34-3.82,19.3
			c-0.39,2.01-0.77,4.02-0.91,6.07c-0.07,0.99-0.07,1.98,0,2.96C157.02,96.98,157.1,97.82,157.5,98.5z"/>
		<path class="st1" d="M205.39,25.3c-0.43-2.27-0.73-4.56-1.03-6.86c-0.46,0.04-0.91,0.09-1.36,0.13c-0.87,0.09-1.74,0.2-2.61,0.3
			c0.11,1.55,0.16,3.1,0.13,4.65c-0.03,1.62-0.13,3.24-0.3,4.85c-0.16,1.42-0.48,2.85-0.45,4.28c0.01,0.66,0.12,1.33,0.39,1.94
			c0.31,0.69,0.99,1.25,1.09,2.02c-6.23-1.3-9.18-1.47-15.49-2.32c0.21,1.52,0.37,3.04,0.55,4.57c0.03,0.21,0.05,0.42,0.08,0.62
			c0.01,0.08,0.04,0.32,0.06,0.44c0.08,0.58,0.16,1.15,0.24,1.73c0.02,0.17,0.05,0.35,0.07,0.52c4.34,0.57,14.87,0.47,17.43,0.47
			c0.88,0,1.97,0.13,2.76-0.36c0.83-0.51,0.78-1.56,0.78-2.42C207.7,34.92,206.31,30.12,205.39,25.3z"/>
		<path class="st1" d="M205.47,16.03c-0.16-1.06-0.58-2.1-0.89-3.13c-0.01-0.04-0.22-0.41-0.37-0.51c-0.38-0.26-0.84-0.01-1.15,0.26
			c-0.16-0.07-0.33-0.1-0.5-0.08c-0.3,0.04-0.64,0.24-0.88,0.5c-0.1-0.01-0.2,0-0.31,0.02c-0.45,0.09-0.83,0.4-1.11,0.77
			c-0.02,0-0.04-0.01-0.07-0.01c-0.62-0.02-1.01,0.31-1.25,0.86c-0.12,0.28-0.28,0.63-0.3,0.93c-0.01,0.11,0.01,0.17,0.13,0.2
			c0.12,0.03,0.28-0.05,0.4-0.07c0.1-0.02,0.2-0.05,0.3-0.07c-0.08,0.47-0.19,0.93-0.34,1.38c0,0,0,0,0,0
			c-0.22,0.11-0.44,0.21-0.66,0.32c-0.16,0.08-0.34,0.15-0.34,0.36c0.01,0.25,0.26,0.55,0.4,0.74c0.19,0.27,0.4,0.51,0.63,0.74
			c0.01,0.01,0.01,0.01,0.02,0.01c0.24,0.33,0.53,0.64,0.76,0.93c0.4,0.51,0.8,1.02,1.19,1.53c-0.03,0.04-0.01,0.11,0.06,0.11
			c0.01,0,0.02,0,0.02,0c0.02,0.02,0.04,0.05,0.06,0.07c0.04,0.06,0.14,0.04,0.14-0.04c0-0.01,0-0.03,0-0.04
			c0.93-0.04,1.94-0.18,2.79-0.54c0.36-0.15,0.34-0.4,0.39-0.76c0.07-0.58,0.18-1.15,0.33-1.71
			C205.18,17.88,205.61,17.01,205.47,16.03z"/>
		<path class="st0" d="M188.4,39.85c-0.8-1.91-1.7-3.78-2.68-5.6c-0.92-0.3-1.89-0.44-2.8-0.61c-3.1-0.59-6.21-0.96-9.32-1.1
			c-1.03-0.05-2.17-0.1-3.26,0.02c0.45,1.04,0.9,2.08,1.36,3.11c0.53,1.21,1.29,2.52,1.16,3.89c-0.07,0.71-0.31,1.39-0.42,2.1
			c-0.1,0.61-0.14,1.23-0.14,1.85c0,1.35,0.18,2.69,0.31,4.02c0.27,2.73,0.27,5.49-0.03,8.22c-0.06,0.56-0.15,1.14-0.05,1.7
			c0.1,0.55,0.43,0.95,0.76,1.39c0.7,0.94,0.95,2.1,1.48,3.13c0.47,0.91,1.37,1.85,2.48,1.81c0.58-0.02,1.03-0.36,1.53-0.6
			c0.31-0.15,0.63-0.26,0.98-0.16c0.14,0.04,0.28,0.11,0.39,0.2c-0.03,0.05-0.06,0.11-0.09,0.16c0.14-0.17,0.23-0.39,0.33-0.59
			c0.19-0.4,0.38-0.81,0.57-1.21c0.36-0.76,0.71-1.53,1.07-2.29c0.71-1.53,1.43-3.06,2.14-4.58c1.3-2.79,2.7-5.56,3.72-8.52
			c0.48-1.4,0.87-2.84,1.1-4.34c0.02-0.11,0.03-0.22,0.05-0.33C188.89,40.96,188.63,40.4,188.4,39.85z"/>
		<path class="st3" d="M193.35,77.76c-0.55-1.16-1.27-2.23-2.07-3.23c-1.65-2.05-3.63-3.81-5.44-5.71c-1.04-1.09-2.01-2.24-2.9-3.46
			c-0.44-0.6-0.87-1.21-1.27-1.84c-0.28-0.43-0.54-1.15-1.09-1.27c-0.3-0.07-0.64-0.03-0.94-0.04c-0.43-0.01-0.86-0.02-1.29-0.02
			c-0.79-0.01-1.58-0.03-2.38-0.04c-1.61-0.03-3.22-0.07-4.83-0.07c-1.77,0-3.54,0.05-5.3,0.27c-1.41,0.17-2.95,0.38-4.05,1.36
			c-0.07,0.06,0.03,0.16,0.1,0.1c0.1-0.09,0.2-0.16,0.3-0.24c-1.13,5.13-2.1,10.3-2.91,15.5c-0.23,1.48-0.44,2.97-0.65,4.45
			c-0.01,0.05,0.02,0.08,0.07,0.09c1.23,0.09,2.41-0.28,3.58-0.62c1.25-0.36,2.52-0.61,3.82-0.68c2.53-0.14,5.02,0.36,7.51,0.68
			c2.41,0.31,4.81,0.39,7.17-0.27c2.14-0.6,4.12-1.61,6.15-2.48c1.19-0.51,2.41-0.98,3.68-1.28c0.29-0.07,0.59-0.13,0.89-0.18
			c0.21-0.04,1.28-0.13,1.57-0.17c0.15-0.02,0.37-0.03,0.46-0.19C193.62,78.2,193.42,77.92,193.35,77.76z"/>
		
			<ellipse transform="matrix(0.236 -0.9718 0.9718 0.236 72.3923 201.1268)" class="st2" cx="164.1" cy="54.53" rx="20.59" ry="15.96"/>
		<path class="st0" d="M148.16,119.08c0.87,0.21,1.75,0.06,2.6-0.2c0.91-0.28,8.4-7.89,9.51-9.33c1.21-1.57,1.99-2.56,2.29-4.51
			c0.16-1.04,0.74-4.62,0.5-7.6c-0.29-3.63-0.81-5.54-1.72-7.08c-0.75-1.26-2.24-1.99-3.7-1.42c-0.08,0.03-0.16,0.07-0.23,0.11
			c-0.35,1.27-0.64,2.55-0.98,3.82c-1.09,4.18-2.29,8.34-3.6,12.46c-1.45,4.6-3.04,9.15-4.75,13.66
			C148.08,119.03,148.11,119.07,148.16,119.08z"/>
		<path class="st0" d="M185.61,20.18c-0.45,1.76-1.04,3.58-1.9,5.19c-0.22,0.41-0.47,0.81-0.75,1.19c-0.19,0.25-0.82,0.92-0.82,0.92
			s-1.09-0.97-1.49-1.14c-0.83-0.36-1.73-0.6-2.64-0.65c-1.13,0.43-2.33,0.66-3.57,0.67c-0.22,0-0.44,0-0.66-0.02
			c-0.06,0-0.12-0.01-0.19-0.01c-1.64-0.11-3.25-0.58-4.72-1.33c-0.02-0.01-0.04-0.05-0.03-0.07c0.7-1.81,1.31-3.66,1.82-5.53
			c0.13-0.46,0.25-0.93,0.39-1.4c0.49,0.18,1,0.3,1.48,0.37c1.25,0.18,2.77,0.03,3.46-1.19c0.03-0.05,0.01-0.12-0.04-0.15
			c-0.97-0.48-2.22-0.52-3.27-0.45c-0.39,0.03-0.82,0.07-1.24,0.17c0.3-0.88,0.68-1.72,1.18-2.48c0.03-0.05,0.07-0.11,0.11-0.16
			c0.42-0.61,0.94-1.15,1.58-1.59c2.14-1.47,4.77-1.55,7.95-0.42c0.17,0.05,0.33,0.09,0.5,0.14c0.51,0.15,1.04,0.28,1.52,0.5
			c0.77,0.35,1.21,1.08,1.45,1.86C186.29,16.41,186.07,18.37,185.61,20.18z"/>
		<path class="st4" d="M194.72,6.13c-1.81-2.28-4.35-3.85-7.16-4.58c-2.95-0.76-5.52-0.74-8.44,0.12
			c-10.03,2.97-10.6,8.44-9.44,9.16c1.02,0.63,5.56-2.6,8.92-3.03c3-0.38,6.21,0.31,8.07,2.87c1.91,2.61,1.99,6.01,1.41,9.07
			c-0.16,0.87-0.38,1.72-0.61,2.57c-0.2,0.73-0.47,1.45-0.58,2.2c-0.07,0.5-0.1,1.06,0.14,1.52c0.24,0.47,0.74,0.7,1.25,0.63
			c0.69-0.1,1.31-0.59,1.86-0.99c0.57-0.41,1.11-0.84,1.64-1.31c1.06-0.93,2.02-1.97,2.85-3.11c1.61-2.21,2.7-4.83,2.75-7.59
			C197.44,10.93,196.42,8.26,194.72,6.13z"/>
		<path class="st5" d="M175.49,49.43c-0.26-1.7-1.3-3.06-1.83-4.66c-0.26-0.8-0.25-1.64-0.47-2.44c-0.21-0.74-0.7-1.3-1.27-1.8
			c-0.72-0.63-1.59-1.15-2.52-1.42c-1.45-0.6-3.24-0.6-4.68-0.29c-2.59,0.56-5.01,2.21-6.27,4.57c-0.31,0.57-0.54,1.18-0.7,1.81
			c-0.21,0.88-0.27,1.79-0.45,2.68c-0.32,1.66-1.28,2.91-2.28,4.22c-0.48,0.63-0.95,1.27-1.3,1.98c-0.39,0.78-0.65,1.62-0.86,2.46
			c-0.36,1.43-0.64,2.91-0.58,4.4c0.05,1.37,0.43,2.75,1.35,3.81c0.5,0.58,1.14,1.02,1.76,1.46c0.71,0.51,1.34,1.07,1.95,1.7
			c0.52,0.54,1.05,1.09,1.69,1.49c0.57,0.36,1.22,0.58,1.88,0.69c1.37,0.21,2.79-0.09,4-0.73c2.69-1.4,4.12-4.36,4.92-7.16
			c0.26-0.9,0.46-1.82,0.86-2.67c0.34-0.73,0.81-1.38,1.32-2c0.95-1.16,2.03-2.24,2.74-3.58C175.47,52.55,175.73,50.95,175.49,49.43
			z M171.01,46.05c0.12,1.23,0.52,2.43,0.5,3.68c-0.02,1.25-0.48,2.48-1.28,3.44c-0.68,0.82-1.58,1.43-2.3,2.22
			c-0.73,0.8-1.1,1.75-1.28,2.81c-0.18,1.13-0.21,2.28-0.56,3.37c-0.68,2.1-2.47,4.23-4.71,4.69c-2.54,0.52-4.17-2.05-4.74-4.16
			c-0.6-2.19-0.34-4.63,0.77-6.62c0.56-1,1.35-1.86,1.91-2.87c0.55-1,0.71-2.09,0.76-3.22c0.06-1.21,0.02-2.46,0.45-3.62
			c0.39-1.07,1.11-1.99,1.96-2.73c0.92-0.8,1.99-1.39,3.1-1.89c0.49-0.22,1-0.4,1.5-0.61c0.36,0.02,0.71,0.06,1.06,0.13
			c0.59,0.12,1.17,0.31,1.71,0.58c0.51,0.25,1.07,0.58,1.34,1.1c0.32,0.63,0.06,1.34-0.08,1.98
			C170.98,44.9,170.96,45.48,171.01,46.05z"/>
		<path class="st2" d="M102.52,57.84c-0.13-0.37-0.37-0.73-0.58-1.05c-0.22-0.35-0.47-0.69-0.73-1.01c0-0.04-0.02-0.08-0.04-0.11
			c0.01-0.03,0.01-0.06-0.02-0.08c-0.61-0.42-1.23-0.84-1.84-1.27c-0.49-0.34-0.91-0.72-1.54-0.55c-0.65,0.18-1.29,0.48-1.91,0.75
			c-0.67,0.29-1.32,0.61-1.97,0.94c-2.72,1.36-8.46,4.29-11.17,5.67c-1.21,0.62-0.62,1.19-0.61,1.51c0,0.03,0.05,0.07,0.08,0.06
			c6.34-1.69,12.92-2.25,19.25-3.98C101.87,58.6,102.74,58.49,102.52,57.84z"/>
		<path class="st2" d="M181.87,17.03c-0.05,0.9-0.53,1.7-1.09,2.37c-0.65,0.78-1.41,1.48-2.12,2.19c-0.75,0.76-1.51,1.51-2.28,2.25
			c-0.86,0.84-1.73,1.67-2.6,2.49c-0.06,0-0.12-0.01-0.19-0.01c0.94-0.88,1.87-1.77,2.79-2.67c1.4-1.36,2.85-2.71,4.15-4.17
			c0.63-0.71,1.2-1.58,1.21-2.57c0.01-0.94-0.57-1.73-1.34-2.21c-0.82-0.51-1.81-0.65-2.76-0.71c-0.92-0.07-1.86-0.06-2.78,0
			c-0.75,0.05-1.5,0.15-2.23,0.29c0.03-0.05,0.07-0.11,0.11-0.16c1.03-0.19,2.08-0.29,3.14-0.31c1.7-0.03,3.82-0.04,5.15,1.19
			C181.58,15.53,181.91,16.25,181.87,17.03z"/>
		<path class="st2" d="M183.23,45.63c-0.06-1.94-0.22-3.93-0.83-5.78c-0.32-0.98-0.78-1.92-1.41-2.74c-0.05-0.07-0.17,0-0.12,0.07
			c1.45,1.93,1.94,4.35,2.13,6.71c0.22,2.75,0.11,5.53-0.31,8.25c-0.01,0.09,0.12,0.12,0.13,0.04
			C183.15,50,183.29,47.81,183.23,45.63z"/>
		<path class="st2" d="M203.76,117.14c-0.47-0.43-1.38-0.71-1.93-1.03c-0.35-0.2-1.05-0.67-1.63-0.96c-0.1,0.12-1.2,1.62-1.76,2.23
			c0.48,0.6,0.85,1.27,0.92,2.1c0.1,1.24-0.2,2.53-0.43,3.74c-0.23,1.19-0.49,2.39-0.62,3.6c-0.04,0.35-0.05,0.76,0.14,1.07
			c0.18,0.31,0.54,0.41,0.86,0.28c0.43-0.17,0.73-0.61,1-0.97c0.33-0.44,0.64-0.9,0.93-1.37c0.57-0.94,1.06-1.92,1.51-2.92
			c0.46-1.03,0.88-2.08,1.28-3.13C204.37,118.86,204.56,117.86,203.76,117.14z"/>
		<path class="st2" d="M139.97,122.2c0.52,0.19,1.05,0.35,1.58,0.48c1.06,0.27,2.15,0.45,3.24,0.57c1.12,0.13,2.25,0.23,3.37,0.3
			c0.97,0.06,1.98-0.06,2.44-1.04c0.27-0.58,0.59-3.22,0.7-3.84c-0.24-0.12-2-0.7-2.67-1.03c-0.41,0.57-0.86,1.07-1.56,1.35
			c-1.15,0.46-2.47,0.56-3.7,0.7c-1.21,0.14-2.43,0.24-3.62,0.47c-0.35,0.07-0.74,0.18-0.98,0.45c-0.24,0.26-0.23,0.63-0.01,0.91
			C139.04,121.89,139.55,122.05,139.97,122.2z"/>
	</g>
	<path class="st1" d="M120.96,79.79c-1.52-0.69-3.08-1.27-4.67-1.76c-1.63-0.51-3.28-0.94-4.94-1.35c-1.73-0.43-3.47-0.85-5.22-1.21
		c-1.71-0.35-3.48-0.7-5.23-0.67c-1.09,0.02-2.21,0.22-3.12,0.8c-0.2-0.17-0.46-0.28-0.74-0.31c-0.02,0-0.05,0.01-0.06,0.03
		c-0.32,0.73-0.16,1.54,0.25,2.21c0.48,0.76,1.26,1.26,2,1.74c1.63,1.05,3.09,2.3,4.29,3.83c0.68,0.87,1.27,1.81,1.77,2.8
		c0.01,0.02,0.04,0.03,0.06,0.03c3.55-0.01,7.1-0.26,10.61-0.75c1.8-0.25,3.59-0.57,5.37-0.94c1-0.21,2.64-0.51,2.59-1.85
		C123.85,80.94,122.05,80.29,120.96,79.79z"/>
	<path class="st1" d="M110.74,105.51c-0.16-1.87-0.46-3.74-0.73-5.6c-0.44-3.06-0.88-6.12-1.33-9.18c-0.26-1.8-0.53-3.61-0.9-5.4
		c-0.21-1.02-0.45-2.04-0.75-3.04c-0.38-1.31-0.85-2.6-1.44-3.83c-0.49-1.02-1.11-2.04-2.02-2.74c-0.55-0.43-1.17-0.67-1.82-0.78
		c-0.72-0.12-1.48-0.1-2.23-0.03c-1.38,0.13-2.73,0.42-4.04,0.86c-0.08,0.03-0.16,0.05-0.23,0.08c0.04-0.17,0.09-0.34,0.13-0.5
		c0.06-0.22,0.12-0.44,0.18-0.65c0.02-0.08-0.11-0.12-0.13-0.04c-0.04,0.13-0.08,0.26-0.11,0.39c-0.08,0.28-0.16,0.57-0.23,0.85
		c-0.09,0.03-0.18,0.07-0.28,0.1c-0.08,0.03-0.05,0.16,0.04,0.13c0.07-0.03,0.14-0.05,0.2-0.07c-0.05,0.22-0.11,0.44-0.16,0.66
		c-0.3-1.01-0.46-2.06-0.43-3.14c0-0.09-0.13-0.09-0.14,0c-0.03,1.17,0.17,2.31,0.51,3.4c-0.2,0.91-0.37,1.82-0.5,2.74
		c-0.01,0.09,0.12,0.12,0.13,0.04c0.12-0.84,0.27-1.68,0.45-2.52c0.37,1.1,0.87,2.17,1.42,3.19c0.26,0.49,0.53,0.97,0.81,1.46
		c1.03,1.82,2.12,3.62,3.11,5.46c2.32,4.31,4.4,8.74,6.24,13.27c0.21,0.53,0.42,1.06,0.63,1.59c0.92,2.36,1.61,5.11,3.57,6.86
		c0.05,0.04,0.11,0.01,0.12-0.05C110.88,107.85,110.84,106.67,110.74,105.51z"/>
	<path class="st1" d="M111.92,72.74c0.44,1.36,0.73,2.8,1.33,4.09c0.28,0.6,0.65,1.17,1.15,1.62c0.56,0.5,1.41,0.74,1.81,1.4
		c2.74,0.27,5.17,1.51,7.69,2.52c0.24-0.72-0.15-1.5-0.45-2.17c-2.03-4.51-11.22-15.9-12.43-17.87c-0.4,0.23-2.06,1.23-2.81,1.68
		c0.73,1.37,1.4,2.76,2.01,4.19C110.86,69.68,111.43,71.2,111.92,72.74z"/>
	<g>
		<path class="st2" d="M254.34,180.88c-0.26-0.34-2.23-3.45-2.28-3.45c-1.82,0.3-3.46,1.25-5.18,1.91c-0.09,0.03-0.17,0.07-0.26,0.1
			c-0.01,0-0.01,0-0.02,0.01c0.72-1.25,1.39-2.61,1.93-3.75c2.36-4.94,1.74-8.54,1.57-9.6c-0.15-0.97-0.33-1.93-0.52-2.9
			c-1.49-0.07-14.85-0.69-14.92-0.7c0.19,0.81-0.76,1.84-0.73,1.91c-3.69,4.17-6.12,5.78-9.91,10.3c-1.63,1.95-3.5,4.33-2.71,7.02
			c0.68,2.33,3.28,3.1,5.45,2.62c1.21-0.27,2.33-0.84,3.39-1.48c0.06-0.03,0.12-0.05,0.17-0.08c1.74-0.8,2-0.75,3.49-1.95
			c-0.39,1.71-0.97,5.56-1.05,6.74c-0.08,1.03,0.1,1.95,0.87,2.69c1.61,1.56,3.97,1.14,5.84,0.34c2.2-0.94,14.44-7.76,14.95-8
			c0.26-0.12,0.55-0.31,0.53-0.64C254.92,181.6,254.57,181.18,254.34,180.88z"/>
		<path class="st2" d="M253.44,177.81c-0.45,0.32-0.91,0.59-1.42,0.79c-0.04,0.02-0.05,0.07-0.01,0.1c0.55,0.46,0.98,1.03,1.27,1.68
			c-0.11,0.02-0.21,0.04-0.32,0.06c-0.07,0.01-0.06,0.13,0.01,0.11c0.12-0.02,0.25-0.05,0.37-0.07c0.02,0.01,0.05,0,0.07-0.01
			c0.52-0.1,1.06-0.17,1.59-0.09c0.74,0.1,3.04,1.99,3.65,2.39c0.5,0.33,1.02,0.18,1.53-0.03c0.04-0.01,0.05-0.06,0.02-0.09
			c-0.6-0.83-3.64-4.08-4-4.46c-0.47-0.49-0.98-1.09-1.74-0.93C254.08,177.35,253.75,177.59,253.44,177.81z"/>
		<path class="st5" d="M246.88,179.34c-1.89,2.29-4.21,4.21-6.83,5.62c-0.08,0.04-0.15-0.08-0.07-0.12
			c2.53-1.37,4.79-3.21,6.64-5.41C246.7,179.41,246.79,179.37,246.88,179.34z"/>
		<path class="st1" d="M234.48,119.99c-0.32-0.96-1.73,0.52-2.01,0.86c-0.69,0.85-0.63,1.95-0.89,2.96
			c-0.13,0.26-0.22,0.55-0.3,0.85c-0.02,0.09,0.11,0.12,0.13,0.04c0.05-0.19,0.11-0.38,0.18-0.57c0.03,0,0.05-0.02,0.06-0.05
			c0.03-0.08,0.05-0.17,0.07-0.26c0.14-0.29,0.33-0.54,0.61-0.72c0.44-0.27,0.97-0.33,1.43-0.52c0.4-0.17,0.74-0.42,0.82-0.86
			C234.68,121.18,234.65,120.52,234.48,119.99z"/>
		<path class="st1" d="M234.43,118.52c-0.05-0.03-0.09-0.06-0.15-0.08c-0.08-0.04-0.16-0.07-0.24-0.1c-0.16-0.05-0.31-0.1-0.47-0.15
			c-0.05-0.01-0.09-0.03-0.14-0.04c-0.29-0.08-0.58-0.14-0.88-0.19c-0.04-0.01-0.07-0.01-0.11-0.02c-0.01,0-0.03,0-0.04-0.01
			c-0.42-0.06-0.82-0.15-1.14,0.18c-0.41,0.43-0.69,1-0.96,1.52c-0.25,0.49-0.52,0.99-0.69,1.51c-0.2,0.63-0.18,1.29-0.18,1.95
			c0,0.77,0,1.53,0,2.3c0,0.09,0.14,0.1,0.14,0.01c0-0.05,0-0.09,0-0.14c0.45-0.13,0.91-0.25,1.37-0.35
			c0.12-0.02,0.45-0.03,0.55-0.11c0.1-0.08,0.14-0.34,0.18-0.45c0.34-0.89,0.65-1.8,0.94-2.71c0.85,0.15,1.61-0.4,1.96-1.17
			c0.18-0.4,0.29-0.9,0.24-1.34C234.8,118.84,234.65,118.65,234.43,118.52z"/>
		<path class="st2" d="M252.54,125c0.18-0.35,0.24-0.75,0.19-1.14c-0.07-0.48-0.62-2.48-3.03-2.2c-0.42,0.05-0.84-0.11-1.23-0.29
			c-0.5-0.23-0.79-0.67-1.17-1.04c-0.42-0.42-0.96-0.71-1.53-0.85c-1.14-0.29-2.44-0.06-3.36,0.71c-0.33,0.28-0.54,0.66-0.86,0.94
			c-0.39,0.33-0.89,0.26-1.32,0.48c-0.61,0.31-0.83,1.08-0.85,1.71c-0.02,0.7,0.21,1.47,0.92,1.74c0.51,0.2,1.08,0.09,1.61-0.09
			c0.09,0.19,0.21,0.37,0.38,0.52c0.2,0.19,0.44,0.31,0.7,0.39c0.26,0.37,0.6,0.69,1,0.91c0.28,0.15,0.62,0.23,0.87,0.43
			c0.38,0.32,0.43,1.09,0.57,1.56c0.24,0.85,0.55,1.68,0.91,2.49c0.22,0.5,0.47,1.28,1.14,1.28c0.16,0,0.3-0.04,0.44-0.11
			c0.06,0.17,0.12,0.34,0.19,0.5c0.02,0.05,0.09,0.05,0.12,0.01c0.64-0.71,1.17-1.52,1.54-2.41c0.2-0.47,0.37-0.98,0.82-1.28
			c0.32-0.21,0.72-0.32,1.01-0.58c0.64-0.57,0.3-1.47,0.43-2.21C252.11,125.99,252.31,125.45,252.54,125z"/>
		<path class="st6" d="M253.37,135.42c-0.73-0.15-1.49-0.21-2.22-0.31c-0.76-0.1-1.53-0.21-2.29-0.31c-1.43-0.19-2.87-0.43-4.31-0.4
			c-1.41,0.03-2.88,0.33-4.02,1.2c-0.82,0.63-1.44,1.5-1.64,2.51c-0.07-0.05-0.16,0.04-0.09,0.1c0.02,0.02,0.04,0.04,0.07,0.05
			c-0.02,0.1-0.03,0.21-0.04,0.32c-0.01,0.09,0.13,0.09,0.14,0c0-0.07,0.01-0.15,0.02-0.22c1.83,1.47,4.07,2.23,6.35,2.67
			c1.2,0.23,2.42,0.39,3.64,0.53c0.63,0.07,1.3,0.2,1.91-0.04c0.53-0.21,0.97-0.64,1.39-1.02c0.83-0.76,1.66-1.64,2-2.75
			C254.55,136.84,254.48,135.65,253.37,135.42z"/>
		<path class="st6" d="M243.79,138.83c-0.05-0.53-0.31-0.9-0.84-1.02c-0.72-0.15-1.51-0.11-2.24-0.14
			c-0.82-0.04-1.64-0.08-2.46-0.13c-0.41-0.02-0.84-0.02-1.23-0.18c-0.37-0.14-0.64-0.42-0.86-0.74c-0.37-0.55-0.6-1.19-0.91-1.77
			c-0.3-0.56-0.65-1.11-1.1-1.57c-0.54-0.56-2.9-2.45-2.64-3.53c0.22-0.91,0.64-1.76,0.47-2.73c-0.1-0.56-0.36-1-0.23-1.59
			c0.06-0.27,0.17-0.52,0.28-0.78c0.07-0.16,0.12-0.28,0.1-0.46c0-0.03-0.04-0.05-0.07-0.05c-0.05,0-2.76-0.28-2.77-0.27
			c-0.04-0.01-0.07,0.02-0.08,0.05c-0.25,0.79-0.53,1.57-1.15,2.16c-0.28,0.26-0.58,0.5-0.82,0.79c-0.23,0.28-0.42,0.58-0.6,0.89
			c-0.57,0.99-1.15,3.45-1.24,4.1c-0.17,1.26,0.03,2.42,0.43,3.62c0.2,0.59,0.4,1.17,0.52,1.78c0.13,0.67,0.16,1.35,0.16,2.03
			c0.01,1.14-0.04,2.3,0.15,3.43c0.17,0.99,0.53,1.97,1.23,2.7c0.7,0.74,1.67,1.15,2.65,1.36c0.04,0.01,0.09,0.02,0.13,0.03
			c0.71,0.32,1.46,0.54,2.19,0.84c0.96,0.39,1.84,0.97,2.57,1.7c0.6,0.6,1.09,1.29,1.47,2.05c-0.15,0.21-0.31,0.42-0.46,0.62
			c-0.05,0.07,0.07,0.14,0.12,0.07c0.14-0.18,0.27-0.37,0.41-0.55c0.11,0.24,0.21,0.48,0.3,0.73c0.03,0.08,0.16,0.05,0.13-0.04
			c-0.1-0.28-0.21-0.55-0.34-0.82c0.82-1.11,1.64-2.21,2.46-3.32c0.24,0.16,0.5,0.27,0.79,0.22c0.55-0.1,1.01-0.59,1.32-1.03
			c0.35-0.5,0.57-1.07,0.76-1.65c0.24-0.72,0.45-1.45,0.65-2.18c0.22-0.8,0.42-1.61,0.56-2.43
			C243.73,140.32,243.86,139.55,243.79,138.83z"/>
		<path class="st1" d="M247.95,133.36c0.13-0.44,0.31-0.86,0.44-1.29c0.13-2.74,0.16-5.53-1.26-7.99c-0.62-1.07-1.57-2.06-2.83-2.14
			c-0.07,0-0.07-0.09-0.03-0.12c-0.52-0.1-1.05,0-1.47,0.31c-0.53,0.38-0.73,1.06-0.95,1.66c-0.46,1.27-0.85,2.58-1.15,3.91
			c-0.31,1.35-1.02,4.98,0.28,5.6c0.29,0.14,1.91,0.58,3.17,0.34c1.49-0.28,3.13-1.16,3.13-1.16c0.38,0.06-0.59,1.87-0.21,1.94
			c0.06,0.01,0.33,0.06,0.6,0.11C247.76,134.13,247.84,133.74,247.95,133.36z"/>
		<path class="st1" d="M243.02,129.59c0.64,4.04,1.29,8.09,1.93,12.13c0,0.03,0.03,0.06,0.06,0.06l4.86,0.45
			c0.04,0,0.07-0.03,0.07-0.08c-0.66-4.4-1.33-8.8-1.99-13.2c0.01,0,0.02,0,0.03,0c0.08,0,0.06-0.14-0.02-0.13
			c-0.01,0-0.02,0-0.02,0c-0.02-0.12-0.04-0.25-0.06-0.37c-0.01-0.09-0.14-0.07-0.13,0.02c0.02,0.12,0.04,0.24,0.05,0.35
			c-1.62,0.02-3.21,0.25-4.74,0.7C243.03,129.52,243.02,129.56,243.02,129.59z"/>
		<path class="st6" d="M253.89,139.6c-1-0.32-2-0.65-3-0.98c0.18-0.33,0.27-0.71,0.22-1.09c-0.06-0.42-0.29-0.78-0.61-1.04
			c-0.19-0.15-0.4-0.27-0.63-0.36c-0.22-0.09-0.64-0.21-0.79-0.44c0.25-0.14,0.49-0.29,0.73-0.47c0.07-0.05,0-0.17-0.07-0.12
			c-0.23,0.17-0.46,0.32-0.71,0.45c-0.01-0.08,0.01-0.17,0.07-0.28c0.05-0.08-0.07-0.14-0.12-0.07c-0.08,0.13-0.09,0.28-0.06,0.41
			c-1.21,0.63-2.59,0.89-3.84,1.42c-0.28,0.12-0.57,0.26-0.84,0.42c-0.01-0.02-0.02-0.03-0.03-0.05c-1.93,0.04-3.91,0.2-5.57,0.98
			c-1.93,0.91-2.8,2.59-3.13,4.42c-0.17,0.96-0.7,1.97-0.78,2.94c-0.04,0.51-0.1,1.02-0.18,1.52c0.04,1.12,0.05,2.24-0.08,3.37
			c-0.21,1.84-0.65,3.65-0.76,5.5c-0.05,0.96-0.02,1.93,0.2,2.87c0.18,0.76,0.54,1.47,0.6,2.26c0.05,0.65,0.03,1.32-0.03,1.98
			c4.99,0.5,14.24,1.49,15.37,1.59c0.04,0,0.06-0.02,0.07-0.06c0.86-2.16,1.19-3.26,2.12-4.52c0.42-0.57,0.83-1.16,1.05-1.81
			c0.25-0.73,0.23-1.49,0.22-2.26c-0.01-0.83,0.09-1.61,0.46-2.36c0.33-0.67,0.79-1.3,1.15-1.95c0.74-1.33,1.21-2.76,1.53-4.23
			c0.26-1.2,0.42-2.41,0.56-3.63C257.41,143.17,256.74,140.5,253.89,139.6z"/>
		<path class="st1" d="M254.73,169.34c-0.21-0.59-0.4-1.16-0.52-1.77c0.04-0.03,0.08-0.05,0.12-0.08c0.07-0.05,0.01-0.17-0.06-0.12
			c-1.24,0.89-2.64,1.36-4.08,1.78c-0.57,0.16-1.07,0.4-1.44,0.87c-0.05,0.07-0.1,0.14-0.15,0.21c-0.19,0.26-0.36,0.53-0.47,0.83
			c-0.1,0.26-0.25,0.74-0.03,0.98c0.07,0.07,0.15,0.1,0.23,0.12c-0.12,0.29-0.16,0.64,0.22,0.67c0.09,0.01,0.19-0.02,0.29-0.06
			c-0.18,0.26-0.29,0.59-0.02,0.79c0.15,0.11,0.3,0.11,0.44,0.07c-0.1,0.19-0.14,0.42-0.03,0.61c0.18,0.31,0.63,0.1,0.86-0.03
			c0.39-0.23,0.8-0.53,1.05-0.91c0.04-0.06,0.07-0.11,0.1-0.17c0.44-0.23,0.89-0.46,1.31-0.73c0.39-0.24,0.71-0.53,0.97-0.91
			c0.3-0.44,0.52-0.92,0.91-1.3C254.72,169.91,254.87,169.72,254.73,169.34z"/>
		<path class="st6" d="M262.41,160.08c-0.21-1.21-0.68-2.35-1.02-3.52c-0.37-1.27-0.44-2.54-0.48-3.86
			c-0.08-2.46-0.51-4.96-1.43-7.26c-0.83-2.07-2.25-3.83-4.12-5.03c-0.15,0.07-0.3,0.13-0.45,0.19c-0.73,1.34-2.25,2.09-3.07,3.38
			c-1.15,1.79-0.25,3.89,0.53,5.63c0.49,1.09,0.92,2.17,0.95,3.38c0.03,1.09-0.18,2.17-0.24,3.26c-0.05,0.96,0.03,1.94,0.48,2.81
			c0.44,0.86,1.13,1.55,1.6,2.39c0.64,1.15,0.55,2.47,0.01,3.65c-0.53,1.15-1.42,2.08-2.28,2.98c-0.02,0.02-0.03,0.06-0.01,0.08
			c0.52,0.83,1.04,1.66,1.55,2.49c0.03,0.04,0.07,0.04,0.11,0.01c1.96-1.55,3.84-3.22,5.61-4.98c0.76-0.76,1.62-1.54,2.05-2.55
			C262.6,162.18,262.59,161.1,262.41,160.08z"/>
		<path class="st2" d="M253.6,142.93c-1.7,3.93-0.91,8.26-0.13,12.3c0.02,0.09,0.15,0.05,0.13-0.04c-0.77-4-1.57-8.31,0.12-12.2
			C253.75,142.92,253.64,142.85,253.6,142.93z"/>
		<path class="st2" d="M237.7,140.12c-0.99,1.84-1.66,3.83-1.98,5.89c-0.01,0.09,0.12,0.12,0.13,0.04c0.32-2.05,0.98-4.03,1.96-5.86
			C237.86,140.11,237.74,140.04,237.7,140.12z"/>
		<path class="st2" d="M249.36,129.19c0.07-1.09,0.04-2.2-0.1-3.29c-0.11-0.88-0.24-1.83-0.7-2.61c-0.47-0.8-1.26-1.13-2.11-1.4
			c-0.42-0.13-0.86-0.24-1.29-0.25c-0.06-0.06-0.13-0.11-0.22-0.17c-0.89-0.54-2.07-0.54-2.96,0.01c-0.46,0.29-0.83,0.7-1.06,1.18
			c-0.15,0.3-0.3,0.7-0.26,1.05c-0.13,0.26-0.24,0.53-0.32,0.82c-0.02-0.08-0.14-0.05-0.13,0.03c0.01,0.09,0.04,0.17,0.08,0.24
			c-0.01,0.07-0.02,0.13-0.02,0.2c0,0.04,0.03,0.07,0.06,0.07c0.05,0.01,0.09,0.01,0.14,0.02c0.04,0.01,0.06-0.02,0.07-0.05
			c0.11,0.07,0.24,0.1,0.38,0.11c0.54,0.01,0.93-0.44,1.35-0.71c0.55-0.34,1.14-0.22,1.75-0.21c0.41,0,0.83-0.08,1.11-0.41
			c0.26-0.32,0.32-0.74,0.32-1.14c0.25,0.15,0.76,0.3,1.04,0.79c0.31,0.54,0.41,1.06,0.37,1.66c-0.03,0.44-0.08,0.91,0.12,1.33
			c0.2,0.41,0.59,0.51,0.93,0.78c0.8,0.61,0.45,1.68,0.38,2.57c-0.06,0.8-0.54,2.33,0.07,2.94c0.03,0.03,0.36-0.69,0.38-0.73
			C249.23,131.18,249.3,130.14,249.36,129.19z"/>
		<path class="st2" d="M245.6,127.8c-0.08,0.39-0.31,0.67-0.49,0.63c-0.19-0.04-0.27-0.39-0.19-0.78c0.08-0.39,0.31-0.67,0.49-0.63
			C245.6,127.07,245.68,127.42,245.6,127.8z"/>
		<path class="st2" d="M242.44,127.03c-0.08,0.39-0.31,0.67-0.49,0.63s-0.27-0.39-0.19-0.78c0.08-0.39,0.31-0.67,0.49-0.63
			S242.52,126.64,242.44,127.03z"/>
		<path class="st0" d="M243.5,127.3c0.06-0.06-0.03-0.17-0.09-0.1c-0.28,0.29-0.54,0.58-0.8,0.89c-0.21,0.25-0.49,0.53-0.56,0.86
			c-0.13,0.61,0.58,0.85,1.03,1.02c0.08,0.03,0.13-0.1,0.05-0.13c-0.25-0.09-0.54-0.2-0.75-0.36c-0.34-0.27-0.19-0.63,0.03-0.92
			C242.74,128.11,243.12,127.69,243.5,127.3z"/>
		<path class="st7" d="M243.91,130.93c-0.36,0-2.13-0.54-2.55-0.77c-0.05-0.03-0.1,0.01-0.1,0.06c-0.04,0.58,0.5,1.02,1,1.19
			c0.6,0.2,1.23,0.04,1.7-0.37C244.01,131.01,243.97,130.93,243.91,130.93z"/>
		<path class="st1" d="M248.87,128.23c-0.03-0.3-0.28-0.53-0.57-0.6c-0.31-0.08-0.61,0.03-0.87,0.2c-0.01-0.09-0.01-0.17-0.02-0.26
			c-0.01-0.09-0.14-0.06-0.13,0.02c0.01,0.11,0.02,0.22,0.03,0.33c-0.04,0.03-0.08,0.06-0.11,0.09c-0.07,0.06,0.02,0.16,0.09,0.1
			c0.01-0.01,0.02-0.02,0.03-0.03c0.01,0.31,0,0.63-0.03,0.94c-0.04,0.38-0.17,0.75-0.11,1.14c0.01,0.05,0.06,0.06,0.1,0.05
			c0.43-0.16,0.75-0.47,1.03-0.83C248.53,129.08,248.92,128.66,248.87,128.23z"/>
		<path class="st0" d="M248.34,127.95c-0.25-0.03-0.46,0.09-0.61,0.29c-0.23,0.3-0.28,0.96-0.71,1.04
			c-0.09,0.02-0.06,0.15,0.02,0.13c0.7-0.12,0.49-1.41,1.28-1.33C248.41,128.1,248.42,127.96,248.34,127.95z"/>
		<path class="st2" d="M246.97,126.16c0.01-0.02,0.02-0.05-0.01-0.08c-0.37-0.45-1.07-0.64-1.64-0.56
			c-0.27,0.04-1.03,0.43-0.57,0.76c0.09,0.07,0.24,0.08,0.34,0.09c0.24,0.04,0.49,0.06,0.73,0.13c0.32,0.1,0.64,0.35,0.99,0.34
			C247.26,126.84,247.22,126.38,246.97,126.16z"/>
		<path class="st2" d="M241.28,125.28c0.28,0.21,0.69,0.19,1.01,0.29c0.24,0.07,0.45,0.2,0.67,0.31c0.1,0.05,0.22,0.12,0.34,0.12
			c0.56-0.01,0.16-0.77-0.04-0.95c-0.43-0.39-1.1-0.63-1.66-0.47c-0.03,0.01-0.05,0.03-0.05,0.06
			C241.22,124.66,240.92,125.03,241.28,125.28z"/>
		<path class="st0" d="M234.43,118.52c-0.05-0.03-0.09-0.06-0.15-0.08c0.09,0.47,0.1,0.95-0.04,1.42c-0.24,0.8-0.86,1.63-1.77,1.29
			c0.37-0.19,0.65-0.56,0.83-0.91c0.33-0.65,0.37-1.36,0.27-2.06c-0.05-0.01-0.09-0.03-0.14-0.04c0.06,0.43,0.07,0.87-0.01,1.3
			c-0.07,0.37-0.21,0.72-0.42,1.03c-0.11,0.16-0.25,0.31-0.41,0.43c-0.28,0.21-0.82,0.37-0.99-0.05c0.62-0.37,1.14-0.83,1.15-1.6
			c0-0.43-0.07-0.88-0.19-1.29c-0.04-0.01-0.07-0.01-0.11-0.02c-0.01,0-0.03,0-0.04-0.01c0.03,0.12,0.06,0.23,0.09,0.35
			c0.08,0.38,0.15,0.79,0.1,1.18c-0.05,0.42-0.3,0.74-0.63,0.99c-0.14,0.11-0.3,0.21-0.45,0.3c-0.03,0-0.06,0.01-0.07,0.04
			c-0.06,0.04-0.12,0.07-0.18,0.1c-0.08,0.03-0.59,0.24-0.37-0.17c0.05-0.09,0.26-0.17,0.35-0.23c0.09-0.06,0.17-0.12,0.24-0.2
			c0.16-0.17,0.27-0.38,0.32-0.61c0.05-0.2,0.07-0.48-0.02-0.67c-0.03-0.06-0.06-0.11-0.12-0.15c-0.08-0.04-0.23,0-0.29-0.07
			c-0.06-0.07-0.16,0.02-0.1,0.09c0.07,0.09,0.12,0.05,0.21,0.09c0.31,0.12,0.25,0.51,0.17,0.76c-0.08,0.23-0.21,0.44-0.4,0.58
			c-0.14,0.11-0.31,0.17-0.44,0.29c-0.11,0.1-0.24,0.29-0.14,0.43c0.16,0.22,0.61,0,0.82-0.13c0.1,0.21,0.3,0.33,0.52,0.34
			c-0.72,0.36-1.15,1.15-1.43,1.89c-0.03,0.08,0.1,0.12,0.13,0.04c0.31-0.79,0.78-1.66,1.66-1.92c0.01,0,0.01,0,0.01-0.01
			c0,0,0,0,0,0c0.37,0.15,0.77,0.14,1.12-0.05c0.37-0.21,0.59-0.61,0.76-0.99C234.5,119.67,234.52,119.09,234.43,118.52z"/>
		<path class="st0" d="M250.06,170.03c-0.29,0.12-0.54,0.25-0.76,0.48c-0.28,0.3-0.52,0.65-0.77,0.98
			c-0.05,0.07,0.06,0.15,0.11,0.08c0.2-0.28,0.4-0.55,0.62-0.81c0.24-0.29,0.51-0.46,0.85-0.61
			C250.19,170.13,250.14,170,250.06,170.03z"/>
		<path class="st0" d="M250.37,170.95c-0.28,0.13-0.53,0.28-0.74,0.52c-0.27,0.31-0.49,0.67-0.72,1.01
			c-0.05,0.07,0.06,0.15,0.11,0.08c0.19-0.29,0.37-0.57,0.58-0.84c0.23-0.3,0.49-0.48,0.83-0.64
			C250.51,171.04,250.45,170.91,250.37,170.95z"/>
		<path class="st0" d="M250.83,171.77c-0.28,0.13-0.53,0.28-0.74,0.52c-0.27,0.31-0.49,0.67-0.72,1.01
			c-0.05,0.07,0.06,0.15,0.11,0.08c0.19-0.29,0.37-0.57,0.58-0.84c0.23-0.3,0.49-0.48,0.83-0.64
			C250.97,171.86,250.91,171.74,250.83,171.77z"/>
	</g>
	<path class="st0" d="M228.52,188.74c-1.81-1.83-2.53-4.34-2.5-6.86c0.01-0.65,0.09-1.3,0.16-1.95l-92.04,7.48
		c-0.6,4.4-0.91,13.05-1.67,18.56c0.05,0.05,0.08,0.08,0.09,0.08c0.11,0,0.24,0,0.39,0.01c15.68,0.23,96.36-7.66,98.24-7.65h0.01
		c0,0,0.32-3.77,0.67-7.96C230.61,190.22,229.39,189.61,228.52,188.74z"/>
	<path class="st3" d="M232.95,176.59c0,0-1.25,16.68-1.52,18.99c0,0-82.36,7.87-98.05,7.64c-0.11,0-0.21,0-0.3-0.01
		c-0.03,0-0.06,0-0.08,0c0,0-0.03-0.03-0.09-0.08c0.37-2.67,0.63-6.08,0.87-9.39c0.26-3.51,0.49-6.9,0.8-9.17L232.95,176.59z"/>
	<path class="st0" d="M135.94,183.27c0,0-3.27,22.78-3.28,22.78h-0.01c-1.88-0.01-119-14.66-119.12-14.66c0,0-0.03-0.03-0.09-0.08
		c0.76-5.51,1.98-18.35,2.58-22.75L135.94,183.27z"/>
	<path class="st8" d="M234.03,163.35c0,0-0.9,16.17-1.16,18.96c0,0-83.15,7.94-98.84,7.71c-0.14,0-0.27,0-0.39-0.01
		c0,0-0.03-0.03-0.09-0.08c0.76-5.51,1.07-14.16,1.67-18.56c0,0,98.58-8.1,98.71-8.05C234,163.34,234.03,163.35,234.03,163.35z"/>
	<path class="st8" d="M110.8,180.19c2.43,0,4.85-0.05,7.28-0.14c1.11-0.54,2.23-1.05,3.46-1.36c2.04-0.51,4.18-0.76,6.28-0.88
		c3.42-0.2,6.84,0.06,10.25,0.27c0.85,0.05,1.7,0.09,2.55,0.12c0.93-0.11,1.85-0.23,2.78-0.36c6.83-0.94,13.64-1.99,20.49-2.76
		c11.81-1.34,23.67-2.18,35.54-2.78c5.91-0.3,11.83-0.47,17.74-0.8c4.73-0.27,9.45-0.72,14.16-1.29c1.38-5,3.29-9.75,3.29-9.75
		l0.78-2.6l-109.71-11.27c-8.23,1.1-104.46,6.91-107.97,7.73c0.04,0.04,66.48,15.73,92.42,25.9
		C110.36,180.21,110.58,180.19,110.8,180.19z"/>
	<path class="st3" d="M234.59,160.54l-1.52,18.99c-1.88-0.01-82.64,7.9-98.32,7.67c-0.1,0-0.19,0-0.27,0c-0.04,0-0.08,0-0.12,0
		c0,0-0.03-0.03-0.09-0.08c0.76-5.51,1.07-14.16,1.67-18.55l0.76-0.06L234.59,160.54z"/>
	<path class="st9" d="M219.24,129.31c0,0-10.31,23.49-3.39,23.83h-0.01c-1.88-0.01-82.56,7.87-98.24,7.65c-0.14,0-0.27,0-0.39-0.01
		c0,0-87.56-34.32-87.61-34.37c3.51-0.82,71.71-7.26,79.93-8.36L219.24,129.31z"/>
	<path class="st8" d="M136.97,167.24c0,0-3.27,22.78-3.28,22.78h-0.01c-1.88-0.01-118.21-14.15-118.32-14.16
		c0,0-0.03-0.03-0.09-0.08c0.76-5.51,1.98-18.35,2.58-22.75L136.97,167.24z"/>
	<path class="st0" d="M110.74,105.51c-1.5-1.55-2.91-3.19-4.25-4.88c-0.47-0.6-0.94-1.2-1.39-1.81c-0.91-1.21-1.78-2.44-2.63-3.69
		c-0.87-1.28-1.74-2.57-2.38-3.99c-0.62-1.39-1.04-2.86-1.49-4.31c-0.48-1.56-0.94-3.13-1.39-4.7c-0.02-0.08-0.05-0.16-0.07-0.24
		c-0.42-1.49-0.83-2.98-1.22-4.48c-0.14-0.55-0.3-1.09-0.44-1.64c1.31-0.44,2.67-0.73,4.04-0.86c0.75-0.07,1.51-0.1,2.23,0.03
		c-0.11,0.14-0.19,0.29-0.26,0.44c-0.52,1.16-0.5,2.61-0.24,3.83c0.27,1.24,0.84,2.41,1.66,3.38c0.92,1.07,2.12,1.78,3.43,2.27
		c0.47,0.18,0.95,0.32,1.44,0.46c0.37,1.79,0.64,3.6,0.9,5.4c0.44,3.06,0.88,6.12,1.33,9.18
		C110.28,101.76,110.59,103.63,110.74,105.51z"/>
	<path class="st1" d="M136.3,116.77c-0.41-0.98-1.11-1.84-1.91-2.52c-1.38-1.18-3.08-1.93-4.76-2.55
		c-2.03-0.75-17.88-5.08-19.93-6.14c0.19-0.54,0.06-0.6-0.13-0.07c-0.08-0.04-0.16-0.09-0.25-0.13c-0.08-0.05-0.17,0.08-0.08,0.13
		c0.09,0.05,0.18,0.1,0.28,0.15c-1.13,3.12-2.14,6.28-3.04,9.47c-0.02,0.05,0.02,0.09,0.07,0.1c5.3,0.8,10.6,1.6,15.89,2.39
		c0.21,0.03,0.42,0.06,0.62,0.09c-0.87,0.2-1.67,0.59-2.41,1.11c-0.48,0.33-0.94,0.69-1.39,1.07c-0.65,0.54-1.29,1.12-1.93,1.67
		c-0.04,0.04-0.09,0.07-0.13,0.11c-1.15,0.99-2.31,1.98-3.46,2.96c-1.35,1.15-2.7,2.31-4.04,3.46c-0.03,0.03-0.03,0.07-0.01,0.11
		c0.22,0.27,0.43,0.53,0.65,0.8c0.02,0.02,0.06,0.03,0.09,0.02c0.44-0.28,0.88-0.55,1.32-0.81c0.02,0,0.04-0.01,0.05-0.01
		c0.26-0.06,0.52-0.12,0.78-0.18c0.55-0.12,1.09-0.25,1.64-0.38c1.31-0.31,2.63-0.62,3.94-0.94c0.86-0.21,1.73-0.42,2.59-0.64
		c2.17-0.55,4.33-1.12,6.49-1.7c2.06-0.56,4.14-1.09,6.12-1.9c1.66-0.68,3.31-1.79,3.33-3.77
		C136.7,117.99,136.55,117.36,136.3,116.77z"/>
	<path class="st3" d="M127.26,110.22c-4.98-2.02-10.01-3.92-15.09-5.69c-0.84-0.29-1.69-0.58-2.53-0.87
		c-0.04-0.55-0.09-1.1-0.17-1.65c-0.01-0.09-0.15-0.08-0.14,0.01c0.08,0.53,0.13,1.07,0.16,1.6c-0.58-0.2-1.16-0.39-1.74-0.58
		c-0.08-0.03-0.11,0.11-0.03,0.13c0.59,0.2,1.19,0.4,1.78,0.6c0.17,2.68-0.07,5.38,0.1,8.06c0.2,3.14,1.1,6.16,2.26,9.07
		c0.67,1.67,1.41,3.32,2.16,4.95c0.02,0.04,0.06,0.06,0.1,0.04c4.45-2.96,8.23-6.91,11.01-11.48c0.8-1.32,1.52-2.69,2.15-4.1
		C127.3,110.29,127.3,110.24,127.26,110.22z"/>
	<path class="st0" d="M136.3,116.77c-1.99-0.17-4-0.16-5.99,0.04c-3.82,0.37-7.59,1.4-11.06,3.04c-0.43,0.2-0.85,0.41-1.26,0.63
		c-0.26,0.14-0.51,0.28-0.76,0.42c-0.04-0.28-0.08-0.56-0.11-0.84c-0.07-0.57-0.13-1.14-0.19-1.72c-0.01-0.09-0.15-0.09-0.14,0
		c0.08,0.88,0.19,1.75,0.31,2.63c-0.18,0.1-0.36,0.2-0.54,0.31c-0.08,0.05-0.01,0.16,0.07,0.12c0.16-0.1,0.32-0.19,0.49-0.28
		c0.02,0.17,0.05,0.34,0.07,0.5c0.2,1.33,0.45,2.65,0.74,3.96c0.08,0.34,0.14,0.7,0.22,1.07c0.86-0.21,1.73-0.42,2.59-0.64
		c2.17-0.55,4.33-1.12,6.49-1.7c2.06-0.56,4.14-1.09,6.12-1.9c1.66-0.68,3.31-1.79,3.33-3.77
		C136.7,117.99,136.55,117.36,136.3,116.77z"/>
	<path class="st3" d="M5.14,51.67c-0.99,0.89-4.84,4.56-4.84,4.56s33.36,65.22,33.39,65.23c8.88,1.22,65.35,11.87,85.38,15.39
		c4.33,0.76,7.66,0.63,7.66,0.62c-4.52-9.45-32.97-76.03-32.97-76.03S15.77,52.66,5.14,51.67z"/>
	<path class="st10" d="M222.24,156l-0.45,2.79l-104.94,8.54c0,0-90.51-11.24-90.63-11.25c0,0-0.03-0.03-0.09-0.08
		c0.76-5.5,2.85-25.15,3.46-29.59c0-0.01,0-0.02,0-0.02l22.34,2.69l23.1,2.78l25.3,3.05l20.35,2.45L222.24,156z"/>
	<path class="st3" d="M219.23,129.35c0,0-0.47,3.61-1.06,8.14c-0.01,0.05-0.01,0.09-0.02,0.14c-0.39,2.97-0.82,6.32-1.21,9.3
		c-0.01,0.05-0.01,0.09-0.02,0.14c-0.6,4.59-1.08,8.28-1.08,8.28h-0.01c-1.88-0.01-82.56,7.87-98.24,7.65
		c-0.14,0-0.27-0.01-0.38-0.01c0,0-0.02-0.02-0.06-0.06c-0.01-0.01-0.02-0.02-0.02-0.02c0.76-5.51,2.71-21.13,3.32-25.52
		c0,0,0.31-0.02,0.89-0.07c9.82-0.81,97.7-8.02,97.83-7.98C219.2,129.34,219.23,129.35,219.23,129.35z"/>
	<path class="st10" d="M0,56.16c3.93,9.94,29.55,70.23,29.58,70.23c10.8,1.49,91.36,11.06,91.34,11.03
		c-4.77-6.87-31.27-71.05-31.27-71.05S10.64,57.15,0,56.16z"/>
	<g>
		<path class="st2" d="M302.74,133.58c-0.44-1.19-1.64-2.12-2.91-1.81c-0.3-0.49-0.69-0.92-1.17-1.24c-0.64-0.43-1.34-0.54-2.1-0.53
			c-0.99,0.02-1.91-0.27-2.88-0.4c-0.76-0.11-1.58-0.08-2.23,0.38c-0.23,0.16-0.44,0.37-0.57,0.62c-0.08,0.15-0.13,0.31-0.17,0.48
			c-0.08,0.31-0.18,0.53-0.39,0.78c-0.2,0.23-0.38,0.45-0.43,0.77c-0.05,0.31,0.04,0.63,0.16,0.92c0.35,0.78,1.03,1.41,1.6,2.02
			c0.61,0.65,1.22,1.35,1.55,2.19c0.33,0.87,0.08,1.81,0.38,2.68c0.27,0.79,1.09,1.22,1.86,1.39c0.1,0.22,0.24,0.42,0.44,0.57
			c0.4,0.31,1,0.39,1.42,0.09c0.21-0.15,0.34-0.37,0.49-0.58c0.25-0.36,0.56-0.57,0.93-0.8c0.53-0.33,0.96-0.74,1.2-1.33
			c0.14-0.33,0.21-0.69,0.37-1.01c0.14-0.28,0.34-0.53,0.55-0.76c0.4-0.43,0.86-0.79,1.26-1.21c0.35-0.36,0.65-0.78,0.79-1.27
			C303.06,134.9,302.96,134.19,302.74,133.58z"/>
		<path class="st2" d="M267.9,192.14c-0.13-0.54-0.21-1.06-0.2-1.62c0-0.05-0.05-0.07-0.09-0.05c-0.63,0.34-1.32,0.52-2.04,0.55
			c0.02-0.11,0.04-0.21,0.06-0.32c0.01-0.07-0.1-0.1-0.11-0.03c-0.02,0.12-0.05,0.25-0.07,0.37c-0.02,0.02-0.02,0.04-0.01,0.07
			c-0.11,0.52-0.24,1.04-0.51,1.51c-0.38,0.65-2.98,2.07-3.59,2.48c-0.49,0.34-0.55,0.88-0.55,1.43c0,0.04,0.04,0.06,0.07,0.06
			c0.99-0.24,5.15-1.84,5.64-2.03c0.63-0.25,1.38-0.5,1.52-1.26C268.09,192.91,267.99,192.51,267.9,192.14z"/>
		<path class="st2" d="M272.69,194.91c-0.17-0.53-0.28-1.05-0.31-1.6c0-0.05-0.05-0.07-0.09-0.04c-0.61,0.38-1.28,0.61-2,0.69
			c0.01-0.11,0.03-0.22,0.04-0.32c0.01-0.07-0.1-0.1-0.11-0.02c-0.01,0.12-0.03,0.25-0.05,0.37c-0.02,0.02-0.02,0.05-0.01,0.07
			c-0.07,0.53-0.17,1.06-0.41,1.54c-0.33,0.68-2.83,2.27-3.4,2.73c-0.47,0.37-0.49,0.91-0.45,1.47c0,0.04,0.04,0.06,0.08,0.05
			c0.97-0.31,5.01-2.19,5.48-2.42c0.61-0.3,1.34-0.59,1.43-1.37C272.94,195.66,272.81,195.28,272.69,194.91z"/>
		<path class="st1" d="M284.85,161.57c-0.02,1.3-0.16,2.6-0.43,3.87c-0.24,1.13-0.47,2.67-1.58,3.27c-0.55,0.3-1.2,0.48-1.8,0.65
			c-0.59,0.17-1.18,0.31-1.79,0.41c-1.3,0.22-2.65,0.24-3.95-0.02c-0.2-0.04-0.34-0.04-0.46-0.22c-0.11-0.16-0.1-0.15-0.01-0.31
			c0.04-0.08,0.09-0.15,0.13-0.22c0.16-0.28,0.33-0.56,0.49-0.83c0.33-0.56,0.66-1.11,0.99-1.66c0.66-1.08,1.33-2.16,2.04-3.21
			c0.79-1.17,1.72-2.25,2.47-3.44c0.65-1.04,0.93-2.27,1.6-3.3c0.23,0.12,0.49,0.16,0.75,0.2c0.2,0.03,0.41,0.06,0.6,0.14
			c0.37,0.15,0.53,0.46,0.62,0.83C284.8,158.97,284.87,160.3,284.85,161.57z"/>
		<path class="st1" d="M305.64,171.77c0.31,0.71,0.66,1.4,1.02,2.09c0.79,1.54,1.62,3.07,2.46,4.59c0.46,0.84,0.93,1.68,1.4,2.52
			c0.01,0.03,0.03,0.05,0.04,0.08c0.32-0.04,0.65-0.06,0.96-0.05c0.22,0.01,0.44,0,0.66-0.01c0.09-0.02,0.18-0.03,0.26-0.05
			c-0.22-0.57-0.36-1.15-0.49-1.74c-0.17-0.78-0.33-1.56-0.49-2.34c-0.33-1.6-0.66-3.2-1-4.79c-0.15-0.72-0.3-1.45-0.54-2.15
			c-0.23-0.68-0.57-1.31-0.97-1.92c-0.44-0.67-0.89-1.33-1.22-2.05c-0.32-0.71-0.55-1.44-0.75-2.18c-0.45-1.74-0.77-3.5-0.99-5.27
			c0-0.04-0.04-0.07-0.09-0.06c-1.52,0.45-3.04,0.91-4.55,1.36v-0.08c0-0.08-0.14-0.08-0.14,0v0.12c-0.08,0.02-0.16,0.05-0.24,0.07
			c-0.08,0.02-0.05,0.14,0.04,0.12l0.21-0.06v0.12c0,0.03,0.03,0.05,0.05,0.06c1.25,3.08,2.63,6.14,3.54,9.31
			C305.07,170.23,305.31,171.01,305.64,171.77z"/>
		<path class="st1" d="M296.48,144.07c0,0.01,0,0.02,0,0.02c-0.23,0.01-1.03-0.22-1.13-0.25c-0.36-0.09-0.71-0.18-1.07-0.27
			l-0.49-0.63c-0.64-0.16-3.01-0.22-3.65-0.44c-0.72-0.25-1.33-0.78-1.22-1.64c0.05-0.42,0.13-0.84,0.22-1.26
			c0.07-0.34,0.16-0.68,0.25-1.01c0.16-0.59,0.34-1.18,0.51-1.75c0.4-1.27,0.87-2.51,1.41-3.72c0.25-0.57,0.51-1.21,1.03-1.54
			c0.42-0.27,0.93-0.33,1.41-0.19c-0.05,0.02-0.05,0.11,0.02,0.12c1.18,0.17,1.99,1.2,2.49,2.29
			C297.73,137.07,297.35,140.81,296.48,144.07z"/>
		<path class="st1" d="M292.01,136.76c0.1,4.09,0.19,8.19,0.29,12.28c0,0.03,0.02,0.06,0.05,0.07l4.76,1.09
			c0.04,0.01,0.08-0.02,0.08-0.07c-0.07-4.45-0.14-8.9-0.21-13.34c0.01,0,0.02,0,0.03,0c0.08,0.01,0.07-0.13-0.01-0.14
			c-0.01,0-0.02,0-0.02,0c0-0.12,0-0.25-0.01-0.37c0-0.09-0.13-0.09-0.13,0c0,0.12,0,0.24,0.01,0.36c-1.6-0.2-3.21-0.18-4.79,0.06
			C292.03,136.69,292.01,136.73,292.01,136.76z"/>
		<path class="st3" d="M308.47,160.11c-0.12-0.32-0.24-0.64-0.35-0.96c-0.23-0.62-0.45-1.24-0.68-1.87
			c-0.45-1.22-0.89-2.45-1.35-3.67c-0.39-1.03-0.82-2.06-1.48-2.94c-0.29-0.39-0.97-1.29-2.2-2.08c-0.06-0.04-0.13-0.08-0.19-0.12
			c-0.83-0.5-1.88-0.94-3.2-1.17c-0.05-0.01-0.11-0.02-0.17-0.03c-0.22-0.03-0.5-0.07-0.81-0.1c-0.04,0.05-0.08,0.1-0.13,0.14
			c-0.69,0.67-1.52,0.97-2.47,1.05c-0.38,0.03-0.76-0.02-1.14-0.08c-0.06,0-0.12-0.01-0.18-0.01c-1.09-0.03-1.97-0.64-2.41-1.54
			c-0.14-0.01-0.28-0.01-0.41-0.01c-0.49-0.01-0.88-0.02-1.12,0c-1.16,0.06-2.44,0.02-3.52,0.51c-1.84,0.83-2.45,3-2.75,4.82
			c-0.46,2.75-0.61,5.55-0.81,8.32c-0.2,2.8-0.41,5.61-0.61,8.41c-0.11,1.57-0.21,3.14-0.26,4.72c0,0.02,0,0.05,0,0.07
			c-0.32-0.04-0.65-0.08-0.97-0.11c-0.08-0.01-0.09,0.12-0.01,0.13c0.32,0.03,0.65,0.06,0.97,0.11c-0.02,0.7-0.03,1.4-0.03,2.1
			c0,0.39,0.01,0.79,0.02,1.18c0.01,0.21,0.01,0.41,0.02,0.62c0,0.04,0.03,0.34,0.04,0.5c-0.02-0.01-0.04-0.01-0.06,0
			c-0.01,0.01-0.02,0.01-0.03,0.02c-0.02,0.02-0.04,0.04-0.03,0.07c0.01,0.08,0.08,0.13,0.16,0.13c0.03,0,0.05-0.02,0.06-0.04
			c0.07-0.22-0.01-0.57-0.02-0.8c-0.02-0.35-0.03-0.7-0.03-1.05c-0.01-0.68-0.01-1.37,0-2.05c0-0.22,0.01-0.44,0.02-0.66
			c3.69,0.49,7.24-0.99,10.33,1.07c0.85,0.81,4.33,4.62,4.66,4.14c0.18-0.26,0.23-0.61,0.31-0.9c0.12-0.43,0.23-0.85,0.35-1.28
			c0.92-3.4,1.8-6.82,2.41-10.29c0.17-0.97,0.32-1.94,0.44-2.91v0c0.03-0.05,0.06-0.1,0.08-0.15c0.01-0.01,0.02-0.03,0.02-0.04
			c0.03-0.05,0.06-0.1,0.08-0.16c0.03-0.01,0.06-0.01,0.08-0.02c0.32-0.07,0.63-0.14,0.94-0.21c1.24-0.29,2.46-0.63,3.66-1.02
			c0.59-0.19,1.18-0.4,1.77-0.62c0.3-0.11,0.95-0.22,1.08-0.58C308.66,160.53,308.53,160.3,308.47,160.11z"/>
		<path class="st2" d="M285.81,172.6c-0.35-0.47-0.93-0.67-1.5-0.65c-0.83,0.04-1.46,0.5-1.93,1.11c-2.36-2.17-8.36-7.6-9.79-8.61
			c-1.17-0.83-2.56-1.5-4.03-1.3c-2.75,0.38-3.68,2.35-4.05,4.88c-0.25,1.78-0.04,3.58,0.19,5.34c0.24,1.84,0.38,14.72,0.27,18.92
			c0,0.04,0.04,0.08,0.08,0.07c0.93-0.22,1.85-0.45,2.78-0.67c0.03-0.01,0.05-0.03,0.05-0.06c0.19-1.34,1.52-6.82,2.08-8.01
			c0.57-1.2,1.02-2.42,1.27-3.73c0.25-1.26,0.35-2.55,0.36-3.84c0-0.16,0-0.32,0-0.48c0.47,0.46,3.05,5.73,5.31,7.39
			c1.02,0.75,7.5,2.43,8.78,2.14c1.07-0.25-3.24-2.16-2.64-3.04c0.76-1.1,1.28-2.38,1.77-3.62c0.3-0.75,0.57-1.51,0.82-2.28
			c0.2-0.62,0.41-1.24,0.49-1.89C286.22,173.71,286.17,173.08,285.81,172.6z"/>
		<path class="st2" d="M294.85,177c0,0-3.13-3.13-3.71-3.74c-1.16-1.22-2.32-2.44-3.48-3.66c-1.32-1.39-2.64-2.77-3.95-4.16
			c-0.36-0.37-1.08-1.28-1.81-1.66c0.03-0.02,0.05-0.08,0-0.1c-1.57-0.94-3.47,0.07-4.39,1.44c-0.58,0.87-0.91,1.89-1.18,2.89
			c-0.32,1.18-0.62,2.37-0.93,3.55c-1.27,4.9-2.51,9.82-3.7,14.74c-0.67,2.77-1.33,5.54-1.97,8.31c-0.01,0.04,0.01,0.08,0.06,0.08
			l2.92,0.12c0.03,0,0.06-0.02,0.06-0.04c0.78-3.02,2.57-5.6,4.19-8.22c0.84-1.36,1.61-2.76,2.27-4.21c1.68,1.31,3.54,2.4,5.66,2.74
			c2.36,0.38,4.83-0.34,6.7-1.8c0.96-0.75,1.78-1.71,2.32-2.81C294.48,179.3,294.85,177,294.85,177z"/>
		<path class="st1" d="M316.72,186.52c-0.16-0.28-0.42-0.53-0.65-0.78c0.07-0.05,0.11-0.13,0.16-0.21c0.06-0.12-0.28-0.34-0.49-0.54
			c-0.33-0.32-0.68-0.78-0.99-1.12c-0.36-0.39-1.8-2.52-2.31-3.07c-0.34-0.36-0.7-0.74-1.1-1.02c-0.33-0.24-0.65-0.17-1.02-0.04
			c-0.08,0.03-0.05,0.14,0.02,0.13c0.03,0.43,0.14,0.93-0.03,1.33c-0.13,0.31-0.19,0.59-0.2,0.93c-0.01,0.31-0.01,0.62-0.01,0.93
			c-0.06,0.51-0.17,1.02-0.29,1.53c-0.1,0.4-0.2,0.79-0.3,1.19c-0.05,0.2-0.17,0.5-0.08,0.7c0.18,0.41,0.48-0.06,0.56-0.25
			c0.29-0.73,0.58-1.45,0.87-2.18c0.04,0,0.63,0.6,0.73,0.69c0.34,0.48,0.7,0.95,1.06,1.4c0.28,0.36,0.57,0.72,0.91,1.03
			c0.22,0.2,0.55,0.52,0.87,0.53c0.69,0.03-0.17-0.93-0.32-1.08c-0.59-0.6-1.05-1.24-1.55-1.91c0.12-0.03,0.23-0.06,0.35-0.09
			c0.4,0.53,0.8,1.06,1.22,1.58c0.25,0.32,0.49,0.65,0.77,0.94c0.18,0.2,0.39,0.35,0.67,0.32c0.05-0.01,0.07-0.04,0.07-0.09
			c-0.05-0.32-0.22-0.56-0.42-0.8c-0.28-0.33-0.56-0.67-0.82-1.02c-0.27-0.37-0.52-0.75-0.76-1.15c0.1-0.03,0.2-0.06,0.31-0.09
			c0.46,0.58,0.92,1.16,1.42,1.7c0.24,0.26,0.49,0.5,0.78,0.7c0.14,0.1,0.39,0.33,0.57,0.2
			C316.82,186.83,316.79,186.64,316.72,186.52z"/>
		<path class="st3" d="M290.11,146.86c0-0.06,1.24-0.12,1.2-0.07c-1.26-0.24-3.9-0.03-5.05,0.54c-1.29,0.64-2.17,1.73-2.89,2.95
			c-0.83,1.39-1.61,2.82-2.29,4.28c-0.33,0.71-0.63,1.44-0.87,2.19c-0.16,0.49-0.33,1.1,0.16,1.45c0.3,0.22,0.71,0.29,1.07,0.4
			c0.46,0.13,0.93,0.26,1.4,0.37c0.86,0.21,1.72,0.38,2.6,0.53c-0.02,0.03-0.05,0.06-0.08,0.09c-0.01-0.09-0.14-0.05-0.13,0.04
			c0.04,0.28,0.29,0.08,0.36-0.06c0.01-0.01,0.01-0.02,0.01-0.03c0.03,0,0.05,0.01,0.08,0.01c0.04,0.01,0.09-0.02,0.09-0.07
			c0-0.12,0-0.24,0-0.36c0.17-0.45,0.3-0.92,0.46-1.36c0.43-1.2,0.85-2.39,1.28-3.59c0.86-2.4,1.72-4.81,2.57-7.21
			C290.12,146.95,290.13,146.89,290.11,146.86z"/>
		<path class="st1" d="M291.29,146.72c-0.19,0.9,0.17,1.85,0.99,2.37c0.55,0.35,1.19,0.37,1.83,0.38c0.72,0.01,1.45-0.02,2.15-0.24
			c0.96-0.3,2.11-0.99,2.58-1.94C297.3,147.05,293.39,146.78,291.29,146.72z"/>
		<path class="st11" d="M300.25,161.44c0.18,0.67,0.42,1.31,0.68,1.95c-0.03,0.05-0.06,0.1-0.08,0.15c-0.14-0.33-0.28-0.67-0.4-1.01
			c-0.31-0.85-0.48-1.72-0.7-2.6c-0.2-0.81-0.47-1.59-0.72-2.38c-0.49-1.57-0.87-3.18-0.55-4.82c0.27-1.4,0.98-2.95,2.23-3.73
			c0.46-0.28,0.97-0.46,1.49-0.53c0.07,0.04,0.13,0.08,0.19,0.12c-0.92,0.09-1.81,0.52-2.43,1.24c-1.06,1.24-1.55,2.97-1.46,4.58
			c0.08,1.61,0.69,3.12,1.14,4.64C299.89,159.84,300.04,160.65,300.25,161.44z"/>
		<path class="st11" d="M284.86,150.74c-0.93,2.46-1.54,5.04-1.8,7.66c-0.01,0.09,0.13,0.09,0.14,0c0.26-2.61,0.87-5.17,1.8-7.62
			C285.02,150.7,284.89,150.66,284.86,150.74z"/>
		<path class="st5" d="M282.26,177.46c-0.01-0.05-0.02-0.07-0.07-0.09c-0.02-0.01-0.05-0.01-0.07,0c-0.15,0.11-0.18,0.35-0.24,0.52
			c-0.11,0.32-0.24,0.63-0.37,0.94c-0.27,0.65-0.58,1.29-0.92,1.91c-0.66,1.21-1.45,2.35-2.34,3.41c-0.06,0.07,0.04,0.16,0.1,0.1
			c0.83-0.99,1.58-2.05,2.21-3.18c0.32-0.57,0.62-1.15,0.88-1.75c0.12-0.26,0.23-0.52,0.33-0.78c0.07-0.17,0.13-0.33,0.19-0.5
			c0.03-0.07,0.05-0.15,0.08-0.22c0.01-0.03,0.05-0.18,0.07-0.28c0.02,0.03,0.07,0.04,0.1,0.01c0.01-0.01,0.01-0.01,0.02-0.02
			C282.26,177.51,282.27,177.48,282.26,177.46z"/>
		<path class="st5" d="M276.18,168.53c-0.63,2.81-1.36,5.59-2.19,8.35c-0.03,0.08,0.11,0.12,0.13,0.04
			c0.83-2.76,1.56-5.54,2.19-8.35C276.33,168.48,276.2,168.44,276.18,168.53z"/>
		<path class="st2" d="M298.54,134.1c-0.17-0.67-0.51-1.33-0.91-1.89c-0.32-0.45-0.74-0.77-1.26-0.97
			c-0.63-0.24-1.31-0.34-1.96-0.45c-0.63-0.11-1.32-0.3-1.97-0.24c-0.83,0.08-1.05,0.71-1.29,1.34c-0.03-0.03-0.05-0.07-0.08-0.1
			c-0.05-0.06-0.14,0.03-0.09,0.09c0.04,0.05,0.08,0.1,0.11,0.16c-0.13,0.34-0.29,0.68-0.56,0.91c-0.06,0.05,0.03,0.14,0.09,0.09
			c0.27-0.23,0.41-0.56,0.53-0.9c0.02,0.03,0.03,0.06,0.04,0.09c-0.06,0.03-0.03,0.13,0.04,0.12c0.01,0.04,0.03,0.08,0.03,0.13
			c0.02,0.08,0.14,0.05,0.12-0.03c-0.01-0.04-0.02-0.08-0.03-0.12c0.98-0.16,2.05,0.09,2.91,0.58c0.4,0.23,0.78,0.55,0.89,1.02
			c0.13,0.54-0.14,1.08-0.21,1.6c-0.05,0.32-0.04,0.66,0.12,0.95c0.19,0.35,0.6,0.47,0.87,0.75c0.78,0.8,0.47,2.05,0.34,3.02
			c-0.12,0.85-0.01,1.81,0.66,2.45c0.04,0.04,0.09,0.02,0.11-0.03c0.54-1.42,1.09-2.85,1.38-4.35c0.14-0.72,0.22-1.44,0.24-2.17
			C298.7,135.48,298.71,134.77,298.54,134.1z"/>
		<path class="st2" d="M292.09,136.19c-0.11,0.38-0.34,0.65-0.53,0.6c-0.19-0.05-0.25-0.4-0.15-0.79c0.11-0.38,0.34-0.65,0.53-0.6
			C292.13,135.45,292.2,135.8,292.09,136.19z"/>
		<path class="st1" d="M290.81,134.61c-0.38,0.32,0.15,0.06-0.23,0.38c-0.27,0.23-1.54,1.05-1.67,1.4c-0.26,0.7,0.69,1.15,1.16,1.52
			c0.04,0.03-0.03,0.22-0.02,0.17c0.35-1.05,0.6-2.12,0.78-3.21c0-0.03-0.01-0.06-0.03-0.07c0.04-0.03,0.08-0.06,0.11-0.09
			C290.97,134.65,290.88,134.56,290.81,134.61z"/>
		<path class="st2" d="M293.18,134.39c-0.36-0.38-1.02-0.52-1.54-0.35c-0.29,0.09-0.7,0.52-0.34,0.78c0.2,0.14,0.57,0.08,0.79,0.12
			c0.31,0.05,0.72,0.25,1.05,0.2c0.15-0.02,0.25-0.13,0.26-0.29C293.4,134.7,293.3,134.52,293.18,134.39z"/>
		<path class="st7" d="M290.92,138.67c-0.13-0.1-0.5-0.01-0.65-0.01c-0.29,0-0.58-0.02-0.88-0.06c-0.09,0.33-0.17,0.67-0.25,1.01
			c0.12-0.01,0.25-0.04,0.33-0.05c0.28-0.04,0.56-0.13,0.81-0.25C290.42,139.25,291.21,138.89,290.92,138.67z"/>
	</g>
	<g>
		<path class="st9" d="M218.17,137.49c-0.01,0.05-0.01,0.09-0.02,0.14c-2.6,0.25-5.21,0.49-7.82,0.74
			c-14.73,1.37-29.47,2.67-44.21,3.89c-14.82,1.23-29.64,2.39-44.47,3.47c-0.09,0.01-0.09-0.13,0-0.14
			c8.28-0.61,16.56-1.24,24.84-1.89c14.75-1.16,29.49-2.39,44.22-3.7C199.87,139.2,209.02,138.36,218.17,137.49z"/>
		<path class="st9" d="M216.95,146.93c-0.01,0.05-0.01,0.09-0.02,0.14c-2.5,0.24-5,0.47-7.5,0.71c-14.73,1.37-29.47,2.67-44.21,3.89
			c-14.82,1.23-29.64,2.39-44.47,3.47c-0.09,0.01-0.09-0.13,0-0.14c8.28-0.61,16.56-1.23,24.84-1.89
			c14.75-1.16,29.49-2.39,44.22-3.7C198.85,148.61,207.9,147.78,216.95,146.93z"/>
	</g>
	<g>
		<path class="st9" d="M234.17,165.81c-0.01,0.05-0.01,0.09-0.02,0.14c-2.6,0.25-5.21,0.49-7.82,0.74
			c-14.73,1.37-29.47,2.67-44.21,3.89c-14.82,1.23-29.64,2.39-44.47,3.47c-0.09,0.01-0.09-0.13,0-0.14
			c8.28-0.61,16.56-1.24,24.84-1.89c14.75-1.16,29.49-2.39,44.22-3.7C215.87,167.52,225.02,166.68,234.17,165.81z"/>
		<path class="st9" d="M233.79,170.6c-0.01,0.05-0.01,0.09-0.02,0.14c-2.5,0.24-5,0.47-7.5,0.71c-14.73,1.37-29.47,2.67-44.21,3.89
			c-14.82,1.23-29.64,2.39-44.47,3.47c-0.09,0.01-0.09-0.13,0-0.14c8.28-0.61,16.56-1.23,24.84-1.89
			c14.75-1.16,29.49-2.39,44.22-3.7C215.7,172.28,224.75,171.45,233.79,170.6z"/>
		<path class="st9" d="M233.36,175.27c-0.01,0.05-0.01,0.09-0.02,0.14c-2.5,0.24-5,0.47-7.5,0.71c-14.73,1.37-29.47,2.67-44.21,3.89
			c-14.82,1.23-29.64,2.39-44.47,3.47c-0.09,0.01-0.09-0.13,0-0.14c8.28-0.61,16.56-1.23,24.84-1.89
			c14.75-1.16,29.49-2.39,44.22-3.7C215.27,176.96,224.31,176.13,233.36,175.27z"/>
	</g>
	<g>
		<path class="st9" d="M231.91,189.5c-0.01,0.05-0.01,0.09-0.02,0.14c-2.6,0.25-5.21,0.49-7.82,0.74
			c-14.73,1.37-29.47,2.67-44.21,3.89c-14.82,1.23-29.64,2.39-44.47,3.47c-0.09,0.01-0.09-0.13,0-0.14
			c8.28-0.61,16.56-1.24,24.84-1.89c14.75-1.16,29.49-2.39,44.22-3.7C213.61,191.21,222.76,190.37,231.91,189.5z"/>
	</g>
	<g>
		<path class="st2" d="M121.25,137.41c-0.02,0.04-0.03,0.09-0.05,0.13c-2.6-0.29-5.2-0.58-7.8-0.87c-4.35-0.49-8.7-0.99-13.05-1.49
			c-10.36-1.2-20.7-2.43-31.05-3.71c-13.24-1.63-26.48-3.31-39.71-5.06c0-0.01,0-0.02,0-0.02l22.35,2.78
			c7.7,0.98,15.4,1.93,23.1,2.87c6.27,0.76,12.53,1.51,18.8,2.25C102.98,135.35,112.12,136.4,121.25,137.41z"/>
	</g>
	<path class="st2" d="M128.01,140.22c-1.45-2.13-4.12-2.94-6.69-2.92c-0.58,0.05-0.89,0.07-0.89,0.07
		c-0.6,4.4-2.55,20.01-3.32,25.52c0.01,0.01,0.02,0.02,0.02,0.02c0.08-0.06,0.16-0.12,0.25-0.19c2.56-1.96,5.78-4.82,8.01-7.17
		c1.99-2.09,3.45-4.58,3.99-7.44C129.88,145.48,129.56,142.49,128.01,140.22z"/>
	<path class="st2" d="M138.97,171.36c-0.57-1.09-1.34-2.07-2.27-2.87l-0.76,0.06c-0.6,4.4-0.91,13.05-1.67,18.55
		c0.05,0.05,0.08,0.08,0.09,0.08c0.04,0,0.08,0,0.12,0c1.89-1.84,3.66-3.82,4.7-6.26C140.47,177.89,140.53,174.33,138.97,171.36z"/>
	<path class="st2" d="M139.11,192.56c-0.18-0.97-0.72-1.93-1.65-2.33c-0.51-0.22-1.08-0.24-1.64-0.25
		c-0.25-0.01-0.53-0.02-0.77,0.06c-0.33,0.11-0.51,0.38-0.63,0.69c-0.35,0.95-0.48,2.02-0.63,3.02c-0.24,3.31-0.5,6.71-0.87,9.39
		c0.05,0.05,0.08,0.08,0.09,0.08c0.03,0,0.05,0,0.08,0c0.78-0.54,1.49-1.18,2.15-1.87c0.8-0.83,1.58-1.71,2.27-2.63
		c0.63-0.85,1.13-1.77,1.39-2.8C139.17,194.85,139.31,193.65,139.11,192.56z"/>
	<path class="st3" d="M75.59,117.14l-36.16-3.99L25.07,75l35.84,3.96c2.38,6.24,14.12,37.06,14.13,37.08
		C75.03,116.04,75.33,116.63,75.59,117.14z"/>
	<path class="st2" d="M100.36,107.57l-3.07-0.28l-3.19-8.46l3.04,0.31C97.66,100.5,98.95,103.88,100.36,107.57z"/>
	<path class="st2" d="M113.8,52.7c-0.97-0.42-2.02-0.06-2.88,0.44c-0.98,0.56-1.92,1.19-2.86,1.81c-1.48-2.04-2.96-4.09-4.44-6.13
		c-2.82-3.9-5.62-7.83-8.48-11.71c-2.43-3.31-5.28-6.66-9.35-7.89c-0.06-0.02-0.1,0.04-0.09,0.08c0.05,4.25,2.48,7.92,4.97,11.17
		c2.94,3.82,5.93,7.6,8.89,11.4c1.57,2.02,3.14,4.03,4.72,6.05c-0.62,0.44-1.24,0.89-1.86,1.33c-0.51,0.37-1.13,0.72-1.49,1.25
		c-0.36,0.51-0.32,1.15-0.11,1.72c0.18,0.48,0.55,0.83,1.09,0.84c0.48,0.01,0.92-0.25,1.2-0.63c0.36-0.51,0.38-1.08,0.43-1.68
		c0.04-0.52,0.41-0.71,0.8-0.99c0.33-0.23,0.67-0.47,1-0.69c0.16-0.11,0.33-0.22,0.49-0.33c1.28,1.81,2.61,3.59,4,5.32
		c0.06,0.07,0.15-0.03,0.1-0.1c-0.1-0.13-0.21-0.26-0.31-0.39c0.32-0.45,0.64-0.9,0.96-1.36c0.31-0.45,0.61-0.98,1.03-1.33
		c0.02-0.02,0.03-0.06,0.01-0.08c-0.95-1.29-1.85-2.62-2.67-3.99c0.33-0.19,0.66-0.38,1-0.57c0,0,0.01-0.01,0.01-0.01
		c0.52-0.29,1.05-0.57,1.58-0.83c0.31-0.15,0.65-0.27,1-0.28c0.35-0.01,0.69,0.11,1.03,0.15c0.4,0.05,0.85,0.02,1.1-0.33
		C115.24,54.15,114.58,53.03,113.8,52.7z"/>
	<path class="st1" d="M113.93,58.04c-0.16-0.37-0.75-0.43-1.09-0.52c-1.25-0.35-2.52-0.61-3.8-0.78c-0.07-0.01-1.33,1.29-1.85,1.98
		c-0.38,0.5-0.96,1.09-0.71,1.76c0.55,1.47,1.31,2.88,2.14,4.21c0,0,0,0,0,0c0.04,0,0.08,0,0.12,0c0.75-0.06,1.51-0.06,2.26-0.04
		c0.26-0.23,0.44-0.55,0.59-0.87c0.26-0.53,0.51-1.06,0.76-1.59c0.49-1.01,1.06-2.02,1.43-3.09
		C113.9,58.79,114.07,58.36,113.93,58.04z"/>
	<path class="st2" d="M119.19,117.75c-1.54-3.35-3.38-6.55-5.5-9.56c-0.05-0.07-0.17,0-0.12,0.07c2.12,3.01,3.96,6.21,5.5,9.56
		C119.1,117.9,119.22,117.83,119.19,117.75z"/>
</g>
</svg>
