<?xml version="1.0" encoding="utf-8"?>
<!-- Generator: Adobe Illustrator 25.2.0, SVG Export Plug-In . SVG Version: 6.00 Build 0)  -->
<svg version="1.1" id="레이어_1" xmlns="http://www.w3.org/2000/svg" xmlns:xlink="http://www.w3.org/1999/xlink" x="0px"
	 y="0px" viewBox="0 0 335.52 351.59" style="enable-background:new 0 0 335.52 351.59;" xml:space="preserve">
<style type="text/css">
	.st0{fill:#F4CE56;}
	.st1{fill:#FCE7DD;}
	.st2{fill:#ECC6B4;}
	.st3{fill:#1F2F43;}
	.st4{fill:#A6CAB6;}
	.st5{fill:#468A5C;}
	.st6{fill:#70954B;}
	.st7{fill:#ED7051;}
	.st8{fill:#D75D44;}
	.st9{fill:#8AB262;}
	.st10{fill:#566C42;}
	.st11{fill:#7CA08D;}
	.st12{fill:#F29856;}
	.st13{fill:#8FA1D2;}
	.st14{fill:#314A64;}
	.st15{fill:#FFFFFF;}
	.st16{fill:#C17238;}
</style>
<g>
	<g>
		<path class="st0" d="M299.6,307.02c0,0.06-0.01,0.12-0.02,0.18c-0.15,1.61-0.31,3.23-0.47,4.88c-0.99,0.03-8.49,0.29-20.31,0.71
			c-59.23,2.08-226.92,7.99-226.92,7.99L3.86,289.58l4.05-42.41h0.02l2.02-0.05h0.09l21.73-0.57l0,0.01l-3.06,6.68l-4.07,8.88
			l-12.05,26.33c10.18-0.56,29.55-1.99,52.91-3.76c70.02-5.31,175.93-13.74,177.96-11.53c0.57,0.62,3.5,2.54,7.74,5.18
			c0.54,0.34,1.1,0.68,1.68,1.04c4.43,2.73,9.97,6.06,15.69,9.45c0.11,0.07,0.22,0.13,0.34,0.2c5.55,3.3,11.24,6.64,16.2,9.55
			c0.13,0.08,0.27,0.16,0.4,0.23C292.8,303.08,298.45,306.35,299.6,307.02z"/>
		<path class="st1" d="M302.45,276.3c-0.01,0.06-0.01,0.12-0.02,0.18c-0.36,3.76-0.7,7.44-1.04,11.12
			c-0.01,0.08-0.01,0.17-0.02,0.25c-0.31,3.37-0.62,6.74-0.94,10.16c-0.01,0.08-0.01,0.17-0.02,0.25c-0.26,2.87-0.54,5.78-0.82,8.76
			c0,0.06-0.01,0.12-0.02,0.18c-1.83,0.06-13.01,0.48-29.7,1.09c-60.93,2.23-195.3,7.13-216.75,7.54c0,0-0.06-0.06-0.18-0.17
			c-0.5-0.48-2.02-1.98-4.26-4.21c-0.08-0.08-0.16-0.16-0.24-0.24c-3.65-3.64-26.3-19.67-39.78-22.55
			c2.15-19.07,3.85-36.36,3.85-36.36s0.01,0,0.02,0c0.39,0.02,6.35,0.29,16.17,0.95c9.07,0.61,21.44,1.55,35.76,2.94
			c61.95,6,172.72,10.58,174.45,12.46c0.66,0.71,6.41,1.67,14.25,2.67C269.6,273.39,295.23,275.67,302.45,276.3z"/>
		<path class="st2" d="M56.52,278.64c-0.31,3.55-2.33,25.21-3.45,37.16c-2.39-2.29-21.13-12.99-44.01-26.71
			c-0.17-0.1-0.26-0.3-0.39-0.44c2.15-19.07,3.85-36.36,3.85-36.36s0.03,0,0.1,0.01C14.24,252.45,30.44,264.3,56.52,278.64z"/>
		<path class="st0" d="M302.64,274.38c-0.06,0.64-0.12,1.28-0.18,1.92c-0.01,0.06-0.01,0.12-0.02,0.18
			c-6.27,0.22-25.02,0.9-49.52,1.78c-0.57,0.02-1.14,0.04-1.72,0.06c-62.15,2.23-159.52,5.68-185.7,6.35
			c-1.47,0.04-2.71,0.06-3.71,0.08c-0.06,0-19.97-10.12-37.15-22.65c-4.33-3.16-8.49-6.48-12.11-9.82c-0.15-0.13-0.29-0.27-0.43-0.4
			c-1.81-1.7-2.68-3.02-4.17-4.72c-0.01-0.01-0.01-0.02-0.02-0.03c0.62,0,1.3-0.01,2.05-0.02h0.09c4.89-0.07,12.37-0.27,21.72-0.56
			c63.88-1.96,214.76-8,217.16-5.39C250.88,243.29,298.12,270.4,302.64,274.38z"/>
		<g>
			<path class="st2" d="M281.28,288.33c6.71-0.24,13.42-0.48,20.12-0.73c-0.01,0.08-0.01,0.17-0.02,0.25
				c-10.29,0.38-20.59,0.74-30.88,1.11c-0.55,0.02-1.08,0.04-1.6,0.06c-7.2,0.26-12.3,0.47-16.44,0.65
				c-11.27,0.51-15.47,0.84-35.93,1.49c-28.64,0.92-104.21,3.52-132.86,4.35c-10.2,0.3-20.41,0.59-30.61,0.87
				c0.01-0.08,0.01-0.16,0.01-0.25c13.79-0.38,27.59-0.78,41.38-1.19c28.64-0.84,104.21-3.45,132.86-4.38
				c12.9-0.42,19.33-0.71,25.16-0.99c4.73-0.23,9.05-0.46,16.09-0.76C272.02,288.67,276.13,288.51,281.28,288.33z"/>
			<path class="st2" d="M285.1,298.57c5.11-0.18,10.23-0.37,15.34-0.56c-0.01,0.08-0.01,0.17-0.02,0.25
				c-4.97,0.18-9.94,0.36-14.92,0.54c-4.69,0.17-9.38,0.33-14.07,0.5c-7.96,0.28-13.45,0.51-17.86,0.7
				c-11.4,0.51-15.54,0.84-36.1,1.5c-28.64,0.92-104.21,3.52-132.86,4.35c-11.73,0.34-23.45,0.67-35.18,1l-0.24-0.24
				c15.4-0.43,30.8-0.87,46.2-1.32c28.64-0.84,104.21-3.45,132.86-4.38c12.89-0.42,19.33-0.71,25.15-1
				c7.05-0.35,13.19-0.69,28.82-1.24L285.1,298.57z"/>
		</g>
		<path class="st3" d="M12.61,252.3c-0.06-0.01-0.1-0.01-0.1-0.01s-1.69,17.29-3.85,36.36c0.13,0.15,0.26,0.29,0.39,0.44
			c0.08,0.01,0.16,0.02,0.24,0.02c1.11,0,1.83-0.94,2.39-1.78c0.79-1.19,1.48-2.43,1.77-3.82C17.24,265.71,13.84,255.76,12.61,252.3
			z"/>
		<polygon class="st3" points="60.32,263.56 47.35,255.11 43.67,255.77 56.65,264.21 		"/>
	</g>
	<path class="st4" d="M287.15,119.95c-0.13-1.6,0.18-2.31-1.3-2.9c-0.38-0.15-4.8-1.3-4.8-1.3s-1.85-0.49-4.13-1.07
		c-1.32-0.34-2.78-0.71-4.11-1.05c-26.39-6.61-97.02-20.83-122.96-24.44c-25.58-0.61-28.4-10.06-28.5-10.27
		c-0.89,24.08,38.05,50.14,64.31,75.58c13.56,13.14,23.74,26.11,23.28,38.56c-1.28,34.62-2.57,68.49-3.86,103.11
		c-0.01,0.04-0.01,0.82,0.03,0.84c19.09,11.21,53.81,31.25,65.1,37.76c2.32,1.34,3.66,2.11,3.66,2.11s3.88,0.18,6.73,0.38
		c0,0,0,0,0,0c0.08,0.04,0.25-0.06,0.25-0.17c0.12-2.54,0.31-7.61,0.54-14.56c1.37-40.72,4.38-146.05,5.41-186.47
		C287.06,126.33,287.19,120.36,287.15,119.95z"/>
	<path class="st5" d="M270.22,334.76c2.32,1.34,3.66,2.11,3.66,2.11s3.88,0.18,6.73,0.38c0,0,0,0,0,0c0.08,0.04,0.25-0.06,0.25-0.17
		c0.12-2.54,0.31-7.61,0.54-14.56C276.52,325.29,272.56,329.57,270.22,334.76z"/>
	<path class="st5" d="M287.15,119.95c-0.13-1.6,0.18-2.31-1.3-2.9c-0.38-0.15-4.8-1.3-4.8-1.3s-1.85-0.49-4.13-1.07
		c-0.29,3.3-0.13,6.63,0.83,9.82c0.61,2.04,1.54,4,2.82,5.72c1.36,1.83,3.1,3.33,4.87,4.75c0.46,0.37,0.91,0.72,1.38,1.08
		C287.06,126.33,287.19,120.36,287.15,119.95z"/>
	<path class="st1" d="M281.12,118.77c-0.05-0.63-0.03-1.81-0.08-3.02c-10.09-3.39-106.2-24.05-123.71-27.39
		c-7.53-1.44-13.05-0.13-13.08,0.68c-0.37,9.88,5.4,20.6,13.52,31.63c6.15,8.35,13.65,16.89,20.86,25.38
		c2.39,2.82,4.75,5.64,7.02,8.44c11.15,13.79,20.08,27.27,19.62,39.48c-1.23,33.07-2.21,63.48-3.44,96.55
		c-0.01,0.04,0.05,8.69,0.08,8.71c0.69,0.43,1.38,0.86,2.06,1.29c22.69,14.25,37.7,25.91,60.63,39.44c0,0,0,0,0,0
		c0.29,0.17,0.58,0.34,0.88,0.52l8.14-3.5c0.06,0.03,0.19-0.03,0.23-0.12c0.01-0.02,0.01-0.03,0.01-0.05
		c0.19-4.1,0.62-15.55,1.17-31.2C277.21,244.8,281.28,120.6,281.12,118.77z"/>
	<path class="st2" d="M271.79,123.62c-0.13-1.53,0.17-2.21-1.24-2.77c-0.61-0.24-11.84-2.75-27.49-6.21
		c-5.26-1.16-11.01-2.42-17.03-3.74c-25.48-5.59-55.67-12.17-72.63-15.87c-1.67-0.37-3.22-0.7-4.61-1.01
		c-0.09,2.52,2.08,6.05,5.29,10.23c8.73,11.37,25.16,27.6,24.57,41.8c-1.94,46.82-4.68,110.8-5.54,134.18
		c-0.01,0.03-1.03,35.82-1.19,41.58c-0.01,0.51-0.02,0.78-0.02,0.78s63.48,12.32,92.74,17.38c0,0,0,0,0.01,0
		c0.23-5.28,0.64-16.46,1.15-31.1c0.25-7.06,0.52-14.92,0.81-23.32c0-0.04,0-0.07,0.01-0.11
		C268.81,220.9,271.92,125.23,271.79,123.62z"/>
	<path class="st6" d="M325.56,101.86c-9.95-0.65-20.08,0.38-29.42,3.98c-8.4,3.23-15.54,8.14-20.64,14.92
		c-2.1,2.46-15.82,20.52-15.76,21.04c0.06,0.55-3.14,16.78-0.82,12.31c8.29-15.93,16.27-28.03,16.23-27.39
		c4.7-7.58,11.68-13.51,19.7-17.33c9.66-4.59,20.53-6.15,31.16-5.68C325.86,103.09,325.71,102.47,325.56,101.86z"/>
	<path class="st7" d="M334.13,102.31c-0.38-1.3-1.21-2.67-2.36-3.44c-0.74-0.5-2.25-0.85-3.85-0.73c-1.64,0.11-3.36,0.71-4.45,2.12
		c-0.92,1.21-1.59,3.06-1.45,4.55c0.15,1.55,0.78,3.14,1.78,4.34c0.3,0.36,0.65,0.68,1.03,0.94c0.88,0.61,1.93,0.93,3.03,0.99
		c2.8,0.16,5.64-1.42,6.41-4.22C334.67,105.37,334.56,103.76,334.13,102.31z"/>
	<path class="st6" d="M305.68,83.07c-0.84,3.62-1.41,7.3-1.72,11c-0.17,2.09-0.27,4.19-0.26,6.29c0,1.88,0.12,3.77,0.75,5.55
		c0.22-0.06,0.44-0.11,0.67-0.15c1.12-3.42,2.05-6.9,2.77-10.43c0.71-3.44,1.43-7.03,1.03-10.56c-0.09-0.84-0.25-1.67-0.49-2.48
		c-0.17-0.58-0.38-1.29-0.91-1.65C306.18,79.75,305.84,82.37,305.68,83.07z"/>
	<path class="st6" d="M315.47,119.05c-2.81-2.43-5.8-4.65-8.93-6.65c-1.77-1.13-3.58-2.19-5.44-3.17c-1.66-0.87-3.39-1.65-5.26-1.93
		c-0.05,0.22-0.11,0.44-0.18,0.66c2.51,2.58,5.15,5.03,7.93,7.32c2.71,2.23,5.56,4.54,8.86,5.84c0.79,0.31,1.6,0.56,2.43,0.72
		c0.59,0.12,1.31,0.27,1.88-0.04C318.17,121.04,316.01,119.52,315.47,119.05z"/>
	<path class="st8" d="M323.47,100.25c-0.92,1.21-1.59,3.06-1.45,4.55c0.15,1.55,0.78,3.14,1.78,4.34c0.3,0.36,0.65,0.68,1.03,0.94
		c0.86-1.35,1.51-2.84,1.98-4.36c0.77-2.47,1.06-5.02,1.11-7.59C326.28,98.24,324.55,98.84,323.47,100.25z"/>
	<path class="st9" d="M271.73,141.78c0.34-0.69,0.68-1.38,1.02-2.08C272.7,140.53,272.31,141.24,271.73,141.78z"/>
	<g>
		<path class="st6" d="M250.1,74.77c-0.63,3.07-1.04,6.18-1.23,9.31c-0.1,1.77-0.14,3.54-0.1,5.31c0.04,1.58,0.18,3.18,0.74,4.67
			c0.18-0.05,0.37-0.1,0.56-0.14c0.87-2.91,1.59-5.86,2.13-8.85c0.53-2.91,1.06-5.96,0.66-8.92c-0.1-0.71-0.25-1.4-0.47-2.08
			c-0.16-0.48-0.34-1.08-0.8-1.37C250.46,71.97,250.23,74.18,250.1,74.77z"/>
		<path class="st6" d="M266.92,81.14c-2.54,0.61-5.03,1.4-7.45,2.37c-1.37,0.55-2.71,1.15-4.03,1.81c-1.18,0.59-2.33,1.26-3.25,2.21
			c0.11,0.12,0.21,0.24,0.3,0.37c2.5-0.37,4.98-0.88,7.42-1.53c2.38-0.63,4.87-1.31,6.96-2.66c0.5-0.32,0.97-0.68,1.4-1.09
			c0.31-0.29,0.69-0.64,0.75-1.09C269.16,80.41,267.41,81.02,266.92,81.14z"/>
		<path class="st6" d="M187.14,198.36c3.51,0.18,7.01,0.37,10.52,0.55c0.1,0.01,0.2,0.01,0.3,0.02c3.01-6.52,6.03-13.05,9.06-19.56
			c4.56-9.8,9.15-19.59,13.8-29.35c4.63-9.71,9.31-19.39,14.08-29.03c4.76-9.61,9.59-19.17,14.56-28.68
			c4.44-8.5,9.22-17.11,17.15-23.38c0.49-0.39,1-0.77,1.52-1.14c0.32,0.35,0.64,0.7,0.98,1.04c0.21,0.21,0.42,0.43,0.64,0.66
			c-7.67,5.71-12.53,13.63-16.8,21.62c-4.98,9.32-9.71,18.78-14.42,28.24c-9.53,19.17-18.71,38.51-27.75,57.91
			c-3.39,7.27-6.76,14.54-10.12,21.82c2.44,0.15,4.88,0.29,7.29,0.33c0.2,0,0.25,0.27,0.06,0.27c-2.47-0.04-4.97-0.19-7.46-0.34
			c-1.63,3.52-3.25,7.04-4.88,10.56c-0.07,0.15-0.36,0-0.3-0.14c1.61-3.48,3.21-6.96,4.82-10.44c-0.66-0.04-1.33-0.08-1.99-0.11
			c-1.48,3.2-2.96,6.4-4.43,9.6c-0.07,0.15-0.36,0-0.3-0.14c1.46-3.16,2.92-6.32,4.38-9.47c-0.04,0-0.08,0-0.13-0.01
			c-3.51-0.18-7.01-0.37-10.52-0.55C187,198.61,186.94,198.35,187.14,198.36z"/>
		<path class="st7" d="M278.22,67.31c0.05-0.14,0.09-0.28,0.13-0.43c0.31-1.2,0.35-2.59-0.1-3.74c-0.65-1.67-4.24-4.68-7.6-3.61
			c-1.45,0.46-3.06,1.6-3.79,2.91c-0.76,1.36-1.16,3.02-1.03,4.58c0.04,0.42,0.12,0.83,0.26,1.22c0.36,1.06,1.06,1.97,1.97,2.68
			c2.21,1.73,5.44,2.06,7.68,0.2C276.92,70.14,277.74,68.75,278.22,67.31z"/>
		<path class="st8" d="M278.22,67.31c0.05-0.14,0.09-0.28,0.13-0.43c-4.12-0.49-8.34-0.02-12.26,1.34c0.36,1.06,1.06,1.97,1.97,2.68
			c2.21,1.73,5.44,2.06,7.68,0.2C276.92,70.14,277.74,68.75,278.22,67.31z"/>
	</g>
	<path class="st9" d="M269.51,143.21c0.52-0.11,1.03-0.31,1.5-0.58c-0.85,1.73-1.71,3.46-2.56,5.19c-0.7,1.41-1.39,2.82-2.09,4.23
		c-0.22,0.45-0.27,0.82-0.81,0.78c-0.36-0.03-0.74-0.14-1.1-0.21c-0.72-0.14-1.45-0.27-2.17-0.41c1.09-3.23,2.57-6.29,4.25-9.26
		C267.48,143.29,268.49,143.43,269.51,143.21z"/>
	<g>
		<path class="st6" d="M211.72,6.81c-0.38-0.29-0.76-0.58-1.13-0.88c-0.45,0.45-0.89,0.9-1.32,1.36
			c-6.85,7.43-10.22,16.69-13.28,25.78c-3.42,10.16-6.69,20.37-9.89,30.6c-2.21,7.1-4.43,13.72-6.78,24.87
			c0.82,0.22,1.84,0.23,2.6,0.55c1.93-8.84,4.95-19.51,7.5-27.61c3.17-10.08,6.36-20.16,9.82-30.15
			c2.97-8.56,6.53-17.15,13.21-23.99C212.2,7.17,211.96,6.98,211.72,6.81z"/>
		<path class="st7" d="M216.56,6.37c-0.26-1.7-1.07-3.57-2.38-4.75c-1.7-1.52-7.52-2.85-10.71,0.31c-1.07,1.06-2.01,2.64-2.42,4.19
			c-0.12,0.44-0.19,0.88-0.2,1.3c-0.08,1.98,0.44,4.09,1.49,5.78c1.07,1.72,2.82,2.75,4.78,3.13c2.96,0.58,6.16-0.39,7.96-2.75
			c0.34-0.44,0.63-0.93,0.86-1.46C216.71,10.33,216.85,8.28,216.56,6.37z"/>
		<path class="st6" d="M164.17,250.87c-2.02-11.58-2.46-23.41-1.99-35.19c0.08-2.06,0.18-4.12,0.3-6.18
			c0.88-15,2.78-29.97,4.97-44.82c2.53-17.17,5.68-34.24,9.22-51.23c1.82-8.75,3.75-17.47,5.76-26.18c-0.05,0-0.1-0.01-0.15-0.02
			c0-0.04,0-0.07,0-0.1c-0.06-1.05-1.64-1.04-2.38-1.02c-0.13,0.01-0.16,0.17-0.08,0.23c-0.06,0.25-0.11,0.49-0.17,0.74
			c-1.48,6.46-2.93,12.93-4.31,19.41c-3.01,14.1-5.77,28.25-8.15,42.46c-0.48,2.84-0.93,5.69-1.38,8.53
			c-1.85,11.9-3.5,23.86-4.67,35.86c-0.51,5.23-0.94,10.47-1.25,15.71c-0.84,14-0.66,28.17,1.9,41.97
			c0.22,1.18,3.96,18.45,4.72,21.96c1.11,0.06,1.94,0.03,2.37-0.02C167.99,268.83,164.39,252.15,164.17,250.87z"/>
		<path class="st6" d="M176.88,179.95c-3.21,3.66-6.16,7.56-8.81,11.64c-1.5,2.31-2.9,4.67-4.2,7.1c-1.16,2.17-2.19,4.43-2.58,6.88
			c0.29,0.07,0.58,0.15,0.86,0.24c3.41-3.26,6.65-6.7,9.67-10.33c2.95-3.53,6.01-7.24,7.74-11.55c0.41-1.03,0.75-2.09,0.97-3.17
			c0.16-0.78,0.36-1.72-0.03-2.46C179.52,176.43,177.5,179.24,176.88,179.95z"/>
		<path class="st6" d="M169.14,153.36c0.11-0.47,0.16-0.95,0.24-1.42c-0.51-1.69-1.28-3.3-2.12-4.86c-1.3-2.42-2.71-4.79-4.22-7.09
			c-2.66-4.08-5.61-7.97-8.83-11.63c-0.62-0.7-2.64-3.51-3.62-1.65c-0.39,0.75-0.19,1.69-0.03,2.46c0.22,1.08,0.56,2.14,0.97,3.17
			c1.74,4.31,4.81,8.01,7.76,11.54c3.01,3.59,6.23,7.01,9.62,10.25C169,153.88,169.08,153.63,169.14,153.36z"/>
		<path class="st8" d="M210,9.53c-2.73-1.69-5.78-2.9-8.94-3.41c-0.12,0.44-0.19,0.88-0.2,1.3c-0.08,1.98,0.44,4.09,1.49,5.78
			c1.07,1.72,2.82,2.75,4.78,3.13c2.96,0.58,6.16-0.39,7.96-2.75C213.62,11.96,211.77,10.62,210,9.53z"/>
	</g>
	<path class="st5" d="M242.67,82.03c-0.12-3.07-1.62-5.88-4.75-6.74c-3.31-0.9-7.08,0.22-10.16,1.44
		c-6.61,2.64-12.03,7.53-16.76,12.73c-2.51,2.76-4.87,5.66-7.23,8.56c-2.71,3.33-5.42,6.67-8.1,10.02
		c-5.33,6.65-10.58,13.36-15.59,20.25c-3.4,4.67-6.7,9.43-9.83,14.29c-1.23-1.89-2.76-3.57-4.66-4.86c-0.14-0.1-0.27,0.13-0.13,0.23
		c1.93,1.3,3.43,2.97,4.64,4.86c-1.46,2.27-2.89,4.56-4.28,6.88c-1.07,1.79-2.11,3.59-3.13,5.41c-0.08,0.15,0.15,0.28,0.23,0.13
		c2.31-4.13,4.77-8.19,7.33-12.17c2.24,3.6,3.43,7.95,4.38,12c1.9,8.09-3.16,18.98-2.54,27.27c0.35,4.71,6.82,6.77,6.76,11.49
		c0,0.14,0.18,0.17,0.25,0.07c5.15-7.6,10.26-15.21,15.35-22.85c5.08-7.64,10.14-15.3,15.16-22.98c4.85-7.42,9.72-14.83,14.43-22.34
		c4.43-7.06,8.65-14.27,12.11-21.86c1.67-3.67,3.16-7.43,4.39-11.27C241.61,89.22,242.81,85.61,242.67,82.03z"/>
	<path class="st9" d="M280.56,145.54c-0.71-2.09-2.21-3.99-4.2-4.99c-2.19-1.1-4.56-0.74-6.65,0.44c-1.32,0.74-2.54,1.67-3.68,2.7
		c-0.05,0.04-0.1,0.09-0.15,0.13c0.22-0.5,0.45-1.01,0.67-1.51c0.59-1.32,1.16-2.64,1.73-3.96c0.04-0.1,0.09-0.2,0.13-0.3
		c1.49-3.48,2.92-6.98,4.24-10.53c1.08-2.89,2.05-5.86,2.78-8.88c0.02-0.1,0.05-0.19,0.07-0.29c0.99-4.21,1.49-8.52,1.1-12.85
		c-0.24-2.68-1.07-5.31-3.55-6.51c-0.07-0.03-0.15-0.07-0.23-0.1c-0.14-0.06-0.28-0.11-0.42-0.16c-2.83-0.98-6.16-0.34-8.92,0.59
		c-2.42,0.81-4.67,2-6.77,3.41c-0.08,0.05-0.15,0.1-0.23,0.15c-3.24,2.2-6.15,4.93-8.91,7.65c-2.89,2.85-5.71,5.77-8.45,8.76
		c-0.07,0.07-0.13,0.15-0.2,0.23c-2.02,2.21-3.99,4.46-5.93,6.75c-2.61,3.09-6.63,8.5-11.17,14.89c-0.07,0.09-0.13,0.18-0.2,0.27
		c-4.6,6.49-9.73,13.96-14.47,21.03c-0.06,0.1-0.13,0.2-0.2,0.29c-3.8,5.68-7.34,11.08-10.14,15.51c-0.13,3.07-0.12,6.14-0.06,9.21
		c0.12,5.96,0.39,11.92,0.69,17.86c0.13,2.53-0.1,6.26-0.53,10.69c-0.02,0.22-0.04,0.43-0.06,0.65c-1.68,16.78-6.08,42.94-5.2,52.35
		c0.57,6.07,9.64-15.36,10.31-9.3c0.31,2.75,0.56,5.52,1.03,8.25c0.24,1.38,0.54,2.74,0.96,4.08c0.36,1.12,0.77,2.37,1.45,3.34
		c1.46,2.11,3.83-0.49,5.05-1.54c2.02-1.74,3.98-3.56,5.88-5.44c3.85-3.82,7.45-7.9,10.87-12.11c3.51-4.32,6.83-8.78,10.07-13.31
		c0.83,0.56,1.67,1.12,2.5,1.68c-1.37,2.4-2.78,4.77-4.24,7.12c-0.77,1.23-1.51,2.5-2.36,3.67c-0.09,0.13,0.12,0.25,0.21,0.12
		c1.8-2.47,3.34-5.21,4.89-7.84c0.58-0.97,1.14-1.95,1.7-2.93c0.89,0.6,1.78,1.2,2.67,1.8c0.13,0.09,0.26-0.13,0.12-0.22
		c-0.89-0.6-1.78-1.2-2.68-1.8c0.89-1.57,1.77-3.15,2.63-4.73c2.91-5.39,5.64-10.87,8.26-16.41c5.38-11.36,10.39-22.9,15.5-34.38
		c2.67-5.99,5.34-11.98,8-17.98c1.73-3.88,3.47-7.81,4.79-11.87c0.03-0.09,0.06-0.19,0.09-0.29c0.52-1.63,0.97-3.29,1.31-4.97
		C281.24,151.21,281.48,148.25,280.56,145.54z M192.38,185.45c1.07-1.85,2.59-4.31,4.41-7.19c0.1-2.45,0.28-4.91,0.59-7.35
		C197.73,168.25,192.15,185.16,192.38,185.45z"/>
	<path class="st10" d="M266.03,143.68c-2.21,3.62-4.51,7.19-6.77,10.76c-4.56,7.22-9.2,14.38-13.91,21.49
		c-4.72,7.11-9.51,14.17-14.39,21.18c-4.9,7.04-9.87,14.02-14.93,20.95c-0.09,0.13-0.31,0-0.21-0.12c0.61-0.84,1.23-1.69,1.84-2.53
		c5.01-6.91,9.95-13.87,14.8-20.89c4.86-7.02,9.64-14.09,14.33-21.22c4.7-7.13,9.32-14.3,13.86-21.53c1.97-3.14,3.97-6.28,5.9-9.46
		C266.33,142.81,265.98,143.72,266.03,143.68z"/>
	<path class="st10" d="M252.48,165.01c0.04-0.09,0.08-0.17,0.12-0.26c-5.55,0.84-11.18,1.51-16.78,1.55c-1.6,0.01-3.3,0.07-4.89-0.2
		c-0.56-0.1-1.05-0.29-1.45-0.62c4.24-6.02,8.51-12.02,12.74-18.05c0.91-1.3,1.82-2.6,2.73-3.91c0.05,0.17,0.1,0.34,0.15,0.52
		c0.02,0.07,0.08,0.1,0.15,0.08c7.76-1.57,15.45-3.49,23.03-5.77c0.04-0.1,0.09-0.2,0.13-0.3c-4.18,1.26-8.39,2.41-12.62,3.46
		c-3.48,0.86-6.97,1.64-10.49,2.35c-0.06-0.2-0.11-0.4-0.17-0.6c4.51-6.48,8.96-13.01,13.25-19.65c0.44-0.67,0.87-1.35,1.3-2.02
		c0.1,0.12,0.2,0.23,0.33,0.33c1.26,0.94,3.4,0.19,4.76-0.1c2-0.43,3.98-0.95,5.93-1.55c1.59-0.49,3.16-1.04,4.72-1.62
		c0.02-0.1,0.05-0.19,0.07-0.29c-0.86,0.33-1.72,0.64-2.58,0.93c-1.83,0.62-3.68,1.19-5.54,1.67c-0.95,0.24-1.91,0.47-2.88,0.67
		c-0.93,0.19-1.91,0.45-2.87,0.47c-0.77,0.01-1.37-0.24-1.77-0.76c4.65-7.29,9.09-14.7,13.19-22.31c0,0,0.01-0.01,0.01-0.02
		c-0.07-0.03-0.15-0.07-0.23-0.1c-3.97,7.37-8.25,14.56-12.74,21.62c-0.12,0.2-0.25,0.39-0.38,0.59c-0.1-0.18-0.19-0.38-0.25-0.61
		c-0.24-0.94-0.33-1.93-0.47-2.89c-0.32-2.08-0.64-4.16-0.96-6.24c-0.44-2.88-0.88-5.76-1.32-8.63c-0.08,0.05-0.15,0.1-0.23,0.15
		c0.39,2.52,0.77,5.05,1.16,7.57c0.34,2.2,0.68,4.41,1.02,6.61c0.16,1.05,0.29,2.1,0.49,3.14c0.08,0.4,0.19,0.81,0.4,1.16
		c-4.66,7.3-9.53,14.47-14.48,21.58c-2.19-7.56-4.12-15.2-5.78-22.89c-0.05-0.26-0.11-0.52-0.16-0.77c-0.07,0.07-0.13,0.15-0.2,0.23
		c1.27,5.96,2.71,11.89,4.3,17.77c0.54,1.98,1.1,3.96,1.67,5.93c-0.28,0.4-0.56,0.8-0.83,1.2c-4.88,6.99-9.83,13.93-14.74,20.9
		c-0.13-0.13-0.25-0.27-0.36-0.44c-0.39-0.61-0.61-1.33-0.85-2.01c-1.08-2.98-2.07-5.98-2.98-9.01c-1.26-4.19-2.36-8.43-3.3-12.7
		c-0.07,0.09-0.13,0.18-0.2,0.27c0.79,3.58,1.7,7.14,2.72,10.67c0.92,3.19,1.94,6.36,3.04,9.49c0.43,1.21,0.75,2.69,1.57,3.71
		c0.07,0.08,0.14,0.15,0.21,0.23c-0.55,0.78-1.11,1.57-1.66,2.35c-5.15,7.34-10.23,14.72-15.11,22.24
		c-1.62-8.55-3.23-17.09-4.85-25.64c-0.13-0.67-0.25-1.35-0.38-2.02c-0.06,0.1-0.13,0.2-0.2,0.29c1.55,8.18,3.09,16.36,4.64,24.53
		c0.2,1.05,0.4,2.09,0.59,3.14c-0.28,0.43-0.56,0.86-0.83,1.29c-5.1,7.92-9.97,16-14.43,24.31c-0.05,0.1-0.11,0.2-0.16,0.31
		c-0.55,1.04-1.1,2.08-1.64,3.12c-0.07,0.14,0.14,0.27,0.21,0.13c0.5-0.97,1.01-1.93,1.53-2.9c3.98-7.46,8.3-14.73,12.82-21.87
		c0.85-1.35,1.72-2.69,2.58-4.03c0.35,1.85,0.7,3.7,1.05,5.56c0.03,0.16,0.27,0.09,0.24-0.07c-0.37-1.93-0.73-3.86-1.1-5.79
		c4.29-6.61,8.73-13.12,13.24-19.58c1.21-1.74,2.43-3.47,3.65-5.21c0.78,0.62,1.83,0.71,2.82,0.77c6.61,0.39,13.28-0.44,19.81-1.37
		C252.13,165.06,252.3,165.04,252.48,165.01z"/>
	<path class="st5" d="M234.69,182.58c-1.02-1.75-3.56-3.19-5.51-3.43c-4.29-0.52-8.12,1.53-11.86,3.55
		c-4.02,2.17-7.54,5.2-10.72,8.45c-7,7.14-13.08,15.29-18.73,23.51c-5.88,8.55-11.25,17.45-16.36,26.48
		c-5.16,9.11-10.08,18.34-15,27.58c-0.95,1.79-1.9,3.58-2.84,5.38c2.31,1.83,4.63,3.65,6.97,5.46c4.57,3.52,9.2,6.98,13.89,10.34
		c0.89-1.29,1.79-2.58,2.68-3.88c6.23-9.06,12.33-18.2,18.32-27.42c5.96-9.18,11.8-18.43,17.51-27.76
		c5.74-9.37,11.37-18.82,16.87-28.34c2.47-4.27,5.15-8.73,5.7-13.73C235.83,186.72,235.76,184.42,234.69,182.58z"/>
	<path class="st10" d="M233.77,118.59c-1.51-0.99-3.65-0.58-5.23,0c-2.02,0.74-3.79,2.01-5.5,3.28c-3.4,2.53-6.56,5.38-9.51,8.42
		c-5.92,6.1-11.02,12.94-15.98,19.83c-0.07-1.07-0.14-2.15-0.23-3.22c-0.01-0.16-0.26-0.15-0.25,0.01c0.09,1.18,0.17,2.35,0.25,3.53
		c-0.61,0.84-1.22,1.69-1.82,2.54c-0.09,0.13,0.13,0.25,0.22,0.12c0.54-0.76,1.08-1.51,1.63-2.27c0.51,8.15,0.66,16.33,0.45,24.49
		c-1.06,1.54-2.11,3.09-3.13,4.65c-0.58,0.89-1.16,1.79-1.72,2.69c-0.09,0.14,0.13,0.25,0.22,0.12c1.49-2.37,3.04-4.7,4.63-7
		c-0.04,1.59-0.1,3.19-0.17,4.78c-0.14,3.19-0.35,6.38-0.6,9.57c-0.01,0.16,0.24,0.15,0.25-0.01c0.39-4.9,0.65-9.8,0.78-14.71
		c3.42-4.95,7.02-9.78,10.66-14.57c5.35-7.04,10.77-14.03,15.8-21.3c2.53-3.65,4.95-7.37,7.21-11.2c1.04-1.77,2.27-3.58,2.95-5.52
		C235.17,121.35,235.23,119.54,233.77,118.59z"/>
	<path class="st6" d="M278.39,210.11c-0.04-3.14-1.2-5.85-3.37-6.88c-2.17-1.02-4.75-0.43-7.04,0.58c-2.54,1.12-5,2.92-7.34,4.77
		c-9.88,7.82-18.01,19.22-25.65,30.68c0.45-1.47,0.74-2.99,0.7-4.5c-0.04-1.27-0.35-2.42-0.89-3.39c-0.07-0.13-0.25,0.03-0.18,0.17
		c1.35,2.4,0.88,5.57-0.08,8.39c0,0-0.01,0.01-0.01,0.01c-0.95,1.43-1.9,2.86-2.84,4.3c-0.09,0.14,0.05,0.31,0.15,0.17
		c0.8-1.21,1.59-2.42,2.39-3.62c-1.28,3.35-3.14,6.25-4.7,9.38c-3.33,6.65-16.02,32.16-14.23,39.51c0.8,3.29,12.42-11.47,14.06-8.92
		c0.77,1.2,1.54,2.54,2.47,3.53c0.92,0.97,1.85,0.45,2.69-0.71c2.49-3.45,4.84-7.11,7.25-10.66c2.39-3.52,4.79-7.04,7.18-10.57
		c4.89-7.19,9.77-14.38,14.66-21.56c2.3-3.38,4.63-6.73,6.88-10.17c2.07-3.16,4.07-6.48,5.58-10.15
		C277.37,217.27,278.44,213.63,278.39,210.11z"/>
	<path class="st9" d="M247.91,234.41c-3.35,7.81-7.97,21.41-31.87,52.29c0.64-0.6,4.71-4.82,10.24-9.78
		c0.08-0.07,0.16-0.14,0.24-0.22c4-3.58,8.75-7.51,13.5-10.73c0.08-0.05,0.15-0.1,0.23-0.15c4.2-2.83,8.41-5.09,12.11-6.04
		c0.08-0.02,0.16-0.04,0.25-0.06c2.5-0.61,4.77-0.6,6.63,0.25c0.08,0.03,0.16,0.07,0.23,0.11c0.04,0.02,0.09,0.04,0.13,0.07
		c2.59,1.38,2.67,4.73,1.4,8.88c-0.02,0.08-0.05,0.17-0.08,0.25c-1.25,3.94-3.68,8.56-6.32,12.87c-0.05,0.08-0.1,0.16-0.15,0.24
		c-3.24,5.27-6.76,10.04-8.77,12.49c-1.27,1.55-2.58,3.08-3.93,4.58c-0.06,0.07-0.12,0.14-0.19,0.21
		c-3.22,3.59-6.64,6.99-10.27,10.16c-0.07,0.06-0.14,0.13-0.21,0.19c-1.19,1.04-2.41,2.05-3.64,3.04
		c-3.57,2.84-7.32,5.45-11.24,7.77c-0.08,0.05-0.16,0.1-0.25,0.14c-3.27,1.92-6.67,3.65-10.17,5.14c-1.87,0.8-3.78,1.62-5.74,2.17
		c-1.71,0.48-3.81,0.71-5.2-0.64c-1.09-1.07-1.31-2.65-1.38-4.17c0-0.1-0.01-0.19-0.01-0.29c-0.02-0.39-0.02-0.77-0.04-1.13
		c-0.09-2.44-0.12-4.88-0.11-7.32c0-4.09,0.1-8.18,0.18-12.27c0.1-5.68,0.17-11.36-0.12-17.04c-0.24-4.6-0.73-9.2-1.64-13.71
		c-1.58,3.04-3.14,6.08-4.69,9.14c-0.08,0.15-0.31,0.02-0.23-0.13c0.86-1.7,1.73-3.39,2.6-5.09c0.74-1.44,1.49-2.88,2.24-4.32
		c-1-4.84-2.49-9.56-4.67-14.05c-0.07-0.15,0.15-0.29,0.23-0.13c0.97,2,1.82,4.05,2.55,6.15c0.87,2.5,0.76,2.78,1.3,5.36
		c6.48-12.48,11.85-23.12,19.59-34.86c9.63-14.61,11.45-19.09,21.08-32.37c3.63-5,13.94-14.9,23.31-15.48
		c2.36-0.15,9.59,1.98,7.69,10.54C258.71,214.51,253.88,220.47,247.91,234.41z"/>
	<path class="st10" d="M216.64,221.74c-1.74-1.39-4.15-1.21-6.1-0.4c-2.32,0.97-4.44,2.62-6.36,4.23c-3.04,2.57-5.68,5.61-7.8,8.97
		c0.05-1.37,0.11-2.74,0.17-4.12c0.01-0.16-0.24-0.16-0.25,0c-0.07,1.51-0.12,3.02-0.18,4.53c-0.77,1.25-1.47,2.54-2.09,3.87
		c-0.07,0.14,0.15,0.27,0.21,0.13c0.56-1.19,1.18-2.36,1.86-3.49c-0.27,7.14-0.45,14.28-0.55,21.43c-0.03,2.53-0.05,5.06-0.06,7.58
		c0,0.13,0.16,0.16,0.23,0.06c3.72-5.06,7.44-10.11,11.17-15.17c3.31-4.49,6.98-8.92,9.41-13.98c1.08-2.26,1.88-4.68,2.1-7.19
		C218.59,226.04,218.51,223.24,216.64,221.74z"/>
	<path class="st9" d="M224.26,72.7c0.01,0.09,0.01,0.17,0.02,0.26c0.08,1.61-0.09,3.22-0.4,4.82c-0.62,3.25-1.74,6.38-2.96,9.44
		c-0.07,0.17-0.13,0.33-0.2,0.5c-0.04,0.09-0.07,0.18-0.11,0.27c-1.98,4.9-4.1,9.74-6.35,14.52c-0.04,0.08-0.08,0.17-0.12,0.25
		c-3.21,6.8-6.68,13.47-10.38,20c-4.92,8.69-10.26,17.13-16.01,25.3c0.12,0.25,0.22,0.51,0.32,0.77c0.11,0.3,0.21,0.6,0.29,0.91
		c0.05,0.17,0.18,1.06,0.55,0.8c-0.14,0.1-0.29-0.12-0.15-0.22c0.47-0.34,0.64,0.93-0.1,0.62c-0.52-0.22-0.57-1.21-0.72-1.66
		c-0.11-0.33-0.24-0.65-0.37-0.96c-1.7,2.42-3.44,4.81-5.21,7.17c-0.1,0.14-0.31-0.04-0.2-0.17c0.96-1.27,1.9-2.55,2.83-3.83
		c0.83-1.14,1.65-2.29,2.46-3.44c-0.18-0.38-0.37-0.75-0.59-1.11c-1.57-2.66-3.97-4.72-6.41-6.57c-2.59-1.97-5.29-3.77-7.77-5.88
		c-2.84-2.41-5.47-5.06-8.04-7.76c-0.13-0.13-0.25-0.27-0.38-0.4c-1.39,2.14-2.79,4.28-4.18,6.42c-0.09,0.14-0.33,0.03-0.24-0.11
		c0.96-1.47,1.92-2.94,2.88-4.42c0.45-0.69,0.91-1.39,1.36-2.08c-1.03-1.08-2.06-2.16-3.05-3.27c-1.16-1.29-2.21-2.69-2.67-4.39
		c-0.04-0.16,0.21-0.25,0.25-0.09c0.49,1.82,1.67,3.28,2.92,4.64c0.89,0.97,1.79,1.93,2.7,2.89c7.25-11.15,14.42-22.37,21.86-33.39
		c0.93-1.38,1.87-2.75,2.83-4.11c0.06-0.08,0.11-0.16,0.17-0.23c2.9-4.09,5.95-8.07,9.34-11.77c0.68-0.74,1.38-1.48,2.1-2.2
		c0.07-0.07,0.14-0.14,0.21-0.2c3.18-3.16,6.71-6,10.72-8c0.08-0.04,0.16-0.08,0.23-0.12c0.35-0.17,0.7-0.34,1.06-0.49
		c2.49-1.1,5.45-1.78,7.89-0.2c0.13,0.08,0.25,0.17,0.37,0.26c0.07,0.05,0.13,0.1,0.19,0.15c1.44,1.19,2.29,3,2.71,4.79
		C224.09,71.14,224.2,71.92,224.26,72.7z"/>
	<path class="st10" d="M253.25,268.84c0.23,0.15,0.53,0.21,0.89,0.22c2.26,0.11,4.53,0.14,6.79,0.2c0.02-0.08,0.05-0.17,0.08-0.25
		l-5.5-0.16c-0.48-0.01-0.97-0.01-1.45-0.04c-0.27-0.02-0.47-0.04-0.64-0.18c2.16-2.75,4.19-5.6,6.06-8.56
		c-0.08-0.04-0.15-0.07-0.23-0.11c-1.85,2.92-3.86,5.74-6,8.46c-0.2-0.31-0.18-0.64-0.2-1.01c-0.06-1.03-0.12-2.05-0.18-3.08
		c-0.09-1.54-0.17-3.08-0.26-4.62c-0.08,0.02-0.16,0.04-0.25,0.06c0.09,1.64,0.19,3.29,0.28,4.93c0.06,1.12,0.03,2.31,0.2,3.42
		c0.04,0.23,0.11,0.4,0.22,0.54c-3.54,4.5-7.41,8.76-11.47,12.81c-0.02-0.05-0.03-0.11-0.04-0.18c-0.05-0.4-0.03-0.82-0.04-1.22
		c-0.11-2.73-0.29-5.45-0.55-8.17c-0.19-2.03-0.43-4.05-0.7-6.08c-0.08,0.05-0.15,0.1-0.23,0.15c0.71,5.23,1.14,10.5,1.29,15.77
		c-0.9,0.9-1.82,1.79-2.74,2.67c-3.54,3.39-7.2,6.67-10.91,9.88c-0.18-0.29-0.3-0.62-0.35-1.03c-0.1-0.79-0.12-1.59-0.17-2.38
		c-0.1-1.55-0.2-3.1-0.28-4.66c-0.16-3.17-0.28-6.34-0.35-9.51c-0.08,0.07-0.16,0.15-0.24,0.22c0.06,2.85,0.16,5.71,0.3,8.56
		c0.08,1.72,0.18,3.44,0.3,5.15c0.05,0.73,0.09,1.47,0.15,2.21c0.05,0.57,0.1,1.16,0.41,1.65c-1.48,1.28-2.97,2.56-4.46,3.83
		c-2.2,1.87-4.42,3.74-6.63,5.61c-0.05-0.03-0.1-0.05-0.14-0.09c-0.24-0.2-0.2-0.44-0.23-0.72c-0.1-1.06-0.19-2.12-0.28-3.18
		c-0.32-4.2-0.45-8.41-0.41-12.63c-0.08,0.07-0.17,0.14-0.25,0.21c-0.05,5.45,0.21,10.9,0.76,16.32c0.01,0.04,0.02,0.09,0.06,0.11
		c0.1,0.04,0.2,0.09,0.3,0.13c-3.78,3.19-7.57,6.38-11.36,9.58c-0.05,0.05-0.11,0.09-0.16,0.14c-0.12-0.22-0.22-0.46-0.31-0.7
		c-0.63-1.75-0.53-3.7-0.54-5.53l-0.09-11.39c-0.08,0.06-0.16,0.11-0.25,0.17c0.02,2.91,0.04,5.82,0.07,8.73
		c0.01,1.98-0.08,4,0.12,5.97c0.11,1.02,0.34,2.02,0.81,2.91c-3.64,3.08-7.25,6.22-10.99,9.2c0,0.09,0.01,0.19,0.01,0.29
		c3.15-2.51,6.21-5.14,9.28-7.73c0.61-0.51,1.21-1.02,1.82-1.53c0.23,0.4,0.51,0.78,0.85,1.13c1.25,1.27,2.94,2.01,4.51,2.78
		c1.88,0.93,3.77,1.83,5.68,2.71c0.11,0.05,0.23,0.1,0.34,0.15c0.08-0.05,0.17-0.1,0.25-0.14c-2.75-1.23-5.48-2.51-8.12-3.93
		c-1.33-0.72-2.56-1.58-3.32-2.86c3.88-3.27,7.77-6.55,11.65-9.83c4.84,2.08,9.73,4.02,14.68,5.81c0.07-0.06,0.14-0.12,0.21-0.19
		c-2.62-0.94-5.22-1.93-7.81-2.96c-1.85-0.74-3.69-1.49-5.52-2.27c-0.37-0.16-0.74-0.31-1.11-0.47c-0.07-0.03-0.16-0.06-0.26-0.09
		c1.59-1.34,3.17-2.68,4.76-4.02c2.08-1.76,4.16-3.53,6.22-5.32c0.76,0.88,2.26,1.16,3.31,1.53c1.54,0.54,3.08,1.07,4.64,1.57
		c2,0.65,4.02,1.27,6.04,1.86c0.06-0.07,0.13-0.14,0.19-0.21c-1.45-0.42-2.9-0.86-4.34-1.31c-1.44-0.45-2.88-0.92-4.31-1.41
		c-1.44-0.49-2.94-0.94-4.34-1.54c-0.41-0.18-0.72-0.4-0.96-0.68c3.11-2.7,6.19-5.44,9.2-8.26c1.52-1.42,3.01-2.87,4.49-4.33
		c4.31,0.27,8.63,0.43,12.95,0.47c0.05-0.08,0.1-0.16,0.15-0.24c-2.1-0.02-4.2-0.07-6.29-0.14c-1.39-0.05-2.78-0.11-4.17-0.18
		c-0.65-0.03-1.31-0.07-1.96-0.11c-0.19-0.01-0.33-0.01-0.42-0.04c3.38-3.37,6.63-6.87,9.67-10.54
		C252.05,270.36,252.65,269.61,253.25,268.84z"/>
	<g>
		<path class="st6" d="M241.91,238.75c-0.3-0.37-0.59-0.75-0.87-1.13c-0.55,0.32-1.09,0.64-1.62,0.99
			c-8.49,5.48-14.08,13.59-19.32,21.62c-5.86,8.98-11.59,18.04-17.24,27.15c-3.92,6.31-7.73,12.17-12.8,22.38
			c0.74,0.41-1.96,7.53-1.3,8.04c4.08-8.08,13.37-24.5,17.86-31.69c5.59-8.96,11.21-17.92,17.06-26.72
			c5.02-7.54,10.62-14.96,18.8-19.91C242.29,239.22,242.1,238.98,241.91,238.75z"/>
		<path class="st7" d="M246.7,239.54c0.18-1.71-0.14-3.73-1.11-5.19c-1.27-1.9-6.57-4.65-10.44-2.38c-1.3,0.76-2.61,2.05-3.39,3.45
			c-0.22,0.4-0.4,0.8-0.52,1.21c-0.57,1.9-0.6,4.07-0.01,5.97c0.6,1.93,2.04,3.37,3.85,4.23c2.72,1.3,6.06,1.16,8.4-0.67
			c0.44-0.34,0.84-0.74,1.2-1.2C245.86,243.41,246.51,241.45,246.7,239.54z"/>
		<path class="st6" d="M206.25,261.91c-1.04,3.96-1.8,7.99-2.26,12.06c-0.26,2.3-0.43,4.6-0.5,6.91c-0.06,2.07,0.06,4.42,0.68,6.4
			c0.24-0.06,0.78-1.27,1.18-1.93c1.34-3.73,2-6,2.92-9.86c0.89-3.76,1.8-7.7,1.49-11.59c-0.07-0.93-0.22-1.85-0.46-2.75
			c-0.17-0.64-0.37-1.43-0.95-1.84C206.91,258.27,206.45,261.15,206.25,261.91z"/>
		<path class="st8" d="M239.56,240.95c-2.22-2.32-4.87-4.26-7.8-5.54c-0.22,0.4-0.4,0.8-0.52,1.21c-0.57,1.9-0.6,4.07-0.01,5.97
			c0.6,1.93,2.04,3.37,3.85,4.23c2.72,1.3,6.06,1.16,8.4-0.67C242.46,244.21,241,242.45,239.56,240.95z"/>
	</g>
	<path class="st1" d="M202.07,125.55c-0.1-1.24,0.09-1.67-1.01-2.24c-1.9-0.99-56.1-30.45-56.1-30.45s11.75,21.47,4.43,18.32
		c-1.69-0.73-3.36-1.46-5.04-2.2c-0.05-0.06-0.21,0.01-0.21,0.11c-1.05,28.18-2.09,56.36-3.14,84.54
		c-0.99,26.72,4.11,75.25,3.12,101.96c-0.01,0.03,41.75,52.87,41.75,52.87s8.77-1.28,8.77-1.28c0.06,0.03,0.19-0.05,0.2-0.13
		C195.6,330.86,202.22,127.42,202.07,125.55z"/>
	<path class="st4" d="M192.72,127.02c-0.11-1.65,0.16-2.25-1.11-3.33c-0.59-0.51-4.2-2.5-9.41-5.28
		c-17.28-9.24-52.24-27.19-53.65-28.48c-0.05-0.1-1.97,53.75-3.11,89.82c-0.11,3.34-0.23,7.34-0.37,11.84
		c-1.28,41.57-3.72,125.75-3.68,125.77c5.32,3.06,12.35,6.92,20.63,11.33c9.65,5.14,21.01,11.03,33.36,17.26
		c3.49,1.76,7.07,3.56,10.7,5.37c0,0,0,0,0,0c0.06,0.07,0.21,0.02,0.21-0.09c0.11-2.78,0.31-8.84,0.58-17.25
		c1.37-43.67,4.44-150.73,5.49-191.17C192.62,133.26,192.75,127.43,192.72,127.02z"/>
	<polygon class="st11" points="176.92,158.96 132.49,141.1 132.71,126.14 177.14,144 	"/>
	<path class="st11" d="M180.05,162.86c-0.18,1.55-0.38,3.1-0.62,4.65c-1.01,6.68-2.5,13.27-4.04,19.84
		c-1.59,6.76-3.19,13.51-4.79,20.27c-3.2,13.57-6.41,27.14-9.61,40.71c-3.22,13.63-6.44,27.27-9.66,40.91
		c-3.1,13.15-6.21,26.3-9.31,39.44c-8.28-4.41-15.31-8.27-20.63-11.33c-0.03-0.02,2.4-84.21,3.68-125.77
		c1.41-0.5,2.84-0.92,4.28-1.34c3.15-0.92,6.23-1.96,9.22-3.32c2.92-1.33,5.73-2.89,8.45-4.61c5.47-3.45,10.52-7.5,15.4-11.72
		c2.59-2.24,8.78-6.05,11.74-7.89c0.3,0.15,1.12,0.88,2.94,0.47c0.3,0.06,0.62,0.08,0.96,0.03c0.57-0.08,1.11-0.18,1.65-0.37
		c0.07-0.03,0.14-0.06,0.21-0.09c0.01,0,0.02,0.01,0.03,0.01C180,162.76,180.05,162.81,180.05,162.86z"/>
	<g>
		<path class="st3" d="M179.98,162.92c-0.03,0.05-0.06,0.1-0.09,0.15c0.01,0.02,0.01,0.04,0,0.07c-0.51,1.52-1.02,3.04-1.53,4.56
			c-2.06,6.13-4.13,12.26-6.23,18.38c-0.37,1.08-0.74,2.16-1.11,3.24c-1.77,5.17-3.56,10.34-5.36,15.51
			c-0.87,2.49-1.74,4.99-2.62,7.48c-0.38,1.08-0.76,2.16-1.14,3.24c-2.76,7.84-5.55,15.67-8.37,23.49c-0.33,0.92-0.66,1.84-1,2.77
			c-0.06,0.15-0.11,0.31-0.17,0.47c-2.85,7.87-5.72,15.74-8.63,23.59c-0.4,1.08-0.8,2.15-1.2,3.23c-1.18,3.18-2.37,6.36-3.56,9.53
			c-1.68,4.48-3.37,8.96-5.06,13.44c-0.41,1.08-0.82,2.15-1.23,3.23c-2.54,6.67-5.1,13.33-7.68,19.99c-0.45,1.16-0.9,2.32-1.35,3.48
			c-0.42,1.08-0.84,2.16-1.26,3.23c-3.85,9.87-7.75,19.73-11.7,29.57c-0.09,0-0.17-0.01-0.26-0.01h0l-5.54-0.05
			c-0.04,0-0.08-0.02-0.1-0.05c-0.03-0.02-0.05-0.06-0.03-0.12c0.6-1.49,1.19-2.98,1.79-4.47c3.33-8.34,6.63-16.69,9.89-25.06
			c0.42-1.08,0.84-2.15,1.26-3.23c1.07-2.74,2.13-5.49,3.19-8.23c1.96-5.07,3.91-10.16,5.84-15.24c0.41-1.08,0.82-2.16,1.23-3.23
			c2.3-6.06,4.59-12.13,6.85-18.21c0.59-1.59,1.19-3.18,1.78-4.77c0.4-1.08,0.8-2.15,1.2-3.23c2.9-7.85,5.78-15.71,8.62-23.58
			c0.39-1.08,0.78-2.16,1.17-3.24c0.24-0.67,0.49-1.35,0.73-2.03c2.57-7.15,5.12-14.3,7.64-21.47c0.38-1.08,0.76-2.15,1.14-3.23
			c1.44-4.1,2.87-8.19,4.29-12.3c1.24-3.56,2.47-7.13,3.69-10.7c0.37-1.08,0.74-2.16,1.11-3.24c2.64-7.73,5.26-15.46,7.84-23.21
			c0.01-0.03,0.03-0.05,0.05-0.06c0.02-0.03,0.05-0.05,0.09-0.05c1,0,1.99,0.06,2.99,0.1c0.89,0.03,1.85-0.1,2.72,0.04
			C179.99,162.76,180.02,162.86,179.98,162.92z"/>
		<path class="st3" d="M136.41,158.69c-0.03,0.05-0.06,0.1-0.09,0.15c0,0.02,0.01,0.04,0,0.07c-0.51,1.52-1.02,3.04-1.53,4.56
			c-2.37,7.05-4.76,14.09-7.17,21.13c-0.37,1.08-0.73,2.15-1.11,3.23c-1.46,4.26-2.94,8.52-4.42,12.77
			c-1.19,3.42-2.39,6.84-3.59,10.25c-0.38,1.07-0.76,2.15-1.14,3.22c-2.77,7.84-5.57,15.68-8.4,23.5c0,0.01,0,0.02-0.01,0.02h0
			c-0.39,1.08-0.78,2.15-1.17,3.23c-2.84,7.85-5.72,15.68-8.62,23.51c-0.4,1.07-0.8,2.15-1.2,3.22c-0.85,2.28-1.7,4.56-2.55,6.84
			c-2.02,5.39-4.05,10.78-6.1,16.16c-0.41,1.07-0.82,2.15-1.23,3.22c-2.2,5.77-4.41,11.53-6.65,17.28c-0.8,2.08-1.61,4.15-2.42,6.22
			c-0.42,1.07-0.84,2.15-1.26,3.22c-3.51,8.96-7.05,17.91-10.63,26.84c-0.09,0-0.17,0-0.26,0h0l-5.54-0.05
			c-0.04,0-0.08-0.02-0.1-0.05c-0.03-0.02-0.05-0.06-0.03-0.12c0.6-1.49,1.19-2.98,1.79-4.47c2.98-7.45,5.92-14.91,8.85-22.38
			c0.42-1.07,0.84-2.14,1.25-3.21c1.42-3.64,2.83-7.28,4.24-10.93c1.62-4.19,3.23-8.38,4.83-12.58c0.41-1.07,0.82-2.15,1.22-3.22h0
			c2.64-6.95,5.27-13.91,7.87-20.88c0.26-0.71,0.53-1.42,0.79-2.13c0.4-1.07,0.8-2.15,1.2-3.22c2.9-7.82,5.77-15.65,8.62-23.49
			c0.39-1.08,0.78-2.15,1.17-3.23c0.57-1.59,1.15-3.18,1.72-4.77c2.25-6.24,4.48-12.5,6.69-18.75c0.38-1.08,0.76-2.15,1.14-3.23
			c1.76-5,3.51-10,5.25-15.01c0.93-2.67,1.85-5.34,2.77-8.01c0.37-1.07,0.74-2.15,1.11-3.22c2.96-8.62,5.88-17.26,8.77-25.9
			c0.01-0.03,0.03-0.05,0.05-0.06c0.02-0.03,0.05-0.05,0.09-0.05c1,0,1.99,0.06,2.99,0.1c0.89,0.03,1.85-0.1,2.72,0.04
			C136.41,158.52,136.44,158.63,136.41,158.69z"/>
		<g>
			<path class="st3" d="M123.66,318.78c-0.42,1.08-0.84,2.16-1.26,3.23c-1.98-0.06-3.96-0.12-5.94-0.18
				c-3.56-0.11-7.12-0.22-10.68-0.34c-9.35-0.3-18.69-0.63-28.02-0.99c-1.97-0.07-3.95-0.15-5.92-0.23
				c0.42-1.07,0.84-2.14,1.25-3.21c1.97,0.07,3.95,0.15,5.93,0.22c10.4,0.39,20.81,0.75,31.24,1.08c2.48,0.08,4.97,0.16,7.46,0.23
				C119.7,318.66,121.68,318.72,123.66,318.78z"/>
			<path class="st3" d="M133.93,292.08c-0.41,1.08-0.82,2.15-1.23,3.23c-1.98-0.06-3.96-0.12-5.94-0.18
				c-2.65-0.08-5.3-0.17-7.94-0.25c-10.25-0.33-20.49-0.7-30.72-1.09c-1.97-0.07-3.95-0.15-5.92-0.23c0.41-1.07,0.82-2.15,1.22-3.22
				h0c0.81,0.03,1.62,0.06,2.43,0.1c1.17,0.04,2.33,0.09,3.5,0.13c11.31,0.43,22.63,0.83,33.97,1.19c1.56,0.05,3.13,0.1,4.69,0.14
				C129.96,291.96,131.94,292.02,133.93,292.08z"/>
			<path class="st3" d="M143.74,265.87c-0.4,1.08-0.8,2.15-1.2,3.23c-1.98-0.06-3.96-0.12-5.94-0.18c-2-0.06-3.99-0.13-5.99-0.19
				c-10.9-0.35-21.78-0.74-32.65-1.17c-1.6-0.06-3.2-0.12-4.8-0.19c-0.37-0.01-0.74-0.03-1.12-0.04c0.4-1.07,0.8-2.15,1.2-3.22
				c1.46,0.06,2.92,0.12,4.38,0.17c0.51,0.02,1.03,0.04,1.54,0.06c11.96,0.46,23.93,0.88,35.93,1.26c0.9,0.03,1.81,0.06,2.71,0.08
				C139.78,265.75,141.76,265.81,143.74,265.87z"/>
		</g>
		<g>
			<path class="st3" d="M153.54,239.04c-0.33,0.92-0.66,1.84-1,2.77c-0.06,0.15-0.11,0.31-0.17,0.47c-1.98-0.05-3.96-0.11-5.94-0.17
				c-5.71-0.17-11.42-0.34-17.12-0.53c-7.18-0.23-14.36-0.48-21.52-0.75c-1.97-0.07-3.95-0.14-5.92-0.22
				c0.39-1.08,0.78-2.15,1.17-3.23c1.97,0.07,3.94,0.15,5.92,0.22h0c8.27,0.3,16.55,0.59,24.83,0.85c4.6,0.14,9.2,0.29,13.81,0.42
				C149.58,238.93,151.56,238.99,153.54,239.04z"/>
			<path class="st3" d="M163.05,212.32c-0.38,1.08-0.76,2.16-1.14,3.24c-1.98-0.05-3.96-0.11-5.94-0.18
				c-4.55-0.13-9.09-0.28-13.63-0.42c-8.33-0.27-16.66-0.56-24.98-0.88c-1.97-0.07-3.95-0.14-5.92-0.22
				c0.38-1.08,0.76-2.15,1.14-3.23c1.97,0.08,3.94,0.15,5.92,0.22c9.43,0.35,18.87,0.67,28.32,0.98c3.43,0.11,6.86,0.21,10.29,0.32
				C159.09,212.21,161.07,212.27,163.05,212.32z"/>
			<path class="st3" d="M172.14,186.09c-0.37,1.08-0.74,2.16-1.11,3.24c-1.98-0.06-3.95-0.12-5.93-0.18
				c-3.65-0.11-7.3-0.23-10.95-0.35c-9.22-0.3-18.43-0.62-27.63-0.97c-1.97-0.07-3.94-0.15-5.91-0.23c0.37-1.07,0.74-2.15,1.11-3.22
				c1.97,0.08,3.94,0.15,5.91,0.22c10.32,0.39,20.66,0.75,31.01,1.08c2.52,0.08,5.05,0.16,7.58,0.23
				C168.18,185.98,170.16,186.04,172.14,186.09z"/>
		</g>
	</g>
	<g>
		<path class="st12" d="M126.22,237.7c0.13,6.93,0.18,13.85,0.14,20.78c0,0.06,0.07,0.13,0.13,0.11l1.86-0.33
			c0.49-0.09,1.04-0.11,1.51-0.28c0.73-0.28,0.76-1.31,0.9-1.96c0.51-2.28,0.89-4.59,1.25-6.9c0.66-4.32,1.25-8.66,2.45-12.87
			C131.71,236.8,128.98,237.34,126.22,237.7z"/>
		<path class="st12" d="M186.57,74.1c-3.78,5.98-7.12,10.45-13.05,17.18c-1.65,1.87-3.4,4.38-4.43,6.65
			c-6.66-3.79-12.86-8.35-18.46-13.56c-0.33,2.75-1.34,5.55-2.21,7.94c-0.79,2.17-1.64,4.31-2.34,6.5
			c4.35,2.35,16.59,8.79,23.61,10.71c2.72,0.74,6.01-2.92,7.57-5.2c1.76-2.57,7.07-15.41,8.57-18.89c1.44-3.34,2.87-6.68,4.31-10.02
			C188.34,74.98,188.31,74.66,186.57,74.1z"/>
		<path class="st12" d="M140.17,69.01c-1.4-0.09-2.8-0.28-4.17-0.58c-0.2,0.04-0.41,0.06-0.63,0.05c-1.62-0.08-2.01-7.41-3.64-7.46
			c-1.52,6.66-3.95,20.65-4.82,27.43c-0.01,0.07,0.06,0.12,0.12,0.12c3.38,0.21,6.77,0.42,10.15,0.63c0.05,0,0.11-0.04,0.12-0.09
			c1.24-5.11,2.33-10.25,3.27-15.42c0.22-1.24,0.51-2.5,0.65-3.75C141.32,69.21,140.83,69.05,140.17,69.01z"/>
		<path class="st12" d="M148.96,71.15c-0.56,0.65-1.36,1.08-2.11,1.48c-0.87,0.45-1.77,0.84-2.68,1.19c-1.91,0.72-3.9,1.23-5.88,1.7
			c-0.96,0.23-1.97,0.51-2.98,0.67c-0.06-0.27-0.13-0.53-0.2-0.8c-0.08-0.92-0.19-1.84-0.35-2.76c-0.55-3.16-1.52-4.59-2.8-7.5
			c-1.1-2.5-2.22-5.01-3.66-7.34c-0.44-0.7-0.9-1.4-1.41-2.06c0.28-1.19,0.58-2.39,1-3.54c0.36-1.01,0.87-2.01,1.71-2.7
			c0.72-0.59,1.69-0.96,2.63-0.8c0.19,0.03,0.37,0.09,0.54,0.16c3.73-0.95,8.45-1.85,11.38,1.35c0.73,0.8,1.21,1.76,1.57,2.77
			c0.23,0.63,0.41,1.29,0.58,1.93c0.04,0.16,0.08,0.31,0.12,0.47c0.51,1.97,1.01,3.95,1.51,5.93c0.23,0.9,0.4,1.56,0.57,2.17
			c0.21,0.78,0.41,1.49,0.68,2.57c0.03,0.1,0.05,0.21,0.08,0.32C149.65,67.92,150.13,69.79,148.96,71.15z"/>
		<path class="st12" d="M149.9,60.25c-0.06-0.41-0.39-0.74-0.66-1.02c-0.39-0.4-0.8-0.76-1.24-1.1c-0.82-0.65-1.63-1.27-2.18-2.19
			c-0.12-0.2-0.22-0.4-0.31-0.61c-0.05,0.1-0.11,0.2-0.16,0.3c-0.05,0.1-0.12,0.16-0.19,0.21c-0.29,1.91-0.53,3.94,0.31,5.75
			c0.32,0.69,0.86,1.5,1.67,1.66c0.68,0.14,1.17-0.32,1.55-0.82c0.34-0.44,0.7-0.89,0.98-1.36
			C149.83,60.81,149.94,60.55,149.9,60.25z"/>
		<path class="st3" d="M140.98,263.1c-0.61-0.47-7.77-4.03-8.43-4.55c-0.84-0.67-0.83-1.68-0.87-2.66
			c-0.03-0.79-0.05-1.58-0.08-2.37c-0.41,0.18-0.8,0.4-1.25,0.65c-0.56,0.32-1.17,0.4-1.79,0.21c-0.81-0.25-1.44-0.97-2.28-1.13
			c0,0-0.01,0.01-0.01,0.01c0,0,0.01,0,0.01,0c-0.29,1.4-0.58,2.8-0.86,4.19c-0.16,0.79-0.33,1.57-0.49,2.36
			c-0.11,0.55-0.22,1.15-0.04,1.7c0.39,1.2,2.15,1.26,3.17,1.5c1.72,0.42,3.45,0.83,5.17,1.24c1.72,0.42,3.45,0.83,5.17,1.24
			c0.9,0.22,2.37,0.8,3.13-0.04C142.24,264.71,141.67,263.62,140.98,263.1z"/>
		<path class="st12" d="M106.92,235.41c-0.61,6.9-1.29,13.79-2.08,20.68c-0.01,0.06,0.06,0.13,0.12,0.13l1.88-0.13
			c0.49-0.03,1.05,0,1.53-0.12c0.76-0.2,0.89-1.22,1.11-1.85c0.75-2.21,1.38-4.47,1.97-6.72c1.12-4.22,2.16-8.48,3.8-12.53
			C112.47,235.09,109.7,235.34,106.92,235.41z"/>
		<path class="st3" d="M118.89,262.23c-0.56-0.53-7.3-4.83-7.9-5.42c-0.76-0.75-0.65-1.76-0.58-2.74c0.06-0.79,0.12-1.58,0.17-2.37
			c-0.43,0.13-0.84,0.31-1.31,0.51c-0.59,0.25-1.21,0.27-1.8,0.02c-0.78-0.33-1.33-1.12-2.15-1.36c0,0-0.01,0.01-0.01,0.01
			c0,0,0.01,0,0.01,0c-0.44,1.36-0.87,2.72-1.31,4.08c-0.25,0.77-0.5,1.53-0.74,2.3c-0.17,0.54-0.34,1.12-0.22,1.69
			c0.26,1.24,2,1.48,3,1.83c1.67,0.6,3.34,1.19,5.01,1.79c1.67,0.6,3.34,1.19,5.01,1.79c0.87,0.31,2.27,1.05,3.12,0.3
			C119.97,263.97,119.51,262.83,118.89,262.23z"/>
		<path class="st12" d="M193.26,66.37c0.01-0.04,0.01-0.09,0.02-0.13c0.11-0.86,0.06-1.73-0.29-2.54c-0.39-0.89-1.07-1.62-1.56-2.46
			c-0.09-0.21-0.18-0.42-0.26-0.62c-0.17-0.39-0.3-0.97-0.58-1.29c-0.22-0.26-0.63-0.39-0.84-0.05c-0.37,0.58,0.26,1.73,0.47,2.25
			c0.47,1.15,0.5,2.14,0.16,3.34c-0.25,0.87-0.56,1.71-0.91,2.54c-0.14-0.17-0.29-0.34-0.43-0.51c0.08-0.28,0.16-0.56,0.25-0.84
			c0.27-0.92,0.61-1.86,0.54-2.84c-0.07-0.99-0.46-1.96-0.78-2.9c-0.28-0.83-0.57-1.96-1.13-2.66c-0.23-0.29-0.61-0.51-0.9-0.16
			c-0.34,0.42,0.03,1.2,0.15,1.62c0.28,0.95,1.01,3.09,0.85,4.9c-0.19,2.13-1.86,5.38-1.86,5.35c0.04-1.65-0.01-4.75-0.05-5.4
			c-0.03-0.35,0.05-1.17-0.16-1.46c-0.32-0.44-0.9,0.07-1.08,0.37c-0.5,0.83-0.46,2.04-0.48,2.97c-0.03,1.32-0.19,1.75-0.51,3.03
			c-0.28,1.12-0.52,2.24-0.49,3.4c0.03,1.12,0.3,2.17,0.63,3.24c0.37,1.2,0.73,2.44,0.23,3.66c-0.07,0.17,0.21,0.24,0.28,0.08
			c0.05-0.11,0.08-0.22,0.12-0.34c0.02,0.02,0.04,0.04,0.07,0.05c0.72,0.18,1.45,0.36,2.17,0.54c0.38,0.1,0.91,0.33,1.31,0.18
			c0.43-0.16,0.75-0.76,0.99-1.12c0.42-0.61,0.79-1.25,1.11-1.91c0.35-0.72,1.41-3.31,2.25-5.43c0,0,0,0,0,0
			c0.43-0.89,0.79-1.82,0.93-2.76C193.56,67.75,193.46,67.05,193.26,66.37z"/>
		<path class="st1" d="M187.79,87.12c0.15,0.63,0.17,1.29,0.09,1.93c-0.29,2.49-1.92,4.47-3.39,6.4c-1.56,2.05-2.77,4.29-3.85,6.62
			c-1.07,2.33-2.03,4.7-3.25,6.95c-0.51,0.94-1.07,1.89-1.89,2.58c-0.83,0.69-1.85,0.99-2.92,1.02c-0.81,0.03-3.17-0.29-3.55-0.3
			c-2.1-0.04-4.2,0.02-6.29,0.19c-2.05,0.16-4.11,0.4-6.17,0.39c-1.46,0-2.93-0.14-4.34-0.51c-0.02,0.15-0.04,0.3-0.07,0.44
			c-0.01,0.05-0.02,0.11-0.02,0.16c-0.01,0.04-0.01,0.09-0.02,0.13c-0.3,1.96-0.61,3.87-0.92,5.62c-0.61,3.46-1.2,6.22-1.67,7.25
			c-0.5,1.08-3.06,3.18-3.42,3.8c-0.26,0.44-0.14,2.11-0.47,2.63c-0.19,0.08-0.33,0.23-0.48,0.36c-0.11,0.1-0.21,0.19-0.3,0.3
			c-1.36-0.06-2.73-0.17-4.09-0.24l-10.63-0.56c-1.75-0.09-3.5-0.17-5.25-0.27c-0.69-0.04-1.41-0.08-2.05-0.46
			c-0.48-0.28-0.83-0.7-1.14-1.14c-0.4-0.57-0.74-1.17-1.19-1.72c-0.46-0.55-0.98-1.06-1.52-1.54c-1.05-0.95-2.19-1.82-3.16-2.84
			c-1-1.05-1.71-2.19-2.19-3.37c-0.04,0.01-0.08,0.03-0.12,0.04c-0.04,0.01-0.08,0.03-0.12,0.04c-0.04,0.01-0.08,0.03-0.12,0.04
			c-1.56,0.5-3.18,0.86-4.89,0.9c-0.27,0.01-0.55,0.01-0.83,0c-2.46-0.08-5.13-0.93-7.09-2.67c-4.21-3.74-2.67-9.17-1.17-13.03
			c1.96-5.04,3.99-8.35,6.55-13.09c2.39-4.43,5.21-8.81,9.58-11.65c1.21-0.78,3.83-1.86,7.17-2.52c0.23-0.04,0.46-0.09,0.69-0.13
			c1.11-0.2,2.28-0.35,3.51-0.42c5.59-0.36,11.99,0.65,12.53,0.82c2.97,0.97,6.13,1.8,8.92,3.35c0.25,0.14,0.5,0.28,0.74,0.43
			c0.02,0.01,0.05,0.03,0.09,0.05c0,0,0,0,0,0c1.16,0.71,7.72,4.76,10.52,5.93c2.68,1.12,6.13,5.13,7.66,3.79
			c1.14-1,4.46-4.82,5.35-6.03c0.92-1.24,1.98-2.75,3.22-3.66c1.22-0.89,3.65-1.35,4.98-2.03c1.22-0.63,2.03-1.7,2.66-2.95
			c1.44,0.33,4.76,1.93,5.31,2.11c0.22,0.3-1.69,3.2-1.63,4.52C187.17,85.63,187.61,86.35,187.79,87.12z"/>
		<path class="st3" d="M146.23,134.73c-0.03-0.24-0.05-0.65-0.07-1.12v0c0-0.07,0-0.13,0-0.2c0-0.06,0-0.12,0-0.18
			c0-0.02,0-0.04,0-0.06c-0.02-1.29,0.01-2.87,0.08-3.41c0.01-0.05-0.04-0.11-0.09-0.12c-2.15-0.57-3.78-0.67-5.43-0.64
			c-0.08,0-0.17,0-0.25,0c-1.5,0.03-3.04,0.17-5.03,0.16c-4.59-0.02-9.19-0.45-13.76,0.11c-0.07,0.01-0.12,0.05-0.12,0.12
			c-0.07,1.04-0.28,2.04-0.61,3.01c-0.01,0.05-0.03,0.1-0.05,0.15c-0.02,0.03-0.04,0.06-0.06,0.1c-3.27,4.97-6.04,10.24-7.17,16.16
			c-0.87,4.6-0.85,9.3-0.78,13.97c0.07,4.71,0.12,9.4-0.38,14.1c-0.37,3.49-0.96,6.95-1.67,10.38c-1.49,4.44-3.45,8.76-5.3,13.03
			c-3.67,8.45-6.78,17.11-9.22,25.99c-1.38,5.05-3.33,12.74-4.29,17.89c-0.01,0.05,0.01,0.11,0.06,0.14
			c1.75,0.96,10.58,2.42,16.45,3.59c0.14,0.03,0.27,0.05,0.4,0.08c0.86,0.17,9.58,1.32,17.16,2.31c0.08,0.01,0.16,0.02,0.25,0.03
			c5.96,0.77,11.15,1.44,11.15,1.44c0.08,0.01,0.15-0.03,0.16-0.12c0.41-9.36,1.91-21.93,3.6-31.13c1.69-9.15,3.22-18.29,3.78-27.59
			c0.59-9.69,2.09-19.48,2.58-29.17C148.08,154.06,147.77,145.72,146.23,134.73z"/>
		<path class="st13" d="M152.17,112.85c-0.01,0.1-0.03,0.2-0.04,0.3c-0.93-0.55-1.86-1.11-2.76-1.7c-3.21-2.09-6.1-4.59-8.31-7.74
			c-2.13-3.02-3.62-6.52-4.05-10.2c-0.38-3.26-0.08-7.29,2.46-9.69c2.43-2.3,5.75-1.98,8.78-1.17c0.25,0.14,0.5,0.28,0.74,0.43
			c0.02,0.01,0.05,0.03,0.09,0.05c-1.8-0.56-3.65-1-5.54-0.81c-2.22,0.22-4.09,1.38-5.17,3.35c-1.71,3.14-1.47,7.21-0.59,10.55
			c0.93,3.52,2.79,6.76,5.18,9.5C145.57,108.72,148.82,110.84,152.17,112.85z"/>
		<path class="st13" d="M123.28,78.9c-2.82,1.63-4.61,4.58-5.73,7.59c-1.21,3.23-2,6.64-2.82,9.98c-0.87,3.53-1.71,7.1-2.28,10.69
			c-0.58,3.67-0.39,7.33,0.37,10.96c0.2,0.97,0.44,1.93,0.69,2.89c-0.08,0.03-0.16,0.05-0.24,0.08c-0.42-1.56-0.78-3.15-1.04-4.75
			c-0.57-3.59-0.45-7.11,0.22-10.67c0.7-3.74,1.56-7.46,2.5-11.15c1.37-5.35,2.72-12.25,7.63-15.49
			C122.82,78.98,123.05,78.94,123.28,78.9z"/>
		<path class="st13" d="M175.49,102.89c-1.77-3.38-3.78-6.81-7.06-8.93c-0.13-0.09-0.26,0.13-0.13,0.22c3.24,2.1,5.22,5.5,6.97,8.84
			C175.35,103.16,175.56,103.03,175.49,102.89z"/>
		<path class="st1" d="M141.42,79.52c-0.06-0.43-0.1-1.03-0.29-1.41c-0.27-0.56-1.15-0.44-1.63-0.5c-2.08-0.26-4.17-0.51-6.25-0.75
			c-1.02-0.12-2.04-0.23-3.07-0.34c-0.98-0.11-1.99-0.3-2.97-0.3c-0.68,0-1.06,0.32-1.45,0.91c-0.42,0.63-0.83,1.27-1.24,1.91
			c-0.06,0.02-0.1,0.09-0.1,0.15c-0.17,0.27-0.35,0.55-0.53,0.82c-0.09,0.14,0.12,0.28,0.21,0.14c0.18-0.28,0.37-0.57,0.55-0.85
			c1.32-0.15,2.72,0.19,4.02,0.35c1.43,0.17,2.86,0.35,4.29,0.52c2.82,0.34,5.63,0.68,8.45,1.03c0.06,0.01,0.13-0.07,0.12-0.14
			C141.54,80.54,141.49,80.03,141.42,79.52z"/>
		<path class="st14" d="M124.93,177.61c-2.77,14.86-6.28,29.62-10.25,44.2c-1,3.66-2.03,7.31-3.1,10.95
			c-1.05,3.6-2.26,7.16-3.26,10.77c-0.25,0.9-0.45,1.87-0.26,2.81c0.13,0.63,0.44,1.16,0.86,1.62c-0.13-0.02-0.26-0.05-0.4-0.08
			c-0.04-0.05-0.09-0.11-0.13-0.17c-1.04-1.46-0.61-3.27-0.13-4.85c4.48-14.67,8.58-29.42,12.01-44.37
			c1.71-7.45,3.4-14.95,4.69-22.49c0.65-3.79,0.98-7.59,0.58-11.43c-0.41-3.89-1.4-7.7-2.38-11.48c-0.04-0.15,0.2-0.22,0.24-0.06
			c1.05,4.03,2.09,8.1,2.45,12.26C126.22,169.43,125.69,173.54,124.93,177.61z"/>
		<path class="st14" d="M146.16,133.4c0-0.06,0-0.12,0-0.18c0-0.02,0-0.04,0-0.06c-1.77-0.12-3.55-0.2-5.33-0.27
			c-0.03-1.17-0.06-2.33-0.1-3.5c0-0.14-0.01-0.27-0.01-0.41c-0.08,0-0.17,0-0.25,0c0.05,1.3,0.08,2.59,0.12,3.89
			c-0.07,0-0.15-0.01-0.22-0.01c-5.8-0.2-11.6-0.29-17.4-0.43c-0.67-0.01-1.35-0.03-2.02-0.05c-0.01,0.05-0.03,0.1-0.05,0.15
			c-0.02,0.03-0.04,0.06-0.06,0.1c3.18,0.07,6.36,0.15,9.53,0.22c3.41,0.08,6.82,0.14,10.23,0.26c0.16,6.75,0.16,13.5-0.02,20.25
			c-0.24,9.09-0.78,18.17-1.64,27.22c-0.86,9.17-2.04,18.32-3.54,27.41c-1.47,8.97-3.25,17.9-5.33,26.75
			c-1.22,5.2-2.54,10.38-3.97,15.53c0.08,0.01,0.16,0.02,0.25,0.03c1.12-4.04,2.18-8.09,3.17-12.16c2.17-8.92,4.04-17.91,5.6-26.96
			c1.54-8.93,2.77-17.91,3.71-26.92c0.95-9.13,1.58-18.3,1.9-27.47c0.19-5.57,0.27-11.14,0.23-16.72c1.4-0.34,2.68-1.07,3.66-2.14
			c1.07-1.18,1.34-2.8,1.56-4.33v0C146.16,133.54,146.16,133.47,146.16,133.4z M144.42,137.77c-0.93,1.02-2.15,1.72-3.49,2.05
			c-0.02-2.23-0.05-4.46-0.11-6.69c1.71,0.06,3.41,0.15,5.11,0.26C145.72,134.91,145.49,136.6,144.42,137.77z"/>
		<path class="st3" d="M146.49,58.17c0.19,0.8,0.04,1.53-0.34,1.62c-0.38,0.09-0.84-0.49-1.03-1.29c-0.19-0.8-0.04-1.53,0.34-1.62
			C145.84,56.79,146.3,57.37,146.49,58.17z"/>
		<path class="st3" d="M146.27,54.89c-0.17-0.64-0.35-1.3-0.58-1.93c-1.03,0.3-1.97,0.9-2.62,1.75c-0.4,0.51-0.69,1.78,0.35,1.76
			c0.59-0.01,1.29-0.54,1.83-0.74c0.35-0.13,0.71-0.25,1.08-0.35c0.02,0,0.04-0.01,0.07-0.01C146.36,55.2,146.31,55.05,146.27,54.89
			z"/>
		<path class="st15" d="M148.48,63.46c-0.7,0.71-1.48,1.33-2.34,1.85c-0.08,0.04-0.09,0.17,0,0.21c0.89,0.46,2.02,0.48,3.03,0.5
			C148.89,64.95,148.69,64.24,148.48,63.46z"/>
		<path class="st16" d="M192.12,62.48c-0.03-0.16-0.27-0.09-0.24,0.07c0.36,2.13-0.42,4.16-1.19,6.11
			c-0.06,0.15,0.18,0.21,0.24,0.07C191.73,66.73,192.49,64.67,192.12,62.48z"/>
		<path class="st16" d="M192.92,66.79c-0.32,0.97-0.68,1.93-1.08,2.87c-0.06,0.15,0.15,0.27,0.21,0.13c0.41-0.96,0.78-1.93,1.1-2.92
			C193.21,66.7,192.97,66.63,192.92,66.79z"/>
		<path class="st3" d="M144.21,50.26c-0.14-0.87-0.67-2.41-2.28-3.14c-2.23-1.01-5.77-1.02-7.02-1.03c-2.2-0.01-4.43,0.51-6.29,1.69
			c-0.94-0.62-2.03-1.03-3.17-1.16c-1.9-0.22-4.29,0.3-4.83,2.41c-0.11,0.42,0,0.83-0.05,1.24c-0.05,0.38-0.67,0.71-0.92,1.03
			c-0.58,0.72-0.85,1.65-0.67,2.57c0.43,2.15,2.73,2.4,4.51,1.89c0.18-0.05,0.36-0.11,0.54-0.17c-0.19,0.49-0.39,0.98-0.6,1.47
			c-1.04,2.4-2.02,5.16-0.94,7.73c0.64,1.53,1.93,2.15,3.23,3.04c1.5,1.02,2.67,2.43,3.45,4.05c0.02,0.04,0.07,0.06,0.11,0.06
			c1.95,0.04,3.86,0.38,5.7,1.02c0.09,0.03,0.15-0.05,0.16-0.12c0.16-1.22,0.59-2.38,1.27-3.4c0.56-0.84,1.27-1.54,1.41-2.58
			c0.14-1.01-0.13-2.02-0.06-3.03c0.04-0.58,0.18-1.18,0.49-1.67c0.32-0.5,0.8-0.78,1.27-1.12c1.69-1.2,1.02-2.99,1.3-4.75
			c0.18-1.12,0.77-2.11,1.39-3.04c0.7-1.05,1.27-1.82,1.98-2.86C144.24,50.35,144.22,50.3,144.21,50.26z"/>
	</g>
	<path class="st10" d="M262.63,189.94c-1.84-3.59-6.24-4.68-9.95-3.94c-2.26,0.45-4.37,1.48-6.34,2.65
		c-1.92,1.14-3.75,2.43-5.5,3.81c-3.6,2.83-6.85,6.07-9.88,9.49c-1.14,1.28-2.24,2.59-3.33,3.91c-0.09,0.24-0.18,0.48-0.27,0.72
		c3.5-4.3,7.2-8.43,11.39-12.07c3.33-2.89,7.08-5.75,11.2-7.42c3.73-1.51,8.63-1.72,11.53,1.58c1.62,1.84,1.95,4.36,1.92,6.73
		c-0.01,0.65-0.04,1.29-0.08,1.94c0.06-0.12,0.11-0.25,0.17-0.37c0.03-0.07,0.07-0.15,0.11-0.22c0.02-0.31,0.03-0.63,0.04-0.94
		C263.69,193.82,263.55,191.74,262.63,189.94z"/>
	<path class="st10" d="M211.83,89c-1.53,0.21-3.13,0.55-4.68,0.5c-0.74-0.02-1.53-0.18-2.11-0.66c-0.04-0.03-0.08-0.07-0.11-0.11
		c2.71-4.23,5.5-8.42,8.4-12.53c0.22,0.08,0.46,0.05,0.69,0.01c0.63-0.13,1.26-0.34,1.88-0.51c1.21-0.34,2.41-0.7,3.6-1.09
		c1.6-0.51,3.2-1.07,4.78-1.66c0-0.09-0.01-0.17-0.02-0.26c-0.9,0.34-1.81,0.67-2.73,0.98c-2.15,0.74-4.32,1.41-6.52,2.01
		c-0.3,0.08-0.6,0.17-0.91,0.24c-0.18,0.04-0.38,0.03-0.57-0.03c0.36-0.52,0.73-1.03,1.1-1.55c2.12-2.97,4.31-5.89,6.56-8.77
		c-0.06-0.05-0.13-0.11-0.19-0.15c-2.65,3.39-5.21,6.85-7.69,10.36c-0.12-0.08-0.21-0.19-0.27-0.32c-0.23-0.58-0.21-1.39-0.3-2.01
		c-0.17-1.18-0.34-2.37-0.5-3.55c-0.19-1.35-0.37-2.7-0.56-4.05c-0.08,0.04-0.16,0.08-0.23,0.12c0.16,1.2,0.33,2.39,0.49,3.58
		c0.18,1.31,0.37,2.61,0.55,3.92c0.09,0.62,0.15,1.26,0.27,1.88c0.05,0.26,0.13,0.55,0.34,0.73c-1.79,2.54-3.54,5.11-5.26,7.7
		c-1.04,1.58-2.07,3.17-3.1,4.76c-0.43-0.52-0.63-1.19-0.81-1.84c-0.48-1.72-0.94-3.45-1.38-5.18c-0.64-2.51-1.25-5.03-1.83-7.55
		c-0.07,0.07-0.14,0.14-0.21,0.2c0.48,2.09,0.98,4.17,1.5,6.25c0.46,1.81,0.93,3.62,1.43,5.43c0.27,0.99,0.49,2.13,1.17,2.91
		c-2.85,4.45-5.61,8.95-8.33,13.48c-0.31-0.33-0.56-0.71-0.8-1.14c-0.56-1.03-1.1-2.07-1.64-3.12c-1.67-3.24-3.26-6.52-4.77-9.83
		c-0.06,0.08-0.11,0.16-0.17,0.23c1.33,2.9,2.71,5.77,4.16,8.62c0.51,1,1.03,2.01,1.56,3c0.44,0.84,0.84,1.79,1.51,2.49
		c-0.73,1.22-1.47,2.45-2.19,3.68c-1.99,3.35-3.95,6.71-5.91,10.08c0.08,0.04,0.15,0.08,0.22,0.12c2.67-4.58,5.35-9.16,8.07-13.7
		c1.27,1.12,3.18,0.9,4.75,0.81c4.35-0.24,8.71-0.45,13.07-0.72c0.04-0.08,0.08-0.17,0.12-0.25c-3.34,0.2-6.68,0.36-10.02,0.54
		c-1.19,0.06-2.37,0.13-3.56,0.19c-0.94,0.05-1.91,0.12-2.83-0.09c-0.56-0.13-1.01-0.39-1.38-0.74c1.19-1.99,2.39-3.97,3.6-5.94
		c1.55-2.53,3.13-5.04,4.72-7.54c0.15,0.14,0.32,0.27,0.52,0.38c1.09,0.59,2.43,0.46,3.61,0.31c1.87-0.24,3.74-0.5,5.61-0.76
		c2.03-0.28,4.05-0.58,6.07-0.89c0.04-0.09,0.07-0.18,0.11-0.27c-1.17,0.18-2.35,0.35-3.52,0.53C215.41,88.5,213.62,88.75,211.83,89
		z"/>
	<path class="st5" d="M192.72,127.02c-0.11-1.65,0.16-2.25-1.11-3.33c-0.59-0.51-4.2-2.5-9.41-5.28c-0.64,4.12-0.7,8.37,0.51,12.39
		c0.62,2.04,1.54,4,2.82,5.72c1.36,1.83,3.1,3.33,4.87,4.75c0.65,0.52,1.3,1.03,1.96,1.53
		C192.62,133.26,192.75,127.43,192.72,127.02z"/>
	<path class="st5" d="M175.38,345.95c3.49,1.76,7.07,3.56,10.7,5.37c0,0,0,0,0,0c0.06,0.07,0.21,0.02,0.21-0.09
		c0.11-2.78,0.31-8.84,0.58-17.25C181.62,336.17,177.38,340.49,175.38,345.95z"/>
	<polygon class="st3" points="155.84,325.98 142.02,319.88 141.84,315.4 155.66,321.5 	"/>
</g>
</svg>
