<?xml version="1.0" encoding="utf-8"?>
<!-- Generator: Adobe Illustrator 25.2.0, SVG Export Plug-In . SVG Version: 6.00 Build 0)  -->
<svg version="1.1" id="레이어_1" xmlns="http://www.w3.org/2000/svg" xmlns:xlink="http://www.w3.org/1999/xlink" x="0px"
	 y="0px" viewBox="0 0 335.52 215.45" style="enable-background:new 0 0 335.52 215.45;" xml:space="preserve">
<style type="text/css">
	.st0{fill:#EA9456;}
	.st1{fill:#F4CE56;}
	.st2{fill:#FCE7DD;}
	.st3{fill:#ECC6B4;}
	.st4{fill:#1F2F43;}
	.st5{fill:#70954B;}
	.st6{fill:#4854A3;}
	.st7{fill:#C17238;}
	.st8{fill:#314A64;}
	.st9{fill:#D75D44;}
	.st10{fill:#7C8EC7;}
</style>
<g>
	<path class="st0" d="M43.39,153.97c-0.39-0.26-0.79-0.51-1.19-0.76c-0.21,2.25-0.43,4.49-0.64,6.74c0.5,1.25,0.58,2.81-0.51,3.77
		c-0.58,0.51-1.36,0.61-2.1,0.66c-0.93,0.07-1.87,0.08-2.81,0.07c-1.92-0.01-3.85-0.09-5.77,0.05c-1.81,0.13-3.58,0.49-5.28,1.14
		c-3.27,1.25-6.12,3.34-8.85,5.48c-2.31,1.82-5.19,4.75-8.44,3.83c-0.5-0.14-0.97-0.36-1.43-0.6c-0.07-0.03-0.13-0.07-0.19-0.11
		c-0.32-0.18-0.62-0.36-0.93-0.55c-0.83-0.49-1.67-0.98-2.5-1.48c-0.57-0.34-1.17-0.73-1.52-1.31c-0.38-0.61-0.35-1.32-0.11-1.98
		c0.29-0.79,0.83-1.5,1.35-2.15c0.54-0.66,1.13-1.28,1.75-1.85c1.26-1.16,2.65-2.15,4.06-3.11c3.21-2.16,6.4-4.31,9.46-6.68
		c1.52-1.17,2.99-2.4,4.48-3.61c1.33-1.09,2.72-2.14,4.3-2.86c2.12-0.96,4.8-1.19,6.84-0.02c0.55,0.21,1.1,0.44,1.62,0.66
		c2.45,1,4.8,2.21,7.05,3.59c0-0.03,0.01-0.05,0.01-0.08c0.01-0.12,0.19-0.12,0.18-0.01c-0.01,0.06-0.01,0.13-0.02,0.19
		c0.42,0.26,0.84,0.53,1.26,0.8C43.57,153.87,43.49,154.03,43.39,153.97z"/>
	<path class="st1" d="M326.24,197.66c-0.1-0.08,3.03-30.97,3.03-30.97s-39.22-8.51-48.56-17.26c-11.86-11.11-17.81-6.32-29.22-17.84
		c-4.49-4.53-9.48-10.83-17.1-10.26c-2.13,0.16-4.23,0.74-6.3,1.28c-2.27,0.58-4.53,1.16-6.8,1.74c-4.4,1.13-8.8,2.25-13.2,3.38
		c-17.93,4.59-37.85,9.25-55.78,13.84c-1.83,0.47-3.79,0.82-5.49,1.65c-1.58,0.77-2.57,2.05-3.47,3.44
		c-2.07,3.21-4.21,6.36-6.56,9.4c-2.12,2.74-4.37,5.4-6.73,7.96c-2.69-1.83-5.37-3.66-8.06-5.48c-0.09-0.06-0.22,0.06-0.13,0.12
		c2.69,1.83,5.38,3.66,8.06,5.49c-2.94,3.18-6.07,6.21-9.35,9.07c-1.45,1.27-2.94,2.5-4.46,3.7c-0.09,0.07,0.04,0.19,0.13,0.11
		c4.96-3.93,9.57-8.22,13.81-12.8c8.38,5.7,16.75,11.41,25.13,17.11c5.56,3.78,11.11,7.56,16.66,11.34
		c2.59,1.77,5.12,3.69,7.85,5.27c2.59,1.51,5.42,1.73,8.49,1.7c14.17-0.15,87.03-1.19,87.03-1.19c14.18-0.19,28.36-0.38,42.54-0.57
		C318.91,197.89,326.3,197.7,326.24,197.66z"/>
	<path class="st2" d="M325.55,166.99c-0.16,1.88-0.69,7.3-0.92,9.82c-0.77,8.47-1.19,7.93-1.75,15.58c-0.04,0.49-0.07,0.99-0.11,1.5
		c-0.03,0-0.06,0-0.09,0c-0.02,0.02-0.04,0.04-0.07,0.04c-0.01,0-0.02,0-0.05,0c-2.71,0.03-118.82,1.61-132.85,1.77
		c-1.73,0.02-3.38-0.04-4.95-0.37c-1.23-0.25-2.41-0.67-3.54-1.33c-2.73-1.58-5.26-3.51-7.85-5.27
		c-5.55-3.78-48.46-32.92-56.22-38.19c0.05-1.24,12.79-28.03,12.79-28.03c0.34-0.36,1.86-1.04,4.27-1.95
		c14.44-5.43,60.85-19.07,76.22-23.01c4.4-1.13,8.8-2.25,13.2-3.38c2.27-0.58,4.53-1.16,6.8-1.74c2.08-0.53,4.17-1.11,6.31-1.28
		c7.61-0.58,12.61,5.73,17.1,10.26c11.41,11.52,22.91,22.96,34.78,34.07c11.83,11.08,24.22,20.72,37,30.86
		C325.61,166.33,325.59,166.57,325.55,166.99z"/>
	<path class="st3" d="M192.15,153.49c0,0-3.41,19.34-7.39,41.82c-1.23-0.25-2.41-0.67-3.54-1.33c-2.73-1.58-5.26-3.51-7.85-5.27
		c-5.55-3.78-48.46-32.92-56.22-38.19c0.05-1.24,12.79-28.03,12.79-28.03c0.34-0.36,1.86-1.04,4.27-1.95
		c11.13,7.34,32.68,21.34,34.75,22.86c9.06,6.61,16.35,11.76,17.48,12.15C186.55,155.58,192.15,153.49,192.15,153.49z"/>
	<path class="st1" d="M329.3,166.65c-12.8-10.16-25.03-20.93-36.88-32.03c-11.86-11.11-23.37-22.55-34.78-34.07
		c-4.49-4.53-9.49-10.83-17.1-10.26c-2.13,0.16-4.23,0.74-6.3,1.28c-2.27,0.58-4.53,1.16-6.8,1.74c-4.4,1.13-8.8,2.25-13.2,3.38
		c-17.93,4.59-35.86,9.18-53.79,13.78c-1.83,0.47-3.79,0.82-5.49,1.65c-1.58,0.77-2.57,2.05-3.47,3.44
		c-2.07,3.21-11.95-7.7-14.31-4.66c-1.87,2.42-5.38,11.82-9.62,12.46c-0.11,0.46-0.24,0.92-0.38,1.38
		c8.84,6.08,28.06,19.99,36.15,25.5c5.55,3.78,11.11,7.56,16.66,11.34c2.59,1.76,5.12,3.69,7.85,5.27c2.59,1.51,5.42,1.73,8.49,1.7
		c14.17-0.15,28.34-0.38,42.5-0.57l42.54-0.57c14.18-0.19,28.36-0.38,42.54-0.57c1.77-0.02,3.54-0.05,5.32-0.07
		C329.32,166.8,329.36,166.7,329.3,166.65z"/>
	<path class="st4" d="M313.78,134.66c0,0-34.84-7.56-43.14-15.33c-10.54-9.87-15.82-5.62-25.96-15.84
		c-3.99-4.02-8.42-9.62-15.19-9.11c-1.9,0.14-3.76,0.66-5.6,1.13c-2.01,0.52-4.03,1.03-6.04,1.55c-3.91,1-7.82,2-11.72,3
		c-15.93,4.08-33.62,8.22-49.55,12.29c-1.62,0.42-3.37,0.73-4.88,1.47c-1.4,0.69-2.29,1.82-3.08,3.06
		c-1.84,2.85-3.61,0.09-5.71,2.79c-1.7,2.21-4.55-12.64-6.44-10.57c-0.06,0.37-7.09,12.5-7.15,12.87
		c7.31,4.98,22.63,15.18,29.94,20.16c4.93,3.36,9.87,6.72,14.8,10.08c2.3,1.57,4.55,3.27,6.97,4.68c2.3,1.34,4.81,1.54,7.54,1.51
		c12.58-0.14,77.31-1.06,77.31-1.06c12.6-0.17,25.19-0.33,37.79-0.5c1.02-0.01,7.59-0.18,7.54-0.22
		C311.13,156.54,313.78,134.66,313.78,134.66z"/>
	<path class="st2" d="M308.13,153.26h-0.08c-0.01,0.02-0.03,0.03-0.06,0.03c-0.01,0-0.04,0-0.09,0
		c-3.53,0.05-105.57,1.43-117.96,1.57c-2.33,0.03-4.5-0.12-6.51-0.99c-0.35-0.15-0.69-0.33-1.03-0.52
		c-2.42-1.41-4.67-3.11-6.97-4.68c-4.19-2.85-25.92-17.57-36.59-24.81c-1.89-1.28-3.44-2.33-4.48-3.04
		c0.04-1.1,0.67-18.87,0.65-18.84c0-0.1,5.6,3.51,5.6,3.41l0.05,0.03c0.07-0.08,0.21-0.19,0.4-0.33
		c2.52-1.83,14.91-8.52,28.73-15.35c14.5-7.17,30.56-14.49,38.43-16.51c3.91-1,7.82-2,11.72-3c2.01-0.52,4.03-1.03,6.04-1.55
		c1.84-0.47,3.71-0.99,5.6-1.13c6.76-0.51,11.2,5.09,15.19,9.11c10.14,10.23,20.35,20.39,30.89,30.26
		c10.37,9.71,21.22,18.18,32.41,27.05c0.15,0.12,0.31,0.24,0.46,0.36C310.56,134.34,308.16,152.81,308.13,153.26z"/>
	<g>
		<path class="st3" d="M277.47,141.42c-7.92,0.17-15.85,0.33-23.77,0.49c-12.25,0.24-24.49,0.47-36.74,0.69
			c-8.48,0.15-16.96,0.3-25.44,0.44c-3.25,0.05-6.51,0.11-9.76,0.16c-0.02,0.06-0.03,0.12-0.05,0.18c0.67-0.01,1.34-0.02,2.02-0.03
			c11.08-0.18,22.15-0.37,33.23-0.57c9.65-0.17,19.3-0.35,28.96-0.54c10.56-0.21,21.12-0.42,31.67-0.64
			c9.61-0.2,19.22-0.41,28.83-0.63c0.01-0.06,0.01-0.12,0.02-0.18C296.78,141.01,287.13,141.22,277.47,141.42z"/>
		<path class="st3" d="M286.24,148.15c-10.07,0.22-20.15,0.43-30.22,0.63c-12.67,0.25-25.34,0.49-38.01,0.72
			c-8.06,0.15-16.12,0.29-24.18,0.42c-4.84,0.08-9.67,0.16-14.51,0.23c-0.01,0.06-0.03,0.12-0.04,0.18c2.25-0.04,4.5-0.07,6.75-0.11
			c10.65-0.17,21.3-0.36,31.95-0.55c10.08-0.18,20.15-0.37,30.23-0.57c12.71-0.25,25.41-0.51,38.12-0.78
			c6.93-0.15,13.86-0.3,20.79-0.46c0.01-0.06,0.01-0.12,0.02-0.18C300.18,147.85,293.21,148,286.24,148.15z"/>
	</g>
	<path class="st5" d="M313.81,134.63c-11.37-9.03-22.23-18.59-32.76-28.46c-10.54-9.87-20.76-20.03-30.89-30.26
		c-3.99-4.02-8.43-9.62-15.19-9.11c-1.9,0.14-3.76,0.66-5.6,1.13c-2.01,0.52-4.03,1.03-6.04,1.55c-3.91,1-7.82,2-11.72,3
		c-15.93,4.08-31.86,8.16-47.79,12.24c-1.62,0.42-3.36,0.73-4.88,1.47c-1.4,0.69-2.29,1.82-3.08,3.06
		c-1.84,2.85-3.74,5.65-5.83,8.35c-1.88,2.43-3.88,4.79-5.98,7.07c-2.39-1.62-4.77-3.25-7.16-4.87c-0.08-0.05-0.2,0.06-0.11,0.11
		c2.39,1.63,4.78,3.25,7.16,4.88c-2.61,2.82-5.39,5.51-8.31,8.06c-1.29,1.13-2.61,2.22-3.96,3.29c-0.08,0.06,0.03,0.16,0.11,0.1
		c4.4-3.5,8.5-7.3,12.27-11.37c7.44,5.07,14.88,10.13,22.33,15.2c4.93,3.36,9.87,6.72,14.8,10.08c2.3,1.57,4.55,3.27,6.97,4.68
		c2.3,1.34,4.82,1.54,7.55,1.51c12.58-0.14,25.17-0.33,37.76-0.5l37.79-0.5c12.6-0.17,25.19-0.34,37.79-0.5
		c1.57-0.02,3.15-0.04,4.72-0.06C313.82,134.76,313.86,134.67,313.81,134.63z"/>
	<path class="st4" d="M310.88,134.35c-0.15-0.12-0.31-0.24-0.46-0.36c0.03,0.11,0.09,0.22,0.17,0.32c-2.51,0.65-3.99,3.13-4.44,5.57
		c-0.56,3.08-0.14,6.45,0.67,9.45c0.37,1.36,0.85,2.69,1.44,3.98c0.05,0,0.08,0,0.09,0c0.03,0,0.05-0.01,0.06-0.03h0.08
		C308.52,152.81,310.92,134.34,310.88,134.35z"/>
	<path class="st3" d="M192.96,99.84c0,0-4.74,26.83-9.54,54.04c-0.35-0.15-0.69-0.33-1.03-0.52c-2.42-1.41-4.67-3.11-6.97-4.68
		c-4.19-2.85-31.77-21.42-42.45-28.66c0.74-6.3,1.51-12.79,2.22-18.76c0.51-4.31,0.98-8.35,1.4-11.84
		c0.86-7.32,1.44-12.24,1.44-12.24s0.01,0,0.04,0c0.5,0.03,11.92,4.27,21.33,4.94c0,0,0,0,0,0c0.65,0.48,1.3,0.96,1.94,1.44
		c2.89,2.14,5.74,4.23,8.43,6.2c9.06,6.61,16.35,11.76,17.48,12.15C187.36,101.92,192.96,99.84,192.96,99.84z"/>
	<path class="st6" d="M332.33,134.34c-0.1-0.08,3.03-30.97,3.03-30.97s-39.22-8.51-48.56-17.26c-11.86-11.11-17.81-6.32-29.22-17.84
		c-4.49-4.53-9.48-10.83-17.1-10.26c-2.13,0.16-4.23,0.74-6.3,1.28c-2.27,0.58-4.53,1.16-6.8,1.74c-4.4,1.13-8.8,2.25-13.2,3.38
		c-17.93,4.59-37.85,9.25-55.78,13.84c-1.83,0.47-3.79,0.82-5.49,1.65c-1.58,0.77-2.57,2.05-3.47,3.44
		c-2.07,3.21-4.21,6.36-6.56,9.4c-2.12,2.74-4.37,5.4-6.73,7.96c-2.69-1.83-5.37-3.66-8.06-5.48c-0.09-0.06-0.22,0.06-0.13,0.12
		c2.69,1.83,5.38,3.66,8.06,5.49c-2.94,3.18-6.07,6.21-9.35,9.07c-1.45,1.27-2.94,2.5-4.46,3.7c-0.09,0.07,0.04,0.19,0.13,0.11
		c4.96-3.93,9.57-8.22,13.81-12.8c8.38,5.7,16.75,11.41,25.13,17.11c5.55,3.78,11.11,7.56,16.66,11.34
		c2.59,1.77,5.12,3.69,7.85,5.27c2.59,1.51,5.42,1.73,8.49,1.7c14.17-0.15,87.03-1.19,87.03-1.19c14.18-0.19,28.36-0.38,42.54-0.57
		C325,134.58,332.39,134.39,332.33,134.34z"/>
	<path class="st2" d="M331.65,103.56c-0.15,1.77-0.7,7.36-0.93,9.93c-0.77,8.47-1.19,7.93-1.75,15.58
		c-0.02,0.32-0.05,0.64-0.07,0.96c-0.01,0.18-0.03,0.36-0.04,0.54c-0.03,0-0.06,0-0.09,0c-0.02,0.02-0.04,0.04-0.07,0.04
		c-0.57,0.01-118.73,1.61-132.9,1.77c-1.14,0.01-2.24-0.01-3.31-0.12c-1.82-0.19-3.55-0.63-5.19-1.58
		c-2.73-1.58-5.26-3.51-7.85-5.27c-4.18-2.84-20.27-13.8-31.29-21.3c-3.63-2.47-6.71-4.57-8.64-5.88
		c0.05-1.24,0.69-16.57,0.93-27.54c-0.02,0.02-0.05,0.05-0.07,0.07c0-0.11,0-0.22,0.01-0.33l0.05,0.04
		c0.66-0.72,5.51-3.52,12.55-7.28c5.34-2.85,11.93-6.25,18.9-9.71c16.66-8.28,35.5-16.91,44.6-19.24c4.4-1.13,8.8-2.25,13.2-3.38
		c2.27-0.58,4.53-1.16,6.8-1.74c2.08-0.53,4.17-1.11,6.31-1.28c7.61-0.58,12.61,5.73,17.1,10.26
		c11.41,11.52,22.91,22.96,34.78,34.07c11.83,11.08,24.22,20.72,37,30.86C331.69,103.02,331.68,103.21,331.65,103.56z"/>
	<path class="st3" d="M203.53,69.76c0,0-5.77,32.69-11.04,62.49c-1.82-0.19-3.55-0.63-5.19-1.58c-2.73-1.58-5.26-3.51-7.85-5.27
		c-4.18-2.84-20.27-13.8-31.29-21.3c1.58-13.36,3.54-29.87,4.84-40.92c0.86-7.32,1.44-12.24,1.44-12.24s0.01,0,0.04,0
		c0.5,0.03,6.06,0.42,15.47,1.08c0,0,0,0,0,0c0.65,0.48,1.3,0.96,1.94,1.44c12.62,9.33,24.44,17.84,25.92,18.34
		C197.93,71.85,203.53,69.76,203.53,69.76z"/>
	<path class="st6" d="M335.49,103.33c-3.05-2.33-6.07-4.7-9.06-7.09c-10.13-8.09-19.95-16.52-29.57-25.14
		c-0.06-0.05-0.12-0.1-0.18-0.16c-12.41-11.13-24.48-22.59-36.46-34.12c-4.74-4.56-10.08-10.9-17.66-10.33
		c-2.13,0.16-4.19,0.75-6.23,1.28c-2.23,0.58-4.47,1.17-6.7,1.75c-4.34,1.13-8.68,2.27-13.01,3.4
		c-17.68,4.62-35.36,9.24-53.04,13.86c-1.8,0.47-3.74,0.82-5.4,1.66c-1.54,0.78-2.46,2.06-3.28,3.47c-1.89,3.23-3.86,6.4-6.05,9.46
		c-1.97,2.76-4.07,5.43-6.3,8.01c-2.78-1.84-5.57-3.68-8.35-5.52c-0.1-0.06-0.22,0.06-0.12,0.13c2.79,1.84,5.58,3.68,8.36,5.52
		c-2.77,3.2-5.73,6.25-8.86,9.13c-1.39,1.28-2.81,2.51-4.25,3.73c-0.09,0.07,0.05,0.19,0.13,0.11c4.74-3.96,9.12-8.27,13.11-12.88
		c8.69,5.74,17.38,11.48,26.07,17.22c5.76,3.8,11.52,7.61,17.28,11.42c2.69,1.77,5.32,3.71,8.13,5.3c2.68,1.52,5.52,1.75,8.59,1.71
		c14.16-0.16,28.31-0.38,42.47-0.57l42.51-0.57c14.17-0.19,28.34-0.38,42.51-0.57c1.77-0.02,3.54-0.05,5.32-0.07
		C335.51,103.48,335.55,103.38,335.49,103.33z"/>
	<path class="st0" d="M243.17,23.72c-0.17-1.78-0.92-3.47-1.98-4.9c-2.49-3.35-21.27-5.82-27.41-6.3
		c-10.03-0.79-17.57-2.36-27.62-2.3c-0.93,0.01-1.85,0.01-2.78,0.02c-0.09-0.31-0.19-0.61-0.27-0.92c-0.03-0.11-0.21-0.08-0.18,0.03
		c0.09,0.3,0.17,0.59,0.27,0.89c-0.27,0-0.54,0-0.8,0.01c-0.12,0-0.13,0.18-0.01,0.18c0.29,0,0.58,0,0.87-0.01
		c2.35,7.48,6.62,14.38,12.36,19.73c0.73,0.68,1.51,1.34,2.48,1.65c1.05,0.33,2.18,0.19,3.25,0.03c2.5-0.37,4.99-0.76,7.49-1.14
		c5.03-0.77,10.06-1.53,15.08-2.3c5.03-0.77,10.06-1.53,15.08-2.3c0.6-0.09,1.19-0.18,1.79-0.27c0.55-0.08,1.15-0.11,1.67-0.3
		C243.27,25.23,243.24,24.47,243.17,23.72z"/>
	<path class="st6" d="M276.49,64.87c-0.73-1.36-2.04-2.41-3.36-3.17c-1.39-0.8-2.92-1.34-4.45-1.8c-1.82-0.55-3.66-1.02-5.49-1.52
		c-8.03-2.2-16.05-4.39-24.08-6.59c-3.58-0.98-7.22-1.96-10.95-2.05c-1.79-0.04-3.6,0.13-5.32,0.64c-1.78,0.52-3.39,1.42-4.91,2.46
		c-3.33,2.29-6.52,4.82-9.76,7.24l-10.12,7.56c-3.35,2.5-6.69,5-10.04,7.49c-3.14,2.34-6.34,4.62-9.36,7.12
		c-0.05,0.04-0.1,0.09-0.15,0.13c-0.84-0.09-1.68-0.22-2.51-0.41c-1.62-0.37-3.18-0.96-4.63-1.79c-0.1-0.06-0.19,0.1-0.09,0.16
		c2.21,1.26,4.6,1.93,7.06,2.19c-1.31,1.1-2.57,2.26-3.74,3.51c-0.08,0.08,0.05,0.21,0.13,0.13c1.21-1.29,2.51-2.48,3.87-3.61
		c4.19,0.4,8.56-0.37,12.56-1.49c7.42-2.06,14.73-5.31,22.6-4.65c7.29,0.61,14.31,3.94,21.71,3.29c3.68-0.32,6.87-1.93,10.15-3.49
		c3.6-1.71,7.37-2.82,11.37-3.02c1.99-0.1,3.96,0.05,5.94,0.32c1.9,0.26,3.83,0.57,5.76,0.38c3.02-0.31,5.78-2.05,7.34-4.66
		C276.81,67.86,277.29,66.35,276.49,64.87z"/>
	<path class="st0" d="M228.75,37.16c-0.39-0.98-0.98-1.87-1.75-2.6c-0.92-0.87-2.07-1.44-3.13-2.14c-1.14-0.75-2.08-1.68-2.55-2.98
		c-0.4-1.11-0.47-2.35-0.21-3.5c0.07-0.32,0.18-0.63,0.3-0.93c0.31,0.18,0.61,0.35,0.92,0.53c0.1,0.06,0.2-0.1,0.1-0.16
		c-0.31-0.18-0.63-0.36-0.94-0.55c0.32-0.72,0.79-1.37,1.39-1.9c0.09-0.08-0.04-0.21-0.12-0.13c-0.62,0.54-1.09,1.21-1.42,1.94
		c-9.27-5.39-18.84-10.27-28.65-14.6c-1.25-0.55-2.51-1.11-3.77-1.65c-2.9-1.25-5.82-2.46-8.79-3.56c-1.04-0.38-2.09-0.76-3.14-1.11
		c-4.8-1.6-9.9-2.64-14.96-1.88c-2.3,0.35-4.57,1.06-6.6,2.22c-2.04,1.17-3.74,2.79-5.18,4.65c-1.56,2.01-2.82,4.22-4.11,6.4
		c-1.5,2.54-3.01,5.07-4.51,7.61c-1.47,2.48-2.94,4.96-4.41,7.44c-4.59,7.73-9.17,15.46-13.76,23.19c-2.47,4.16-4.93,8.31-7.4,12.47
		c-3.59,6.06-7.96,11.91-11.55,17.97L103,87.97c-0.03,0.04-0.01,0.1,0.03,0.12c5.28,3.11,10.34,6.58,15.12,10.41
		c2.33,1.87,4.51,3.93,6.85,5.79c2.02,1.61,4.37,2.81,7.01,2.21c1.42-0.32,2.72-1.01,4.01-1.65c1.43-0.72,2.86-1.43,4.28-2.16
		c2.85-1.45,6.16,1.29,6.16,1.29S164.97,89.83,178,80.76c5.47-3.81,7.73-1.9,12.35-5.01c3.66-2.46,6.77-4.49,8.85-5.74
		c2.27-1.36,4.54-2.72,6.81-4.09c1.34-0.81,2.66-1.62,3.99-2.44h0c1.61-1,3.2-2.01,4.78-3.04c0.33-0.21,0.66-0.43,0.98-0.65
		c3.86-2.59,7.61-5.53,10.3-9.35c1.71-2.44,3.11-5.49,3.36-8.56C229.54,40.28,229.36,38.68,228.75,37.16z"/>
	<path class="st2" d="M154.11,187.26c-0.83-3.88-2.03-7.7-3.23-11.48c-1.17-3.68-2.45-7.32-3.82-10.92
		c-0.99-2.59-2.03-5.17-3.12-7.72c-1.9-4.45-3.96-8.83-6.16-13.14c-1.24-2.42-2.52-4.81-3.85-7.18c-1.42-2.53-2.89-5.03-4.42-7.49
		c-1.1-1.79-2.23-3.55-3.39-5.31c-0.23-0.35-0.46-0.7-0.69-1.04c-0.8-1.2-1.62-2.39-2.45-3.58c0.52-0.62,1.02-1.25,1.51-1.89
		c0.62-0.83,1.34-1.67,1.6-2.69c0.18-0.7,0.12-1.49-0.59-1.84c-0.11-0.05-0.19,0.11-0.09,0.16c0.96,0.47,0.56,1.74,0.17,2.47
		c-0.52,1-1.32,1.91-2.02,2.78c-0.24,0.3-0.48,0.6-0.73,0.89c-0.04,0.01-0.08,0.05-0.08,0.09c-0.92,1.09-1.88,2.15-2.88,3.16
		c-0.33,0.33-0.66,0.65-0.99,0.97c-0.03,0.03-0.07,0.07-0.1,0.1c-0.8,0.76-1.63,1.48-2.48,2.18c-2.22,1.84-4.54,3.56-6.68,5.5
		c-0.79,0.71-1.56,1.47-2.28,2.27c-1.22,1.36-2.29,2.86-3.03,4.52c-0.31,0.69-0.57,1.41-0.75,2.16c-0.58,2.33-0.47,4.78-0.48,7.16
		l0,0.35l0,0.23l-0.04,7.16c-0.01,2.19-0.02,4.39-0.03,6.58c-0.51-0.02-1.03-0.01-1.54,0.05c-1.22,0.13-2.42,0.43-3.6,0.78
		c-0.35,0.11-0.7,0.21-1.04,0.32c-0.51,0.16-1.02,0.33-1.54,0.49c-0.23,0.07-0.46,0.14-0.7,0.21c-0.62,0.18-1.24,0.36-1.87,0.49
		c-1.91,0.43-3.85,0.55-5.77-0.13c-1.73-0.62-3.24-1.71-4.69-2.81c-1.31-1-2.62-1.99-4.01-2.87c-2.74-1.75-5.79-3.17-9.06-3.48
		c-2.27-0.21-4.44,0.25-6.62,0.74c-1.37,0.31-2.75,0.62-4.15,0.78c-0.59,0.07-1.18,0.1-1.77,0.09c-1.14-0.02-2.27-0.21-3.36-0.6
		c-1.47-0.53-7.48-5.62-8.96-6c-1.38-0.36-2.58,0.09-3.41,1.24c-1,1.38-1.74,3.05-2.43,4.6c-0.43,0.95-0.82,1.92-1.18,2.9
		c-0.02,0.05-0.04,0.11-0.06,0.16c-0.38,1.03-1.1,4.07-1.83,7.33c-0.15,0.69-0.31,1.39-0.46,2.08c-0.75,3.41-1.41,6.66-1.63,7.78
		c-0.17,0.89-0.3,1.78-0.42,2.67c-0.01,0.05,0.02,0.09,0.07,0.11c2.99,1.04,15.52,5.74,29.86,11.19c4.01,1.52,8.15,3.11,12.28,4.68
		c10.5,4.02,20.83,8.01,28.23,10.94c1.06,0.42,2.06,0.82,2.99,1.19c3.65,1.46,6.25,2.54,7.29,3.05c1.26,0.61,2.54,1.19,3.84,1.72
		c1.48,0.6,2.98,1.14,4.5,1.6c3.79,1.15,7.71,1.8,11.7,1.72c1.12-0.02,2.24-0.11,3.34-0.27c0.63-0.09,1.25-0.2,1.87-0.34
		c1.71-0.39,3.37-0.98,4.94-1.81c2.68-1.43,5.04-3.46,6.88-5.88c0.51-0.67,0.99-1.38,1.41-2.11c0.78-1.32,1.42-2.73,1.89-4.19
		c0.18-0.58,0.34-1.16,0.47-1.75c0.19-0.85,0.31-1.7,0.38-2.55C155.07,192.97,154.71,190.07,154.11,187.26z"/>
	<g>
		<path class="st3" d="M324.43,112.25c-0.01,0.06-0.02,0.12-0.02,0.18c-9.61,0.22-19.22,0.43-28.83,0.63
			c-10.56,0.22-21.12,0.44-31.67,0.64c-9.65,0.19-19.3,0.37-28.96,0.54c-11.08,0.2-22.16,0.39-33.23,0.57
			c-3.78,0.06-7.56,0.12-11.34,0.18c0.02-0.06,0.03-0.12,0.04-0.18c0.1,0,3.3-0.05,8.12-0.13l0.47-0.01c3.5-0.06,7-0.11,10.51-0.17
			c8.48-0.14,16.96-0.29,25.44-0.44c12.25-0.22,24.5-0.45,36.74-0.69c7.92-0.16,15.85-0.32,23.77-0.49
			C305.13,112.68,314.78,112.47,324.43,112.25z"/>
		<path class="st3" d="M325.1,121.98c-0.01,0.06-0.01,0.12-0.02,0.18c-6.93,0.16-13.86,0.31-20.79,0.46
			c-12.71,0.27-25.41,0.53-38.12,0.78c-10.08,0.2-20.15,0.38-30.23,0.57c-10.65,0.19-21.3,0.37-31.95,0.55
			c-4.9,0.08-9.79,0.16-14.68,0.23c0.02-0.06,0.03-0.12,0.05-0.18c7.48-0.11,14.96-0.23,22.43-0.36c8.06-0.14,16.12-0.27,24.18-0.42
			c12.67-0.23,25.34-0.47,38.01-0.72c10.07-0.2,20.15-0.41,30.22-0.63C311.16,122.29,318.13,122.14,325.1,121.98z"/>
	</g>
	<g>
		<path class="st3" d="M318.47,175.66c-0.01,0.06-0.02,0.12-0.02,0.18c-9.61,0.22-19.22,0.43-28.83,0.63
			c-10.56,0.22-21.12,0.44-31.67,0.64c-9.65,0.19-19.3,0.37-28.96,0.54c-11.08,0.2-22.16,0.39-33.23,0.57
			c-3.78,0.06-7.56,0.12-11.34,0.18c0.02-0.06,0.03-0.12,0.04-0.18c0.1,0,3.3-0.05,8.12-0.13l0.47-0.01c3.5-0.06,7-0.11,10.51-0.17
			c8.48-0.14,16.96-0.29,25.44-0.44c12.25-0.22,24.5-0.45,36.74-0.69c7.92-0.16,15.85-0.32,23.77-0.49
			C299.17,176.09,308.82,175.88,318.47,175.66z"/>
		<path class="st3" d="M319.14,185.39c-0.01,0.06-0.01,0.12-0.02,0.18c-6.93,0.16-13.86,0.31-20.79,0.46
			c-12.71,0.27-25.41,0.53-38.12,0.78c-10.08,0.2-20.15,0.38-30.23,0.57c-10.65,0.19-21.3,0.37-31.95,0.55
			c-4.9,0.08-9.79,0.16-14.68,0.23c0.02-0.06,0.03-0.12,0.05-0.18c7.48-0.11,14.96-0.23,22.43-0.36c8.06-0.14,16.12-0.27,24.18-0.42
			c12.67-0.23,25.34-0.47,38.01-0.72c10.07-0.2,20.15-0.41,30.22-0.63C305.2,185.7,312.17,185.55,319.14,185.39z"/>
	</g>
	<path class="st7" d="M229.42,41.87c-0.25,3.07-1.65,6.12-3.36,8.56c-2.69,3.82-6.44,6.76-10.3,9.35c-1.5-2-2.19-4.56-2.63-6.98
		c-0.56-3.11-0.77-6.3-1.92-9.27c-0.59-1.52-1.34-2.96-1.86-4.51c-0.45-1.35-0.72-2.75-0.81-4.17c-0.19-2.84,0.36-5.7,1.57-8.27
		c0.11,0.11,0.23,0.22,0.35,0.32c0.17,0.44,0.42,0.84,0.75,1.2c2.03,2.18,5.41,1.86,8.03,2.75c2.42,0.82,4.63,2.26,6.36,4.15
		C227.4,36.97,228.48,39.39,229.42,41.87z"/>
	<path class="st2" d="M136.3,93.78c-0.83-0.53-1.69-1.07-2.55-1.62c-3.64-2.31-7.51-4.74-11.09-6.97c-1.03-0.65-2.04-1.27-3.01-1.88
		c-0.61-0.38-1.2-0.75-1.78-1.1c-0.05-0.03-0.1-0.06-0.15-0.09c-2.55-1.58-4.73-2.94-6.28-3.9c-1.42-0.88-2.3-1.43-2.44-1.52
		c-0.02,0-0.74,0.67-1.97,1.82c-0.63,0.59-1.39,1.31-2.25,2.12c-0.04,0.04-0.09,0.08-0.13,0.13c-5.23,4.95-14.1,13.49-20.22,19.97
		c-1.06,1.12-2.04,2.18-2.9,3.15c-1.34,1.51-2.4,2.79-3.06,3.75c-2.32,3.36-4.46,6.92-5.64,10.85c-1.07,3.57-1.33,7.36-0.91,11.06
		c0.85,7.68,4.38,14.81,9.14,20.8c3.31,4.16,7.16,7.84,11.2,11.28c0.77,0.65,1.54,1.3,2.32,1.94c0.33,0.27,0.66,0.54,0.99,0.81
		c0.96,0.79,1.93,1.56,2.9,2.33c0.73,0.58,1.46,1.15,2.19,1.73c0.04,0.03,0.07,0.06,0.11,0.09c0.06,0.04,0.16,0.02,0.15-0.07
		c0-0.02-0.01-0.05-0.01-0.07c-0.09-0.87-0.18-1.74-0.27-2.61c0.84,0.24,1.68,0.38,1.92,0.44c0.19,0.05,0.38,0.09,0.57,0.14
		c1.02,0.25,2.04,0.5,3.05,0.75c1.11,0.28,2.23,0.61,3.38,0.72c2.05,0.19,3.57-0.82,4.74-2.42c0.5-0.69,0.97-1.41,1.42-2.14
		c0.48-0.78,0.94-1.58,1.4-2.37c0.03-0.05,0.06-0.1,0.09-0.15c0.22-0.38,0.45-0.76,0.68-1.14c0.12-0.19,0.24-0.4,0.36-0.62
		c1.66-2.94,3.65-7.79,5.59-13.06c0.35-0.95,0.7-1.9,1.04-2.87c1.72-4.8,3.35-9.73,4.63-13.71c0.35-1.08,0.67-2.1,0.96-3.02
		c0.55-1.74,0.99-3.15,1.28-4.11c0.27-0.86,0.41-1.34,0.41-1.34s0.51-0.57,1.36-1.52c2.14-2.4,6.4-7.19,9.86-11.1
		c0.04-0.04,0.08-0.09,0.12-0.13c2.75-3.12,4.96-5.65,5.13-5.93C148.79,101.87,143.27,98.22,136.3,93.78z"/>
	<path class="st0" d="M283.52,120.13c-1.39-4.43-3.43-8.76-6.23-12.48c-1.32-1.76-2.83-3.38-4.51-4.8c-1.3-1.33-2.82-2.43-4.5-3.3
		c-1.54-0.8-3.13-1.5-4.7-2.23c-1.63-0.76-3.26-1.53-4.89-2.28c-1.43-0.66-3.13-1.29-4.57-0.33c-0.68,0.45-1.18,1.12-1.67,1.76
		c-0.56,0.72-1.11,1.45-1.67,2.17c0,0,0,0-0.01,0c-0.07-0.06-0.17,0.04-0.1,0.11c0.01,0,0.01,0.01,0.02,0.02
		c-0.04,0.06-0.09,0.11-0.13,0.17c-0.07,0.1,0.12,0.23,0.14,0c0.08-0.03,0.04-0.02,0.12-0.05c1.14,1.08,2.03,2.41,2.6,3.88
		c0.6,1.54,0.78,3.14,0.7,4.79c-0.05,0.93-0.12,1.85-0.07,2.78c0.05,0.88,0.2,1.76,0.41,2.61c0.15,0.63,0.32,1.25,0.5,1.87
		c0.23,1.46,0.85,2.86,1.35,4.25c0.55,1.55,1.1,3.1,1.61,4.66c1.04,3.14,1.96,6.32,2.59,9.57c0.15,0.76,0.25,1.53,0.42,2.29
		c0.14,0.64,0.35,1.35,0.81,1.84c0.31,0.33,0.77,0.5,1.18,0.22c0.48-0.33,0.61-1.02,0.67-1.55c0.08-0.75-0.01-1.5-0.11-2.24
		c-0.11-0.81-0.23-1.62-0.36-2.42c-0.27-1.62-0.6-3.23-0.99-4.82c-0.16-0.66-0.56-2.05-0.78-2.8c-0.08-0.27,0.08-0.56,0.35-0.64
		c0.15-0.04,0.29-0.09,0.44-0.13c0.25-0.07,0.51,0.05,0.61,0.28c0.52,1.15,1.97,4.38,2.57,6.06c0.85,2.35,1.48,4.77,1.68,7.27
		c0.09,1.1,0.05,2.18-0.02,3.27c-0.04,0.64-0.04,1.52,0.53,1.95c0.59,0.45,1.39,0.13,1.79-0.42c0.54-0.73,0.55-1.81,0.61-2.67
		c0.35-4.6-0.62-9.2-2.03-13.56c-0.32-1-0.67-1.98-1.03-2.96c-0.1-0.28,0.05-0.59,0.34-0.68c0.01,0,0.02-0.01,0.03-0.01
		c0.24-0.07,0.5,0.04,0.61,0.27c0.35,0.71,1.08,2.21,1.45,3.01c1.88,4.19,3.69,8.57,3.99,13.21c0.07,1.1,0.02,2.18-0.06,3.27
		c-0.05,0.64-0.06,1.52,0.5,1.96c0.58,0.45,1.39,0.15,1.79-0.39c0.55-0.73,0.57-1.8,0.65-2.67c0.41-4.6-0.49-9.21-1.85-13.59
		c-0.62-2.01-1.34-3.98-2.08-5.95c-0.11-0.28,0.05-0.59,0.34-0.68c0,0,0.01,0,0.01,0c0.24-0.07,0.5,0.04,0.61,0.27
		c0.4,0.82,0.76,1.67,1.12,2.5c1.84,4.21,3.61,8.61,3.87,13.24c0.06,1.1,0,2.18-0.09,3.27c-0.05,0.64-0.08,1.52,0.48,1.96
		c0.58,0.46,1.39,0.16,1.8-0.38c0.55-0.72,0.59-1.79,0.67-2.66c0.46-4.6-0.41-9.22-1.72-13.61c-0.87-2.91-1.94-5.74-2.99-8.59
		c0.15,0.12,0.3,0.24,0.44,0.37c1.6,1.39,2.97,3.07,3.89,4.98c0.23,0.48,0.43,0.98,0.6,1.49c0.15,0.47,0.25,0.95,0.4,1.42
		c0.19,0.58,0.57,1.41,1.3,1.32c0.84-0.1,1.04-1.22,1.1-1.88C284.16,122.48,283.88,121.27,283.52,120.13z"/>
	<path class="st6" d="M296.86,71.09c-0.06-0.05-0.12-0.1-0.18-0.16c-0.07,0.01-0.14,0.01-0.21,0.02c-2.55,0.24-5.13,0.49-7.64,0.97
		c-1.3,0.25-2.58,0.59-3.8,1.09c-1.04,0.43-2.04,0.95-3.06,1.42c-1.11,0.51-2.27,0.96-3.5,1.08c-1.23,0.11-2.42-0.2-3.63-0.37
		c-0.03,0-0.05-0.01-0.08-0.01c0.98-1.1,1.88-2.28,2.69-3.52c0.06-0.1-0.09-0.19-0.16-0.09c-0.83,1.27-1.75,2.46-2.76,3.58
		c-0.91-0.1-1.81-0.07-2.65,0.36c-0.1,0.05-0.01,0.21,0.09,0.16c0.76-0.39,1.59-0.43,2.41-0.35c-0.17,0.18-0.34,0.37-0.51,0.55
		c-0.11-0.18-0.23-0.35-0.35-0.53c-0.07-0.09-0.22,0-0.16,0.09c0.13,0.19,0.26,0.37,0.38,0.56c-0.32,0.33-0.64,0.65-0.97,0.96
		c-0.08,0.08,0.04,0.21,0.13,0.13c0.32-0.3,0.64-0.62,0.95-0.93c1.13,1.79,1.9,3.77,2.75,5.7c0.89,2.03,1.91,3.96,3.36,5.65
		c2.76,3.21,6.57,5.4,10.56,6.71c10.12,3.32,20.92,1.02,31.32,1.62c1.38,0.08,2.75,0.21,4.12,0.4c0.15,0.02,0.3,0.05,0.45,0.07
		C316.3,88.15,306.48,79.72,296.86,71.09z"/>
	<path class="st0" d="M308.78,90.14c-0.26-1.21-0.68-2.38-1.22-3.49c-1.11-2.26-2.75-4.26-4.74-5.79c-1.07-0.83-2.25-1.52-3.5-2.05
		c-0.59-0.25-1.2-0.45-1.82-0.63c-0.61-0.58-1.21-1.17-1.8-1.77c-0.58-0.59-1.14-1.2-1.69-1.82c-0.52-0.6-0.99-1.28-1.55-1.84
		c-0.52-0.53-1.19-0.32-1.84-0.2c-0.88,0.16-1.76,0.32-2.63,0.49c-2.02,0.38-4.03,0.78-6.04,1.2c-0.09,0.02-0.05,0.15,0.04,0.13
		c0.58-0.12,1.16-0.24,1.74-0.35c0,0.03,0,0.07,0,0.1c-0.01,0.01-0.02,0.03-0.02,0.05c0.04,0.49,0.06,0.98,0.05,1.48
		c-0.04,0.02-0.04,0.09,0,0.12c-0.01,0.44-0.03,0.88-0.06,1.32l-0.12-0.24c-0.04-0.08-0.16-0.01-0.12,0.07
		c0.07,0.14,0.15,0.29,0.22,0.43c-0.2,2.88-0.64,5.8,0.69,8.47c0.34,0.68,0.8,1.31,1.37,1.81c0.49,0.42,1.22,1.01,1.89,0.62
		c0.75-0.44,0.71-1.38,0.61-2.13c-0.16-1.14-0.23-2.27-0.16-3.42c0.08-1.26,0.35-2.47,0.63-3.69c0.06-0.29,0.12-0.58,0.17-0.87
		c1.31,1.75,2.76,3.37,4.35,4.87c0.96,0.91,1.95,1.81,2.83,2.81c0.9,1.02,1.61,2.14,2.17,3.37c0.55,1.2,1,2.45,1.7,3.58
		c0.25,0.41,0.56,0.96,1.06,1.13c0.4,0.13,0.76-0.09,0.95-0.45c0.26-0.49,0.25-1.12,0.18-1.65c-0.08-0.69-0.29-1.35-0.54-2
		c-0.47-1.23-1.01-2.44-1.62-3.61c-0.93-1.8-2.01-3.52-3.23-5.15c1.24-0.03,2.44,0.72,3.41,1.45c1.26,0.95,2.39,2.07,3.34,3.32
		c0.92,1.21,1.62,2.56,2.35,3.89c0.39,0.71,0.79,1.41,1.25,2.07c0.26,0.38,0.61,0.9,1.14,0.83
		C309.28,92.49,308.92,90.79,308.78,90.14z"/>
	<path class="st4" d="M322.22,110.03c-2.33,4.83,0.17,10.11,2.93,14.33c1.24,1.89,2.58,3.74,3.75,5.66
		c0.02-0.32,0.05-0.64,0.07-0.96c0.57-7.65,0.98-7.11,1.75-15.58c0.23-2.57,0.79-8.16,0.93-9.93
		C327.55,104.09,323.86,106.63,322.22,110.03z"/>
	<path class="st4" d="M320.94,168.04c-1.93,1.1-3.3,2.91-4.05,4.99c-1.79,4.97,0.02,10.22,2.32,14.69c1.08,2.09,2.28,4.12,3.36,6.21
		c0.03,0,0.04,0,0.05,0c0.03,0,0.05-0.02,0.07-0.04c0.03,0,0.06,0,0.09,0c0.04-0.5,0.07-1,0.11-1.5c0.57-7.65,0.98-7.11,1.75-15.58
		c0.23-2.51,0.76-7.94,0.92-9.82C323.96,166.83,322.34,167.23,320.94,168.04z"/>
	<path class="st2" d="M171.17,178.39c-0.37-4.05-1.94-7.87-3.8-11.44c-1.94-3.74-4.12-7.37-6.34-10.95
		c-2.21-3.55-4.52-7.05-6.92-10.47c-1.09-1.55-2.66-3.66-4.5-6.07c-2.81-3.67-6.25-8.03-9.57-12.15c-2.32-2.88-4.58-5.64-6.53-7.97
		c-0.8-0.95-1.54-1.83-2.22-2.62c-0.58-0.68-1.11-1.29-1.58-1.82c-0.29-0.33-0.72,0.45-1.25,1.66c-0.84,1.96-1.93,5.06-3.04,6.41
		c-0.4,0.49-0.8,0.75-1.2,0.65c-1.46-0.35-2.9-0.72-4.35-1.09c-0.44-0.11-0.89-0.23-1.33-0.34c-0.3-0.08-0.6-0.15-0.91-0.22
		c-0.84-0.2-1.67-0.37-2.51-0.46c-1.12-0.12-2.24-0.12-3.39,0.09c-1.88,0.34-3.67,1.12-5.28,2.13c-0.78,0.49-1.52,1.04-2.22,1.63
		c-1.37,1.16-2.59,2.5-3.69,3.94c-0.64,0.84-1.23,1.7-1.77,2.59c-2.12,3.43-3.74,7.2-5.01,11.03c-0.84,2.54-1.51,5.13-2.01,7.76
		c-0.29,1.54-0.52,3.08-0.69,4.64c-0.02,0.16-0.06,0.28-0.12,0.36c-0.64,0.87-3.52-3.1-3.43-1.27c0.03,0.58,1.72,1.99,3.99,3.67
		c0.87,0.65,1.84,1.33,2.83,2.03c1.16,0.82,2.36,1.64,3.5,2.43c2.26,1.57,4.28,2.97,5.27,3.8c0.3,0.25,0.51,0.45,0.6,0.59
		c0.43,0.64-1.06,1.09-2.82,1.45c-0.09,0.02-0.17,0.04-0.26,0.05c-2.39,0.48-5.13,0.81-4.24,1.31c1.92,1.06,3.84,2.09,5.76,3.16
		c3.99,2.22,7.94,4.51,11.86,6.85c1.74,1.04,3.46,2.09,5.18,3.15c0.84,0.52,1.69,1.04,2.53,1.55c1.22,0.75,2.45,1.49,3.68,2.22
		c2.77,1.65,5.62,3.23,8.56,4.61c0.7,0.33,1.4,0.64,2.11,0.95c4.14,1.77,8.46,3.08,12.99,3.55c0.85,0.09,1.73,0.14,2.61,0.16
		c0.68,0.02,1.36,0.01,2.05-0.02c0.37-0.02,0.74-0.04,1.12-0.07c2.74-0.22,5.47-0.84,7.91-1.98c0.52-0.24,1.03-0.51,1.52-0.8
		c1.73-1.04,3.26-2.39,4.47-4.11C170.85,185.89,171.5,182.04,171.17,178.39z"/>
	<path class="st2" d="M221.27,44.61c-1.56-1.04-3.12-2.08-4.67-3.12c-0.03-0.02-0.06-0.02-0.09,0c-0.41,0.22-0.82,0.42-1.24,0.63
		c-1.57,0.47-3.13,0.94-4.7,1.41c-0.01,0-0.02,0.01-0.03,0.01c-1.79,0.54-3.59,1.08-5.42,1.44h0c-0.13,0.02-0.26,0.05-0.39,0.07
		c-1.37,0.24-4.98,0.01-8.58-4.05c-0.83-0.94-1.66-2.08-2.46-3.46c-0.83-1.43-1.63-3.12-2.37-5.11c-0.43-1.15-0.64-3.52-0.68-6.34
		c-0.03-2.76,0.12-5.93,0.42-8.81c0.35-3.37,0.93-6.32,1.69-7.68c0.02-0.04,0.01-0.09-0.03-0.12c-0.28-0.18-3.73-1.65-5.29-1.87
		c-0.1-0.02-0.11-0.02-0.22,0.26c-2.14,4.97-5.66,9.03-10.04,12.17c-1.17,0.83-2.38,1.59-3.63,2.27c-3.4,1.87-7.07,3.2-10.84,4.12
		c-0.63,0.15-1.26,0.29-1.89,0.42c-3.2,0.65-6.45,1.03-9.71,1.22c-1.02,0.06-2.05,0.1-3.07,0.13c-0.6,0.02-1.2,0.03-1.79,0.03
		c-1.24,0.01-2.42-0.03-3.57-0.36c-0.41-0.12-0.82-0.27-1.23-0.48c-1.22-0.61-2.35-1.04-3.68-0.48c-1.31,0.55-2.36,1.65-3.4,2.58
		c-2.52,2.25-5.01,4.53-7.49,6.82c-4.96,4.59-6.02,5.54-10.83,10.28c-2.43,2.39-4.83,4.81-7.22,7.24c-0.55,0.57-1.16,1.11-1.67,1.72
		c-0.3,0.36-0.45,0.76-0.29,1.21c0.22,0.6,0.81,1.11,1.24,1.57c0.47,0.5,0.95,0.98,1.44,1.45c0.12,0.11,0.24,0.23,0.36,0.34
		c0.71,0.66,1.43,1.29,2.18,1.9c2.19,1.79,4.54,3.39,6.94,4.89c0.77,0.48,1.54,0.95,2.32,1.42c0.53,0.32,1.06,0.63,1.59,0.94
		c3.33,1.97,6.71,3.88,9.94,6.03c0.72,0.48,1.44,0.97,2.14,1.48c0.73,0.53,1.45,1.07,2.15,1.63c2.37,1.88,4.54,3.99,6.74,6.06
		c0.76,0.72,1.53,1.43,2.3,2.14c1.61,1.46,3.28,2.85,5.08,4.09c1.73,1.19,3.53,2.26,5.39,3.24h0c0.83,0.44,1.67,0.85,2.51,1.26
		c2.78,1.32,5.65,2.48,8.52,3.57c1.4,0.53,2.8,1.05,4.2,1.57c0.04,0.01,0.08-0.01,0.1-0.04c5.5-8.78,8.01-13.32,15.08-20.89
		c0.84-0.9,1.7-1.79,2.56-2.67c0.52-0.11,1.05-0.22,1.57-0.32c3.61-0.74,7.49-1.49,10.63-3.54c1.46-0.96,2.64-2.22,3.41-3.8
		c0.83-1.72,1.25-3.6,1.87-5.4c1.3-3.82,3.05-7.53,5.24-10.93c2.18-3.38,5.03-6.59,8.92-7.96
		C221.32,44.75,221.34,44.66,221.27,44.61z"/>
	<path class="st0" d="M258.22,62.69c1.37-0.24,2.53-1.06,3.49-2.01c2.04-2.03,3.21-4.71,4.33-7.28c1.25-2.85,2.35-5.77,3.13-8.77
		c1.52-5.81,1.82-12.08-0.28-17.79c-0.91-2.47-2.27-4.84-4.23-6.67c-1.37-1.28-3.04-2.25-4.86-2.74c0.26,0.05,0.51,0.09,0.77,0.14
		c0.09,0.02,0.12-0.11,0.04-0.13c-3.35-0.61-6.71-1.18-10.08-1.71c-3.29-0.51-6.59-1.04-9.91-1.38c-3.3-0.34-6.65-0.42-9.93,0.21
		c-3.14,0.6-6.19,1.71-9.12,2.92c-5.06,2.08-10.22,5.32-11.86,10.72c-1.67,5.46,1.74,10.94,5.13,15.07
		c3.45,4.19,7.81,7.64,12.56,10.35c5.3,3.03,23.8,6.8,29.73,8.35c3.06,0.8-6.53-0.2-3.41,0.37
		C255.19,62.62,256.72,62.95,258.22,62.69z"/>
	<path class="st4" d="M313.32,82.49c-1.8-3.8-4.27-7.12-7.21-10.11c-5.45-5.54-12.1-9.94-16.83-16.18
		c-1.13-1.49-2.13-3.09-2.93-4.78c-1-2.13-1.63-4.39-2.08-6.69c-0.49-2.46-0.8-4.94-1.31-7.39c-0.48-2.3-1.16-4.54-2.13-6.69
		c-1.81-4.03-4.49-7.66-7.83-10.56c-3.3-2.86-7.2-4.98-11.33-6.39c-8.35-2.84-25.71-0.34-29.24,0.5c-1.94,0.46-3.9,0.14-5.86-0.07
		c-0.1-0.01-0.03,0.09,0.03,0.18c0.84,1.24,2.37,1.7,3.52,1.84c0.97,0.12,1.97,0.26,2.9,0.59c0.95,0.35,1.79,0.93,2.24,1.86
		c0.09,0.18,0.15,0.36,0.21,0.55c0,0.19,0,0.38,0.02,0.56c0.03,0.5,0.12,1,0.27,1.48c0,0.09,0,0.18,0,0.28
		c0,0.07,0.06,0.09,0.11,0.08c0.38,1.05,1.04,1.97,2.03,2.57c1.65,1.01,3.68,1.13,5.36,2.11c1.63,0.96,2.93,2.39,3.89,4.01
		c2.33,3.94,2.38,8.65,1.99,13.08c-0.42,4.7-1.35,9.46-0.54,14.17c0.39,2.31,1.22,4.52,2.11,6.69c0.79,1.93,1.57,3.89,2.61,5.7
		c0.99,1.72,2.24,3.25,3.89,4.37c1.65,1.12,3.54,1.83,5.45,2.36c4.45,1.24,9.11,1.77,13.72,1.89c2.42,0.06,4.84,0.02,7.26,0.22
		c2.29,0.19,4.53,0.67,6.69,1.45c4.13,1.48,22.23,11.04,28.9,13.28c1.91,0.64,3.83,1.26,5.76,1.85c0.07,0.02,0.12-0.05,0.11-0.11
		C324.05,90.51,315.38,86.84,313.32,82.49z"/>
	<path class="st4" d="M232.41,29.33c0.07-0.3,0.21-0.95-0.14-1.12c-0.52-0.25-1.12,0.3-1.33,0.71c-1.14,2.2-0.93,3.3-0.61,4.68
		c0.14,0.61,0.81,2.56,1.79,1.79c0.44-0.36,0.35-0.98,0.23-1.46c-0.2-0.8-0.59-1.6-0.55-2.44
		C231.83,30.71,232.24,30.06,232.41,29.33z"/>
	<path class="st4" d="M233.53,47.25c0-0.3-0.02-0.97-0.4-1.06c-0.57-0.12-1.01,0.56-1.12,1.02c-0.57,2.41-0.09,3.43,0.55,4.68
		c0.28,0.55,1.42,2.29,2.17,1.3c0.34-0.45,0.1-1.03-0.13-1.48c-0.39-0.73-0.96-1.41-1.13-2.23C233.3,48.74,233.54,48,233.53,47.25z"
		/>
	<path class="st7" d="M237.15,43.66c-1.66,0.17-3.31,0.34-4.97,0.51c-1.65,0.17-3.31,0.42-4.97,0.47c-0.79,0.02-1.63-0.04-2.34-0.4
		c-0.83-0.43-1.11-1.12-1.16-2.03c-0.1-1.69-0.04-3.39,0.13-5.07c0.01-0.11-0.16-0.16-0.18-0.04c-0.18,1.77-0.28,3.59-0.12,5.36
		c0.06,0.67,0.28,1.26,0.83,1.68c0.52,0.4,1.18,0.58,1.83,0.65c0.81,0.09,1.63,0.01,2.44-0.07c0.95-0.1,1.89-0.19,2.84-0.29
		l5.68-0.58C237.27,43.83,237.27,43.65,237.15,43.66z"/>
	<path class="st4" d="M242.67,33.89c-0.34-1.28-0.89-2.51-1.39-3.75c-0.27-0.67-0.51-1.36-0.82-2.02c-0.2-0.44-0.49-0.9-0.98-1.16
		c-0.26-0.13-0.58-0.19-0.89-0.16c-0.36-0.06-0.78,0.04-1.06,0.26c-0.38,0.31-0.49,0.78-0.54,1.2c-0.06,0.61-0.06,1.23-0.08,1.84
		c-0.05,1.32-0.18,2.65-0.09,3.96c0.08,1.06,0.36,2.13,1.09,3.02c0.6,0.73,1.61,1.42,2.74,1.43c1.03,0.01,1.72-0.66,2.04-1.42
		C243.12,36.07,242.95,34.92,242.67,33.89z"/>
	<path class="st4" d="M239.41,52.16c0.46,1.14,1.14,2.22,1.75,3.31c0.33,0.59,0.64,1.2,1.01,1.77c0.25,0.38,0.57,0.78,1.09,0.96
		c0.27,0.09,0.6,0.11,0.9,0.05c0.37,0.01,0.78-0.12,1.02-0.36c0.35-0.33,0.41-0.77,0.42-1.17c0-0.57-0.06-1.14-0.1-1.71
		c-0.08-1.22-0.09-2.47-0.31-3.67c-0.18-0.97-0.57-1.93-1.39-2.67c-0.67-0.61-1.74-1.13-2.86-1.01c-1.03,0.11-1.65,0.81-1.88,1.54
		C238.74,50.19,239.03,51.24,239.41,52.16z"/>
	<path class="st7" d="M219.55,35.39c-0.12-0.2-0.28-0.36-0.43-0.53c-0.37-0.42-0.44-0.73-0.32-1.29c0.18-0.8,0.4-1.59,0.6-2.38
		c0.01-0.06-0.03-0.11-0.09-0.11c-0.38,0-1.48,1.25-1.74,1.7c-0.36,0.64-0.68,1.4-0.7,4.22c-0.01,1.12,0.23,2.4,0.98,3.29
		c0.37,0.43,1.59,1.13,1.85,0.23c0.32-1.11-0.53-2.34-1.16-3.21C219.45,37.22,220.04,36.24,219.55,35.39z"/>
	<path class="st0" d="M237.64,17.88c-0.35-0.65-0.87-1.22-1.58-1.47c-0.8-0.29-1.71-0.21-2.54-0.11c-1.39,0.16-2.81,0.58-3.86,1.51
		c-0.06-0.05-0.18,0.03-0.13,0.12c0,0,0,0,0,0c-0.18,0.18-0.35,0.37-0.51,0.58c-0.07,0.09,0.06,0.22,0.13,0.12
		c0.14-0.19,0.3-0.37,0.46-0.54c0.49,0.94,0.98,1.88,1.46,2.82c0.25,0.47,0.49,0.94,0.74,1.42c0.2,0.39,0.37,0.91,0.68,1.23
		c0.22,0.23,0.49,0.2,0.78,0.16c0.45-0.06,0.89-0.17,1.31-0.31c0.8-0.28,1.55-0.69,2.21-1.23c0.6-0.49,1.25-1.13,1.39-1.93
		C238.32,19.46,238.01,18.58,237.64,17.88z"/>
	<path class="st8" d="M269,70.22c-4.43-2.39-7.66-6.5-9.52-11.13c-0.94-2.34-1.54-4.82-1.78-7.34c-0.28-2.93-0.1-5.87-0.08-8.8
		c0.03-3.26-0.15-6.56-1.34-9.62c-0.04-0.11-0.22-0.06-0.17,0.05c2.24,5.77,0.87,12.04,1.38,18.04c0.41,4.88,2.15,9.72,5.16,13.6
		c1.7,2.19,3.82,4.04,6.26,5.36C269.01,70.44,269.11,70.28,269,70.22z"/>
	<path class="st8" d="M263.44,19.42c-1.09-0.78-2.27-1.42-3.5-1.94c-0.11-0.04-0.15,0.13-0.05,0.17c4.29,1.78,7.78,5.29,9.63,9.54
		c0.53,1.21,0.91,2.48,1.16,3.78c0.02,0.11,0.2,0.07,0.17-0.05C269.99,26.31,267.25,22.14,263.44,19.42z"/>
	<path class="st8" d="M264.45,26.56c-0.06-0.1-0.22-0.01-0.16,0.09c2.29,3.61,3.22,7.99,2.6,12.22c-0.02,0.11,0.16,0.16,0.17,0.05
		C267.7,34.64,266.77,30.22,264.45,26.56z"/>
	<path class="st3" d="M230.64,93.7l0.45-0.69l-10.35-6.69l0.22-0.44l51.94,1.26l11.87,7.68C276.64,94.65,247.21,94.04,230.64,93.7z"
		/>
	<path class="st7" d="M233.64,20.21c-0.94-0.87-2.86-0.46-3.37-1.82c-0.04-0.11-0.21-0.06-0.17,0.05c0.41,1.11,1.67,1.11,2.62,1.45
		c1.32,0.47,1.69,1.84,1.54,3.12c-0.01,0.12,0.17,0.11,0.18,0C234.56,22.03,234.4,20.9,233.64,20.21z"/>
	<path class="st8" d="M143.48,108.1c-0.04,0.04-0.08,0.09-0.12,0.13c-1.41-1.07-2.83-2.14-4.25-3.19
		c-6.75-5.05-13.59-9.98-20.51-14.8c-1.72-1.2-3.45-2.4-5.19-3.58c-0.05-0.03-0.1-0.07-0.15-0.1c-2.86-1.95-5.73-3.89-8.62-5.81
		c0.04-0.04,0.09-0.09,0.13-0.13c1.53,1.01,3.06,2.04,4.58,3.06c1.35,0.91,2.69,1.82,4.04,2.74c0.05,0.03,0.1,0.07,0.15,0.1
		c5.59,3.82,11.13,7.73,16.62,11.7C134.63,101.47,139.07,104.76,143.48,108.1z"/>
	<path class="st9" d="M230.07,141.83c-0.08-1.83-0.22-3.65-0.38-5.48c-0.19-2.1-0.36-4.21-0.63-6.3c-0.52-3.9-1.71-7.65-3.27-11.26
		c-0.41-0.95-0.81-1.93-1.32-2.84c-0.38-0.69-0.88-1.3-1.62-1.59c-0.19,0.05-0.39,0.07-0.59,0.08c-0.08,0-0.15-0.01-0.22-0.04
		c-1.44-0.01-2.87,0-4.31,0.02c-0.05,0.02-0.11,0.03-0.17,0.03c-0.51,0-1-0.03-1.49,0.12c0.75,0.33,1.22,1.01,1.59,1.72
		c0.41,0.8,0.77,1.63,1.13,2.45c0.77,1.78,1.46,3.59,2.03,5.44c1.16,3.83,1.52,7.76,1.88,11.73c0.21,2.29,0.38,4.58,0.46,6.88
		c0,0.08,0.1,0.12,0.15,0.06c0.48-0.51,0.98-0.99,1.51-1.44c0.28-0.24,0.57-0.46,0.86-0.68c0.13-0.1,0.26-0.19,0.39-0.28
		c0.28-0.2,0.33-0.26,0.69-0.21c0.34,0.05,0.41,0.12,0.65,0.33c0.16,0.13,0.31,0.27,0.47,0.4c0.27,0.23,0.53,0.46,0.8,0.69
		c0.27,0.23,0.53,0.46,0.8,0.69c0.14,0.12,0.28,0.31,0.48,0.3c0.03,0,0.07-0.02,0.08-0.06c0.01-0.01,0.02-0.03,0.02-0.05
		c0.01-0.22,0.02-0.44,0.02-0.66C230.08,141.86,230.08,141.85,230.07,141.83z"/>
	<path class="st6" d="M300.35,193.32c-0.08-1.83-0.22-3.65-0.38-5.48c-0.19-2.1-0.36-4.21-0.63-6.3c-0.24-1.85-0.61-3.56-1.13-5.34
		c-2.54,0.11-6.85,0.19-6.92,0.16c1,3.61,1.34,7.3,1.67,11.03c0.21,2.29,0.38,4.58,0.46,6.88c0,0.08,0.1,0.12,0.15,0.06
		c0.48-0.51,0.98-0.99,1.51-1.44c0.28-0.24,0.57-0.46,0.86-0.68c0.13-0.1,0.26-0.19,0.39-0.28c0.28-0.2,0.33-0.26,0.69-0.21
		c0.34,0.05,0.41,0.12,0.65,0.33c0.16,0.13,0.31,0.27,0.47,0.4c0.27,0.23,0.53,0.46,0.8,0.69c0.27,0.23,0.53,0.46,0.8,0.69
		c0.14,0.12,0.28,0.31,0.48,0.3c0.03,0,0.07-0.02,0.08-0.06c0.01-0.01,0.02-0.03,0.02-0.05c0.01-0.22,0.02-0.44,0.02-0.66
		C300.36,193.35,300.36,193.33,300.35,193.32z"/>
	<path class="st8" d="M119.08,184.08c-4.14-5.76-9.13-10.89-14.77-15.18c-1.63-1.24-3.32-2.41-5.05-3.5
		c-0.09-0.06-0.18,0.09-0.09,0.15c5.97,3.78,11.38,8.44,15.98,13.8c1.33,1.55,2.59,3.16,3.78,4.81
		C119,184.26,119.15,184.17,119.08,184.08z"/>
	<path class="st4" d="M152.06,49.11c-5.34-1.18-10.54-2.97-15.46-5.36c-1.39-0.67-2.76-1.4-4.1-2.16c-0.1-0.05-0.18,0.09-0.09,0.15
		c4.74,2.7,9.8,4.85,15.04,6.37c1.51,0.44,3.03,0.83,4.57,1.16C152.12,49.3,152.16,49.14,152.06,49.11z"/>
	<path class="st7" d="M13.52,170.33c-2.21,1.63-4.6,2.98-7.14,4.02c-0.07-0.03-0.13-0.07-0.19-0.11c2.57-1.05,5.01-2.41,7.25-4.06
		C13.52,170.12,13.61,170.27,13.52,170.33z"/>
	<path class="st7" d="M10.01,168.92c-1.59,1.07-3.27,1.98-5.05,2.69c-0.1,0.04-0.06,0.21,0.05,0.17c1.79-0.72,3.49-1.63,5.09-2.71
		C10.19,169.01,10.11,168.86,10.01,168.92z"/>
	<path class="st7" d="M7.51,166.59c-1.41,0.84-2.88,1.6-4.38,2.26c-0.1,0.04-0.01,0.19,0.09,0.15c1.5-0.67,2.96-1.42,4.38-2.26
		C7.69,166.68,7.6,166.53,7.51,166.59z"/>
	<g>
		<path class="st10" d="M148.03,28.19c-2.01,1.83-4.01,3.66-6.01,5.49c-5.53,5.09-11.02,10.21-16.47,15.38
			c-4.52,4.29-9.02,8.61-13.48,12.96c-0.75-0.61-1.47-1.24-2.18-1.9c1.93-1.9,3.87-3.81,5.8-5.71c5.21-5.13,10.42-10.26,15.63-15.38
			c3.78-3.72,7.56-7.44,11.34-11.17c1.15,0.33,2.33,0.37,3.57,0.36C146.84,28.21,147.44,28.2,148.03,28.19z"/>
		<path class="st10" d="M173.54,22.3c-0.53,0.56-1.08,1.1-1.6,1.65c-4.17,4.38-8.49,8.61-12.92,12.72
			c-4.45,4.13-9.01,8.15-13.64,12.09c-4.61,3.92-9.3,7.77-14.01,11.57c-3.33,2.68-6.68,5.35-10.03,8.01
			c-0.78-0.46-1.55-0.94-2.32-1.42c3.88-3,7.75-6.02,11.6-9.06c4.54-3.59,9.08-7.19,13.39-11.05c4.14-3.71,8.02-7.68,11.68-11.87
			c2.42-2.77,4.75-5.62,7.01-8.51C166.47,25.51,170.14,24.17,173.54,22.3z"/>
		<path class="st10" d="M190.63,26.08c-1.36,1.64-2.75,3.26-4.16,4.85c-4.22,4.75-8.68,9.28-13.29,13.65
			c-4.63,4.38-9.41,8.6-14.27,12.71c-4.89,4.14-9.86,8.18-14.85,12.2c-3.02,2.43-6.05,4.86-9.07,7.28c-0.7-0.51-1.42-1-2.14-1.48
			c3.06-2.61,6.08-5.26,9.07-7.93c4.65-4.16,9.23-8.4,13.73-12.72c4.5-4.32,8.93-8.71,13.28-13.19c4.35-4.47,8.62-9.02,12.81-13.64
			c3.15-3.48,6.25-6.99,9.31-10.55C190.75,20.15,190.6,23.33,190.63,26.08z"/>
		<path class="st10" d="M196.14,41c-0.44,0.45-0.9,0.9-1.36,1.34c-2.06,1.96-4.19,3.85-6.29,5.76
			c-7.89,7.18-15.78,14.36-23.66,21.54c-3.94,3.59-7.89,7.18-11.83,10.77c-1.95,1.78-3.9,3.55-5.85,5.33
			c-0.32,0.29-0.64,0.58-0.96,0.87c-0.78-0.7-1.54-1.42-2.3-2.14c3.03-2.44,6.03-4.92,9-7.45c4.02-3.42,7.98-6.91,11.87-10.47
			c3.91-3.58,7.76-7.22,11.55-10.94c3.76-3.7,7.46-7.46,11.09-11.29c2.12-2.24,4.22-4.5,6.29-6.78
			C194.48,38.92,195.31,40.06,196.14,41z"/>
		<path class="st10" d="M210.54,43.53c-3.97,3.87-7.98,7.7-11.82,11.7c-2,2.09-3.95,4.23-5.78,6.47c-1.85,2.25-3.61,4.57-5.53,6.76
			c-3.22,3.69-6.88,6.95-10.61,10.11c-3.71,3.14-7.5,6.2-11.04,9.53c-2.35,2.21-4.6,4.55-6.59,7.09c-0.85-0.4-1.68-0.82-2.51-1.26
			c3.22-2.95,6.42-5.92,9.58-8.93c7.57-7.19,14.97-14.54,22.21-22.06c5.67-5.89,11.23-11.88,16.68-17.96h0
			C206.95,44.62,208.75,44.07,210.54,43.53z"/>
	</g>
	<path class="st0" d="M253.58,104.24c0.72-0.94,8.93-2.82,11.02-6.05c0,0-47.88-30.23-51.86-32.66c-3.67-2.24-7.03-4.89-10.03-7.97
		c-5.76-5.91-24.17-49.01-24.48-49.73c-5.57,4.16-21.42,14.38-22.17,14.84c5.12,7.37,20.97,39.13,26.61,45.85
		c2.66,3.17,5.64,6.09,9,8.53c3.69,2.69,7.78,4.58,12.06,6.13C213.52,86.72,249.89,101.83,253.58,104.24z"/>
	<g>
		<path class="st10" d="M138.86,214.13c-0.61,0.14-1.24,0.25-1.87,0.34c-0.02-1.91-0.14-3.82-0.35-5.72
			c-0.58-5.32-1.57-10.59-2.42-15.87c-0.09-0.53-0.17-1.07-0.26-1.6c-1.55-9.73-2.9-19.54-5.1-29.15
			c-1.12-4.89-2.58-9.66-4.33-14.36c-0.23-0.62-0.47-1.24-0.71-1.86c-1.47-3.83-3.05-7.63-4.53-11.46c-1.1-2.86-2.13-5.74-3.01-8.66
			c-0.43-1.41-0.82-2.84-1.17-4.27c-1.13-4.64-1.81-9.38-1.72-14.22c0.15-8.35,2.31-16.63,6.25-23.99c0.97,0.6,1.98,1.23,3.01,1.88
			c-0.13,0.32-0.25,0.64-0.37,0.96c-3.49,9.18-5,19.09-4.49,28.89c0.13,2.4,0.37,4.79,0.74,7.17c0.07,0.47,0.15,0.93,0.23,1.4
			c0.36,2.04,0.81,4.06,1.35,6.06c1.24,4.57,2.99,8.98,4.75,13.38c0.17,0.42,0.34,0.84,0.5,1.26c1.93,4.85,3.73,9.72,5.04,14.78
			c1.33,5.14,2.27,10.36,3.09,15.6c0.92,5.84,1.77,11.69,2.57,17.55c0.66,4.83,1.29,9.66,1.89,14.5
			C138.27,209.19,138.56,211.66,138.86,214.13z"/>
		<path class="st10" d="M153.97,200.14c-0.47,1.46-1.11,2.87-1.89,4.19c-0.06-2.32-0.16-4.63-0.32-6.95
			c-0.03-0.49-0.07-0.97-0.1-1.46c-0.7-9.3-2.29-18.5-5.2-27.38c-2.92-8.91-6.85-17.44-10.36-26.13c-0.75-1.86-1.49-3.73-2.19-5.61
			c-0.94-2.52-1.83-5.06-2.61-7.64c-0.29-0.95-0.57-1.91-0.84-2.87c-0.89-3.2-1.62-6.45-2-9.74c-0.05-0.45-0.1-0.9-0.14-1.36
			c-0.41-4.75,0.18-9.41,1.64-13.95c1.01-3.13,2.35-6.14,3.79-9.11c0.87,0.55,1.72,1.09,2.55,1.62c-2.03,3.48-3.12,7.43-3.85,11.37
			c-0.7,3.8-1.2,7.69-1.17,11.58c0,0.75,0.03,1.5,0.07,2.25c0.07,1.1,0.2,2.17,0.38,3.23c0.61,3.59,1.83,6.99,3.3,10.37
			c1.84,4.22,3.61,8.44,5.1,12.8c1.33,3.9,2.56,7.83,3.8,11.76c0.2,0.63,0.4,1.26,0.6,1.9c1.44,4.55,2.91,9.09,4.32,13.65
			c1.41,4.56,2.72,9.16,3.6,13.85c0.58,3.1,1,6.23,1.26,9.37C153.83,197.32,153.92,198.73,153.97,200.14z"/>
		<path class="st10" d="M164.26,193.05c-0.49,0.29-1,0.56-1.52,0.8c-0.1-0.84-0.2-1.68-0.32-2.52c-0.9-6.28-2.58-12.38-4.57-18.4
			c-1.97-5.96-4.17-11.85-5.87-17.89c-0.85-3-1.52-6.06-2.59-9c-1.06-2.89-2.59-5.55-4.16-8.18c-1.99-3.33-4.1-6.81-5.2-10.56
			c3.32,4.12,6.76,8.48,9.57,12.15c2.33,5.81,4.48,11.69,6.37,17.66c2.02,6.38,3.76,12.86,5.22,19.39
			C162.41,181.99,163.44,187.51,164.26,193.05z"/>
		<path class="st10" d="M122.04,189.74c-0.09-1.76-0.19-3.53-0.32-5.3c-0.58-8.26-1.58-16.53-3.3-24.61
			c-0.06-0.29-0.13-0.58-0.19-0.87c-0.98-4.41-2.31-8.75-4.25-12.83c-2.04-4.29-4.65-8.28-6.66-12.59c-0.05-0.11-0.1-0.22-0.15-0.33
			c-1.16-2.54-2.15-5.17-2.94-7.85c-1.97-6.65-2.71-13.64-1.83-20.55c1.2-9.38,4.99-18.15,9.03-26.62c-1.42-0.88-2.3-1.43-2.44-1.52
			c-0.02,0-0.74,0.67-1.97,1.82c-1.44,2.93-2.83,5.89-4.17,8.88c-2.12,4.73-4.28,9.54-5.43,14.62c-2.08,9.19-0.14,18.62,3.11,27.31
			c0.28,0.74,0.56,1.47,0.86,2.2c0.9,2.22,1.87,4.4,2.89,6.56c3.33,7.07,7.11,13.94,9.98,21.22c0.51,1.31,0.99,2.63,1.43,3.96
			c1.19,3.58,2.09,7.24,2.65,10.98c0.43,2.87,0.7,5.76,0.84,8.67c0.13,2.61,0.16,5.21,0.12,7.82c-0.09,6.94-0.72,13.86-1.87,20.7
			c1.48,0.6,2.98,1.14,4.5,1.6C122.39,205.26,122.42,197.5,122.04,189.74z"/>
		<path class="st10" d="M95.55,164.37c-0.33-0.27-0.66-0.54-0.99-0.81c-0.78-0.64-1.55-1.29-2.32-1.94
			c-0.23-1.18-0.47-2.37-0.74-3.54c-0.18-0.8-0.37-1.6-0.56-2.4c-0.39-1.58-0.8-3.15-1.25-4.72c-0.74-2.58-1.57-5.13-2.47-7.66
			c-0.92-2.55-1.92-5.07-2.76-7.64c-1.55-4.77-2.59-9.7-3.13-14.69c-0.6-5.68-0.54-11.44,0.18-17.1c0.86-0.97,1.84-2.03,2.9-3.15
			c-0.17,1.19-0.27,2.38-0.31,3.58c-0.16,5.11,0.85,10.14,1.98,15.1c0.61,2.67,1.26,5.33,1.79,8.01c0.52,2.62,0.87,5.26,1.15,7.92
			c0.29,2.83,0.63,5.65,1.16,8.44c0.44,2.32,0.98,4.62,1.57,6.9c0.09,0.35,0.18,0.7,0.27,1.04c0.74,2.8,1.52,5.6,2.31,8.38
			C94.74,161.53,95.14,162.95,95.55,164.37z"/>
	</g>
	<path class="st10" d="M102.33,200.24c-1.61-2.71-3.15-5.47-4.57-8.29c-1.36-2.72-2.51-5.58-4.28-8.07
		c-1.74-2.45-3.97-4.52-6.12-6.61c-2.21-2.15-4.42-4.3-6.66-6.42c-4.49-4.25-9.09-8.4-13.96-12.21c-1.38-1.08-2.78-2.12-4.21-3.14
		c-1.37,0.31-2.75,0.62-4.15,0.78c-0.59,0.07-1.18,0.1-1.77,0.09c1.16,0.97,2.35,1.91,3.55,2.82c4.54,3.45,9.31,6.6,13.79,10.14
		c2.2,1.74,4.33,3.58,6.31,5.57c2.38,2.41,4.52,5.04,6.59,7.72c4.04,5.24,8.03,10.53,11.83,15.95c1.59,2.26,3.14,4.56,4.62,6.89
		c1.06,0.42,2.06,0.82,2.99,1.19C104.95,204.54,103.62,202.41,102.33,200.24z M66.93,189.07c-2.06-1.38-4.01-2.89-5.77-4.65
		c-1.69-1.69-3.23-3.52-4.83-5.29c-1.59-1.76-3.25-3.43-5.11-4.9c-1.8-1.42-3.74-2.66-5.79-3.7c-2.13-1.08-4.39-1.81-6.59-2.71
		c-1.2-0.49-2.39-1.07-3.44-1.82c-0.15,0.69-0.31,1.39-0.46,2.08l3.45,1.92c2.25,1.25,4.52,2.48,6.63,3.97
		c3.88,2.73,7.16,6.19,10.54,9.49c1.64,1.61,3.31,3.18,5.08,4.64c0.72,0.59,1.45,1.17,2.19,1.72c4.01,1.52,8.15,3.11,12.28,4.68
		c-0.65-0.48-1.31-0.94-1.97-1.4C71.09,191.72,68.98,190.45,66.93,189.07z"/>
</g>
</svg>
