<?xml version="1.0" encoding="utf-8"?>
<!-- Generator: Adobe Illustrator 25.2.0, SVG Export Plug-In . SVG Version: 6.00 Build 0)  -->
<svg version="1.1" id="레이어_1" xmlns="http://www.w3.org/2000/svg" xmlns:xlink="http://www.w3.org/1999/xlink" x="0px"
	 y="0px" viewBox="0 0 320.92 351.59" style="enable-background:new 0 0 320.92 351.59;" xml:space="preserve">
<style type="text/css">
	.st0{fill:#1F2F43;}
	.st1{fill:#C2CBE7;}
	.st2{fill:#D4A48D;}
	.st3{fill:#FCE7DD;}
	.st4{fill:#ECC6B4;}
	.st5{fill:#FFFFFF;}
	.st6{fill:#E79A9D;}
	.st7{fill:#B08F88;}
	.st8{fill:#C17238;}
	.st9{fill:#A65E2E;}
	.st10{fill:#8E8445;}
	.st11{fill:#CBC3C4;}
	.st12{fill:#CDC286;}
	.st13{fill:#F29856;}
	.st14{fill:#FDEFE7;}
	.st15{fill:#E28E7D;}
</style>
<g>
	<g>
		<polygon class="st0" points="309.97,286.89 160.13,283.87 171.41,108.88 304.65,94.09 320.92,110.26 		"/>
		<polygon class="st1" points="293.33,269.05 145.09,269.05 156.37,94.06 304.61,94.06 		"/>
	</g>
	<g>
		<polygon class="st2" points="294.72,287.85 288.35,287.86 147.29,289.59 160.83,44.04 304.33,40.53 307.61,43.89 		"/>
		<polygon class="st3" points="291.33,287.91 144.55,288.05 158.09,42.5 294.4,30.83 304.97,41.14 		"/>
		<polygon class="st2" points="281.02,276.52 134.24,276.67 147.78,31.12 291.28,27.61 294.56,30.97 		"/>
		<polygon class="st4" points="277.75,274.52 96,274.52 109.53,28.97 291.29,28.97 		"/>
		<polygon class="st5" points="267.35,139.2 193.33,139.12 198.4,47.05 272.42,47.13 		"/>
	</g>
	<path class="st3" d="M303.69,309.73c-11.7-5.67-23.41-11.35-35.11-17.02l-8.9-4.31c-1.46-0.71-2.91-1.41-4.37-2.12
		c-1.24-0.6-2.51-1.3-3.88-1.56c-1.3-0.24-2.62,0.01-3.88,0.34c-1.55,0.4-3.09,0.86-4.63,1.29c-3.17,0.89-6.35,1.78-9.52,2.66
		c-12.42,3.48-24.82,7.12-37.3,10.39c-6.13,1.61-12.31,2.76-18.56,3.74c-6.1,0.96-12.06,2.19-17.91,4.19
		c-5.56,1.9-10.95,4.23-16.43,6.34c-2.78,1.08-5.59,2.1-8.44,2.99c-1.4,0.43-2.8,0.84-4.22,1.19c-1.39,0.35-2.82,0.59-4.18,1.04
		c-0.79,0.26-1.51,0.61-2.19,1.06c-0.2-0.07-0.39-0.14-0.59-0.21c-0.14-0.05-0.19,0.17-0.06,0.22c0.14,0.05,0.28,0.1,0.42,0.15
		c-0.22,0.15-0.43,0.32-0.63,0.49c-0.11,0.09,0.05,0.25,0.16,0.16c0.24-0.2,0.49-0.38,0.74-0.55c11.92,4.15,23.38,9.47,34.64,15.16
		c5.79,2.92,11.53,5.93,17.27,8.94c2.97,1.55,5.94,3.1,8.9,4.65c2.35,1.23,4.97,3.17,7.75,2.48c1.36-0.34,2.65-1.03,3.92-1.61
		c1.42-0.65,2.85-1.31,4.27-1.97c2.84-1.32,5.68-2.66,8.52-3.98c5.77-2.68,11.57-5.31,17.5-7.63c5.91-2.31,11.94-4.21,18.09-5.76
		c3.08-0.78,6.18-1.53,9.21-2.49c2.95-0.92,5.8-2.08,8.61-3.37c5.92-2.71,11.72-5.52,17.86-7.72c6.01-2.16,12.14-3.97,18.29-5.7
		c1.54-0.43,3.08-0.86,4.61-1.29C303.75,309.91,303.78,309.77,303.69,309.73z"/>
	<path class="st6" d="M235.43,129.87c-0.14,0-0.14,0.22,0,0.22C235.57,130.1,235.57,129.87,235.43,129.87z"/>
	<path class="st7" d="M258.1,231.44c-2.93-17.92-6.61-35.72-11.02-53.33c-4.4-17.53-9.53-34.87-15.41-51.96
		c-5.86-17.04-12.45-33.85-19.82-50.3c-7.37-16.46-16.04-32.17-27.62-46.08c-1.41-1.69-2.86-3.36-4.33-5
		c-0.1-0.11-0.25,0.05-0.16,0.16c12.09,13.42,21.48,28.66,29.14,44.97c7.73,16.48,14.49,33.45,20.57,50.59
		c5.99,16.88,11.25,34.02,15.78,51.34c4.55,17.41,8.38,35.01,11.47,52.74c3.11,17.8,5.49,35.73,7.14,53.72
		c0.21,2.25,0.4,4.5,0.59,6.75c0.01,0.14,0.24,0.14,0.22,0C263.19,267.11,261.01,249.22,258.1,231.44z"/>
	<path class="st7" d="M204.03,57.44c-0.56-2.36-1.12-4.71-1.72-7.05c-1.17-4.61-2.48-9.2-4.11-13.67c-0.04-0.1-0.08-0.2-0.11-0.31
		c-2.88-7.8-6.82-15.32-12.49-21.46c-1.39-1.5-2.85-3-4.54-4.17c-1.54-1.07-3.44-1.96-5.36-1.72c-3.56,0.46-4.85,4.34-4.81,7.46
		c0.05,4.1,1.75,7.94,3.92,11.34c2.37,3.71,5.28,7.05,8.05,10.45c1.5,1.84,6.26,6.88,10.92,11.69c5.3,5.46,10.46,10.61,10.55,10.38
		C204.43,60.11,204.18,58.06,204.03,57.44z"/>
	<path class="st7" d="M245.05,164.84c-6.07-9.84-12.4-19.52-18.98-29.02c-10.29-14.85-21.21-29.27-32.74-43.19
		c-11.5-13.88-23.59-27.28-36.28-40.08c-12.7-12.81-26.35-24.45-42.09-33.38c-1.92-1.09-3.86-2.13-5.82-3.15
		c-0.13-0.07-0.22,0.14-0.09,0.2c16.04,8.29,30.21,19.24,43.13,31.81c13.04,12.69,25.35,26.19,37.09,40.09
		c11.56,13.68,22.52,27.86,32.87,42.48c7.94,11.21,15.52,22.67,22.73,34.37C244.92,164.93,244.98,164.89,245.05,164.84z"/>
	<path class="st7" d="M143.23,38.09c-1.35-2.01-2.71-4.01-4.09-5.99c-2.72-3.9-5.56-7.73-8.67-11.34c-0.39-0.46-0.79-0.91-1.19-1.35
		C124.06,13.57,118.03,8.36,111,4.83c-1.83-0.92-3.72-1.8-5.71-2.3c-1.82-0.46-3.91-0.63-5.62,0.29c-3.17,1.68-3.01,5.77-1.88,8.67
		c1.5,3.82,4.44,6.81,7.67,9.23c3.52,2.63,7.43,4.73,11.22,6.94c2.26,1.32,9.64,4.89,16.23,7.98c6.16,2.88,11.63,5.33,11.63,5.11
		C144.55,40.44,143.59,38.62,143.23,38.09z"/>
	<path class="st7" d="M241.46,113.77c2.37,18.04,3.65,36.26,4.24,54.45c0.58,17.9,0.39,35.83-0.55,53.71
		c-0.65,12.32-1.65,24.62-3,36.89c0.07,0.02,0.14,0.05,0.22,0.07c1.12-10.12,1.99-20.26,2.63-30.42
		c1.13-18.04,1.51-36.12,1.09-54.19c-0.41-18.02-1.59-36.03-3.61-53.94c-2.03-17.92-5.51-35.52-12.32-52.29
		c-0.83-2.04-1.7-4.07-2.61-6.08c-0.06-0.13-0.26-0.03-0.2,0.1C234.79,78.53,239.12,95.91,241.46,113.77z"/>
	<path class="st7" d="M241.13,84.93c-0.01-0.42-0.02-0.83-0.04-1.25c-0.28-6.77-1.47-13.6-4.35-19.78c-0.7-1.49-1.45-3-2.46-4.3
		c-0.92-1.2-2.16-2.35-3.69-2.63c-2.84-0.52-4.78,2.14-5.51,4.54c-0.96,3.16-0.59,6.52,0.24,9.66c0.91,3.42,2.33,6.7,3.62,9.98
		c0.94,2.39,4.99,10.67,7.92,16.41c1.73,3.38,3.06,5.87,3.15,5.77c0.15-0.19,0.45-1.82,0.49-2.33c0.15-1.94,0.29-3.88,0.41-5.83
		C241.11,91.77,241.22,88.35,241.13,84.93z"/>
	<path class="st0" d="M222.91,268.07c-8.92-5.44-17.65-11.2-26.14-17.29c-4.07-2.92-8.23-5.8-11.96-9.16
		c-1.82-1.64-3.5-3.43-4.93-5.42c-1.37-1.9-2.52-3.95-3.58-6.05c-2.09-4.13-3.83-8.44-6.18-12.44c-2.18-3.71-4.78-7.16-7.7-10.31
		c-6.02-6.49-13.38-11.66-21.43-15.32c-8.83-4.01-18.42-6.24-28.08-6.9c-1.23-0.08-2.47-0.14-3.7-0.18c-0.14,0-0.14,0.22,0,0.22
		c9.86,0.28,19.71,2.13,28.87,5.84c8.39,3.4,16.14,8.38,22.55,14.79c3.07,3.07,5.83,6.46,8.17,10.11c2.49,3.89,4.34,8.11,6.32,12.27
		c1.99,4.16,4.24,8.17,7.46,11.52c3.33,3.47,7.3,6.28,11.18,9.1c8.38,6.12,16.99,11.92,25.81,17.4c1.08,0.67,2.16,1.34,3.25,2
		C222.92,268.33,223.03,268.14,222.91,268.07z"/>
	<path class="st8" d="M299.81,254.72c-1.97,4.59-5.12,16.65-22.22,26.2c-4.24,2.37-9.35,4.59-15.51,6.49
		c-7.4,2.29-18.88,2.33-26.49,1.03c-7.11-1.21-13.96-3.91-20-7.85c-5.87-3.83-10.91-8.84-14.77-14.69c-0.04-0.07-0.09-0.14-0.13-0.2
		c-3.89-5.94-6.58-12.66-7.82-19.65c-1.19-6.7-1.05-13.66,0.73-20.24c1.74-6.42,5.08-12.45,10.11-16.87
		c5.4-4.75,12.23-7.4,19.01-9.53c1.74-0.55,3.49-1.06,5.24-1.58c1.75-0.52,3.64-0.93,5.19-1.93c3.41-2.19,3.05-6.89,3.15-10.43
		c0.2-7.87,0.12-15.75-0.23-23.61c0.69-0.03,1.39-0.07,2.09-0.11c3.48-0.17,6.97-0.2,10.45-0.36c0.33,1.41,0.37,2.94,0.51,4.36
		c0.17,1.78,0.3,3.55,0.44,5.33c0.28,3.71,0.54,7.43,1.01,11.12c0.24,1.89,0.53,3.77,0.92,5.63c0.32,1.53,0.78,3.14,1.9,4.29
		c1.15,1.18,2.79,1.65,4.34,2.05c1.48,0.37,2.97,0.74,4.43,1.18c2.83,0.83,5.6,1.82,8.31,2.98c5.5,2.35,10.72,5.4,15.32,9.22
		c4.59,3.81,8.56,8.38,11.43,13.62c2.8,5.12,4.6,10.8,5.13,16.61C302.87,243.54,302.09,249.41,299.81,254.72z"/>
	<path class="st9" d="M278.62,238.96c-5.2-5.97-12.65-9.81-20.39-11.24c-9.35-1.73-19.05-0.08-27.87,3.23
		c-7.48,2.81-14.4,6.83-21.05,11.24c0.04-0.54,0.05-1.09,0-1.63c-0.09-0.98-0.43-1.84-0.76-2.75c-0.18-0.5-0.44-1.36,0.1-1.73
		c0.32-0.22,1.22-0.23,1.11,0.36c-0.03,0.14,0.19,0.2,0.21,0.06c0.09-0.46-0.24-0.74-0.68-0.78c-0.6-0.06-1.07,0.28-1.16,0.88
		c-0.16,0.97,0.55,1.96,0.78,2.88c0.23,0.94,0.27,1.92,0.17,2.89c-1.38,0.92-2.76,1.86-4.12,2.8c-1.98,1.37-3.94,2.76-5.9,4.15
		c-0.12,0.08,0,0.28,0.11,0.19c3.26-2.32,6.54-4.63,9.87-6.86c-0.02,0.18-0.05,0.36-0.08,0.54c-0.44,2.38-1.53,4.59-2.6,6.74
		c-1.05,2.1-2.09,4.21-2.98,6.39c-1.27,3.07-2.25,6.31-2.54,9.61c3.87,5.84,8.9,10.86,14.77,14.69c6.04,3.94,12.89,6.64,20,7.85
		c7.61,1.3,19.09,1.26,26.49-1.03c6.16-1.91,11.26-4.12,15.51-6.49c4.33-5.6,7.17-12.26,7.87-19.36
		C286.27,253.41,284.04,245.19,278.62,238.96z"/>
	<path class="st10" d="M146.54,85.01c3.2,26.66,15.89,140.63,15.84,140.65C145,231.09,13.73,267.55,13.72,267.47
		C11.42,242.1,0,124.45,0,124.45S128.93,89.11,146.54,85.01z"/>
	<path class="st3" d="M168.14,229.92c-17.38,5.43-149.35,42.04-149.36,41.97c-0.14-1.51-0.31-3.35-0.51-5.49
		C15.14,232.64,4.82,126.28,4.82,126.28s1.96-0.54,5.43-1.48c24.75-6.77,126.36-34.51,141.81-38.1
		C155.26,113.35,168.19,229.9,168.14,229.92z"/>
	<path class="st5" d="M144.01,206.07c-2.04,0.63-6.35,1.89-12.11,3.54c-3.42,0.98-7.36,2.1-11.63,3.3
		c-0.08,0.02-0.15,0.04-0.23,0.06c-0.11,0.03-0.22,0.06-0.33,0.09c-3.99,1.13-8.26,2.33-12.68,3.57c-0.08,0.02-0.15,0.04-0.23,0.06
		c-4.42,1.24-8.99,2.52-13.55,3.8c-0.37,0.1-0.74,0.21-1.11,0.31c-0.51,0.14-1.02,0.29-1.53,0.43c-0.21,0.06-0.41,0.11-0.62,0.17
		c-0.56,0.16-1.12,0.31-1.67,0.47c-1.52,0.43-3.04,0.85-4.55,1.27c-0.66,0.18-1.32,0.37-1.97,0.55c-1.32,0.37-2.62,0.73-3.91,1.09
		c-1.52,0.43-3.01,0.84-4.49,1.25c-2.09,0.58-4.13,1.15-6.1,1.7c-0.79,0.22-1.56,0.44-2.33,0.65c-3.25,0.9-6.29,1.75-9.04,2.51
		c-1.17,0.32-2.3,0.64-3.36,0.93c-7.02,1.95-11.45,3.17-11.49,3.17c-0.15-1.64-0.35-3.85-0.6-6.51c-0.54-5.72-1.28-13.53-2.11-22.22
		c-0.41-4.28-0.84-8.78-1.28-13.34c-0.59-6.13-1.19-12.39-1.77-18.41c-2.06-21.36-3.85-39.87-3.85-39.87s89.34-24.46,101.48-27.29
		c0.25,2.11,0.6,5.04,1,8.58c0.02,0.16,0.04,0.32,0.06,0.47c0,0.04,0.01,0.09,0.01,0.13c0.61,5.35,1.37,12,2.19,19.25
		c0.27,2.42,0.55,4.9,0.84,7.42c0.4,3.59,0.82,7.26,1.23,10.94v0c0.43,3.86,0.86,7.72,1.29,11.51c0.26,2.3,0.51,4.58,0.76,6.8
		c0.08,0.69,0.15,1.38,0.23,2.06C142.49,192.12,144.02,206.07,144.01,206.07z"/>
	<path class="st0" d="M194.85,136.66c-0.39-0.98-1.24-1.66-1.98-2.37c-1.89-1.83-3.25-4.07-4.16-6.54
		c-1.61-4.33-2.17-9.22-5.17-12.92c-3.06-3.78-7.97-4.43-12.51-3.71c-4.62,0.32-8.89,2.71-11.93,6.2c-1.61,1.84-3.01,4.02-3.84,6.33
		c-0.45,1.26-0.59,2.55-0.59,3.88c0,1.51,0.14,3.04-0.15,4.53c-0.48,2.47-1.91,4.61-3.14,6.76c-1.01,1.76-2.62,4.32-1.54,6.37
		c1.04,1.97,3.61,1.92,5.39,1.16c1.19-0.51,2.68-1.92,4.05-1.44c0.53,0.19,0.89,0.67,1.36,0.96c0.51,0.32,1.1,0.5,1.69,0.58
		c1.37,0.19,2.72-0.2,3.98-0.72c1.39-0.57,2.75-1.25,4.05-2c0.92-0.53,1.88-1.16,2.67-1.91c0.11-0.03,0.22-0.07,0.33-0.09
		c1.3-0.34,2.65-0.46,3.98-0.37c1.34,0.09,2.66,0.39,4.01,0.26c1.17-0.11,2.3-0.46,3.35-0.97c1.21-0.59,2.43-1.41,3.83-1.17
		c1.11,0.19,2.05,0.72,3.21,0.56c0.89-0.12,2.15-0.34,2.8-1.04C195.15,138.39,195.15,137.42,194.85,136.66z"/>
	<path class="st10" d="M110,289.6c0,0,4.19,5.73,3.14,17.78c-0.47,5.41-6.06,12.45-6.51,20.2h-0.01
		c-1.91-0.02-95.87-20.18-95.99-20.18c0,0-0.03-0.05-0.09-0.15c0.77-9.73,2.31-35.57,2.93-43.34l6.48,1.36L110,289.6z"/>
	<path class="st10" d="M252.22,249.42c0,0-3.07,38.83-3.09,38.83h-0.01c-3.32-0.02-142.42,39.44-142.52,39.35
		c1.34-9.73,1.9-30.23,2.96-37.99c0,0,142.28-40.31,142.52-40.23C252.17,249.41,252.22,249.42,252.22,249.42z"/>
	<path class="st11" d="M252.42,244.45c0,0-0.09,0.04-0.28,0.1c-5.04,1.88-77.9,28.78-141.52,40.22h-0.01
		c-1.73-0.02-75.88-15.91-89.63-18.85c-1.4-0.3-2.17-0.46-2.18-0.46c0,0-0.57-0.47-0.63-0.57c18.66-0.4,112.76-43.71,113.14-48.51
		l120.58,27.94L252.42,244.45z"/>
	<path class="st3" d="M252.67,244.28c0,0-0.53,6.72-1.15,14.56c-0.01,0.08-0.01,0.16-0.02,0.24c-0.33,4.17-0.69,8.65-1,12.59
		c-0.01,0.08-0.02,0.16-0.02,0.24c-0.5,6.3-0.89,11.19-0.9,11.19h-0.01c-3.32-0.02-142.42,39.44-142.52,39.35
		c0.4-2.92,0.74-6.8,1.03-11.02c0.01-0.08,0.01-0.16,0.02-0.24c0.28-4.06,0.53-8.41,0.78-12.5c0-0.08,0.01-0.16,0.01-0.23
		c0.35-5.71,0.69-10.88,1.12-14c0,0,142.28-40.31,142.52-40.23C252.62,244.27,252.67,244.28,252.67,244.28z"/>
	<path class="st12" d="M140.18,171.36c-0.01-0.08-0.02-0.15-0.02-0.22c-0.2-1.8-0.41-3.63-0.61-5.48
		c-0.37-3.35-0.76-6.76-1.14-10.17c-0.01-0.07-0.02-0.14-0.02-0.21c-0.04-0.37-0.08-0.75-0.12-1.12v0
		c-0.41-3.68-0.82-7.35-1.23-10.94c-0.2-1.81-0.4-3.6-0.6-5.36c-0.01-0.06-0.02-0.13-0.02-0.19c-0.07-0.63-0.14-1.25-0.21-1.87
		c-0.46-4.07-0.9-7.95-1.31-11.52c-0.02-0.18-0.04-0.35-0.06-0.53c-0.3-2.58-0.57-5-0.82-7.19c-4.5,0.15-8.5,2.78-11.56,5.92
		c-0.17,0.17-0.34,0.35-0.5,0.52c-0.05,0.06-0.11,0.11-0.16,0.17c-3.27,3.56-5.77,7.83-7.95,12.11c-0.18,0.36-0.36,0.72-0.54,1.07
		c-0.04,0.08-0.08,0.17-0.12,0.25c-2.22,4.54-4.04,9.27-5.65,14.06c-0.71,2.11-1.37,4.24-2.01,6.37c-0.03,0.09-0.06,0.19-0.08,0.28
		c-0.97,3.24-1.87,6.5-2.77,9.76c-1.09,3.96-2.14,7.93-3.16,11.91c-0.02,0.08-0.04,0.16-0.06,0.24c-0.48,1.88-0.95,3.76-1.42,5.65
		c-2.95,11.94-5.6,23.96-7.94,36.04c-0.03,0.18-0.07,0.35-0.1,0.53c0.21-0.06,0.41-0.11,0.62-0.17c0.51-0.14,1.02-0.29,1.53-0.43
		c0.37-0.1,0.74-0.21,1.11-0.31c4.56-1.28,9.13-2.55,13.55-3.8c0.08-0.02,0.15-0.04,0.23-0.06c4.41-1.24,8.69-2.44,12.68-3.57
		c0.11-0.03,0.22-0.06,0.33-0.09c0.08-0.02,0.15-0.04,0.23-0.06c4.27-1.21,8.21-2.32,11.63-3.3c0.27-0.91,0.51-1.82,0.76-2.72
		c0.81-2.94,1.54-5.9,2.22-8.87c1.38-5.99,2.66-12.01,3.91-18.02c0.52-2.51,1.03-5.02,1.5-7.54
		C140.26,172.09,140.22,171.73,140.18,171.36z M101.49,137.57c-0.28-2.12-1.14-4.68-3.39-5.42c-1.48-0.49-3.01,0.04-4.33,0.73
		c-1.37,0.7-2.68,1.55-3.92,2.46c-4.82,3.54-8.55,8.35-11.5,13.51c-3.14,5.49-5.46,11.41-7.57,17.37
		c-2.57,7.27-4.85,14.65-6.83,22.1c-3.72,13.97-6.4,28.22-8.02,42.58c2.75-0.76,5.79-1.61,9.04-2.51c0.76-0.21,1.54-0.43,2.33-0.65
		c1.97-0.55,4.01-1.11,6.1-1.7c1.47-0.41,2.97-0.82,4.49-1.25c1.29-0.36,2.6-0.72,3.91-1.09c0.66-0.18,1.31-0.37,1.97-0.55
		c1.51-0.42,3.02-0.85,4.55-1.27c2.17-12.67,4.33-25.34,6.49-38.01c1.38-8.07,2.76-16.15,4.14-24.22c0.67-3.95,1.39-7.9,1.94-11.88
		c0.26-1.9,0.48-3.81,0.62-5.73C101.61,140.55,101.69,139.06,101.49,137.57z"/>
	<path class="st10" d="M140.18,171.36c-1.68,0.67-3.36,1.36-5.03,2.06c-3.51,1.48-6.98,3.22-10.7,4.13c-1.7,0.41-3.51,0.67-5.26,0.5
		c-0.21-0.02-0.39-0.06-0.56-0.11c-1.45,5.19-2.79,10.4-3.9,15.67c0.4,0.4,0.79,0.81,1.11,1.28c0.08,0.12-0.11,0.22-0.18,0.11
		c-0.28-0.41-0.62-0.79-0.97-1.14c-0.78,3.73-1.44,7.49-1.94,11.28c-0.02,0.14-0.23,0.14-0.21,0c0.5-3.85,1.18-7.66,1.97-11.46
		c-0.31-0.31-0.63-0.6-0.95-0.9c-0.72-0.69-1.44-1.39-2.16-2.08c-1.44-1.39-2.88-2.77-4.32-4.16c-2.54-2.44-5.08-4.89-7.62-7.33
		c-0.4-0.38-0.79-0.76-1.18-1.14c-0.1-0.1,0.05-0.25,0.15-0.15c0.37,0.35,0.73,0.7,1.09,1.05c2.62,2.52,5.25,5.04,7.87,7.57
		l4.48,4.31c0.72,0.69,1.44,1.39,2.16,2.08c0.18,0.17,0.36,0.34,0.54,0.51c0.55-2.62,1.16-5.24,1.81-7.84
		c0.65-2.59,1.34-5.16,2.06-7.74c-0.31-0.14-0.58-0.36-0.82-0.68c-0.56-0.74-1.07-1.52-1.57-2.3c-2.13-3.34-4.11-6.78-6.15-10.18
		c-1.48-2.47-2.96-4.93-4.44-7.4c0.03-0.09,0.06-0.19,0.08-0.28l5.1,8.49c1.96,3.27,3.85,6.59,5.93,9.78
		c0.28,0.43,0.56,0.85,0.86,1.27c0.25,0.35,0.49,0.75,0.85,0.99c0.07,0.05,0.14,0.09,0.22,0.12c1.81-6.51,3.78-12.97,5.77-19.43
		c-0.02-0.01-0.04-0.03-0.06-0.04c-0.27-0.24-0.42-0.65-0.59-0.96c-0.21-0.4-0.43-0.79-0.64-1.19c-0.46-0.85-0.92-1.71-1.37-2.56
		c-2.94-5.56-5.74-11.19-8.4-16.9c0.04-0.08,0.08-0.17,0.12-0.25c1.2,2.58,2.42,5.14,3.68,7.69c1.64,3.33,3.33,6.62,5.07,9.9
		c0.44,0.82,0.88,1.65,1.33,2.47c0.23,0.42,0.43,0.88,0.69,1.28c0.08,0.12,0.16,0.21,0.25,0.29c0.72-2.35,1.44-4.7,2.16-7.05
		c1.26-4.15,2.53-8.3,3.8-12.44c-0.52-0.38-0.8-1.14-1.12-1.67c-0.64-1.06-1.28-2.12-1.91-3.19c-2-3.39-3.89-6.85-5.47-10.46
		c0.05-0.06,0.11-0.11,0.16-0.17c0.7,1.61,1.46,3.18,2.27,4.74c1.07,2.05,2.21,4.06,3.38,6.05c0.61,1.04,1.23,2.07,1.85,3.1
		c0.23,0.38,0.5,1.06,0.9,1.41c1.49-4.85,2.98-9.7,4.48-14.55c0.02,0.18,0.04,0.35,0.06,0.53c-1.14,3.69-2.28,7.38-3.41,11.06
		c-0.32,1.03-0.63,2.06-0.95,3.09c0.04,0.02,0.08,0.04,0.13,0.06c0.48,0.15,1.17,0,1.66-0.05c1.37-0.15,2.74-0.44,4.09-0.76
		c0.01,0.06,0.01,0.13,0.02,0.19c-0.69,0.16-1.37,0.32-2.06,0.46c-1.1,0.22-2.3,0.47-3.43,0.41c-0.17-0.01-0.33-0.05-0.47-0.12
		c-2,6.5-3.99,13-5.96,19.5c0.13,0.06,0.29,0.09,0.49,0.07c0.23-0.02,0.47-0.1,0.69-0.15c1.88-0.41,3.76-0.81,5.64-1.22
		c2.35-0.51,4.7-1.02,7.05-1.53c0.01,0.07,0.02,0.14,0.02,0.21c-3.11,0.67-6.21,1.34-9.32,2.01c-0.98,0.21-1.95,0.42-2.92,0.63
		c-0.48,0.1-1.21,0.4-1.73,0.21c-1.2,3.97-2.4,7.94-3.58,11.91c-0.74,2.49-1.47,4.99-2.17,7.5c0.75,0.25,1.73,0.14,2.46,0.1
		c1.85-0.11,3.67-0.56,5.43-1.15c3.5-1.17,6.85-2.81,10.25-4.21c1.11-0.46,2.22-0.91,3.33-1.35
		C140.16,171.21,140.17,171.29,140.18,171.36z"/>
	<path class="st4" d="M110.74,284.46c0,0-1.9,12.96-3.37,37.98h-0.01c-1.87-0.02-88.19-18.55-91.7-19.29
		c-0.07-0.02-0.11-0.02-0.11-0.02c0,0-0.03-0.05-0.09-0.15c0.76-9.61,2.05-29.83,2.68-37.81c0.01-0.1,0.02-0.2,0.02-0.29
		L110.74,284.46z"/>
	<path class="st13" d="M187.46,155.6c-2-7.67-4.46-15.25-7.37-22.7c-0.04-0.1-0.17-0.13-0.26-0.06c-2.76,2.14-5.8,3.97-9.06,5.49
		c-0.2-0.78-0.4-1.57-0.59-2.35c-0.04-0.17-0.34-0.1-0.3,0.07c0.2,0.8,0.41,1.61,0.61,2.41c-0.28,0.13-0.56,0.26-0.84,0.38
		c-0.18,0.08-0.02,0.31,0.16,0.23c0.25-0.11,0.5-0.23,0.75-0.34c1.62,6.42,3.31,12.84,5.08,19.23c0.02,0.07,0.11,0.12,0.19,0.09
		c3.68-1.24,7.54-2.02,11.49-2.29C187.41,155.76,187.48,155.69,187.46,155.6z"/>
	<path class="st14" d="M203.99,178.68c0.51-4.86-0.14-21.03-4.65-24.86c-2.98-2.52-6.42-4.08-10.08-4.99
		c-0.49-0.12-0.98-0.23-1.48-0.33c-2.13,1.1-4.44,1.93-6.77,2.48c-2.41,0.57-5.17,1.38-7.64,1.28c-2.52-0.1-4.58-1.48-5.6-3.54
		c-0.23,0.05-0.46,0.09-0.69,0.14c-2.38,0.48-6.2,1.55-8.13,2.37c-1.85,0.79-3.61,1.85-5,3.32c-1.44,1.52-2.44,3.4-3.23,5.33
		c-1.87,4.56-7.11,10.37-8.08,15.2c-0.49,2.42-0.89,4.85-1.2,7.3c-0.31,2.42-0.62,4.93-0.08,7.35c0.44,1.94,1.5,3.84,3.24,4.89
		c2.08,1.26,4.63,0.96,6.89,0.41c0.33,0.04,0.65,0.07,0.96,0.1c2.34,0.23,4.46,0.99,6.55,2.05c1.99,1,3.9,2.16,5.94,3.07
		c2.13,0.95,4.38,1.54,6.68,1.89c4.78,0.71,9.64,0.48,14.44,1.06c2.6,0.32,5.07,1.09,7.62,1.59c2.04,0.4,4.21,0.53,6.19-0.21
		c4.16-1.55,4.58-6.09,4.5-9.94C204.27,189.31,203.43,183.99,203.99,178.68z"/>
	<path class="st13" d="M176.03,118.47c-4.94-3.73-11.68-2.5-16.17,1.3c-0.01-0.1-0.03-0.21-0.04-0.31c-0.02-0.19-0.33-0.16-0.3,0.03
		l1.24,10.03c0.36,2.9,1.99,10.11,2.65,11.41c0.54,1.06,1.17,2.23,2.14,2.96c2.06,1.56,3.8,1.5,5.78,0.56
		c2.4-1.14,6.6-2.83,8.35-4.88c1.78-2.08,1.62-4.73,1.49-7.3C180.91,127.36,180.27,121.68,176.03,118.47z"/>
	<path class="st0" d="M167.77,153.36c0,0,4.11,13.51,8.22,28.26l-0.01,0c-1.68,0.62-22.04,4.53-22.15,4.57c0,0-0.05-0.03-0.13-0.1
		c-2.57-8.8-6.77-20.94-8.82-27.97L167.77,153.36z"/>
	<path class="st8" d="M291.73,330.32c-1.27-1.38-2.61-2.7-3.94-4.02c-2.68-2.67-5.44-5.27-8.41-7.62c-2.37-1.88-4.88-3.59-7.55-5.03
		c-0.63-0.34-1.27-0.67-1.92-0.98c-3.36-1.61-6.89-2.8-10.5-3.71c-0.21-0.05-0.43-0.11-0.64-0.16c-7.27-1.77-14.75-2.46-22.17-3.24
		c-8.56-0.9-17.12-1.81-25.68-2.71l-25.68-2.71l-2.71-0.28c0.01-0.07,0.03-0.15,0.03-0.22c0.02-0.14-0.21-0.14-0.22,0
		c-0.01,0.06-0.02,0.13-0.03,0.19l-0.29-0.03c-0.14-0.01-0.14,0.21,0,0.22c0.08,0.01,0.16,0.02,0.24,0.03
		c-0.09,0.34-0.24,0.68-0.35,1c-0.16,0.46-0.31,0.92-0.47,1.38c-0.05,0.14,0.17,0.19,0.21,0.06c0.03-0.08,0.05-0.15,0.08-0.23
		c0,0,0,0.01,0,0.01c9.09,0.96,18.19,1.92,27.28,2.87c10.13,1.07,20.27,2.08,30.39,3.21c5.43,0.61,10.92,1.36,16.24,2.72
		c3.65,0.93,7.21,2.16,10.61,3.82c0.89,0.44,1.93,1.04,3.01,1.72c4.08,2.56,8.8,6.22,8.86,6.22c5.77,4.27,8.01,10.33,10.89,11.67
		c1.56,0.73,5.03,1.46,5.08-0.01C294.14,332.83,292.83,331.51,291.73,330.32z"/>
	<path class="st8" d="M277.72,308.94c-0.06-0.34-0.15-0.7-0.19-1.05c0.08,0,0.16,0.01,0.24,0.01c0.14,0.01,0.18-0.21,0.04-0.22
		l-0.3-0.02c0-0.06,0-0.13,0-0.2c0.01-0.14-0.21-0.18-0.22-0.04c0,0.07,0,0.15,0,0.22l-2.72-0.15l-25.79-1.41
		c-0.87-0.05-1.74-0.1-2.61-0.14c-5.85-0.32-11.71-0.64-17.56-0.96c-1.87-0.1-3.74-0.21-5.62-0.31c-2.32-0.13-4.65-0.26-6.98-0.38
		c-5.29-0.25-10.59-0.37-15.87,0.08c-0.07,0.01-0.14,0.01-0.21,0.02c-3.7,0.33-7.39,0.94-10.95,2c-3.6,1.06-7.03,2.6-10.3,4.43
		c-3.02,1.69-5.9,3.61-8.71,5.62c-0.27,0.19-0.53,0.38-0.8,0.57c-1.52,1.1-3.05,2.18-4.53,3.34c-1.27,1-2.77,2.1-2.98,3.75
		c-0.19,1.46,3.35,1.29,5.01,0.82c2.29-0.65,4.65-3.97,8.37-6.99c1.24-1.01,2.64-1.98,4.24-2.81c0.08,0,8.44-4.57,12.98-5.96
		c1.16-0.36,2.34-0.66,3.52-0.93c6.68-1.49,13.59-1.63,20.43-1.4c1.2,0.04,2.4,0.09,3.6,0.15c3.33,0.16,6.66,0.33,9.98,0.51
		c5.26,0.28,10.51,0.59,15.77,0.88c1.59,0.09,3.17,0.18,4.76,0.26c9.13,0.5,18.26,1,27.39,1.5v-0.01c0.01,0.08,0.03,0.16,0.04,0.24
		c0.02,0.14,0.25,0.12,0.22-0.02C277.89,309.9,277.8,309.42,277.72,308.94z"/>
	<path class="st13" d="M184.26,190.15l-0.8-0.21c-1.32-3.69,4.25,4.57,3.18,0.8c-0.6-2.09-7.82-16.17-8.03-18.34
		c-0.09-0.91-0.24-1.8-0.73-2.59c-0.44-0.71-5.04-6.16-7.19-7.85c-0.08-0.06-0.18-0.02-0.19,0.08c-0.06,0.96,0.38,2.01,0.61,2.93
		c0.1,0.4,0.2,0.8,0.3,1.21c-1.63-0.38-2.4-0.55-4.02-0.98c-0.94-0.25-4.4-1.72-5.18-2.14c-0.53-0.28-1.18-0.87-1.8-0.71
		c-0.47,0.12-0.69,0.55-0.49,0.99c0.28,0.62,1.13,1.08,1.69,1.4c0.73,0.42,1.51,0.74,2.3,1.03c1.34,0.49,2.7,0.96,4.05,1.42
		c-0.06,0.41-0.13,0.82-0.21,1.23c-1.54-0.17-6.17-1.85-6.98-2.27c-0.35-0.18-0.7-0.37-1.05-0.57c-0.29-0.17-0.62-0.44-0.98-0.46
		c-0.38-0.03-0.66,0.29-0.68,0.66c-0.03,0.59,0.53,1.12,0.97,1.41c3.56,2.3,7.87,2.8,8.39,2.95c-0.02,0.12-0.05,0.23-0.07,0.35
		c-0.04,0.21-0.08,0.41-0.12,0.62c-1.63-0.16-3.02-0.61-4.57-1.09c-0.84-0.26-1.89-0.72-2.71-1.05c-0.52-0.21-1.34-0.81-1.94-0.63
		c-0.39,0.11-0.57,0.47-0.39,0.85c0.26,0.54,1.01,0.94,1.51,1.22c1.41,0.78,2.98,1.34,4.53,1.78c1.08,0.31,2.17,0.54,3.28,0.71
		c-0.02,0.15-0.03,0.27-0.03,0.39c-1.92-0.23-3.75-0.7-5.59-1.33c-0.4-0.14-1.19-0.3-1.29,0.33c-0.09,0.53,0.74,0.82,1.08,0.99
		c1.54,0.78,3.18,1.16,4.9,1.31c1.01,0.09,8.16,2.33,8.38,2.65c0.32,0.45,0.9,2.06,1.11,2.58c0.38,0.96,0.71,1.95,1.01,2.94
		c0.64,2.08,1.2,4.18,1.8,6.27c0.02,0.08,0.11,0.1,0.18,0.07c0.44-0.2,1.02,0.06,1.46,0.18l1.46,0.39l1.89,0.51
		c0.09,0.24,0.17,0.48,0.26,0.73c-0.06,0.03-0.1,0.09-0.05,0.16c0.07,0.09,0.14,0.18,0.21,0.28c0.08,0.1,0.27,0.04,0.22-0.1
		c-0.12-0.33-0.24-0.66-0.36-1c0.1,0.03,0.21,0.06,0.31,0.08c0.01,0.03,0.04,0.05,0.07,0.06c0.16,0.04,0.13,0.04,0.29,0.03
		C184.36,190.37,184.39,190.18,184.26,190.15z"/>
	<path class="st10" d="M66.55,204.72c-0.07-0.5-0.16-0.99-0.27-1.48c-0.09-0.36-0.15-0.84-0.39-1.13c-0.48-0.59-1.46-0.21-1.99,0.09
		c-0.81,0.45-1.44,1.16-2.05,1.84c-2.55,2.86-4.43,6.26-5.74,9.86c-0.18,0.51-0.36,1.03-0.53,1.55c-0.01,0.03-0.02,0.05-0.04,0.08
		c1.04-5.21,2.08-10.43,3.11-15.64c0.04-0.21,0.08-0.42,0.13-0.63c0.7-3.48,1.42-6.95,1.86-10.47c0.12-0.93,0.21-1.87,0.28-2.81
		c0.05-0.76,0.15-1.55,0.04-2.31c-0.16-1.08-0.92-1.91-2.08-1.47c-0.65,0.25-1.22,0.77-1.74,1.22c-0.6,0.52-1.18,1.07-1.73,1.65
		c-1.06,1.12-2.02,2.34-2.88,3.62c-1.85,2.72-3.29,5.68-4.6,8.69c-0.92,2.12-1.76,4.29-2.52,6.47c-1.54,4.45-2.74,9.01-3.59,13.64
		c-0.67,3.63-1.12,7.3-1.36,10.99c0.25,2.66,0.46,4.88,0.6,6.51c0.06,0,10.09-2.77,23.89-6.61c0.22-1.96,0.43-3.92,0.65-5.89
		c0.52-4.78,1.07-9.61,1.12-14.42C66.74,206.95,66.7,205.83,66.55,204.72z M54.66,218.87c-0.12,0.52-0.22,1.04-0.32,1.56
		c0.1-0.67,0.24-1.34,0.41-2C54.71,218.58,54.68,218.73,54.66,218.87z"/>
	<path class="st10" d="M90.17,166.76c-0.51-0.39-1.22-0.28-1.78-0.07c-0.76,0.28-1.36,0.78-1.92,1.34
		c-0.77,0.75-1.49,1.55-2.18,2.37c-1.36,1.64-2.57,3.41-3.66,5.24c-3.54,5.94-6.14,12.47-8.1,19.14c-0.58,1.96-1.1,3.92-1.57,5.89
		c-2.11,8.83-3.2,17.88-3.67,26.94c0,0.05,0,0.09-0.01,0.14c3.36-0.93,6.92-1.92,10.59-2.95c1.07-7.12,2.19-14.23,3.57-21.3
		c0.73-3.79,1.55-7.56,2.45-11.3c1.36-5.62,2.93-11.19,4.79-16.67c0.75-2.22,1.52-4.46,1.92-6.78
		C90.73,168.04,90.79,167.23,90.17,166.76z M98.62,181.64c-0.36-1.78-1.97-3.02-3.75-2.27c-1.97,0.84-3.44,2.87-4.48,4.65
		c-1.18,2.02-2.1,4.2-2.93,6.38c-0.14,0.37-0.28,0.75-0.42,1.13c-1.52,4.19-2.59,8.54-3.35,12.93c-0.85,4.84-1.33,9.74-1.65,14.64
		c-0.1,1.53-0.18,3.07-0.25,4.61c2.9-0.81,5.85-1.63,8.81-2.46c0.04-0.18,0.08-0.36,0.12-0.53c1.18-5.28,2.36-10.56,3.53-15.84
		c1.18-5.31,2.42-10.61,3.47-15.94c0.01-0.05,0.02-0.11,0.03-0.16c0.25-1.25,0.48-2.52,0.7-3.78
		C98.64,183.89,98.85,182.75,98.62,181.64z"/>
	<path class="st0" d="M145,158.09c0,0,4.73,13.34,8.84,28.09l-0.01,0c-3.06-0.9-16.01-3.62-16.12-3.59c0,0-0.05-0.03-0.13-0.1
		c-2.57-8.8-6.77-20.94-8.82-27.97L145,158.09z"/>
	<path class="st15" d="M251.89,244.33c-0.61-0.52-1.33-0.95-1.97-1.41c-0.99-0.7-1.98-1.4-2.98-2.09c-2.06-1.41-4.15-2.79-6.26-4.12
		c-4.11-2.59-8.31-5.03-12.6-7.3c-0.23-0.12-0.46-0.24-0.69-0.36c-0.08-0.04-0.17-0.09-0.25-0.13c-2.08-1.08-4.19-2.09-6.29-3.11
		c-0.08-0.04-0.17-0.08-0.25-0.12c-1.75-0.84-3.49-1.69-5.22-2.58c-3.94-2.03-7.58-4.5-10.35-8c-2.56-3.23-4.39-6.96-6.28-10.61
		c-0.24-0.46-0.48-0.93-0.73-1.39c-0.03-0.06-0.07-0.13-0.1-0.19c-0.9-1.71-1.85-3.4-2.92-5.01c-0.04-0.06-0.08-0.13-0.13-0.19
		c-0.75-1.12-1.56-2.2-2.45-3.22c-2.96-3.38-6.82-5.73-10.76-7.78c-6.69-3.49-13.58-6.6-20.61-9.37c-0.09-0.04-0.19-0.08-0.28-0.11
		c-2.01-0.79-4.02-1.55-6.05-2.28c-0.12-0.04-0.24-0.09-0.36-0.13c-0.1-0.04-0.2-0.07-0.3-0.11c-4.17-1.53-8.58-3.3-13.06-3.15
		c-4.42,0.14-8.58,2.04-12.38,4.16c-2.55,1.43-4.98,3.03-7.31,4.78c-0.08,0.06-0.15,0.11-0.23,0.17
		c-4.29,3.24-8.23,6.94-11.92,10.85c-5.93,6.28-11.26,13.08-16.74,19.74c-0.01,0.02-0.03,0.03-0.04,0.05
		c-0.05,0.06-0.1,0.13-0.16,0.19c-5.46,6.63-11.17,13.05-17.27,19.09c-3.75,3.71-7.66,7.3-11.72,10.69
		c-0.07,0.06-0.14,0.11-0.21,0.17c-2.36,1.96-4.77,3.86-7.23,5.67c-7.16,5.29-14.78,9.93-22.9,13.63
		c-3.94,1.8-10.56,2.81-14.69,4.13c0,0.02,9.7,2.15,22.81,5.01c0.11,0.02,0.23,0.05,0.35,0.08c2.53,0.55,5.19,1.13,7.92,1.72
		c0.12,0.03,0.23,0.05,0.35,0.08c12.82,2.79,27.34,5.93,39,8.43c0.1,0.02,0.2,0.04,0.3,0.06c3.12,0.67,6.04,1.29,8.65,1.84h0
		c0.1,0.02,0.2,0.04,0.3,0.06c7.42,1.57,12.37,2.58,12.76,2.59h0.01c2.71-0.49,5.43-1,8.16-1.54h0c0.11-0.02,0.21-0.04,0.32-0.06
		c0,0,0,0,0,0c13.88-2.75,28.03-6.13,41.68-9.75h0c0.16-0.04,0.33-0.09,0.49-0.13c1.03-0.27,2.06-0.55,3.08-0.82h0
		c0.1-0.03,0.2-0.06,0.31-0.08c3.28-0.88,6.51-1.78,9.71-2.68c0.17-0.05,0.34-0.1,0.5-0.14c11.12-3.14,21.69-6.34,31.25-9.36
		c0.1-0.03,0.2-0.06,0.3-0.09c25.2-7.97,43.3-14.65,45.72-15.56C252.06,244.47,251.98,244.4,251.89,244.33z"/>
	<path class="st0" d="M246.19,305.96c-5.85-0.32-11.71-0.64-17.56-0.96c0.05,0.93,0.51,1.84,1.16,2.53
		c5.26,0.28,10.51,0.59,15.77,0.88c0.1-0.13,0.18-0.27,0.26-0.42C246.18,307.33,246.3,306.63,246.19,305.96z"/>
	<path class="st8" d="M222.46,296.71c0,0-0.01-0.01-0.01-0.01c0,0,0,0,0,0c-0.28-0.39-0.82-0.72-1.12-0.92
		c-1.15-0.8-2.35-1.52-3.59-2.16c-0.4-0.21-0.81-0.4-1.22-0.59c-2.07-0.96-4.24-1.7-6.46-2.21c-2.16-0.51-4.37-0.79-6.58-0.88
		c-3.55-0.14-7.11,0.24-10.57,1.08c-1.62,0.39-3.22,0.89-4.78,1.48c-1.39,0.52-2.76,1.1-3.97,1.95c-0.04,0-0.08,0.01-0.11,0.06
		c0,0.01-0.01,0.02-0.02,0.03c0,0-0.01,0.01-0.01,0.01c0,0,0,0,0,0c-1.42,2.17-2.53,4.54-3.3,7c-0.95,3.04-1.38,6.25-1.26,9.44
		c0.02,0.55,0.06,1.1,0.11,1.65c0.56,5.64,3,11.69,8.19,14.55c0.36,0.2,0.72,0.38,1.09,0.54c2.6,1.16,5.5,1.58,8.31,1.76
		c1.02,0.07,2.05,0.1,3.07,0.08c2.41-0.04,4.81-0.34,7.13-0.96c4.68-1.24,9.1-3.91,12.01-7.8c0.61-0.82,1.16-1.69,1.63-2.61
		c1.26-2.5,1.96-5.33,2.4-8.14c0.14-0.88,0.25-1.75,0.35-2.62C224.17,303.81,224.02,300.07,222.46,296.71z M218.53,315.32
		c-0.8,2.22-2.1,4.18-3.74,5.81c-1.94,1.93-4.35,3.4-6.95,4.33c-1.88,0.67-3.84,1.07-5.83,1.25c-0.81,0.08-1.63,0.11-2.45,0.12
		c-2.79,0.01-5.7-0.26-8.34-1.19c-0.71-0.25-1.37-0.56-1.99-0.92c-3.78-2.2-5.93-6.36-6.68-10.7c-0.11-0.65-0.2-1.31-0.25-1.97
		c-0.36-4.19,0.42-8.45,2.2-12.25c0.47-1.01,1.02-1.99,1.63-2.93c1.81-1.29,4.07-2.01,6.18-2.61c2.3-0.66,4.67-1.09,7.06-1.25
		c0.91-0.06,1.82-0.08,2.72-0.07c3.57,0.06,7.11,0.74,10.44,2.05c0.24,0.09,1.1,0.48,2.12,0.99c1.55,0.77,3.47,1.82,4.18,2.56
		c0.02,0.02,0.14,0.13,0.19,0.19c1.18,2.56,1.4,5.41,1.18,8.19c-0.07,0.87-0.16,1.75-0.29,2.64
		C219.63,311.52,219.19,313.49,218.53,315.32z"/>
	<path class="st8" d="M278.8,301.03C278.8,301.02,278.79,301.02,278.8,301.03c-0.01-0.01-0.01-0.01,0-0.01
		c-0.09-0.13-0.22-0.25-0.36-0.37c-0.26-0.23-0.57-0.41-0.76-0.55c-1.15-0.8-2.35-1.52-3.59-2.16c-2.43-1.25-5.02-2.19-7.68-2.81
		c-2.56-0.59-5.16-0.89-7.78-0.9c-3.15-0.02-6.31,0.36-9.37,1.11c-1.49,0.36-2.96,0.81-4.4,1.34c-0.13,0.04-0.25,0.09-0.38,0.14
		c-1.39,0.52-2.76,1.1-3.97,1.95c-0.04,0-0.08,0.02-0.11,0.06c0,0.01-0.01,0.02-0.02,0.03c0,0-0.01,0-0.01,0.01c0,0,0,0,0,0.01
		c-3.43,5.24-5.03,11.6-4.47,17.84c0.01,0.08,0.01,0.17,0.02,0.25c0.54,5.45,2.83,11.27,7.67,14.25c0.17,0.11,0.35,0.21,0.53,0.31
		c2.85,1.57,6.19,2.09,9.4,2.3c1.95,0.13,3.91,0.11,5.85-0.09c1.47-0.15,2.93-0.41,4.35-0.79c3.36-0.89,6.59-2.52,9.22-4.81
		c1.8-1.56,3.32-3.44,4.41-5.6c1.25-2.48,1.95-5.27,2.39-8.05c0.15-0.91,0.26-1.82,0.36-2.71
		C280.51,308.14,280.35,304.39,278.8,301.03z M274.86,319.64c-0.93,2.59-2.54,4.82-4.58,6.59c-1.78,1.55-3.87,2.75-6.11,3.55
		c-1.5,0.53-3.06,0.9-4.63,1.11c-1.21,0.17-2.43,0.24-3.64,0.25c-2.79,0.01-5.7-0.26-8.34-1.19c-0.98-0.34-1.88-0.8-2.69-1.36
		c-3.35-2.29-5.28-6.19-5.98-10.25c-0.16-0.92-0.26-1.85-0.31-2.78c-0.26-5.04,1.12-10.14,3.88-14.38c0.92-0.65,1.95-1.16,3.02-1.58
		c1.04-0.41,2.12-0.73,3.16-1.03c2.3-0.66,4.67-1.09,7.06-1.25c0.48-0.03,0.96-0.05,1.44-0.06c3.99-0.09,8,0.58,11.72,2.05
		c0.6,0.23,5.12,2.33,6.3,3.56c0.02,0.02,0.14,0.13,0.19,0.18c0.11,0.23,0.21,0.46,0.29,0.7c0.92,2.38,1.09,4.96,0.89,7.49
		c-0.03,0.33-0.06,0.67-0.09,1C276.2,314.74,275.7,317.3,274.86,319.64z"/>
	<path class="st8" d="M238.49,303.04c-0.02,0.08-0.03,0.15-0.05,0.23c-1.52-2.25-4.06-3.65-6.74-4.01c-3.1-0.42-6.21,0.55-8.84,2.17
		c0-0.21,0-0.43,0-0.64c0-0.14-0.23-0.14-0.22,0c0,0.26,0,0.52,0,0.78c-0.07,0.05-0.15,0.09-0.22,0.14
		c-0.12,0.08-0.01,0.27,0.11,0.19c0.03-0.02,0.07-0.04,0.1-0.07c-0.01,0.8-0.05,1.59-0.11,2.39c-0.15,0.09-0.3,0.18-0.44,0.28
		c-0.12,0.08-0.01,0.27,0.11,0.19c0.1-0.07,0.2-0.13,0.3-0.19c-0.08,0.91-0.19,1.83-0.34,2.73c-0.02,0.14,0.19,0.2,0.22,0.06
		c0.16-0.98,0.28-1.96,0.36-2.94c2.5-1.52,5.42-2.44,8.36-2.11c2.77,0.31,5.43,1.77,6.94,4.14c-0.01,0.48,0,0.96,0.03,1.44
		c0.01,0.14,0.23,0.14,0.22,0c-0.03-0.42-0.04-0.85-0.03-1.27c0.06-0.02,0.1-0.09,0.06-0.16c-0.02-0.03-0.04-0.05-0.05-0.08
		c0.03-0.86,0.12-1.71,0.29-2.55c0.08,0,0.15-0.08,0.1-0.16c-0.02-0.03-0.03-0.05-0.05-0.08c0.03-0.14,0.06-0.29,0.1-0.43
		C238.74,302.96,238.52,302.9,238.49,303.04z"/>
	<g>
		<path class="st4" d="M251.51,258.85c-0.01,0.08-0.01,0.16-0.02,0.24c-8.83,2.48-17.66,4.96-26.49,7.43
			c-12.58,3.52-25.17,7.03-37.76,10.53c-11.51,3.2-23.02,6.39-34.53,9.57c-13.21,3.65-26.43,7.3-39.65,10.93
			c-1.39,0.38-2.79,0.76-4.18,1.15c0-0.08,0.01-0.16,0.01-0.23c0.11-0.03,0.21-0.06,0.32-0.09l0.56-0.15
			c4.18-1.15,8.36-2.29,12.54-3.44c10.12-2.78,20.24-5.58,30.36-8.37c14.61-4.04,29.22-8.09,43.82-12.16
			c9.45-2.63,18.89-5.27,28.34-7.91C233.72,263.85,242.62,261.35,251.51,258.85z"/>
		<path class="st4" d="M250.49,271.68c-0.01,0.08-0.02,0.16-0.02,0.24c-4.62,1.3-9.25,2.6-13.87,3.89
			c-15.14,4.24-30.29,8.47-45.44,12.68c-12.02,3.34-24.03,6.67-36.06,10c-12.71,3.51-25.42,7.01-38.13,10.51
			c-2.96,0.81-5.93,1.63-8.9,2.44c0.01-0.08,0.01-0.16,0.02-0.24c6.05-1.65,12.09-3.31,18.13-4.98c9.62-2.65,19.24-5.3,28.85-7.96
			c15.11-4.18,30.22-8.37,45.32-12.58c12.01-3.34,24.02-6.7,36.03-10.06C241.12,274.31,245.81,273,250.49,271.68z"/>
	</g>
	<g>
		<path class="st3" d="M206.42,260.11c-0.1,0.03-0.2,0.06-0.3,0.09c-0.95-0.52-1.88-1.05-2.81-1.6c-4.79-2.85-9.28-6.19-13.3-10.05
			c-3.93-3.78-7.42-8-10.61-12.42c-3.28-4.56-6.24-9.35-9.08-14.19c-2.62-4.46-5.08-8.98-8.2-13.13
			c-5.97-7.95-13.52-14.7-22.02-19.84c-5.95-3.59-12.36-6.4-19.04-8.28c0.08-0.06,0.15-0.12,0.23-0.17
			c7.25,2.06,14.19,5.22,20.54,9.27c7.9,5.04,14.92,11.48,20.54,18.99c2.99,3.99,5.38,8.31,7.88,12.61
			c2.71,4.65,5.53,9.24,8.63,13.64c3.11,4.41,6.51,8.64,10.34,12.45c3.86,3.85,8.17,7.21,12.79,10.08
			C203.46,258.44,204.93,259.29,206.42,260.11z"/>
		<path class="st3" d="M164.66,272.38c-0.1,0.03-0.2,0.06-0.31,0.08h0c-0.34-0.2-0.69-0.4-1.02-0.61c-3.31-2.04-6.34-4.51-9.13-7.21
			c-6.04-5.85-10.91-12.73-15.97-19.4c-2.69-3.54-5.44-7.04-8.47-10.29c-2.58-2.78-5.36-5.38-8.3-7.78
			c-5.92-4.84-12.48-8.87-19.46-11.98c-3.19-1.42-6.46-2.65-9.8-3.67c0.05-0.06,0.11-0.13,0.16-0.19c4.17,1.28,8.24,2.88,12.16,4.78
			c6.82,3.29,13.21,7.48,18.93,12.44c6.3,5.46,11.48,11.91,16.47,18.55c5.08,6.76,10.12,13.63,16.47,19.27
			C158.94,268.63,161.69,270.69,164.66,272.38z"/>
		<path class="st3" d="M119.1,283.16c-0.11,0.02-0.22,0.04-0.32,0.06h0c-0.44-0.27-0.87-0.54-1.31-0.82
			c-5.43-3.51-10.24-7.79-14.71-12.45c-4.72-4.91-9.17-10.1-14.36-14.54c-4.81-4.11-10.18-7.56-15.9-10.26
			c-3.08-1.46-6.25-2.69-9.5-3.69c0.07-0.06,0.14-0.11,0.21-0.17c3.84,1.19,7.57,2.71,11.16,4.53c5.56,2.81,10.76,6.34,15.4,10.5
			c5.12,4.58,9.56,9.83,14.36,14.73C108.64,275.65,113.58,279.8,119.1,283.16z"/>
	</g>
	<g>
		<path class="st3" d="M154.34,174.82c-9.9,4.39-19.32,9.88-27.97,16.39c-9.07,6.82-17.18,14.77-24.27,23.62
			c-7.45,9.29-14.16,19.14-22.5,27.69c-7.53,7.71-15.99,14.51-25.13,20.23c-4.24,2.65-8.62,5.07-13.13,7.23
			c-0.12-0.02-0.23-0.05-0.35-0.08c5.91-2.83,11.61-6.09,17.04-9.73c9.06-6.08,17.38-13.24,24.71-21.32
			c8.16-8.99,14.79-19.21,22.7-28.41c7.17-8.34,15.43-15.73,24.43-22.05c7.59-5.33,15.71-9.9,24.18-13.68
			C154.15,174.75,154.25,174.78,154.34,174.82z"/>
		<path class="st3" d="M161.03,177.34c-9.48,4.31-18.51,9.62-26.84,15.88c-9.07,6.82-17.18,14.77-24.27,23.62
			c-7.45,9.29-14.16,19.14-22.5,27.69c-7.53,7.71-15.99,14.51-25.13,20.23c-4.1,2.57-8.34,4.91-12.69,7.02
			c-0.12-0.02-0.23-0.05-0.35-0.08c5.75-2.78,11.3-5.96,16.6-9.52c9.06-6.08,17.38-13.24,24.71-21.32
			c8.16-8.99,14.79-19.21,22.7-28.41c7.17-8.34,15.43-15.73,24.43-22.05c7.25-5.1,14.99-9.5,23.06-13.17
			C160.84,177.26,160.94,177.3,161.03,177.34z"/>
	</g>
	<g>
		<path class="st3" d="M194.98,197.9c-0.31,0.09-0.62,0.18-0.93,0.28c-9.88,3.05-19.02,8.11-27.4,14.11
			c-8.82,6.32-16.8,13.69-24.51,21.3c-8.1,7.99-15.95,16.25-24.34,23.93c-8.47,7.75-17.62,14.69-26.95,21.35
			c-0.65,0.46-1.3,0.93-1.95,1.39c-0.1-0.02-0.2-0.04-0.3-0.06c2-1.42,4-2.85,5.99-4.29c9.39-6.82,18.41-14.07,26.83-22.07
			c8.25-7.84,16.06-16.13,24.27-24.02c7.6-7.31,15.56-14.28,24.35-20.14c7.67-5.12,15.98-9.35,24.83-11.98
			C194.9,197.77,194.94,197.84,194.98,197.9z"/>
		<path class="st3" d="M198,203.11c-9.34,3.08-18.01,7.95-25.98,13.66c-8.82,6.32-16.8,13.69-24.51,21.3
			c-8.1,7.99-15.95,16.25-24.34,23.93c-7.98,7.3-16.55,13.87-25.32,20.18c-0.1-0.02-0.2-0.04-0.3-0.06c0.8-0.57,1.6-1.15,2.4-1.73
			c9.39-6.82,18.41-14.07,26.83-22.07c8.25-7.84,16.06-16.13,24.27-24.02c7.6-7.31,15.56-14.28,24.35-20.14
			c7-4.67,14.52-8.6,22.5-11.25C197.93,202.98,197.97,203.04,198,203.11z"/>
	</g>
	<g>
		<path class="st3" d="M220.84,225.81c-7.08,3.04-13.57,7.34-19.62,12.09c-7.03,5.52-13.53,11.67-20.12,17.69
			c-6.54,5.97-13.14,11.88-19.82,17.69c-0.16,0.04-0.33,0.08-0.49,0.13c0.58-0.5,1.16-1,1.73-1.51c7.4-6.46,14.68-13.04,21.91-19.67
			c6.39-5.86,12.79-11.74,19.78-16.9c5.11-3.77,10.55-7.13,16.37-9.66C220.67,225.73,220.75,225.77,220.84,225.81z"/>
		<path class="st3" d="M227.38,229.04c-7.71,3.07-14.73,7.65-21.23,12.76c-7.03,5.52-13.53,11.67-20.12,17.69
			c-3.7,3.38-7.41,6.73-11.15,10.06c-0.17,0.05-0.33,0.09-0.5,0.14c5.03-4.48,10.02-9,14.98-13.56c6.39-5.86,12.79-11.74,19.78-16.9
			c5.58-4.12,11.56-7.74,17.99-10.33C227.21,228.95,227.29,229,227.38,229.04z"/>
	</g>
	<path class="st0" d="M164.1,130.46c0.1,1-0.23,1.86-0.74,1.91s-1.01-0.72-1.11-1.72c-0.1-1,0.23-1.86,0.74-1.91
		C163.51,128.69,164,129.46,164.1,130.46z"/>
	<path class="st0" d="M172.09,130.1c0.1,1-0.23,1.86-0.74,1.91c-0.51,0.05-1.01-0.72-1.11-1.72c-0.1-1,0.23-1.86,0.74-1.91
		C171.5,128.32,171.99,129.09,172.09,130.1z"/>
	<path class="st0" d="M186.07,135.65c-0.97-1.64-1.35-3.45-1.43-5.33c-0.07-1.88,0.03-3.84-0.74-5.61c-0.44-1-1.18-1.88-2.15-2.36
		c-0.01-0.07-0.03-0.14-0.04-0.21c-0.19-0.87-0.42-1.74-0.84-2.53c-0.39-0.74-0.93-1.39-1.49-2.01c-1.13-1.25-2.33-2.57-3.93-3.21
		c-0.91-0.37-1.9-0.54-2.87-0.68c-1.04-0.15-2.11-0.21-3.14-0.01c-1.42,0.28-2.7,0.97-3.9,1.75c-1.24,0.17-2.42,0.58-3.58,1.06
		c-0.99,0.41-2.43,0.81-2.82,1.94c-0.21,0.6-0.18,1.29-0.22,1.91c-0.05,0.79-0.1,1.58-0.15,2.37c-0.05,0.74-0.08,1.47-0.07,2.21
		c-0.07-0.03-0.14-0.05-0.21-0.08c-0.14-0.04-0.17,0.18-0.04,0.22c0.09,0.03,0.17,0.06,0.26,0.09c0.02,0.76,0.09,1.51,0.26,2.26
		c0.03,0.12,0.19,0.14,0.22,0.01c0.05-0.22,0.11-0.45,0.16-0.67c0.03-0.14-0.19-0.18-0.22-0.04c-0.01,0.05-0.03,0.11-0.04,0.16
		c-0.09-0.54-0.14-1.07-0.16-1.61c0.06,0.03,0.12,0.07,0.19,0.1c-0.04,0.15-0.08,0.3-0.11,0.45c-0.03,0.14,0.19,0.18,0.22,0.04
		c0.03-0.12,0.05-0.24,0.08-0.37c0.03,0.02,0.06,0.04,0.1,0.07c0.12,0.09,0.26-0.09,0.14-0.17c-0.06-0.04-0.12-0.08-0.18-0.12
		c0.55-2.02,1.71-3.81,3.17-5.31c0.67-0.69,1.4-1.28,2.15-1.86c0.65,1.06,1.35,2.1,2.2,3c1.04,1.12,2.3,1.82,3.75,2.28
		c1.47,0.46,3.02,0.7,4.45,1.29c0.75,0.31,1.45,0.73,2.04,1.29c0.51,0.49,0.94,1.05,1.48,1.51c0.83,1.81,1.19,3.82,1,5.84
		c-0.08,0.94-0.23,1.87-0.23,2.82c-0.01,0.86,0.07,1.71,0.19,2.56c0.13,0.91,0.31,1.81,0.51,2.71c0.11,0.52,0.25,1.07,0.86,1.14
		c0.51,0.06,0.96-0.23,1.32-0.55c0.36-0.32,0.67-0.68,1.15-0.82c0.41-0.12,0.85-0.09,1.28-0.13c1.04-0.11,2.22-0.6,2.65-1.62
		C187.93,138.04,186.72,136.76,186.07,135.65z"/>
	<path class="st13" d="M181.46,129.06c-0.52-2.27-2.73-1.61-4.07-0.45c-0.05-0.11-0.26-0.08-0.24,0.07c0,0.05,0.01,0.09,0.02,0.14
		c-0.12,0.12-0.23,0.24-0.33,0.37c-0.1,0.13,0.1,0.29,0.2,0.16c0.06-0.08,0.13-0.15,0.19-0.23c0.03,0.1,0.06,0.2,0.1,0.3
		c0.47,1.99,0.72,4.02,0.75,6.07c0,0.12,0.16,0.14,0.23,0.07C179.99,133.88,182.06,131.68,181.46,129.06z"/>
	<path class="st8" d="M179.96,128.51c-0.37,0.15-0.68,0.39-0.88,0.74c-0.28,0.48-0.16,1.12-0.57,1.53c-0.1,0.1,0.06,0.26,0.16,0.16
		c0.27-0.28,0.34-0.6,0.41-0.98c0.11-0.57,0.39-1.01,0.94-1.24C180.15,128.68,180.09,128.46,179.96,128.51z"/>
	<path class="st0" d="M172.19,124.67c-1.61-0.16-2.89-0.2-3.62,0.88c-0.28,0.41-0.37,0.96-0.1,1.41c0.29,0.49,0.72,0.52,1.21,0.44
		c0.85-0.13,1.69-0.18,2.54-0.25c0.59-0.05,1.19-0.21,1.55-0.74C174.43,125.42,173.04,124.76,172.19,124.67z"/>
	<path class="st0" d="M159.17,127.33c0.46,0.44,1.09,0.46,1.67,0.38c0.85-0.12,1.68-0.26,2.53-0.32c0.49-0.03,0.91-0.16,1.09-0.7
		c0.16-0.5-0.05-1.01-0.41-1.35c-0.95-0.89-2.2-0.57-3.73-0.06C159.51,125.55,158.3,126.5,159.17,127.33z"/>
	<path class="st8" d="M166.47,136.34c-0.43-0.09-0.81-0.23-1.07-0.6c-0.47-0.68-0.32-1.54-0.13-2.29c0.34-1.36,0.77-2.69,1.23-4.01
		c0.05-0.14-0.17-0.19-0.22-0.06c-0.35,0.99-0.67,1.99-0.96,3c-0.24,0.84-0.58,1.78-0.43,2.67c0.12,0.67,0.52,1.22,1.18,1.43
		c0.36,0.11,0.98,0.29,1.34,0.25c0.15-0.02,0.2-0.01,0.25-0.15C167.71,136.44,166.52,136.35,166.47,136.34z"/>
	<path class="st13" d="M171.85,147.99c-0.52,0.04-2.55,0.42-4.77,0.87c-0.2,1.17-0.25,2.35,0.1,3.5c0.49,1.61,1.73,2.62,3.31,3.11
		c3.76,1.17,7.8,0.11,11.25-1.5c1.79-0.84,3.59-1.8,5.24-2.9c0.79-0.53,1.83-1.3,2.28-2.24
		C183.64,147.43,177.51,147.55,171.85,147.99z"/>
	<path class="st0" d="M184.5,299.8c-1.36,0.4-2.66,0.95-3.76,1.75c-0.95,3.04-1.38,6.25-1.26,9.44c0.8,0.62,1.8,0.96,2.82,1.06
		C181.94,307.86,182.72,303.6,184.5,299.8z M199.56,326.82c-2.79,0.01-5.7-0.26-8.34-1.19c-0.71-0.25-1.37-0.56-1.99-0.92
		c-0.26,0.65-0.42,1.33-0.44,2.03c-0.01,0.35,0.02,0.68,0.08,0.99c2.6,1.16,5.5,1.58,8.31,1.76c1.02,0.07,2.05,0.1,3.07,0.08
		c0.72-0.85,1.27-1.86,1.75-2.87C201.19,326.78,200.38,326.82,199.56,326.82z M210.07,290.81c-2.16-0.51-4.37-0.79-6.58-0.88
		c-0.4,0.47-0.74,1-0.98,1.56c-0.2,0.47-0.35,0.95-0.41,1.44c3.57,0.06,7.11,0.74,10.44,2.05c0.24,0.09,1.1,0.48,2.12,0.99
		c0.89-0.76,1.57-1.82,1.88-2.95C214.46,292.07,212.29,291.33,210.07,290.81z M223.37,310.04c-1.05-0.53-2.27-0.55-3.45-0.49
		c-0.29,1.97-0.73,3.93-1.39,5.77c-0.8,2.22-2.1,4.18-3.74,5.81c1.45,0.38,2.91,0.37,4.33-0.2c0.09-0.04,0.19-0.08,0.28-0.12
		c0.61-0.82,1.16-1.69,1.63-2.61c1.26-2.5,1.96-5.33,2.4-8.14C223.4,310.06,223.38,310.05,223.37,310.04z"/>
	<path class="st0" d="M238.89,318.34c-0.16-0.92-0.26-1.85-0.31-2.78c-0.5,0.06-0.99,0.2-1.46,0.41c-0.45,0.2-0.85,0.45-1.22,0.73
		c0.01,0.08,0.01,0.17,0.02,0.25c0.54,5.45,2.83,11.27,7.67,14.25c0.3-0.5,0.57-1.01,0.81-1.53c0.17-0.35,0.32-0.72,0.46-1.08
		C241.52,326.3,239.59,322.4,238.89,318.34z M249.26,295.34c-1.49,0.36-2.96,0.81-4.4,1.34c-0.06,1.01,0.15,2.03,0.63,2.93
		c1.04-0.41,2.12-0.73,3.16-1.03c2.3-0.66,4.67-1.09,7.06-1.25c0.48-0.03,0.96-0.05,1.44-0.06c0.68-0.91,1.19-1.93,1.48-3.03
		C255.48,294.21,252.32,294.59,249.26,295.34z M270.28,326.23c-1.78,1.55-3.87,2.75-6.11,3.55c-1.5,0.53-3.06,0.9-4.63,1.11
		c-0.22,0.91-0.25,1.87-0.17,2.83c1.47-0.15,2.93-0.41,4.35-0.79c3.36-0.89,6.59-2.52,9.22-4.81
		C272.17,327.35,271.27,326.7,270.28,326.23z M278.8,301.03C278.8,301.02,278.79,301.02,278.8,301.03c-0.01-0.01-0.01-0.01,0-0.01
		c-0.09-0.13-0.22-0.25-0.36-0.37c-0.36,0.27-0.72,0.57-1.05,0.89c-0.67,0.64-1.26,1.39-1.73,2.21c0.92,2.38,1.09,4.96,0.89,7.49
		c-0.03,0.33-0.06,0.67-0.09,1c0.91,0.97,2.06,1.72,3.28,2.23c0.15-0.91,0.26-1.82,0.36-2.71
		C280.51,308.14,280.35,304.39,278.8,301.03z"/>
	<path class="st0" d="M171.3,316.41c-0.45-0.02-0.89,0-1.33,0.05c-0.27,0.19-0.53,0.38-0.8,0.57c-1.52,1.1-3.05,2.18-4.53,3.34
		c-1.27,1-2.77,2.1-2.98,3.75c-0.19,1.46,3.35,1.29,5.01,0.82c2.29-0.65,4.65-3.97,8.37-6.99
		C174.05,317.04,172.67,316.47,171.3,316.41z M216.29,305.42c-0.04-0.39-0.14-0.76-0.27-1.1c-5.29-0.25-10.59-0.37-15.87,0.08
		c-0.62,0.25-1.23,0.53-1.82,0.82c-0.92,0.46-1.76,1.09-2.2,2.04c-0.15,0.33-0.26,0.67-0.36,1.01c6.68-1.49,13.59-1.63,20.43-1.4
		C216.32,306.4,216.35,305.92,216.29,305.42z"/>
	<path class="st0" d="M269.93,312.66c-3.36-1.61-6.89-2.8-10.5-3.71c-0.21-0.05-0.43-0.11-0.64-0.16c-1.16,0.56-2.25,1.35-3.14,2.28
		c3.65,0.93,7.21,2.16,10.61,3.82c0.89,0.44,1.93,1.04,3.01,1.72c0.68-0.51,1.31-1.11,1.81-1.74c0.31-0.38,0.57-0.79,0.77-1.23
		C271.21,313.3,270.57,312.97,269.93,312.66z"/>
	<path class="st4" d="M25.91,275.11c-1.46,0.44-4.71-9.55-7.63-8.71C15.14,232.64,4.82,126.28,4.82,126.28s1.96-0.54,5.43-1.48
		C13.82,157.06,25.96,275.1,25.91,275.11z"/>
	<path class="st5" d="M171.33,137.27c-1.59,0.79-3.27,1.08-4.98,1.45c-0.03-0.01-0.06,0.01-0.09,0.02
		c-0.03,0.02-0.05,0.05-0.05,0.09c0,0.02,0,0.04,0.01,0.06c0.47,1.08,1.56,1.93,2.79,1.59c1.37-0.38,1.89-1.89,2.45-3.03
		c0,0,0,0,0,0C171.55,137.38,171.45,137.21,171.33,137.27z"/>
	<path class="st0" d="M143.23,38.09c-1.35-2.01-2.71-4.01-4.09-5.99c-2.72-3.9-5.56-7.73-8.67-11.34c-0.39-0.46-0.79-0.91-1.19-1.35
		c-0.12-0.07-0.24-0.13-0.36-0.2c-0.97-0.5-2.05-0.85-3.15-0.66c-2.36,0.41-2.73,2.97-2.45,4.97c0.33,2.31,1.54,4.4,3,6.18
		c1.84,2.24,4.12,4.09,6.43,5.82c0.05,0.04,0.11,0.08,0.16,0.12c6.16,2.88,11.63,5.33,11.63,5.11
		C144.55,40.44,143.59,38.62,143.23,38.09z"/>
	<path class="st0" d="M204.03,57.44c-0.56-2.36-1.12-4.71-1.72-7.05c-1.17-4.61-2.48-9.2-4.11-13.67c-0.04-0.1-0.08-0.2-0.11-0.31
		c-0.67-0.95-1.44-1.81-2.35-2.55c-0.74-0.6-1.65-1.12-2.64-1c-0.88,0.11-1.65,0.68-2.15,1.4c-1.25,1.78-0.76,4.17-0.38,6.15
		c0.65,3.32,1.72,6.56,3.22,9.59c5.3,5.46,10.46,10.61,10.55,10.38C204.43,60.11,204.18,58.06,204.03,57.44z"/>
	<path class="st0" d="M241.13,84.93c-0.16-0.59-0.34-1.17-0.54-1.75c-0.47-1.37-1.08-3.01-2.59-3.51c-1.32-0.44-2.39,0.32-2.76,1.59
		c-0.25,0.87-0.29,1.81-0.34,2.71c-0.05,0.96-0.06,1.92-0.02,2.88c0.09,2,0.36,4,0.77,5.96c0.33,1.61,0.75,3.19,1.21,4.76
		c1.73,3.38,3.06,5.87,3.15,5.77c0.15-0.19,0.45-1.82,0.49-2.33c0.15-1.94,0.29-3.88,0.41-5.83
		C241.11,91.77,241.22,88.35,241.13,84.93z"/>
	<path class="st0" d="M25.16,271.63c-0.88-1.56-1.99-2.99-3.3-4.21c-1.01-0.94-2.29-2.07-3.72-2.25c-0.62,7.98-1.91,28.2-2.68,37.81
		c0.06,0.09,0.08,0.15,0.09,0.15c0,0,0.04,0.01,0.11,0.02c0.13-0.15,0.26-0.3,0.38-0.44c0.7-0.79,1.41-1.58,2.11-2.37
		c2.52-2.82,5.08-5.67,6.83-9.04C28.17,285.2,28.6,277.72,25.16,271.63z"/>
</g>
</svg>
