<?xml version="1.0" encoding="utf-8"?>
<!-- Generator: Adobe Illustrator 25.2.0, SVG Export Plug-In . SVG Version: 6.00 Build 0)  -->
<svg version="1.1" id="레이어_1" xmlns="http://www.w3.org/2000/svg" xmlns:xlink="http://www.w3.org/1999/xlink" x="0px"
	 y="0px" viewBox="0 0 202.68 539.74" style="enable-background:new 0 0 202.68 539.74;" xml:space="preserve">
<style type="text/css">
	.st0{fill:#35303A;}
	.st1{fill:#F3A699;}
	.st2{fill:#FFFFFF;}
	.st3{fill:#D6A576;}
	.st4{fill:#B58251;}
	.st5{fill:#7A4848;}
	.st6{fill:#DDD1D1;}
	.st7{fill:#F1CFB3;}
	.st8{fill:#E57A65;}
	.st9{fill:#522E2E;}
	.st10{fill:#F8F0EB;}
	.st11{fill:#635E66;}
	.st12{fill:#D9AE8A;}
</style>
<g>
	<g>
		<path class="st0" d="M180.87,233.5c0,0,11.38-1.95,12.57,0c1.2,1.95,11.15,48.85,10.07,51.04c-1.09,2.2-14.26,5.19-14.86,4.59
			C188.06,288.53,180.87,233.5,180.87,233.5z"/>
	</g>
	<g>
		<polygon class="st1" points="114.5,469.26 110.3,504.86 109.34,513 97.98,513.08 97.15,505.29 92.97,465.69 90.59,439.25 		"/>
	</g>
	<g>
		<path class="st2" d="M99.38,505.4c-0.67-0.01-1.44-0.08-2.23-0.11l0.83,7.78l11.36-0.07l0.96-8.14
			C106.68,505.64,103.08,505.44,99.38,505.4z"/>
	</g>
	<g>
		<polygon class="st1" points="167.73,463.18 158.23,499.52 158.22,499.52 155.62,509.48 143.93,508.59 144.42,500.56 147.1,456.11 
			149.1,429.64 		"/>
	</g>
	<g>
		<path class="st2" d="M151.94,502.38c-2.63-0.04-5.16-0.15-7.56-1.13l-0.45,7.34l11.7,0.9l2.01-7.71
			C155.8,502.12,153.94,502.4,151.94,502.38z"/>
	</g>
	<g>
		<path class="st3" d="M150.68,138.4c0.13,7.88,0.73,15.68,1.87,23.37c1.44,2.16,3.06,4.21,4.84,6.14
			c4.88,5.29,12.81,19.17,20.05,21.36c6.68,2.03,13.91-0.23,18.23-5.39c5.32-6.36,4-18.9,1.97-25.97
			c-1.4-4.89-4.79-11.42-7.83-15.72c-3.21-4.52-15.23-43.54-29.94-53.97c-7.43-5.27-22.62-12.75-22.62-12.75s8.71,27.57,8.94,30.07
			C147.21,116.63,150.5,127.22,150.68,138.4z"/>
	</g>
	<g>
		<path class="st3" d="M202.62,355.63c-4.19,3.29-86.34,2.32-86.34,2.32l12.59-191.17l0.57-8.73l5.52-83.8
			c0,0,14.74,8.65,21.43,15.23c10.3,10.12,15.33,47.26,18.92,72.41c2.18,15.24,5.72,41.88,10.53,72.57
			c0.37,2.34,0.74,4.68,1.13,7.07c1.33,8.32,2.75,16.9,4.26,25.58C195.07,289.21,206.82,352.34,202.62,355.63z"/>
	</g>
	<g>
		<path class="st4" d="M154.78,95.41c-3.16-5.44-8.01-10.07-12.31-14.62c-0.53-0.56-1.38,0.29-0.85,0.85
			c4.23,4.46,9.02,9.03,12.12,14.37C154.13,96.68,155.17,96.07,154.78,95.41z"/>
	</g>
	<g>
		<path class="st5" d="M194.55,354.83c-3.16-17.72-13.29-66.72-20.76-95.51c-3.19-12.27-6.79-28.83-9.52-37.4
			c-0.83-2.62-1.58-4.93-2.23-6.87c-1.19-3.63-1.96-5.94-2.08-6.42c-0.31-1.27-0.49-1.95-0.49-1.95s-8.6,5.52-14.88,7.6
			c-0.67,0.22-1.32,0.4-1.92,0.53c-3.71,0.81-7.64,1.84-11.02,3.75c-0.59,0.34-1.16,0.69-1.71,1.09c-0.72,0.5-1.41,1.07-2.05,1.69
			c-1.54,1.5-2.68,3.25-3.53,5.14c-0.08,0.18-0.17,0.36-0.23,0.55c-1.33,3.13-1.94,6.6-2.38,9.94c-0.9,6.71-6.29,23.84-5.35,30.6
			c0.57,4.23,8.71,32.67,15.02,55.04c3.75,13.29,6.86,24.43,7.36,27.11c1.52,7.92,0.38,16.13,3.56,23.57
			c1.46,3.41,3.82,7.23,4.39,11.17c0.69,4.78-1.39,9.1-2.22,13.72c-1.86,10.45-2.84,21.04-4.17,31.56
			c-1.25,9.92-1.5,19.92-2.27,29.88c-0.39,5.02-2.25,17.67-3.1,22.64c-0.3,1.74-0.66,3.47-1.04,5.19c6.35,3.33,15.41,3.87,21.85,5.2
			c4.42,0.92,8.99,1.54,13.59,1.82c2.75-2.6,3.76-10.46,4.77-13.77c2.98-9.88,7.08-27.46,9.77-37.42
			c3.93-14.54,5.14-24.8,7.84-39.65C194.52,388.43,197.26,369.93,194.55,354.83z"/>
	</g>
	<g>
		<path class="st5" d="M144.21,214.13c-12.13-0.76-24.29-1.04-36.44-0.8c-5.55,0.11-13.64,0.05-19.16,0.74
			c-4.04,0.5-7.76,1.92-10.25,5.28c-2.52,3.4-3.47,7.71-4.16,11.81c-0.87,5.19-1.16,15.26-1.11,20.52
			c0.1,11.67-4.11,25.64-3.18,37.25c1.89,23.55,1.21,47.05,5.13,70.48c0.96,5.71,0.92,11.4,1.39,17.18
			c0.5,6.19,2.24,12.24,1.12,18.33c-1.01,5.52,1.34,10.84,0.85,16.45c-0.5,5.71-0.29,11.44,0.13,17.14
			c0.99,13.22,4.74,31.08,4.61,44.36c-0.06,6.39,0.15,15.73-0.26,22.11c3.41,0.97,6.8,2.06,10.23,2.92
			c9.27,2.32,16.86,3.12,26.4-0.63c0.2-1.11,0.39-2.23,0.59-3.33c3.79-20.33,11.06-156.05,11.26-166.74
			c0.2-10.75-0.23-21.48,0.36-32.22c1.35-24.46,6.06-55.75,10.76-79.75c0.59,0.03,1.19,0.06,1.78,0.09
			C145.03,215.37,144.97,214.17,144.21,214.13z"/>
	</g>
	<g>
		<path class="st0" d="M164.27,221.93c-13.14,3.47-26.6,4.81-40.14,5.1c-12.68,0.28-25.45-0.4-38.09-1.13
			c-4.6-0.26-4.75-7.45-0.13-7.18c14.62,0.85,29.4,1.64,44.03,0.93c10.82-0.5,21.57-1.84,32.1-4.6
			C162.69,216.99,163.44,219.3,164.27,221.93z"/>
	</g>
	<g>
		<path class="st2" d="M134.92,86.29c0,0,23.25,23.55,24.9,49.1c0.98,15.24,3.17,28.75,4.45,63.26c0.49,13.31-3.59,12.8-3.59,12.8
			s-9.24,5.17-35.38,6.17c-26.14,1-39.47-2.22-39.47-2.22s-0.66-77.31-1.86-95.87s4.6-40.47,4.6-40.47L134.92,86.29z"/>
	</g>
	<g>
		<path class="st6" d="M136.33,187.18c-0.12-5.31,0.28-10.55-0.12-15.87c-0.41-5.44-0.99-10.87-1.5-16.3c-0.07-0.76-1.27-0.77-1.2,0
			c0.94,10.05,1.86,19.9,1.62,30c-0.11,4.92,0.97,9.79,0.54,14.72c-0.47,5.3-2.31,10.32-5.16,14.79c-0.42,0.65,0.62,1.25,1.03,0.6
			c2.57-4.04,4.34-8.49,5.06-13.23C137.37,196.93,136.44,192.14,136.33,187.18z"/>
	</g>
	<g>
		<path class="st3" d="M94.03,203.25c-0.07,39.31-1.14,163.31-3.35,164.45c-2.22,1.14-21.76-7.07-30.55-10.51
			c-8.78-3.46-22.75-10.24-23.54-12.63c-0.8-2.39,9.17-128.93,9.17-138.51c0-9.58,5.02-109.58,8.13-114.81
			c3.35-5.62,16.08-10.62,26.31-13.87c1.63-0.51,3.2-0.99,4.66-1.41c5.29-1.54,9.1-2.42,9.1-2.42s0.05,8.2,0.08,19.85
			c0.01,3.19,0.02,6.63,0.04,10.24c0.04,17.03,0.04,37.66-0.12,51.73C93.66,183.28,94.06,184.97,94.03,203.25z"/>
	</g>
	<g>
		<g>
			<path class="st1" d="M128.55,62.83l-1.41,7.71l-1.52,8.37l-0.65,3.54c-0.82,4.49-0.81,15.56-3.72,17.06
				c-2.91,1.5-23.32-14.73-22.28-23.38c0.98-8.12,2.73-22.81,2.73-23.37L128.55,62.83z"/>
		</g>
		<g>
			<path class="st7" d="M135.96,77.17c-1.51-0.56-3.16,0.09-4.63,0.48c-1.52,0.41-3.03,0.85-4.53,1.31
				c-0.58,0.05-1.16,0.09-1.74,0.08c-2.44-0.02-4.08-0.91-6.18-1.86c-3.38-1.53-7.93-0.15-10.44-3.37c-2.02-2.6-2.19-6.17-4.25-8.85
				c-1.36-1.77-3.69-4.69-6.02-5.18c-3.13-0.66-4.64,2.56-5.39,6.24c-1.44-0.58-4.19,2.54-4.98,3.57c-0.86,1.13-0.84,2.42-0.69,3.75
				c0.22,1.94,0.6,3.86,1.38,5.67c0.72,1.68,7.13,12.29,10.3,16.17c2.32,2.84,4.77,5.69,7.59,8.06c2.23,1.87,4.87,3.26,6.87,5.4
				c2.19,2.34,2.3,5.2,3.88,7.91c1.45,2.47,3.4,4.52,4.62,7.14c0.82,1.76,1.33,3.6,1.64,5.49c0.63-0.53,1.17-1.2,1.59-1.95
				c0.64-1.17,0.96-2.47,1.11-3.79c0.13-1.24-0.03-2.61,0.34-3.8c0.46-1.47,1.55-2.49,2.59-3.54c4.56-4.6,6.14-11.2,4.46-17.28
				c0.48-0.32,0.93-0.69,1.3-1.16c0.83-1.04,1.13-2.31,1.33-3.6c0.21-1.32,0.42-2.51,0.69-3.68c0.16-0.56,0.32-1.17,0.47-1.8
				c0.21-0.73,0.45-1.47,0.74-2.25C139.15,83.32,139.82,78.59,135.96,77.17z"/>
		</g>
		<g>
			<path class="st1" d="M144.23,34.54c-0.14-7.04-0.84-11.42-0.84-11.42s-8.86-7.63-12.55-9.75c-4.13-2.35-10-2.55-14.61-2.14
				c-9.02,0.79-16.6,8.12-19.89,16.24c-1.88,4.63-3.07,10.33-1.96,15.28c0.86,3.9,3.34,6.43,6.38,8.49c0.53,1.83,1.07,3.66,1.64,5.5
				c0.85,2.75,1.96,3.5,3.62,5.89c2.68,3.94,7.15,6.67,11.69,8.51c4.69,1.9,10.29,2.65,15.39,2.31c3.04-0.19,5.15-1.9,6.39-4.63
				c3.29-7.22,4.07-16,4.55-23.85c0.14-2.34,0.2-4.56,0.22-6.61C144.28,37,144.27,35.72,144.23,34.54z"/>
		</g>
		<g>
			<path class="st0" d="M123.69,41.75c0-0.02,0-0.03,0.01-0.05c0-0.02,0-0.05,0-0.07c0.03-0.35,0-0.67-0.14-0.91
				c-0.18-0.3-0.52-0.48-1.1-0.46c-0.31,0.01-0.55,0.18-0.76,0.36c-1.01,0.87-2.38,3.96-0.8,4.76
				C122.54,46.22,123.55,42.94,123.69,41.75z"/>
		</g>
		<g>
			<path class="st0" d="M141.8,42.19c0-0.02,0-0.03,0.01-0.05c0-0.02,0-0.05,0-0.07c0.03-0.35,0-0.67-0.14-0.91
				c-0.18-0.3-0.52-0.48-1.1-0.46c-0.31,0.01-0.55,0.18-0.76,0.36c-1.01,0.87-2.38,3.96-0.8,4.76
				C140.65,46.66,141.66,43.38,141.8,42.19z"/>
		</g>
		<g>
			<path class="st8" d="M136.82,51.04c-0.76-1.81-1.33-3.56-1.7-5.48c-0.15-0.76-1.3-0.44-1.15,0.32c0.31,1.61,0.75,3.18,1.36,4.7
				c0.38,0.94,1.18,2.19,1.12,3.22c-0.12,2.02-2.37,2.41-3.82,2.97c-0.71,0.28-0.4,1.43,0.32,1.15c1.92-0.75,4.44-1.33,4.67-3.76
				C137.71,53.03,137.24,52.06,136.82,51.04z"/>
		</g>
		<g>
			<path class="st8" d="M136.69,60.22c0-0.59-2.22,0.06-2.52,0.12c-1.61,0.34-3.35,0.05-4.91-0.37c-0.74-0.2-3.3-1.46-3.92-0.74
				c-0.32,0.36,1.8,3.19,4.17,3.8c1.2,0.31,3.5,0.09,4.65-0.4C134.79,62.34,136.69,60.82,136.69,60.22z"/>
		</g>
		<g>
			<path class="st5" d="M127.66,35.1c-0.5-0.61-1.5-1.07-2.13-1.21c-2.31-0.49-4.81-0.65-7.09,0.07c-1.18,0.37-3.58,1.17-3.17,2.75
				c0.06,0.25,0.38,0.4,0.62,0.38c1.99-0.21,4.06,0.26,6.08,0.18c1.35-0.06,4.34,0.41,5.47-0.52
				C128.14,36.18,128.06,35.59,127.66,35.1z"/>
		</g>
		<g>
			<path class="st5" d="M144.23,34.54c-1.35-0.12-2.74-0.02-4.07,0.18c-0.63,0.11-1.66,0.51-2.19,1.09
				c-0.43,0.47-0.54,1.04,0.13,1.66c1.08,0.99,4.08,0.69,5.42,0.83c0.24,0.02,0.49,0.04,0.73,0.05
				C144.28,37,144.27,35.72,144.23,34.54z"/>
		</g>
		<g>
			<path class="st5" d="M126.51,10.91c-7.08-1.3-16.24-1.46-22.23,3.11c-3.46,2.64-6.77,5.96-9.51,9.33
				c-2.15,2.65-3.98,5.52-4.09,9.02c-0.11,3.45,0.65,7.38,2.08,10.52c0.7,1.55,1.67,2.82,2.73,4.12c2.01,2.46,3.18,4.6,4.24,7.63
				c0.1,0.27,1.13,4.05,1.38,3.33c0.92-2.57,1.92-7.81,2.33-10.5c-2.1-3.04-3.53-6.67-2.4-10.24c0.57-1.79,1.9-3.55,4-3.25
				c0.8,0.11,1.37,0.48,1.78,0.99c0.22-0.76,0.35-1.55,0.52-2.3c0.09-0.38,2.01,7.69,2.23,6.57c0.26-8.77,6.1-17.19,11.85-18.5
				c1.97-0.45,3.94-0.84,5.92-0.3c0.99,0.27,1.89,0.64,2.91,0.81c3.51,0.6,6.6,0.97,9.61,2.99c0.21,0.59,1.21,0.27,1.11-0.43
				C139.97,16.47,133.33,12.16,126.51,10.91z"/>
		</g>
		<g>
			<path class="st5" d="M142.16,62.86c-0.18-0.67-0.78-1.08-1.27-1.51c-0.52-0.45-0.62-0.96-0.94-1.55
				c-0.37-0.69-0.92-1.24-1.59-1.64c-1.58-0.95-3.46-1.25-5.28-1.24c-1.88,0.01-3.53-0.77-5.46-0.39c-1.92,0.37-4.2,1.22-5.46,2.83
				c-1.23,0.45-3.17,0.56-3.97,0.43c-0.61-0.09-1.27-0.29-1.86-0.47c-3.19-0.99-3.41-2.3-3.79-5.16c-0.34-2.6-1.99-4.48-2.13-7.13
				c-0.33-6.53-0.12-13-0.83-19.53c-0.05-0.45-0.47-0.75-0.9-0.52c-3.06,1.67-3.09,4.89-2.84,8.02c0.37,4.76,0.69,9.53,1.15,14.29
				c0.43,4.42,1.02,8.84,2.05,13.17c0.69,2.89,1.48,6.08,3.32,8.51c1.53,4.35,5.96,5.29,10.04,7.07c3.92,1.71,8.36,1.21,11.92-0.94
				c0.01,0,0.02,0,0.03-0.01c3.52-0.96,5.29-4.34,6.33-7.55c0.52-1.6,1.03-3.22,1.32-4.89C142.12,64.11,142.3,63.39,142.16,62.86z
				 M136.73,63.66c-0.19,0.82-0.67,1.63-1.17,2.11c-1.57,1.52-3.83,1.1-5.79,0.76c-1.71-0.3-4.04-1.39-4.49-3.25
				c-0.67-2.77,2.46-3.02,4.37-2.99c1.54,0.02,3.04,0.24,4.55,0.47c0.75,0.12,1.56,0.17,2.12,0.77
				C136.85,62.09,136.91,62.88,136.73,63.66z"/>
		</g>
		<g>
			<path class="st5" d="M148.13,21.26c0.83-3.76,1.47-7.64-1.65-10.51c-0.49-2.21-2.84-4.01-4.71-5.07
				c-1.18-0.67-2.48-1.13-3.84-1.23c-1.94-0.15-2.68,0.66-4.45-0.38c-2.69-1.58-5.67-2.85-8.81-3.26c-1.77-0.23-3.15,0.04-4.8,0.69
				c-1.43,0.56-2.75,0.87-4.15,1.03c-1.98-0.27-3.97-0.05-5.89,0.78c-1.49,0.65-2.75,1.69-4.21,2.39c-1.1,0.53-2.33,0.68-3.47,1.12
				c-1.12,0.44-2.08,1.27-3.02,2c-1.97,1.55-3.71,3.36-4.79,5.65c-1.48,3.12-2.89,5.62-5.03,8.28c-0.96,1.2-1.65,2.24-1.5,3.85
				c0.21,2.29,0.66,4.71,1.57,6.83c0.57,1.32,3.12,8.86,3.12,8.86s2.57-6.92,3.39-8.09c2.94-4.21,4.09-9.72,5.41-14.72
				c3.65-0.75,7.28-1.85,10.89-2.72c4.04-0.97,8.59-2.04,12.65-0.67c1.85,0.63,3.58,1.27,5.49,1.71c0.53,0.12,1.58,0.33,2.64,0.67
				c0.01,0.01,0.01,0.03,0.01,0.04c1.2,1.93,2.74,3.37,4.11,5.14c0.83,1.07,1.07,2.76,2.39,3.38c0.69,0.32,1.45,0,2.12,0.21
				c2.39,0.73,1.29,1.75,2.35,2.83c0.54,0.55,1.08,0.69,1.83,0.48c0.92-0.26,1.95-1.56,2.29-2.41c0.3-0.74,0.3-1.13,0.22-1.95
				C148.11,24.33,147.71,23.19,148.13,21.26z"/>
		</g>
		<g>
			<path class="st9" d="M141.77,12.21c-0.64-3.26-2.84-5.37-6.22-5.53c-0.77-0.04-0.77,1.16,0,1.2c2.29,0.11,4.2,1.39,4.89,3.65
				c0.32,1.06,0.23,2.17,0.58,3.23c0.99,2.92,2.82,4.62,1.08,7.89c-0.36,0.68,0.67,1.29,1.03,0.6
				C145.37,19.03,142.58,16.31,141.77,12.21z"/>
		</g>
		<g>
			<path class="st9" d="M137.77,11.86c-3.86-3.62-8.66-6.26-14.05-4.72c-0.74,0.21-0.43,1.37,0.32,1.15
				c4.99-1.43,9.35,1.1,12.89,4.41C137.48,13.24,138.33,12.39,137.77,11.86z"/>
		</g>
	</g>
	<g>
		<path class="st7" d="M124.52,228.3c-1.08,0-1.99-0.86-2.03-1.95l-0.22-5.35c-0.04-1.12,0.83-2.07,1.95-2.11l12.84-0.52
			c1.12-0.04,2.07,0.83,2.11,1.95l0.22,5.35c0.02,0.54-0.17,1.06-0.54,1.46c-0.37,0.4-0.87,0.63-1.41,0.65l-12.84,0.52
			C124.57,228.3,124.55,228.3,124.52,228.3z M137.14,219.56c-0.01,0-0.02,0-0.04,0l-12.84,0.52c-0.22,0.01-0.43,0.1-0.58,0.27
			c-0.15,0.16-0.23,0.38-0.22,0.6l0.22,5.35c0.01,0.22,0.1,0.43,0.27,0.58c0.16,0.15,0.38,0.25,0.6,0.22l12.84-0.52
			c0.22-0.01,0.43-0.1,0.58-0.27c0.15-0.16,0.23-0.38,0.22-0.6l-0.22-5.35C137.95,219.91,137.58,219.56,137.14,219.56z"/>
	</g>
	<g>
		
			<rect x="157.57" y="214.84" transform="matrix(0.9686 -0.2485 0.2485 0.9686 -50.0695 46.2478)" class="st5" width="1.2" height="13.25"/>
	</g>
	<g>
		
			<rect x="94.39" y="224.45" transform="matrix(0.0741 -0.9973 0.9973 0.0741 -130.8702 309.1349)" class="st5" width="13.31" height="1.2"/>
	</g>
	<g>
		<path class="st7" d="M132.3,98.59c-0.25-2.61,0.01-6.18-3.35-6.18c-2.55,0.01-5.16,0.62-7.66,1.52c-0.21-0.04-0.42,0.02-0.55,0.2
			c-1.75,0.66-3.43,1.45-4.99,2.28c-0.04,0.02-0.05,0.05-0.08,0.07c0.2-1.22,0.38-2.43,0.58-3.65c0.12-0.75-1.03-1.08-1.15-0.32
			c-0.09,0.56-0.17,1.13-0.27,1.69c0-0.09,0-0.18,0-0.26c-0.01-0.77-1.2-0.77-1.2,0c0.02,2.5,0.04,5.01,0.06,7.51
			c-0.15,0.99-0.32,1.99-0.47,2.98c-0.12,0.45-0.21,0.92-0.22,1.44c-0.01,0.4,0.39,0.62,0.73,0.58c0.01,0.72,0.01,1.44,0.02,2.16
			c0.04,4.78,0.16,9.63-0.87,14.33c-0.97,4.38-2.99,8.42-4.19,12.73c-1.14,4.1-1.32,8.34-1.2,12.58c0.14,4.79,0.63,9.59,0.24,14.38
			c-0.37,4.65-1.56,9.21-3.24,13.55c-1.64,4.24-4.11,8.12-5.64,12.4c-1.08,3-1.24,6.22-0.86,9.37c1.32,0.34,2.75,0.54,4.45,0.55
			c3.1,0,6.19-0.28,9.3-0.06c3.69,0.26,6.38,0.62,9.82-1.23c1.55-0.83,2.99-1.79,4.51-2.64c0.22-1.88,0.35-3.77,0.41-5.65
			c0.15-4.75-0.08-9.5,0.09-14.24c0.2-5.33,0.99-10.6,1.71-15.88c0.6-4.44,1.14-8.89,1.18-13.37c0.04-5.28-0.79-10.3,0.37-15.53
			C132.09,119.5,133.33,109.25,132.3,98.59z"/>
	</g>
	<g>
		<path class="st7" d="M149.43,157.43c-0.16-0.63-0.48-1.07-0.75-1.67c-0.9-1.96-0.35-3.18-0.1-5.15c0.52-4.12-1.79-6.95-2.97-10.74
			c-1.37-4.38-0.79-9.09-2.18-13.48c-0.69-2.19-1.72-4.27-2.29-6.5c-0.66-2.55-0.67-5.13-0.61-7.75c0.2-7.5-1.17-14.16-6.11-19.69
			c0.33-0.61,0.73-1.2,1.27-1.73c0.55-0.55-0.3-1.39-0.85-0.85c-0.52,0.52-0.93,1.08-1.28,1.66c-0.24-0.24-0.48-0.49-0.74-0.73
			c-0.56-0.52-1.41,0.32-0.85,0.85c0.35,0.33,0.69,0.66,1.02,1.01c-1.49,3.45-1.18,7.71-2.79,11.18c-1.23,2.67-2.7,5-3.43,7.88
			c-0.8,3.15-1.11,6.46-1.53,9.68c-0.91,7.1-0.9,14.02-0.35,21.15c0.57,7.34,1.14,14.67-0.63,21.89c-0.09,0.35,0.18,0.79,0.58,0.76
			c4.56-0.35,9.09-0.93,13.58-1.78c2.58-0.49,5.16-1.06,7.7-1.74c1.11-0.3,2.4-0.48,3.06-1.54
			C149.72,159.33,149.66,158.33,149.43,157.43z"/>
	</g>
	<g>
		<g>
			<path class="st10" d="M145.54,97.07c0,0,2.18-4.05,2.32-3.8c0.14,0.25,29.79,11.21,30.23,10.84c0.45-0.37,8.98-17.8,9.8-17.62
				c0.82,0.18,2.85,1.58,2.85,1.58s-12.8,33.62-13.25,33.62C177.04,121.69,145.54,97.07,145.54,97.07z"/>
		</g>
		<g>
			<path class="st0" d="M144.56,96.27c1.2-1.6,34.68,12.17,35.48,11.77c0.8-0.4,10.98-21.95,11.97-21.55
				c1,0.4-13.37,50.89-13.77,52.69c-0.4,1.8-6.59,15.17-7.38,15.17c-0.8,0-34.51-10.48-34.38-11.48
				C136.61,141.87,143.36,97.87,144.56,96.27z"/>
		</g>
		<g>
			<path class="st11" d="M170.76,152.15c-0.04,0-0.08,0-0.13-0.01c-0.32-0.07-0.53-0.39-0.46-0.71l9.13-41.91
				c0.07-0.32,0.39-0.53,0.71-0.46c0.32,0.07,0.53,0.39,0.46,0.71l-9.13,41.91C171.28,151.96,171.03,152.15,170.76,152.15z"/>
		</g>
		<g>
			<path class="st11" d="M157.78,105.15c-0.06,0-0.13-0.01-0.19-0.03l-10.08-3.39c-0.31-0.11-0.48-0.44-0.38-0.76
				c0.11-0.31,0.45-0.48,0.76-0.38l10.08,3.39c0.31,0.11,0.48,0.44,0.38,0.76C158.27,104.99,158.03,105.15,157.78,105.15z"/>
		</g>
		<g>
			<polygon class="st11" points="169.96,139.28 167.54,150.73 153.79,146.36 155.79,135.24 			"/>
		</g>
		<g>
			<path class="st11" d="M174.57,113.98c-0.06,0-0.13-0.01-0.19-0.03l-27.8-9.3c-0.31-0.11-0.48-0.44-0.38-0.76
				c0.11-0.31,0.45-0.48,0.76-0.38l27.8,9.3c0.31,0.11,0.48,0.44,0.38,0.76C175.06,113.83,174.82,113.98,174.57,113.98z"/>
		</g>
	</g>
	<g>
		<path class="st1" d="M182.49,146.69c-0.94-2.1-2.57-5.03-4.51-6.39c-3.01-2.1-6.69-1.59-9.83-0.19c-2.7,1.21-6.4,2.52-8.42,4.8
			c-1.06,1.2-1.01,2.96,0.06,3.68c-0.75,0.62-1.31,1.38-1.23,2.39c0.09,1.08,0.88,1.65,1.8,1.81c-0.03,1.14,0.59,2.42,1.52,2.85
			c0.65,0.31,1.36,0.41,2.07,0.38c0.21,0.9,1.24,1.03,2,1.13c1.06,0.15,2.08-0.14,3.11-0.08c0.99,0.06,2.01,0.34,2.69,1.04
			c0.61,0.62,0.82,1.39,1.63,1.83c0.78,0.42,1.68,0.58,2.56,0.59c1.74,0.01,3.65-0.55,5.01-1.67
			C184.18,156.21,183.84,149.71,182.49,146.69z"/>
	</g>
	<g>
		<path class="st1" d="M188.76,167.67c-4.59,3.44-10.38,2.24-12.37,0.55c-1.21-1.03-2.37-4.51-3.11-7.12
			c-0.48-1.72-0.78-3.05-0.78-3.05l7.39-12.08c0,0,3.04,2.92,6.21,6.56c0.77,0.87,1.53,1.78,2.26,2.72
			C192.15,160.03,192.09,165.17,188.76,167.67z"/>
	</g>
	<g>
		<path class="st1" d="M66.8,241.45c2.32-0.39,4.64-0.73,6.92-1.3c2.43-0.6,4.81-1.37,7.19-2.13c-0.15-0.41-0.26-0.71-0.32-0.83
			c-1.22-2.84-1.99-6.23-3.81-8.74c-0.13-0.18-0.26-0.35-0.4-0.51c-0.93-1.13-2.3-2.1-3.38-3.09c-1.04-0.96-2.07-1.92-3.11-2.87
			c-2.13-1.96-4.26-3.93-6.39-5.89c-0.55-0.5-5.75-5.17-9.59-8.69c-2.35-2.16-4.19-3.88-4.19-3.99l-13.17,16.64
			c0,0,1.37,0.74,3.5,1.9c4.78,2.6,13.4,7.33,19.15,10.68c3.04,1.78,5.27,3.17,5.7,3.65C65.87,237.39,66.48,239.78,66.8,241.45z"/>
	</g>
	<g>
		<path class="st2" d="M69.9,221.97l-10.71,10.66c-5.75-3.35-14.37-8.08-19.15-10.68c3.14-3.39,11.17-12.03,13.87-14.56
			c3.84,3.52,9.04,8.19,9.59,8.69C65.64,218.05,67.77,220.01,69.9,221.97z"/>
	</g>
	<g>
		<path class="st3" d="M66.1,147.24c-1.43-19.92-7.94-60.22-7.94-60.22s-12.05,7.42-20.38,22.62c-5.56,10.14-31.7,54.66-34.01,58.96
			c-4.92,9.16-3.5,19.05,2.09,27.38c2.31,3.44,4.32,6.81,7.27,9.76c3.41,3.4,7.31,6.05,11.22,8.81c2.45,1.73,4.96,3.37,7.5,4.96
			c0.83,0.52,7.08,5.05,7.69,4.67c1.9-1.18,3.71-2.65,5.4-3.96c4.74-3.7,8.91-8.04,12.56-12.81c0.37,0.21,0.9-0.09,0.87-0.52
			c-0.2-3.03-0.45-6.2,0.43-9.16c0.72-2.46,2.23-4.47,3.56-6.61c2.49-4.02,4.01-8.45,4.77-13.11
			C68.78,167.77,66.83,157.48,66.1,147.24z"/>
	</g>
	<g>
		<path class="st2" d="M188.76,167.67c-4.59,3.44-10.38,2.24-12.37,0.55c-1.21-1.03-2.37-4.51-3.11-7.12
			c1.64,0.34,6.45,1.67,10.19-1.26c2.32-1.82,2.35-5.23,2.63-7.31c0.77,0.87,1.53,1.78,2.26,2.72
			C192.15,160.03,192.09,165.17,188.76,167.67z"/>
	</g>
	<g>
		<path class="st0" d="M97.05,511.47c0.17-0.45,0.45-0.86,0.91-1.27c0.93-0.82,2.26-1.31,3.51-1.34c3.99-0.08,8.22-0.08,8.91,1.37
			c0.74,1.53,1.1,3.19,2.16,7.38c1.06,4.19,2.96,12.76,2.98,14.86c0.03,2.1-0.15,7.13-9.33,7.24c-5.31,0.06-6.1,0.3-9.64-2.63
			c-1.41-1.16-1.8-4.11-1.72-5.65c0.13-2.23,0.31-4.46,0.53-6.69c0.24-2.51,0.53-5.02,0.84-7.52c0.16-1.27,0.32-2.55,0.48-3.82
			C96.77,512.66,96.83,512.04,97.05,511.47z"/>
	</g>
	<g>
		<path class="st0" d="M177.43,530.98c-0.28,0.63-0.62,1.29-1.25,1.58c-0.36,0.16-0.77,0.17-1.15,0.17
			c-1.65-0.02-3.29-0.28-4.92-0.57c-3.84-0.71-7.64-1.66-11.35-2.89c-1.44-0.48-2.9-1.01-4.15-1.87c-1.31-0.9-2.36-2.13-3.51-3.22
			c-1.57-1.47-3.36-2.72-5.39-3.44c-1.46-0.53-3.04-0.78-4.44-1.45c-0.37-0.18-0.75-0.41-0.96-0.77c-0.26-0.47-0.18-1.04-0.08-1.57
			c0.28-1.59,0.61-3.19,0.99-4.77c0.19-0.81,0.41-1.63,0.63-2.44c0.14-0.55,0.28-1.83,0.66-2.25c0.44-0.49,1.25,0,1.94,0.18
			c0.79,0.2,1.59,0.38,2.4,0.5c1.53,0.22,3.1,0.23,4.6-0.18c1.56-0.44,2.96-1.31,4.42-1.98c1.47-0.68,2.79-0.81,3.78,0.12
			c0.34,0.32,1.11,1.81,2.06,3.7c0.17,0.35,0.35,0.69,0.53,1.07c0.38,0.77,0.78,1.57,1.17,2.38c0.18,0.36,0.36,0.71,0.54,1.07
			c1.34,2.68,2.61,5.15,3.26,5.78c1.33,1.32,2.51,2.79,4.06,3.83c1.71,1.16,3.77,1.71,5.46,2.87c0.35,0.25,0.69,0.53,0.93,0.87
			c0.04,0.06,0.07,0.13,0.11,0.19C178.26,528.86,177.86,530.01,177.43,530.98z"/>
	</g>
	<g>
		<path class="st0" d="M140.15,517.45c0,0-0.86,3.44-0.6,3.63c0.26,0.19,7.63,2.69,7.97,2.58c0.34-0.11,1.32-3.76,1.32-3.76
			L140.15,517.45z"/>
	</g>
	<g>
		<path class="st7" d="M162.23,510.91c-1.44,0.62-2.87,1.27-4.3,1.92c-0.69,0.32-1.31-0.71-0.6-1.03c1.45-0.66,2.91-1.32,4.37-1.95
			C161.88,510.19,162.05,510.54,162.23,510.91z"/>
	</g>
	<g>
		<path class="st7" d="M163.95,514.36c-1.39,0.55-2.78,1.1-4.18,1.63c-0.72,0.28-1.03-0.89-0.31-1.15c1.32-0.5,2.63-1.02,3.95-1.54
			C163.59,513.65,163.77,514,163.95,514.36z"/>
	</g>
	<g>
		<path class="st7" d="M108.28,515.91c-2.58-0.46-5.14-0.25-7.71,0.19c-0.76,0.13-0.49,1.3,0.27,1.17c2.47-0.43,4.91-0.61,7.39-0.16
			C108.98,517.24,109.03,516.05,108.28,515.91z"/>
	</g>
	<g>
		<path class="st7" d="M108.28,520.82c-2.58-0.46-5.14-0.26-7.71,0.19c-0.76,0.13-0.49,1.3,0.27,1.17c2.47-0.43,4.91-0.61,7.39-0.16
			C108.98,522.15,109.03,520.95,108.28,520.82z"/>
	</g>
	<g>
		<path class="st8" d="M172.01,141.32c-4.17,1.2-7.93,3.22-11.26,6.01c-0.59,0.5,0.26,1.34,0.85,0.85c3.17-2.66,6.75-4.55,10.73-5.7
			C173.06,142.27,172.75,141.11,172.01,141.32z"/>
	</g>
	<g>
		<path class="st8" d="M172.65,145.41c-4.01,1.35-7.76,3.21-11.26,5.59c-0.63,0.43-0.04,1.47,0.6,1.03
			c3.42-2.32,7.06-4.14,10.98-5.47C173.69,146.31,173.38,145.16,172.65,145.41z"/>
	</g>
	<g>
		<path class="st8" d="M173.72,150.26c-3.12,1.17-6.16,2.5-9.13,4.01c-0.69,0.35-0.08,1.38,0.6,1.03c2.88-1.46,5.82-2.76,8.84-3.89
			C174.75,151.15,174.44,149.99,173.72,150.26z"/>
	</g>
	<g>
		<path class="st8" d="M181.19,156.01c-2.38,3.29-5.99,2.4-9.1,0.79c-0.68-0.35-1.29,0.68-0.6,1.03c3.78,1.95,7.94,2.65,10.74-1.22
			C182.68,155.99,181.64,155.39,181.19,156.01z"/>
	</g>
	<g>
		<path class="st9" d="M140.35,228.58c-0.16-0.75-1.32-0.43-1.15,0.32c1.56,7.3,1.23,14.8,1.2,22.22
			c-0.01,3.51-0.02,7.02-0.04,10.53c-0.01,2.23,0.2,4.52-1.71,6.14c-1.05,0.89-2.81,1.1-4.14,1.33
			c-0.19-12.74-0.69-25.47-1.53-38.19c-0.05-0.76-1.25-0.77-1.2,0c1.89,28.69,2.15,57.46,0.76,86.18c-0.04,0.77,1.16,0.77,1.2,0
			c0.75-15.6,1-31.21,0.79-46.82c0.06,0.01,0.13,0.02,0.2,0c2.29-0.4,5.06-1.01,6.22-3.29c0.57-1.12,0.57-2.37,0.6-3.59
			c0.07-2.53,0.02-5.07,0.03-7.6C141.61,246.76,142.25,237.47,140.35,228.58z"/>
	</g>
	<g>
		<path class="st9" d="M158.75,370.92c-4.11,3.69-7.52,7.97-10.2,12.79c-0.37,0.67,0.66,1.28,1.03,0.6
			c2.64-4.74,5.98-8.93,10.01-12.55C160.17,371.25,159.32,370.41,158.75,370.92z"/>
	</g>
	<g>
		<path class="st9" d="M94.7,462.94c-2.7,7.41-6.1,14.5-10.18,21.26c-0.4,0.66,0.64,1.26,1.03,0.6c4.13-6.84,7.57-14.03,10.3-21.54
			C96.12,462.53,94.96,462.22,94.7,462.94z"/>
	</g>
	<g>
		<path class="st9" d="M153.54,358.66c-2.53,5.93-5.06,11.86-7.59,17.79c-0.3,0.7,0.73,1.31,1.03,0.6
			c2.53-5.93,5.06-11.86,7.59-17.79C154.88,358.57,153.84,357.96,153.54,358.66z"/>
	</g>
	<g>
		<path class="st6" d="M138.96,166.52v1.4c0,0.77,1.2,0.77,1.2,0v-1.4C140.16,165.75,138.96,165.75,138.96,166.52z"/>
	</g>
	<g>
		<path class="st6" d="M139.56,186.28v2.39c0,0.77,1.2,0.77,1.2,0v-2.39C140.76,185.51,139.56,185.51,139.56,186.28z"/>
	</g>
	<g>
		<path class="st6" d="M138.25,209.13c-0.49,0.68-0.71,1.46-0.69,2.29c0.02,0.77,1.22,0.77,1.2,0c-0.02-0.64,0.16-1.17,0.53-1.69
			C139.74,209.11,138.7,208.51,138.25,209.13z"/>
	</g>
	<g>
		<path class="st6" d="M58.96,229.36c-0.52-0.42-0.97-0.89-1.33-1.46c-0.42-0.65-1.45-0.05-1.03,0.6c0.42,0.65,0.92,1.22,1.52,1.7
			C58.7,230.69,59.56,229.85,58.96,229.36z"/>
	</g>
	<g>
		<path class="st6" d="M184.19,162.7c-0.19-0.33-0.29-0.66-0.31-1.04c-0.04-0.77-1.24-0.77-1.2,0c0.03,0.59,0.18,1.13,0.47,1.64
			C183.53,163.97,184.57,163.37,184.19,162.7z"/>
	</g>
	<g>
		<path class="st4" d="M91.54,121.7c-4.2-1.89-8.46-3.68-12.6-5.7c-2.08-1.02-4.1-2.14-5.93-3.57c-1.61-1.25-1.79-1.73-1.12-3.66
			c0.35-1.02,1.05-2.01,1.53-2.96c4.24-8.31,8.06-16.81,11.51-25.47c0.28-0.72-0.87-1.03-1.15-0.32c-2.18,5.46-4.5,10.87-6.99,16.19
			c-1.26,2.69-2.56,5.35-3.89,8c-0.84,1.66-2.68,3.91-2.91,5.74c-0.38,2.93,4.51,5.07,6.56,6.18c4.63,2.5,9.59,4.46,14.39,6.62
			C91.63,123.05,92.24,122.02,91.54,121.7z"/>
	</g>
	<g>
		<path class="st4" d="M89.35,177.32c-1.59-6.74-4.89-12.75-6.77-19.37c-1.72-6.05-3.22-12-5.99-17.69
			c-0.79-1.63-1.85-3.22-2.35-4.96c-0.72-2.49,0.41-4.44,1.35-6.63c1.44-3.37,2.89-6.73,4.33-10.09c0.3-0.7-0.73-1.31-1.03-0.6
			c-1.44,3.36-2.89,6.73-4.33,10.09c-0.98,2.29-2.22,4.52-1.62,7.08c0.7,3,2.71,5.77,3.92,8.58c1.47,3.42,2.59,6.93,3.51,10.53
			c1.75,6.81,4.89,13,6.86,19.73c2.12,7.23,2.98,14.76,3.84,22.22c0.09,0.76,1.29,0.77,1.2,0
			C91.55,189.88,90.82,183.53,89.35,177.32z"/>
	</g>
	<g>
		<path class="st4" d="M175.05,185.13c-2.78-3.19-4.38-6.94-4.79-11.15c-0.33-3.42-0.87-7.97,1.55-10.74
			c0.51-0.58-0.34-1.43-0.85-0.85c-2.73,3.12-2.27,7.73-1.91,11.58c0.43,4.55,2.14,8.55,5.14,11.99
			C174.71,186.56,175.55,185.71,175.05,185.13z"/>
	</g>
	<g>
		<path class="st4" d="M54.81,172.98c3.06-3.13,5.7-6.06,8.04-9.79c1.95-3.11,2.75-5.65,1.75-9.28c-1.31-4.76-3.61-9.32-5.72-13.76
			c-4.47-9.4-8.97-18.79-13.45-28.18c-0.33-0.7-1.36-0.09-1.03,0.6l11.96,25.06c2.12,4.43,4.31,8.85,6.02,13.45
			c0.89,2.4,2.03,5.12,1.36,7.72c-0.51,1.98-1.9,3.79-3.01,5.48c-2.42,3.68-5.81,6.25-8.41,9.71c-2.04,2.71-2.61,6.95-5.84,8.62
			c-1.8,0.93-4.06,1.04-6.01,1.52c-1.8,0.44-3.57,1.01-5.31,1.68c-3.68,1.43-7.11,3.34-10.31,5.66c-0.62,0.45-0.02,1.49,0.6,1.03
			c4.07-2.95,8.54-5.25,13.37-6.69c1.64-0.49,3.54-0.71,5.35-1.15c0.03,0.08,0.08,0.17,0.17,0.24c3.39,2.75,6.62,5.68,9.65,8.84
			c1.45,1.51,2.85,3.07,4.21,4.66c2.65,3.12,1.07,6.12-0.8,8.9c-0.43,0.64,0.61,1.24,1.03,0.6c1.14-1.7,2.75-3.85,2.91-5.97
			c0.16-2.09-1.73-3.73-2.98-5.17c-3.92-4.53-8.25-8.67-12.89-12.47c1.14-0.37,2.21-0.88,3.09-1.68
			C51.41,180.02,52.07,175.79,54.81,172.98z"/>
	</g>
	<g>
		<path class="st4" d="M81.81,237.12c-9.42,3.62-19.21,5.98-29.26,7.02c-0.76,0.08-0.77,1.28,0,1.2c10.15-1.05,20.05-3.4,29.58-7.06
			C82.84,238,82.53,236.84,81.81,237.12z"/>
	</g>
	<g>
		<path class="st12" d="M119.88,81.8c-2.03,3.66-2.04,7.78-3.9,11.43c-1.77,3.47-2.79,6.66-2.53,10.61c0.05,0.76,1.25,0.77,1.2,0
			c-0.14-2.13,0.01-4.21,0.66-6.26c0.61-1.92,1.75-3.51,2.49-5.35c1.31-3.28,1.34-6.62,3.12-9.83
			C121.29,81.73,120.26,81.13,119.88,81.8z"/>
	</g>
	<g>
		<path class="st12" d="M129.62,139.79c-0.71-3.61-2-7.14-2.08-10.85c-0.09-3.62,1.72-6.41,2.37-9.84c0.47-2.52,0-5.06-0.62-7.51
			c-0.93-3.74-1.81-7.22-1.7-11.13c0.16-6.01,1.16-12.12-2.12-17.53c-0.4-0.66-1.43-0.06-1.03,0.6c3.7,6.11,1.59,13.08,1.97,19.76
			c0.17,2.97,1.02,5.74,1.73,8.6c0.94,3.8,0.8,6.87-0.53,10.52c-2.04,5.61-0.78,10.47,0.52,16.1c1.62,7.04,0.31,14.15-0.42,21.23
			c-0.08,0.77,1.12,0.76,1.2,0C129.57,153.18,130.92,146.36,129.62,139.79z"/>
	</g>
	<g>
		<path class="st12" d="M133.75,91.92c-0.98,1.92-2.49,3.39-4.42,4.33c-0.69,0.34-0.09,1.37,0.6,1.03c2.1-1.02,3.79-2.68,4.85-4.76
			C135.13,91.84,134.1,91.23,133.75,91.92z"/>
	</g>
	<g>
		<path class="st12" d="M108.38,83.49c-2.9-1.91-6.14-3.63-8.38-6.33c-2.36-2.86-4.58-6.07-5.88-9.55
			c-0.27-0.72-1.42-0.41-1.15,0.32c1.35,3.64,3.6,7,6.07,9.98c2.35,2.84,5.68,4.62,8.73,6.62
			C108.43,84.94,109.03,83.91,108.38,83.49z"/>
	</g>
	<g>
		<g>
			<path class="st0" d="M186.97,241.53c-7.2-5.29-28.82-23.58-54.14-67.81c-1.33-2.32-2.65-4.63-3.96-6.93
				c-13.73-24.2-25.91-46.55-34.8-63.17C87.32,91.02,82.46,81.7,80.2,77.36c1.63-0.51,3.2-0.99,4.66-1.41
				c1.83,3.52,4.98,9.53,9.18,17.43c8.36,15.72,20.87,38.92,35.41,64.67c2.47,4.36,4.98,8.8,7.56,13.29
				c20.99,36.7,39.61,55.3,48.84,63.12C186.22,236.8,186.59,239.15,186.97,241.53z"/>
		</g>
	</g>
</g>
</svg>
